/* XPM */
static char *_[] = {
/* columns rows colors chars-per-pixel */
"22 37 21 1 ",
"  c #131313",
". c gray9",
"X c #1B1B1B",
"o c gray12",
"O c #1E371E",
"+ c #232323",
"@ c gray15",
"# c #282828",
"$ c #282F28",
"% c #2E2C2E",
"& c #223322",
"* c #273C27",
"= c #2B3827",
"- c #2D4025",
"; c #2E4425",
": c #334B23",
"> c #344D2D",
", c #355722",
"< c #3D5935",
"1 c #416225",
"2 c None",
/* pixels */
"22222222o,,:2222222222",
"2222222 o#o##-22222222",
"222222o&oX.+o 22222222",
"222222;,     +*2222222",
"222222:,&o   &o2222222",
"222222o+&o&X , 2222222",
"222222*o      22222222",
"222222 >,*  &,22222222",
"222222  **o*<:22222222",
"222222&o    X222:,, 22",
"22+=== >&X+-,2o:O+.  2",
"2+%%+:  &  o2o:;O o## ",
"  #o+ O    +2-o   XX@ ",
" %@XXX *X =oo & : .. $",
"X X.  o, ++1o ;& ;  =2",
"2=  ; ,:   ;&  *&,+ 22",
"2 OOOo>&o+ ;:o   o-222",
"22+X&:  ,= &o=o   2222",
"22  = o-> >o  &oX 2222",
"22+$ o,>  <&     X2222",
"22 O ,>&  &;&   +X2222",
"222X    , & *;&OX22222",
"2222 o:,o ,     X22222",
"2222OO& ,  1;& $222222",
"2222   o1 o:-;;X222222",
"2222* ,:  1    2222222",
"2222 o  >*,,*o$2222222",
"22222O&>1 o & 22222222",
"22222o;1  o  X22222222",
"22222  o:&1;o222222222",
"22222O=;&    222222222",
"22222  o: ,o 222222222",
"222222=oo -**222222222",
"222222  oo   222222222",
"2222222O;o-o2222222222",
"22222222+ X22222222222",
"22222222X X22222222222"
};
