/* XPM */
static char *_0[] = {
/* columns rows colors chars-per-pixel */
"58 32 56 1 ",
"  c gray9",
". c #1B1B1B",
"X c gray12",
"o c #3A3319",
"O c #232323",
"+ c #282828",
"@ c #2B2E2D",
"# c #2C2C2C",
"$ c #2E2C2E",
"% c #322D22",
"& c #263328",
"* c #3D3626",
"= c #3F2F38",
"- c #2C3031",
"; c #2F3B3C",
": c #303032",
"> c #35353B",
", c #3A3A3A",
"< c #423629",
"1 c #4F3F2B",
"2 c #514512",
"3 c #5B4326",
"4 c #53472C",
"5 c #604C33",
"6 c #6D5536",
"7 c #7B5C3C",
"8 c #3D3D43",
"9 c #323E49",
"0 c #4B3447",
"q c #563A4D",
"w c #2D4848",
"e c #344557",
"r c #4E4E4E",
"t c #444450",
"y c #4B4B55",
"u c gray34",
"i c #4D6E4E",
"p c #527456",
"a c #555560",
"s c #5E5E6D",
"d c #6D4566",
"f c gray39",
"g c gray43",
"h c #676774",
"j c #72727F",
"k c #866741",
"l c #8F5477",
"z c #7A7A89",
"x c #9B6282",
"c c #BC7F9E",
"v c #6DAAAA",
"b c #878795",
"n c #91919F",
"m c #A5A5AE",
"M c #AEAEAE",
"N c None",
/* pixels */
"NNNNNNNNNNNNNguNNNNNNNNNNNNNNNNNNNNNNNNNNNNNNNNNNNNNNNNNNN",
"NNNNNNNNNNNNNzb6NNrrNNNNNNNNNNNNNNNNNNNNNNNNNNNNNNNNNNNNNN",
"NNNNNNNNNNNNgng65NzfNNNNNNNNNNNNNNNNNNNNNNNNNNNNNNNNNNNNNN",
"NNNNNNNNNNN8fu58<jfkrNruNNNNNNNNNNNNNNNNNNNNNNNNNNNNNNNNNN",
"NNNNNNNNNfnMxqzldjb78NjzuNNNNNNNNNNNNNNNNNNNNNNNNNNNNNNNNN",
"NNNNNNNrzbMmg<mvjbayyuju8NNNNNNNNNNNNNNNNNNNNNNNNNNNNNNNNN",
"NNNNNNrjl8,XX+$8yhzsey,ufr,8NNNNNNNNNNNNNNNNNNNNNNNNNNNNNN",
"NNNNN8fr$XX.N0f,$@asue9,uwup,NNNNNNNNNNNNNNNNNNNNNNNNNNNNN",
"NNNNwawXXXNN8g,XX+,,ay9e,,1a,NNNNNNNNNNNNNNNNNNNNNNNNNNNNN",
"NNNNuwXXXNNNf*XXNu$O,a9,8$$5-o8NNNNNNNNNNNNNNNNNNNNNNNNNNN",
"NNN8a$XXNNNu4+XNr8O.$89$+8$;w<,NNNNNNNNNNNNNNNNNNNNNNNNNNN",
"NNNg9XX.NN,4%.NNt$..N,e@O,+%or1;$NNNNNNNNNNNNNNNNNNNNNNNNN",
"NNuz$XXNNNy>X.N8$..NN$y@+O,&.-%-8+NNNNNNNNNNNNNNNNNNNNNNNN",
"NNnrXXNNNN6+.NNr+..NNN8-+.$&O.-+s$NNNNNNNNNNNNNNNNNNNNNNNN",
"N8z$XXNNN89X.NN,X.NNNN,9@+O$O@.o;8,N+8NNNNNNNNNNNNNNNNNNNN",
"NrfXX.NNN5%X.N@+X.NNNN$;@ON-O&Xo&ras:u8NN,uNNNN,rNN,+NNNNN",
"Ni8XXNNNN1XXNN$OXONNNNN;OO.$OONO$&1w;afr+gzf,+rpia+ug8+NNN",
"Nu$XXNNN,;X.NN$XXONNNNN,+X.++ONX-&-;%;r;,fro5,w;;r;;ir;:+N",
"NdXX.NNN8&X.NN$X.+NNNNN;-X.O+O.N-OX+.+-+X$uO$g,u$+Xr+.,u,+",
",qXXNNNN,XXONN$X.+NNNNN$,X.N-O.N&X.X -.$3zh<unjrXwa,.+ur+,",
";8XXNNNN,XX+NN$X.$NNNNN$,XXN$OXN$X. $a&;2w%X+1r-owr;%$<$+:",
"w>XXNNNN,XX+NN@O.$NNNNNN;XXN,OXN;X.N8;X-o-X  +,&X-;-$X$o+.",
"0$X.NNNN$OO$NNN@O,NNNNNNwXXN;OXO;XN$;;X8+X NN XX XX+oX. NN",
"w-X.NNNN$+O$NNN@O+$NNNNN;XX+,O.>-.N8$XNNNNNNNNNNNNNNNNNNNN",
"0-O.NNNNN@O,NNNN@.ONNNNNwX.$>ON$+.NNNNNNNNNNNNNNNNNNNNNNNN",
",=OXNNNNN@OO$NNNNNNNNNNNwX.$#XN+XNNNNNNNNNNNNNNNNNNNNNNNNN",
"$=OONNNNNN@OONNNNNNNNNN;;X.$OXNNNNNNNNNNNNNNNNNNNNNNNNNNNN",
"NwOO.NNNNNNNNNNNNNNNNNNaO..NXNNNNNNNNNNNNNNNNNNNNNNNNNNNNN",
"Nw&O.NNNNNNNNNNNNNNNNN;r..NNNNNNNNNNNNNNNNNNNNNNNNNNNNNNNN",
"N;;OONNNNNNNNNNNNNNNNNr&..NNNNNNNNNNNNNNNNNNNNNNNNNNNNNNNN",
"NN8&ONNNNNNNNNNNNNNNNN,...NNNNNNNNNNNNNNNNNNNNNNNNNNNNNNNN",
"NNN8OONNNNNNNNNNNNNNNNO.XNNNNNNNNNNNNNNNNNNNNNNNNNNNNNNNNN"
};
