/* XPM */
static char *_1[] = {
/* columns rows colors chars-per-pixel */
"43 34 65 1 ",
"  c #1B1B1B",
". c gray12",
"X c #3A3319",
"o c #232323",
"O c #282828",
"+ c #2B2E2D",
"@ c #2C2C2C",
"# c #2E2C2E",
"$ c #322D22",
"% c #223322",
"& c #273C27",
"* c #2B3827",
"= c #263328",
"- c #3D3626",
"; c #2C3031",
": c #2F3B3C",
"> c #303032",
", c gray20",
"< c #35353B",
"1 c #3A3A3A",
"2 c #423629",
"3 c #4F3F2B",
"4 c #2D4025",
"5 c #2E4425",
"6 c #344D2D",
"7 c #3D5935",
"8 c #5B4326",
"9 c #604C33",
"0 c #6D5536",
"q c #7B5C3C",
"w c #3D3D43",
"e c #323E49",
"r c #2D4848",
"t c #344557",
"y c #4E4E4E",
"u c #444450",
"i c #4B4B55",
"p c gray34",
"a c #446343",
"s c #4D6E4E",
"d c #527456",
"f c #555560",
"g c #5E5E6D",
"h c gray39",
"j c gray43",
"k c #676774",
"l c #777777",
"z c #72727F",
"x c #866741",
"c c #976E45",
"v c #5D825E",
"b c #6B906D",
"n c #7A7A89",
"m c #4D8E8E",
"M c #579A9A",
"N c #6DAAAA",
"B c #7BA4E6",
"V c #848484",
"C c #878795",
"Z c #91919F",
"A c #94B08D",
"S c #86BBBB",
"D c #A2A2A2",
"F c #AFC8A8",
"G c None",
/* pixels */
"GGGGGGGGGGGGGGGGGwGGGGGGGGGGGGGGGGGGGGGGGGG",
"GGGGGGGGGGGGGGGGGpGGGGGGGGGGGGGGGGGGGGGGGGG",
"GGGGGGGGGGGGGGGGGh1GGGGGGGGGGGGGGGGGGwGGGGG",
"GGGGGGGGGGGGGGGGwj1GGGGGGGGGGGGGGGGGG3GGGGG",
"GGGGGGGGGGGGGGGGwq1GGGGGGGGGGGGGGGGG3yGGGGG",
"GGGGGGGGGGGGGGGGyp1GGGGGGGGGGGGGGGGGf9GGGGG",
"GGGGGGGGGGGGGGGGp9wGGGGGGGGGGGGGGGGGxw1GGGG",
"GGGGGGGGGGGGGGGGp01GGGGGGGGGGGGGGGGGh31GGGG",
"GGGGGGGGGGGGGGGGpp-1GGGGGGGGGGGGGGGw0w1GGGG",
"GGGGGGGGGGGGGGGGyh>wGGGGGGGGGGGGGGGyuw1GGGG",
"GGGGGGGGGGGGGGGGyj3pGGGGGGGGGGGGGGwy8>GGGGG",
"GGGGGGGGGGGGGGGGylq0GGGGGGGGGGGGGGhyewGGGGG",
"GGGGGGGGGGGGGGGGwnjupGGGGGGGGGGGGwhw1uGGGGG",
"GGGGGGGGGGGGGGGGwhcwhGGGGGGGGGGGwhp1,wGGGGG",
"GGGGGGGGGGGGGGGGGpy2ypggyw1>GGGwCnt,yGGGGGG",
"GGGGGGGGGGGGGGGGGywCDZnkafyw1>wnC0;;wGGGGGG",
"GGGGGGGGGGGGGGGGGhZAFNvryaa6@tnztXoyGGGGGGG",
"GGGGGGGGGGGGGGGilZbAAbkfyya@gkfeX+hGGGGGGGG",
"GGGGGGGGGGGGGGp>>Vyw<yfi6:5*it;;@hGGGGGGGGG",
"GGGGGGGGGGGGG9o.jy>  :fh6@O@t;o2fOGGGGGGGGG",
"GGGGGGGGGGG@y@og0o... ;pr:o%e>et@OoGGGGGGGG",
"GGGGGGGGGGGw3nxp>ooo.rsy7w>o$#e;O$oGGGGGGGG",
"GGGGGGGGGG@jZn<>O=rpmvpy71&%o@++$ooGpGwGGGG",
"GGGGGGGG@ikCgitOrdMSbi%16w2@o.@#Oo y9wyGGGG",
"GGGGGGGikkkiiiyfdvv76O.&7aywoooXoo ww9w>GGG",
"GGynZDBNngy80e:ts7%....%X7<1$oOoo >$<<f>9wG",
"Gkk11Ckgig:=ef=o %o%    @h-<$o oo wo$@o9w<o",
"@y1wkkkef0o oO o @@oo  Ggjyw,o  oG>oooGwooG",
"G@>wyyf o#     1 O1wGGGyyw1>> GGGGoooGG<oGG",
"GG@@<o@o p< @y w@Gw1GG11>>>GGGGGGGGGGGGGGGG",
"GGw1@ y  wp<GwGw@GGGGGGGGGGGGGGGGGGGGGGGGGG",
"GGGw@@hyGG1wGGGGGGGGGGGGGGGGGGGGGGGGGGGGGGG",
"GGG11G<hwGGGGGGGGGGGGGGGGGGGGGGGGGGGGGGGGGG",
"GGGGGGGG1GGGGGGGGGGGGGGGGGGGGGGGGGGGGGGGGGG"
};
