/* XPM */
static char *_2[] = {
/* columns rows colors chars-per-pixel */
"19 20 37 1 ",
"  c #3A3319",
". c #2C2C2C",
"X c #2B3827",
"o c #3D3626",
"O c #303032",
"+ c #453C15",
"@ c #423629",
"# c #453F2A",
"$ c #4F3F2B",
"% c #2D4025",
"& c #2E4425",
"* c #334B23",
"= c #344D2D",
"- c #355722",
"; c #5D4E0E",
": c #514512",
"> c #68570B",
", c #746107",
"< c #7F6A04",
"1 c #5B4326",
"2 c #53472C",
"3 c #674027",
"4 c #704628",
"5 c #7A4B2B",
"6 c #604C33",
"7 c #6D5536",
"8 c #7B5C3C",
"9 c #416225",
"0 c #4C6C2A",
"q c #446343",
"w c #8B7300",
"e c #8F5733",
"r c #9B5F3B",
"t c #866741",
"y c #AD7F4E",
"u c #9A8500",
"i c None",
/* pixels */
"iiiiiiiiiiiiw,iiiii",
"iiiiiiiiiyt16t7iiii",
"ii&99-iii87:O;t+iii",
"iiiii%*+ii:5e:>+iii",
"iiiiii%**7t 3+wiiii",
"iiiiiiii*1761#+iiii",
"iiiiowu>-O>w:7iiiiq",
"=0<917<8@u;+O9Xi -%",
"ii-ww:6t2<r;+:*q+%i",
"iiiut6:$ >:OiX-%iii",
"iii>;:e4$ O*ii+Xiii",
"iiiii;$1.>t:9i*Xiii",
"iiiiw,; 6ty+*-*iiii",
"iiiiw<7$78:Oi%+iiii",
"iiii >: OiiiiX*iiii",
"iiiiiiiiiiiiiX%iiii",
"iiiiiiiiiiiiiXXiiii",
"iiiiiiiiiiiiiXXiiii",
"iiiiiiiiiiiiiXiiiii",
"iiiiiiiiiiiiiXiiiii"
};
