/* XPM */
static char *_5[] = {
/* columns rows colors chars-per-pixel */
"53 34 66 1 ",
"  c gray6",
". c #131313",
"X c gray9",
"o c #1B1B1B",
"O c gray12",
"+ c #1E371E",
"@ c #3A3319",
"# c #232323",
"$ c #282828",
"% c #2C2C2C",
"& c #2E2C2E",
"* c #392B27",
"= c #273C27",
"- c #263328",
"; c #382D34",
": c #3F2F38",
"> c #2C3031",
", c #2F3B3C",
"< c #303032",
"1 c gray20",
"2 c #35353B",
"3 c #3A3A3A",
"4 c #453C15",
"5 c #2E4425",
"6 c #344D2D",
"7 c #3D5935",
"8 c #5D4E0E",
"9 c #746107",
"0 c #7F6A04",
"q c #5B4326",
"w c #604C33",
"e c #7B5C3C",
"r c #5C7F36",
"t c #3D3D43",
"y c #4B3447",
"u c #563A4D",
"i c #3E7C7C",
"p c #4E4E4E",
"a c #444450",
"s c #4B4B55",
"d c gray34",
"f c #446343",
"g c #4D6E4E",
"h c #527456",
"j c #555560",
"k c #5E5E6D",
"l c #654160",
"z c #6D4566",
"x c #7F4D6A",
"c c gray39",
"v c gray43",
"b c #676774",
"n c #72727F",
"m c #866741",
"M c #5D825E",
"N c #6B906D",
"B c #7A7A89",
"V c #468787",
"C c #4D8E8E",
"Z c #848484",
"A c #878795",
"S c #91919F",
"D c #A2A2A2",
"F c #AEAEAE",
"G c #B9B9B9",
"H c None",
/* pixels */
"HHHHHHHHHHHHHHHHHHHHHHHHHHHHHHH2t%ttttt222%#HHHHHHHHH",
"HHHHHHHHHHHHHHHHHHHHHHHHHHHHH#H567777pffdp2%##HHHHHHH",
"HHHHHHHHHHHHHHHHHHHHHHHHHHHH#5X77pggkgbVgft%%tHHHHHHH",
"HHHHHHHHHHHHHHHHHHHHHHHHHHH%6p+5pkrbbbnnVftda HH#HHHH",
"HHHHHHHHHHHHHHHHHHHHHHHHHH=4t75Xdhnnnbbgkh7,XHdp2##HH",
"HHHHHHHHHHHHHHHHHHHHHHHHH+26s8kdhNDSBnbNv-X-Xkttt2#%H",
"HHHHHHHHHHHHHHHHHHHHHHHH%2ttpd9rNDGFAbM-.X,gdXjt32%#H",
"HHHHHHHHHHHHHHHHHHHHHHHH%4ttskg0ADdZhhp,-,ksp2ct21%##",
"HHHHHHHHHHHHHHHHHHHHHHH#22t8sjsjnAS3dp7fkcssptd22&%#O",
"HHHHHHHHHHHHHHHHHHHHHHH2@2tsp9tkkbbbnbttpsssttstt$%#O",
"HHHHHHHHHHHHHHHHHHHHHH%4,4tt8pkOa%pnSBk-ttsttltt#2%#O",
"HHHHHHHHHHHHHHHHHHHHHH%2%22ts%pk,dbBACks2-tppnppda2#O",
"HHHHHHHHHHHHHHHHHHHHHH2,%-2t,2dk.kt% o2ts2-2dkjnbp3O ",
"HHHHHHHHHHHHHHHHHHHHHH2%-#$2,tdOpto      $pcnpbnBctpH",
"HHHHHHHHHHHHHHHHHHHHHH%#oXO#tpt%k2      O#bp%%%3tt2.H",
"HHHHHHHHHHHHHHHHHHHHHH,o O2XsdOdk$      X222Xo  oO$#O",
"HHHHHHHHHHHHHHHHHHHHHH,O ,#2kd%bp  $pt#  pj2#     #t#",
"HHHHHHHHHHHHHHHHHHHHHH%OX,Xktpdn2  cct% #kk%X     op%",
"HHHHHHHHHHHHHHHHHHHHHH%OX%Xn2pbBt# t2 % 2bs,  X.  o:O",
"HHHHHHHHHHHHHHHHHHHHHH#Xo#td2skBd#.O#%.%bdot #t2o o*O",
"HHHHHHHHHHHHHHHHHHHHHH#XO$ppo-pAc3....%bj$ tXtt2o #OH",
"HHHHHHHHHHHHHHHHHpmwpHHOOXdk2o%pBj2#O,cnt  2,%Ooo %HH",
"HHHHHHHHHHHHHHHHHHdbek2oX%kst oo2BnnBABpX X#jO o 27#H",
"HHHHHHHHHHHHHHHHktt%pq#X ,skp#oko2sBCndy:#, c,,2pg2OH",
"HHHHHHHHHHHHHHHH#kss*%X -tts, opo%Xk%tsX2sjgu*tiC7%OH",
"HHHHHHHHHHHHHHp#X#,,tOX ,st2o 2%oXX%Xkp *tO57s7f2%OHH",
"HHHHHHHHHHHpk#kp#X,>OX %kts% Opodp%X XXX %OOtOO-OOHHH",
"HtktHHXtktHHep%tp#kXX %kpptO  Otn2nc,sjto   XO. X%HHH",
"X#tXtHXXOt,Htt,Xt%tXX%bnjt,.,.o%t#tnXkBk;:OO   .##HHH",
"HXXHXHHXXOt#X1t,X-2# pnBtp% O %d#   X-Ax:z2Xo .O%#HHH",
"HHHHHHHHXXXHHX##XX#XHtmnc2,o  p2OtsX    oc% o O,%HHHH",
"HHHHHHHHHHHHHHXXXHXHHH#%twp32o#o%nd, ts       X2OHHHH",
"HHHHHHHHHHHHHHHHHHHHHHHHH###*H*tp-t skb# po %  t#HHHH",
"HHHHHHHHHHHHHHHHHHHHHHHHHHHHHHHHXHHHHHHHH%2 %H t2HHHH"
};
