/* XPM */
static char *_6[] = {
/* columns rows colors chars-per-pixel */
"33 44 45 1 ",
"  c #1B1B1B",
". c gray12",
"X c #3A3319",
"o c #232323",
"O c #282828",
"+ c #282F28",
"@ c #2B2E2D",
"# c #2C2C2C",
"$ c #2E2C2E",
"% c #322D22",
"& c #223322",
"* c #273C27",
"= c #2B3827",
"- c #263328",
"; c #3D3626",
": c #363228",
"> c #2C3031",
", c #2F3B3C",
"< c #303032",
"1 c gray20",
"2 c #35353B",
"3 c #3A3A3A",
"4 c #453C15",
"5 c #423629",
"6 c #453F2A",
"7 c #4F3F2B",
"8 c #2D4025",
"9 c #344D2D",
"0 c #5D4E0E",
"q c #514512",
"w c #68570B",
"e c #7F6A04",
"r c #5B4326",
"t c #604C33",
"y c #6D5536",
"u c #7B5C3C",
"i c #3D3D43",
"p c #2D4848",
"a c #4E4E4E",
"s c #444450",
"d c gray34",
"f c gray39",
"g c gray43",
"h c #866741",
"j c None",
/* pixels */
"jjjjjjjjj1idffdaytdtai$jjjjjjjjjj",
"jjjjjjjiggfghuhuyuduyfdt1jjjjjjjj",
"jjjjjidffehuhhhhuhueuyaa3jjjjjjjj",
"jjj7tyawuhfhgfyfda7qX7Xi7jjjjjjjj",
"jjqrt0tutffhfaitq6q5i5i5i1jjjjjjj",
"j1ataytteudtia0q47443q5,5ijjjjjjj",
"jit7tqdthya7tiiiqq73p,p4,,1jjjjjj",
"jwqttwyhgrrai0q74i335,3q,p1jjjjjj",
"2adytq7ihqaqqqiqi1i3i,4,,1#jjjjjj",
"3i4q373rf07r7i4i3i3734,1>1$jjjjjj",
"i4q4747qt0iiq4iii3i,q3311>$jjjjjj",
"5515X$%00qq0ii4q3i,4,,1311>jjjjjj",
"$$X$OX%tir77qiq4q3p,4,4:;>1#jjjjj",
"O&XOXX7tr74i4i3q3i33131,4,>#jjjjj",
"$$1&=7rdqtiiq4ii3333i1,>X:1#jjjjj",
"=1i1iatari773i4q3i3p,,>,>1>$jjjjj",
"&#%1#1yw70iqi4i3i33,,,1>>->#jjjjj",
"&%1#17u0iqtq3i4i3i3,,4--+>%#jjjjj",
"#=;7yuf7077iqqi353i3411#%%-#jjjjj",
"33i317tri77q3q3i3i314,X>+-O#jjjjj",
";;#155t0q5i474i33333,-,XX+#Ojjjjj",
".o%#X3rit73i5q534q31,,-4%-O#$jjjj",
".o%O%6qa77i4i33441331#;--+%Oojjjj",
"..O#1#477q47474q44113,X;--O$ojjjj",
"j.O#;144t7734454i14X4X,>>+#Oojjjj",
"jo&O#=8ia74q3q3344X4-,>,--Ooojjjj",
"joo$1&11iq74744X5314;:%##+%oojjjj",
"jooO#;#;3q544#;3414;#4%:--Ooojjjj",
"jooO&#13X6iXXi3X311#1:%--#Ooojjjj",
"jooO%1&1@@#0i4531;;;:1%X-Oooojjjj",
"jjo&O#1#3rwq4414X@;#XX$OOooo.-jjj",
"jj&o#&#;11i344,,X1X4X1-%Oooo.-jjj",
"jj&oOO1&=X3744;X1X1X#%-O%ooo.-jjj",
"jjoo&%#=#;33,44;X4X1X#O%O-Oo.jjjj",
"jj.o O1&1X=1p4,X,4=X4%#O-+<i22jjj",
"jj.&. &X#;8i44,XXXX4XXO#%;adai2jj",
"jj.&o%%Oo;=aqXX4X&X####%X0ddiadij",
"jj..o&O1&13i44,,:;X;X#Ooodfdadi2$",
"jj.oo&$#%#=aq,4XXX,-#X%Ooaiisi2$.",
"jj..&o%=%==i41X*X1XX&%#ooa2i3Ooo.",
"jj.o.o=$1#=aq4X4X&%#Ooooji22>#$.O",
"jj....&;&1;a0q48131$ojjjjj2OOoo.j",
"jjjjj..o=%=a9,p8$jjjjjjjjjjjjjjjj",
"jjjjjjjj#1=aijjjjjjjjjjjjjjjjjjjj"
};
