/* XPM */
static char *_9[] = {
/* columns rows colors chars-per-pixel */
"36 81 43 1 ",
"  c gray12",
". c #1E371E",
"X c #3A3319",
"o c gray15",
"O c #2C2C2D",
"+ c #322D22",
"@ c #273C27",
"# c #3D3626",
"$ c gray20",
"% c #3A3A3A",
"& c #5C2103",
"* c #412921",
"= c #423629",
"- c #453F2A",
"; c #4F3F2B",
": c #2E4425",
"> c #344D2D",
", c #3D5935",
"< c #7F6A04",
"1 c #5B4326",
"2 c #53472C",
"3 c #604C33",
"4 c #6D5536",
"5 c #7B5C3C",
"6 c #4E4E4E",
"7 c gray34",
"8 c #446343",
"9 c gray39",
"0 c gray43",
"q c #777777",
"w c #8B7300",
"e c #866741",
"r c #976E45",
"t c #A0764A",
"y c #AD7F4E",
"u c #9A8500",
"i c #A89600",
"p c #B7A800",
"a c #B78C58",
"s c #C49A69",
"d c #D5AE80",
"f c #E5C196",
"g c None",
/* pixels */
"ggggggggggggggggggggggggggggggg-gggg",
"gggggggggggggggggggggggggggggg-ggggg",
"ggggggggggggggggggggggggggggg--ggggg",
"ggggggggggggggggggggggggggggg3-ggggg",
"gggggggggggggggggggggggggggg-2gggggg",
"gggggggggggggggggggggggggggg--gggggg",
"gggggggggggggggggggggggggggryyrggggg",
"ggggggggggggggggggggggggggryryrggggg",
"ggggggggggggggggggggggggggryyaa5gggg",
"gggggggggggggggggggggggggggryyyy5ggg",
"ggggggggggg5tttr53gggggggg---g5yrggg",
"ggggggggggeryyyytr5ggggggg--gggeyggg",
"gggggggggetaaayytttr53ggg-2-ggger4gg",
"gggggggggtasdsaysseter533-3-ggg4r5gg",
"gggggggggtasssayytte25544-2-55$4regg",
"gggggggggetaaayttttt225t5225yr54eegg",
"ggggggggggetyyttttyy2raa323ryty4et4g",
"ggggggggg-24ette5yy5sdss-2345tt55aeg",
"gggggggg-4r22222245afda5225;;4t55trg",
"gggggggg-tee444eyyyddda32232Ogt54rrg",
"ggggggg#2ae445eyyysdfs52-3t52ge54te4",
"ggggggg24a4g25asessdda33-5e53g454tr5",
"ggggggg2et3g2eyryasdf5323etr2g2e4arr",
"ggggggg2re3gg5r5yssdd32-3ye32gg5eatr",
"ggggggg3re2gg3rtssday33-5yae3gg5eate",
"ggggggg4e5ggg35atasa532-e5533gg3etr5",
"ggggggg4e5ggg#5radaa3223tyr52gg24er3",
"ggggggg443gggg25sy5t32-+rt53gggg34eg",
"gggggg2442gggg#2y52+-3- Or52gggggggg",
"ggggg2244gggggg3r2+-22+OO5e3gggggggg",
"ggggg2e34gggggg5#++-22+O#ee2gggggggg",
"gggg2er43ggggg3#o++23-+g#e2ggggggggg",
"gggg2er42ggggg2gg+-23+6g#t4ggggggggg",
"ggggett4ggggggg3g+---+%ggst2gggggggg",
"ggggta42gggggg<33+---+7#sypugggggggg",
"ggggat4gggggg#4<ee+O%% 5ypw0#ggggggg",
"ggg2te3gggggg#5w4ra5&-5trpt51ggggggg",
"ggg3t42gggggg24uw4radatepit90ggggggg",
"ggg4e42ggggg+23<iwerytepwy59qggggggg",
"ggg443gggggg#242wippppiwta359ggggggg",
"ggg442gggggg-443<wiuuu<54s34*ggggggg",
"ggg43ggggggg-4442upiw<454ye#*ggggggg",
"gg242ggggggg-4542wpiw2ee5ey2#ggggggg",
"gg34gggggggg2454-<ii24eee1eyeggggggg",
"gg35gggggggg2ee42<iu3eerr4124egggggg",
"gg45ggggggg+4ee53<uw35rrrr44-4-ggggg",
"gg5r4gggggg#4re54-wu35ryrr552-3ggggg",
"gg5tagggggg24re543<w35ryyr51;+2ggggg",
"gg5rt4ggggg35ee543-u#5ryyr5;+g-ggggg",
"gg4--4ggggg25e5433-w#3eryr5;+g#ggggg",
"gg4--g4gggg255543--<#3errr5;+ggggggg",
"ggg4-gggggg2555332#<#35rrr5+gggggggg",
"ggg4g-ggggg4e55332###35rrr5+gggggggg",
"gggg4ggggg-4re532####1err05+gggggggg",
"gggggggggg-4re532####14ry03+gggggggg",
"gggggggggg+-ee53#2###114e42+gggggggg",
"ggggggggg++#4ete532##*11211+gggggggg",
"ggggggggg+##-555332##*;3321+gggggggg",
"gggggggg++-#-335332#+=;332-#gggggggg",
"gggggggg++##--355322+;1331#ggggggggg",
"gggggggg+#-#-g-35322+;1331Xggggggggg",
"ggggggg++###-g-33322X;1331Xggggggggg",
"ggggggg+#-#+-gg-3322X;133;Xggggggggg",
"ggggggg+###+-ggg2332+;1321gggggggggg",
"gggggg+##-#+gggg-232+;132-gggggggggg",
"gggggg+#-##+ggggg-2-+;131Xgggggggggg",
"gggggg+###++ggggg-2-+;13-Xgggggggggg",
"ggggg++--#++gggggg--+;12=ggggggggggg",
"ggggg+##-#+ggggggg--+;11Xggggggggggg",
"gggg++#--#+gggggggg-+;;1Xggggggggggg",
"@:gg+#-2#+ggggggggg-+;;1Xggggggggggg",
"gg,g+#--:+gggggggggg+=;;gggggggggggg",
"ggg,+#28.+@ggggggggg+=;;gggggggggggg",
"ggg>@+8.+>.gggggggg#+=;1gggggggggggg",
"@>@+>+,+>@ggggggg#--+*;=gggggggggggg",
"gg@@>+:+>ggggggg-22-+*;*gggggggggggg",
"ggggg.@.ggggg#-----#+111*ggggggggggg",
"ggggggggggggggggggggg243**gggggggggg",
"ggggggggggggggggggggg2432;gggggggggg",
"ggggggggggggggggggggg2233;;ggggggggg",
"gggggggggggggggggggggg22222*gggggggg"
};
