/* XPM */
static char *_0[] = {
/* columns rows colors chars-per-pixel */
"39 84 54 1 ",
"  c gray12",
". c #1E371E",
"X c #3A3319",
"o c #232323",
"O c gray15",
"+ c #2C2C2D",
"@ c #322D22",
"# c #273C27",
"$ c #3D3626",
"% c #363228",
"& c gray20",
"* c #5C2103",
"= c #412921",
"- c #423629",
"; c #453F2A",
": c #4F3F2B",
"> c #2E4425",
", c #344D2D",
"< c #3D5935",
"1 c #5B4326",
"2 c #53472C",
"3 c #604C33",
"4 c #6D5536",
"5 c #7B5C3C",
"6 c #434343",
"7 c #4E4E4E",
"8 c gray34",
"9 c #446343",
"0 c #4D6E4E",
"q c #527456",
"w c #7F4D6A",
"e c gray43",
"r c #777777",
"t c #975B37",
"y c #866741",
"u c #976E45",
"i c #AF6F4B",
"p c #A0764A",
"a c #AD7F4E",
"s c #8F5477",
"d c #5D825E",
"f c #6B906D",
"g c #7B9C76",
"h c #B78C58",
"j c #C49A69",
"k c #9B6282",
"l c #AF6F90",
"z c #BC7F9E",
"x c #848484",
"c c #94B08D",
"v c #D5AE80",
"b c #CC92AA",
"n c #AFC8A8",
"m c None",
/* pixels */
"mmmmmmmmmmmm3666mmmmmmmmmmmmmmmmmmmmmmm",
"mmmmmmmmmm3uaau776mmmmmmmmmmmmmmmmmmmmm",
"mmmmmm2mm3uahhau77mmmmmmmmmmmmmmmmmmmmm",
"mmmmmm$23h33uahuu76mmmmmmmmmmmmmmmmmmmm",
"mmmmmm2$2jhuh;uuy7tmmmmmmmmmmmmmmmmmmmm",
"mmmmmmm$2uuh5p3u47tmmmmmmmmmmmmmmmmmmmm",
"mmmmmmm2$2;5yhuy47tmmmmmmmmmmmmmmmmmmmm",
"mmmmmmmm$$x3uyy4&7tmmmmmmmmmmmmmmmmmmmm",
"mmmmmm3yx;;ay4;&77mmmmmmmmmmmmmmmmmmmmm",
"mmmmmm3u$$ay43667tmmmmmmmmmmmmmmmmmmmmm",
"mmmmmm3yyuy33u667tmmmmmmmmmmmmmmmmmmmmm",
"mmmmmmm343$2ya66tmmmmmmmmmmmmmmmmmmmmmm",
"mmmmmmmm5m;2$y36tmmmmmmmmmmmmmmmmmmmmmm",
"mmmmmmmm5m$$2$u6tmmmmmmmmmmmmmmmmmmmmmm",
"mmmmmmmm4mm$3$36tmmmmmmmmmmmmmmmmmmmmmm",
"mmmmmmmmmmm$22@&mmmmmmmmmmmmmmmmmmmmmmm",
"mmmmmmmmmmmm$2$mmmmmmmmmmmmmmmmmmmmmmmm",
"mmmmmmmmmmmm$22$,,,99q004555&mmmmmmmmmm",
"mmmmmmmmmmmm,$2$@99qccg4yhju57mmmmmmmmm",
"mmmmmmmmmmm,,x22@9qcng0yyuapammmmmmmmmm",
"mmmmmmm;24gg08$2$9fccf4y545pppmmmmmmmmm",
"mmmmmm;4y2qnc2$$$$qfgfya5::4pp2mmmmmmmm",
"mmmmmm;p44qcg2$$y99fffy532+mpp4mmmmmmmm",
"mmmmm$2p44fcf94yjv9fg0yhp52mypy2mmmmmmm",
"mmmmm24p4mfqcfyjjvfcf0yuy53m4yy2mmmmmmm",
"mmmmm2yp30gdfffffgcddyyapu2m2yy3mmmmmmm",
"mmmmm2yy30gd0fccdd99dyhay32mm5y4mmmmmmm",
"mmmmm3yy29dd90f9d9990yuahy3mm5y4mmmmmmm",
"mmmmm4y5m90g59d9yyuy0ha5533mm344mmmmmmm",
"mmmmm4y5m90d5udyhhajyupau52mm2442mmmmmm",
"mmmmm443mm0025ya5auaj$up53mmmm4422mmmmm",
"mmmm2442mm00$2a52u+ua +u52mmmm43y2mmmmm",
"mmm2244mmm90m3u22$+tu++5y3mmmm34uy2mmmm",
"mmm2y34mmmm0m5$O$t783+$yy2mmmm24uy2mmmm",
"mm2yu43mmmm03$O$$+t7tm$y2mmmmmm4ppymmmm",
"mm2yu42mmmm02mm$$78i7m$p4mmmmmm24hpmmmm",
"mmypp4mmmmm9mmmmmt77tmmjp2mmmmmm4phmmmm",
"mmph42mmmmmmwm3$O+8i8$jazkmmmmmm3yp2mmm",
"mmhp4mmmmmm$4wuuu+tt 5azse$mmmmm24p3mmm",
"m2py3mmmmmm$5suuh5*;5pubp51mmmmm24y4mmm",
"m3p42mmmmmm24ksuuhvhpyzlpiemmmmmm344mmm",
"m4y42mmmmm@23wlsyuapyzsa5irmmmmmm244mmm",
"m443mmmmmm$242slzbbzlsph35immmmmmm34mmm",
"m442mmmmmm;443wslkkkw54j34=mmmmmmm242mm",
"m43mmmmmmm;4442kzlsw454a$$=mmmmmmmm43mm",
"242mmmmmmm;4542szls2yy5y$2$mmmmmmmm53mm",
"34mmmmmmmm2454;wll24yyy1$3y3mmmmmmm54mm",
"35mmmmmmmm2yy42wlk3yyuu25ajpmmmmmm4u5mm",
"45mmmmmmm@4yy53wks35uuh2jp33mmmmmmhp5mm",
"5u4mmmmmm$4uy54;sk35uau5a52mmmmmm4pu5mm",
"5phmmmmmm24uy543ws35ua5h51:mmmmmm4;;4mm",
"5up4mmmmm35yy543;k$5uuhu5:@mmmmm4m;;4mm",
"4;;4mmmmm25y5433;s$3yuau5:@mmmmmmm;4mmm",
"4;;m4mmmm255543;;w$3yuuu5:@mmmmmm;m4mmm",
"m4;mmmmmm2555332$w$35uuu5@@@mmmmmm4mmmm",
"m4m;mmmmm4y55332$$$35uuu5@@@mmmmmmmmmmm",
"mm4mmmmmm4uy532$$$$1yuue5@$@mmmmmmmmmmm",
"mmmmmmmmm4uy532$$$$14uae3@$@@mmmmmmmmmm",
"mmmmmmmmm4yy53$2$$$114y42@@$@mmmmmmmmmm",
"mmmmmmmmm;4ypy532$$=11211@@;@mmmmmmmmmm",
"mmmmmmmmmm;555332$$=:3321@@$@@mmmmmmmmm",
"mmmmmmmmmmm335332$@-:332;$@$$@mmmmmmmmm",
"mmmmmmmmmmm;355322@:1331$$@$;@@mmmmmmmm",
"mmmmmmmmmmmm;35322@:1331X$@$$@@mmmmmmmm",
"mmmmmmmmmmmm;33322X:1331Xm@$;$@mmmmmmmm",
"mmmmmmmmmmmmm;3322X:133:Xm@$$$@@mmmmmmm",
"mmmmmmmmmmmmmm2332@:1321mm@@$;$@mmmmmmm",
"mmmmmmmmmmmmmm;23;$3pu53$m@@$$$@mmmmmmm",
"mmmmmmmmmmmmmmm;2;;35y3;@mm@$;$$@mmmmmm",
"mmmmmmmmmmmmmmm;2@31332$@mm@$$;$@mmmmmm",
"mmmmmmmmmmmmmmmm;@23yy53@mm@@$$$@mmmmmm",
"mmmmmmmmmmmmmmmm;;$2353;@mm@@$;;@@mmmmm",
"mmmmmmmmmmmmmmmmm;@$:22$@mmm@$;$$@mmmmm",
"mmmmmmmmmmmmmmmmm;@23y53mmmm@$;;$@@mmmm",
"mmmmmmmmmmmmmmmmmm@@;53;mmmmm@$2;$@mm>#",
"mmmmmmmmmmmmmmmmmm@-$22Xmmmmm@>;;$@m<mm",
"mmmmmmmmmmmmmmmmm$@-3y3;mmmm#@.92$@<mmm",
"mmmmmmmmmmmmmmm$;;@=;33;mmmm.,@.9@#,mmm",
"mmmmmmmmmmmmmm;22;@=@--@mmmmm#,@<@,@#,#",
"mmmmmmmmmmm$;;;;;$@o;3;% mmmmm,@>@,##mm",
"mmmmmmmmmmmmmmmmmmm;454;%mmmmmm.#.mmmmm",
"mmmmmmmmmmmmmmmmmmo-333;%mmmmmmmmmmmmmm",
"mmmmmmmmmmmmmmmmmm;45py3;mmmmmmmmmmmmmm",
"mmmmmmmmmmmmmmmmmm@;;33;@=mmmmmmmmmmmmm"
};
