/* XPM */
static char *_1[] = {
/* columns rows colors chars-per-pixel */
"47 96 56 1 ",
"  c gray6",
". c gray9",
"X c #1B1B1B",
"o c gray12",
"O c #1E371E",
"+ c #3A3319",
"@ c #232323",
"# c gray15",
"$ c #2C2C2D",
"% c #322D22",
"& c #273C27",
"* c #3D3626",
"= c gray20",
"- c #3A3A3A",
"; c #5C2103",
": c #53200A",
"> c #662101",
", c #412921",
"< c #423629",
"1 c #453F2A",
"2 c #4F3F2B",
"3 c #2E4425",
"4 c #344D2D",
"5 c #3D5935",
"6 c #5B4326",
"7 c #53472C",
"8 c #704628",
"9 c #604C33",
"0 c #6D5536",
"q c #7B5C3C",
"w c #2D4848",
"e c #275B5B",
"r c #2E6767",
"t c #367070",
"y c #3E7C7C",
"u c #434343",
"i c #4E4E4E",
"p c gray34",
"a c #446343",
"s c gray39",
"d c gray43",
"f c #777777",
"g c #930C04",
"h c #821600",
"j c #814F30",
"k c #866741",
"l c #976E45",
"z c #A0764A",
"x c #AD7F4E",
"c c #B78C58",
"v c #C49A69",
"b c #4D8E8E",
"n c #A2A2A2",
"m c #D5AE80",
"M c #E5C196",
"N c None",
/* pixels */
"NNNNNNNNNNNNNNNNNNNNNNNNNNNNNNNNNNNNNNNNNNNNNN#",
"NNNNNNNNNNNNNNNNNNNNNNNNNNNNNNNNNNNNNNNNNNNN@@N",
"NNNNNNNNNNNNNNNNNNNNNNNNNNNNNNNNNNNNNNNNN@@@@oo",
"NNNNNNNNNNNNNNNNNNNNNNNNNNNNNNNNNNNNNN@@@@ooNNN",
"NNNNNNNNNNNNNNNNNNNNNNN####@@@@@@@@@@@@ooNNNNNN",
"NNNNNNNNNNNNNNNNNNNNNouu$$#o=u=##@@@@@ooNNNNNNN",
"NNNNNNNNNNNNNNNNNNN-u@go@$#Xo=uu=u=@######NNNNN",
"NNNNNNNNNNNNNNNNN$uuu-@@$###@XXXXXXXXNNNNNNNNNN",
"NNNNNNNNNNNNNNNNN-:NNNNo.o@##@@@@o@NNNNNNNNNNNN",
"NNNNNNNNNNNNNNNNNN:NNNNNNN## XX77oNNNNNNNNNNNNN",
"NNNNNNNNNNNNNNNNNN>NNNNNNNNN# Xo9ooNNNNNNNNNNNN",
"NNNNNNNNNNNNNNNNNNhNNNNNNNNNN# N8o1oNNNNNNNNNNN",
"NNNNNNNNNNNNNNNNNsnsNNNNNNNNN#7NNjjNNNNNNNNNNNN",
"NNNNNNNNNNNNNNNNNisiNNNNNNNNNN7N11NNNNNNNNNNNNN",
"NNNNNNNNNNNNNNNNNNNNNNNNNNNNNN8N7%NNNNNNNNNNNNN",
"NNNNNNNNNNNNNNNNNNNNNNNNNNNNNN877NNNNNNNNNNNNNN",
"NNNNNNNNNNNNNNNNNNNNNNNNNNNNNNjj1NNNNNNNNNNNNNN",
"NNNNNNNNNNNNNNNNNNNNNNNNNNNNN1j9%NNNNNNNNNNNNNN",
"NNNNNNNNNNNNuuuNNNNNNNNNNNNNN17jNNNNNNNNNNNNNNN",
"NNNNNNNNNNuiilxxl9NNNNNNNNNN%77%NNNNNNNNNNNNNNN",
"NNNNNNNNNNiilxccxllNNNNNNNNN101NNNNNNNNNNNNNNNN",
"NNNNNNNNNuillcxl11clNNNNNNN%77%NNNNNNNNNNNNNNNN",
"NNNNNNNNNuikll1clcvcNNNNNNN*01NNNNNNNNNNNNNNNNN",
"NNNNNNNNNui0l9zqcllllNNNNN*77%NNNNNNNNNNNNNNNNN",
"NNNNNNNNNii0klckq1lclNNNNN*71NNNNNNNNNNNNNNNNNN",
"NNNNNNNNNsi=0kkl9%1llNNNN*79%NNNNNNNNNNNNNNNNNN",
"NNNNNNNNNsii=10kl11vl9NNN191%NNNNNNNNNNNNNNNNNN",
"NNNNNNNNNsuiuN100lvv79NN*77%NNNNNNNNNNNNNNNNNNN",
"NNNNNNNNNiuiuNp11*q7Nq97*91%NNNNNNNNNNNNNNNNNNN",
"NNNNNNNNNi=qqqq000qz1xq%17%%NNNNNNNNNNNNNNNNNNN",
"NNNNNNNNNiqlvcccxzq77qx%7*%9kNNNNNNNNNNNNNNNNNN",
"NNNNNNNNNNxzxl0kkcclzvk%*%9lxl1NNNNNNNNNNNNNNNN",
"NNNNNNNNNzzzq0qccvvmvMc*%%0ll001NNNNNNNNNNNNNNN",
"NNNNNNNN7zz022qxxccmMcMk%7x0lql01NNNNNNNNNNNNNN",
"NNNNNNNN0zzN$79qxvmmmmkmcxk0000z1NNNNNNNNNNNNNN",
"NNNNNNN7kzkN7qzcmmvvMmvk07qq000z7*NNNNNNNNNNNNN",
"NNNNNNN7kk0N9qklxccvmmvvkvcq7N0z07NNNNNNNNNNNNN",
"NNNNNNN9kk7N7lzxccvcMmvcxlxk7N9zk7NNNNNNNNNNNNN",
"NNNNNNN0kqNN79kxcxcvmmvvxqlqNN9kk7NNNNNNNNNNNNN",
"NNNNNNN0kqNN9kcxlcvcxcmvvzl9NN7kk9NNNNNNNNNNNNN",
"NNNNNNN009NN99qqxcczlcvczcq9NNNqk0NNNNNNNNNNNNN",
"NNNNNN7007NN7qlxzlcq9ccmclq*NNNqk0NNNNNNNNNNNNN",
"NNNNN7700NNNN9qzl*x9*zqxvq7NNNN900NNNNNNNNNNNNN",
"NNNNN7k90NNNN7ql$ol1$l7qx7*NNNN7007NNNNNNNNNNNN",
"NNNN7kl09NNNN9kq$$q-$*77l9NNNNNN0077NNNNNNNNNNN",
"NNNN7kl07NNNN7kk*$9pi-*#*qNNNNNN09k7NNNNNNNNNNN",
"NNNNkzz0NNNNNN7k*N-i-$**#*9NNNNN90lk7NNNNNNNNNN",
"NNNNzc07NNNNNN0z*Nispi**NN7NNNNN70lk7NNNNNNNNNN",
"NNNNcz0NNNNNN7zvNN-ii-NNNNNNNNNNN0zzkNNNNNNNNNN",
"NNN7zk9NNNNNNryxv*psp$#*9NwNNNNNN70czNNNNNNNNNN",
"NNN9z07NNNNN*deyxqo--$lllw0*NNNNNN0zcNNNNNNNNNN",
"NNN0k07NNNNN6qzblzq1;qclleq*NNNNNN9kz7NNNNNNNNN",
"NNN009NNNNNNdsztykzcmcller07NNNNNN70z9NNNNNNNNN",
"NNN007NNNNNNfsqxeykzxlketw97%NNNNN70k0NNNNNNNNN",
"NNN09NNNNNNNsq9czetybbyte707*NNNNNN900NNNNNNNNN",
"NN707NNNNNNN,09v0qwrrrtew9001NNNNNN700NNNNNNNNN",
"NN90NNNNNNNN,*kx0q0wetyr70001NNNNNNN90NNNNNNNNN",
"NN9qNNNNNNNN*7xkqkk7etye70q01NNNNNNN707NNNNNNNN",
"NN0qNNNNNNNNkxk6kkk07ttw10q07NNNNNNNN09NNNNNNNN",
"NNql0NNNNNNk0760llkk9rtw70kk7NNNNNNNNq9NNNNNNNN",
"NNqzcNNNNN10100llllq9erw9qkk0%NNNNNNNq0NNNNNNNN",
"NNqlz0NNNN917qqllxlq9re10qkl0*NNNNNN0lqNNNNNNNN",
"NN0110NNNN7%26qlxxlq9ew90qkl07NNNNNNczqNNNNNNNN",
"NN011N0NNN1N%2qlxxlq*r190qkkq9NNNNN0zlqNNNNNNNN",
"NNN01NNNNN*N%2qlxlk9*e1990qkq7NNNNN0110NNNNNNNN",
"NNN0N1NNNNNN%2qlllk9*w1190qqq7NNNN0N110NNNNNNNN",
"NNNN0NNNNNN%%%qlllq9*w*799qqq7NNNNNN10NNNNNNNNN",
"NNNNNNNNNNN%%%qlllq9***799qqk0NNNNN1N0NNNNNNNNN",
"NNNNNNNNNNN%*%qdllk6****79qkl0NNNNNN0NNNNNNNNNN",
"NNNNNNNNNN%%*%9dxl06****79qkl0NNNNNNNNNNNNNNNNN",
"NNNNNNNNNN%*%%70k066***7*9qkk0NNNNNNNNNNNNNNNNN",
"NNNNNNNNNN%1%%66766,**79qkzk01NNNNNNNNNNNNNNNNN",
"NNNNNNNNN%%*%%67992,**799qqq1NNNNNNNNNNNNNNNNNN",
"NNNNNNNNN%**%*17992<%*799q99NNNNNNNNNNNNNNNNNNN",
"NNNNNNNN%%1*%**69962%779qq91NNNNNNNNNNNNNNNNNNN",
"NNNNNNNN%%**%*+69962%779q91NNNNNNNNNNNNNNNNNNNN",
"NNNNNNNN%*1*%N+69962+779991NNNNNNNNNNNNNNNNNNNN",
"NNNNNNN%%***%N+29962+77991NNNNNNNNNNNNNNNNNNNNN",
"NNNNNNN%*1*%%NN67962%7997NNNNNNNNNNNNNNNNNNNNNN",
"NNNNNNN%***%%NN17962%7971NNNNNNNNNNNNNNNNNNNNNN",
"NNNNNN%**1*%NNN+6962%171NNNNNNNNNNNNNNNNNNNNNNN",
"NNNNNN%*1**%NNN+1962%171NNNNNNNNNNNNNNNNNNNNNNN",
"NNNNNN%***%%NNNN<762%11NNNNNNNNNNNNNNNNNNNNNNNN",
"NNNNN%%11*%%NNNN+662%11NNNNNNNNNNNNNNNNNNNNNNNN",
"NNNNN%**1*%NNNNN+622%1NNNNNNNNNNNNNNNNNNNNNNNNN",
"NNNN%%*11*%NNNNN+622%1NNNNNNNNNNNNNNNNNNNNNNNNN",
"&3NN%*17*%NNNNNNN22<%NNNNNNNNNNNNNNNNNNNNNNNNNN",
"NN5N%*113%NNNNNNN22<%NNNNNNNNNNNNNNNNNNNNNNNNNN",
"NNN5%*7aO%&NNNNNN62<%*NNNNNNNNNNNNNNNNNNNNNNNNN",
"NNN4&%aO%4ONNNNNN<2,%11*NNNNNNNNNNNNNNNNNNNNNNN",
"&4&%4%5%4&NNNNNNN,2,%1771NNNNNNNNNNNNNNNNNNNNNN",
"NN&&4%3%4NNNNNNN,666%*11111*NNNNNNNNNNNNNNNNNNN",
"NNNNNO&ONNNNNNN,,907NNNNNNNNNNNNNNNNNNNNNNNNNNN",
"NNNNNNNNNNNNNNN27907NNNNNNNNNNNNNNNNNNNNNNNNNNN",
"NNNNNNNNNNNNNN229977NNNNNNNNNNNNNNNNNNNNNNNNNNN",
"NNNNNNNNNNNNN,77777NNNNNNNNNNNNNNNNNNNNNNNNNNNN"
};
