/* XPM */
static char *_3[] = {
/* columns rows colors chars-per-pixel */
"49 74 76 1 ",
"  c gray9",
". c #1B1B1B",
"X c gray12",
"o c #1E371E",
"O c #3A3319",
"+ c #232323",
"@ c #282828",
"# c #282F28",
"$ c #2B2E2D",
"% c #2C2C2C",
"& c #2E2C2E",
"* c #322D22",
"= c #392B27",
"- c #223322",
"; c #273C27",
": c #2B3827",
"> c #263328",
", c #3D3626",
"< c #363228",
"1 c #2C3031",
"2 c #2F3B3C",
"3 c #303032",
"4 c #35353B",
"5 c #3A3A3A",
"6 c #4A271B",
"7 c #453C15",
"8 c #412921",
"9 c #423629",
"0 c #453F2A",
"q c #4F3F2B",
"w c #2D4025",
"e c #2E4425",
"r c #334B23",
"t c #344D2D",
"y c #355722",
"u c #3D5935",
"i c #5D4E0E",
"p c #514512",
"a c #68570B",
"s c #746107",
"d c #7F6A04",
"f c #5B4326",
"g c #53472C",
"h c #674027",
"j c #704628",
"k c #604C33",
"l c #6D5536",
"z c #7B5C3C",
"x c #416225",
"c c #4C6C2A",
"v c #547630",
"b c #5C7F36",
"n c #3D3D43",
"m c #323E49",
"M c #2D4848",
"N c #344557",
"B c #285353",
"V c #4E4E4E",
"C c #444450",
"Z c #4B4B55",
"A c gray34",
"S c #446343",
"D c #4D6E4E",
"F c #527456",
"G c #555560",
"H c #5E5E6D",
"J c gray39",
"K c gray43",
"L c #676774",
"P c #72727F",
"I c #814F30",
"U c #8F5733",
"Y c #866741",
"T c #976E45",
"R c #7A7A89",
"E c None",
/* pixels */
"EEEEEEEEEEEEEEEEEEEEEEEEEEEEnHAXEEEEEEEEEEEEEEEEE",
"EEEEEEEEEEEEEEEEEEEEEEEEEEEnPRZ+EEEEEEEEEEEEEEEEE",
"EEEEEEEEEEEEEEEEEEEEEEEEEEE3nVn@EEEEEEEEEEEEEEEEE",
"EEEEEEEEEEEEEEEEEEEEEEEEEEEE3@+EEEEEEEEEEEEEEEEEE",
"EEEEEEEEEEEEEEEEEEEEEEEEEEEEE5+EEEEEEEEEEEEEEEEEE",
"EEEEEEEEEEEEEEEEEEEEEEEEEEEEVn+EEEEEEEEEEEEEEEEEE",
"EEEEEEEEEEEEEEEEEEEEEEEEEEEEA5EEEEEEEEEEEEEEEEEEE",
"EEEEEEEEEEEEEEEEEEEEEEEEEZG3v3EEEEEEEEEEEEEEEEEEE",
"EEEEEEEEEEEEEEEEEEEEEEENHRL1J+utEEEEEEEEEEEEEEEEE",
"EEEEEEEEEEEEEEEEAZNEEEt21@XNXttuNEEEEEEEEEEEEEEEE",
"EEEEEEEEEEEEEEEGLGwtwE:--EG+EuX@eXEEEEEEEEEEEEEEE",
"EEEEEEEEEEEEEEEZ%@1ii3@+1w+XEVXE-2XEEEEEEEEEEEEEE",
"EEEEEEEEEEEEEEEEXX-ue@@XXXXEE2>EX:XEEEEEEEEEEEEEE",
"EEEEEEEEEEEEEEEEEEEx:+>XEEEEEE>>%-XEEEEEEEEEEEEEE",
"EEEEEEEEEEEEEEEEEEE7:+>n53EEEEEEX-X-EEEEEEEEEEEEE",
"EEEEEEEEEEEEEEEEEEEi>X@@@%XEEAV2XO;tAEMF@EEEEEEEE",
"EEEEEEEEEEEEEEEEEEEr>E+XE@XXGV5EXX1@M>VVXXEEEEEEE",
"EEEEEEEEEEEEEEEEEEE7EEX-XEXX5E>wXXEEE@>>XXEEEEEEE",
"EEEEEEEEEEEEEEEEEEEw>EEX@5@X@5@XXEEEEEEXXEEEEEEEE",
"EEEEEEEEEEEEEEEEEEEtEEEEXXXXXXXEEEEEEEEEEEEEEEEEE",
"EEEEEEEEEEEEEEEEEEE7EEEEE++XEEEEEEEEEEEEEEEEEEEEE",
"EEEEEEEEEEEEEEEEEEE,pg7OE:+EEEEEEEEEEEEEEEEEEEEEE",
"EEEEEEEEEEEEEEEEEE,wiiff%n%0,EEEEEEEEEEEEEEEEEEEE",
"EEEEEEEEEEEEEEEE,glkpkkiZn%IIlkg0EEEEEEEEEEEEEEEE",
"EEEEEEEEEEEEEEE,akikkkalJn%fffihkjjk*EEEEEEEEEEEE",
"EEEEEEEEEEEEEE,lkkxcMklzn+qkhlIlUllg*EEEEEEEEEEEE",
"EEEEEEEEEEEEEETYdbA:DsVlllzlzzszlak,*EEEEEEEEEEEE",
"EEEEEEEEEEEEEEzkgSwIvsdbFzDzzzzlakq*+EEEEEEEEEEEE",
"EEEEEEEEEEEEEEYjfiryMVy2aszYYzlkkq=*+EEEEEEEEEEEE",
"EEEEE,gsg0,EEEYhhhMN9V7y2MxklYDlq=**+EEEEEEEEEEEE",
"EEE,gzzzvlxgr,zghjhqMhNmp7SgqMVl,=*@+EEEEEEEEEEEE",
"E,gzllIzlzlklklghg0fth7ymygff0qg==*@EEEEEEEEEEEEE",
",lllalkaklllkVlhgVh9k0Mf0tV00M0f==@@EEEEEEEEEEEEE",
"lIDbzDkxjMgkkVIghhfqkh2gqggf0qqf==@@EEEEEEEEEEEEE",
"9ggZiSJvdJDuVxjphgh9j0g0qqgq0Mqq=*@@EEEEEEEEEEEEE",
"kq9qqqfpkSJKvAkgfh,g0gq20ff0qqq,=@@XEEEEEEEEEEEEE",
"kkkkifq;rpMyMyp7g0q0gq0fg0q0020,=@XO07,;**EEEEEEE",
"gqggqg0p0yrgrM0gqgO0qf0qf00q,0*=@X*7,rtVuuh06**EE",
"kqC0Cqg7frp777pqqOq90909g,0,0,<*+X9qrtnuhkIklkwgE",
"Cn0C0gn0rCrp7y0p,g,=0=q,00qq=0,*X*7;eekpkkililgw+",
"@*45nnC0g7r00r07,q,*9.,*0,q*0,,,e0tMpqggpgitwtwu+",
"EEX@%40400n07g00*,q0<***9=*X*,707,0p04M2yxcGxBOw+",
"EEEEEEX@*,0,000,,,4%0,0Xp*O,=O,9,99O9<75>Otcuw>7+",
"EEEEEE$EX+X@*,+*,n,,,0,O,7,O,q909,,9<,<,<,eyw>+wX",
"EEEEEEEE++X+++,0n404nOn40,,99,7,OO9O,19<,OwxOO+>E",
"EEEEEEEE%E+E++g0,X>,*,,**O,OO,O99,<7<9<<1w<2w*+wE",
"EEEEEEEE%E+EE*g*0#>9=,**+ +,,<O1,17O212*,1wtpO+7E",
"EEEEEEEEXEEEE,g2w2*,+*O7%+O,OX+@O>O21,<<**>Mw>X+E",
"EEEEEEEE+EEEE,0,w,g447O&**,&4  .XX+@@**111<yOwXXE",
"EEEEEEEEEEEEE,02,2;4<4O,O4O,O   XEEEEXX+@@*Mw>XEE",
"EEEEEEEEEEEEE0ewoo*14<,%7O,OO   EEEEEEEEEE:7>7EEE",
"EEEEEEEEEEEEE0ww>oX>X4@*@O&,<.  EEEEEEEEEE:w>>EEE",
"EEEEEEEEEEEEEgw:*<-1*&+*++&&*.  EEEEEEEEEEEMEOEEE",
"EEEEEEEEEEEEE0:w:;O2O@=@&O&<+.  EEEEEEEEEEEyO:EEE",
"EEEEEEEEEEEEE0w:2243,<%OO@<&X.. EEEEEEEEEEE:E>EEE",
"EEEEEEEEEEEEE0:2:1:1&%<4&O%<...EEEEEEEEEEEEE>OEEE",
"EEEEEEEEEEEEE,w:2w1:@&&<O*<%...EEEEEEEEEEEEEEwEEE",
"EEEEEEEEEEEEE0:1-<14@<**%%*@...EEEEEEEEEEEEEE:EEE",
"EEEEEEEEEEEE+,,::*:<*O&=&%<+...EEEEEEEEEEEEEEw>EE",
"EEEEEEEEEEEE+<::<1<&%<%*+<*X...EEEEEEEEEEEEEE:EEE",
"EEEEEEEEEEEE@<O-->8==%&*=++X..EEEEEEEEEEEEEEEEEEE",
"EEEEEEEEEEEE@<=:>O*<*O*=%*+XX.EEEEE:-@EEEEEEE>EEE",
"EEEEEEEEEEEE@11=<**=<%>>*@XXX.EEE7:EEEEEEEEEE>EEE",
"EEEEEEEEEEEE@1>:@==1%>>=@=+XX.EEp#EEEEEEEEEEEEEEE",
"EEEEEEEEEEEE>1*>+>#=*=*@*@XXXEEr#E7:-@EEEEEEEEEEE",
"EEEEEEEEEEE+1<**@#**#>@*>@XXXEw#yw@EEEEEEEEEEEEEE",
"EEEEEEEEEEE+2**>+=>>%>#@%@XXX:#y@EEEEEEEEEEEEEEEE",
"EEEEEEEEEEE+2>@*X>#*@#@%@@XX+-7@EEEEEEEEEEEEEEEEE",
"EEEEEEEEEEE@2@>>+@*@@XX@@+XX-7@EEEEEEEEEEEEEEEEEE",
"EEEEEEEEEEE@2*>*X*@>+@+@+XX+:*EEEEEEEEEEEEEEEEEEE",
"EEEEEEEEEEE@XX>>X>*.@+@+@XX-@EEEEEEEEEEEEEEEEEEEE",
"EEEEEEEEEEEEEEEEXX+.+X+++X+-+EEEEEEEEEEEEEEEEEEEE",
"EEEEEEEEEEEEEEEEEEEEXX+++X-@EEEEEEEEEEEEEEEEEEEEE",
"EEEEEEEEEEEEEEEEEEEEEEEEXXE+EEEEEEEEEEEEEEEEEEEEE"
};
