/* XPM */
static char *_4[] = {
/* columns rows colors chars-per-pixel */
"48 57 46 1 ",
"  c gray6",
". c #131313",
"X c gray9",
"o c #1B1B1B",
"O c gray12",
"+ c #3A3319",
"@ c #232323",
"# c #282828",
"$ c #282F28",
"% c #2B2E2D",
"& c #2C2C2C",
"* c #2E2C2E",
"= c #322D22",
"- c #223322",
"; c #273C27",
": c #2B3827",
"> c #263328",
", c #3D3626",
"< c #382D34",
"1 c #2C3031",
"2 c #2F3B3C",
"3 c #303032",
"4 c gray20",
"5 c #35353B",
"6 c #3A3A3A",
"7 c #453C15",
"8 c #423629",
"9 c #453F2A",
"0 c #4F3F2B",
"q c #2D4025",
"w c #2E4425",
"e c #344D2D",
"r c #3D5935",
"t c #514512",
"y c #3D3D43",
"u c #323E49",
"i c #2D4848",
"p c #344557",
"a c #4E4E4E",
"s c #444450",
"d c #4B4B55",
"f c gray34",
"g c #555560",
"h c #5E5E6D",
"j c gray39",
"k c None",
/* pixels */
"kkkkkkkkkkkkkkkkkkkkkkk36y63kkkkkkkkkkkkkkkkkkkk",
"kkkkkkkkkkkkkkkkkkk&52isapddi6kkkkkkkkkkkkkkkkkk",
"kkkkk6ysy5kkkkkkk52saigfgjfjjf6kkkkkkkkkkkkkkkkk",
"k6ssssisiisy55kk2iiidgjjjjggfdd6kkkkkkkkkkkkkkkk",
"OOyiseiyyeity75+#&-&5ydfdgddddss&kkkkkkkkkkkkkkk",
"OOo3qetetw7y76&#&&&-334yddspssys6kkkkkkkkkkkkkkk",
"OOo@@3+777q7q&#<--&:<<&3sssypysyy&kkkkkkkkkkkkkk",
"kkoO@@@#&363##-##<-<:333&6ypyyyyy4kkkkkkkkkkkkkk",
"kkoO@#@#@###-&#-&<<-3&3333yupy0yy6kkkkkkkkkkkkkk",
"kkkO@@#@#@-#&-##-&&<:3<<<360uy0uu6kkkkkkkkkkkkkk",
"kkkO@@@#@#@-#-##&-3<3&<3336p99y99y4kkkkkkkkkkkkk",
"kkkO@@@@@###-#--O&ya5<&<<33y966u6221kkkkkkkkkkkk",
"kkko@#@#@###--&O@&4sy&<&3<32u9,,86661kkkkkkkkkkk",
"kkko@@@@.OO@#-#@#&&65&&<<3338868wq9u63kkkkkkkkkk",
"kkkoOO#@o#@OOO@O&&#&653<3&336u8u,90puy661kkkkkkk",
"kkkoO@@@O@=@#@Oo#&*353&3&<<33y9e9weye0yy0yy63kkk",
"kkkoO@@@o#@#@###&#&*5y3&<&113360eepsesyssrddaad3",
"kkkoO@@@O@=#@###&&&35yy3&&3<<1336ysssdsdadaaaaad",
"kkkoOO@#o@@&#####&#&3&4yy4<13>3<12ysadaaaaaddssa",
"kkkkO@@@O@=#o@#&##>>31>34624<&<311156ysaasyyy65&",
"kkkkOO@@o=@&&oO@O@&&&>&>3&32i2311<33633y6665&##k",
"kkkkO@O@O@#3#@@@@OO@&#>&1&132ia3&<1123&63##16&kk",
"kkkkOO@@o=@&&O.o@#@#O@&1>3>332i><1<<1y3##1556&kk",
"kkkko@O@O@#3#@o@Oo#@#@@@#>&>&4i1>3&35y6u5u665&kk",
"kkkkoO@@o>@5#OO.@o.X@#@#@O&3>15>1&113yu662u56&kk",
"kkkko@O@o@+3&@@@@@XoOo#o#@&&3521&3&>2u5u565i4kkk",
"kkkkoO@@@O@,#XO@O@O@@O@O@@&&&62>&>3&yu62u5651kkk",
"kkkkoOOO@o+=1o@O@@@@#@#o#@&&&5&3>+>&y6262u561kkk",
"kkkkoOO@@o@=&oO@X@@@@#@#@@>>#5>+&&1&p262u2u5&kkk",
"kkkkoOOO@o@@3oOO@X@o#@@@#O&#&5&>>1&&y65w2655&kkk",
"kkkkoOOOOo@++oO@XoX@O@o#@@#&#5&++>$3y;652123&kkk",
"kkkkoOO@@o@@,oOO@OoX.ooo@O&#&5#>&&><i;265;55kkkk",
"kkkkoOOOOoO+3OO@OOOoO@o@O@#&#5&#>#+2y52q2123kkkk",
"kkkkkOOOOX@@5O@ @O@O@@@o@O##&3#-=>#5u51;12:3kkkk",
"kkkkkOOO@oO@2@OoXoO@O@O@O@#&3&&=+>&651q1;12&kkkk",
"kkkkkOOOOX@Oy@oOoX@X@O@OO#>#5#@##+#612:21;3&kkkk",
"kkkkkoOO@XO@u#XOO@O.OoO@o##>3##&O@#y232:2::#kkkk",
"kkkkkoOO@XOOu6#XoOOO@X@OO>#>3##&o##y35$q11*#kkkk",
"kkkkkoOOOoO@O=,u#ooOOOO@o#@#3&@&X@o6#O@1:13kkkkk",
"kkkkkoOOO XO@O@=532#@O@Oo#>#3#3&3OoO@361>:-kkkkk",
"kkkkkoOOO@OXo@O@O@=35&O@o#@#3#=@3ooO66&-1&#kkkkk",
"kkkkkoOOOOOO@XoO@O@@==8#o@#&3@#-#&#O$:&:-3#kkkkk",
"kkkkkoOOOOOOOOOoX@@@@@##@#@3&=#-=#6y@-1>1&kkkkkk",
"kkkkkoOOOOO@OO@O@XOO@@#@#@#&##@#@#11O:-1>&kkkkkk",
"kkkkkkooOOOOOOOOO@OoXO@@@#@3@@#@=#2*@>->>#kkkkkk",
"kkkkkkkkooOOOOO@OO@O@XoO#@#&@#@=#-21>&>&>#kkkkkk",
"kkkkkkkkkkooOOOOOO@@O@OoO#@3@@=@@#3>>1+#&#kkkkkk",
"kkkkkkkkkkkkooOOOOO@O@@O@oo@#@@#@#5&+>=>##kkkkkk",
"kkkkkkkkkkkkkkooOOOO@O@O@@@@#@@@@&3#&=>=&kkkkkkk",
"kkkkkkkkkkkkkkkkooOOOOOOO@O@@@@#@&++#++=&kkkkkkk",
"kkkkkkkkkkkkkkkkkkooOOOO@O@O@@@@@5&=&-++#kkkkkkk",
"kkkkkkkkkkkkkkkkkkkkooOOO@O@O@O@@3=-+=#+#kkkkkkk",
"kkkkkkkkkkkkkkkkkkkkkkoooOOO@O@O@5=-+=#+#kkkkkkk",
"kkkkkkkkkkkkkkkkkkkkkkkkooOOOOO@@3>+=+1#=kkkkkkk",
"kkkkkkkkkkkkkkkkkkkkkkkkkkooOOO@@5&++=@@kkkkkkkk",
"kkkkkkkkkkkkkkkkkkkkkkkkkkkkooOOO&+#=kkkkkkkkkkk",
"kkkkkkkkkkkkkkkkkkkkkkkkkkkkkkooO@=kkkkkkkkkkkkk"
};
