/* XPM */
static char *_5[] = {
/* columns rows colors chars-per-pixel */
"62 57 61 1 ",
"  c #131313",
". c gray9",
"X c #1B1B1B",
"o c gray12",
"O c #1E371E",
"+ c #3A3319",
"@ c #232323",
"# c #282828",
"$ c #2B2E2D",
"% c #2C2C2C",
"& c #2E2C2E",
"* c #322D22",
"= c #223322",
"- c #273C27",
"; c #2B3827",
": c #263328",
"> c #3D3626",
", c #382D34",
"< c #2C3031",
"1 c #2F3B3C",
"2 c #303032",
"3 c gray20",
"4 c #35353B",
"5 c #3A3A3A",
"6 c #453C15",
"7 c #423629",
"8 c #453F2A",
"9 c #4F3F2B",
"0 c #2D4025",
"q c #2E4425",
"w c #334B23",
"e c #344D2D",
"r c #355722",
"t c #3D5935",
"y c #5D4E0E",
"u c #514512",
"i c #68570B",
"p c #746107",
"a c #53472C",
"s c #604C33",
"d c #6D5536",
"f c #416225",
"g c #4C6C2A",
"h c #547630",
"j c #3D3D43",
"k c #323E49",
"l c #2D4848",
"z c #344557",
"x c #285353",
"c c #275B5B",
"v c #334D66",
"b c #2E6767",
"n c #4E4E4E",
"m c #444450",
"M c #4B4B55",
"N c gray34",
"B c #446343",
"V c #4D6E4E",
"C c #555560",
"Z c gray39",
"A c None",
/* pixels */
"AAAAAAAAAAAAAAAAAAAAAAAaaa35j53AAAAAAAAAAAAAAA=;AAwwAAAAAAAAAA",
"AAAAAAAAAAAAAAAAAAAAAAa8f8wrl-ml14%AAAAAAAAAAA;;gNkw;AAAAAAAAA",
"AAAAAAAAAAAAAAAAAAAAAAtghagfz-NNlMm14AAAAAAegNhbkf=;=AAAAAAAAA",
"AAAAAAAAAAAAAAAAAAAAA>eVe@ffrZZZNMlll1A88asehvzxrw;=5AAAAAAAAA",
"AAAAAAAAAAAAAAAAAAAAA%mhi6rfCnNMj4%=%#+4u**>aq=f;mljooAAAAAAAA",
"AAAAAAAAAAAAAAAAAAAAA5muB6w-MMj322=%%%#%56j6*eewe-3XooAAAAAAAA",
"AAAAAAAAAAAAAAAAAAAA%j>>606mjj3%,,;%==,#%06-6>>jj@@XooAAAAAAAA",
"AAAAAAAAAAAAAAAAAAAA3j8ji6;;=&232;,=,##=##35<$#3@==::AAAAAAAAA",
"AAAAAAAAAAAAAAAAAAAA5j*af;6=;222%2=,,%=#%=###@;%11;;:AAAAAAAAA",
"AAAAAAAAAAAAAAAAAAAA5kk8;;152,,,2;,%%=##=##=@#:@;1oAAAAAAAAAAA",
"AAAAAAAAAAAAAAAAAAA3j88*a;;5222,&2,<=%##=#=@#@-11@:AAAAAAAAAAA",
"AAAAAAAAAAAAAAAAAA%kur-558j22,,%,2nj%o==#=###@@*1::AAAAAAAAAAA",
"AAAAAAAAAAAfrAw;A<55rfw*8112,2%,%jm%%@o%==###@@:;;*AAAAAAAAAAA",
"AAAAAAAAe0Agh>w035k8fhtf**222,,%&45%%#@#=#@oo ::*@X*AAAAAAAAAA",
"AAAAAAAAehhgiaxe-1z9aeyil-22%2,245&#%%o@ooo##X@#*:;AAAAAAAAAAA",
"AAAAAAAAAruwe0tgieje8sfs0;2,,%2@243&%#Xo@#@#@o@*@1=AAAAAAAAAAA",
"AAAAAA2Mnwr6gf>tftm8aab5#2<<&,%#j4&&#####@#@#X@;=o.AAAAAAAAAAA",
"AAAAAAMnnnnnyx-*888eB>Vt=,,2@@2jj42&%%####o*@oX:;o=;AAAAAAAAAA",
"AAAAAAnmmMMja7**MMmwe=e;;<#,5jj1%<%#%######X@X:X;:;;AAAAAAAAAA",
"AAAAAA$55jj>*nnmn5j;==1=&##15%2:<3::##%#@X;=@o1:@@;w;AAAAAAAAA",
"AAAAeBe0#$>>55j<252=;#@21l12%2:%:#%#@.XoX%;@@X=1:@wk;AAAAAAAAA",
"AAAAlBg0$5>##35%21<<@>*nl12<%<%:#&#.o@@@@##X:*@o@;;AAAAAAAAAAA",
"AAAAABh>e;*><###j%,,#>11122:2:<%o.#@#@X o%@==X1;@:*#AA=;AAAAAA",
"AAAAcV-eBw58>4k5j42&2;;@%%:%:#oX@#@#Xo@X@#3*@;ww@@A#@:00A;;AAA",
"AAAfeez;Br4k>55k52<<%=;>@:2%oX#@#@. X@ oo#4#*=w0o;0;@@ek=;=e;A",
"AAA;;Aw=gew1;;k4l1:%2%@1&2%%X#X#XoX.@@@@@%3*=;*=o=10oXex;@@t;A",
"AAAAAAA*sw05;;15kj%2:%><2%%%X@o@o@@.@o@o.#>#:@#@oqq:;eex@:@Ae=",
"AAAAAAA*s0=4k1515j%:++;#4%%%X#X#@#@@@@o@X<**@:@:@;q1;@0=@@A*;=",
"AAewwAA@4a>k4l154z%<u-1>4#::X@#@#@@@@.@oX&*#X@@::@;;@1;;oAA@AA",
"reBBue0=*@a0;1;45j%ecB@7&%#%.#@@@#X@.@ooX<#@X@o#@@AA0;A==AAAAA",
"0fgeyr=e6$@;:155;j5psgw=4#%#X@#X@o@.X.@oX+*@Xoo##*A0ee0oAAAAAA",
"Arw+u8>eqA*>a451-l5g5rb6=o#%o@XXX .Xo@ooX>#@X@@oX@AtxA0=AAAAAA",
";;6=0*qeu><@>>-14j0t#>u6;=$#@o@X@oXooo@oo2*oXoooX@:;t4:AAAAAAA",
";=A;=*qe-*3;>*-efze;;1l<0=##o@X@@@o@o@ @o4#@.oooX:@:=@@AAAAAAA",
"AAAA;==;>8*8*-3etBy;=;=;&2$#@o@o@o@oX.Xo@1@oX@ooXA#@AAAAAAAAAA",
"AAAAAAAA0;%8o%1;ey6>>@=*#4#:#oo@o@.@.XoX@jo@.oooXA*#AAAAAAAAAA",
"AAAAAAAA0-@@a1;100@#@+#*#<:##X@oXo o@oo.#k@o.@ooX@*XAAAAAAAAAA",
"AAAAAAAAAA##>d0<*a>$;=#*#2:#:oo@.@oooX.#5koo.@ooX@*oAAAAAAAAAA",
"AAAAAAAAAAA<$saa**>*;;w#&2#@#X@ooooXX#k>*o@oXoooo##XAAAAAAAAAA",
"AAAAAAAAAAA=@as><@@aoq60#2#:#Xo@o@#124*@o@o.XooX##XAAAAAAAAAAA",
"AAAAAAAAAAA#%48*@<4>0@;=#2#@#X@o#43*@o@o@..o@ooo*oAAAAAAAAAAAA",
"AAAAAAAAAAA#3a>.;:2+00=#@<%#@X#7*#@@o@o..@ooooX#*AAAAAAAAAAAAA",
"AAAAAAAAAAAA#a*@=<&1;O=#*&3@#@##@@@@@.Xooooooo.*oA*AAAAAAAAAAA",
"AAAAAAAAAAAA$**=;:<<#@#@##%#@#@#@@oX.@o@oo@ooX.#o@XAAAAAAAAAAA",
"AAAAAAAAAAAA#>@=:3&1#*@#@@<@#@@@@.Xo@ooooooooXo#*o@@*AAAAAAAAA",
"AAAAAAAAAAAA>*@:%:<1=#*@#@&#@#oX.@o@oo@ooooX. **@XX*@AAAAAAAAA",
"AAAAAAAAAAAAa*#+%::2#@@*@@2@#XXo@o@@ooooooX #*#*@AAAAAAAAAAAAA",
"AAAAAAAAAAA@>@:*:+%4#@#@@#@XX@o@@o@oooooX A#*XXA*AAAAAAAAAAAAA",
"AAAAAAAAAAA*a>*:*$#<%@@@@#@@@@o@o@oooX. AAA*AAAAAAAAAAAAAAAAAA",
"AAAAAAAAAAA*>>*+*#++%@#@@@@o@ooooooX. AAAAAAAAAAAAAAAAAAAAAAAA",
"AAAAAAAAA>aa>o@*=$*$4@@@@@o@o@oooX. AAAAAAAAAAAAAAAAAAAAAAAAAA",
"AAAAAAAA*aa*aX##*+=*3@@o@o@o@ooX. AAAAAAAAAAAAAAAAAAAAAAAAAAAA",
"AAAAAAAa#>*#s*Xo+*+:4@o@o@oooX..AAAAAAAAAAAAAAAAAAAAAAAAAAAAAA",
"AAAAA*****A>a>ooo++%<@@ooooX..AAAAAAAAAAAAAAAAAAAAAAAAAAAAAAAA",
"AAAAAAAAAAAA>*o**o#+4@@ooX..AAAAAAAAAAAAAAAAAAAAAAAAAAAAAAAAAA",
"AAAAAAAAAAAAAAA#AAA*%ooX..AAAAAAAAAAAAAAAAAAAAAAAAAAAAAAAAAAAA",
"AAAAAAAAAAAAAAAAAAAAAo..AAAAAAAAAAAAAAAAAAAAAAAAAAAAAAAAAAAAAA"
};
