/* XPM */
static char *_[] = {
/* columns rows colors chars-per-pixel */
"52 30 37 1 ",
"  c gray6",
". c #1B1B1B",
"X c gray12",
"o c #1E371E",
"O c #232323",
"+ c gray15",
"@ c #282828",
"# c #2C2C2C",
"$ c #2C2C2D",
"% c #2E2C2E",
"& c #322D22",
"* c #223322",
"= c #273C27",
"- c #2B3827",
"; c #263328",
": c #3D3626",
"> c #2C3031",
", c gray20",
"< c #3A3A3A",
"1 c #453F2A",
"2 c #2D4025",
"3 c #2E4425",
"4 c #334B23",
"5 c #344D2D",
"6 c #355722",
"7 c #3D5935",
"8 c #434343",
"9 c #4E4E4E",
"0 c #444450",
"q c gray34",
"w c #446343",
"e c #4D6E4E",
"r c gray39",
"t c gray43",
"y c #777777",
"u c #848484",
"i c None",
/* pixels */
"iiiiiiiiiiiiiiiiiiiiiiiiiiiiiiiiiiiiiiiiiiiiiiiiiiii",
"iiiiiiiiiiiiiiiiiiiiiiiiiiiiiiiiiiiiiiiiiiiiiiiiiiii",
"iiiiiiiiiiiiiiiiiiiiiiiiiiiiiiiiiiiiiiiiiiiiiiiiiiii",
"iiiiiiiiiiiiiiiiiiiiii645564iiiiiiiiiiiiiiiiiiiiiiii",
"iiiiiiiiiiiiiiiiiiii44777ww7645iiiiiiiiiiiiiiiiiiiii",
"iiiiiiiiiiiiiiiii54667we5ww54654iiiiiiiiiiiiiiiiiiii",
"iiiiiiiiiiiiiiii64735445wr475w774iiiiiiiiiiiiiiiiiii",
"iiiiiiiiiiiiii26652<rrrrq857w77784oiiiiiiiiiiiiiiiii",
"iiiiiiiiiiiii26423,qrrq844ww7ww47522iiiiiiiiiiiiiiii",
"iiiiiiiiiii224&3259qr9857wwyyyyy7733iiiiiiiiiiiiiiii",
"iiiiiiiiii244223,<9r8#47qrtyyyqyr72*iiiiiiiiiiiiiiii",
"iiiiiiiii2234-19rqq<<449qrrrttutq4, iiiiiiiiiiiiiiii",
"iiiiiiiio222&4119q<&,10,999qrrr91- X-iiiiiiiiiiiiiii",
"iiiiiiii22=X-2111X%,:1991119qq91>X X4-iiiiiiiiiiiiii",
"iiiiiiiiO=;XX->&XX::1111&:11811,O  344=iiiiiiiiiiiii",
"iiiiiiiii;;XXXXXX%:111&#X%111%@OX 4r74*iiiiiiiiiiiii",
"iiiiiiiii *-2233XX&:,&XXX+@@@XX  @@4432iiiiiiiiiiiii",
"iiiiiiiiO*2-1<r<3XXXXXX XXXXXX  @@@113*iiiiiiiiiiiii",
"iiiiiii;*=2:389r8 XXX   XXXXXX  XX@1X32ii-77wiiiiiii",
"iiiiiiiO=-%9+1108+ X    XXXXX   XXXXX-ii-44wrXiiiiii",
"iiiiiii *=-&911:@X   XX  XXX    X X  iii-4111Xiiiiii",
"iiiiiiiiO**X@%#O.  iiiii     XX    iiiiiXX11@iiiiiii",
"iiiiiiiii  XXXX  Xiiiiiiii2*3-iiiiiiiiiiiiiiiiiiiiii",
"iiiiiiiiiiiiiiiiiiiiiiiii*3444-iiiiiiiiiiiiiiiiiiiii",
"iiiiiiiiiiiiiiiiiiiiiiii*23wu9Xiiiiiiiiiiiiiiiiiiiii",
"iiiiiiiiiiiiiiiiiiiiiii -28rq8Xiiiiiiiiiiiiiiiiiiiii",
"iiiiiiiiiiiiiiiiiiiiiii X&:1:XXiiiiiiiiiiiiiiiiiiiii",
"iiiiiiiiiiiiiiiiiiiiiiiiXXXXXXiiiiiiiiiiiiiiiiiiiiii",
"iiiiiiiiiiiiiiiiiiiiiiiiiiiiiiiiiiiiiiiiiiiiiiiiiiii",
"iiiiiiiiiiiiiiiiiiiiiiiiiiiiiiiiiiiiiiiiiiiiiiiiiiii"
};
