/* XPM */
static char *_[] = {
/* columns rows colors chars-per-pixel */
"40 48 49 1 ",
"  c #131313",
". c gray9",
"X c #1B1B1B",
"o c gray12",
"O c #23170B",
"+ c #2F1F0F",
"@ c #1E371E",
"# c #3B2713",
"$ c #3A3319",
"% c #232323",
"& c gray15",
"* c #282828",
"= c #282F28",
"- c #322D22",
"; c #223322",
": c #273C27",
"> c #2B3827",
", c #263328",
"< c #3D3626",
"1 c #363228",
"2 c #2C3031",
"3 c #2F3B3C",
"4 c #2F3F3F",
"5 c #323737",
"6 c #453C15",
"7 c #423629",
"8 c #453F2A",
"9 c #4F3F2B",
"0 c #2D4025",
"q c #2E4425",
"w c #334B23",
"e c #344D2D",
"r c #355722",
"t c #3D5935",
"y c #514512",
"u c #5B4326",
"i c #53472C",
"p c #604C33",
"a c #6D5536",
"s c #7B5C3C",
"d c #416225",
"f c #4C6C2A",
"g c #323E49",
"h c #866741",
"j c #976E45",
"k c #A0764A",
"l c #AD7F4E",
"z c #B78C58",
"x c None",
/* pixels */
"%%xxxxxxxxx%-xx---xxxxxxxxxxxxxxx%xxxxxx",
"x%%1xxxxxxxx%-%%%ixxxxxxxx%%xxx%%%xxxxxx",
"xe%-%1x1%%%x%-%%%8r:xxxxxxx%%%%%%3xxxxxx",
"xe%7-%%-%%%%....qwr:xxxxxxxx%-%%exxxxxxx",
"xe4ii-.X%%%.;9p.;wrxxxxxxxx%-%%et3xxxxxx",
"xxt%p7. ....00>8wr0xxxxxxx%%1%%e43xxxxxx",
"x3e%<a7   o<011w>q-xxxxxxx%->%xxtxxxxxxx",
"x3ex%898=180>>=qq>%%xxxxxx%>>wx3exxxxxxx",
"xxw3x<<8<<>>=>0>>%%%xxxxx%->>ex3-111xxxx",
"x503xx%%===%-660%>%%%xxxx%0w>xxx-%%440xx",
"x5w3xx%%-6--%-w0qr0%-xxx%%-rxxx5i>XXiw,x",
"x3>xxxx%8%%p-%%w0r0--xx%-%0>:xx50889>,xx",
"x333xxxx<i%<p-%180rw--%-%-rqxxx3e6p8>,xx",
"xx3xxxx%%i%%pp%=1<8pw%-%%1-r:xxrwt5520xx",
"xx3xxx8-o<< %y718<pfwq%X%->r:rwqwwrq,wxx",
"xxxxxxa9o -<98<-p<ap8rr0X%X0:qq88qwrw0xx",
"xxxxxx-hp8<.o----ha0w8rrXX;>rrw8-:::rqxx",
"xxxxxxx-jhhspppppa->r10rw0%r000--x55r3xx",
"xxxxxxxx-hjjsssapiy0w 7prwrr80y-%x33wexx",
"xxxxxxxxx1jppppi8%-- 88aw8>0<17%xx33etxx",
"xxxxxxxxp-o      &--9paw0w>>u--%xx3qt3xx",
"xxxxxxxxks9ooo. .<9isk8>rw-%pu-xxxxeexxx",
"xxxxxxxxxlspa99iphhj-p=>08w%-u-xxxxet3xx",
"xxxxxxxxxxzkiikkjpo%pi-O% o%%iyxxxxe43xx",
"xxxxxxxxxxxx.  w><-%  o% o*0%-8xxxxxtxxx",
"xxxxxxxxxx<oo          7a7wwr>%xxxx3exxx",
"xxxxxxxxxai%ooo..  .%-8i<i>-rrqxxxx3exxx",
"xxxxxxxxxjaai<<%%%<99psjw6w%%rr:xxxxw3xx",
"xxxxxxxxxxhkpppppaajkjh<$8w7- 0xxxx503xx",
"xxxxxxxxxxxxhskklkjsi7o%.0w8>=;:xxx5w3xx",
"xxxxxxxxxxxxxxxxxoooooooX68<10>::xx3>xxx",
"xxxxxxxxxxxxxxxxxo..oo8-%-i01<q;:xx333xx",
"xxxxxxxxxxxxxxxxxxXoo>i8%-yp0110rqxx3xxx",
"xxxxxxxxxxxxxxxxxx.<rr87 %9p%><0wdxx3xxx",
"xxxxxxxxxxxxxxxxxx%%-qwq%%ip--08w0xxxxxx",
"xxxxxxxxxxxxxxxxxx- -8q0 %7p8%-<rwxxxxxx",
"xxxxxxxxxxxxxxxxxx-%-uq%%%-y-%=00rxxxxxx",
"xxxxxxxxxxxxxxxxxx- -p8> %-p8-%>0rexxxxx",
"xxxxxxxxxxxxxxxxxx% -yw0;%-ui--;>0exxxxx",
"xxxxxxxxxxxxxxxxxx% -iu0;--uy9o-0r:xxxxx",
"xxxxxxxxxxxxxxxxxx  -y80;--u6<o@<r0xxxxx",
"xxxxxxxxxeexxxxxx%% -pu1;<-6p7-X000xxxxx",
"xxxxxxxxexe@@xxxx % -uu0 1-6pp+ 1<>xxxxx",
"xxxxxxxxxx@@e4xx %  -ay- *-6a-&%$<5wxxxx",
"xxxxxxxxxxe@e@e 8  %8yy- %--u--%-<<r>xxx",
"xxxxxxxxxe@4%>%-%%%-uy$% %%-y6- %<8qr-xx",
"xxxxxxx@@4e@<$8<881ua7#+o%%-yp- %><44r-x",
"xxxxxx@@4@:eu-66puia97g797o -y6- %>104;4"
};
