/* XPM */
static char *_[] = {
/* columns rows colors chars-per-pixel */
"66 147 84 1 ",
"  c gray9",
". c #1B1B1B",
"X c gray12",
"o c #1E371E",
"O c #3A3319",
"+ c #232323",
"@ c #282828",
"# c #282F28",
"$ c #2B2E2D",
"% c #2C2C2C",
"& c #2E2C2E",
"* c #322D22",
"= c #392B27",
"- c #223322",
"; c #273C27",
": c #2B3827",
"> c #263328",
", c #3D3626",
"< c #363228",
"1 c #382D34",
"2 c #3F2F38",
"3 c #2C3031",
"4 c #2F3B3C",
"5 c #303032",
"6 c gray20",
"7 c #35353B",
"8 c #3A3A3A",
"9 c #453C15",
"0 c #423629",
"q c #453F2A",
"w c #4F3F2B",
"e c #2D4025",
"r c #2E4425",
"t c #334B23",
"y c #344D2D",
"u c #355722",
"i c #3D5935",
"p c #5D4E0E",
"a c #514512",
"s c #68570B",
"d c #746107",
"f c #7F6A04",
"g c #5B4326",
"h c #53472C",
"j c #674027",
"k c #604C33",
"l c #6D5536",
"z c #7B5C3C",
"x c #416225",
"c c #4C6C2A",
"v c #547630",
"b c #5C7F36",
"n c #3D3D43",
"m c #323E49",
"M c #4B3447",
"N c #563A4D",
"B c #2D4848",
"V c #344557",
"C c #285353",
"Z c #4E4E4E",
"A c #444450",
"S c #4B4B55",
"D c gray34",
"F c #446343",
"G c #4D6E4E",
"H c #527456",
"J c #555560",
"K c #5E5E6D",
"L c #654160",
"P c #6D4566",
"I c #7F4D6A",
"U c gray39",
"Y c gray43",
"T c #676774",
"R c #777777",
"E c #72727F",
"W c #8B7300",
"Q c #866741",
"! c #976E45",
"~ c #65893C",
"^ c #5D825E",
"/ c #7A7A89",
"( c #848484",
") c None",
/* pixels */
")))))))))))))))))))))))))))))ZRJSVM5))))))))))))))))))))))))))))))",
")))))))))))))))))))))))))))8KPM@..X+@)))))))))))))))))))))))))))))",
"))))))))))))))))))))))))))8Pm@..))..X@))))))))))))))))))))))))))))",
"))))))))))))))))))))))))))V3@.)))))..+))))))))))))))))))))))))))))",
")))))))))))))))))))))))))8M@.)))))))@+))))))))))))))))))))))))))))",
")))))))))))))))))))))))))n@.))))))))3.))))))))))))))))))))))))))))",
")))))))))))))))))))))))))M+.))))))))8.))))))))))))))))))))))))))))",
")))))))))))))))))))))))))8.)))))))n5.)))))))))))))))))))))))))))))",
")))))))))))))))))))))))))5.)))))))..))))))))))))))))))))))))))))))",
")))))))))))))))))))))))))@.))is:))))))))))))))))))))))))))))))))))",
")))))))))))))))))))))))))@.@))9p))))))))))))))))))))))))))))))))))",
")))))))))))))ri))rGsr:))))..5))5a)))))))))))))))))))))))))))))))))",
")))))))))))))ivy)fi;ia:)))..@)))y:))))))))))))))))))))))))))))))))",
")))))))))))))sbUUWn85O:))))..@))$9))))))))))))))))))))))))))))))))",
"))))))))))))nRv8+aX..*+@@)))..@5@y))))))))))))))))))))))))))))))))",
")))))))))))2K8a.)F)))$...+@))..>5nZn5+))))))))))))))))))))))))))))",
")))))))))))Dn.i))i))):$)...+)))..>>BwM4+))))))))))))))))))))))))))",
")))))))))))M3)a))an))r-))...+))@B>+..+>4+)))))))))))))))))))))))))",
")))))))))))8@)9))eU+)9-)))...6)B>..))).>&)))))))))))))))))))))))))",
"))))))))))).@)y)))N+)y;))))..@41+:)))))..&))))))))))))))))))))))))",
"))))))))))))+5e))n$.)aO))))..X2+)4$))))).+))))))))))))))))))))))))",
")))))))))))).+1mM@.))yO-))))+.5.)9:)))))@.))))))))))))))))))))))))",
"))))))))))))))....)))6O-))))+.+))B:)))))1.))))))))))))))))))))))))",
"))))))))))))))y)))))));;-)))@..)Oy$)))))V.))))))))))))))))))))))))",
"))))))))))))))e)))))))9O;))%@.))Z4)))))OS.))))))))))))))))))))))))",
")))))))))))))))eFye)))9&O9$6+.AsB)5))))Km)))))))))))))))))))))))))",
")))))))))))))eyFyB:9))9)$:adb~Gm)+5))mRV.)))))))))))))))))))))))))",
")))))))))))rcd^:h>>4O))))$8+rGe$).@OMg3.))))))))))))))))))))))))))",
"))))))))))Q~y>Hh5X+:4);))k1X$B:$)).++.))))))))))))))))))))))))))))",
")))))))))tva>wDkX+@&4*))U2+.)aO)))))))))))))))))))))ZTzDSVmm@)))))",
")))))))))GFOh0Jh+@@$+35ES+.))O$))))))))))))))))))))DTw++.+&4B7@)))",
"))))))))>cywl0pk@@@)nNQ0+.)))r$)))))))))))))))))))VZ*.)))))+.&7)))",
"))))))))tF:kl0D0@58hw3@X..))$4$)))))))))))))))))))Zw.)))))))+.&5))",
"))))))))sy:Dh0rg+..++X...>OOB4$)))))))))))))))))))V&)))7@))))..&))",
"))))))))iealZwyw@.......X::Br$O)))))))))))))))))))8+))))7@)))+.+))",
")))))))ta:klhgaw@+.))...X$>:eSy9BiJHsy))))))))))))5.@)))S@)))@.+))",
"))))))))p:kZZnyh@+.))...+)))$p$:e$)sysy))))))))))))..+7Sm))))@.+))",
"))))))))yOkkhnhh@..)))..++)))4>)9))p$9p$))))))))))))....)))))5..))",
")))))))r9:gnZnyw@+.)))..X@)))t)))))9)$aO))))))))))))))))))))&8..))",
"))))))))aegZnnkh@+.))))..1@))4))))):)$:9$))))))))))))))))))5N3.)))",
")))))));sBwhknhw@@.))))..+50):)))3UV&)$9:)))))yiFt)Kn)))))nJm..)))",
"))))))))vJegnnDh@.))))))..+2w5))6(n@n)@9y$)))yHs:$RV+5))nIJ2..))))",
")))))));xBtkknkw@+)))))))..+1nw8Rn+.&)m@iy)))Fy$$Yn+.8MPS2+..)))))",
"))))))))y:Zthnk,@.))))))))....++U5..+8QSMMhmns:n&K+..@++...)))))))",
"))))))))ue4JBhl,@+))e:))))))....P+...+@55%&+ey+..P+......)))))))))",
"))))))))t)w49yeq@tiFi5$::)))))))N+.+........A>...S+.+.:9$)))))))))",
"))))))))t9wZ:4DGGsae9)))$@))))))V.)@.))))$O95O)))n..@.$O9)))))))))",
")))))))):)0lnueuye))t)))))))))))1.)5.)))))$$>))))1..$.)$e)))))))))",
")))))))):)gZhB:eu@))o)))))))))))8.)6.))))))))))))&.)3.)):)))))))))",
"))))))))9)hDnte:e$)))))0gkgwkklkV+h8.hhw)))))))))0+)3.))$)))))))))",
"))))))))e)ZkhBh:t$)))wkgkgllklShJ$kS3w0wra9yyaayaa,a9.w)))))))))))",
"))))))))t)nDheh&uO@)gzzQT/!EzQzKTnPlSlPNkgkwkakaaD3ar*rr9papipsFl@",
")))))))):)hlw4w@:e@)lkkJkVhh44VhSnNhNVNlzQQIPPQPlUnggggkipFlsFFk<@",
")))))))))0ZDkt+@+t$)Qkhhkhwknnwkh0whwnMwA.MNM0nNwhMNMhgwwhww0ww=-@",
")))))))))0Zhke0@@9-)lhkkwhwnhw0wwwwnwwnnw@wwww0ggw0gw0wgg0w0w0h+-@",
")))))))))qhhkm=@+t:)lhklknngZZkmSwhwhMAh=X=SwjwhNhwgMh2Mww0w<00-@+",
")))))))))qkwk4w+@e-)khghwwnVngwn8wwwnMn8X+50hwNMMwg0MwgwhMN0hwl,@@",
")))))))):qnhhhw@+tO)kghhgnn0wmngh88ggwm@X+55@wwhwNgw0w2M0w0w0ww--+",
"))))))):ihZwkwk+@9@)gw0w0wgh0ww0wwnhmnMXX+<<3nnMg0wMw0w0w200w0w-@+",
")))))):s9hhhhhk@+:@)zlkhkhkwknkwZnw752X  X=++*+=2=**10<02w<=+==@5@",
"))))))Ga:hhwkwl+@e))kgwhwwmnwhAkkDhlln6878hw00whhwwhlhkhhwhww<w:5+",
")))))ysr$hwwhhh@+:))hwhwhgwnn+<whw8nw&++&*w0&,0w0w0w0w222w0w000+@X",
")))))Gy:$kh0kwq+@-)))wghwhgw8.+++@@X<   .+whlhw0w0w0M0M0M0<<0<8-@X",
")))))F9$)khnhhw@+.)))0w=g0=+& . ..+X@&&&++l@lhwh0w0w0w000w200=w+@X",
")))))i:))hh0kh<+@.))kllkkhkknn7&%%%X+@@&&+w@h,w0w0w0000000M00<w@+)",
")))))a:))kwnhZ%@+.))k0j0gwj<++++&<&XX+XXX  +=+=+*=<0<0=<1=<0*=<-@)",
")))))a9)0hh7Zh&+@.))hjwhgw<+++@@XX&XX@@&<@X+<0w@<++w@0&whwww0w08&)",
")))))9y)0knnwh+@. ),kwggwg<&&@@++h0X@&&<+&X&+&0XXXX@*0X@00<0<08+@)",
")))))9y:qhh7ZA+++ ),hhwh0A<hw7+&&@@@&<<0**kw+XXXXX+@@@+X01030<w-+)",
")))))Oey:ln0hh+@+.)0hwwwwa0k@alzdzkkh0+X<+w<++*XXX+@@X@@X0<0<08++)",
")))))e:4Bhn&nA+++.)qawgwgw<hkkz@l<hkfzk<+wzk++@XXXX@@XX&@50<w<w++)",
")))))O-:9Bw=Zh++.))Oa=0+0+=*&*00aka0<zl@<z@l*+XX+<XX..+. ++=-=*%&)",
"))))):O$4ey0kn++.))lkkkkhkqZkha87O&&&kk<@llk27hhwhkwlSnnM88:h887.)",
")))))$O)$O4rnh++.))kwga0g9w=*0hnah&++O0@+hhh000@+wh=w@+X<e<0<08++)",
"))))))9$w$:phn+. ))h9w0agw0w0==Owh0+Xhk++0hNw@12&0NhN&@+:<0<0<8-+)",
"))))))O)0wOB;r++ ))ww0g0w9hgwah00=&+*0k+9Mhl02@@.+0&0X++ey8y<;8X.)",
"))))))t)=w$eBy:+ ))h0w9w090g0w000w00=++=+1wLh*&02<0@++<<0<0:5:7.+)",
"))))))9)=0w:sur:.))wwwh0hwhww0hw00w==00<0O@+1=<010<2*-:---<=-*&+@)",
"))))))e)0=h$gZu9e))*0w09900a000a099=80O0O<0Oa802w87808h*0<ennye&.)",
"))))))a)=wwei4pC:y)+*000w000w0w90*=nw09<=2O0<2<010%010<::0<:<:+X+)",
"))))))e)00hZB:+B$:9)+@*000009000==naO0<0O<0*0<2<750:::<<::-:--XX.)",
"))))))$)0wrwO$+4$$O@))++@@*<9<=++nwO0<9<09=9<51%551e::-:<:-@+XX)))",
")))))):)w0g4$++4+O6@))))))++@))Ona<0<9O21O0=755<0::::**@@+XXX)))))",
"))))))$)0ww:$+.4+>5@))))))))))))+@,8<<213<1m&%1%15*@@++X))))))))))",
"))))))))wyO$0++: 6@@)))))))))))))))++@*<O5161%%@++))))))))))))))))",
"))))))))wC:$0..4 @@)))))))))))))))))))++@<*@++))))))))))))))))))))",
"))))))))0i:00++6 @)))))))))))))))))))))))@@)))))))))))))))))))))))",
")))))))<wB:$0.+:X@))))))))))))))))))))))))))))))))))))))))))))))))",
")))))))<0Be:$::$+)))))))))))))))))))))))))))))))))))))))))))))))))",
")))))))<waye9ZCr:)))))))))))))))))))))))))))))))))))))))))))))))))",
")))))))<0kZ4y:$$$:))))))))))))))))))))))))))))))))))))))))))))))))",
"))))))r=7sx4h$+.6e:)))))))))))))))))))))))))))))))))))))))))))))))",
")))))rB>nCiZ;&X+ 66e))ir))))))))))))))))))))))))))))))))))))))))))",
")))))BZ=wu4B4:X+ )$CBJpBe)))))))))))))))))))))))))))))))))))))))))",
")))))ZB<7Bhay:&X ))C$:$O6:))))))))))))))))))))))))))))))))))))))))",
"))));u:<wB:4<g4+ )OB):))$yC)))))))))))))))))))))))))))))))))))))))",
"))))ty:=7yw40XOX ))>)))))$Bi))))))))))))))))))))))))))))))))))))))",
"))))Ze><040B<+o. ))4):))))3$))))))))))))))))))))))))))))))))))))))",
"))))i:>=7y040X9. ))&))))))+)))))))))))))))))))))))))))))))))))))))",
"))))we)<0e0y8XoX ))>))))))3)))))))))))))))))))))))))))))))))))))))",
"))))4:)&%8=Ow+o. ))O))))))3)))))))))))))))))))))))))))))))))))))))",
"))))B-)00w=B8X#X ))9))))))O>))))))))))))))))))))))))))))))))))))))",
"))))4>)7n0=OwX@. ))$))))))$)))))))))))))))))))))))))))))))))))))))",
"))))4>)0w0*y8XX )))O)))))):)))))))))))))))))))))))))))))))))))))))",
"))))4:)<7<=y,X@.))):))))))))))))))))))))))))))))))))))))))))))))))",
"))))Be)7<0*93+. )))$))))))))))))))))))))))))))))))))))))))))))))))",
"))))ay>0&n=e8...))))))))))))))))))))))))))))))))))))))))))))))))))",
"))))pe>777=:w+..))))))))))))))))))))))))))))))))))))))))))))))))))",
"))))yr:0n0*08...))))))))))))))))))))))))))))))))))))))))))))))))))",
"))))r:e<7<=<q+. ))))))))))))))))))))))))))))))))))))))))))))))))))",
"))))y>e:<0*08.. ))))))))))))))))))))))))))))))))))))))))))))))))))",
"))))y)r:$<=<7.+ ))))))))))))))))))))))))))))))))))))))))))))))))))",
"))))r)yt-0=07X..))))))))))))))))))))))))))))))))))))))))))))))))))",
"))))))Zit$*0nXX ))))))))))))))))))))))))))))))))))))))))))))))))))",
"))))r)SDit$<h.. ))))))))))))))))))))))))))))))))))))))))))))))))))",
")))):4JByFe,7X..))))))))))))))))))))))))))))))))))))))))))))))))))",
")))))By:0mt$7.X ))))))))))))))))))))))))))))))))))))))))))))))))))",
"):e;Bt:=<0:y7X..))))))))))))))))))))))))))))))))))))))))))))))))))",
"eJit9:<<0<>r$.X ))))))))))))))))))))))))))))))))))))))))))))))))))",
"Je))t:<0<0*:>X. ))))))))))))))))))))))))))))))))))))))))))))))))))",
"Z:))e)0<0<=>>&X.))))))))))))))))))))))))))))))))))))))))))))))))))",
"B:))t)<=<750O>. ))))))))))))))))))))))))))))))))))))))))))))))))))",
"a):)e)<<7<&3e>X ))))))))))))))))))))))))))))))))))))))))))))))))))",
"B):9:)0=57*79.. ))))))))))))))))))))))))))))))))))))))))))))))))))",
"a))O:)<*7<7O0$X ))))))))))))))))))))))))))))))))))))))))))))))))))",
"r:)O:)07<75h$X. ))))))))))))))))))))))))))))))))))))))))))))))))))",
")e))y)<*7<,4$.X ))))))))))))))))))))))))))))))))))))))))))))))))))",
"):e):)0=<0y>.X. )))))))))yy9;O))))))))))))))))))))))))))))))))))))",
"))Zi0)<*<94+....)))))))yeo#)#o;)))))))))))))))))))))))))))))))))))",
"))se:)<78Z::.+. ))))))a#))))))#;))))))))))))))))))))))))))))))))))",
"))h):)7*w:e*+.  )))))r#)))))))))))))))))))))))))))))))))))))))))))",
"))B)))<=y>e*... ))))9Ory9rO;))))))))))))))))))))))))))))))))))))))",
"))O):)<7e&:<...))))r#i;o@##o;)))))))))))))))))))))))))))))))))))))",
"))3)))<7$<88...)))rOr@))))))))))))))))))))))))))))))))))))))))))))",
"))9)))<*:*:6... )oe:#)))))))))))))))))))))))))))))))))))))))))))))",
"))O)))578<88.   );O#))))))))))))))))))))))))))))))))))))))))))))))",
"))4)))<*<*O6X.. oO@)))))))))))))))))))))))))))))))))))))))))))))))",
"))O)))5O8<88.  @;#))))))))))))))))))))))))))))))))))))))))))))))))",
"))e)))<*<*:3X .oo+))o;;o))))))))))))))))))))))))))))))))))))))))))",
")):)))<O8<8n.X@;#);OoO@#o)))))))))))))))))))))))))))))))))))))))))",
"))))))<*n*8Z. O;+OO@)))))o))))))))))))))))))))))))))))))))))))))))",
"))))))8O8*<n..-o#@)))))))#))))))))))))))))))))))))))))))))))))))))",
"))))))8*8@8h..@OO)))))))))))))))))))))))))))))))))))))))))))))))))",
"))))))*@8@<h.@o#@)))))))))))))))))))))))))))))))))))))))))))))))))",
"))))))8@n+<n.%#+))))))))))))))))))))))))))))))))))))))))))))))))))",
"))))))*@n*<n.-+)))))))))))))))))))))))))))))))))))))))))))))))))))",
"))))))))8+<7.O+)))))))))))))))))))))))))))))))))))))))))))))))))))"
};
