/* XPM */
static char *_[] = {
/* columns rows colors chars-per-pixel */
"28 97 59 1 ",
"  c gray12",
". c #1E371E",
"X c #3A3319",
"o c #232323",
"O c #282828",
"+ c #2B2E2D",
"@ c #2C2C2C",
"# c #2E2C2E",
"$ c #322D22",
"% c #392B27",
"& c #273C27",
"* c #2B3827",
"= c #263328",
"- c #3D3626",
"; c #363228",
": c #382D34",
"> c #3F2F38",
", c #2C3031",
"< c #2F3B3C",
"1 c #35353B",
"2 c #3A3A3A",
"3 c #453C15",
"4 c #412921",
"5 c #423629",
"6 c #453F2A",
"7 c #4F3F2B",
"8 c #2D4025",
"9 c #2E4425",
"0 c #334B23",
"q c #344D2D",
"w c #355722",
"e c #3D5935",
"r c #5D4E0E",
"t c #514512",
"y c #68570B",
"u c #746107",
"i c #5B4326",
"p c #53472C",
"a c #674027",
"s c #704628",
"d c #7A4B2B",
"f c #604C33",
"g c #6D5536",
"h c #7B5C3C",
"j c #4C6C2A",
"k c #3D3D43",
"l c #323E49",
"z c #4B3447",
"x c #563A4D",
"c c #2D4848",
"v c #4E4E4E",
"b c #444450",
"n c gray34",
"m c #4D6E4E",
"M c #814F30",
"N c #8F5733",
"B c #866741",
"V c #976E45",
"C c None",
/* pixels */
"CCnvk2CCCCCCCCCCCCCCCCCCCCCC",
"CC@2@OCCCCCCCCCCCCCCCCCCCCCC",
"CCC@kCCCCCCCCCCCCCCCCCCCCCCC",
"CCC6vCCCCCCCCCCCCCCCCCCCCCCC",
"C-vBBh3iCCCCCCCCCCCCCCCCCCCC",
"vrkrVgrsCCCCCCCCCCCCCCCCCCCC",
"kX3bVr7s7MfCCCCCCCCCCCCCCCCC",
"kXkkBriayNiCCCCCCCCCCCCCCCCC",
"5XktBs7s3NaCCCCCCCCCCCCCCCCC",
"1XktBa3atMaCCCCCCCCCCCCCCCCC",
"1XkihstrtNtCCCCCCCCCCCCCCCCC",
"%k3khsa7sMaCCCCCCCCCCCCCCCCC",
"51k3gs3XtdaCCCCCCCCCCCCCCCCC",
"1X35sg33asiCCCCCCCCCCCCCCCCC",
"%136gf7atstCCCCCCCCCCCCCCCCC",
"5kk6sg7aafiCCCCCCCCCCCCCCCCC",
";1X6ihii3siCCCCCCCCCCCCCCCCC",
"$kz5shii7iaCCCCCCCCCCCCCCCCC",
";kp6ihit3aiCCCCCCCCCCCCCCCCC",
";:z5ihit7iaCCCCCCCCCCCCCCCCC",
"O>>6igaa3aiCCCCCCCCCCCCCCCCC",
"Ox65ifai7ii5CCCCCCCCCCCCCCCC",
"O65zisaa5ai5CCCCCCCCCCCCCCCC",
"O6z>irai3ia7CCCCCCCCCCCCCCCC",
"Oz36iyaa7ai7CCCCCCCCCCCCCCCC",
"Cz3>irattik5CCCCCCCCCCCCCCCC",
"C6z6iraa7ak7CCCCCCCCCCCCCCCC",
"C5X5ifaikkiiCCCCCCCCCCCCCCCC",
"C6#57saa2ikiCCCCCCCCCCCCCCCC",
"C>#kasattki7CCCCCCCCCCCCCCCC",
"CXX56sit2ikCCCCCCCCCCCCCCCCC",
"C3@56dai2kiCCCCCCCCCCCCCCCCC",
"C5@%6sii1k7CCCCCCCCCCCCCCCCC",
"C%%16dakk7k7CCCCCCCCCCCCCCCC",
"Cz@11diikk7iCCCCCCCCCCCCCCCC",
"C:@#kdikk5v7CCCCCCCCCCCCCCCC",
"C%$51Mab77ki7CCCCCCCCCCCCCCC",
"C@@;kMaki7f75CCCCCCCCCCCCCCC",
"C%51;ddk7i7i5CCCCCCCCCCCCCCC",
"C@@@5sMki5757CCCCCCCCCCCCCCC",
"C@;1;idi77777CCCCCCCCCCCCCCC",
"C$@;%isi75i77CCCCCCCCCCCCCCC",
"C@15$7di57775CCCCCCCCCCCCCCC",
"C;5;%7ri77777CCCCCCCCCCCCCCC",
"C$#%$7s73i7i7CCCCCCCCCCCCCCC",
"CO5$%7r7t7777CCCCCCCCCCCCCCC",
"CO;%;6si37575CCCCCCCCCCCCCCC",
"CO5;;6ii35777CCCCCCCCCCCCCCC",
"CO;%;;st53575CCCCCCCCCCCCCCC",
"CO5;4@ii75X57CCCCCCCCCCCCCCC",
"CO;;;;st373575CCCCCCCCCCCCCC",
"CC5;;4sii3%335CCCCCCCCCCCCCC",
"CC;4@;7t33pt7%CCCCCCCCCCCCCC",
"CC;%;@iii7p575CCCCCCCCCCCCCC",
"CC;;445t33735%CCCCCCCCCCCCCC",
"CC;O$@%X77373%CCCCCCCCCCCCCC",
"CC44%455%r533%CCCCCCCCCCCCCC",
"CC;O;@pgf7557%CCCCCCCCCCCCCC",
"CC@444pf773335CCCCCCCCCCCCCC",
"CC44;O7ik7572%CCCCCCCCCCCCCC",
"CC4$4%7ik7%735CCCCCCCCCCCCCC",
"CC;%@%7ik75k75CCCCCCCCCCCCCC",
"CC4;o47i735k15CCCCCCCCCCCCCC",
"CC;o$@7kk75775CCCCCCCCCCCCCC",
"CC4@o47ik3555kCCCCCCCCCCCCCC",
"CC%@o46kk775k5CCCCCCCCCCCCCC",
"CC;;o@6ik3555k5CCCCCCCCCCCCC",
"CCO@o@;i1355k55CCCCCCCCCCCCC",
"CCo@o@;k13%71k5CCCCCCCCCCCCC",
"CCO@oO@k555575;CCCCCCCCCCCCC",
"CC$OooOk%77517%CCCCCCCCCCCCC",
"CCo@oO@i%575k15CCCCCCCCCCCCC",
"CCOO @@i%7755;5CCCCCCCCCCCCC",
"CC@@oO@75575155CCCCCCCCCCCCC",
"CCO@ oOf575%-p5CCCCCCCCCCCCC",
"CC @oo@f557%<55CCCCCCCCCCCCC",
"CCO@ @Of%75<55#CCCCCCCCCCCCC",
"CCOOoO@p555-7%%CCCCCCCCCCCCC",
"CC @o@Op%7<%5%%CCCCCCCCCCCCC",
"CC OoO@p757%7<@CCCCCCCCCCCCC",
"CCC@o#op5l5%5<%%CCCCCCCCCCCC",
"CCC@4OO7755<55%%CCCCCCCCCCCC",
"CCC@OoO%5l55<5+5CCCCCCCCCCCC",
"CCC@@ #%75+<<++<CCCCCCCC88*C",
"CCCo% %-<l%<5<%<CCCCC0ee3w30",
"CCC #o#7+5<<<=+<CCCCjw<<CCCC",
"CCCoO%Op%c+5<<<+CCCu0*CCCCCC",
"CCC #o%f5<=<&<%<CCt*<CCCCCCC",
"CCC@%oOp5<+<&<<+C0e8met0CCCC",
"CCCO% %5p55+5<&+Cqmq<*X83CCC",
"CCCoOoO;pl&,<&++w9<*CCCCC3CC",
"CCCo# %;p<&..&.#3**CCCCCC0CC",
"CCC%O %;p&<.<&@0<CCCCCCCCCCC",
"CCCoO o%f&&.<&@w*CCCCCCCCCCC",
"CCCoO% $f.&.o<00CCCCCCCCCCCC",
"CCCCoO% f&#%CC8CCCCCCCCCCCCC",
"CCCC CC 65CCCCCCCCCCCCCCCCCC"
};
