/* XPM */
static char *__1[] = {
/* columns rows colors chars-per-pixel */
"83 113 80 1 ",
"  c #131313",
". c gray9",
"X c #1B1B1B",
"o c gray12",
"O c gray15",
"+ c #282828",
"@ c #2C2C2C",
"# c #322D22",
"$ c #2D3030",
"% c #2C3031",
"& c #2F3B3C",
"* c #303032",
"= c gray20",
"- c #323737",
"; c #3A3A3A",
": c #4A271B",
"> c #57371B",
", c #633F1F",
"< c #412921",
"1 c #4F3F2B",
"2 c #734323",
"3 c #7F4B27",
"4 c #7A4B2B",
"5 c #604C33",
"6 c #6D5536",
"7 c #7B5C3C",
"8 c #3D3D43",
"9 c #323E49",
"0 c #434343",
"q c #4E4E4E",
"w c #444450",
"e c #4B4B55",
"r c gray34",
"t c #555560",
"y c #5E5E6D",
"u c #6D4566",
"i c #7F4D6A",
"p c gray39",
"a c gray43",
"s c #777777",
"d c #B03C13",
"f c #93472F",
"g c #9B4B33",
"h c #8C5637",
"j c #985D3F",
"k c #A34F3B",
"l c #CD6B23",
"z c #D47727",
"x c #AF5743",
"c c #AF5F4B",
"v c #866741",
"b c #A56446",
"n c #AB6B47",
"m c #B36B53",
"M c #B47150",
"N c #8F5477",
"B c #DB832B",
"V c #E28F2E",
"C c #FFAF53",
"Z c #C18564",
"A c #CF9876",
"S c #9B6282",
"D c #AF6F90",
"F c #BC7F9E",
"G c #848484",
"H c #878795",
"J c #939393",
"K c #A2A2A2",
"L c #AEAEAE",
"P c #B9B9B9",
"I c #E3B490",
"U c #CC92AA",
"Y c #DCA6BC",
"T c #F4CAA7",
"R c #E8BCC8",
"E c #C5C5C5",
"W c #CADDC4",
"Q c gainsboro",
"! c #CDCDE0",
"~ c None",
/* pixels */
"~~~~~~~~~~~~~~~~~~~~~~~~~~~~~~  qaar+ ~~~~~~~~~~~~~~~~~~~~~~~~~~~~~~~~~~~~~~~~~~~~~",
"~~~~~~~~~~~~~~~~~~~~~~~~~~~~~ GQQQQQQEq~~~~~~~~~~~~~~~~~~~~~~~~~~~~~~~~~~~~~~~~~~~~",
"~~~~~~~~~~~~~~~~~~~~~~~~~~~~.KQQQQQQQQQJ~~~~~~~~~~~~~~~~~~~~~~~~~~~~~~~~~~~~~~~~~~~",
"~~~~~~~~~~~~~~~~~~~~~~~~~~~~GKKQQEEQQQKK8~~~~~~~~~~~~~~~~~~~~~~~~~~~~~~~~~~~~~~~~~~",
"~~~~~~~~~~~~~~~~~~~~~~~~~~~~KKQQELJEEQQKG~~~~~~~~~~~~~~~~~~~~~~~~~~~~~~~~~~~~~~~~~~",
"~~~~~~~~~~~~~~~~~~~~~~~~~~~~KKdddEJEdddKK~~~~~~~~~~~~~~~~~~~~~~~~~~~~~~~~~~~~~~~~~~",
"~~~~~~~~~~~~~~~~~~~~~~~~~~~~GKdzMdQddzdKL~~~~~~~~~~~~~~~~~~~~~~~~~~~~~~~~~~~~~~~~~~",
"~~~~~~~~~~~~~~~~~~~~~~~~~~~~JEQQQLpLQQQQL~~~~~~~~~~~~~~~~~~~~~~~~~~~~~~~~~~~~~~~~~~",
"~~~~~~~~~~~~~~~~~~~~~~~~~~~~KJKLEJ0J!JJKa~~~~~~~~~~~~~~~~~~~~~~~~~~~~~~~~~~~~~~~~~~",
"~~~~~~~~~~~~~~~~~~~~~~~~~~~~=q=rLEQ!La8s0~~~~~~~~~~~~~~~~~~~~~~~~~~~~~~~~~~~~~~~~~~",
"~~~~~~~~~~~~~~~~~~~~~~~~~~~~~K0rJaLQaG$K~~~~~~~~~~~~~~~~~~~~~~~~~~~~~~~~~~~~~~~~~~~",
"~~~~~~~~~~~~~~~~~~~~~~~~~~~~~pq orrr$ qa~~~~~~~~~~~~~~~~~~~~~~~~~~~~~~~~~~~~~~~~~~~",
"~~~~~~~~~~~~~~~~~~~~~~~~~~~~~~KJ;rJq;PQp~~~~~~~~~~~~~~~~~~~~~~~~~~~~~~~~~~~~~~~~~~~",
"~~~~~~~~~~~~~~~~~~~~~~~~~~~~~~JQ!QQQLQJ~~~~~~~~~~~~~~~~~~~~~~~~~~~~~~~~~~~~~~~~~~~~",
"~~~~~~~~~~~~~~~~~~~~~~~~~~~~~~~$0JJJ0$@~~~~~~~~~~~~~~~~~~~~~~~~~~~~~~~~~~~~~~~~~~~~",
"~~~~~~~~~~~~~~~~~~~~~~~~~~~~~~~~$$$$;@~~~~~~~~~~~~~~~~~~~~~~~~~~~~~~~~~~~~~~~~~~~~~",
"~~~~~~~~~~~~~~~~~~~~~~~~~~~~~~~~ q=p; ~~~~~~~~~~~~~~~~~~~~~~~~~~~~~~~~~~~~~~~~~~~~~",
"~~~~~~~~~~~~~~~~~~~~~~~~~~~~~~ rrq=0p$q=~~~~~~~~~~~~~~~~~~~~~~~~~~~~~~~~~~~~~~~~~~~",
"~~~~~~~~~~~~~~~~~~~~~~~~ ~~~~oPJ@0==a.=Eq=~~ = ~~~~~~~~~~~~~~~~~~~~~~~~~~~~~~~~~~~~",
"~~~~~~~~~~~~~~~~~~~~~~;EQEG=qEp00q==qooQQQsPEQQq ~~~~~~~~~~~~~~~~~~~~~~~~~~~~~~~~~~",
"~~~~~~~~~~~~~~~~~~~~~OGaJQQQQKJGKa=sLGLQKQEEQQKso~~~~~~~~~~~~~~~~~~~~~~~~~~~~~~~~~~",
"~~~~~~~~~~~~~~~~~~~~~~~~GQQKJJaq0JKG0GJa0JEEQE#  ;O~~~~~~~~~~~~~~~~~~~~~~~~~~~~~~~~",
"~~~~~~~~~~~~~~~~~~ KQP.q0Qa;0==qJ$rLaq .Oq=Pp0qsQLQ.~~~~~~~~~~~~~~~~~~~~~~~~~~~~~~~",
"~~~~~~~~~~~~~~~~~~;KsJ@@;0o=La==.o$==ooaEa=0===;paPJ~~~~~~~~~~~~~~~~~~~~~~~~~~~~~~~",
"~~~~~~~~~~~~~~~~~~s0;= ~~=G;0sKa=o$ssaGq;rGr$0o~X;0Pp~~~~~~~~~~~~~~~~~~~~~~~~~~~~~~",
"~~~~~~~~~~~~~~~~~ G;o~~~~GqKp==;0JLJ0=oopGa=JJ ~~ o0Eq~~~~~~~~~~~~~~~~~~~~~~~~~~~~~",
"~~~~~~~~~~~~~~~~~aqo~~~~oK0=aKGsJE!LLKKGO.@JKJ~~~~~ qE;~~~~~~~~~~~~~~~~~~~~~~~~~~~~",
"~~~~~~~~~~~~~~~~ G=~~~~~=KEK===;=L!a0=@@rJEJaJ ~~~~~ 0E+~~~~~~~~~~~~~~~~~~~~~~~~~~~",
"~~~~~~~~~~~~~~~~a0.~~~~~rGqsLJKLP!!LJGJKKq.qa;a~~~~~~ 0K+~~~~~~~~~~~~~~~~~~~~~~~~~~",
"~~~~~~~~~~~~~~~.aO~~~~~~aGKpo..o=Q!r=@==a8JqoGa~~~~~~~ ;K+~~~~~~~~~~~~~~~~~~~~~~~~~",
"~~~~~~~~~~~~~~~q= ~~~~~~aOqJJKKLPLLLJJsGJGp@ Ja~~~~~~~~ ;P0=;=  ~~~~~~~~~~~~~~~~~~~",
"~~~~~~~~~~~~~~OqO~~~~~~~aK  0ro==JLs=Ooora0KJqq~~~~~~ =rJPEEEEPLGpO ~~~~~~~~~~~~~~~",
"~~~~~~~~~~~~~OJ= ~~~~~~~00KLJsLEJJJaPEGpaJPG;ps~~~~ rGKPQQQEEPLLLKKGq ~~~~~~~~~~~~~",
"~~~~~~~~~~~~qQq.~~~~~~~~rqa=rsJ0GsqGaGG0qqo=Jpq~~~qGKLEEKGaaaaaaaasGGGq ~~~~~~~~~~~",
"~~~~~~~~~~ KQG*~~~~~~~~~qJq=apJJpO*=JJGO~ aJ;s=~ sJJKLsppaNSZZZZSSaaasss=~~~~~~~~~~",
"~~~~~~~~~~GQPp=~~~~~~~~~J0sKGKGq=OqO#0LPJJpoaJp.JJJJGppaZACCCCCCCCCZSapasq~~~~~~~~~",
"~~~~~~~~~~.KJpa~~~~~~~~~qra*rqq= .O+O*r0 0 ;Ls0JPLJprpSCCCCCCCCCCCCCCASppar ~~~~~~~",
"~~~~~~~~~~ Qp=.~~~~~~~~~;qJKJao ~;;GK!pGGGas0aGQELarrZCCCCCCCCCTCCCCCCCZappp ~~~~~~",
"~~~~~~~~~~sK; ~~~~~~~~~~q00ar.~~~~oOO*O;p ~~rLQQEGrrZCCCCCCCCCCQACCCCCCCCarpq ~~~~~",
"~~~~~~~~~ GO~~~~~~~~~~~~.saa.~~~~oqqJGGsOssrGQQQKqqnCCCCCCCCCCCQUCCCCCCCCCvrpq~~~~~",
"~~~~~~~~~-eo~~~~~~~~~~~~~p=X~~~~~~=*Oqo~~ =0JQQEsqiCCCCCCCCCCCCRPCCCCCCCCCCirr=~~~~",
"~~~~~~~~Xy-+~~~~~~~~~~~~~~ ~~~~~~r0;pqG= ~~ JQQKqqMCCCCCCCCCCCCYPACCCCCCCCCCirr ~~~",
"~~~~~~~~ty$+~~~~~~~~~~~~~~~~~~~~~~;*@a0~~~~~PQPaquCCCCCCCCCCCCCUEZCCCCCCCCCCZrq0~~~",
"~~~~~~~ XooX~~~~~~~~~~~~~~~~~~~~~~oOO; ~~~~OLPKpqbCCCCCCCCCCCCCZPDCCCCCCCCCCCjqqo~~",
"~~~~~~~ ... ~~~~~~~~~~~~~~~Oroqa;;OO*sJJ;0JsJJGqqMCCCCCCCCCCCCCZLDCCCCCCCCCCCVrq8~~",
"~~~~~~++...~~~~~~~~~~~~~~~arKJ*o00q;+** rarGssaqqZCCCCCCCCCCCCCAJGACCCCCCCCCCCbqq ~",
"~~~~~~G++. ~~~~~~~~~~~~~~=0L;KKpOsGHeOG*;GrapapqqVCCCCCCCCCCCCnqrpaFCCCCCCCCCCBqq=~",
"~~~~~yaqq+ ~~~~~~~~~~~~~~E0aJ;ooo=qq0=apaqsqrrqqqVCCCCCCCCCCCZ=;0qrGKCCCCCCCCCCiq8~",
"~~~~q9o .OX~~~~~~~~~~~~~.Qaqas.oqGo=@@qLpsGaqqq00BCCZUEEEEEQQE**=*OO.STTICCVVVVjq0 ",
"~~~~O+ X oo~~~~~~~~~~~~~.LL0;...pp;;;;;@raGq00000ZCCBx31#*#OOOXoOX.  0sGGKKFAVVmq0.",
"~~~ qXXXXXX~~~~~~~~~~~~~~=sJ0orL0o@O@@OO;a;J;8800nCCCCVVVzVlx2.      ,,,222jMVVMq0O",
"~~~qQ9X .X~~~~~~~~~~~~~~~~ G!!QQr~ oo..~.qLP;;;80vVVVVVVVVzVcf2     :cBBBBVVVVVMq0O",
"~~~PEwo;8~~~~~~~~~~~~~~~~~~ sEQQJ*~ ..~ JQEs*==;0qBVVVVBBBBBxf3>   :2cBBBBBBBBVM00O",
"~~ QG$oGO~~~~~~~~~~~~~~~~~~OPs!QLGO~0 ~;Q!PG;**=80nVBBBBBBBBkf3350=22lBBBBBBBBBm00O",
"~~rQ-%o&~~~~~~~~~~~~~~~~.KaEsGqEQG=~~~OQELQQQ=**;0qBBBBBBBBBf3334ai32MBBBBBBBBBj08X",
"~~GK%+oo~~~~~~~~~~~~~~~~LPPs;=oOLQJ*aGLs00sL!aO*=80bBBBBBBBBg33fjpaMxBBBBBBBBBB70; ",
"~~Es%+o$X~~~~~~~~~~~~~~~aGGGp.~~ qr0ppXr= .GE0OO*=80MBBBBBBBg3fMMpaBBBBBBBBBBBMq8= ",
"~.Qa%oXo ~~~~~~~~~~~~~~~ aJJr~~~~.;Oo;q0.~~rE.XOO*=86BBBBBBBgkBBBriBBBBBBBBBBBh0;=~",
"~=EG+oX ~~~~~~~~~~~~~~~~~qLK0 ~~~~  ~ . ~~~.Lo.OOO*;8qBBBBBBlBBBBiiBBBBBBBBBBMq8*.~",
"~aJqo ~~~~~~~~~~~~~~~~~~~@!L= ~~~~~~~~~~~~~ G=..OOO==87BBBBBBBBBBiiBBBBBBBBBBq0;O ~",
"~p=  ~~~~~~~~~~~~~~~~~~~~ QL.~~~~~~~~~~~~~~~sq.~ oOO@;8qMBBBBBBBBxbBBBBBBBBBh88*.~~",
"~.~~~~~~~~~~~~~~~~~~~~~~~~EPO~~~~~~~~~~~~~~~q0.~~ XoOO=80xBBBBBBBMMBBBBBBBB68;*O ~~",
"~~~~~~~~~~~~~~~~~~~~~~~~~~JP=~~~~~~~~~~~~~~ 0O ~~~ XXoO=880xBBBBBBBBBBBBBxq88=O ~~~",
"~~~~~~~~~~~~~~~~~~~~~~~~~~sP;~~~~~~~~~~~~~~.KO ~~~~ .XXo==880jxBBBBBBBMjq888OX ~~~~",
"~~~~~~~~~~~~~~~~~~~~~~~~~~rL0~~~~~~~~~~~~~~@Jo~~~~~~ ..XXX==8;;0q77760888;*OX ~~~~~",
"~~~~~~~~~~~~~~~~~~~~~~~~~~qL0~~~~~~~~~~~~~~0J.~~~~~~~~ ....XO*=;;;;;;;;*=X.. ~~~~~~",
"~~~~~~~~~~~~~~~~~~~~~~~~~~0L0~~~~~~~~~~~~~~qs.~~~~~~~~~~ ......XOOOOOOX..  ~~~~~~~~",
"~~~~~~~~~~~~~~~~~~~~~~~~~~=Lp~~~~~~~~~~~~~~aa ~~~~~~~~~~~~       ..      ~~~~~~~~~~",
"~~~~~~~~~~~~~~~~~~~~~~~~~~;Ks~~~~~~~~~~~~~~Lq ~~~~~~~~~~~~~~~         ~~~~~~~~~~~~~",
"~~~~~~~~~~~~~~~~~~~~~~~~~~=JJ~~~~~~~~~~~~~~Qq ~~~~~~~~~~~~~~~~~~~~~~~~~~~~~~~~~~~~~",
"~~~~~~~~~~~~~~~~~~~~~~~~~~@JJ.~~~~~~~~~~~~XQK ~~~~~~~~~~~~~~~~~~~~~~~~~~~~~~~~~~~~~",
"~~~~~~~~~~~~~~~~~~~~~~~~~~OK!q~~~~~~~~~~~~0QQ ~~~~~~~~~~~~~~~~~~~~~~~~~~~~~~~~~~~~~",
"~~~~~~~~~~~~~~~~~~~~~~~~~~o!!s~~~~~~~~~~~~sQQ.~~~~~~~~~~~~~~~~~~~~~~~~~~~~~~~~~~~~~",
"~~~~~~~~~~~~~~~~~~~~~~~~~~o!EK~~~~~~~~~~~~PQQo~~~~~~~~~~~~~~~~~~~~~~~~~~~~~~~~~~~~~",
"~~~~~~~~~~~~~~~~~~~~~~~~~~.EPE~~~~~~~~~~~~QQQO~~~~~~~~~~~~~~~~~~~~~~~~~~~~~~~~~~~~~",
"~~~~~~~~~~~~~~~~~~~~~~~~~~=KLQO~~~~~~~~~~=QQQ;~~~~~~~~~~~~~~~~~~~~~~~~~~~~~~~~~~~~~",
"~~~~~~~~~~~~~~~~~~~~~~~~~~rKLQL ~~~~~~~~~PQQQa~~~~~~~~~~~~~~~~~~~~~~~~~~~~~~~~~~~~~",
"~~~~~~~~~~~~~~~~~~~~~~~~~~PLL!QEO~~~~~~~aQQQQL ~~~~~~~~~~~~~~~~~~~~~~~~~~~~~~~~~~~~",
"~~~~~~~~~~~~~~~~~~~~~~~~~ JJLP!QK~~~~~~qQQQQQL.~~~~~~~~~~~~~~~~~~~~~~~~~~~~~~~~~~~~",
"~~~~~~~~~~~~~~~~~~~~~~~~~0;LPaaa0~~~~~~pQEQQLq.~~~~~~~~~~~~~~~~~~~~~~~~~~~~~~~~~~~~",
"~~~~~~~~~~~~~~~~~~~~~~~~~=;GLa*o ~~~~~~ 0qJJGP0~~~~~~~~~~~~~~~~~~~~~~~~~~~~~~~~~~~~",
"~~~~~~~~~~~~~~~~~~~~~~~~~~O=**q~~~~~~~~~ qr;;qa=~~~~~~~~~~~~~~~~~~~~~~~~~~~~~~~~~~~",
"~~~~~~~~~~~~~~~~~~~~~~~~~~.O;;a~~~~~~~~~~qpqqoL0~~~~~~~~~~~~~~~~~~~~~~~~~~~~~~~~~~~",
"~~~~~~~~~~~~~~~~~~~~~~~~~~ 0O;a~~~~~~~~~~.GG= p ~~~~~~~~~~~~~~~~~~~~~~~~~~~~~~~~~~~",
"~~~~~~~~~~~~~~~~~~~~~~~~~~~=.*r ~~~~~~~~~~GJ= a~~~~~~~~~~~~~~~~~~~~~~~~~~~~~~~~~~~~",
"~~~~~~~~~~~~~~~~~~~~~~~~~~~.=*0*~~~~~~~~~~GGO a~~~~~~~~~~~~~~~~~~~~~~~~~~~~~~~~~~~~",
"~~~~~~~~~~~~~~~~~~~~~~~~~~~ ;.;q~~~~~~~~~~aGo p~~~~~~~~~~~~~~~~~~~~~~~~~~~~~~~~~~~~",
"~~~~~~~~~~~~~~~~~~~~~~~~~~~~O =a~~~~~~~~~~rJ. p~~~~~~~~~~~~~~~~~~~~~~~~~~~~~~~~~~~~",
"~~~~~~~~~~~~~~~~~~~~~~~~~~~~..=s ~~~~~~~~~qJ. r~~~~~~~~~~~~~~~~~~~~~~~~~~~~~~~~~~~~",
"~~~~~~~~~~~~~~~~~~~~~~~~~~~~ =Or=~~~~~~~~~qJo r~~~~~~~~~~~~~~~~~~~~~~~~~~~~~~~~~~~~",
"~~~~~~~~~~~~~~~~~~~~~~~~~~~~~0o;q~~~~~~~~~0KO r~~~~~~~~~~~~~~~~~~~~~~~~~~~~~~~~~~~~",
"~~~~~~~~~~~~~~~~~~~~~~~~~~~~~OO=a~~~~~~~~~0L# r~~~~~~~~~~~~~~~~~~~~~~~~~~~~~~~~~~~~",
"~~~~~~~~~~~~~~~~~~~~~~~~~~~~~o;=G ~~~~~~~~=L=.r~~~~~~~~~~~~~~~~~~~~~~~~~~~~~~~~~~~~",
"~~~~~~~~~~~~~~~~~~~~~~~~~~~~~ =*sK ~~~~~~~=P;or~~~~~~~~~~~~~~~~~~~~~~~~~~~~~~~~~~~~",
"~~~~~~~~~~~~~~~~~~~~~~~~~~~~~ q=;Jr~~~~~~~OE0.q~~~~~~~~~~~~~~~~~~~~~~~~~~~~~~~~~~~~",
"~~~~~~~~~~~~~~~~~~~~~~~~~~~~~.0aGr ~~~~~~~ Eqoq~~~~~~~~~~~~~~~~~~~~~~~~~~~~~~~~~~~~",
"~~~~~~~~~~~~~~~~~~~~~~~~~~~~~.p;sG~~~~~~~~ Groq~~~~~~~~~~~~~~~~~~~~~~~~~~~~~~~~~~~~",
"~~~~~~~~~~~~~~~~~~~~~~~~~~~~~qG0ar~~~~~~~~~Ga=0~~~~~~~~~~~~~~~~~~~~~~~~~~~~~~~~~~~~",
"~~~~~~~~~~~~~~~~~~~~~~~~~~~~~0;;; ~~~~~~~~~Js=0~~~~~~~~~~~~~~~~~~~~~~~~~~~~~~~~~~~~",
"~~~~~~~~~~~~~~~~~~~~~~~~~~~~oKGaKG~~~~~~~~~PG=p~~~~~~~~~~~~~~~~~~~~~~~~~~~~~~~~~~~~",
"~~~~~~~~~~~~~~~~~~~~~~~~~~~.rJPQP#~~~~~~~~ QJ;a~~~~~~~~~~~~~~~~~~~~~~~~~~~~~~~~~~~~",
"~~~~~~~~~~~~~~~~~~~~~~~~~~~GJsJJPO~~~~~~~~qQQ0a~~~~~~~~~~~~~~~~~~~~~~~~~~~~~~~~~~~~",
"~~~~~~~~~~~~~~~~~~~~~~~~~~ GaJQEJ~~~~~~~~ ELWsa~~~~~~~~~~~~~~~~~~~~~~~~~~~~~~~~~~~~",
"~~~~~~~~~~~~~~~~~~~~~~~~~~aJGPKQa~~~~~~~~.p;qrJ~~~~~~~~~~~~~~~~~~~~~~~~~~~~~~~~~~~~",
"~~~~~~~~~~~~~~~~~~~~~~~~~=EKJKsQ.~~~~~~~~~ LEQL~~~~~~~~~~~~~~~~~~~~~~~~~~~~~~~~~~~~",
"~~~~~~~~~~~~~~~~~~~~~~~~~JEKJJPQ ~~~~~~~~~oQQLJ~~~~~~~~~~~~~~~~~~~~~~~~~~~~~~~~~~~~",
"~~~~~~~~~~~~~~~~~~~~~~~~ LKGLqQQ ~~~~~~~~~JQQEG.~~~~~~~~~~~~~~~~~~~~~~~~~~~~~~~~~~~",
"~~~~~~~~~~~~~~~~~~~~~~~~ rpGK8Q=~~~~~~~~~.QQQQQs~~~~~~~~~~~~~~~~~~~~~~~~~~~~~~~~~~~",
"~~~~~~~~~~~~~~~~~~~~~~~~~OprqKJ~~~~~~~~~~;QJEPEQK ~~~~~~~~~~~~~~~~~~~~~~~~~~~~~~~~~",
"~~~~~~~~~~~~~~~~~~~~~~~~~~~0~; ~~~~~~~~~~ O ;q00r ~~~~~~~~~~~~~~~~~~~~~~~~~~~~~~~~~",
"~~~~~~~~~~~~~~~~~~~~~~~~~~~~~~~~~~~~~~~~~~~~~~~~~~~~~~~~~~~~~~~~~~~~~~~~~~~~~~~~~~~",
"~~~~~~~~~~~~~~~~~~~~~~~~~~~~~~~~~~~~~~~~~~~~~~~~~~~~~~~~~~~~~~~~~~~~~~~~~~~~~~~~~~~",
"~~~~~~~~~~~~~~~~~~~~~~~~~~~~~~~~~~~~~~~~~~~~~~~~~~~~~~~~~~~~~~~~~~~~~~~~~~~~~~~~~~~"
};
