/* XPM */
static char *__3[] = {
/* columns rows colors chars-per-pixel */
"83 113 81 1 ",
"  c #131313",
". c gray9",
"X c #1B1B1B",
"o c gray12",
"O c #2F1F0F",
"+ c gray15",
"@ c #282828",
"# c #2C2C2C",
"$ c #322D22",
"% c #2D3030",
"& c #2C3031",
"* c #2F3B3C",
"= c #303032",
"- c gray20",
"; c #323737",
": c #3A3A3A",
"> c #4A271B",
", c #57371B",
"< c #633F1F",
"1 c #412921",
"2 c #4F3F2B",
"3 c #53472C",
"4 c #674027",
"5 c #734323",
"6 c #7F4B27",
"7 c #7A4B2B",
"8 c #604C33",
"9 c #6D5536",
"0 c #7B5C3C",
"q c #3D3D43",
"w c #323E49",
"e c #434343",
"r c #4E4E4E",
"t c #444450",
"y c #4B4B55",
"u c gray34",
"i c #555560",
"p c #5E5E6D",
"a c #6D4566",
"s c #7F4D6A",
"d c gray39",
"f c gray43",
"g c #676774",
"h c #777777",
"j c #B03C13",
"k c #93472F",
"l c #9B4B33",
"z c #8C5637",
"x c #985D3F",
"c c #A34F3B",
"v c #C65F1F",
"b c #CD6B23",
"n c #D47727",
"m c #AF5743",
"M c #AF5F4B",
"N c #866741",
"B c #A56446",
"V c #B36B53",
"C c #B47150",
"Z c #DB832B",
"A c #E28F2E",
"S c #FFAF53",
"D c #C18564",
"F c #CF9876",
"G c #9B6282",
"H c #AF6F90",
"J c #BC7F9E",
"K c #848484",
"L c #878795",
"P c #939393",
"I c #A2A2A2",
"U c #AEAEAE",
"Y c #B9B9B9",
"T c #E3B490",
"R c #DCA6BC",
"E c #E8BCC8",
"W c #C5C5C5",
"Q c #CADDC4",
"! c gainsboro",
"~ c #CDCDE0",
"^ c None",
/* pixels */
"^^^^^^^^^^^^^^^^^^^^^^^^^^^^^^^^^^ rffu@^^^^^^^^^^^^^^^^^^^^^^^^^^^^^^^^^^^^^^^^^^^",
"^^^^^^^^^^^^^^^^^^^^^^^^^^^^^^^^ K!!!!!!Wr^^^^^^^^^^^^^^^^^^^^^^^^^^^^^^^^^^^^^^^^^",
"^^^^^^^^^^^^^^^^^^^^^^^^^^^^^^^.I!!!!!!!!!P^^^^^^^^^^^^^^^^^^^^^^^^^^^^^^^^^^^^^^^^",
"^^^^^^^^^^^^^^^^^^^^^^^^^^^^^^^KII!!WW!!!IIq^^^^^^^^^^^^^^^^^^^^^^^^^^^^^^^^^^^^^^^",
"^^^^^^^^^^^^^^^^^^^^^^^^^^^^^^^II!!WUPWW!!IK^^^^^^^^^^^^^^^^^^^^^^^^^^^^^^^^^^^^^^^",
"^^^^^^^^^^^^^^^^^^^^^^^^^^^^^^^IIjjjWPWjjjII^^^^^^^^^^^^^^^^^^^^^^^^^^^^^^^^^^^^^^^",
"^^^^^^^^^^^^^^^^^^^^^^^^^^^^^^^KIjnCj!jjnjIU^^^^^^^^^^^^^^^^^^^^^^^^^^^^^^^^^^^^^^^",
"^^^^^^^^^^^^^^^^^^^^^^^^^^^^^^^PW!!!UdU!!!!U^^^^^^^^^^^^^^^^^^^^^^^^^^^^^^^^^^^^^^^",
"^^^^^^^^^^^^^^^^^^^^^^^^^^^^^^^uPIUWPeP~PPIf^^^^^^^^^^^^^^^^^^^^^^^^^^^^^^^^^^^^^^^",
"^^^^^^^^^^^^^^^^^^^^^^^^^^^^^^^-r-uUW!~Ufqhe^^^^^^^^^^^^^^^^^^^^^^^^^^^^^^^^^^^^^^^",
"^^^^^^^^^^^^^^^^^^^^^^^^^^^^^^^^IeuPfU!fK%I^^^^^^^^^^^^^^^^^^^^^^^^^^^^^^^^^^^^^^^^",
"^^^^^^^^^^^^^^^^^^^^^^^^^^^^^^^^dr ouuu% rf^^^^^^^^^^^^^^^^^^^^^^^^^^^^^^^^^^^^^^^^",
"^^^^^^^^^^^^^^^^^^^^^^^^^^^^^^^^^IP:uPr:Y!d^^^^^^^^^^^^^^^^^^^^^^^^^^^^^^^^^^^^^^^^",
"^^^^^^^^^^^^^^^^^^^^^^^^^^^^^^^^^P!~!!!U!P^^^^^^^^^^^^^^^^^^^^^^^^^^^^^^^^^^^^^^^^^",
"^^^^^^^^^^^^^^^^^^^^^^^^^^^^^^^^^^%ePPPe%##^^^^^^^^^^^^^^^^^^^^^^^^^^^^^^^^^^^^^^^^",
"^^^^^^^^^^^^^^^^^^^^^^^^^^^^^^^^^^+%%%%::^^^^^^^^^^^^^^^^^^^^^^^^^^^^^^^^^^^^^^^^^^",
"^^^^^^^^^^^^^^^^^^^^^^^^^^^^^^^^^^ -f-r ^^^^^^^^^^^^^^^^^^^^^^^^^^^^^^^^^^^^^^^^^^^",
"^^^^^^^^^^^^^^^^^^^^^^^^^^^^^^^^.r#dr-rr- ^^^^^^^^^^^^^^^^^^^^^^^^^^^^^^^^^^^^^^^^^",
"^^^^^^^^^^^^^^^^^^^^^^^^^^ ^^^.:Wq+f:-e-WI ^^^^^^^^^^^^^^^^^^^^^^^^^^^^^^^^^^^^^^^^",
"^^^^^^^^^^^^^^^^^^^^^^^^+!!!IuW!W.#u----euW- dW!Y+^^^^^^^^^^^^^^^^^^^^^^^^^^^^^^^^^",
"^^^^^^^^^^^^^^^^^^^^^^^+PI!!Y!!I!KdIf-fPfII!!!WIKI^^^^^^^^^^^^^^^^^^^^^^^^^^^^^^^^^",
"^^^^^^^^^^^^^^^^^^^^^^^^^#W!YWIfPIPrKPKefPUII!!P^^^^^^^^^^^^^^^^^^^^^^^^^^^^^^^^^^^",
"^^^^^^^^^^^^^^^^^^^^^YW!Krrf~rr ..:hLuuhr-:urh!ur I!I ^^^^^^^^^^^^^^^^^^^^^^^^^^^^^",
"^^^^^^^^^^^^^^^^^^^^rQKhr:--e-dWuo--eqoo--uW:#u:eoPKUu^^^^^^^^^^^^^^^^^^^^^^^^^^^^^",
"^^^^^^^^^^^^^^^^^^^ Wu:- +e-rf::hKdff-ooePKe-L- ^ $:eI^^^^^^^^^^^^^^^^^^^^^^^^^^^^^",
"^^^^^^^^^^^^^^^^^^^Ih-.^^ PK#fKr.oehPLh-:--ePdK^^^^.-fr^^^^^^^^^^^^^^^^^^^^^^^^^^^^",
"^^^^^^^^^^^^^^^^^^fI-^^^^^PIf#.rIPhKU~~PPKIK:-U.^^^^ -P ^^^^^^^^^^^^^^^^^^^^^^^^^^^",
"^^^^^^^^^^^^^^^^^rU-^^^^^ IdIUfr#--ef~Uure:-fUI:^^^^^.rh^^^^^^^^^^^^^^^^^^^^^^^^^^^",
"^^^^^^^^^^^^^^^^+U:^^^^^^uePe-hUKPPPU~~PhhKIIufu^^^^^^+f-^^^^^^^^^^^^^^^^^^^^^^^^^^",
"^^^^^^^^^^^^^^^ I: ^^^^^^fK-hK+feeeeu~~-+o+-uhPd^^^^^^^-h ^^^^^^^^^^^^^^^^^^^^^^^^^",
"^^^^^^^^^^^^^^ Ie ^^^^^^^hI^.dIIPPPPUYWUPhhhIuof^^^^^^^.ee^^^^^^^^^^^^^^^^^^^^^^^^^",
"^^^^^^^^^^^^^ Yr ^^^^^^^^reII-ru#-::fUKe-or:  PK^^^^^^^^rPPIIhr+^^^^^^^^^^^^^^^^^^^",
"^^^^^^^^^^^^:!d.^^^^^^^^^fr-KYKrrhUPKPPPWIrPPIKr^^^^^^XhIPKKKKKKf+^^^^^^^^^^^^^^^^^",
"^^^^^^^^^^ P!Ko^^^^^^^^^^rfK:ofddIIuPfhKdIKKrf+u^^^^^eUYUIhduuuudhu ^^^^^^^^^^^^^^^",
"^^^^^^^^^d!!K$^^^^^^^^^^^+frPe.^ KPPe-+fIKuK#ePr^^^^-!!!UfuuuNNsrrudX^^^^^^^^^^^^^^",
"^^^^^^^^:!!Pr.^^^^^^^^^^^dIu-KKfUUd:or+:eKUKIKeP^^^ W!!WdudCAAAAACsudX^^^^^^^^^^^^^",
"^^^^^^^^ rWfd.^^^^^^^^^^^#eU=.eo:u-++-^.:ufu-uqd^^^d!!!huNZAAAAAAAAVuuX^^^^^^^^^^^^",
"^^^^^^^^^W!:o ^^^^^^^^^^^^r:hPPfKuYIK:e^ +fPhfdd^^^U!!UusZAAAAASAAAAZsr.^^^^^^^^^^^",
"^^^^^^^^r!! ^^^^^^^^^^^^^^ru:q.r-o:+#-^^^^-ffe:r^^-UWWfuCAAAAAASTAAAAZsr ^^^^^^^^^^",
"^^^^^^^^I!e^^^^^^^^^^^^^^.yipgfefhfPre.^^^^+hfh+^^rIUIrsAAAAAAASWZAAAAAs:^^^^^^^^^^",
"^^^^^^^ !W^^^^^^^^^^^^^^Xipiggr^ #d#-: ^^^^^oeu^^^hKPhrVAAAAAAAAWDAAAAAZrX^^^^^^^^^",
"^^^^^^^r!f^^^^^^^^^^^^^ ypppggfX#h-d-:u^^^^^^. ^^^KhhfrDAAAAAAAARJAAAAAAVe ^^^^^^^^",
"^^^^^^^IW.^^^^^^^^^^^^^*wwygggf: rh:-e ^^^^^^^^^^ KffurAAAAAAAAATUZAAAAAAs+^^^^^^^^",
"^^^^^^.YI^^^^^^^^^^^^^Xwww;@@&#X^ #--.^^^^^^^^^^^ hdduaAAAAAAAAAFUDAAAAAZCr ^^^^^^^",
"^^^^^^KId^^^^^^^^^^^^ www*o..@e#fKK-:e:+fuo:.^^^^ fuuraAAAAAAAAAAIDAAAAZZZN+^^^^^^^",
"^^^^^ YY ^^^^^^^^^^^^@www;oX.uddo-##:e-u++KUur^^^ drrrsAAAAAAAAAAIHAAAZZZZCe^^^^^^^",
"^^^^^dPU^^^^^^^^^^^^ X*w*ooX+uK=oh+eKhKodIU:P:^^^^urrraAAAAAAAAAVuIWRFZZZZZ9 ^^^^^^",
"^^^^.Y!u^^^^^^^^^^^^ ^;ipit-rffdhK-rrru-+--KfrP^^^errrrZAAAAAAAArrKUUUUFZZZB-^^^^^^",
"^^^^IW!$^^^^^^^^^^^^^.yyyp$-o .fWe##++h:o.hKuu~ ^^-eerrZAFRWWWWWh:rreeeeZZZC:^^^^^^",
"^^^ hPW.^^^^^^^^^^^^ *;&&o  .edf+-::::fh...erUY ^^+qeerVZZx4$++==+++X. eKGCZr ^^^^^",
"^^^:!!IX^^^^^^^^^^^O-ooXXXX.rrf:--#---+:K:.#PKe^^^ :qerBZZZZnAbm>     O<46nn0.^^^^^",
"^^^-PW!!-^^^^^^ o12O Xo;@.XqYPuo oooo ^r~!W~P ^^^^^::qe9ZZZZAnAn6O   ObZZZZZzo^^^^^",
"^^X!!!P!I^^^^ >2O    *ww;=@=fP!f ^.. ^oK!!~P.^^^^^^-::erVAnAnAnAc,  >kmZZZZZx+^^^^^",
"^^e!!!dh!  12O    ^^;www*ii=wI~!-^.e^ohU!~Kd ^^^^^^.-:qexnAnAnAnb<4-56lZZZZZx=^^^^^",
"^^h!!Wd P31.   ^^^^owww*@=;;P!UWY ^^^-K!WuPKK:e ^^^^=-:erZnAnAnAZ54f066bZZZZx=^^^^^",
"^^PYY!e>o    ^^^^^ ;www;;;;tUKrePYdeXfWP-+--fWUf^^^^X=-:exAnAnAnZcmfxl6vZZZZx=^^^^^",
"^oW!P!.   ^^^^^^^^@%**&;;;;UPo -r#furfd.^^XrKKKe^^^^ =-=eyCZZZZZZZnfBblmZZZZ0-^^^^^",
"^oW!uW-^^^^^^^^^^^o@@&&&;;KQf^^.rr:++:o^^^^rKPf ^^^^^.==-qznZZZZZZnNxnnvnZZZr+^^^^^",
"^o!QdQ ^^^^^^^^^^^ @&@&&%uE!-^^^.o.^ .^^^^^-PP-^^^^^^^+--:exZZZZZnnBNnnnnnZMq.^^^^^",
"^.!!$I ^^^^^^^^^^^^@&@&&@W!!.^^^^^^^^^^^^^^=PK+^^^^^^^ +-=qeMZZZZnnmNnnnnnnxq ^^^^^",
"^^hW.$^^^^^^^^^^^^^o&&&o^W!W ^^^^^^^^^^^^^^ IP.^^^^^^^^.++=:emZZZnnbxnnnnnbe-^^^^^^",
"^^.d^^^^^^^^^^^^^^^  . ^^K!~^^^^^^^^^^^^^^^ UP ^^^^^^^^ X+@%qemZZnnnnnnnnn0qX^^^^^^",
"^^^^^^^^^^^^^^^^^^^^^^^^^=!!+^^^^^^^^^^^^^^.UP^^^^^^^^^^ Xo+%:q0bnnnnnnnn7q- ^^^^^^",
"^^^^^^^^^^^^^^^^^^^^^^^^^ !!:^^^^^^^^^^^^^^.UK^^^^^^^^^^^ .X@@&qezbnnnbc8q:X^^^^^^^",
"^^^^^^^^^^^^^^^^^^^^^^^^^^Y!:^^^^^^^^^^^^^^oUh^^^^^^^^^^^^ ..X+-:qqe88eqq-X ^^^^^^^",
"^^^^^^^^^^^^^^^^^^^^^^^^^^P!r^^^^^^^^^^^^^^oUf^^^^^^^^^^^^^  ..X+=-:qqq-+. ^^^^^^^^",
"^^^^^^^^^^^^^^^^^^^^^^^^^^u!f^^^^^^^^^^^^^^+Ud^^^^^^^^^^^^^^^   ..XX+oX.. ^^^^^^^^^",
"^^^^^^^^^^^^^^^^^^^^^^^^^^-~K^^^^^^^^^^^^^^-Uu^^^^^^^^^^^^^^^^^          ^^^^^^^^^^",
"^^^^^^^^^^^^^^^^^^^^^^^^^^o~U^^^^^^^^^^^^^^eUr^^^^^^^^^^^^^^^^^^^^    ^^^^^^^^^^^^^",
"^^^^^^^^^^^^^^^^^^^^^^^^^^ Y~.^^^^^^^^^^^^^uUe^^^^^^^^^^^^^^^^^^^^^^^^^^^^^^^^^^^^^",
"^^^^^^^^^^^^^^^^^^^^^^^^^^ U!-^^^^^^^^^^^^^fU:^^^^^^^^^^^^^^^^^^^^^^^^^^^^^^^^^^^^^",
"^^^^^^^^^^^^^^^^^^^^^^^^^^^P!r^^^^^^^^^^^^^YI-^^^^^^^^^^^^^^^^^^^^^^^^^^^^^^^^^^^^^",
"^^^^^^^^^^^^^^^^^^^^^^^^^^^P!K^^^^^^^^^^^^o!U:^^^^^^^^^^^^^^^^^^^^^^^^^^^^^^^^^^^^^",
"^^^^^^^^^^^^^^^^^^^^^^^^^^^P!U ^^^^^^^^^^^r!Ue^^^^^^^^^^^^^^^^^^^^^^^^^^^^^^^^^^^^^",
"^^^^^^^^^^^^^^^^^^^^^^^^^^^P!~o^^^^^^^^^^^fQUe^^^^^^^^^^^^^^^^^^^^^^^^^^^^^^^^^^^^^",
"^^^^^^^^^^^^^^^^^^^^^^^^^^^P!!r^^^^^^^^^^^UQUr^^^^^^^^^^^^^^^^^^^^^^^^^^^^^^^^^^^^^",
"^^^^^^^^^^^^^^^^^^^^^^^^^^ U!!Y.^^^^^^^^^:!UUK ^^^^^^^^^^^^^^^^^^^^^^^^^^^^^^^^^^^^",
"^^^^^^^^^^^^^^^^^^^^^^^^^^-~!!!I^^^^^^^^d!!YUI.^^^^^^^^^^^^^^^^^^^^^^^^^^^^^^^^^^^^",
"^^^^^^^^^^^^^^^^^^^^^^^^^^d!!!!~h^^^^^^-!!WYUI:^^^^^^^^^^^^^^^^^^^^^^^^^^^^^^^^^^^^",
"^^^^^^^^^^^^^^^^^^^^^^^^^^:PW!~IK^^^^^^.KKhPUff^^^^^^^^^^^^^^^^^^^^^^^^^^^^^^^^^^^^",
"^^^^^^^^^^^^^^^^^^^^^^^^^^:hU~Ir-^^^^^^^.--YYfe ^^^^^^^^^^^^^^^^^^^^^^^^^^^^^^^^^^^",
"^^^^^^^^^^^^^^^^^^^^^^^^^ -.#:e- ^^^^^^^^.-::- ^^^^^^^^^^^^^^^^^^^^^^^^^^^^^^^^^^^^",
"^^^^^^^^^^^^^^^^^^^^^^^^^Keo-++.^^^^^^^^^+e:-=^^^^^^^^^^^^^^^^^^^^^^^^^^^^^^^^^^^^^",
"^^^^^^^^^^^^^^^^^^^^^^^^^-o eh-^^^^^^^^^^.u:++^^^^^^^^^^^^^^^^^^^^^^^^^^^^^^^^^^^^^",
"^^^^^^^^^^^^^^^^^^^^^^^^^ o^-K-^^^^^^^^^^ r:+.^^^^^^^^^^^^^^^^^^^^^^^^^^^^^^^^^^^^^",
"^^^^^^^^^^^^^^^^^^^^^^^^^oo^of+^^^^^^^^^^oe-+ ^^^^^^^^^^^^^^^^^^^^^^^^^^^^^^^^^^^^^",
"^^^^^^^^^^^^^^^^^^^^^^^^^+-^+uo^^^^^^^^^^-:++ ^^^^^^^^^^^^^^^^^^^^^^^^^^^^^^^^^^^^^",
"^^^^^^^^^^^^^^^^^^^^^^^^^.e^-r.^^^^^^^^^^e:.$^^^^^^^^^^^^^^^^^^^^^^^^^^^^^^^^^^^^^^",
"^^^^^^^^^^^^^^^^^^^^^^^^^.r^-e.^^^^^^^^^^e: -^^^^^^^^^^^^^^^^^^^^^^^^^^^^^^^^^^^^^^",
"^^^^^^^^^^^^^^^^^^^^^^^^^ u^-+ ^^^^^^^^^^r-oo^^^^^^^^^^^^^^^^^^^^^^^^^^^^^^^^^^^^^^",
"^^^^^^^^^^^^^^^^^^^^^^^^^^u^$o ^^^^^^^^^^u-+o^^^^^^^^^^^^^^^^^^^^^^^^^^^^^^^^^^^^^^",
"^^^^^^^^^^^^^^^^^^^^^^^^^^r^eo ^^^^^^^^^^d-+.^^^^^^^^^^^^^^^^^^^^^^^^^^^^^^^^^^^^^^",
"^^^^^^^^^^^^^^^^^^^^^^^^^^e^eo ^^^^^^^^^ d-$.^^^^^^^^^^^^^^^^^^^^^^^^^^^^^^^^^^^^^^",
"^^^^^^^^^^^^^^^^^^^^^^^^^^:^eo ^^^^^^^^^Kr== ^^^^^^^^^^^^^^^^^^^^^^^^^^^^^^^^^^^^^^",
"^^^^^^^^^^^^^^^^^^^^^^^^^^- eo ^^^^^^^^qUe-$.^^^^^^^^^^^^^^^^^^^^^^^^^^^^^^^^^^^^^^",
"^^^^^^^^^^^^^^^^^^^^^^^^^^$ eo ^^^^^^^^ ehf:+^^^^^^^^^^^^^^^^^^^^^^^^^^^^^^^^^^^^^^",
"^^^^^^^^^^^^^^^^^^^^^^^^^^+ ro ^^^^^^^^^-e$rr^^^^^^^^^^^^^^^^^^^^^^^^^^^^^^^^^^^^^^",
"^^^^^^^^^^^^^^^^^^^^^^^^^^+ ro ^^^^^^^^^+e-uI^^^^^^^^^^^^^^^^^^^^^^^^^^^^^^^^^^^^^^",
"^^^^^^^^^^^^^^^^^^^^^^^^^^$ uo^^^^^^^^^^^+:-u^^^^^^^^^^^^^^^^^^^^^^^^^^^^^^^^^^^^^^",
"^^^^^^^^^^^^^^^^^^^^^^^^^^$ d+^^^^^^^^^^oPKfKK^^^^^^^^^^^^^^^^^^^^^^^^^^^^^^^^^^^^^",
"^^^^^^^^^^^^^^^^^^^^^^^^^^+ u+^^^^^^^^^^.fUWUfr ^^^^^^^^^^^^^^^^^^^^^^^^^^^^^^^^^^^",
"^^^^^^^^^^^^^^^^^^^^^^^^^^+ r- ^^^^^^^^^^fKeeP!r^^^^^^^^^^^^^^^^^^^^^^^^^^^^^^^^^^^",
"^^^^^^^^^^^^^^^^^^^^^^^^^^+.ud.^^^^^^^^^^.IIfPWI^^^^^^^^^^^^^^^^^^^^^^^^^^^^^^^^^^^",
"^^^^^^^^^^^^^^^^^^^^^^^^^^$+eu: ^^^^^^^^^ W!PUPY-^^^^^^^^^^^^^^^^^^^^^^^^^^^^^^^^^^",
"^^^^^^^^^^^^^^^^^^^^^^^^^^re-+. ^^^^^^^^^^r!dKKUW ^^^^^^^^^^^^^^^^^^^^^^^^^^^^^^^^^",
"^^^^^^^^^^^^^^^^^^^^^^^^^^rKIfe^^^^^^^^^^^$!hUUPUh^^^^^^^^^^^^^^^^^^^^^^^^^^^^^^^^^",
"^^^^^^^^^^^^^^^^^^^^^^^^^^--ru:^^^^^^^^^^^.!WfIhUK^^^^^^^^^^^^^^^^^^^^^^^^^^^^^^^^^",
"^^^^^^^^^^^^^^^^^^^^^^^^^^UKK!Y:^^^^^^^^^^^u!+IIde^^^^^^^^^^^^^^^^^^^^^^^^^^^^^^^^^",
"^^^^^^^^^^^^^^^^^^^^^^^^^ !!!!!f^^^^^^^^^^^^IKrur ^^^^^^^^^^^^^^^^^^^^^^^^^^^^^^^^^",
"^^^^^^^^^^^^^^^^^^^^^^^^^YWPIK!P^^^^^^^^^^^^.:^-^^^^^^^^^^^^^^^^^^^^^^^^^^^^^^^^^^^",
"^^^^^^^^^^^^^^^^^^^^^^^^r!!WIdW!^^^^^^^^^^^^^^^^^^^^^^^^^^^^^^^^^^^^^^^^^^^^^^^^^^^",
"^^^^^^^^^^^^^^^^^^^^^^^^:reff e:^^^^^^^^^^^^^^^^^^^^^^^^^^^^^^^^^^^^^^^^^^^^^^^^^^^",
"^^^^^^^^^^^^^^^^^^^^^^^^^^^^^^^^^^^^^^^^^^^^^^^^^^^^^^^^^^^^^^^^^^^^^^^^^^^^^^^^^^^"
};
