/* XPM */
static char *_0_0[] = {
/* columns rows colors chars-per-pixel */
"100 126 54 1 ",
"  c #131313",
". c gray9",
"X c #1B1B1B",
"o c gray12",
"O c #23170B",
"+ c #2F1F0F",
"@ c #232323",
"# c gray15",
"$ c #282828",
"% c #2B2E2D",
"& c #2E2C2E",
"* c #322D22",
"= c #2C3031",
"- c #2F3B3C",
"; c gray20",
": c #3A3A3A",
"> c #6F2200",
", c #412921",
"< c #423629",
"1 c #4F3F2B",
"2 c #7A4B2B",
"3 c #604C33",
"4 c #6D5536",
"5 c #7B5C3C",
"6 c #3D3D43",
"7 c #434343",
"8 c #4E4E4E",
"9 c #4B4B55",
"0 c gray34",
"q c gray39",
"w c gray43",
"e c #777777",
"r c #72727F",
"t c #9A1808",
"y c #AF5F4B",
"u c #B36B53",
"i c #8F5477",
"p c #C18564",
"a c #CF9876",
"s c #AF6F90",
"d c #848484",
"f c #939393",
"g c #A2A2A2",
"h c #AEAEAE",
"j c #B9B9B9",
"k c #E3B490",
"l c #DCA6BC",
"z c #FEF5B9",
"x c #E8BCC8",
"c c #C5C5C5",
"v c #CADDC4",
"b c gainsboro",
"n c #FEFFC7",
"m c None",
/* pixels */
"mmmmmmmmmmmmmmmmmmmmmmmmmmmmmmmm  mmmmmmmmmmmmmmmmmmmmmmmmmmmmmmmmmmmmmmmmmmmmmmmmmmmmmmmmmmmmmmmmmm",
"mmmmmmmmmmmmmmmmmmmmmmmmmmmmm X%%mmmmmmmmmmmmmmmmmmmmmmmmmmmmmmmmmmmmmmmmmmmmmmmmmmmmmmmmmmmmmmmmmmm",
"mmmmmmmmmmmmmmmmmmmmmmmmmmm %--- mmmmmmmmmmmmmmmmmmmmmmmmmmmmmmmmmmmmmmmmmmmmmmmmmmmmmmmmmmmmmmmmmmm",
"mmmmmmmmmmmmmmmmmmmmmmmmmm %=--% d8mmmmmmmmmmmmmmmmmmmmmmmmmmmmmmmmmmmmmmmmmmmmmmmmmmmmmmmmmmmmmmmmm",
"mmmmmmmmmmmmmmmmmmmmmmmmmm%==--Xqd mmmmmmmmmmmmmmmmmmmmmmmmmmmmmmmmmmmmmmmmmmmmmmmmmmmmmmmmmmmmmmmmm",
"mmmmmmmmmmmmmmmmmmmmmmmmm#===-#7;%mmmmmmmmmmmmmmmmmmmmmmmmmmmmmmmmmmmmmmmmmmmmmmmmmmmmmmmmmmmmmmmmmm",
"mmmmmmmmmmmmmmmmmmmmmmmm %====@+o #mmmmmmmmmmmmmmmmmmmmmmmmmmmmmmmmmmmmmmmmmmmmmmmmmmmmmmmmmmmmmmmmm",
"mmmmmmmmmmmmmmmmmmmmmmm %%%=#@:*O 6mmmmmmmmmmmmmmmmmmmmmmmmmmmmmmmmmmmmmmmmmmmmmmmmmmmmmmmmmmmmmmmmm",
"mmmmmmmmmmmmmmmmmmmmmmmX%%%#@@f8 = mmmmmmmmmmmmmmmmmmmmmmmmmmmmmmmmmmmmmmmmmmmmmmmmmmmmmmmmmmmmmmmmm",
"mmmmmmmmmmmmmmmmmmmmmm %%%%@@@d6-# mmmmmmmmmmmmmmmmmmmmmmmmmmmmmmmmmmmmmmmmmmmmmmmmmmmmmmmmmmmmmmmmm",
"mmmmmmmmmmmmmmmmmmmmmm@#%%#@@=8-=#mmmmmmmmmmmmmmmmmmmmmmmmmmmmmmmmmmmmmmmmmmmmmmmmmmmmmmmmmmmmmmmmmm",
"mmmmmmmmmmmmmmmmmmmmmm@@@@@@@6---6mmmmmmmmmmmmmmmmmmmmmmmmmmmmmmmmmmmmmmmmmmmmmmmmmmmmmmmmmmmmmmmmmm",
"mmmmmmmmmmmmmmmmmmmmm @@@@@@%-%@#Xmmmmmmmmmmmmmmmmmmmmmmmmmmmmmmmmmmmmmmmmmmmmmmmmmmmmmmmmmmmmmmmmmm",
"mmmmmmmmmmmmmmmmmmmmm @@@@@#%#@@# mmmmmmmmmmmmmmmmmmmmmmmmmmmmmmmmmmmmmmmmmmmmmmmmmmmmmmmmmmmmmmmmmm",
"mmmmmmmmmmmmmmmmmmmmmX@@@X @#@@@@mmmmmmmmmmmmmmmmmmmmmmmmmmmmmmmmmmmmmmmmmmmmmmmmmmmmmmmmmmmmmmmmmmm",
"mmmmmmmmmmmmmmmmmmmmm@@@.  XX@@@ mmmmmmmmmmmmmmmmmmmmmmmmmmmmmmmmmmmmmmmmmmmmmmmmmmmmmmmmmmmmmmmmmmm",
"mmmmmmmmmmmmmmmmmmmm @@oO    @@@mmmmmmmmmmmmmmmmmmmmmmmmmmmmmmmmmmmmmmmmmmmmmmmmmmmmmmmmmmmmmmmmmmmm",
"mmmmmmmmmmmmmmmmmmmm X +OX  @@@ mmmmmmmmmmmmmmmmmmmmmmmmmmmmmmmmmmmmmmmmmmmmmmmmmmmmmmmmmmmmmmmmmmmm",
"mmmmmmmmmmmmmmmmmmmm  *oOXX @@Xmmmmmmmmmmmmmm9mmmmmmmmmmmmmmmmmmmmmmmmmmmmmmmmmmmmmmmmmmmmmmmmmmmmmm",
"mmmmmmmmmmmmmmmmmmmmm+*O@#@@@o mmmmm9mmmcmmmmmmmmmmmmmmmmmmmmmmmmmmmmmmmmmmmmmmmmmmmmmmmmmmmmmmmmmmm",
"mmmmmmmmmmmmmmmmmmmmO,* =%%,* mmmmmmmmmmmmfmmmmmmmmmmmmmmmmmmmmmmmmmmmmmmmmmmmmmmmmmmmmmmmmmmmmmmmmm",
"mmmmmmmmmmmmmmmmmmm 1,+X-&,, mmmmmmfmmmmmmmfmmmmmmmmmmmmmmmmmmmmmmmmmmmmmmmmmmmmmmmmmmmmmmmmmmmmmmmm",
"mmmmmmmmmmmmmmmmmmm13* %*,O mmmmmmmmmmmmmfmmmmmmmmmmmmmmmmmmmmmmmmmmmmmmmmmmmmmmmmmmmmmmmmmmmmmmmmmm",
"mmmmmmmmmmmmmmmmmm*4,  o mmmmmmmmmmmmmmm9mmmmmmmmmmmmmmmmmmmmmmmmmmmmmmmmmmmmmmmmmmmmmmmmmmmmmmmmmmm",
"mmmmmmmmmmmmmmmmm 41Ommmmmmmmm @76; mfcmmmmfmmmmmmmmmmmmmmmmmmmmmmmmmmmmmmmmmmmmmmmmmmmmmmmmmmmmmmmm",
"mmmmmmmmmmmmmmmm 33* mmmmmmmm cnnnnc$mmmmmmmmmmmmmmmmmmmmmmmmmmmmmmmmmmmmmmmmmmmmmmmmmmmmmmmmmmmmmmm",
"mmmmmmmmmmmmmmmm,3, mmmmmmmm bcdcnnnfommfmmmmmmmmmmmmmmmmmmmmmmmmmmmmmmmmmmmmmmmmmmmmmmmmmmmmmmmmmmm",
"mmmmmmmmmmmmmmmO4<.mmmmmmmmmcg>tzhnznf fm9mmmmmmmmmmmmmmmmmmmmmmmmmmmmmmmmmmmmmmmmmmmmmmmmmmmmmmmmmm",
"mmmmmmmmmmmmmm 41+mmmmmmmmm8ncuabebnf9fmfmcmmmmmmmmmmmmmmmmmmmmmmmmmmmmmmmmmmmmmmmmmmmmmmmmmmmmmmmmm",
"mmmmmmmmmmmmmm13, mmmmmmmmmfncdhbnnnffhmmmmmmmmmmmmmmmmmmmmmmmmmmmmmmmmmmmmmmmmmmmmmmmmmmmmmmmmmmmmm",
"mmmmmmmmmmmmm*4, mmmmmmmmmmfj::jhfdc9qdmmmmmmmmmmmmmmmmmmmmmmmmmmmmmmmmmmmmmmmmmmmmmmmmmmmmmmmmmmmmm",
"mmmmmmmmmmmm 41+mmmmmmmmmmmwwi;8::::;cgmmmmmmmmmmmmmmmmmmmmmmmmm          mmmmmmmmmmmmmmmmmmmmmmmmmm",
"mmmmmmmmmmmm33* mmmmmmmmmmm@hl2<<qe05ndmmmmmmmmmmmmmmmmmmmmmmmm           @& mmmmmmmmmmmmmmmmmmmmmmm",
"mmmmmmmmmmm,4, mmmmmmmmmmmmm7gkcnbbnnbommmmmmmmmmmmmmmmmmmmmmm       OOOOOOO+;& mmmmmmmmmmmmmmmmmmmm",
"mmmmmmmmmmO4<Ommmmmmmmmmmmmmm:hjjccjgdmmmmmmmmmmmmmmmmmmmmmmmm      OOOOOOOOOO+:;mmmmmmmmmmmmmmmmmmm",
"mmmmo mmm 31*mmmmmmmmmmmmmmmm .o,uy.  mmmmmmmmmmmmmmmmmmmmmmmm      OOOOOO  OOOO+8%mmmmmmmmmmmmmmmmm",
"mm &X:mmm<3, mmmmmmmmmmmmmmmmmmmOupOmmmmmmmmmmmmmmmmmmmmmmmmmm      OOOOOOO  OOOOO;8 mmmmmmmmmmmmmmm",
"mm 7X8mmd4< mmmmmmmmmmmmmmmmmmm+1apg mmmmmmmmmmmmmmmmmmmmmmmmmm     OOOOOOO   OOOOOO7: mmmmmmmmmmmmm",
"mm:0;7 .51+mmmmmmmmmmmmmmmmmmmm;s3sg&mmmmmmmmmmmmmmmmmmmmmmmmmm     OOOOOOOO   OOOOOO,8 mmmmmmmmmmmm",
"mm@w07&<3, mmmmmmmmmmmmmmmmmm 7dcbnjchfe7 mmmmmmm mmmmmmmmmmmmm      OOOOOOOO   OOOOOOO7Xmmmmmmmmmmm",
"mm7qw0<1, mmmmmmmmmmmmmmmm ;0w8&dhnbfX  $8q8;7q$cbfommmmmmmmmmmm     OOOOOOOO    OOOOOOO:&mmmmmmmmmm",
"mm80f*31Ommmmmmmmmmmmm *;7e: 7qgbbnnbbbcf8;w7$;wjjvbg7 mmmmmmmmmm     OOOOOOOO    OOOOOOO*:mmmmmmmmm",
"mmoe:<1,.mmmmmmmmmmfcg8&o786dbbcbbnnbchhhjcfbgq$&888qgchqommmmmmm                   OOOOOO*6 mmmmmmm",
"mm 011,<mmmmmmmmmm8b7ee:hedhgjhhhjbnnffgggdfgbwmmmmmm .:ehhe: mmmm                   OOOOOOO; mmmmmm",
"mmm;1<;7mmmmmmmmm bd&;ohbqdegfdhcgbnnbbbbwefgwommmmmmmmmm $0gce8&@  o   OO              OOOO+;mmmmmm",
"m =01*: mmmmmmmmmgh:.mm&8dehwwfbnbgdfdhbnbgggcommmmmmmmmmmmmm ;q7. 8q8o$&****$X .&o        OOO$mmmmm",
" rggr&& mmmmmmmmdh:mmmm qghgjffnc7*fd8$qhbbhjj8mmmmmmmmmmmmmmmmm  X:8w7   OOOO**;&$$o$XX     OX.mmmm",
"X-==-:7 mmmmmmmqg:mmmmmmqgdcbhbgdehe0w8&qddjewd mmmmmmmmmmmmmmmmmm  o$$Xo@.X+ooo&;$$oXXX.O   OO@ mmm",
" X@@@o8Xmmmmmm8f7mmmmmmmXfjehbq&0dqjveweqwcwbgw mmmmmmmmmmmmmmmmmmmmmmm      OOOOO+&oo$oXoOOOOOOommm",
"m     7;mmmmm:g8mmmmmmmm 0wcbhfd&8jche+qghffffq$mmmmmmmmmmmmmmmmmmmmmmmm      OOOOO+OoXoXXOOOOOO .mm",
"mmmmmm&0mmmm@c0 mmmmmmmmm77ddfd*;qjcgf7Xqgd<dww.mmmmmmmmmmmmmmmmmmmmmmmmm      OOOOO .XXOOOOOOOOO  m",
"mmmmmmo0.mm cw mmmmmmmmmm@qeq8 X$0fggg0X.ew:$87mmmmmmmmmmmmmmmmmmmmmmmmmmm       OOOO   ++OOOOOOO  m",
"mmmmmm.q:mqbf mmmmmmmmmmmm@;gf$ 7egnnne8  o$w:@mmmmmmmmmmmmmmmmmmmmmmmmmmmmm       OOO   OOOOOOOO  m",
"mmmmmm :wcnh mmmmmmmmmmmmm 7:&0q&0jnnnh&0q:&X: mmmmmmmmmmmmmmmmmmmmmmmmmmmmmm        OO  OOOOOOOO   ",
"mmmmmm&;gnbommmmmmmmmmmmmmm.o  ::whbnnbqqfew0$mmmmmmmmmmmmmmmmmmmmmmmmmmmmmmmmm          OOOOOOO    ",
"mmmmmm &7gfmmmmmmmmmmmmmmmm 0dcddefbnnnf:qd8 mmmmmmmmmmmmmmmmmmmmmmmmmmmmmmmmmmm           OOO      ",
"mmmmmmm&:@ommmmmmmmmmmmmmmmm @@7 8fbnbbj@mmmmmmmmmmmmmmmmmmmmmmmmmmmmmmmmmmmmmmmmm                  ",
"mmmmmmm  mmmmmmmmmmmmmmmmmmmmmmmm;w0o.@eqmmmmmmmmmmmmmmmmmmmmmmmmmmmmmmmmmmmmmmmmmmm                ",
"mmmmmmmmmmmmmmmmmmmmmmmmmmmm%efd:qeqXX:e0:ffe%mmmmmmmmmmmmmmmmmmmmmmmmmmmmmmmmmmmmmmmmm            m",
"mmmmmmmmmmmmmmmmmmmmmmmmmmmdvcjjh7*qqqw:0gjvjbdmmmmmmmmmmmmmmmmmmmmmmmmmmmmmmmmmmmmmmmmmmm        mm",
"mmmmmmmmmmmmmmmmmmmmmmmmmm0bjhhgdqdfddfw;fghhcn8mmmmmmmmmmmmmmmmmmmmmmmmmmmmmmmmmmmmmmmmmmmmmmmmmmmm",
"mmmmmmmmmmmmmmmmmmmmmmmmmmbbbhhjhbhwq0wjvhjhjhbcmmmmmmmmmmmmmmmmmmmmmmmmmmmmmmmmmmmmmmmmmmmmmmmmmmmm",
"mmmmmmmmmmmmmmmmmmmmmmmmmmbbbjcchbg$**$fbhccjhbbmmmmmmmmmmmmmmmmmmmmmmmmmmmmmmmmmmmmmmmmmmmmmmmmmmmm",
"mmmmmmmmmmmmmmmmmmmmmmmmmmcchcvxhf0::::0fgxvchbcmmmmmmmmmmmmmmmmmmmmmmmmmmmmmmmmmmmmmmmmmmmmmmmmmmmm",
"mmmmmmmmmmmmmmmmmmmmmmmmmm;fgcvxh$&&*&&&*hxxchd;mmmmmmmmmmmmmmmmmmmmmmmmmmmmmmmmmmmmmmmmmmmmmmmmmmmm",
"mmmmmmmmmmmmmmmmmmmmmmmmmmm fccxh  oooo  hbvcf mmmmmmmmmmmmmmmmmmmmmmmmmmmmmmmmmmmmmmmmmmmmmmmmmmmmm",
"mmmmmmmmmmmmmmmmmmmmmmmmmmmm$dcnv$m X  m$cnvf$mmmmmmmmmmmmmmmmmmmmmmmmmmmmmmmmmmmmmmmmmmmmmmmmmmmmmm",
"mmmmmmmmmmmmmmmmmmmmmmmmmmmm fjnne&m$$m*wnxh:mmmmmmmmmmmmmmmmmmmmmmmmmmmmmmmmmmmmmmmmmmmmmmmmmmmmmmm",
"mmmmmmmmmmmmmmmmmmmmmmmmm &8bnnbvb;mmmm&bvgnbd mmmmmmmmmmmmmmmmmmmmmmmmmmmmmmmmmmmmmmmmmmmmmmmmmmmmm",
"mmmmmmmmmmmmmmmmmmmmmmmm$jnnnnjq7gc8$;8hg77dhcce8mmmmmmmmmmmmmmmmmmmmmmmmmmmmmmmmmmmmmmmmmmmmmmmmmmm",
"mmmmmmmmmmmmmmmmmmmmmmmmebnnng@  ;de:qdw;  &fcxvv mmmmmmmmmmmmmmmmmmmmmmmmmmmmmmmmmmmmmmmmmmmmmmmmmm",
"mmmmmmmmmmmmmmmmmmmmmmmm@bnnnommmoq:$@:qomm dcvcf mmmmmmmmmmmmmmmmmmmmmmmmmmmmmmmmmmmmmmmmmmmmmmmmmm",
"mmmmmmmmmmmmmmmmmmmmmmmmmdnnb mmmm.X  o. mmm8vxh;mmmmmmmmmmmmmmmmmmmmmmmmmmmmmmmmmmmmmmmmmmmmmmmmmmm",
"mmmmmmmmmmmmmmmmmmmmmmmmm:nn8mmmmmmmmmmmmmmm:bbe mmmmmmmmmmmmmmmmmmmmmmmmmmmmmmmmmmmmmmmmmmmmmmmmmmm",
"mmmmmmmmmmmmmmmmmmmmmmmmm.nn:mmmmmmmmmmmmmmm;bv7mmmmmmmmmmmmmmmmmmmmmmmmmmmmmmmmmmmmmmmmmmmmmmmmmmmm",
"mmmmmmmmmmmmmmmmmmmmmmmmm nn;mmmmmmmmmmmmmmm bvommmmmmmmmmmmmmmmmmmmmmmmmmmmmmmmmmmmmmmmmmmmmmmmmmmm",
"mmmmmmmmmmmmmmmmmmmmmmmmmmbn6mmmmmmmmmmmmmmm&nh mmmmmmmmmmmmmmmmmmmmmmmmmmmmmmmmmmmmmmmmmmmmmmmmmmmm",
"mmmmmmmmmmmmmmmmmmmmmmmmmmcnqmmmmmmmmmmmmmmm7ndmmmmmmmmmmmmmmmmmmmmmmmmmmmmmmmmmmmmmmmmmmmmmmmmmmmmm",
"mmmmmmmmmmmmmmmmmmmmmmmmm bnfmmmmmmmmmmmmmmmenwmmmmmmmmmmmmmmmmmmmmmmmmmmmmmmmmmmmmmmmmmmmmmmmmmmmmm",
"mmmmmmmmmmmmmmmmmmmmmmmmm nnhmmmmmmmmmmmmmmmfn8mmmmmmmmmmmmmmmmmmmmmmmmmmmmmmmmmmmmmmmmmmmmmmmmmmmmm",
"mmmmmmmmmmmmmmmmmmmmmmmmm&nnbmmmmmmmmmmmmmmmjb&mmmmmmmmmmmmmmmmmmmmmmmmmmmmmmmmmmmmmmmmmmmmmmmmmmmmm",
"mmmmmmmmmmmmmmmmmmmmmmmmmqnnn;mmmmmmmmmmmmmmbb mmmmmmmmmmmmmmmmmmmmmmmmmmmmmmmmmmmmmmmmmmmmmmmmmmmmm",
"mmmmmmmmmmmmmmmmmmmmmmmm bnnnc mmmmmmmmmmmm%nc mmmmmmmmmmmmmmmmmmmmmmmmmmmmmmmmmmmmmmmmmmmmmmmmmmmmm",
"mmmmmmmmmmmmmmmmmmmmmmmm0nnbbnc mmmmmmmmmmm0nhmmmmmmmmmmmmmmmmmmmmmmmmmmmmmmmmmmmmmmmmmmmmmmmmmmmmmm",
"mmmmmmmmmmmmmmmmmmmmmmmmqed;qbnqmmmmmmmmmmmdndmmmmmmmmmmmmmmmmmmmmmmmmmmmmmmmmmmmmmmmmmmmmmmmmmmmmmm",
"mmmmmmmmmmmmmmmmmmmmmmmm:jgdfqw$mmmmmmmmmmmcnwmmmmmmmmmmmmmmmmmmmmmmmmmmmmmmmmmmmmmmmmmmmmmmmmmmmmmm",
"mmmmmmmmmmmmmmmmmmmmmmmmf:jcvwommmmmmmmmmmmjnqmmmmmmmmmmmmmmmmmmmmmmmmmmmmmmmmmmmmmmmmmmmmmmmmmmmmmm",
"mmmmmmmmmmmmmmmmmmmmmmmoc0qbnqmmmmmmmmmmmm.vbqmmmmmmmmmmmmmmmmmmmmmmmmmmmmmmmmmmmmmmmmmmmmmmmmmmmmmm",
"mmmmmmmmmmmmmmmmmmmmmmmm:w$bndmmmmmmmmmmmm7xnqmmmmmmmmmmmmmmmmmmmmmmmmmmmmmmmmmmmmmmmmmmmmmmmmmmmmmm",
"mmmmmmmmmmmmmmmmmmmmmmmmogmcnfmmmmmmmmmmmmdbbqmmmmmmmmmmmmmmmmmmmmmmmmmmmmmmmmmmmmmmmmmmmmmmmmmmmmmm",
"mmmmmmmmmmmmmmmmmmmmmmmm j fbgmmmmmmmmmmm$xzbdmmmmmmmmmmmmmmmmmmmmmmmmmmmmmmmmmmmmmmmmmmmmmmmmmmmmmm",
"mmmmmmmmmmmmmmmmmmmmmmmmmfoqbhmmmmmmmmmm@bnnnj mmmmmmmmmmmmmmmmmmmmmmmmmmmmmmmmmmmmmmmmmmmmmmmmmmmmm",
"mmmmmmmmmmmmmmmmmmmmmmmmmq:&bjmmmmmmmmmobnnnzv@mmmmmmmmmmmmmmmmmmmmmmmmmmmmmmmmmmmmmmmmmmmmmmmmmmmmm",
"mmmmmmmmmmmmmmmmmmmmmmmmm;q bbmmmmmmmmmqnbvvjdXmmmmmmmmmmmmmmmmmmmmmmmmmmmmmmmmmmmmmmmmmmmmmmmmmmmmm",
"mmmmmmmmmmmmmmmmmmmmmmmmm.dmcn mmmmmmmm w0jvhq7mmmmmmmmmmmmmmmmmmmmmmmmmmmmmmmmmmmmmmmmmmmmmmmmmmmmm",
"mmmmmmmmmmmmmmmmmmmmmmmmmmfmhnommmmmmmmm :0:;q: mmmmmmmmmmmmmmmmmmmmmmmmmmmmmmmmmmmmmmmmmmmmmmmmmmmm",
"mmmmmmmmmmmmmmmmmmmmmmmmmmf dn7mmmmmmmmmm7:@o$g:mmmmmmmmmmmmmmmmmmmmmmmmmmmmmmmmmmmmmmmmmmmmmmmmmmmm",
"mmmmmmmmmmmmmmmmmmmmmmmmmmw*wnqmmmmmmmmmm;80& q mmmmmmmmmmmmmmmmmmmmmmmmmmmmmmmmmmmmmmmmmmmmmmmmmmmm",
"mmmmmmmmmmmmmmmmmmmmmmmmmm807ndmmmmmmmmmmode&X;mmmmmmmmmmmmmmmmmmmmmmmmmmmmmmmmmmmmmmmmmmmmmmmmmmmmm",
"mmmmmmmmmmmmmmmmmmmmmmmmmm@d&ngmmmmmmmmmm dwo&&mmmmmmmmmmmmmmmmmmmmmmmmmmmmmmmmmmmmmmmmmmmmmmmmmmmmm",
"mmmmmmmmmmmmmmmmmmmmmmmmmmmg.ncmmmmmmmmmm fe ;@mmmmmmmmmmmmmmmmmmmmmmmmmmmmmmmmmmmmmmmmmmmmmmmmmmmmm",
"mmmmmmmmmmmmmmmmmmmmmmmmmmmg nb mmmmmmmmmmfw 7 mmmmmmmmmmmmmmmmmmmmmmmmmmmmmmmmmmmmmmmmmmmmmmmmmmmmm",
"mmmmmmmmmmmmmmmmmmmmmmmmmmmd&bn.mmmmmmmmmmfwm8 mmmmmmmmmmmmmmmmmmmmmmmmmmmmmmmmmmmmmmmmmmmmmmmmmmmmm",
"mmmmmmmmmmmmmmmmmmmmmmmmmmmq0cn:mmmmmmmmmmgqm8 mmmmmmmmmmmmmmmmmmmmmmmmmmmmmmmmmmmmmmmmmmmmmmmmmmmmm",
"mmmmmmmmmmmmmmmmmmmmmmmmmmm7ehn0mmmmmmmmmmhqmqmmmmmmmmmmmmmmmmmmmmmmmmmmmmmmmmmmmmmmmmmmmmmmmmmmmmmm",
"mmmmmmmmmmmmmmmmmmmmmmmmmmm$ggndmmmmmmmmmmjqmwmmmmmmmmmmmmmmmmmmmmmmmmmmmmmmmmmmmmmmmmmmmmmmmmmmmmmm",
"mmmmmmmmmmmmmmmmmmmmmmmmmmm jfnb mmmmmmmm jqmdmmmmmmmmmmmmmmmmmmmmmmmmmmmmmmmmmmmmmmmmmmmmmmmmmmmmmm",
"mmmmmmmmmmmmmmmmmmmmmmmmmmmmjjnbh mmmmmmm c0 dmmmmmmmmmmmmmmmmmmmmmmmmmmmmmmmmmmmmmmmmmmmmmmmmmmmmmm",
"mmmmmmmmmmmmmmmmmmmmmmmmmmmmcq0:d mmmmmmm c0Xwmmmmmmmmmmmmmmmmmmmmmmmmmmmmmmmmmmmmmmmmmmmmmmmmmmmmmm",
"mmmmmmmmmmmmmmmmmmmmmmmmmmmmcccgmmmmmmmmm xq&0mmmmmmmmmmmmmmmmmmmmmmmmmmmmmmmmmmmmmmmmmmmmmmmmmmmmmm",
"mmmmmmmmmmmmmmmmmmmmmmmmmmm cnnb mmmmmmmmXbq7:mmmmmmmmmmmmmmmmmmmmmmmmmmmmmmmmmmmmmmmmmmmmmmmmmmmmmm",
"mmmmmmmmmmmmmmmmmmmmmmmmmmXdbbbbemmmmmmmmobqq&mmmmmmmmmmmmmmmmmmmmmmmmmmmmmmmmmmmmmmmmmmmmmmmmmmmmmm",
"mmmmmmmmmmmmmmmmmmmmmmmm:qfe0&:e mmmmmmmm$bq0$mmmmmmmmmmmmmmmmmmmmmmmmmmmmmmmmmmmmmmmmmmmmmmmmmmmmmm",
"mmmmmmmmmmmmmmmmmmmmmmm;8$o*&;&e mmmmmmmm:b00@mmmmmmmmmmmmmmmmmmmmmmmmmmmmmmmmmmmmmmmmmmmmmmmmmmmmmm",
"mmmmmmmmmmmmmmmmmmmmmmmmmmmmo:;7 mmmmmmmm8b0qommmmmmmmmmmmmmmmmmmmmmmmmmmmmmmmmmmmmmmmmmmmmmmmmmmmmm",
"mmmmmmmmmmmmmmmmmmmmmmmmmmmmm.  mmmmmmmmmhjeqXmmmmmmmmmmmmmmmmmmmmmmmmmmmmmmmmmmmmmmmmmmmmmmmmmmmmmm",
"mmmmmmmmmmmmmmmmmmmmmmmmmmmmmmmmmmmmmmmm7cfde mmmmmmmmmmmmmmmmmmmmmmmmmmmmmmmmmmmmmmmmmmmmmmmmmmmmmm",
"mmmmmmmmmmmmmmmmmmmmmmmmmmmmmmmmmmmmmmmm:;*&dXmmmmmmmmmmmmmmmmmmmmmmmmmmmmmmmmmmmmmmmmmmmmmmmmmmmmmm",
"mmmmmmmmmmmmmmmmmmmmmmmmmmmmmmmmmmmmmmmmmoccc@mmmmmmmmmmmmmmmmmmmmmmmmmmmmmmmmmmmmmmmmmmmmmmmmmmmmmm",
"mmmmmmmmmmmmmmmmmmmmmmmmmmmmmmmmmmmmmmmmm8bbe*mmmmmmmmmmmmmmmmmmmmmmmmmmmmmmmmmmmmmmmmmmmmmmmmmmmmmm",
"mmmmmmmmmmmmmmmmmmmmmmmmmmmmmmmmmmmmmmmmm@ghdemmmmmmmmmmmmmmmmmmmmmmmmmmmmmmmmmmmmmmmmmmmmmmmmmmmmmm",
"mmmmmmmmmmmmmmmmmmmmmmmmmmmmmmmmmmmmmmmm cnbbb8mmmmmmmmmmmmmmmmmmmmmmmmmmmmmmmmmmmmmmmmmmmmmmmmmmmmm",
"mmmmmmmmmmmmmmmmmmmmmmmmmmmmmmmmmmmmmmmmmwnhbbh;mmmmmmmmmmmmmmmmmmmmmmmmmmmmmmmmmmmmmmmmmmmmmmmmmmmm",
"mmmmmmmmmmmmmmmmmmmmmmmmmmmmmmmmmmmmmmmmmonfhhbb mmmmmmmmmmmmmmmmmmmmmmmmmmmmmmmmmmmmmmmmmmmmmmmmmmm",
"mmmmmmmmmmmmmmmmmmmmmmmmmmmmmmmmmmmmmmmmm.hbqjcbb@mmmmmmmmmmmmmmmmmmmmmmmmmmmmmmmmmmmmmmmmmmmmmmmmmm",
"mmmmmmmmmmmmmmmmmmmmmmmmmmmmmmmmmmmmmmmmmm 8 06$6Xmmmmmmmmmmmmmmmmmmmmmmmmmmmmmmmmmmmmmmmmmmmmmmmmmm"
};
