/* XPM */
static char *_0_0[] = {
/* columns rows colors chars-per-pixel */
"97 48 114 2 ",
"   c #131313",
".  c gray9",
"X  c #1B1B1B",
"o  c gray12",
"O  c #23170B",
"+  c #2F1F0F",
"@  c #3B2713",
"#  c #3A3319",
"$  c #232323",
"%  c gray15",
"&  c #282828",
"*  c #282F28",
"=  c #2B2E2D",
"-  c #2C2C2C",
";  c #2C2C2D",
":  c #322D22",
">  c #223322",
",  c #273C27",
"<  c #263328",
"1  c #3D3626",
"2  c #363228",
"3  c #2D3030",
"4  c #2C3031",
"5  c #2F3B3C",
"6  c #303032",
"7  c gray20",
"8  c #323737",
"9  c #35353B",
"0  c #3A3A3A",
"q  c #53200A",
"w  c #662101",
"e  c #6F2200",
"r  c #412921",
"t  c #423629",
"y  c #453F2A",
"u  c #4F3F2B",
"i  c #2D4025",
"p  c #334B23",
"a  c #344D2D",
"s  c #53472C",
"d  c #734323",
"f  c #704628",
"g  c #604C33",
"h  c #416225",
"j  c #4C6C2A",
"k  c #5C7F36",
"l  c #3D3D43",
"z  c #323E49",
"x  c #2D4848",
"c  c #334D66",
"v  c #2D527A",
"b  c #434343",
"n  c #4E4E4E",
"m  c #444450",
"M  c #4B4B55",
"N  c gray34",
"B  c #446343",
"V  c #527456",
"C  c #555560",
"Z  c #5E5E6D",
"A  c #7F4D6A",
"S  c gray39",
"D  c gray43",
"F  c #676774",
"G  c #777777",
"H  c #72727F",
"J  c #B74817",
"K  c #93472F",
"L  c #A34F3B",
"P  c #CD6B23",
"I  c #AF5743",
"U  c #AD7F4E",
"Y  c #8F5477",
"T  c #5D825E",
"R  c #6D9242",
"E  c #6B906D",
"W  c #7B9C76",
"Q  c #82A24D",
"!  c #9FB765",
"~  c #FFAF53",
"^  c #C18564",
"/  c #B9CD7F",
"(  c #37619A",
")  c #7A7A89",
"_  c #AF6F90",
"`  c #BC7F9E",
"'  c #468787",
"]  c #4D8E8E",
"[  c #848484",
"{  c #878795",
"}  c #939393",
"|  c #91919F",
" . c #94B08D",
".. c #A2A2A2",
"X. c #A5A5AE",
"o. c #AEAEAE",
"O. c #B9B9B9",
"+. c #D5AE80",
"@. c #E3B490",
"#. c #CC92AA",
"$. c #AFC8A8",
"%. c #E5C196",
"&. c #F4CAA7",
"*. c #F5D4AC",
"=. c #D8E3A2",
"-. c #FEEBAA",
";. c #FEF5B9",
":. c #E8BCC8",
">. c #C5C5C5",
",. c #CADDC4",
"<. c gainsboro",
"1. c #FEFFC7",
"2. c #CDCDE0",
"3. c None",
/* pixels */
"3.3.3.3.3.3.3.3.3.3.3.3.3.3.3.3.3.3.3.3.3.3.3.3.3.3.3.3.3.3.3.3.3.3.3.3.3.3.3.3.3.3.3.3.3.3.3.3.3.3.3.3.3.3.3.2 N D [ [ [ S . 3.3.3.3.3.3.3.3.3.3.3.3.3.3.3.3.3.3.3.3.3.3.3.3.3.3.3.3.3.3.3.3.3.3.",
"3.3.3.3.3.3.3.3.3.3.3.3.3.3.3.3.3.3.3.3.3.3.3.3.3.3.3.3.3.3.3.3.3.3.3.3.3.3.3.3.3.3.3.3.3.3.3.3.3.3.3.3.3.3.3.3.3.3.  O r N ` 1 3.3.3.3.3.3.3.3.3.3.3.3.3.3.3.3.3.3.3.3.3.3.3.3.3.3.3.3.3.3.3.3.3.",
"3.3.3.3.3.3.3.3.3.3.3.3.3.3.3.3.3.3.3.3.3.3.3.3.3.3.3.3.3.3.3.3.3.3.3.3.3.3.3.3.3.3.3.3.3.3.3.3.3.3.3.3.3.3.3.3.3.3.3.3.@ q 1 D   3.3.3.3.3.3.3.3.3.3.3.3.3.3.3.3.3.3.3.3.3.3.3.3.3.3.3.3.3.3.3.3.",
"3.3.3.3.3.3.3.3.3.3.3.3.3.3.3.3.3.3.3.3.3.3.3.3.3.3.3.3.3.3.3.3.3.3.3.3.3.3.3.3.3.3.3.3.3.3.3.3.3.3.3.3.3.3.3...H b $   K d + y $ 3.3.3.3.3.3.3.3.3.3.3.3.3.3.3.3.3.3.3.3.3.3.3.3.3.3.3.3.3.3.3.3.",
"3.3.3.3.3.3.3.3.3.3.3.3.3.3.3.3.3.3.3.3.3.3.3.3.3.3.3.3.3.3.3.3.3.3.3.3.3.3.3.3.3.3.3.3.3.3.3.3.3.3.3.3.3.3.3.3.3.3.C } P d + $ o 3.3.3.3.3.3.3.3.3.3.3.3.3.3.3.3.3.3.3.3.3.3.3.3.3.3.3.3.3.3.3.3.",
"3.3.3.3.3.3.3.3.3.3.3.3.3.3.3.3.3.3.3.3.3.3.3.3.3.3.3.3.3.3.3.3.3.3.3.3.3.3.$ X b n   3.3.3.3.3.3.3.3.3.;.;.;.H M o . @.P w + $   3.3.3.3.3.3.3.3.3.3.3.3.3.3.3.3.3.3.3.3.3.3.3.3.3.3.3.3.3.3.3.3.",
"3.3.3.3.3.3.3.3.3.3.3.3.3.3.3.3.3.3.3.3.3.3.3.3.3.3.3.3.3.3.3.3.3.3.3.3.3.3.$ y u + 3.3.3.3.3.3.3.3.;.;.;.X.o.[ S $ . ^ L q + o 3.3.3.X o 3.3.3.3.3.3.3.3.3.3.3.3.3.3.3.3.3.3.3.3.3.3.3.3.3.3.3.3.",
"3.3.3.3.3.3.3.3.3.3.3.3.3.3.3.3.3.3.3.3.3.3.3.3.3.3.3.3.3.3.3.3.3.3.3.3.3.3.  : e ^ G   3.3.3.3.3.;.;.;.;.;.2.>.2.S 4 7 r + o   3.3.3.; ..o . . . 3.3.3.3.3.3.3.3.3.3.3.3.3.3.3.3.3.3.3.3.3.3.3.3.",
"3.3.3.3.3.3.3.3.3.3.3.3.3.3.3.3.3.3.3.3.3.3.3.3.3.3.3.3.3.3.3.3.3.3.3.3.3.3.3.. e J @.*.D   3.3.3.3.% 0 ;.>.;.0 H [ m X X o   3.3.3.X $ $.; . . . . ; $     3.3.3.3.3.3.3.3.3.3.3.3.3.3.3.3.3.3.3.",
"3.3.3.3.3.3.3.3.3.3.3.3.3.3.3.3.3.3.3.3.3.3.3.3.3.3.3.3.3.3.3.3.3.3.3.3.3.3.3.3.@ e I ~ &.<.} l   : n : N 1.h > 0 n $ $ $     . .   $ 5 = = . . . . . ; . .   .     3.3.3.3.3.3.3.3.3.3.3.3.3.3.3.",
"3.3.3.3.3.3.3.3.3.3.3.3.3.3.3.3.3.3.3.3.3.3.3.3.3.3.3.3.3.3.3.3.3.3.3.3.3.3.3.3.0 . . . . &.1.1.X.  f 2.<.;.k 0 % $ X X X X X $ = ; S = = = . m m G *.*.N ; .     $ $   3.3.3.3.3.3.3.3.3.3.3.3.3.",
"3.3.3.3.3.3.3.3.3.3.3.3.3.3.3.3.3.3.3.3.3.3.3.3.3.3.3.3.3.3.3.3.3.3.3.3.3.3.3.3.3.3.    . . @.>.<.1.>.F C | , $ . $ $ 4 ; 4 4 G } 1.1.= =   m C : *.-.*.G l .     3.3.3.3.3.3.3.3.3.3.3.3.3.3.3.3.",
"3.3.3.3.3.3.3.3.3.3.3.3.3.3.3.3.3.3.3.3.3.3.3.3.3.3.3.3.3.3.3.3.3.3.3.3.3.3.3.3.3.3.    . . . c c M M 9 . ; 0 9 - 4 4 . o 0 G } } G = = = o O.$ ,.;.-.-.+.  o     o 3.3.3.3.3.3.3.3.3.3.3.3.3.3.3.",
"3.3.3.3.3.3.3.3.3.3.3.3.3.3.3.3.3.3.3.3.3.3.3.3.S 2.<.<.2.} } S G n b 3.3.3.3.3.3.3.3.    O.O.O.c M M M o 1.1.$.S N b N D o 0 b G $.= = % ) o <.1.;.;.-.%.2           % 3.3.3.3.3.3.3.3.3.3.3.3.3.",
"3.3.3.3.3.3.3.3.3.3.3.3.3.3.3.3.3.3.3.3.3.3.. . . . o o o % % 4 4 o o o o . . . 3.3.3.D S o.D D } $ M M 1.. . . . . . 7 N N   b } = = = ;.;.S 1.*.@.%./ [ y 3.3.3.3.3.  3.3.3.3.3.3.3.3.3.3.3.3.3.",
"3.3.3.3.3.3.3.3.3.3.3.3.3.3.3.3.3.3.O.<.1.3.. . . . . . . . . . . . . . . . . . . . . . o.o.D W $.1.<.3.3.! R h V h ; . . . o.b 1.= = 5 ;.) . D n $.&.+.G G   3.3.3.3.3.3.3.3.3.3.3.3.3.3.3.3.3.3.",
"3.3.3.3.3.3.3.3.3.3.3.3.3.3.3.3.3.3.[ ..1.1.1.1.1.1.                          .   1.1.=.G M D B T $.3.3.1./ Q V p X b 7 4 . . 1.D = = o ;.F b   s n y y $.n   3.3.3.3.3.3.3.3.3.3.3.3.3.3.3.3.3.3.",
"3.3.3.3.3.3.3.3.3.3.3.3.3.3.Z { C C l l D ; N N N N 0 b b b b b b b N N N 1.. . 1.1.M . . . . N W $.3.1.1.. . . . . . . 7 l . $.= = 5 3 ;.H 9 % s 1 X s s } N 3.3.3.3.3.3.3.3.3.3.3.3.3.3.3.3.3.3.",
"3.3.3.3.3.3.3.3.3.3.3.3.3.H X.{ C l 4 4 $ l $ % 0 7 % . % & l l l . . . . 1.M 1.O.. . .  .N b N E  .1.1.. . =.Q j h h . . . { S = = x ;.H l 9 ;.2 ;.M s   N   3.3.3.3.3.3.3.3.3.3.3.3.3.3.3.3.3.3.",
"3.3.3.3.3.3.3.3.3.3.3.3.C X.X.{ C l $ X X $ 3.. . . . . . . . M M . . . 3.1.M 1.. . $.. . . . . . . 1.1.1.1.1.D . . 3.S . . 1.; ; x | ;.Z 9 . ;.X ;.D 2 X y 3.3.3.3.3.3.3.3.3.3.3.3.3.3.3.3.3.3.3.",
"3.3.3.3.3.3.3.3.3.3.3.3.C H >.{ C l $   X X 3.3.. . . . . . . M M 1.. 3.3.3.M 1.. $.. . M M D N D  .1...[ . . . M N . . G . 0 ; ; x O.;.9   . ;.  ;.;.o : g 3.3.3.3.3.3.3.3.3.3.3.3.3.3.3.3.3.3.3.",
"3.3.3.3.3.3.3.3.3.3.3.3.C C >.X.C 4 X     3.3.3.3.3.3.3.3.3.3.3.M 3.3.3.3.3.3.3.. . . M M . . . S G 1.[ [ . M M M l n . 3.% = ; 4 O.;.b     . ;.  ;. .  2 g 1.} } 3.3.3.3.3.3.3.3.3.3.3.3.3.3.3.3.",
"3.3.3.3.3.3.3.3.3.3.3.3.3.C >.X.C 4       3.3.3.3.3.3.3.3.3.3.3.3.3.3.3.3.;.;.;.<.O.O.. . . . . . ,...[ . . . . . . . . o % = = 4 <.;.8   . . ;.;.;. .  g y ..;.} D N 3.3.3.3.3.3.3.3.3.3.3.3.3.3.",
"3.3.3.;.3.3.;.3.3.3.O.O.;.3.>.$         X 3.3.3.3.3.3.3.3.3.3.3.3.3.3.n ;.;...} [ ..| . . . 3.3.S G o .     . . 1.1.{ n % % = = 0 ;.b     . 3.3.;.;. .3.N 2 G ;.S 7 0 3.3.N b 3.3.3.3.3.3.3.3.3.3.",
"3.3.3.;.3.3.;.;.3.3.3.3.D } O..         3.3.3.3.3.3.3.3.3.3.3.3.  n [ / ;.$.[ G G } ... . } . 1.$.$.. $.T a T 1.1.1.=.. % % ; ; 4 ;.;   . . 3.3.;.;.} 3.S o 3.3.n o 3.3.;.} 7 b b 3.3.3.3.3.3.3.3.",
"3.3.3.3.;.O.3.N N 3.3.3.3.N b O.;.;.    3.3.3.3.3.3.3.3.3.3.3.  >.Q h   ;.} [ D N D } } . N 1.O.Z $.1.$.6     1.<.1.o.. o o % . ;.;.; . 3.3.3.3.;.;.} 3.G   3.3.3.3.3.;.;.;.N H & N b 3.3.3.3.3.3.",
"3.3.3.3.3.D D } N b N b D 7 b D ;.O.  3.3.3.3.3.3.3.3.3.3.3.3.o./ Q 0 o 1.;...G D N S [ . . . .   S 1.S       <.1.1.<.. . o . ;.;.8 9 . 3.3.3.3.' ;...3.[ 3.3.3.3.3.3.3.D N b N O.C D b 7 N D 3.3.",
";.;.3.;.;.O.3.N b O.;.;.b b ;.;.3.O.  . 3.3.3.3.3.3.3.3.3.  G 1.Q U   3.>.1.>...[ S N n } . . .   S n S     . 1.1.$.. . . . . ;.m ; . . 3.3.3.3.  ;. .3.} 3.3.3.3.3.3.3.} ;.N N 3.;.N 3.3.;.;.3.;.",
"3.3.3.3.3.3.D N N D } } O.D ;.3.3.< > 3.3.3.3.3.3.3.3.3.n <.1...,.2 3.3.G 1.1.<.} G N 0 D . . . .           . 1.$.[ . . . o.F ;.; ; . . 3.3.3.3.  ;.}   } 3.3.3.3.3.3.3.;.3.3.N N 3.;.N 3.3.;.3.;.",
"3.3.3.;.;.} ;.;.} } ;.;.N 7 D } 3.4 3.3.3.3.3.3.3.3.  ..1.,.N .   3.3.3.. s . 1.Z [ N l n S O.) v . . . . . <.1.S D . . m C C 9 m 9 . . 3.3.3.3.  ;.[ X G 3.3.3.3.3.3.3.3.3.3.3.;.3.3.3.N 3.3.;.3.",
"3.3.3.3.3.3.3.3.3.3.3.3.3.3.3.3.3.3.3.3.3.3.3.3.3.7 <.1.}   3.3.3.3.3.3.. o.. O.Z D N N n S ..O.) v 3.3.3.] X.n } M X . m 9 4 l F ; 9 3.3.3.3.3.  *._ : S 3.3.3.3.3.3.3.;.} 3.3.;.} 3.3.;.N 3.3.3.",
"3.3.3.3.3.3.3.3.3.3.3.3.3.3.3.3.3.3.3.3.3.3.3.3.H 1.<.N   3.3.3.3.3.3.. . [ . <.Z M M 0 0 b N S [ ) v 3.( ) 4 S D 0 2.4 ; 7 M F C 9 9 3.3.3.3.3.X *.G s n 3.3.3.3.3.3.3.;.} 3.3.3.;.} 3.3.;.3.3.3.",
"3.3.3.3.3.3.3.3.3.3.3.3.3.3.3.3.3.3.3.3.3.3.  o.1.,.1 3.3.3.3.3.3.3.3.. . D . . Z M l 9 % $ 7 b n [ M ) <.0 M S N N [ 4 [ 9 3.c F 3.7 3.3.3.3.3.o *.[ N s 3.3.3.3.3.3.3.3.3.3.3.3.3.3.3.3.3.3.3.3.",
"3.3.3.3.3.3.3.3.3.3.3.3.3.3.3.3.3.3.3.3.3.0 <.1...X 3.3.3.3.3.3.3.3.. n } 3.3.  [ n l 7 & $ $ ; n S S ) N b n Z 4 m X 0 [ 3.3.3.3.3.3.3.3.3.3.3.: *.} n y 3.3.3.3.3.3.3.3.D ;.3.3.3.3.3.3.3.3.3.3.",
"3.3.3.3.3.3.3.3.3.3.3.3.3.3.3.3.3.3.3.3.F <.<.[   3.3.3.3.3.3.3.3.3.7 > 3.3.3.3.[ n m n l 0 [ [ 3.3.3.[ [ S n 0 0 0 0 [ S 3.3.3.3.3.3.3.3.3.3.3.t *.} n y 3.3.3.3.3.3.3.3.3.3.3.3.3.3.3.3.3.3.3.3.",
"3.3.3.3.3.3.3.3.3.3.3.3.3.3.3.3.3.3.  ..1.<.[   3.3.3.3.3.3.3.3.3.3.3.3.3.3.3.3.3.3.[ [ [ 3.3.3.3.3.3.3.3.3.3.[ [ [ [ 3.3.3.3.3.3.3.3.3.3.3.3.3.n *.} N t 3.3.3.3.3.3.3.3.3.3.3.3.3.3.3.3.3.3.3.3.",
"3.3.3.3.3.3.3.3.3.3.3.3.3.3.3.3.3.; <.1.<.G   3.3.3.3.3.3.3.3.3.3.3.3.3.3.3.3.3.3.3.3.3.3.3.3.3.3.3.3.3.3.3.3.3.3.3.3.3.3.3.3.3.3.3.3.3.3.3.3.3.o.%.+.S 2 3.3.3.3.3.3.3.3.3.3.3.3.3.3.3.3.3.3.3.3.",
"3.3.3.3.3.3.3.3.3.3.3.3.3.3.3.  H <.1.<.G   3.3.3.3.S ;.;.#.%.;.} ..O.,.1.o 3.3.3.3.3.3.3.3.3.[ <.o.G 3.  G   3.3.3.3.3.3.3.3.3.3.3.3.3.3.3.3.0 $.} +.G 2 3.3.3.3.3.3.3.3.3.3.3.3.3.3.3.3.3.3.3.3.",
"3.3.3.3.3.3.3.3.3.3.3.3.3.  [ <.1.1.1.1.X 3.3.3.3.2 ;.=.` Y A S n ` ` _ Y ;.;.;.;.;.;.;.;.;.;./ .. .y ..<.,.      3.3.3.3.3.3.3.3.3.3.3.3.3.3.y 2 : 2 [ t 3.3.3.3.3.3.3.3.3.3.3.3.3.3.3.3.3.3.3.3.",
"3.3.3.3.3.3.3.3.3.3.3.3.3.N [ t <.1.1.1.t 3.3.3.3.G ` o.n ; $ $ X X X o $ X $ $ $ .   $ i i n [ ;.;.n >.1.<.G G s   3.3.3.3.3.3.3.3.3.3.3.3.3.3.X >.>.<.n 3.3.3.3.3.3.3.3.3.3.3.3.3.3.3.3.3.3.3.3.",
"3.3.3.3.3.3.3.3.3.3.3.3.3.3.N n D ..:.@.u 3.3.3.3.G $.y n S S N N 7 & z c C N n b m C D G G G } ;.;.o.>.1.<.y 2 2   3.3.3.3.3.3.3.3.3.3.3.3.3.3.n <.<.} y 3.3.3.3.3.3.3.3.3.3.3.3.3.3.3.3.3.3.3.3.",
"3.3.3.3.3.3.3.3.3.3.3.3.3.3.D 1./ N g g . 3.3.3.3.3.y 0 i & & # ; 0 $ * 5 z 0 3.3.3.3.G N b b $ 3.;.>.,.,.<.: 2 y . 3.3.3.3.3.3.3.3.3.3.3.3.3.3.$ ..o.[ G 3.3.3.3.3.3.3.3.3.3.3.3.3.3.3.3.3.3.3.3.",
"3.3.3.3.3.3.3.3.3.3.3.3.3.3.S 1.&.3.3.. 3.3.3.3.3.3.3.3.3.3.3.3.3.3.3.3.3.3.3.3.3.3.3.3.3.3.3.3.3.3.3.3.  [ N 2 X 3.3.3.3.3.3.3.3.3.3.3.3.3.3.  ,.1.<.<.<.n 3.3.3.3.3.3.3.3.3.3.3.3.3.3.3.3.3.3.3.",
"3.3.3.3.3.3.3.3.3.3.3.3.3.3.3.3.3.3.3.3.3.3.3.3.3.3.3.3.3.3.3.3.3.3.3.3.3.3.3.3.3.3.3.3.3.3.3.3.3.3.3.3.3.X D : 3.3.3.3.3.3.3.3.3.3.3.3.3.3.3.3.D 1.O.<.<.o.7 3.3.3.3.3.3.3.3.3.3.3.3.3.3.3.3.3.3.",
"3.3.3.3.3.3.3.3.3.3.3.3.3.3.3.3.3.3.3.3.3.3.3.3.3.3.3.3.3.3.3.3.3.3.3.3.3.3.3.3.3.3.3.3.3.3.3.3.3.3.3.3.3.[ o 3.3.3.3.3.3.3.3.3.3.3.3.3.3.3.3.3.X 1.} o.o.<.<.. 3.3.3.3.3.3.3.3.3.3.3.3.3.3.3.3.3.",
"3.3.3.3.3.3.3.3.3.3.3.3.3.3.3.3.3.3.3.3.3.3.3.3.3.3.3.3.3.3.3.3.3.3.3.3.3.3.3.3.3.3.3.3.3.3.3.3.3.3.3.3.3.N $ 3.3.3.3.3.3.3.3.3.3.3.3.3.3.3.3.3.. O.<.N O.>.<.<.$ 3.3.3.3.3.3.3.3.3.3.3.3.3.3.3.3.",
"3.3.3.3.3.3.3.3.3.3.3.3.3.3.3.3.3.3.3.3.3.3.3.3.3.3.3.3.3.3.3.3.3.3.3.3.3.3.3.3.3.3.3.3.3.3.3.3.3.3.3.3.3.0 s 3.3.3.3.3.3.3.3.3.3.3.3.3.3.3.3.3.3.  n   N 0 & 0 X 3.3.3.3.3.3.3.3.3.3.3.3.3.3.3.3.",
"3.3.3.3.3.3.3.3.3.3.3.3.3.3.3.3.3.3.3.3.3.3.3.3.3.3.3.3.3.3.3.3.3.3.3.3.3.3.3.3.3.3.3.3.3.3.3.3.3.3.3.3.3.3.t 3.3.3.3.3.3.3.3.3.3.3.3.3.3.3.3.3.3.3.3.3.3.3.3.3.3.3.3.3.3.3.3.3.3.3.3.3.3.3.3.3.3."
};
