/* XPM */
static char *default_east[] = {
/* columns rows colors chars-per-pixel */
"100 100 2 1 ",
"  c black",
". c #22B14C",
/* pixels */
"....................................................................................................",
"....................................................................................................",
"....................................................................................................",
"....................................................................................................",
"....................................................................................................",
"....................................................................................................",
"....................................................................................................",
"....................................................................................................",
"....................................................................................................",
"....................................................................................................",
"....................................................................................................",
"....................................................................................................",
"....................................................................................................",
"....................................................................................................",
"....................................................................................................",
"....................................................................................................",
"....................................................................................................",
"....................................................................................................",
"....................................................................................................",
"....................................................................................................",
"....................................................................................................",
"....................................................................................................",
"....................................................................................................",
"....................................................................................................",
"....................................................................................................",
"....................................................................................................",
"....................................................................................................",
"....................................................................................................",
"....................................................................................................",
"....................................................................................................",
"....................................................................................................",
"....................................................................................................",
"....................................................................................................",
"....................................................................................................",
".......                  ........         .............              ....                      .....",
".......                  ........         .............              ....                      .....",
".......                  ........         .............              ....                      .....",
".......                  ........         .............              ....                      .....",
".......                  ........         .............              ....                      .....",
".......    ..................    .........     ....    ...........................    ..............",
".......    ..................    .........     ....    ...........................    ..............",
".......    ..................    .........     ....    ...........................    ..............",
".......    ..................    .........     ....    ...........................    ..............",
".......    ..................    .........     ....    ...........................    ..............",
".......             .........                  ........         ..................    ..............",
".......             .........                  ........         ..................    ..............",
".......             .........                  ........         ..................    ..............",
".......             .........                  ........         ..................    ..............",
".......             .........                  ........         ..................    ..............",
".......    ..................    .........     .................     .............    ..............",
".......    ..................    .........     .................     .............    ..............",
".......    ..................    .........     .................     .............    ..............",
".......    ..................    .........     .................     .............    ..............",
".......    ..................    .........     .................     .............    ..............",
".......                  ....    .........     ....             ..................    ..............",
".......                  ....    .........     ....             ..................    ..............",
".......                  ....    .........     ....             ..................    ..............",
".......                  ....    .........     ....             ..................    ..............",
".......                  ....    .........     ....             ..................    ..............",
"....................................................................................................",
"....................................................................................................",
"....................................................................................................",
"....................................................................................................",
"....................................................................................................",
"....................................................................................................",
"....................................................................................................",
"....................................................................................................",
"....................................................................................................",
"....................................................................................................",
"....................................................................................................",
"....................................................................................................",
"....................................................................................................",
"....................................................................................................",
"....................................................................................................",
"....................................................................................................",
"....................................................................................................",
"....................................................................................................",
"....................................................................................................",
"....................................................................................................",
"....................................................................................................",
"....................................................................................................",
"....................................................................................................",
"....................................................................................................",
"....................................................................................................",
"....................................................................................................",
"....................................................................................................",
"....................................................................................................",
"....................................................................................................",
"....................................................................................................",
"....................................................................................................",
"....................................................................................................",
"....................................................................................................",
"....................................................................................................",
"....................................................................................................",
"....................................................................................................",
"....................................................................................................",
"....................................................................................................",
"....................................................................................................",
"....................................................................................................",
"...................................................................................................."
};
