/* XPM */
static char *default_south[] = {
/* columns rows colors chars-per-pixel */
"100 100 2 1 ",
"  c black",
". c #990030",
/* pixels */
"....................................................................................................",
"....................................................................................................",
"....................................................................................................",
"....................................................................................................",
"....................................................................................................",
"....................................................................................................",
"....................................................................................................",
"....................................................................................................",
"....................................................................................................",
"....................................................................................................",
"....................................................................................................",
"....................................................................................................",
"....................................................................................................",
"....................................................................................................",
"....................................................................................................",
"....................................................................................................",
"....................................................................................................",
"....................................................................................................",
"....................................................................................................",
"....................................................................................................",
"....................................................................................................",
"....................................................................................................",
"....................................................................................................",
"....................................................................................................",
"....................................................................................................",
"....................................................................................................",
"....................................................................................................",
"....................................................................................................",
"....................................................................................................",
"....................................................................................................",
"....................................................................................................",
"....................................................................................................",
"....................................................................................................",
"....................................................................................................",
"....................................................................................................",
"..........          .......       .......    .......   ....                 ....   .......    ......",
"..........          .......       .......    .......   ....                 ....   .......    ......",
"..........          .......       .......    .......   ....                 ....   .......    ......",
"..........          .......       .......    .......   ....                 ....   .......    ......",
"..........          .......       .......    .......   ....                 ....   .......    ......",
"......    ..............   .......    ...    .......   ...........   ...........   .......    ......",
"......    ..............   .......    ...    .......   ...........   ...........   .......    ......",
"......    ..............   .......    ...    .......   ...........   ...........   .......    ......",
"......    ..............   .......    ...    .......   ...........   ...........   .......    ......",
"......    ..............   .......    ...    .......   ...........   ...........   .......    ......",
"......    ..............   .......    ...    .......   ...........   ...........   .......    ......",
"..........       .......   .......    ...    .......   ...........   ...........              ......",
"..........       .......   .......    ...    .......   ...........   ...........              ......",
"..........       .......   .......    ...    .......   ...........   ...........              ......",
"..........       .......   .......    ...    .......   ...........   ...........              ......",
"..........       .......   .......    ...    .......   ...........   ...........              ......",
".................   ....   .......    ...    .......   ...........   ...........   .......    ......",
".................   ....   .......    ...    .......   ...........   ...........   .......    ......",
".................   ....   .......    ...    .......   ...........   ...........   .......    ......",
".................   ....   .......    ...    .......   ...........   ...........   .......    ......",
".................   ....   .......    ...    .......   ...........   ...........   .......    ......",
".................   ....   .......    ...    .......   ...........   ...........   .......    ......",
"......           ..........       ...........       ..............   ...........   .......    ......",
"......           ..........       ...........       ..............   ...........   .......    ......",
"......           ..........       ...........       ..............   ...........   .......    ......",
"......           ..........       ...........       ..............   ...........   .......    ......",
"......           ..........       ...........       ..............   ...........   .......    ......",
"....................................................................................................",
"....................................................................................................",
"....................................................................................................",
"....................................................................................................",
"....................................................................................................",
"....................................................................................................",
"....................................................................................................",
"....................................................................................................",
"....................................................................................................",
"....................................................................................................",
"....................................................................................................",
"....................................................................................................",
"....................................................................................................",
"....................................................................................................",
"....................................................................................................",
"....................................................................................................",
"....................................................................................................",
"....................................................................................................",
"....................................................................................................",
"....................................................................................................",
"....................................................................................................",
"....................................................................................................",
"....................................................................................................",
"....................................................................................................",
"....................................................................................................",
"....................................................................................................",
"....................................................................................................",
"....................................................................................................",
"....................................................................................................",
"....................................................................................................",
"....................................................................................................",
"....................................................................................................",
"....................................................................................................",
"....................................................................................................",
"....................................................................................................",
"....................................................................................................",
"....................................................................................................",
"...................................................................................................."
};
