/* XPM */
static char *default_west[] = {
/* columns rows colors chars-per-pixel */
"100 100 2 1 ",
"  c black",
". c #6F3198",
/* pixels */
"....................................................................................................",
"....................................................................................................",
"....................................................................................................",
"....................................................................................................",
"....................................................................................................",
"....................................................................................................",
"....................................................................................................",
"....................................................................................................",
"....................................................................................................",
"....................................................................................................",
"....................................................................................................",
"....................................................................................................",
"....................................................................................................",
"....................................................................................................",
"....................................................................................................",
"....................................................................................................",
"....................................................................................................",
"....................................................................................................",
"....................................................................................................",
"....................................................................................................",
"....................................................................................................",
"....................................................................................................",
"....................................................................................................",
"....................................................................................................",
"....................................................................................................",
"....................................................................................................",
"....................................................................................................",
"....................................................................................................",
"....................................................................................................",
"....................................................................................................",
"....................................................................................................",
"....................................................................................................",
"....................................................................................................",
"....................................................................................................",
".....    .............     ....                 .........             ....                      ....",
".....    .............     ....                 .........             ....                      ....",
".....    .............     ....                 .........             ....                      ....",
".....    .............     ....                 .........             ....                      ....",
".....    .............     ....                 .........             ....                      ....",
".....    .............     ....    ..................    ..........................    .............",
".....    .............     ....    ..................    ..........................    .............",
".....    .............     ....    ..................    ..........................    .............",
".....    .............     ....    ..................    ..........................    .............",
".....    .............     ....    ..................    ..........................    .............",
".....    .....    ....     ....             .............         .................    .............",
".....    .....    ....     ....             .............         .................    .............",
".....    .....    ....     ....             .............         .................    .............",
".....    .....    ....     ....             .............         .................    .............",
".....    .....    ....     ....             .............         .................    .............",
".....         ....         ....    ...............................    .............    .............",
".....         ....         ....    ...............................    .............    .............",
".....         ....         ....    ...............................    .............    .............",
".....         ....         ....    ...............................    .............    .............",
".....         ....         ....    ...............................    .............    .............",
".....    .............     ....                 .....             .................    .............",
".....    .............     ....                 .....             .................    .............",
".....    .............     ....                 .....             .................    .............",
".....    .............     ....                 .....             .................    .............",
".....    .............     ....                 .....             .................    .............",
"....................................................................................................",
"....................................................................................................",
"....................................................................................................",
"....................................................................................................",
"....................................................................................................",
"....................................................................................................",
"....................................................................................................",
"....................................................................................................",
"....................................................................................................",
"....................................................................................................",
"....................................................................................................",
"....................................................................................................",
"....................................................................................................",
"....................................................................................................",
"....................................................................................................",
"....................................................................................................",
"....................................................................................................",
"....................................................................................................",
"....................................................................................................",
"....................................................................................................",
"....................................................................................................",
"....................................................................................................",
"....................................................................................................",
"....................................................................................................",
"....................................................................................................",
"....................................................................................................",
"....................................................................................................",
"....................................................................................................",
"....................................................................................................",
"....................................................................................................",
"....................................................................................................",
"....................................................................................................",
"....................................................................................................",
"....................................................................................................",
"....................................................................................................",
"....................................................................................................",
"....................................................................................................",
"....................................................................................................",
"....................................................................................................",
"....................................................................................................",
"...................................................................................................."
};
