/* XPM */
static char *default_north[] = {
/* columns rows colors chars-per-pixel */
"100 100 2 1 ",
"  c black",
". c #00B7EF",
/* pixels */
"....................................................................................................",
"....................................................................................................",
"....................................................................................................",
"....................................................................................................",
"....................................................................................................",
"....................................................................................................",
"....................................................................................................",
"....................................................................................................",
"....................................................................................................",
"....................................................................................................",
"....................................................................................................",
"....................................................................................................",
"....................................................................................................",
"....................................................................................................",
"....................................................................................................",
"....................................................................................................",
"....................................................................................................",
"....................................................................................................",
"....................................................................................................",
"....................................................................................................",
"....................................................................................................",
"....................................................................................................",
"....................................................................................................",
"....................................................................................................",
"....................................................................................................",
"....................................................................................................",
"....................................................................................................",
"....................................................................................................",
"....................................................................................................",
"....................................................................................................",
"....................................................................................................",
"....................................................................................................",
"....................................................................................................",
".........   .......    ......       .......          .......                 ...    .......   ......",
".........   .......    ......       .......          .......                 ...    .......   ......",
".........   .......    ......       .......          .......                 ...    .......   ......",
".........   .......    ......       .......          .......                 ...    .......   ......",
".........       ...    ...   .......    ...   .......    ..........   ..........    .......   ......",
".........       ...    ...   .......    ...   .......    ..........   ..........    .......   ......",
".........       ...    ...   .......    ...   .......    ..........   ..........    .......   ......",
".........       ...    ...   .......    ...   .......    ..........   ..........    .......   ......",
".........       ...    ...   .......    ...   .......    ..........   ..........    .......   ......",
".........   ....       ...   .......    ...          ..............   ..........              ......",
".........   ....       ...   .......    ...          ..............   ..........              ......",
".........   ....       ...   .......    ...          ..............   ..........              ......",
".........   ....       ...   .......    ...          ..............   ..........              ......",
".........   ....       ...   .......    ...          ..............   ..........              ......",
".........   .......    ...   .......    ...   ....   ..............   ..........    .......   ......",
".........   .......    ...   .......    ...   ....   ..............   ..........    .......   ......",
".........   .......    ...   .......    ...   ....   ..............   ..........    .......   ......",
".........   .......    ...   .......    ...   ....   ..............   ..........    .......   ......",
".........   .......    ...   .......    ...   ....   ..............   ..........    .......   ......",
".........   .......    ......       .......   .......    ..........   ..........    .......   ......",
".........   .......    ......       .......   .......    ..........   ..........    .......   ......",
".........   .......    ......       .......   .......    ..........   ..........    .......   ......",
".........   .......    ......       .......   .......    ..........   ..........    .......   ......",
"....................................................................................................",
"....................................................................................................",
"....................................................................................................",
"....................................................................................................",
"....................................................................................................",
"....................................................................................................",
"....................................................................................................",
"....................................................................................................",
"....................................................................................................",
"....................................................................................................",
"....................................................................................................",
"....................................................................................................",
"....................................................................................................",
"....................................................................................................",
"....................................................................................................",
"....................................................................................................",
"....................................................................................................",
"....................................................................................................",
"....................................................................................................",
"....................................................................................................",
"....................................................................................................",
"....................................................................................................",
"....................................................................................................",
"....................................................................................................",
"....................................................................................................",
"....................................................................................................",
"....................................................................................................",
"....................................................................................................",
"....................................................................................................",
"....................................................................................................",
"....................................................................................................",
"....................................................................................................",
"....................................................................................................",
"....................................................................................................",
"....................................................................................................",
"....................................................................................................",
"....................................................................................................",
"....................................................................................................",
"....................................................................................................",
"....................................................................................................",
"....................................................................................................",
"....................................................................................................",
"....................................................................................................",
"...................................................................................................."
};
