/* XPM */
static char *temple_west[] = {
/* columns rows colors chars-per-pixel */
"128 128 77 1 ",
"  c gray10",
". c #1D1D1D",
"X c #322418",
"o c gray13",
"O c gray14",
"+ c #282828",
"@ c #2A2A2A",
"# c #2C2C2C",
"$ c #3B2F2C",
"% c #243924",
"& c #273628",
"* c #2C322C",
"= c #2B362D",
"- c #2F3A2C",
"; c #2C3E2C",
": c #353128",
"> c #39352D",
", c #3F392B",
"< c #323032",
"1 c #333435",
"2 c #353A3A",
"3 c #38383D",
"4 c gray24",
"5 c #463E1F",
"6 c #4C3220",
"7 c #44392E",
"8 c #31422B",
"9 c #364C2A",
"0 c #38572A",
"q c #374E32",
"w c #46412F",
"e c #5B452D",
"r c #504130",
"t c #534832",
"y c #40593A",
"u c #624128",
"i c #66422E",
"p c #6F4830",
"a c #604D38",
"s c #6C553B",
"d c #43612E",
"f c #4D6B33",
"g c #557438",
"h c #3F3F45",
"j c gray27",
"k c gray31",
"l c #464650",
"z c #4C4D55",
"x c #585858",
"c c #795C41",
"v c #466246",
"b c #5E5F6C",
"n c #7E4F69",
"m c gray39",
"M c gray43",
"N c #676773",
"B c #767676",
"V c #72727D",
"C c #8A573D",
"Z c #965D45",
"A c #846746",
"S c #956D4B",
"D c #9E7550",
"F c #A46749",
"G c #AB7E54",
"H c #B07254",
"J c #8D5676",
"K c #B58A5D",
"L c #C2986D",
"P c #CD9779",
"I c #838383",
"U c #868693",
"Y c #929292",
"T c gray63",
"R c #A4A4AC",
"E c gray68",
"W c #D3AC83",
/* pixels */
"or7r7aaaaaaaaaaaassa7wfjffkrsscA84,tk7ftscaSScccctaaaaaaaaascGGGor7r7aaaaaaaaaaaassaaaaaaaaacDKKo,,aawaaaasSScccsaaaaaaaaaascGGG",
"or,77r77wrtttttaaaatddyfjfffsAct-4ffddtettw7,,wttttttttatwwscSSKor777r77wrtttttaaaattttaaaascKDa.,aawwaaatww,,watttttttatwwscSDG",
"o,asssaassccccccccSsssaSDssssstq89qtcsaGDccsttsccccccccccssccscDo,esssaassscccccccSSSSSSDDDDSDw#oo#aDDDDDcssttsccccccccccssccccD",
"@@>7>61t#>........&&....&&&&&&..899----o... ... oo.....oooXo7o7#@@,t7ujt@7o............##..o.........................O2@OOXo>+w2",
"xM3xMMIIj@714414####@##@@@@@@@@@98-#@@@@@@@@@@@@@@@@#o@@1<<<<<<<mBzkmIIIj@,##@##@@@@@@@#9o.77,,,w,.@@@@@@@@@@@@@@@@@@O12121<<<<3",
"xM<<jxMIm<rjwart77,#####@@@#1#1111117,,7###########@@o<<<<<<hjmjmMjjxmMIm<71,7>,>>>+++99##,,t,,,,,>o+>>7@+++++++++@@@@O<<112jkmj",
"xM<1jkxBIjwwrttatrtwwwrw#@1,7arr777www7wt##7777<###@@oj4@1<1<hxjxM<3jxmBUj,>>,,,,>,4>yyyqtAAAooatasAr+>7w++77>>+++@@@@<@21<<<jmk",
"xM@1jkBBIjrttaaaaatrttrr7@#1wrttttttttrrk:>aeatr7###@o<j4<313jkjmM@1jxMBUk7ww,,,,>y>4y8qsKKG+++ottASSSS>,+@tt,tr>+@@@@<2j4223jjk",
"xM<1jxMBBMacDDSScssccccs,o,rasccccsccccsD,,acSSc7###@o++j4<3hjkjxM<1jxMIBMacDDcstwd899qtGKG++,.+o.tsDGGa@@>wSSScr2##@O@<44313jjj",
"xM<j4xBBBMSLKDSAccccAASc,@,aSSSScscAAASDS,7aSSGc7###@o@O+k13ljjjmm<j<xB8g8SKDDctywq8yd&AKK++X...,o.raADa++@>cSDst2@#@@@@@4243jjj",
"jM<14mMBMMsGLGScccAAAccc,@,raccscSAAAccDc,#,7cDsw7##@.+O+@j<1jjjjm@-#0j88;sDGAawdqqyss+,t+,X.....X++.a,+aGa,@rcct,##@O@O@4422jkk",
"jM<1jjjMmMasGGcscSSScscc,#,,taascSSScsDDr,,w7stw17##@.+O++4h*1jhjM1j9qdjfdaaAcjdd8yAAct+++X.......XXooo,GKKa,>rt2,##@O<++j4221jk",
"@<<<<11jMj,@,t,,wrrrtrwww7,ww##7waaaat7>#,,7tat@@@@@O...O+@<++1@+141%&,jmj,+jdy8-waGGKG+XX.........XX+otsKKKA,>@++@@O++<++3<+o2#",
"kBMMMmx1BBoOOOOOooOoOO,OoOOooooo..o.Oo@ o@@OO+O+OOOOOo+<311k<<hjkMmMMmm1BBo4#99-wAGKKK,XXX.........+XXX>rSDKKG,,+oOOOO@4h2jkO1kj",
"jxmMBMm1BBcKccK#DGDGLGDGDKccKDD7DGDGLKDKDKccKFG7#taw@oO@<3jj+4xjkxxmMMm1BBtcd4,dAGKKG,XX++X.......++X.XX>,AGKKt,+,aw@@<14jkkO3mk",
"kjjjmmB4BmaScsc#tasSSSSSccssssSrteAAsScSccsssscs7w7*@o.O@4jk+kmmkjjkmmM1Bj:dq+atGKKGXXX..++X.....++X...XXXtASKKt+>,#@<<+<4kxOjmx",
"mkjjxxm4BxSGSccO7scccAAAcccssac,7AAsAASAccccsasa1r7#@o++@1jkOjmmxjjjxmm1Mmww>otsKKGXXX....++X...XXX.....XXXrSKKGa<7#@o@@@1kk<jxm",
"xkjjmMx<mIsSSSs.,scAcAACAcccssS,esAAAAAccsccascs,r77@o+@11hjO4mmmjjjxMx1Mx8ro+aDKGXXX......++X.XXX.......XXXasGKK+7,@oo@<<jjOjxm",
"MkkjxMx1BmsGSDco7ccAcAcccccccss@7sAsscccscccsssa#r7#@o+@11jj.4xmmjjjxmx1BM-7>>aGKXXX........+XXXX.........XXXrDKK>7#@OO@1<jjohxm",
"MkjxxmM1xxaGSScO7scAAccccAAcAca@7sASFccsccAAccst,77@@.++<h4j@4kmmkjxxmM1xx@7o>sKKXXXXXXXXXXXXXXXXXXXXXXXXXXXXisKK+7#@O++<22jO2xm",
"jxjjxjj<xxaScDco,ascccccAAAAcccO7asAcccAAAccccca#77#@.o@131jO4xmkjjjxjj<xm@>.,aKKXXXXXXXXXXXXXXXXXXXXXXXXXXXX,sKK+7#@O+O@22jo2kM",
"xxjjj<j<<@sSc,,o#tssascSSScsccs@,assasscAScscccs1w##@.OO@oO<<@14jjjjj<j<<+@>.>sKKXX....XXX....XXXXX.....XXXXX5aKK+##@OOooO+@<o@1",
"xB4jmBIBYMasw,wO#7rtttassscsaaa,7aatttassscsaaa7@@@Ooo@O<<3jjmjjmBkjMMIIYM@+.>sKKXX...XXXXX..XXX.XXX...XXX.XX5aKK+@OoO@O+@2jjxjj",
"MIx<jxMBBmo.Oos@O.O@@OooOoOO,O@@@O@@@@ooOoOO7O+a#@Oooo@@<13jjkjmxMxkkxMMMm...>sDKXX..XXX.XXXXXX...XXX.XXX..XX>aKK+Ooo+@+@*23jjjm",
"xBkhjjxBBMcGDGLGDGccLLLDD,cGDGLGDGDKDSKDD7DGDGLststr#o+O<<44jjxxxMxhjkmBBm,7o,sDKXXXXXX...XXXX.....XXXXX...XX,tKK+tr@O@+@@<1jkxx",
"xM3kjjmBBBrasssDSSGGSSssS7wasssScSccsssaSawasssat7##@o+.<4j11jjxxmxjjjMBBM@+.rtGKXXXXX....XXXX......XXXX...XX,tDD+##@o@O@<1<3jkx",
"xM<kxjmBBMaccSSGDGLGScsac#7ccccccSScccstc7rccSSst7##@o+O<j113hjxmMxljkMBBM@>..ooXXXXXX...XXXXXX....XXXXXX..XXXooo+##@2@o@1<134jm",
"xm<jmmB8g8accAAASDGGSAcsS#7cScccccssccaaS,tcSccaw7##@o<+4j<14jkmmMkhxkMBBM@+.>sKKXX.XXX.XXX..XXX..XXX..XXX.XXrrKK@##@jj441@234jx",
"xM3-#0j88;accAccASSSDAAss@rSccsssssccccss@tScccaw@@#@.4<44<14jkmxMjkxmBBMM@>.>sGKXX..XXXXX....XXXXXX....XXXXX,aKK@@#@+@<jh4114km",
"jk1j9qdjfdasAAccccASDSAca@rcSSssscccAAcAt<tcSDSat77#@.O+1@<14jxxjj<hxxMIMB@+o>aGKXX...XXX......XXXX......XXXX,aKK+7#@ooo+@jhhjxx",
"<<<<%&,j1jascccccAAZSAcccO7scccscAAAAcsss#rscsct,w7@@.OO@O@O@<j<@<<@1h14jx@++>sDKXX..XXXXX.....XXXXX....XXXXX,aKK>,#@oooOoo+<4j<",
"jmjMMBI1BB,assasccAAAcscs#wtasascSSScsAsa@7aasar77##@o+Ohhhk@jMmxMjmmIYjUI@+orsSKXX.XXX.XXX...XXX.XXX..XXX.XX,aKK+##@@@+38;dOjMM",
"xxjjmBm1MMo@w777assscsaa7#7r7,,,,,,wtw,,,@O77#,#@@@ooo+@hljk<4xmMMxkmBBjBM..orsDKXXXXX...XXX.XXX...XXXXXX..XX,aKK+@ooOO@1g8f13xm",
"xjjkxxx1MjOO@@@OooOoOO,O@@@O@@@OooOoOO,O@@@...oOooO.oo+<<hxk<<xmxkjkMMmjMj..orsDKXXXX.....XXXXX.....XXXX...XX,aKK+O.o++@<88j<<mx",
"xjjkxMx<MjLLLGK#aGDGLGDGDKccKDD7DGDGLGDGDKccKDD$O7r:OoO@<<jmO<jxxjkjxBBjMkctorsDKXXXX......XXX......XXXX...XX,aKK+a,@++@<2jd,<km",
"jjjjxBM1MjasaacwwasssScSccssssSw,aAASScSccssssa$@@@@OoO+<4jx<3jxjjjjxMBjBk,+.rsDKXXXXX....XXXXX....XXXXXX..XX,aKK+##@+o@220q&<kx",
"jjjxxBM1MjaaasctwccSSSSSScccsac7wcccACAAccccsa$@O::#@oo+<14j<4jhkkjkmBM1Mx,+orsDKXX.XXX..XXX.XXX..XXX..XXX.XX,tKK+,#@<O@22#9%<jj",
"jjjxxMx4Mkaascs@acSsscAcssccasS,wcSAAccAcccca7:O O:#@.@@O14jOjjjjjjxxMm4Mj,+.taKKXX..XXXXXX...XXXXXX....XXXXX,sSD+,#@+4@+<-jO@jj",
"jjjjjjj4jjasscaO,Sccaccsscccsss,,ScAcscsscccroO  @@#@.o@@<1k@<kjjjjjjjj1jj,+..ooXXX...XXXX.....XXXX......XXXXXooo+##@OO@O<1k+<4j",
"4@<<1#114<aSSca,wDDSScccccAccca,wcSAccscscAa:@@:.#@@@.<+@O@@@<4h1@<<1<111<,,.rDGKXX...XXXX.....XXXX.......XXXttKK@@#@O.OOooOO<@@",
"mM<xMBIIMxaScSa,waSccsccAAcAccc@wscccscccAs7@:saO#@#@o<@14jjjjkmxm<jjBIIMm,,.,AGKXX..XXXXXX...XXXXXX.....XXXX,tGK@@#@o@+<1jjjjkj",
"jM<4xxmIBBsScst#wcDsascSAAcsccs#,wssasscSca@:7ca@@@@@o<<<4hjjkkmjM<jkxmMBB,,.>sKKXX.XXX..XXX.XXX..XXX...XXXXX,tJK+@@@o@@<341jkkm",
"xM14jjxMBMasa#7#@wa777wssscsaaa#@,@t77wrar7::aat,@@@@o1@<14hxxmBjM13jkkMBM,+.,sKKXXXXX....XXXXX....XXX.XXX.XX,aGK>@#@o@@+14<4jkx",
"mB4hjjxBBMooOOw@@O@@@OooOoOO,O@@@O@@@o...   :O@a##@@@o@1<<44jxmMkM<3jjxMBM...,sKKXXXX......XXX......XXXXX..XX,aJK+@@@O@@<@433jkx",
"MIjjjjxBBMcGDGLGDGDKccKDD7DGDGLLKLKLDDDSG$ASDGLstctt@o@@@<13jxxmmM<3jjmMBMwt.,sKKXXXX.....XXXXX......XXX...XX,aGK+tr@@@@@@13jjkx",
"kxjjjxxBBMrasaaScSccssssSaaasssScSccaaDGLawasssatt7#@o++<11jjxxmjj<4jkMBBm,+.>sKKXXXXX...XXX.XXX....XXXXX..XX,aJK+w#@@@@@11hkjjx",
"jM1jkmMBMxasscccAAccccsac,7sccSAAAccscADStwccSSsat7#@.@++<1hhjkkjM<1jkMBmx,+.>sKKXX.XXX.XXX...XXX..XXX.XXX.XXraGK+7#@O22@@24hkkj",
"jM<4jkkMjjaassscAcccccasS,7accscAAcscscSGawcSssaet7@@.@o+<<1hjjkjM<<1jjMjj,+.>tKKXX..XXXXX.....XXXXXX...XXXXXrjGK+,#@+<@@@@2hkkk",
"jj314@4<@1asasaccssccccss#7accasssscccsccwwSccsar7,#@.OOO@@O@1k14j<jjo<<<4,+.>tKKXX...XXX.......XXXX.....XXXXttGK+,#@oO+<@@@@2j1",
"jMmMBIY4BBasccSccsccAAcca#7acSSccccAAcccsw,cSSSstr##@o@@@<hk@jkjkmmMMBUjBB,+.>aKKXX..XXXXX......XXXX......XXXtrDD+##@+<14jkx+jkx",
"xxjkmIB1BMascccsccAAAcccc@,tcccscACAAAccs,wscccatw7#@oo@<<hjo1kmMmkjmBM1BM,+..ooXXX.XXX.XXX....XXXXXX....XXXXXooo+,@@+@4kkkk@3km",
"MjjjxBB4IkrassascSSScsccs#@tssasscAScscca#,,assat7,#@oOo<<hj@<hjmmxjxMM1Ij,+.rsKKXXXXX...XXX..XXX..XXX..XXXXXatKK@,@@@<2jjxkO<jj",
"mxjjxMMkBj,,atttassscsaaaO@,,,,,assscsaw,@@,,t71,###@oO@@<hjO1hhxkjkxMM4Bj,+.,aKKXXXX.....XXXXXX....XXXXXX.XXttSK@@@@@@213kx@4jj",
"xxkjxMMkUxoO@@@OooOoOO,OO@OO@@@OooOoOO,O@@@O@@@@@@@@@o.@@<4jO<jhxjkkmMM1Bx...,aKKXXXX......XXXX......XXXX..XXttGK+@O@+@<11hxO4kj",
"xjjkxMm4YkLWGWL,cGDGLGDGDKccKGG7DGDGLGDGDKccKDc##1a,@o.O<<<jO<hjxjjjxBm1Bkcao<aKKXXXXX.....XXXX......XXXX..XXttGK>r,@+@<123k@4kj",
"xjjjxxk1BkSGssGrtasssSScccccAGGrtasssScSccssssSr,ww,@.O@<<<j@1hjxjjjmmk1Mjtt.1aKKXX.XXX...XXXXXX....XXXXXX.XXrtJK+,,@++@124k@jkk",
"jjjjjmx1xxSDccG@7ccccAAAcccsccK,7accAACAccccssst47r#@.@1<11k@4jjxj4jxmM4mmt,.4sKKXX..XXX.XXX..XXX..XXX..XXXXXrtJK+7@@++1114kO4xk",
"4<<OOOO44<acccG@rcAccAAAcscccSG#rsccccccccccaasr@,w#@.....OO4j1@j1<+@@<jj<,>ortSKXX...XXXXX....XXXXXX....XXXXrtJK+,@@O+OOOOo@14<",
"mI<3mMIBBMcsccS@rSccccssccccsSG#rsccassssccccsawO#r#@o<.@<j3jmBmMY<4MMIBIMw+o,ASKXX....XXX......XXXX......XXXrtDK+7@@O4+<1jjkkmM",
"Bm<<jjxBIMSsScc@rsAccsccccccZSG@raccscccASSSSScwo@,,@o<oO113hjMIBm1<kkmBIMt+o,ASKXX...XXXXX.....XXXX.......XXrtGK+,,@@<@<2248;dm",
"BB<<jjxBBMacsSaO7asccccAAAAcAAc@7accsscASDDDGKS,O@,#@o11@@<<jkmMMM13jjmBIB,>o>AGKXXXXXXXXXXXXXXXXXXXXXXXXXXXX,tGK+,@@@<+@@12g8fm",
"BI<<jjxBIMccc,wO,tsatscSSScscssO@tssaascGGDSDDa7Oo@#@o41O@<<hjxmMM<1jjmUYBw>o>SKKXXXXXXXXXXXXXXXXXXXXXXXXXXXXtsDK+O@@O@@<@1488jM",
"mB4*jjxBBMtaata#O,w,,,wrrrarww,OO77#wwtaaasaaa,7#oO@@o@.O@14jkxmBM1<jjmIBI,+++KKKWWWWWWWWXWWWWWWWWWWXXWWWWWWWttDD>O@@+@+<@12jjd,",
"mjj3jj8g8MooOOS@@OOOo.......#O@@@o.OOo..o.oo#OOa#OO@@o@..@<1jkkmmj<<jjmIBM...+KKtsSAASSAGoGGSAASSAAnDosASAASstaaA7O@@<<O+<28g0q&",
"xj-#0j88;MGLKGLLDGLLLLLLL7DGDGLGDGDKccKGG7sScGLsasw7@....+<<1hhxmj@<<jMIIIat+>o,,,,,,,,ato>,,,,,,,,,,o,,,,>tt,,ttt,7@@@-#0j88#9%",
"j<19qdjfdBraaaaScSccSDDDLa,asssScSccssASS:77sssataw#@...OO+<<<jhj3<<14jMmB,+...+++++++++>.+++++++++++.++>>oo+++>>t,#@@OO9qdjf-jj",
"<j:%&71141aaassSSAAccAcSLttascccAcccccccG+7Accssaar#@.OOOO.OO@+<<j14<<114<,@@OO,,,,OOOO,7@OOO,,,,,,@@@@@,.@@@,,@,ar#@2@o%&,@@4@1",
"xMxMMxx1YIaaaaacSccccsccSaasscccccssccasGoaccAcsat7#@o++<<<jOxmxmMmMMmm1YU,,,,,,,,,,,,,,,,,,,,,,,,,,,,,,t.,,,,,,rt7#@+4@<<2jO4xM",
"xxjjxBx1BBaaascsssscccsss,assccsrtsccccAGOwSAAcarr,#@o+<11hjO3xxmMmxBUm1BBaara,wwwwtttwww,,ttatt,,ttttwwc.,attt,7r,#@O<414jkojkm",
"jjjjxMm<BMaasccsssccAAScawaasssttesccccAG#rccAcstr,#@o<+11hj.4xxjjxx8;d4BMaasScssaasccscawaataatrtsccsssD@rcSSSstr,#@@O@21jkOjkx",
"mjjjkxx<BMaassccccZZAcccc,artaattascccccc#,ssAsar7##@oh1<1hjOhxxmjjjg8f4BMaasccscccAAcccc,ataaatrtsccsssc#,scccar7##@@@+42jjo4xm",
"xMjjxxM1BMaaasasccAccsccs#w,rtttrtccsasss7,7aaar7###@o+jj<jkO4xxmMjj88j4BMaaasasccAccsccs#wwrtatrtscsasss7,7aaar7###@@@1k4jkO3jm",
"jjjjxxM<BMraatttassscsaa,@,,,,rrrtaasatt7O+@@77##@#@@oO+k43k+hkxjj3jjjd,BMraatttassscsaa,@,,,,rrrtaasatt,O@@#,,##@#@@O+@jhhkO2jx",
"xjjjzmx<MMOO@@@OooOoOO@O@@@O@@@OooOoOO,O@@@O@@@@@@@@@.OO1x4h<1jxmjjkj0q&MMOO@@@OooOoOO@O@@@O@@@OooOoOO,O@@@O@@@@@@@@@++@2hhjo<jx",
"xjjjxkI1MMsGccK7cGDGLLLGGGsGLLD7wGDGLGLLLLLLLLDt1,r7@..<<1jjO4jxmj4km#9%BMsGccK7cGDGLLLLLLcLLLD7wGDGLGLLLGGSGLDr1,r7@O+12jhkO1km",
"j1311<414<raracr#assSDAAssaaDGG,aLLDDDcSccssssss@tr,@..O+.1<.<1<j1hjj-j441raracr#asssDDDccssDGG,aDDDSScSaarrascs@8;d@O+++41++<12",
"mM<jjxIBYMaatxc#,ccccsssAcccADL@rAGDSASAScccsasa@wr#@o++@<<jjmBmMM4jjmIBYMaatsc#tDcSSAAAccccADA@sDSAASScsrsssasa@g8f@@<2#2ljjxBm",
"BB4hjmMBBMaxz8f7,acctfsccccwssLo$cASaAcAssccAsss@w,,@o+++<1jkjmmMM14kmMBBMassss7tcASccwAcsccAcxosGSAscSar7scascs@88j@O@<<<hkjkMm",
"mM14jjMBIjwfa8f4wfatftascstcwsLo$tsA%SSSADDAAssa@r7#@o+O+<<4jxmmMM<<jkMBIMascca#tcADwwccscccAssoaGDAAcsrrcccsssa@rjd,@2@1444jkMm",
"MM<<jjMBBjfas8f98sava8tsf88ctSSoo@t%tSaDDGDSDAst@#w#@o+.+<144xmmMM<<jkmBBmacAca OtDtDSSAAcAAAcsowADSAcsaaSAcccst@#0q&<2O@1h43kmm",
"MM<<1jxBmjtt8st-;;vaa%sg8gtt88Go@<%t8taDGKDDSScaOO7#@o#++<<14kmmMm<<1jmMBMscAsr oO-cSDDSA8cCAAGo7sADSAsscAAAcccaOO#9%o<@+<23lkxm",
"MM<14jx4jmScstq&%;tf8%f8atAr8ttO@@%.&8taGKDsDDcr@@w#@o<@<<<<3jmMMm<<1jxMBmSSca7.o&Ot8SwDc8s888cO#tssccsscAcccccr@@-#@o+@@@1*3xxm",
"BM<<4jxMBxtsc7,9;q8jd8y8sstw888oX%.++&&$7aDsaaa7@###@.@@<@<<*jxMMM<<3jxMBmascsoo+%O:-8ww8%-888woX,7attaaaaasaaa7@###@O@@@+1@*kxm",
"jk@<<jxBxjOO+O8--&&&%&%%OoOO-O@&&%OOO.  .oOO,O@r@#@@@.+++1*114mj4k@<1jxBmjooOOo@@.%&@&o%%o&O,O@OOO@@@OooOoOO,O@r@#@@@O+O+@@<<2mk",
"<j1<<<<34jcGDssGDGDca8tww&8twtLcctLLLLLGD,DGDGLsasar@.OO+++O+1h141<<<<<13jcGDDKGDGDKc8t&-,cGDGLLLLLLLLLGD,DGDsssasar@OOooOOoo<2j",
"BImMMBI<BIrasaaScSccssssSrtcccaGwLLGSDSsSrwasssata,#@o++<<hj+1mmmMmMmMI@MIraAASSSSSAs8w8wrtcccDGGKKKGGSSSrwasAAata,#@+@O+<jjo@xm",
"xMkxxmx<MBassscASSScccsac,7scSSaaSDGAAcsD#,scSSsar7,@.O@11jkO43mmmmmmmM<mBaasccAAAcccsc88,7scSASSDSSAtcAD#,scSSsar7,@O+@@1jjO<3x",
"Mmxjxxk3BBaaacccScssccasS77acccttccAAccsS#,sSssaaw,#@oO@11jk13hmxxxmmmm3MMaassccccccsc88w77accAcccssctscS#,sSssaaw,#@++@<*jj<<jx",
"xxxkxxk1xMasacasssscccsss#7pccctcscsscsss@7accsar,,#@o.+44kk<<hxxjxkmmM1xmaasscccssccs8s8#7pscctcsscccwsw@7accsar,,#@OO+<1jj<1jx",
"xjjxxxk<xBascSSccscCAccca#7ascScssssscSca#,tsSSst,,#@o.O<hxk@<hxxjxxxMm4xMassssscccccccc8#7eascswssscctww#,tsScat,,#@oo+@2jj<<jx",
"xjjxMxk3xMaasccsccZAAAccc@,7assascsaacccc##rassa7#7#@o.+<jjj<<hxmjxxmmM1mMaascscsccAcAcc8@>wasaaw8wawsctt##rasst7#7#@2oO@1jj<*jm",
"jjjkmIxkxm7assasscAScsccsO#,aa,,tsatwtscs#,,wwrw7###@.+@4j1h<1jmjkkkxmkjkm7asssaccCAcsccsO#,aartt8wawtstw#,,wwrw7###@44441<j<*4x",
"jjjjjxk<j4777tttassscsw,@o#rrw,#wattsttaa##@@@,#,,,#@.<<44<j+14jjjjxkxk4j4,,rtttassscsw,@o#rrw-=888ts888w##@@@,#,,,#@++<jh4jo@2j",
"<<<1<<j4<+O.###OooOoOO,O@@@O@@@OooOoOO,O@@@o.O@@@@@@@..O<OO++<<<+<@1j4444<O.@@@OooOoOO,O@@@O@@@Ooo&oOO,O@@@o.O@@@@@@@o..o+<<+<@@",
"xM@3MxMYNMcKsAK7DGDGLGDLLLLLGDD7DGDGLGDGDKGGGDDr#ttw@o@+<<jjjmmmxM@1MMMIBBcKccK7DGDGLGDLLLLLGDD7DGDGLGDGDKGGGDDr#taw@O@O@@jjkMmm",
"jm@3jmBBVMaassswaasssSDSDcssssS,tasssScSccssssca,7<#@o++<134jkxmxM@14MITIBaaascwaasssScSccssssS,tasssScSccssssca,,##@@@@@<33jkmM",
"xM<<jmBBNMaaacs7aacSSSZAAcccstc<rcccASAAScccsssa@#w#@o@@<j41jkxmMI41jmURMMaaacc7aacSSAASScccsac#rccSSSASScctsssa@#w#@O@+@121jkxm",
"mM<<jxBBMMaaacs7aaccccScsscctsc#asAcAccAccccasca##,#@o@+@1j4hjxmmM<1kmIYMMaaacs,aaccccAcssccaac#acccAtAcssctasca##,#@+@+@112jjmm",
"mj<<jjMNNmaaaca+ascccccssscsata#acAccccsscccsssa@@#@@o@+@<1kjjxmMj<<jxITMMaaaca#ascccccsscccaaa#aSAAcctwscttsssa@@#@@+@+@<<2jjxm",
"Mj<<jkMVMMassca7aasccscssZAstr7#acSSSccsscccASca@#@#@o++@<<hxkxmMj<<jjBIBMassce,aascccsscccssa,@accAccctctttwaca@#@#@++@*@<1jkxm",
"jj<<jkMmmxaSsDt,atassscSccAssKSortcccscAAZAcAcca@@@#@.+++@<1lxmmjk<<jjMBmmaScSa7atassssccAcscsSOrtcc8cst88cAc8;a@@@#@@@O@@1<1jxm",
"jj<<1jMkjjsSAss@ttaasessccAscst.,,ssasscAAcsccca@@@@@.+++@@<1xkmjj<<1jMzjjsSAst@trataaascccscct.,,ss8wstt88wtt;a@@@@@+4OO@@<<4jm",
"@<<<<<j71Oascs@@7rrw77wrtssss7$..@,tttassscsaaat,@@@@.OO+++O+<k<+<<<<<j3<oasc7,@,rrww77tssssaa,..@,t;;88w88s8w8t,@@@@OO+oooO+<4<",
"MMmMMMx2jmooO.,@+O@@.   ooOO7O@@@O@@@OooOoOO,O@a#@@@@o41h14k<1BMMMmMMMm1jmo   o.@O@@@OooOoOO,O@@@O@@@Oo+O+O&-O@a#@@@@++<3*<k<1mx",
"BxjxmBMjMxsKGGLGDGDD$.$r +GGDGLGDGDLLLLDD7DGDGLst7w,@.@14hjk<4mBMxjjmBMjMmccr:O>rGDKDsLLo@DGDGLGDGDLLLLDD7DGDGLst7w,@o+<22jj14xm",
"mzjzxBM1Mx7asssSDDs:@oOs 7aasssScSccssssSaaasssa,,,#@.++<hkx1<kmxjjjxBm1MmwraO.O>AGSASDLo,aasssScSccssssSaaasssa,,,#@oO+<4kj<1km",
"mkjkxMM8g8wasSGKDsr:O$tPL@7tssccccccaas887ascSSs7,##@.++11kxh4xBxjjjxMMjMxwtss7.OsSAASDGL#wassccccccaaaac7ascSSs7,##@oO+@18g8<jx",
"Bxk-#0j88877ssacsr$:7aSSD,w7tscssssctt8sSwstsasa7#@@OoO+<1hj44xMmjjjkMM1Mx77ccs#O77ssSSSD,w,tassacccktasSwstsasa7#@@OO-#0j88;@kx",
"Mmxx9qdjfd,weatr77$aSGGSs###wtsat8sa,8ass,attaat#@@OOoO+<1hh44xmmjjjmMM1Mm7waaa7$$$7aaacs###waataskkddass,awdaat#@<<O@O9qdjfd<jx",
"mmMM%&7jMx,,ar7,777aDDSw8###wtaaw-ws&rtca,twasar#@@#<#<1hjjkjkmMxjkxmBBjMx,,aaaar7$t777ar###wtrt>wdjddjtfqwdtaarh#q@@<<q2tjjjhkm",
"EEEEEEEEEYIMmw,7s$awSwA88O#@##r,,-,a&8wac@,,wrr7@O@jxIIYYYYYYYYYYYYYYYYYYYYIxttrrrta7$7ssO#@##w,ddyd4ddfsqdqqwdyq984xBIIBBIIYYYY",
"EYYUIURYIBmIMtwas7r8c888sO@#,##,&&,&&&88&o,,7,,@@O@kMmmBUUUUIIIYNIIBBBUUBBBYItwwwwwe777asO@@,##9qq8,,9ytq8qqqdd8q8#kMmmMMVVUBYYY",
"BIBMMmmBMmmBI,77w888w888@@O@#@@@--%-t8-&%@@rr#O@@O@kBxxxNMMMBBBBmBMMxmmxxmMBI7,7wttta7wa@@O@#@8-ww,www8q&8@rtq98888xBxmmmNmmkmBB",
"ImmmmmmxxxmmI@+O%o&%&&&O@@@O@@@&%%%oOO@..@@O@OO@@@@jmkkxxmmMMMmIImmmmmmxxxmmI@@oooOoOO,O@@@O@@@OooOoOO@..@@O9--@@@+kmkkxxxk4mmmI",
"xxmBImmxxxmIYGGDSKG77GGGGDSK7GGGSt77wtttwSKG77Gss@@jmxxkxmmIBmmxxxmBImmxxxmIYSGDSKG77GGGGDSK7GGGSG77SGGGDSKG77Gss@+jmxxkj<4IBmmx",
"mmBBBBmxkxmIYSSScADwaasSSAcswwSw8w-aasw&8csDwww##,@jmxxxxmBBBBmmmmBBBBmxzxmIIASccsDwasASAccswwSScDwaasSSccsDwww##,+jmxxkj4BBBBmm",
"mmBBmmmxkxmBYsAsscS7wcscccca7as88w&wcs%%888w7wa,#@@<jmmkxmmmBIImmmBBmmmxkxmBIccscaS7wasccsca7acccS7wcsccscaS7wa,#@+4mmm44xmmBIIm",
"BmBmmmmxmmmBYsssccs,,wassscs,wacc8&@aa%8cccs,,r,@@@kkjkxmmmmmBIBBmBmmmmxmmmBIsssccs,,tassscs,wsscs,@aassscss,,r,@@+4mmx4kmmkmBIB",
"mmmmmmmmmmmBYssssca@,7asssca@#ss-8@@7a8s%8ca@,w#@@@kmxkkmxmmmmBImmmmmmmmmmmBYssscsa@,wrasscS@#sssa@@7assscca@,w#@@@kmmkxmxmmkmBI",
"xxxxxmmmmmmIYtsssac@@w7tsssa@,tssc@@w7ts88sc@@,#@@@kmmmxxxmxxxxxxxxxxmmmmmmIYtsssac@@wwtaass@,tasc@@w7tssssc@@,#@@@xmmxmmmmxjkxx",
"4kllxmmmmmmIYwwwtwa@O@#@wasa@O,waw@@@#,aa8aa@@@#@o@kmmmmmmxkllk44kllxmmmmmmIYwwwawa@O@#@wasa@O,waw@@@#,aasaa@@@#@o@jmmmmmmmxllj4",
"xjjxxmBBBBBIIOOO+7@@@OoooOO,@OOoO@@@O@OoO&,@@@O@@ooxmBBBBBmxxjjxxjjxxmBBBBBIIOoOO,@@@OoooOO,@OOoO@@@O@OoOO,@@@O@@oojmBBBBBmxxjjx",
",##@@X@@@X@XXX@@@@@@@X@@@@@@@@@,O,@@@@@@@@@X@@@@@@@XXX@X@@@X@@@@,@@@@X@@@X@XXX@@@@@@@X@@@@@@@@@,O,@@@@@@@@@X@@@@@@@XXX@X@@@X@@@@",
"7e,r,7wrrascpssssssSccssacccsacL#7rassscGcSccccScssSccssssasccGD7a,r,7wrrascpssssssSccssacccsacL#7rassscGcSccccScssSccssssasccGD",
"7a7rwraaaasscSScccSGSSSSccccscDK##wtasSSGGDGGGGGDSSSSSSDSSSSSDDK7a7rwraaaasscSScccSGSSSSccccscDK##wtasSSGGDGGGGGDSSSSSSDSSSSSDDK",
",iw7rraassccssssssssssscsssscSDK@#,tsccSSSSSSSSSccSSSSSSSSDSsDHF,iw7rraassccssssssssssscsssscSDK@#,tsccSSSSSSSSSccSSSSSSSSDSsDHF",
",i7,waaasscssaasccssssaszasacSGK@@,asDDScsscScccssaasscccccScDGH,i7,waaasscssaasccssssasaasacSGK@@,asDDScsscScccssaasscccccScDGH",
"or777aaaaassaaaascccsskkffaacSKc9,wssaaaaasccccssaaaassssscSSDGGor777aaaaassaaaascccssaaaaaacSKKo,wssacsaasccccssaaaassssscSSDGG"
};
