/* XPM */
static char *temple_east[] = {
/* columns rows colors chars-per-pixel */
"128 128 68 1 ",
"  c gray10",
". c #1D1D1D",
"X c #322418",
"o c gray13",
"O c gray14",
"+ c #282828",
"@ c #2A2A2A",
"# c #2C2C2C",
"$ c #3B2F2C",
"% c #243924",
"& c #273628",
"* c #2C322C",
"= c #2F3A2C",
"- c #2C3E2C",
"; c #353128",
": c #39352D",
"> c #3F392B",
", c #323032",
"< c #333435",
"1 c #38383D",
"2 c gray24",
"3 c #4C3220",
"4 c #44392E",
"5 c #31422B",
"6 c #364C2A",
"7 c #38572A",
"8 c #374E32",
"9 c #46412F",
"0 c #5B452D",
"q c #504130",
"w c #534832",
"e c #40593A",
"r c #66422E",
"t c #6F4830",
"y c #604D38",
"u c #6C553B",
"i c #43612E",
"p c #4D6B33",
"a c #557438",
"s c #3F3F45",
"d c gray27",
"f c gray31",
"g c #464650",
"h c #585858",
"j c #795C41",
"k c #466246",
"l c gray39",
"z c gray43",
"x c #676773",
"c c #767676",
"v c #72727D",
"b c #8A573D",
"n c #965D45",
"m c #846746",
"M c #956D4B",
"N c #9E7550",
"B c #A46749",
"V c #AB7E54",
"C c #B07254",
"Z c #B58A5D",
"A c #C2986D",
"S c #CD9779",
"D c #838383",
"F c #868693",
"G c #929292",
"H c #A4A4AC",
"J c gray68",
"K c #D3AC83",
/* pixels */
"oq4q4yyyyyyyyyyyyuuy49pdppfquujm52>wf4pwujyMMjjjjwyyyyyyyyyujVVVoq4q4yyyyyyyyyyyyuuy49pdppfquujm52>yf4pyyyuMMjjjuyyyyyyyyyyujVVV",
"oq>44q449qwwwwwyyyywiiepdpppumjw=2ppiiw0ww94>>9wwwwwwwwyw99ujMMZoq444q449qwwwwwyyyywiiepdpppumjw=2ppiiwyyw99>>9ywwwwwwwyw99ujMNV",
"o>yuuuyyuujjjjjjjjMuuuyMNuuuuuw8568wjuyVNjjuwwujjjjjjjjjjuujjujNO>0uuuyyuujjjjjjjjMuuuyMNuuuuuw8568wjuyNNjuuwwujjjjjjjjjjuujjjjN",
"@@:4:3<w#:........&&....&&&&&&..566====o... ... oo.....oooXo4o4###:4:3<w#:........&&....&&&&&&..566====................oooXo>o>@",
"hz1hzzDDd@4<22<2####@##@@@@@@@@@65=#@@@@@@@@@@@@@@@@#o@@<,,,,,,,hz1hzzDDd@4<22<2####@##@@@@@@@@@65=#@@@@@@@@@@@@@@@@@o@@<,,,,,,,",
"hz,,dhzDl,qd9yqw44>#####@@@#<#<<<<<<4>>4###########@@o,,,,,,sdldhz,,dhzDl,qd9yqw44>#####@@@#<#<<<<<<4>>>###########@@o,,,,,,sdld",
"hz,<dfhcDd99qwwywqw999q9#@<>4yqq44499949w##4444,###@@od2@<,<,shdhz*<dfhcDd99qwwywqw999q9#@<>4yqq44499949y##>>44####@@od2@<,<,shd",
"hz@<dfccDdqwwyyyyywqwwqq4@#<9qwwwwwwwwqqf;:y0ywq4###@o,d2,1<1dfdhz@<dfccDdqwwyyyyywqwwqq4@#<9qwwwwwwwwqqy#<yyywq4###@o,d2,1<1dfd",
"hz,<dhzcczyjNNMMjuujjjju>o>qyujjjjujjjjuN>>yjMMj4###@o++d2,1sdfdhz,<dhzcczyjNNMMjuujjjju>o>qyujjjjujjjjuN>>yjMMj4###@o++d2,1sdfd",
"hz,d2hccczMAZNMmjjjjmmMj>@>yMMMMjujmmmMNM>4yMMVj4###@o@O+f<1gdddhz,d2hccczMAZNMmjjjjmmMj>@>yMMMMjujmmmMNM>4yNMNj9#@#@o@O+f<1gddd",
"dz,<2lzczzuVAVMjjjmmmjjj>@>qyjjujMmmmjjNj>#>4jNu94##@.+O+@d,<ddddz,<2lzczzuVAVMjjjmmmjjj>@>qyjjujMmmmjjNj>#>9jMu94##@.+O+@d,<ddd",
"dz,<dddzlzyuVVjujMMMjujj>#>>wyyujMMMjuNNq>>94uw9<4##@.+O++2s*<dsdz,<dddzlzyuVVjujMMMjujj>#>>wyyujMMMjuNNq>>9>uy9<4##@.+O++2s*<ds",
"@,,,,<<dzd>@>w>>9qqqwq9994>99##49yyyyw4:#>>4wyw@@@@@O...O+@,++<@@,,,,<<dzd>@>w>>9qqqwq9994>99##49yyyyy4>@>>4yyw@@@@@O...O++,++<@",
"fczzzlh<ccoOOOOOooOoOO>OoOOooooo..o.Oo@ o@@OO+O+OOOOOo+,1<<f,,sdfczzzlh<ccoOOOOOooOoOO>OoOOooooo..o.oo@oo@@OOOoOOOOOOo+,1<<f,,sd",
"dhlzczl<ccjZjjZ#NVNVAVNVNZjjZNN4NVNVAZNZNZjjZBV4#wy9@oO@,1dd+2hddhlzczl<ccjZjjZ#NVNVAVNVNZjjZNN4NVNVAVNVNZjjZNNq#yy9@oO+,1dd+2hd",
"fdddllc2clyMjuj#wyuMMMMMjjuuuuMqw0mmuMjMjjuuuuju494*@o.O@2df+fllfdddllc2clyMjuj#wyuMMMMMjjuuuuMqwymmuMjMjjuuuuju>9>#@o.O#2df+fll",
"lfddhhl2chMVMjjO4ujjjmmmjjjuuyj>4mmummMmjjjjuyuy<q4#@o++@<dfOdlllfddhhl2chMVMjjO4ujjjmmmjjjuuyj>qjjjjmMmjjjjuyuy<q4#@o++@<dfOdll",
"hfddlzh,lDuMMMu.>ujmjmmbmjjjuuM>0ummmmmjjujjyuju>q44@o+@<<sdO2llhfddlzh,lDuMMMu.>ujmjmmbmjjjuuM>qummmmmjjujjyuju>q4>@o+@<<sdO2ll",
"zffdhzh<cluVMNjo4jjmjmjjjjjjjuu@4umuujjjujjjuuuy#q4#@o+@<<dd.2hlzffdhzh<cluVMNjo4jjmjmjjjjjjjuu@qumjjjjjujjjuuuy#q4#@o+@<<dd.2hl",
"zfdhhlz<hhyVMMjO4ujmmjjjjmmjmjy@4umMBjjujjmmjjuw>44@@.++,s2d@2flzfdhhlz<hhyVMMjO4ujmmjjjjmmjmjy@qujMMjjujjmmjjuw>44#@.++,s2d+2fl",
"dhddhdd,hhyMjNjo>yujjjjjmmmmjjjO4yumjjjmmmjjjjjy#44#@.o@<1<dO2hldhddhdd,hhyMjNjo>yujjjjjmmmmjjjO4yjjjjjmmmjjjjjy#44#@.O+<1<d+2hl",
"hhddd,d,,@uMj>>o#wuuyujMMMjujju@>yuuyuujmMjujjju<9##@.OO@oO,,@<2hhddd,d,,@uMj>>o#wuuyujMMMjujju@>yuuyuujmMjujjjy<9##@.OO+OO,,+<2",
"hc2dlcDcGzyu9>9O#4qwwwyuuujuyyy>4yywwwyuuujuyyy4@@@Ooo@O,,1ddlddhc2dlcDcGzyu9>9O#4qwwwyuuujuyyy>>yywwwyuuujuyyyq@@@Ooo++,,1ddldd",
"zDh,dhzcclo.Oou@O.O@@OooOoOO>O@@@O@@@@ooOoOO4O+y#@Oooo@@,<1ddfdlzDh,dhzcclo.Oou@O.O@@OooOoOO>O@@@O@@@@ooOoOO>O@y#@Oooo++,<2sdfdl",
"hcfsddhcczjVNVAVNVjjAAANN>jVNVAVNVNZNMZNN4NVNVAuwuwq#o+O,,22ddhhhcfsddhcczjVNVAVNVjjAAANN>jVNVAVNVNZNMZNN4NVNVAuyuwq@o+O,,22ddhh",
"hz1fddlcccqyuuuNMMVVMMuuM49yuuuMjMjjuuuyMy9yuuuyw4##@o+.,2d<<ddhhz1fddlcccqyuuuNMMVVMMuuM49yuuuMjMjjuuuyMy9yuuuyw4##@o+.,2d<<ddh",
"hz,fhdlcczyjjMMVNVAVMjuyj#4jjjjjjMMjjjuwj4qjjMMuw4##@o+O,d<<1sdhhz,fhdlcczyjjMMVNVAVMjuyj#4jjjjjjMMjjjuwj>qjjMMuq4##@o+O,d<<1sdh",
"hl,dllc5a5yjjmmmMNVVMmjuM#4jMjjjjjuujjyyM>wjMjjy94##@o,+2d,<2dflhl,dllc5a5yjjmmmMNVVMmjuM#4jMjjjjjuujjyyM>wjMjjy94##@o,+2d,<2dfl",
"hz1=#7d55-yjjmjjmMMMNmmuu@qMjjuuuuujjjjuu@wMjjjy9@@#@.2,22,<2dflhz1=#7d55-yjjmjjmMMMNmmuu@qMjjuuuuujjjjuu#wMjjjy9#@#@.2,22,<2dfl",
"df<d68idpiyummjjjjmMNMmjy@qjMMuuujjjmmjmw,wjMNMyw44#@.O+<@,<2dhhdf<d68idpiyummjjjjmMNMmjy@qjMMuuujjjmmjjy#wjMMMyw>4#@.O+<+,<2dhh",
",,,,%&>d<dyujjjjjmmnMmjjjO4ujjjujmmmmjuuu#qujujw>94@@.OO@O@O@,d,,,,,%&>d<dyujjjjjmmnMmjjjO4ujjjujmmmmjjuu#qujujy>9>#@.OO+++++,d,",
"dldzzcD<cc>yuuyujjmmmjuju#9wyuyujMMMjumuy@4yyuyq44##@o+Osssf@dzldldzzcD<cc>yuuyujjmmmjuju#9wyuyujMMMjujjy@>yyuyq44##@o+Osssf+dzl",
"hhddlcl<zzo@9444yuuujuyy4#4q4>>>>>>9w9>>>@O44#>#@@@ooo+@sgdf,2hlhhddlcl<zzo@9444yuuujuyy4#4q4>>>>>>9w9>>>@O44#>#@@@ooo+@2gdf,2hl",
"hddfhhh<zdOO@@@OooOoOO>O@@@O@@@OooOoOO>O@@@...oOooO.oo+,,shf,,hlhddfhhh<zdOO@@@OooOoOO>O@@@O@@@OooOoOO>O@@@...oOooO.oo+,,2hf,,hl",
"hddfhzh,zdAAAVZ#yVNVAVNVNZjjZNN4NVNVAVNVNZjjZNN$O4q;OoO@,,dlO,dhhddfhzh,zdAAAVZ#yVNVAVNVNZjjZNN4NVNVAVNVNZjjZNN$O4q;OoO@,<dl+,dh",
"ddddhcz<zdyuyyj99yuuuMjMjjuuuuM9>ymmMMjMjjuuuuy$@@@@OoO+,2dh,1dhddddhcz<zdyuyyj99yuuuMjMjjuuuuM9>ymmMMjMjjuuuuy$@@@@OoO+,2dh,1dh",
"dddhhcz<zdyyyujw9jjMMMMMMjjjuyj49jjjmbmmjjjjuy$@O;;#@oo+,<2d,2dsdddhhcz<zdyyyujw9jjMMMMMMjjjuyj49jjjmbmmjjjjuy$@O;;#@oO+,<2d,2ds",
"dddhhzh2zfyyuju@yjMuujmjuujjyuM>9jMmmjjmjjjjy4;O O;#@.@@O<2dOddddddhhzh2zfyyuju@yjMuujmjuujjyuM>9jMmmjjmjjjjy4;O O;#@.+@+<2d+ddd",
"ddddddd2ddyuujyO>Mjjyjjuujjjuuu>>MjmjujuujjjqoO  @@#@.o@@,<f@,fdddddddd2ddyuujyO>Mjjyjjuujjjuuu>>MjmjujuujjjqoO  @@#@.O++,<f+,fd",
"2@,,<#<<2,yMMjy>9NNMMjjjjjmjjjy>9jMmjjujujmy;@@;.#@@@.,+@O@@@,2s2@,,<#<<2,yMMjy>9NNMMjjjjjmjjjy>9jMmjjujujmy;@@;.#@#@.,++++++,2s",
"lz,hzcDDzhyMjMy>9yMjjujjmmjmjjj@9ujjjujjjmu4@;uyO#@#@o,@<2ddddfllz,hzcDDzhyMjMy>9yMjjujjmmjmjjj@9ujjjujjjmu4@;uyO#@#@o,@<2ddddfl",
"dz,2hhlDccuMjuw#9jNuyujMmmjujju#>9uuyuujMjy@;4jy@@@@@o,,,2sddffldz,2hhlDccuMjuw#9jNuyujMmmjujju#>9uuyuujMjy@;4jy@@@@@o,,,2sddffl",
"hz<2ddhzczyuy#4#@9y4449uuujuyyy#@>@w449qyq4;;yyw>@@@@o<@,<2shhlchz<2ddhzczyuy#4#@9y4449uuujuyyy#@>@w449qyq4;;yyw>@@#@o,@,<2shhlc",
"lc2sddhcczooOO9@@O@@@OooOoOO>O@@@O@@@o...   ;O@y##@@@o@<,,22dhlzlc2sddhcczooOO9@@O@@@OooOoOO>O@@@O@@@o...   ;O@y##@@@o@,,,22dhlz",
"zDddddhcczjVNVAVNVNZjjZNN4NVNVAAZAZANNNMV$mMNVAuwjww@o@@@,<1dhhlzDddddhcczjVNVAVNVNZjjZNN4NVNVAAZAZANNNMV$mMNVAuyuwq@o@@#,<1dhhl",
"fhdddhhcczqyuyyMjMjjuuuuMyyyuuuMjMjjyyNVAy9yuuuyww4#@o++,<<ddhhlfhdddhhcczqyuyyMjMjjuuuuMyyyuuuMjMjjyyNVAy9yuuuyww9#@o++,<<sdhhl",
"dz<dflzczhyuujjjmmjjjjuyj>4ujjMmmmjjujmNMw9jjMMuyw4#@.@++,<ssdffdz<dflzczhyuujjjmmjjjjuyj>4ujjMmmmjjujmNMw9jjMMuyq4#@.@++,<ssdff",
"dz,2dffzddyyuuujmjjjjjyuM>4yjjujmmjujujMVy9jMuuy0w4@@.@o+,,<sddfdz,2dffzddyyuuujmjjjjjyuM>4yjjujmmjujujMVy9jMuuyyw>#@.@O+,,<sddf",
"dd1<2@2,@<yuyuyjjuujjjjuu#4yjjyuuuujjjujj99Mjjuyq4>#@.OOO@@O@<f<dd1<2@2,@<yuyuyjjuujjjjuu#4yjjyuuuujjjujj99Mjjuyq4>#@.OO+++++<f<",
"dzlzcDG2ccyujjMjjujjmmjjy#4yjMMjjjjmmjjju9>jMMMuwq##@o@@@,sf@dfddzlzcDG2ccyujjMjjujjmmjjy#4yjMMjjjjmmjjju9>jMMMuwq##@o@+@,sf+dfd",
"hhdflDc<czyujjjujjmmmjjjj@>wjjjujmbmmmjju>9ujjjyw94#@oo@,,sdo<flhhdflDc<czyujjjujjmmmjjjj@>wjjjujmbmmmjju>9ujjjyw94#@oO+,,sdO<fl",
"zdddhcc2DfqyuuyujMMMjujju#@wuuyuujmMjujjy#>>yuuyw4>#@oOo,,sd@,sdzdddhcc2DfqyuuyujMMMjujju#@wuuyuujmMjujjy#>>yuuyw4>#@oOO,,sd+,sd",
"lhddhzzfcd>>ywwwyuuujuyyyO@>>>>>yuuujuy9>@@>>w4<>###@oO@@,sdO<sslhddhzzfcd>>ywwwyuuujuyyyO@>>>>>yuuujuy9>@@>>w4<>###@oO+@,sdO<ss",
"hhfdhzzfFhoO@@@OooOoOO>OO@OO@@@OooOoOO>O@@@O@@@@@@@@@o.@@,2dO,dshhfdhzzfFhoO@@@OooOoOO>OO@OO@@@OooOoOO>O@@@O@@@@@@@@@o.+@,2dO,ds",
"hddfhzl2GfAKVKA>jVNVAVNVNZjjZVV4NVNVAVNVNZjjZNj##<y>@o.O,,,dO,sdhddfhzl2GfAKVKA>jVNVAVNVNZjjZVV4NVNVAVNVNZjjZNj##<y>@o.+,,,dO,sd",
"hdddhhf<cfMVuuVqwyuuuMMjjjjjmVVqwyuuuMjMjjuuuuMq>99>@.O@,,,d@<sdhdddhhf<cfMVuuVqwyuuuMMjjjjjmVVqwyuuuMjMjjuuuuMq>99>@.O+,,,d+<sd",
"dddddlh<hhMNjjV@4jjjjmmmjjjujjZ>4yjjmmbmjjjjuuuw24q#@.@<,<<f@2dddddddlh<hhMNjjV@4jjjjmmmjjjujjZ>4yjjmmbmjjjjuuuw24q#@.+<,<<f@2dd",
"2,,OOOO22,yjjjV@qjmjjmmmjujjjMV#qujjjjjjjjjjyyuq@>9#@.....OO2d<@2,,OOOO22,yjjjV@qjmjjmmmjujjjMV#qujjjjjjjjjjyyuq@>9#@.....O+2d<@",
"lD,1lzDcczjujjM@qMjjjjuujjjjuMV#qujjyuuuujjjjuy9O#q#@o,.@,d1dlcllD,1lzDcczjujjM@qMjjjjuujjjjuMV#qujjyuuuujjjjuy9O#q#@o,.+,s2dlcl",
"cl,,ddhcDzMuMjj@qumjjujjjjjjnMV@qyjjujjjmMMMMMj9o@>>@o,oO<<1sdzDcl,,ddhcDzMuMjj@qumjjujjjjjjnMV@qyjjujjjmMMMMMj9o@>>@o,O+,<1sdzD",
"cc,,ddhcczyjuMyO4yujjjjmmmmjmmj@4yjjuujmMNNNVZM>O@>#@o<<@@,,dflzcc,,ddhcczyjuMyO4yujjjjmmmmjmmj@4yjjuujmMNNNVZM>O@>#@o<<++,,dflz",
"cD,,ddhcDzjjj>9O>wuywujMMMjujuuO@wuuyyujVVNMNNy4Oo@#@o2<O@,,sdhlcD,,ddhcDzjjj>9O>wuywujMMMjujuuO@wuuyyujVVNMNNy4Oo@#@o2<+@,,sdhl",
"lc2*ddhcczwyywy#O>9>>>9qqqyq99>OO44#99wyyyuyyy>4#oO@@o@.O@<2dfhllc2*ddhcczwyywy#O>9>>>9qqqyq99>OO44#99wyyyuyyy>4#oO@@o@.O@<2dfhl",
"ldd1dd5a5zooOOM@@OOOo.......#O@@@o.OOo..o.oo#OOy#OO@@o@..@,<dfflldd1dd5a5zooOOM@@OOOo.......#O@@@o.OOo..o.oo#OOy#OO@@o+..+,<dffl",
"hd=#7d55-zVAZVAANVAAAAAAA4NVNVAVNVNZjjZVN4jMjVAuyu94@....+,,<sshhd=#7d55-zVAZVAANVAAAAAAA4NVNVAVNVNZjjZVN4jMjVAuyu94@....+,,<ssh",
"d,,68idpicqyyyyMjMjjMNNNAy>yuuuMjMjjuumMM#>9uuuywy9#@...OO+,,,dsd,,68idpicqyyyyMjMjjMNNNAy>yuuuMjMjjuumMM#>9uuuywy9#@...OO+,,,ds",
",d,%&><<2<yyyuuMMmmjjmjMAwwyujjjmjjjjjjjV@qjjjuuyyq#@.OOOO.OO@+,,d,%&><<2<yyyuuMMmmjjmjMAwwyujjjmjjjjjjjV@qjjjuuyyq#@.OOOO.OO@+,",
"hzhzzhh<GDyyyyyjMjjjjujjMyyuujjjjjuujjyuVOyjjmjuyw4#@o++,,,dOhlhhzhzzhh<GDyyyyyjMjjjjujjMyyuujjjjjuujjyuVOyjjmjuyw4#@o++,,,dOhlh",
"hhddhch<ccyyyujuuuujjjuuu>yuujjuqwujjjjmVO9Mmmjyqq>#@o+,<<sdO1hhhhddhch<ccyyyujuuuujjjuuu>yuujjuqwujjjjmVO9Mmmjyqq>#@o+,<<sdO1hh",
"ddddhzl,czyyujjuuujjmmMjy9yyuuuww0ujjjjmV#qjjmjuwq>#@o,+<<sd.2hhddddhzl,czyyujjuuujjmmMjy9yyuuuww0ujjjjmV#qjjmjuwq>#@o,+<<sd.2hh",
"ldddfhh,czyyuujjjjnnmjjjj>yqwyywwyujjjjjj#>ujjuyq4##@os<,<sdOshhldddfhh,czyyuujjjjnnmjjjj>yqwyywwyujjjjjj#>ujjuyq4##@os<,<sdOshh",
"hzddhhz<czyyyuyujjmjjujju#9>qwwwqwjjuyuuu4>4yyyq4###@o+dd,dfO2hhhzddhhz<czyyyuyujjmjjujju#9>qwwwqwjjuyuuu4>4yyyq4###@o+dd,dfO2hh",
"ddddhhz,czqyywwwyuuujuyy>@>>>>qqqwyyuyww>O@@#>>##@#@@oO+f21f+sfhddddhhz,czqyywwwyuuujuyy>@>>>>qqqwyyuyww>O@@#>>##@#@@oO+f21f+sfh",
"hdddflh<zzOO@@@OooOoOO@O@@@O@@@OooOoOO>O@@@O@@@@@@@@@.OO<h2s,<dhhdddflh<zzOO@@@OooOoOO@O@@@O@@@OooOoOO>O@@@O@@@@@@@@@.OO<h2s,<dh",
"hdddhfD<zzuVjjZ4jVNVAAAVVVuVAAN49VNVAVAAAAAAAANq<>q4@..,,<ddO2dhhdddhfD<zzuVjjZ4jVNVAAAVVVuVAAN49VNVAVAAAAAAAANq<>q4@..,,<ddO2dh",
"d<1<<,2<2,qyqyjq#yuuMNmmuuyyNVV>yAANNNjMjjuuuuju@wq>@..O+.<,.,<,d<1<<,2<2,qyqyjq#yuuMNmmuuyyNVV>yAANNNjMjjuuuuju@wq>@..O+.<,.,<,",
"lz,ddhDcGzyywhj#>jjjjuuumjjjmNA@qmVNMmMmMjjjuyuy@9q#@o++@,,ddlcllz,ddhDcGzyywhj#>jjjjuuumjjjmNA@qmVNMmMmMjjjuyuy@9q#@o++@,,ddlcl",
"cc2sdlzcczyhf5p4>yjjwpujjjj9uuAo$jmMymjmuujjjuju@9>>@o+++,<dfdllcc2sdlzcczyhf5p4>yjjwpujjjj9uuAo$jmMymjmuujjjuju@9>>@o+++,<dfdll",
"lz<2ddzcDd9py5p29pywpwyujuwj9uAo$wum%MMMmNNmmjuy@q4#@o+O+,,2dhlllz<2ddzcDd9py5p29pywpwyujuwj9uAo$wum%MMMmNNmmjuy@q4#@o+O+,,2dhll",
"zz,,ddzccdpyu5p65uyky5wup55jwMMoo@w%wMyNNVNMMmuw@#9#@o+.+,<22hllzz,,ddzccdpyu5p65uyky5wup55jwMMoo@w%wMyNNVNMMmuw@#9#@o+.+,<22hll",
"zz,,<dhcldww5uw=--kyy%ua5aww55Vo@,%w5wyNVZNNMMjyOO4#@o#++,,<2fllzz,,<dhcldww5uw=--kyy%ua5aww55Vo@,%w5wyNVZNNMMjyOO4#@o#++,,<2fll",
"zz,<2dh2dlMjuw8&%-wp5%p5ywmq5wwO@@%.&5wyVZNuNNjq@@9#@o,@,,,,1dlzzz,<2dh2dlMjuw8&%-wp5%p5ywmq5wwO@@%.&5wyVZNuNNjq@@9#@o,@,,,,1dlz",
"cz,,2dhzchyujq:6-85di5e5uuw9555oX%.++&&$4yNuyyy4@###@.@@,@,,*dhzcz,,2dhzchyujq:6-85di5e5uuw9555oX%.++&&$4yNuyyy4@###@.@@,@,,*dhz",
"df@,,dhchdooOO5==&&&%&%%OoOO=O@&&%OOO.  .oOO>O@q@#@@@.+++<*<<2lddf@,,dhchdooOO5==&&&%&%%OoOO=O@&&%OOO.  .oOO>O@q@#@@@.+++<*<<2ld",
",d<,,,,11djVNuuVNVNjy5w99&5w9wAjjwAAAAAVN>NVNVAuyuyq@.OO+++O+<s<,d<,,,,11djVNuuVNVNjy5w99&5w9wAjjwAAAAAVN>NVNVAuyuyq@.OO+++O+<s<",
"cDlzzcD,cDqyuyyMjMjjuuuuMqwjjjyV9AAVMNMuMq9yuuuywy>#@o++,,sd+<llcDlzzcD,cDqyuyyMjMjjuuuuMqwjjjyV9AAVMNMuMq9yuuuywy>#@o++,,sd+<ll",
"hzfhhlh,zcyuuujmMMMjjjuyj>4ujMMyyMNVmmjuN#>ujMMuyq4>@.O@<<dfO21lhzfhhlh,zcyuuujmMMMjjjuyj>4ujMMyyMNVmmjuN#>ujMMuyq4>@.O@<<dfO21l",
"zlhdhhf1ccyyyjjjMjuujjyuM44yjjjwwjjmmjjuM#>uMuuyy9>#@oO@<<df<1slzlhdhhf1ccyyyjjjMjuujjyuM44yjjjwwjjmmjjuM#>uMuuyy9>#@oO@<<df<1sl",
"hhhfhhf<hzyuyjyuuuujjjuuu#4tjjjwjujuujuuu@4yjjuyq>>#@o.+22ff,,shhhhfhhf<hzyuyjyuuuujjjuuu#4tjjjwjujuujuuu@4yjjuyq>>#@o.+22ff,,sh",
"hddhhhf<hcyujMMjjujbmjjjy#4yujMjuuuuujMjy#>wuMMuw>>#@o.O,shf@,shhddhhhf<hcyujMMjjujbmjjjy#4yujMjuuuuujMjy#>wuMMuw>>#@o.O,shf@,sh",
"hddhzhf1hzyyujjujjnmmmjjj@>4yuuyujuyyjjjj##qyuuy4#4#@o.+,ddd,,shhddhzhf1hzyyujjujjnmmmjjj@>4yuuyujuyyjjjj##qyuuy4#4#@o.+,ddd,,sh",
"dddflDhfhl4yuuyuujmMjujjuO#>yy>>wuyw9wuju#>>99q94###@.+@2d<s,<dldddflDhfhl4yuuyuujmMjujjuO#>yy>>wuyw9wuju#>>99q94###@.+@2d<s,<dl",
"dddddhf,d2>>qwwwyuuuju9>@o#qq9>#9ywwuwwyy##@@@>#>>>#@.,,22,d+<2ddddddhf,d2>>qwwwyuuuju9>@o#qq9>#9ywwuwwyy##@@@>#>>>#@.,,22,d+<2d",
",,,<,,d2,@O.@@@OooOoOO>O@@@O@@@OooOoOO>O@@@o.O@@@@@@@..O,OO++,,,,,,<,,d2,@O.@@@OooOoOO>O@@@O@@@OooOoOO>O@@@o.O@@@@@@@..O,OO++,,,",
"hz@1zhzGxzjZjjZ4NVNVAVNAAAAAVNN4NVNVAVNVNZVVVNNq#wy9@o@+,,dddlllhz@1zhzGxzjZjjZ4NVNVAVNAAAAAVNN4NVNVAVNVNZVVVNNq#wy9@o@+,,dddlll",
"dl@1dlccvzyyyuj9yyuuuMNMNjuuuuM>wyuuuMjMjjuuuujy>>##@o++,<12dfhldl@1dlccvzyyyuj9yyuuuMNMNjuuuuM>wyuuuMjMjjuuuujy>>##@o++,<12dfhl",
"hz,,dlccxzyyyjj4yyjMMMnmmjjjuyj#qjjjmMmmMjjjuuuy@#9#@o@+,d2<dfhlhz,,dlccxzyyyjj4yyjMMMnmmjjjuyj#qjjjmMmmMjjjuuuy@#9#@o@+,d2<dfhl",
"lz,,dhcczzyyyju>yyjjjjMjuujjyyj#yumjmjjmjjjjyujy##>#@o@+@<d2sdhllz,,dhcczzyyyju>yyjjjjMjuujjyyj#yumjmjjmjjjjyujy##>#@o@+@<d2sdhl",
"ld,,ddzxxlyyyjy@yujjjjjuujjuyyy#yjmjjjjuujjjuuuy@@#@@o@+@,<fddhlld,,ddzxxlyyyjy@yujjjjjuujjuyyy#yjmjjjjuujjjuuuy@@#@@o@+@,<fddhl",
"zd,,dfzvzzyuujy>yyujjujuubmuwq>@yjMMMjjuujjjmMjy@#@#@o++@,,shfhlzd,,dfzvzzyuujy>yyujjujuubmuwq>@yjMMMjjuujjjmMjy@#@#@o++@,,shfhl",
"dd,,dfzllhyMjMy>ywyujujMjjmjuVMOqwjjjujmmnmjmjjy@@@#@.+++@,<ghlldd,,dfzllhyMjMy>ywyujujMjjmjuVMOqwjjjujmmnmjmjjy@@@#@.+++@,<ghll",
"dd,,<dzfdduMjuu@wqyyywuujjjujuw.>>uuyuujmmjujjjy@@@@@.+++@@,<hfldd,,<dzfdduMjuu@wqyyywuujjjujuw.>>uuyuujmmjujjjy@@@@@.+++@@,<hfl",
"@,,,,,d2<Oyuju@@>qq9449qwuuuyq$..@>wwwyuuujuyyyw>@@@@.OO+++O+,f,@,,,,,d2<Oyuju@@>qq9449qwuuuyq$..@>wwwyuuujuyyyw>@@@@.OO+++O+,f,",
"zzlzzzh<dlooO.>@@O@@.   ooOO>O@@@O@@@OooOoOO>O@y#@@@@o2<s<2f,<czzzlzzzh<dlooO.>@@O@@.   ooOO>O@@@O@@@OooOoOO>O@y#@@@@o2<s<2f,<cz",
"chdhlczdzhjVNVAVNVNN$.$q @NVNVAVNVNAAAANN4NVNVAuw49>@.@<2sdf,2lcchdhlczdzhjVNVAVNVNN$.$q @NVNVAVNVNAAAANN4NVNVAuw49>@.@<2sdf,2lc",
"lfdfhcz<zh9yuuuMNNu;@oOy >yyuuuMjMjjuuuuMyyyuuuy>>>#@.++,sfh<,fllfdfhcz<zh9yuuuMNNu;@oOy >yyuuuMjMjjuuuuMyyyuuuy>>>#@.++,sfh<,fl",
"lfdfhzz5a59yuMVVNuq;O$ySA#9yuujjjjjjyyu554yujMMu4>##@.++<<fhs2hclfdfhzz5a59yuMVVNuq;O$ySA#9yuujjjjjjyyu554yujMMu4>##@.++<<fhs2hc",
"chf=#7d55->4juujuq$;4yMMN>9>wujuuuujww5uM9uwuyuy4#@@OoO+,<sd22hzchf=#7d55->4juujuq$;4yMMN>9>wujuuuujww5uM9uwuyuy4#@@OoO+,<sd22hz",
"zlhh68idpi>9yywq44$yMVVMu###9yuyw5uy>5yuu>ywwyyw#@@OOoO+,<ss22hlzlhh68idpi>9yywq44$yMVVMu###9yuyw5uy>5yuu>ywwyyw#@@OOoO+,<ss22hl",
"llzz%&>dzh>>yq4>444yNNM95###9wyy9=9u&qwjy>w9yuyq#@@#,#,<sddfdflzllzz%&>dzh>>yq4>444yNNM95###9wyy9=9u&qwjy>w9yuyq#@@#,#,<sddfdflz",
"JJJJJJJJJGDzl9>4u$y9M9m55O#@##9>>=>y&59yj@>>9qq4@O@dhDDGGGGGGGGGJJJJJJJJJGDzl9>4u$y9M9m55O#@##9>>=>y&59yj@>>9qq4@O@dhDDGGGGGGGGG",
"JGGFDFHGDclDzw9yu4q5j555uO@@>##>&&>&&&55&o>>4>>@@O@fzllcFFFFDDDGJGGFDFHGDclDzw9yu4q5j555uO@@>##>&&>&&&55&o>>4>>@@O@fzllcFFFFDDDG",
"cDczzllczllcD>>495559555@@O@#@@@==%=w5=&%@@qq#O@@O@fchhhxzzzcccccDczzllczllcD>>495559555@@O@#@@@==%=w5=&%@@qq#O@@O@fchhhxzzzcccc",
"DllllllhhhllD@@O%o&%&&&O@@@O@@@&%%%oOO@..@@O@OO@@@@dlffhhllzzzlDDllllllhhhllD@@O%o&%&&&O@@@O@@@&%%%oOO@..@@O@OO@@@@dlffhhllzzzlD",
"hhlcDllhhhlDGVVNMZV44VVVVNMZ4VVVMw449www9MZV44Vuu@@dlhhfhllDcllhhhlcDllhhhlDGVVNMZV44VVVVNMZ4VVVMw449www9MZV44Vuu@@dlhhfhllDcllh",
"llcccclhfhlDGMMmjmN9yyuMMmju99M959=yyu9&5juN999##>@dlhhhhlccccllllcccclhfhlDGMMmjmN9yyuMMmju99M959=yyu9&5juN999##>@dlhhhhlccccll",
"llcclllhfhlcGjjjujM49jujjjjy4yu559&9ju%%555949y>#@@,dllfhlllcDDlllcclllhfhlcGjjjujM49jujjjjy4yu559&9ju%%555949y>#@@,dllfhlllcDDl",
"clcllllhlllcGuuujju>>9yuuuju>9yjj5&@yy%5jjju>>q>@@@ffdfhlllllcDcclcllllhlllcGuuujju>>9yuuuju>9yjj5&@yy%5jjju>>q>@@@ffdfhlllllcDc",
"lllllllllllcGuuuujy@>4yuuujy@#uu=5@@4y5u%5jy@>9#@@@flhfflhllllcDlllllllllllcGuuuujy@>4yuuujy@#uu=5@@4y5u%5jy@>9#@@@flhfflhllllcD",
"hhhhhllllllDGwuuuyj@@94wuuuy@>wuuj@@94wu55uj@@>#@@@flllhhhlhhhhhhhhhhllllllDGwuuuyj@@94wuuuy@>wuuj@@94wu55uj@@>#@@@flllhhhlhhhhh",
"2fgghllllllDG999y9y@O@#@9yuy@O>9y9@@@#>yy5yy@@@#@o@fllllllhfggf22fgghllllllDG999y9y@O@#@9yuy@O>9y9@@@#>yy5yy@@@#@o@fllllllhfggf2",
"hddhhlcccccDDOoOO>@@@OoooOO>@OOoO@@@O@OoO&>@@@O@@oohlccccclhhddhhddhhlcccccDDOoOO>@@@OoooOO>@OOoO@@@O@OoO&>@@@O@@oohlccccclhhddh",
">@@@@X@@@X@XXX@@@@@@@X@@@@@@@@@>O>@@@@@@@@@X@@@@@@@XXX@X@@@X@@@@>@@@@X@@@X@XXX@@@@@@@X@@@@@@@@@>O>@@@@@@@@@X@@@@@@@XXX@X@@@X@@@@",
"4y>q>49qqyujtuuuuuuMjjuuyjjjuyjA#4qyuuujVjMjjjjMjuuMjjuuuuyujjVN4y>q>49qqyujtuuuuuuMjjuuyjjjuyjA#4qyuuujVjMjjjjMjuuMjjuuuuyujjVN",
"4y4q9qyyyyuujMMjjjMVMMMMjjjjujNZ##9wyuMMVVNVVVVVNMMMMMMNMMMMMNNZ4y4q9qyyyyuujMMjjjMVMMMMjjjjujNZ##9wyuMMVVNVVVVVNMMMMMMNMMMMMNNZ",
">r94qqyyuujjuuuuuuuuuuujuuuujMNZ@#>wujjMMMMMMMMMjjMMMMMMMMNMuNCB>r94qqyyuujjuuuuuuuuuuujuuuujMNZ@#>wujjMMMMMMMMMjjMMMMMMMMNMuNCB",
">r4>9yyyuujuuyyujjuuuuyufyuyjMVZ@@>yuNNMjuujMjjjuuyyuujjjjjMjNVC>r4>9yyyuujuuyyujjuuuuyufyuyjMVZ@@>yuNNMjuujMjjjuuyyuujjjjjMjNVC",
"oq444yyyyyuuyyyyujjjuuffppyyjMZj6>9uuyyyyyujjjjuuyyyyuuuuujMMNVVoq444yyyyyuuyyyyujjjuuffppyyjMZj6>9uuyyyyyujjjjuuyyyyuuuuujMMNVV"
};
