/* XPM */
static char *temple_south[] = {
/* columns rows colors chars-per-pixel */
"128 128 72 1 ",
"  c gray10",
". c #1D1D1D",
"X c #322418",
"o c gray13",
"O c gray14",
"+ c #282828",
"@ c #2A2A2A",
"# c #2C2C2C",
"$ c #3B2F2C",
"% c #243924",
"& c #273628",
"* c #2C322C",
"= c #2B362D",
"- c #2F3A2C",
"; c #2C3E2C",
": c #353128",
"> c #39352D",
", c #3F392B",
"< c #323032",
"1 c #333435",
"2 c #353A3A",
"3 c #38383D",
"4 c gray24",
"5 c #463E1F",
"6 c #44392E",
"7 c #31422B",
"8 c #364C2A",
"9 c #38572A",
"0 c #374E32",
"q c #46412F",
"w c #5B452D",
"e c #504130",
"r c #534832",
"t c #40593A",
"y c #624128",
"u c #66422E",
"i c #6F4830",
"p c #604D38",
"a c #6C553B",
"s c #43612E",
"d c #4D6B33",
"f c #557438",
"g c #3F3F45",
"h c gray27",
"j c gray31",
"k c #464650",
"l c #4C4D55",
"z c #585858",
"x c #795C41",
"c c #5E5F6C",
"v c #7E4F69",
"b c gray39",
"n c gray43",
"m c #676773",
"M c #767676",
"N c #72727D",
"B c #8A573D",
"V c #846746",
"C c #956D4B",
"Z c #9E7550",
"A c #A46749",
"S c #AB7E54",
"D c #B07254",
"F c #8D5676",
"G c #B58A5D",
"H c #C2986D",
"J c #838383",
"K c #868693",
"L c #929292",
"P c gray63",
"I c #A4A4AC",
"U c #D3AC83",
/* pixels */
"oe6e6pppwppppppppaaprpppppexxZGGo,,ppqppppaZCaxxxrrppppppppaxSSSoe6e6rpppprapppppxapppppppppxZGGO,6ppqppppaCCxxxappprppppppaxSSS",
"oe,66e66qerrrrrpppprrrrpppexxGCj.6wpqqprprq6,6errrrrrrrprqqaxCCSoe,66e666rrrrrrpprrrrrrppppaxGZp.,ppqqpprrqq66qprrrrrrrprqqaxCZS",
"o,paaappaaxxxxxxxxCCCCCCSSZZCS6#Oo#rSZZZZxaarraaxxxxVaxxxaaxxxxSo,wxaaraxaxxxxxxxxCCZCCCZZZZCZq#oo#rZZSZZxaarraxxxxxxxxxxaaxxxxZ",
"@@,e6y4p#6..o..........##. o .....o..........oo oo...O3*OOXo>@q2@@,e6yhe#6.............@#..o.........................O2++OXO>+q2",
"bMljbJJJh@,####@#@@@@@##8o 666,,q,.#####@@#+#++#@@@@#O12121<<<<3bMllbJJJh#,######@@@@@##8o.66,,,q,.@++@@@@@@@@@@##+#+O12121<1<<3",
"bnhhzbnJb<6<>,>,>>>@@@89##,6r6,,661o+$:6@+++++++++@@#@o1<112hjbhbnhhzbnJb<61>,>,>>>+@@89##,6r,66,,>o+>>6@+++++++++#++#O<<112hjbh",
"zn<3hzbMKh,>>,,,,>,g>ttt0rVVVo.wrraVe+,6q++66>>+++@@@@1@21<<<hbjzn<2hzbMKh6>>,,,,>,4>00t0rVVVoorrraVe+>6q++66>>++++##+<#21<<<hbj",
"bn@1hznMKj6qq,,6,>0,00-0aGGS++@OrrVCCCC,6++rr6re>+@@@@<2h4223hhjbn@1hznMKl6q6,,,6,0>ht70aGGS+++orrVCCCC>,+@rr,re>+#++#<2h4223hhj",
"zn<1hznJMnpxZZaarqs8880rGGGOO,.+o.raZSZr#+>qCCCx62##@O@<24213hhhzn11hznJMnraGZaarqs7880rSGS++,.+O.raSSSp#@>6CCCxe2##@O@<44313hhh",
"bb<h<zM7f7CGZCVr0q000s&VGG++X...,o.ewVGr++#>xCZaw4##@@@@@42g3hhhbb<h<zM7f7CGZZxwtq07ts&VGG++X...6o.epVZr#@@,xCZar2@#@@@@@4243hhh",
"hb@-@9h77;aZGVpqd00taa+,e+,X.....X++ow6#wGp6+eaVr,##@O@O@4422hjjhb@-@9h777aSSVrqs00taa+6r+,X.....X@+.r,+wGr6@exxr6##@O@O@4422hjj",
"hn1h80shdsppVxhss70VVxr+O+X ......XXooO,GGGw,6er26##@O<+@h4221hjhn1h80shdsrpVxkss-tVVxr+++X.......XXooo,SGGp,>er1,##@O<++h4221hj",
"@141%&,hbh,@hst7;qrGSGS+XX.........XX+orpGGGV,:+++##O++1o@3<@o2#+141%&6hbh,@hst7-qrSSGS+XX.........XX+orxGGGV,>@+++#O++<++3<+o3#",
"jnbnnbb1MMo4@80-qVSGGG,XXX.........+XXX>qCZGGS,,#.OOOOOgh2hjo1jhjnbnnbb1MM.4#88-qVGGGG,XXX.........+XXX>6CZGGS,,+OOOOO@4h2hjo1jh",
"jzzbnnb1MMrxs4,sVSGGS,XX++X.......++X.XX>,VSGGr,+,wq++113hjjO3bjjzzbnnb1MMrxs66sVSGGS,XX++X.......++X.XX>6VSGGr,+,pq@@<13hjjO3bj",
"jhhjbbn1Mh:s0@wrSGGSXXX..++X.....++X...XXXrVCGGe+>6*#:<+<4jzOhbzjhhjbbn1Mh1s0@prSGGSXXX..++X.....++X...XXXrVCGGr+>,#@<<+<4jzOhbz",
"zhhhzbb1nbqq>owaGGSXXX....@+X...XXX.....XXXeCGGSr<6#@o@@@1jj<hzbzhhhzbb1nbqq>orxGGSXXX....++X...XXX.....XXXeCGGGp*6#+o##+1jj<hzb",
"bhhhznz1nz7eo@wCGSXXX......@+X.XXX.......XXXpaGGG+6,@oo@<<hhOhzbbhhhznz1nz7eo+rZGSXXX......++X.XXX.......XXXppSGG+66#o.#<<hhOhzb",
"bhhhzbz1Mn;6>>pGGXXX........+XXXX.........XXXeZGG,6#@OO@1<hhogzbbhhhzbz1Mn-6>>rSGXXX........+XXXX.........XXXeZGG>6#+OO#1<hhogzb",
"bjhzzbn1zz#6o>aGGXXXXXXXXXXXXXXXXXXXXXXXXXXXXuaGG#6#@O++<22hO2zbbjhzzbn1zz+6o>xGGXXXXXXXXXXXXXXXXXXXXXXXXXXXXyaGG+6##O++<22hO2zb",
"jhhhzhh<zb@>o6pGGXXXXXXXXXXXXXXXXXXXXXXXXXXXX,aGG+6#@O+O@22ho2jnjhhhzhh<zb+>.>wGGXXXXXXXXXXXXXXXXXXXXXXXXXXXX6aGG+6##O+O@22ho2jn",
"hhhhh<h<<+@> >aGGXX....XXX....XXXXX.....XXXXX6pGG+##@OOooO+@<o@1hhhhh<h<1+#>.>xGGXX....XXX....XXXXX.....XXXXX5pGG+###OO.oO+@<o#1",
"bMjhnnJJLn@+ >aGGXX...XXXXX..XXX.XXX...XXX.XX5pGG+#OoO@O+@2hhzhhbMjhnnJJLn++.>aGGXX...XXXXX..XXX.XXX...XXX.XX6rGG+#O.O+O+@2hhzhh",
"znzjjznnnb.. :aZGXX..XXX.XXXXXX...XXX.XXX..XX:pGG+Ooo+@+@*23hhhbznzjjznnnb...>aZGXX..XXX.XXXXXX...XXX.XXX..XX,pGG+O.O+#+@*22hhhb",
"znzghjbMMb66o6aSGXXXXXX...XXXX.....XXXXX...XX,rGG+r6#O#+@@<1hjzzznzghjbMMb,6o6aZGXXXXXX...XXXX.....XXXXX...XX,rGG+re@O@+@@<1hlzz",
"zbzhhhnMMn@oo66GGXXXXX....XXXX......XXXX...XX,rZZ+###o@O@<1<3hjzzbzhhhnMMn@+.erSGXXXXX....XXXX......XXXX...XX,rZZ+##@o@o@<1<2hjz",
"bnzkhjnMMn@>o ooXXXXXX...XXXXXX....XXXXXX..XXXOoo+##@2@o@11134hbbnzkhjnMMn@>..ooXXXXXX...XXXXXX....XXXXXX..XXXooo+##@2+o@1<134hb",
"bnjgzjnMMn@@.,aGGXX.XXX.XXX..XXX..XXX..XXX.XXerGG###@hh441+234hzbnjgzjnMMn@+.>aGGXX.XXX.XXX..XXX..XXX..XXX.XXreGG@##@hhg41@234hz",
"znhjzbMMnn@>.>aSGXX..XXXXX....XXXXXX....XXXXX,wGG@@#@+@<hg4114lbznhjzbMMnn@>.>aSGXX..XXXXX....XXXXXX....XXXXX6pGG@@#@@@<hg6114jb",
"hh<gzznJnM@@o$pSGXX...XXX......XXXX......XXXX,pGG+6@@ooo++hgghzzhh<gzznJnM@+.>pSGXX...XXX......XXXX......XXXX6pGG+6#@ooo@#hgghzz",
"@<<@1g14hz@@@<aZGXX..XXXXX.....XXXXX....XXXXX,pGG>6@@oooOoo+<4h<@<<@1g14hz@+@>aZGXX..XXXXX.....XXXXX....XXXXX,pGG>,#@oo.Ooo+<4h1",
"znhbbJLhKJ@@O6aCGXX.XXX.XXX...XXX.XXX..XXX.XX6pGG+##@@@+377sohnnznhbbJLhKJ@+oeaCGXX.XXX.XXX...XXX.XXX..XXX.XX,rGG+##@@@Og7;sohnn",
"nnzjbMMhMn..oeaZGXXXXX...XXX.XXX...XXXXXX..XX,rGG+#ooOO@1f7d13zbnnzjbMMhMn..oeaZGXXXXX...XXX.XXX...XXXXXX..XX,pGG++ooOO@1f7d13zb",
"zjhjnnbhnh..oeaZGXXXX.....XXXXX.....XXXX...XX,pGG+O.o++@<77h<<bzzjhjnnbhnh..oqaZGXXXX.....XXXXX.....XXXX...XX,pGG+O.o++@<-7h<<bz",
"zhjhzMMhnjxroeaZGXXXX......XXX......XXXX...XX6pGG+r,@++@:2ht6:lbzhlhzMMhnjxroeaZGXXXX......XXX......XXXX...XX,pGG+p6@++@<2hs6<jb",
"hhhhznMhMj,+.eaZGXXXXX....XXXXX....XXXXXX..XX6pGG#:#@+o@2290&<jzhhhhznMhMj,+.exZGXXXXX....XXXXX....XXXXXX..XX,pGG+#*@+o@3390&<jz",
"jjhjbMn1nz6+oeaZGXX.XXX..XXX.XXX..XXX..XXX.XX,rGG+,#@<O@22#8%<hhjjhjbMn1nz,+oeaZGXX.XXX..XXX.XXX..XXX..XXX.XX,rGG+,#+1O@22#8%<hh",
"hhhzznb4nh,+.rrGGXX..XXXXXX...XXXXXX....XXXXX,aCZ+,#@+4@+<;hO@hhhhhzznb4nh,+.rwGGXX..XXXXXX...XXXXXX....XXXXX,aCZ+6#++0#+1;hO@hh",
"hhhhhhh1hh,O..OOXXX...XXXX.....XXXX......XXXXXOoo+##@OO@O<1j+<4hhhhhhhh1hh,+..ooXXX...XXXX.....XXXX......XXXXX..o+##+OO+o11j+<4h",
"1@<<1<111<,6.6SSGXX...XXXX.....XXXX.......XXXrrGG@@#@O.OOooOO<@@1@<<1<1111,,.eZSGXX...XXXX.....XXXX.......XXXreGG++##O.Ooo.OO<@@",
"zb1ggNNGnb,,.,VGGXX..XXXXXX...XXXXXX.....XXXX,rGG@@#@o@+<1hhhhjhzb<hhMJJnb,,.,VSGXX..XXXXXX...XXXXXX.....XXXX,rGG@@##o@@<1hhhhjh",
"gn1gjccnMM,,.>wGGXX.XXX..XXX.XXX..XXX...XXXXX,eFG+@@@o@@<341hjjbhn<hjzbnMM,,.>aGGXX.XXX..XXX.XXX..XXX...XXXXX,rFG@@@@.@@<331hljb",
"hn1ghjjnMn,+ ,xGGXXXXX....XXXXX....XXX.XXX.XX,rGG>@#@o@@+14<4hjzhn13hjjnMn,+.,aGGXXXXX....XXXXX....XXX.XXX.XX,pZG>@#@.@@@16#4hjz",
"jn17hhznMn ..,aGGXXXX......XXX......XXXXX..XX,wFG+@@@O@@<@433hjzjn<3hhznMn...,aGGXXXX......XXX......XXXXX..XX,pFG+@##O@@<@gg3hjz",
"bn12hhbnMnqr.6aGGXXXX.....XXXXX......XXX...XX,rGG+re@@@@@@13hhjzbn<3hhbnMnqr.,aGGXXXX.....XXXXX......XXX...XX6pGG+r6@@@@@@12hhjz",
"hh<0hjnMMb,+.1aGGXXXXX...XXX.XXX....XXXXX..XX,rFG+q#@@@@@11gjhhzhh<4hjnMMb,+.>aGGXXXXX...XXX.XXX....XXXXX..XX6wFG+e#@@@@@11gjhhz",
"hn<1hjnMbz,+ >aGGXX.XXX.XXX...XXX..XXX.XXXoXX6pGG+6#@O22@@24gjjhhn<1hjnMbz6O.>aGGXX.XXX.XXX...XXX..XXX.XXX.XXewSG+6#@o22@@24hjjh",
"hn<<1hhnhh,+.>rGGXX..XXXXX.....XXXXXX...XXXXX6hSG+,#@+<@@@@2gjjjhn<<1hhnhh,@.>rGGXX..XXXXX.....XXXXXX...XXXXXehGG+6#@@<@@@@2gjjj",
"4h<hho<<126+.>rGGXX...XXX.......XXXX.....XXXXrrSG+6##oO+<@@@@2h14h<hho<<<4,+.>rGGXX...XXX.......XXXX.....XXXXrrSG+,#@.O@<#@@@2h1",
"lbbnnMKhMM,+.>wGGXX..XXXXX......XXXX......XXXr6SS+##++<14hjz+hjzjbbnnMKhMM,+.>pGGXX..XXXXX......XXXX......XXXreZZ+##@+<14hjz+hjz",
"nbjhbMn1Mn,+..ooXXXoXXX.XXX....XXXXXX....XXXXXOo.+,+@@#2jjjj@3jbnbjhbMn1Mn,+..ooXXX.XXX.XXX....XXXXXX....XXXXXoo.+,@@+@4jjjj@2jb",
"bbzhznn1Jh,+.eaGGXXXXX...XXX..XXX..XXX..XXXXXrrGG+,+@@<2hhzjO<hhbbzhznn1Jh,+.eaGGXXXXX...XXX..XXX..XXX..XXXXXprGG@,@@@<2hhzjO<hh",
"zjhjznn6Mh6+o6pGGXXXX.....XXXXXX....XXXXXX.XXrrCG@@@@@@213jz@4hhzjhjznn4Mh6@.,pGGXXXX.....XXXXXX....XXXXXX.XXrrCG#@@@@@213jz@4hh",
"zhjjbnm3Mz...6pGGXXXX......XXXX......XXXX..XXrrSG@@O@@@<11gzO4jhzhjjbnn1Mz.o.,pGGXXXX......XXXX......XXXX..XXrrSG+#O@+@<11gzO4jh",
"zhhhzMb1Mjxro1wGGXXXXX.....XXXX......XXXX.oXXrrSG>66@+@<123j@4jhzhhhzMb1Mjapo<pGGXXXXX.....XXXX......XXXX..XXrrSG>e,@+@<123j@4jh",
"zhhhbbj1Mhrr.1rGGXX.XXX...XXXXXX....XXXXXX.XXerFG+,,@++@124j@hjjzhhhbbj1nhrr.1pGGXX.XXX...XXXXXX....XXXXXX.XXerFG+,,@++@124j@hjj",
"zhghzbn4bbr6.6xGGXX..XXX.XXX..XXX..XXX..XXXXXerFG+6@@++1114jO4zjzh4hzbn4bbr,.4aGGXX..XXX.XXX..XXX..XXX..XXXXXerFGO6@@@@1114jO4zj",
"h1<+@@<hh<6:O6rCGXX...XXXXX....XXXXXX....XXXXerFG+6@@O+OOOOo@14<h1<+@@<hh:,>oerCGXX...XXXXX....XXXXXX....XXXXerFG@,@@o@OOOOo@14<",
"nL<4nnJMJnq+o,VCGXX....XXX......XXXX......XXXerZG+6+@O4+<1hhjjbnnL<4nnJMJnq+o,VCGXX....XXX......XXXX......XXXerZG@6@@O4O<1hhjjbn",
"Mb1<jjbMJnr+o,VVGXX...XXXXX....oXXXX... ...XXerSG+,,@@<@<2247;sbMb1<jjbMJnr@o,VCGXX...XXXXX.....XXXX.......XXerSG@,,@@<@<2247;sb",
"nn13hhbMJM,>o>VGGXXXXXXXXXXXXXXXXXXXXXXXXXXXX6rSG+,@@@<+@@12f7dbnn13hhbMJM,>o>VSGXXXXXXXXXXXXXXXXXXXXXXXXXXXX,rSG@,@@@<@@@12f7db",
"nn<1hhbKLMq>o>CGGXXXXXXXXXXXXXXXXXXXXXXXXXXXXwaZG+O@@O@@<@1477hnnn<1hhbKLMq>o>CGGXXXXXXXXXXXXXXXXXXXXXXXXXXXXraZGOO@#O@@<@1477hn",
"Mn1<hhbJMJ,+++GGGUUUUUUUUXUUUUUUUUUHXXUUUUUUUrrZZ>O@@+@+<@12hhs,Mn1<hhbJMJ,+++GGGUUUUUUUUXUUUUUUUUUUXXUUUUUUUrrZZ>O@@O@@<@12hhs,",
"bh<<hhbJMn ..+GGraCVVCCVG.SSCxVCCVVFG.aVCVVCarraV6O@@<<O+<27f90&bh<<hhbJMn...+GGraCVVCCVSoSSCVVCCVVvZoaVCVVCarppV6O@@<<o@<27f90&",
"bh@<<hnJJJpr+>o,,,,,,,,pro>,,,,,,,,,,o,,,,>rr,,rrr,6@@@-#9h77#8%bh@<<hnJJJrr#,o,,,,,,,,rrO>6,,,,,,,,,o,,,,>rr,,rrr,6@@@-#9h77#8%",
"h3<<14hnbM,+...+++++++++>.+++++++++++.++>>oo+++>>r,#@@OO80shd-hhh3<<14hnbM,+...@+@++++++,.+++@+++++++.++>>ooO@+>>r,#@@oO80shd-hh",
"<h14<<114<,@@OO,,,,OOOO,6@OOO,,,,,,@@@@@,.@@@,,@,re#@2@o%&,@@4@1<h14<<114<,@@oo6,,,OOOO,6@oOO,,,,,,@@@@@,.@@@,,@6re#@2@o%&6@@4@1",
"bnbnnbb1LK,,,,,,,,,,,,,,,,,,,,,,,,,,,,,,r.,,,,,,er6#@+4@<<2hO4znbnbnnbb1LK,,,,,,,,,,,,,,,,,,,,,,,,,,,,,,r.,,6,,,rr6#@@4@<<2hO4zn",
"bnbzMKb1MMppep,qqqqrrrqqq,,rrprr,,rrrrqqx.,prrr,6e6#@O<414hjohjbbnbzMKb1MMppep,qqqqrrrqqq,,rrprr,,rrrrqqx.,prrr,6e,@@O<414hjohjb",
"hhzz7;s4MnppaCxaappaxxaxpqpprppreraxxaaaZ@exCCCare6#@@O@21hjOhjzhhzz7;s4MnppaCxaappaxxaxpqpprppr6raxxaaaZ@exCCCare6#@@o@21hjOhjz",
"bhhhf7d4MnppaxxaxxxVVxxxx,prpppreraxxaaax#,axxxpe6##@@@+42hho4zbbhhhf7d4MnppaxxaxxxVVxxxx,prppprrraxxxaax#,axxxpe6##@@@@42hho4zb",
"bnhh77h4MnpppapaxxVxxaxxa#qqerpreraxapaaa6,6pppe6###@@@1j4hjO3hbbnhh77h4MnpppapaxxVxxaxxa#qqerpreraxaraaa6,6pppe6###@@@1j4hlO2hb",
"hh3hhhs,Mnepprrrpaaaxapp,@,,,,eeerppaprr,O@@#,,####@@O+@hggjo2hzhh2hhhs6Mnerprrrpaaaxapp,@,,,,eeerppapre6O@@#,,##@#@@O+@hhgjo2hz",
"bhhjh90&nnOO@@@OooOoOO@O@@@O@@@OooOoOO,O@@@O@@@@@@@@@++@2ggho<hzbhhjh90&nnoo<#@OooOoOO@O@@@O@@@OooOoOO6O@@@O@@@@@@@@@++@2ggho<hz",
"bh4jb#8%MnaSxxG6xSZSHHHHHHxHHHZ6qSZSHSHHHSSCSHZe1,e6@O+12hgjO1jbbh4jb#8%MnaGxxG6xSZSHHHHHHxHHHZ66SSSHSHHHSSCSHZe1,e6@O+12hgjO1jb",
"h1ghh-h441epepxe#paaaZZZxxaaZSS,pZZZCCxCppeepaxa@7;s@O++@31+@<12h1ghh-h4g1ew6pV6#paaaZZZxxaaZSS,rZSCCCxCppeepaxa@7;s@O++O41@@<12",
"nn4hhbJMLnpprax#rZxCCVVVxxxxVZV@aZCVVCCxaeaaapap@f7d@@<2#2khhzMbnn4hhbJMLnppwax#rZxCCVVVxxxxVSx@aSCVVCCxaeaaapap@f7d@@<2@2khhzMb",
"nn14jbnMMnpaaaa6rxVCxxqVxaxxVxzoaSCVaxCpe6axpaxa@77h@O@<<<hjhjnbnn14jbnMMnpaaaa6rxVCxxqVxaxxVxzoaSCVaxCpe6axpaxa@77h@O@<<<gjhjnb",
"nn<<hjnMJnpaxxp#rxVZqqxxaxxxVaaopSZVVxaeexxxaaap@ehs,@2@1344hjnbnn1<hjnMJnpaxxp#rxVZqqxxaxxxVaaorGZVVxarexxxaaap@ehs6@2@1444hjnb",
"nn<<hjbMMbpxVxp OrZrZCCVVxVVVxaoqVZCVxappCVxxxar@#90&<2O@1h33jbbnn<<hjbMMbpxVxp.OrZrZCCVVxVVVxao6VZCVxarpCVxxxar@#90&<2O@1g43jbb",
"nb<<1hbnMnaxVae oO-xCZZCV7xBVVSo6aVZCVaaxVVVxxxpOO#8%o<@+<23kjzbnb<<1hbnMnaxVae oO-xCZZCV8xBVVSo6aVZCVaaxVVVxxxpOO#8&o<@+<23kjzb",
"nb<<1hznMbCCxp6.o&Or7CqZx7a777xO#raaxxaaxVxxxxxe+#;##o+@@@1*3zzbnb<<1hznMbCCxp6.o&Or7CqZa7a777xO#raaxxaaxVxxxxxe@@-##.@@@@1*3zzb",
"nn<<3hznMbpaxaoo+%O:-7qq7%-777qoX,6prrpppppappp6+###@O@@@+1@*jzbnn<<3hznMbpaxaoo@%o:-7qq7%--77qoX,6prrpppppappp6@###@O@@@+1@*jzb",
"4j@<1hzMbhooOOo@@.%&@&o%%o&O,O@OOO@@@OooOoOO,O@e##+#@O+O+@@<<2bj4j@<1hzMbhooOOo@@.%&@&o%%o&o6O@OOO@@@O..OoOO,O@r@#@@@O@O+@@<<2bj",
"41<<<<<13hxSZZGSZSZGx7r&-,xSZSHHHHHHHHHSZ,ZSZaaapape#oOooOOoo<2h41<<<<<13hxSZZGSZSZGx7r&-6xGZSHHHHHHHHHSZ,ZSSpaawxrr#OOo.OO..12h",
"bnbnbnJ@nJepVVCCCCCVa7q7qerxxxZSSGGGSSCCCeqpaVVprp6##+#o+<hho@zbbnbnbnJ@nJepVVCCCCCVa7q7q6rxxxSSSGGGSGCCCeqpaVVprr,#@@@O@1hho@zb",
"bbbbbbn<bMppaxxVVVxxxax77,6axCVCCZCCVrxVZ#,axCCapr6,@o+@@1hhO<3zbbbbbbn<bMppaxxVVVxxxax77,6xxCVCCZCCVrxVZ#,axCCape6,@O@@#1hhO<3z",
"zzzbbbb3nnppaaxxxxxxax77q66pxxVxxxaaxraxC#,aCaapwq,##++#<*hh<<hzzzzbbbb3nMpraaxxxxxxax77666rxxVxxxaaxeaxC#,aCaappq6*@@O@<*hh<<hz",
"zhzjbbn1zbppaaxxxaaxxa7a7#6iaxxrxaaxxxqaq@6pxxape,,#@oO+<1hh<1hzzhzjbbn1zbwpaaxxxaaxxa7a7#6iaxxrxaaxxxqaq@6rxxap6,6#@Oo@<1hh<1hz",
"zhzzznb4znpaaaaaxxxxxxxx7#6wpaxaqaaaxxrqq#,raCxpr,,##oo@@2hh<<hzzhzzznb4znrxaaaaxxxxxxxx7@6wpaxaqaaaxxrqq#,raZxpw,,#@O.@@2hh<<hz",
"bhzzbbn1bnppaxaxaxxVxVxx7@>qpappq7qpqaxrr##epaar6#6#@2oo@1hh<*hbbhzzbbn1bnppaxxxaxxVxVxx7@>qpaprq7qpqaxrr##epaae6*6#@2.O@1hh<*hb",
"hjjjzbjhjb6paaapxxBVxaxxaO#,pperr7qpqrarq#,,qqeq6###@44441<h<*4zhjjjzbjhjb6papxrxxBVxaxxaO#,pprrr7qpqrarq#,,qqeq6###@44441<h<*4z",
"hhhzjzj4h4,,errrpaaaxaq,@o#eeq-=777ra777q##@@@,#,,,#@++<hg4ho@2hhhhzjzj4hg6,errrpaaaxaq,@o#eeq-=777ra777q##@@@,#6,,##@@<hg4h.#2h",
"+<@1h4444<O.@@@OooOoOO,O@@@O@@@Ooo&oOO,O@@@o.O@@##@@@o..o+<<+<@@@<@1h4444<O.@@@oooOoOO6O@@@O@@@Ooo&oOO,O@@@o.O##@@@@#....@<<@<@@",
"zn@1nnnJMMxGxxG6ZSZSHSZHHHHHSZZ6ZSZSHSZSZGSSSZZe#rrq@O@O@@hhjnbbzn@1nnnJMMxGxxG,ZSZSHSZHHHHHSZZ6ZSZSHSZSZGSSSZZe#rre@O@O#@hhjnbb",
"zn@14nJPJMpppaxqppaaaCxCxxaaaaC,rpaaaCxCxxaaaaxp66##@@@@@<33hjbnzn@14nJPJMppwxxqppaaaCxCxxaaaaC,rpaaaCxCxxaaaaxp,,##@@@@@<33hjbn",
"nJ41hbKInnpppxx6wpxCCVVCCxxxapx#rxxCCCVCCxxraaap#*q##O#+@121hjzbnJ41hbKInnpppxx6ppxCCVVCCxxxapx#exxCCCVCCxxraaap@#q#@O@+@121hjzb",
"bn<1jbJLnnpppxa6ppxxxxVxaaxxppx#pxxxVrVxaaxrpaBp##,#++++@112hhbbbn<1jbJLnnpppxa,ppxxxxVxaaxxppx#pxxxVrVxaaxrpaxp##6#@+@+@112hhbb",
"nh<<hzJPnnpppxp@rxxxxxxaaxxxppp#pCVVxxrqaxrraaaa++#+#+#+@<<2hhzbnh<<hzJPnnpppxp#paxxxxxaaxxxppp#pCVVxxrqaxrraaap@@#@@+@+@<<2hhzb",
"nh<<hhMJMnpaaxp6prxxxxaaxxxaap,#pxxVxxxrxrrr6aaj####++++*@<1hjzbnh<<hhMJMnpaaxw6ppaxxxaaxxxaap,@pxxVxxxrxrrrqpxp@#@#@++@*@<1hjzb",
"hj<<hhnMbbpCxCw6prpxaaaxxVxaxaCOerax7xar77aVV-7r+#+###+O@@1<1hzbhj<<hhnMbbpCaCp6prpaaaaxxVxaxaCOerxx7xar77xVx7;p@@@#@@@O@@1<1hzb",
"hh<<1hnjhhaCxar+rerrprpaxxxaxxr.,6aa7qarr77qrr7w#+##++4OO@@<<4hbhh<<1hnlhhaCVaw#reprpppaxxxaxxr.,,aa7qarr77qrr;p@@@@@+4OO@@<<4hb",
"+<<<<<h3<oraxr>#6eeqq66raaaapp,..@6r;;;;q77a7q7w,+#+#OO+oooO+<4<+<<<<<h31opax6>#,eeqq66raaaapp,..@6r;;77q77a7q-r,@@@@OO+oooO+<4<",
"nnbnnnb1hbO  .O.#O@@#+ooOoOO,O#+@o+@#OoO++O&-O#p##+#+++<3*<j<1bznnbnnnb1hbo.  oo@O@@@OooOoOO,O@@@O@@@oo@O@O&-O@p#@@@@++<2*<j<1bz",
"nzhhbMnhnbxxe:O>eSZGZaHHo+ZSZSHSZGCHHHHSS6DSZSHxr6q,@o@<22hh14zbnzhhbMnhnbxxe:O>eSZGZaHHo@ZSZSHSZSZHHHHZZ6SSSSHar6q6@o+<22hh14zb",
"zhhhzMb1nbqepO.O>VSCVCZHo6paaaaCxCxxaaaaCjrraapr,,,#@oO+<4jh<1jbzhhhzMb1nbqrrO.O>VSCVCZHo,ppaaaCxCxxaxaaCrpraapp,,,#@oo+<4jh<1jb",
"zhhhznnhnzqpaa6.OaCVVCZDH#6raaxxxxxxrpppa6rxxCCa6,##@oO+@17f7<hzzhhhznnhnzqwaa6oOaCVVCZSH#qpaaxxxxxxppprx6pxxCZa6,##@oO@@17f7<hz",
"bhhhjnn1nz,6xxa@O66aaCCCZ,q,rpaapxxxzrpaCearxrxa6##+OO;#9h77;@jzbhhhjnn1nz66xxa#O66aaCCCZ,q,rpaarxxxjrpaCqaeapap6#@@OO-@9h77;@jz",
"bhhhbnn1nb,qppp6$666pppVa###qpprpajjssrxa6pqsarr#+<<o#o80shds<hzbhhhbnn1nb6qppp6$$$6pppxa###qpprpxljsswxa,rqsppr#@<<o@O80shds<hz",
"zhjzbMMhnz,,pppp66$6666p6###qrer>qshsskrd0qsrra6g#0#@<<02rhhhgjbzhjzbMMhnz,,pppp66>r666pe###qrer>qshsshrd0qsrpp6g#0@@<102rhhhgjb",
"LLLLLLLLLLLJzrreerww666pa+#@##q,ss0s6ssda0s00qd00874zMJJMMJJLLLLLLLLLLLLLLLJzrreeerp6$6paO#@##q,ss0s4ssfa0s00qst0874zMJJMMJJLLLL",
"mJJMMMKKMMMLJrqqqqqr6>epaO##,##8000,,09w07000ss707#jnbbnnNNKMLLLmJJMMMKKMMMLJrqqqeqw66epaO@@,##8000,680r07000ss007#jnbbnnNNKMLLL",
"cMnnzbbzzbnMJ,,6qrrrr6qp##O@#@7-6q,qqq70&7@er887777zMzbbbmbbjbMMcMnnzbbzzbnMJ,,6qrrrp6qp@@O@#@7-qq,qqq70&7@er087777zMzbbbmbbjbMM",
"JbbbbbbzzzbbJ@@OooOoOo6O@@#o@@@Oo.ooo+#..@@O8--@@@+jbjjzzzj4bbbJJbbbbbbzzzbbJ@#oooOoOO,O@@@O@@@OooOoOO@..@@O8--@@@+jbjjzzzj4bbbJ",
"zzbMJbbzzzbJLCSZCGS66GSSGSCG6SSSCG66CGSSZZGS,6Gaa@+hbzzjh<4JMbbzzzbMJbbzzzbJLCSZCGS66SSSSZCG6SSSCS66CSSSZCGS66Saa@+hbzzjh<4JMbbz",
"bbMMMMbzjzbJJVCxxaZqpaxCxaxaqqCCxZqppaVCaaaZqq6*@6+hbzzjh4MMMMbbbbMMMMbzjzbJJVZaxaZqpaVCVxxaqqCCxZqppaCCxxaZqqq##,+hbzzjh4MMMMbb",
"bbMMbbbzjzbMJxxaxpC66pxxxaxp6rxxxC66xxxxaVpC66w6#@+4bbb44zbbMJJbbbMMbbbzjzbMJxxaxpC6qpaxxaxp6pxxxC6qxaxxaxpC6qp,#@+4bbb44zbbMJJb",
"MbMbbbbzbbbMJaaaxxa,6rrxaaxa,qaaxa6@rraaaaaa66e6@@+4bbz4jbbjbMJMMbMbbbbzbbbMJaaaxxa,,rpaaaxa,qaaxa,@ppaaaxaa,,e,@@+4bbz4jbbjbMJM",
"bbbbbbbbbbbMLaaaxap@,qewaaxC#*aaap##6paaaVxp@6q#@@@jbbjzbzbbjbMJbbbbbbbbbbbMLaaaxap@,qepaaxC@#aaap@@6paaaxxp@,q#@@@jbbjzbzbbjbMJ",
"zzzzzbbbbbbJLraaapx##qqrppaa@6rpax+#q6rxaaax@@,+@@@zbbzbbbbzhjzzzzzzzbbbbbbJLraaapx@@qqrppaa@,rpax@@q6raaaax@@,#@@@zbbzbbbbzhjzz",
"4jkkzbbbbbbJLqqqpqp@O@#@qpap@O,qre#@@#,rpapr@@@#@o@hbbbbbbbzkkh44jkkzbbbbbbJLeqqpqp@O@#@qpap@O,qpq@@@#,ppapp@@@#@o@hbbbbbbbzkkh4",
"zhhzzbMMMMMJJOoOO,@@@OoooOo6@OOoO##@O@OoOO6@@@O@@oohbMMMMMbzzhhzzhhzzbMMMMMJJ+oOO,@@@OoooOO,@OOoO@@@O@OoOO,@@@O@@oohbMMMMMbzzhhz",
",@@@@X@@@X@XXX@@@@@@@X@@@@@@@@@,O,#*@@@@##@X@@#@@@@XXX@X##+X#@@@6++++X###X@XXX@@@@@@@X@@@@@@@@@,O,@@@@@@@@@X@@@@@@@XXX@X@@@X@@@@",
"6p,e,6qeepaxiaaaaaaCxxaapxxxapxH#6ewaaaxSxCxxxxCxaaCxxaaaaraxxSZ6w,e66qeepaaiaaaaaaCxxaapxxxapxH#6epaaaxSxCxxxxCxaaCxxaaaapaxxSZ",
"6p6eqeppppaaxCCxxxCSCCCCxxxxaxZG##qrpaCCSSZSSSSSZCCCCCCZCCCCCZZG6p6rqeppppaaaZCxxxCSCCCCxxxxaxZG##qrpaCCSSZSSSSSZCCCCCCZCCCCCZZG",
",uq6eeppaaxxaaaaaaaaaaaxaaaaxCZG+#,raxxCCCCCCCCCxxCCCCCCCCZCaZDA6uq6eeppaaxxaaaaaaaaaaaxaaaaxCZG@#,raxxCCCCCCCCCxxCCCCCCCCZCaZDA",
",u6,qpppaaxaappaxxaaaapappapxCSG##6paZZCxaaxCxxxaappaaxxxxxCxZSD,u6,qpppaaxaappaxxaaaapappapxCSG@@,paZZCxaaxCxxxaappaaxxxxxCxZSD",
"oe666pppppaappppaxxxaappppppxCGGo,6aapxappaxxxxaapparaaaaaxCCZSSor666pppppaappppaxxxaappppppxCGGo,qaapxappaxxxxaappppaaaaaxCCZSS"
};
