/* XPM */
static char *__0[] = {
/* columns rows colors chars-per-pixel */
"50 48 46 1 ",
"  c gray12",
". c #3B2713",
"X c #3A3319",
"o c #232323",
"O c gray15",
"+ c #282828",
"@ c #2C2C2C",
"# c #2C2C2D",
"$ c #2E2C2E",
"% c #322D22",
"& c #392B27",
"* c #3D3626",
"= c #363228",
"- c #382D34",
"; c #3F2F38",
": c #2C3031",
"> c #303032",
", c gray20",
"< c #323737",
"1 c #35353B",
"2 c #3A3A3A",
"3 c #4A271B",
"4 c #57371B",
"5 c #412921",
"6 c #423629",
"7 c #453F2A",
"8 c #4F3F2B",
"9 c #43333F",
"0 c #5B4326",
"q c #53472C",
"w c #674027",
"e c #704628",
"r c #604C33",
"t c #6D5536",
"y c #7B5C3C",
"u c #3D3D43",
"i c #323E49",
"p c #344557",
"a c #434343",
"s c #4E4E4E",
"d c gray34",
"f c #654160",
"g c gray39",
"h c #866741",
"j c #976E45",
"k c None",
/* pixels */
"kkkkkkkkkkkkkkkkkkkkkkkkkkkk sdaokkkkkkkkkkkkkkkkk",
"kkkkkkkkkkkkkkkkkkkkkkkkkkk rjjt%okkkkkkkkkkkkkkkk",
"kkkkkkkkkkkkkkkkkkkkkkkkkkkOtjjr&okkkkkkkkkkkkkkkk",
"kkkkkkkkkkkkkkkkkkkkkkkkkkk+rhhr6okkkkkkkkkkkkookk",
"kkkkkkkkkkkkkkkkkkkkkkkkkko%8yy06okkkkkkkkkkoajtOk",
"kkkkkkkkkkkkkkkkkkkkkkkkkko%80t0&okkkkkkkkkoryht7k",
"kkkkkkkkkkkkkkkkkkkkkkkkkko%8000&kkkkkkkkkksjjht6k",
"kkkkkkkkkkkkkkkkkkkkkkkkkko=8rr8&kkkkkkkkk thhtr*o",
"kkkkkkkkkkkkkkkkkkkkkkkkkko&qtt8%kkkkkkkkkahhtr8%k",
"kkkkkkkkkkkkkkkkkkkkkkkkkkO8ttt5okkkkkkkk hhrrq*Ok",
"kkkkkkkkkkkkkkkkkkkkuOOkkk%qjjt6okkkkkkkorhtr78%kk",
"kkkkkkkkkkkkkkkkkkO2qqook &0yyr&okkkkkkorthtr86+kk",
"kkkkkkkkkkkkkkkkkkOrttqok &0te0&okkkkk ryhtt8*+okk",
"kkkkkkkkkkkkkkkkkkOryyrOk &0ww0* kkkkkOrjhrq7+ kkk",
"kkkkkkkkkkkkkkkkkkOqttqOk &qrr0* kkkko&8yyrq=okkkk",
"kkkkkkkkkkkkkkkkkkO7r06@O+&rtr8* kkko&68qqq7+ kkkk",
"kkkkkkkkkkkkkkkkkkO7086O O6ttt8* kkk$frrr0q*Okkkkk",
"kkkkkkkkkkkkkkkkkk&888*O %8rtr8* kkOrjytrq7+ kkkkk",
"kkkkkkkkkkkkkkkkkk5886*%%*qttr7= oooryytrq*Okkkkkk",
"kkkkkkkkkkk  +kkkO6886=%%6rttr6%+o$stytrt7+ kkkkkk",
"kkkkkkkkkkOr%O kko6w*=%%%7tttq*OOOftyytrq*Okkkkkkk",
"kkkkkkkkk 78*Oo+k%676=%%*8qrrq*%&8tjytrq8%okkkkkkk",
"kkkkkkkkk 8q6% 53=6886=*88qqq8*64wttte086+kkkkkkkk",
"kkkkkkkkk 66=% 3678wr86*qrq*q8880tttwe08=Okkkkkkkk",
"kkkkkkkkk  @%%367q7rrq*qrhrq888rhhtrr087%okkkkkkkk",
"kkkkkkkkkk  %%*8q8qrrqqtttrqq88rhhtrqq77+ kkkkkkkk",
"kkkkkkkkkkk %*8rrq7rrqqrrtrqq8qrrtrqq777Okkkkkkkkk",
"kkkkkkkkkkk %%8rrqqrqqqrrqqqq8qrrrrr8877okkkkkkkkk",
"kkkkkkkkkkk %*8qrqqqqqqrqqq8qqrrtrrrq87=okkkkkkkkk",
"kkkkkkkkkkk %*8qqqqqqqqq8888qrrtttrrq86-+kkkkkkkkk",
"kkkkkkkkkk O=78qqqqqqqqq8878qrrttttrq889@kkkkkkkkk",
"kkkkkkkkkk+*788qqqqrqqq8778qrrtttttrq886@kkkkkkkkk",
"kkkkkkkkk ,68qqqqqqqqqq77768rrrttttrq882+kkkkkkkkk",
"kkkkkkkkk+=7qqqqq788qq866768qrrrrtrrq88<kkkkkkkkkk",
"kkkkkkkkoO=7qqqq877qqq865*568rrrrrrqq881kkkkkkkkkk",
"kkkkkkk  %*8qqq8*76677776**688qqqrqqq886,Okkkkkkkk",
"kkkkkk  %=7qqq876*****776*****888qqq88886, kkkkkkk",
"kkkkk @*=68q8877*==************666q8888882@kkkkkkk",
"kkkkk:=*6888877**=====****=*******68888887,okkkkkk",
"kkkkk:67q88777**=======**%%%********7888q8;kkkkkkk",
"kkkk ,7rqq777****=====%%%%%%%%%%*=***788qq2-Okkkkk",
"kkkk =78qq88877766*====%%%%%+%%%%%=***788q86=kkkkk",
"kkk  +%*677777777666**=%%%+++%%%%%=***678qq87&okkk",
"kk    O%%====**66******==%+++++%%%%=****6rqr76@ kk",
"kk  =*=%%++%%%===&&X====%%+OOO++%%%%%%%*688rr86+kk",
"ki28886=%++%%%%%%%%%%%%%%%OoooO++++%%%&&6688r88dkk",
"k 8rrr8*%%%%%%%%%%%%%%%%%++O    +++%%%5&566568q2+k",
"p dgggd*.***%%.%%%%%%%%%%%%+%  +%%%%%%%%%%%%%692kk"
};
