/* XPM */
static char *__1[] = {
/* columns rows colors chars-per-pixel */
"50 48 46 1 ",
"  c #3D2B1C",
". c gray14",
"X c #282828",
"o c #2A2A2A",
"O c #2C2C2C",
"+ c #3B2F2C",
"@ c #3C3621",
"# c #353128",
"$ c #39352D",
"% c #3F392B",
"& c gray19",
"* c #303031",
"= c #323032",
"- c #303334",
"; c #333435",
": c gray21",
"> c #3B3137",
", c #353A3A",
"< c #38383D",
"1 c gray24",
"2 c #432D27",
"3 c #4B2C22",
"4 c #44392E",
"5 c #573A24",
"6 c #41333B",
"7 c #46412F",
"8 c #5B452D",
"9 c #504130",
"0 c #534832",
"q c #66422E",
"w c #6F4830",
"e c #604D38",
"r c #6C553B",
"t c #3F3F45",
"y c #453741",
"u c #36404A",
"i c #384757",
"p c gray27",
"a c gray31",
"s c #585858",
"d c #795C41",
"f c #65445F",
"g c gray39",
"h c #846746",
"j c #956D4B",
"k c None",
/* pixels */
"kkkkkkkkkkkkkkkkkXpsa.kkkkkkkkkkkkkkkkkkkkkkkkkkkk",
"kkkkkkkkkkkkkkkkX#rjje.kkkkkkkkkkkkkkkkkkkkkkkkkkk",
"kkkkkkkkkkkkkkkkX+ejjrokkkkkkkkkkkkkkkkkkkkkkkkkkk",
"kkXXkkkkkkkkkkkkX4ehheOkkkkkkkkkkkkkkkkkkkkkkkkkkk",
"kXrjpXkkkkkkkkkkX48dd9#Xkkkkkkkkkkkkkkkkkkkkkkkkkk",
"k7rhdeXkkkkkkkkkX+8r89#Xkkkkkkkkkkkkkkkkkkkkkkkkkk",
"k4rhjjakkkkkkkkkk+8889#Xkkkkkkkkkkkkkkkkkkkkkkkkkk",
"X4erhhr.kkkkkkkkk+9ee9$Xkkkkkkkkkkkkkkkkkkkkkkkkkk",
"k#9erhhpkkkkkkkkk#9rr0+Xkkkkkkkkkkkkkkkkkkkkkkkkkk",
"kX40eehh.kkkkkkkkX2rrr9Xkkkkkkkkkkkkkkkkkkkkkkkkkk",
"kk#97erheXkkkkkkkX4rjj0#kkkoOykkkkkkkkkkkkkkkkkkkk",
"kkO49erhreXkkkkkkX+edd8+.kXX001okkkkkkkkkkkkkkkkkk",
"kkXO%9rrhde.kkkkkX+8wr8+.kO0rreOkkkkkkkkkkkkkkkkkk",
"kkk.O70ehjeXkkkkk.48qq8+.kO8dd0okkkkkkkkkkkkkkkkkk",
"kkkkX$0edd9$Xkkkk.%8ee0+.kO0rr0Okkkkkkkkkkkkkkkkkk",
"kkkk.O700094+Xkkk.%9ere$OO=48e7Okkkkkkkkkkkkkkkkkk",
"kkkkkX%08eeef=kkk.%9drr4O.X4987Xkkkkkkkkkkkkkkkkkk",
"kkkkk.O70erdjeokk.%90r00+.X%995$kkkkkkkkkkkkkkkkkk",
"kkkkkko40erddeXXX.$7edd0%##%4992kkkkkkkkkkkkkkkkkk",
"kkkkkk.O7rerdra=XO#40rr04##>4994XkkkO..kkkkkkkkkkk",
"kkkkkkko408rddrfOOX40rdr7###:4q4Xkk.X#eXkkkkkkkkkk",
"kkkkkkkX#90erdjr9+#%08009%##$474#kOXO%97.kkkkkkkkk",
"kkkkkkkkO408wrrrq54%0000994$4094$32.#409.kkkkkkkkk",
"kkkkkkkko:98wqrrr89990%0804490q9743.#$44.kkkkkkkkk",
"kkkkkkkkX#798eerhhe9990ehe0$0ee70743##=..kkkkkkkkk",
"kkkkkkkk.O7700erhhe9900erdd000e0909%##..kkkkkkkkkk",
"kkkkkkkkko77700eree0900eree00ee70ee9%#.kkkkkkkkkkk",
"kkkkkkkkkX7799eeeee0900000e000e00ee9##.kkkkkkkkkkk",
"kkkkkkkkkX$790eeeree009000e000000e09%#.kkkkkkkkkkk",
"kkkkkkkkkO>490eerrree099990000000009%#.kkkkkkkkkkk",
"kkkkkkkkk;6990errrree0979900000000097$O.kkkkkkkkkk",
"kkkkkkkkk;4990errrrree09770000e0000997%Okkkkkkkkkk",
"kkkkkkkkkO1990errrreee94777000000000094:.kkkkkkkkk",
"kkkkkkkkkk,990eereeee094744900997000007$Okkkkkkkkk",
"kkkkkkkkkk<9900eeeeee942%24900077900007$XXkkkkkkkk",
"kkkkkkkkO;499000e000994%%47777447%90009%#..kkkkkkk",
"kkkkkkk.;49999000999%%%%%477%%%%%4790007$#..kkkkkk",
"kkkkkkk=19999990444%%%%%%%%%%%%$$%7799094$%*.kkkkk",
"kkkkkkX;79999994%%%%%%%$%%%%$$$$$%%7799994%$;kkkkk",
"kkkkkkk6909997%%%%%%%%###%%$$$$$$$%%77799074-kkkkk",
"kkkkko1600997%%%$%##########$$$$$%%%%77700e7,.kkkk",
"kkkkk$490997%%%$#####O#####$$$$%447779990097$.kkkk",
"kkkX$4900974%%%$#####OOO###$%%444777777774%#O..kkk",
"kk.$47e0e4%%%%$####OOOOO#$$%%%%%%44%%$$$$##X....kk",
"kkO49ee9444#######OOXOXO##$$$$@++$$$###OO##$4$..kk",
"kks99e9944++###OOOOOXXXO###############OO#$49991uk",
"kO10942442$2###OOO....XOO#################40e080.k",
"kk1y4#############O..#O############ ##%%% 4sgggs.i"
};
