/* XPM */
static char *_3_0[] = {
/* columns rows colors chars-per-pixel */
"36 53 32 1 ",
"  c #2C2C2C",
". c gray20",
"X c #3A3A3A",
"o c #3D3D43",
"O c #434343",
"+ c #4E4E4E",
"@ c gray34",
"# c gray39",
"$ c gray43",
"% c #777777",
"& c #C65F1F",
"* c #CD6B23",
"= c #D47727",
"- c #DB832B",
"; c #E28F2E",
": c #EA9B32",
"> c #F1A736",
", c #FFAF53",
"< c #FFB962",
"1 c #FFC370",
"2 c #FFCD7F",
"3 c #848484",
"4 c #939393",
"5 c #A2A2A2",
"6 c #AEAEAE",
"7 c #FFD78D",
"8 c #FEE19C",
"9 c #FEEBAA",
"0 c #FEF5B9",
"q c #C5C5C5",
"w c #FEFFC7",
"e c None",
/* pixels */
"eeeeeeeeeeeeeeeee#3eeeeeeeeeeeeeeeee",
"eeeeeeeeeeeeeeeee+#eeeeeeeeeeeeeeeee",
"eeeeeeeeeeeeeeeee+%eeeeeeeeeeeeeeeee",
"eeeeeeeeeeeeeeeeX+#+eeeeeeeeeeeeeeee",
"eeeeeeeeeeeeeee+oX@o#eeeeeeeeeeeeeee",
"eeeeeeeeeeeeeee#+eeo3eeeeeeeeeeeeeee",
"eeeeeeeeeeeeeee#oeeo#eeeeeeeeeeeeeee",
"eeeeeeeeeeeeeee+o+#o+eeeeeeeeeeeeeee",
"eeeeeeeeeeeeeeeeX#3@eeeeeeeeeeeeeeee",
"eeeeeeeeeeeeeeeee#3eeeeeeeeeeeeeeeee",
"eeeeeeeeeeeeeeeee#3eeeeeeeeeeeeeeeee",
"eeeeeeeeeeeeeeeee$5eeeeeeeeeeeeeeeee",
"eeeeeeeeeeeeeeee+#%#eeeeeeeeeeeeeeee",
"eeeeeeeeeeeeeee%#@3#4eeeeeeeeeeeeeee",
"eeeeeeeeeeeeeee4%ee#qeeeeeeeeeeeeeee",
"eeeeeeeeeeeeeee4#ee#4eeeeeeeeeeeeeee",
"eeeeeeeeeeeeeee%#%4#%eeeeeeeeeeeeeee",
"eeeeeeeeeeeeeeee@4q3eeeeeeeeeeeeeeee",
"eeeeeeeeeeeeeeeee4qeeeeeeeeeeeeeeeee",
"eeeeeeeeeeeeeeeee%4eeeeeeeeeeeeeeeee",
"eeeeeeeeeeeeeeeee@@eeeeeeeeeeeeeeeee",
"eeeeeeeeeeeeeeeee%%eeeeeeeeeeeeeeeee",
"eeeeeeeeeeeeeeee#@63eeeeeeeeeeeeeeee",
"eeeeeeeeeeeeeeX.X%%X.Oeeeeeeeeeeeeee",
"eeeeeeeeeeeOX............eeeeeeeeeee",
"eeeeeeeeeOOX.XOOOOOXX...X..eeeeeeeee",
"eeeeeee++OXXO++++++OOX.XOOX..eeeeeee",
"eeeeee+##++O+@@@@@@++OXOOOOO+Xeeeeee",
"eeeeeOO;<#++#+<8083@@+O+++++++Xeeeee",
"eeeeO+><<0#+#<1227703@@+@+####+&eeee",
"eeeO>>><<<###227777703@+##077##+&eee",
"ee&>>>><<<0#%%77777773##307777#+;&ee",
"ee*:>>><<120w07770377$#$3117777+:*ee",
"e&->>>><<11277788033$#$3022177<+>-&e",
"e*:>>>><12277888990333077211<0+,>:*e",
"&->>>><<112788899090ww8877221<0,,>-&",
"=;>><<<<277788990w9999887772<<<<,>;=",
"=;>,,<<<27788890ww0999888772<<<<,>;=",
"=;>,,<<<27789990ww4399998772>,<<,>;=",
"=;,,<<<<27789990w3$w99998772<,<<,>;=",
"&->,<<<<2278999ww%$w89998722<,<<,>-&",
"e*;,<<<<1++7899,,,%$#3007%#1,,<<,;*e",
"e&=,,OO<@+2778>,,<19+O#3%%1<,,<,>=&e",
"ee;,OO+O@X2227>,<<9%++OO@%<9++<,>;ee",
"ee&;,,,O#X2222>,<1##11+XO$<,9++:;&ee",
"eeeO;;,OXX,<<<>,<<,>19+XX#,,9+X-&eee",
"eeeeXX:+XXX0<<>,<<,>19+XX+#9@XX+eeee",
"eeeeeXX>X.XX0<>,,,,>9@OXXX+@X.Xeeeee",
"eeeeee.X...XX+0<<<<<@OXX.XXX..eeeeee",
"eeeeeee.. ..XXO@@@@OXXX......eeeeeee",
"eeeeeeeee   .XXXXXXXX......eeeeeeeee",
"eeeeeeeeeee .............eeeeeeeeeee",
"eeeeeeeeeeeeee     ...eeeeeeeeeeeeee"
};
