/* XPM */
static char *_[] = {
/* columns rows colors chars-per-pixel */
"56 110 46 1 ",
"  c #131313",
". c gray9",
"X c #1B1B1B",
"o c gray12",
"O c #3A3319",
"+ c #232323",
"@ c #282828",
"# c #2C2C2C",
"$ c #2E2C2E",
"% c #322D22",
"& c #392B27",
"* c #303032",
"= c gray20",
"- c #323737",
"; c #35353B",
": c #3A3A3A",
"> c #423629",
", c #4F3F2B",
"< c #5B4326",
"1 c #604C33",
"2 c #7B5C3C",
"3 c #3D3D43",
"4 c #4E4E4E",
"5 c #444450",
"6 c gray34",
"7 c #555560",
"8 c #5E5E6D",
"9 c gray39",
"0 c #777777",
"q c #72727F",
"w c #975B37",
"e c #AD7F4E",
"r c #C49A69",
"t c #848484",
"y c #878795",
"u c #939393",
"i c #A5A5AE",
"p c #AEAEAE",
"a c #D5AE80",
"s c #FFD78D",
"d c #FEEBAA",
"f c #FEF5B9",
"g c #BCBCC7",
"h c #C5C5C5",
"j c gainsboro",
"k c None",
/* pixels */
"kkkkkkkkkkkkkkkkkkkkkkkkkkk:&+kkkkkkkkkkkkkkkkkkkkkkkkkk",
"kkkkkkkkkkkkkkkkkkkkkkkkkkk,&+kkkkkkkkkkkkkkkkkkkkkkkkkk",
"kkkkkkkkkkkkkkkkkkkkkkkkk@4*:1<kkkkkkkkkkkkkkkkkkkkkkkkk",
"kkkkkkkkkkkkkkkkkkkkkkkkk&@..o+<kkkkkkkkkkkkkkkkkkkkkkkk",
"kkkkkkkkkkkkkkkkkkkkkkkkk4kk:kk:kkkkkkkkkkkkkkkkkkkkkkkk",
"kkkkkkkkkkkkkkkkkkkkkkkkk2+k4@@*kkkkkkkkkkkkkkkkkkkkkkkk",
"kkkkkkkkkkkkkkkkkkkkkkkkk*936@:okkkkkkkkkkkkkkkkkkkkkkkk",
"kkkkkkkkkkkkkkkkkkkkkkkkkkk@4+kkkkkkkkkkkkkkkkkkkkkkkkkk",
"kkkkkkkkkkkkkkkkkkkkkkkkkkk3:@+kkkkkkkkkkkkkkkkkkkkkkkkk",
"kkkkkkkkkkkkkkkkkkkkkkkkkk@:*4;kkkkkkkkkkkkkkkkkkkkkkkkk",
"kkkkkkkkkkkkkkkkkkkkkkkkk*3+o:@kkkkkkkkkkkkkkkkkkkkkkkkk",
"kkkkkkkkkkkkkkkkkkkkkkkkk%*#k3++kkkkkkkkkkkkkkkkkkkkkkkk",
"kkkkkkkkkkkkkkkkkkkkkkkkk>k+k*@&kkkkkkkkkkkkkkkkkkkkkkkk",
"kkkkkkkkkkkkkkkkkkkkkkkk@3kok@#&+kkkkkkkkkkkkkkkkkkkkkkk",
"kkkkkkkkkkkkkkkkkkkkkkkk:*+*k@:+%kkkkkkkkkkkkkkkkkkkkkkk",
"kkkkkkkkkkkkkkkkkkkkkkk%#k&okk,k>kkkkkkkkkkkkkkkkkkkkkkk",
"kkkkkkkkkkkkkkkkkkkkkkk>@k>kkk,#%+kkkkkkkkkkkkkkkkkkkkkk",
"kkkkkkkkkkkkkkkkkkkkkk%3kk*kkk#*k;kkkkkkkkkkkkkkkkkkkkkk",
"kkkkkkkkkkkkkkkkkkkkkk&@k+@kkk@:k@kkkkkkkkkkkkkkkkkkkkkk",
"kkkkkkkkkkkkkkkkkkkkk@,kk#okkkk3k+%kkkkkkkkkkkkkkkkkkkkk",
"kkkkkkkkkkkkkkkkkkkkk>&kk;kkkkk>@k>kkkkkkkkkkkkkkkkkkkkk",
"kkkkkkkkkkkkkkkkkkkkk3@kk+kkkkk&@k&@kkkkkkkkkkkkkkkkkkkk",
"kkkkkkkkkkkkkkkkkkkk#*kk+okkkkk@3k+#kkkkkkkkkkkkkkkkkkkk",
"kkkkkkkkkkkkkkkkkkkk>@kk#@kkkkk@:kk#@kkkkkkkkkkkkkkkkkkk",
"kkkkkkkkkkkkkkkkkkkk%kkk3okkkkkk@@k+%kkkkkkkkkkkkkkkkkkk",
"kkkkkkkkkkkkkkkkkkk:&kkk*kkkkkkk,*kk>kkkkkkkkkkkkkkkkkkk",
"kkkkkkkkkkkkkkkkkk@4@kkkokkkkkkk&@kk#+kkkkkkkkkkkkkkkkkk",
"kkkkkkkkkkkkkkkkkk#3kkk#%kkkkkkk@4kk+@kkkkkkkkkkkkkkkkkk",
"kkkkkkkkkkkkkkkkkk:#kkk3Okkkkkkkk;kkk+@kkkkkkkkkkkkkkkkk",
"kkkkkkkkkkkkkkkkkk4@kkk@okkkkkkkk%@kk;&kkkkkkkkkkkkkkkkk",
"kkkkkkkkkkkkkkkkk%#kkkk+kkkkkkkkk1;kk#+kkkkkkkkkkkkkkkkk",
"kkkkkkkkkkkkkkkkk5kkkk&>kkkkkkkkk;@kkk*+kkkkkkkkkkkkkkkk",
"kkkkkkkkkkkkkkkk%&kkkk+@kkkkkkkkk@*kkk+,kkkkkkkkkkkkkkkk",
"kkkkkkkkkkkkkkkk13kkkk+okkkkskkkkk<@kkk97kkkkkkkkkkkkkkk",
"kkkkkkkkkkkkkkk@@skkkk>Xkkkksskkkk>&kkks7kkkkkkkkkkkkkkk",
"kkkkkkkkkkkkkkk:#sskk@*kkkkksskkkk@%kkssqkkkkkkkkkkkkkkk",
"kkkkkkkkkskkkk&gksskk@Xkkkkks5kkkk#5kkss9+kkkkkkkkkkkkkk",
"kkkkkkkksskkkk,;o7kkk*+kkkkk7kkkkk@;kkk77Okkkkskkkkkkkkk",
"kkskkkkksskkkk@@kpkkk,Xkkkkkhkkkkkk*%kkhk:@kkksskkkkkkkk",
"kkskkkkks5kkk43kpspkk%kkkkkpjukkkkk6:kusu*okkk5skkkkkkkk",
"kksskkkk7kkk@;#kjspk@okkkkkpsukkkkk:@khspo%kkkk7kkkkkkkk",
"kssskkkkpkkk@@kkjjhk*@kkkkkjdhkkkkk@*kphpk:kkkkukkkkkkkk",
"kk5kkkkujpk@4#kkjshk:+kkkkkhspkkkkkk@7hdpk*@kkysykkkkskk",
"kk7kkkkhdhk#:@kkjsjk@Xkkkkkhdpkkkkkk40hspko*kkysukkkks5k",
"kkpkkkkjdhk4@kkkjsj*okkkkkkhspkkkkkk:0pspkk,okpsikkkk7kk",
"kpdpkkkjsp@*:kkkhjp:@kkkkkkpjukkkkkk@9hsukk@okpsikkkkykk",
"kpsukkkhdhpy7kkkhjju5kkkkkkpjukkkkkk*yphukko%kpuuskkyuyk",
"kphukkshspy6kkskhjp9:kkkkkkphikkkkkkk0ppikkk37psisskyayk",
"ktatks3pau5kkks3uhu3*kkskkkuhykkskkkk5tuyssk65uay3kktt9k",
"k0utkk6tp0kkkk-ktp0kkkkfkkktp8kkf-kkk70tq-kkk6t086kk0e8k",
"k8rtk48uptkkkk:k39:@k:3#kk349:3k+k3:kk46*:kkkk0t683kqe6k",
"k0rik4wti0kk3*3@6@oo+6#ooo4ooo4ooX#3XXXo:3@:kkt06w3k8e6k",
"k8iuk8eti3k3*@oo9ooko6o@ok4kok4.3@.3XkXX:.o@:o@3@1:k34@k",
"k0itk6w86*o6@@@:6kkko6,@ok4kok3.,@k3Xkkk:ooo:.@*@<*k33@k",
"k8t8oot33oo6k:oo4kkko4<:ok3kok:.<:k:Xkkk:.*k*..oo:..*4@k",
"k:o3@o4@koo3k:<o3kkkk;,*@k3kok*o,*k$kkkk*<*k*..ko*.o:X@k",
"ko3@ko3okko3k:,*@kkkk@<*@k+kokoo<*k@kkk**,*k@.kk.*.ko*ok",
":o4kko:+okk:o*3@okkkko,*@k+kok.o,*XokkkX*3@.okk.X@.kk*X@",
"3X3kk*:$+okk@*3@*kkkk#3@#k@k+kk+3@+kkkk@*3@okk.X*o#kk*X*",
":k:oX*@ok+kk#*:#*+kkk*3@#k#k+kk+3@@kkkX@*:#Xkk.k.o+X @k*",
"*k@@oooXk+kk#o3+#@kkk*:$#k#k+kk+:$@kkk.X*3 Xkk.kX    .ko",
"@ko@k@ooXXokk@:ok*kkk::+@o*ookko3+@kkkok*3.kk.XX  ok. k ",
"+*oXoooXok+XX*Xok;+kk:+o@+;+ok.o:.@kk.+k@XoXX k       o ",
"k++.kkX.Xo+ok#oXX#:XX@*Xo@:@.X..Xo.XX@XXX Xk      kk   k",
"kkkookXkkk++ok;okk3+kk:@o@:@..o. @kk.$kk +k   kkk k  kkk",
"kkkkkkXkokkXkok;+oo3*oo:@@3@X$o @  o*X..+k k kk k kkkkkk",
"kkkkkkXookkokkok#kko@;#o;*3*$oo+XX+. kkXk kk kk  kkkkkkk",
"kkkkkkXkkkkkokXo+#okoooook:ko.+X    k.+   k kkkXkkkkkkkk",
"kkkkkkXkkkkkkkXk.o+#;;koko*ok.kk k++X X kkkkkkkXkkkkkkkk",
"kkkkkkXkkkkkkkXkkk.Xo@@+oX@Xo.+# o@   XkkkkkkkkXkkkkkkkk",
"kkkkkkkokkkkkkXkkkkkk.Xo@X*k....  kkkkXkkkkkkkkXkkkkkkkk",
"kkkkkkkokkkkkkXkkkkkkkkkkX:kkkkkkkkkkkXkkkkkkkXkkkkkkkkk",
"kkkkkkk+kkkkkkkX#kkkkkkkkk@kkkkkkkkk*kXkkkkkkkXkkkkkkkkk",
"kkkkkkk+kkkkkkkXX:kkkkkkkk+kkkkkkkkkXXXkkkkkkkXkkkkkkkkk",
"kkkkkkk+kkkkkkkXkX:3*kkkk:oXkkkk3*@+kXkkkkkkkkXkkkkkkkkk",
"kkkkkkk+kkkkkkkXkkXXX*kk3X@XXkk:oXXkkXkkkkkkkkXkkkkkkkkk",
"kkkkkkk+okkkkkkXkkkkk#k*Xk*kXkk*kkkkkXkkkkkkkXkkkkkkkkkk",
"kkkkkkkk+kkkkkkokkkkkXkXko3okXkokkkkkXkkkkkkkokkkkkkkkkk",
"kkkkkkkk+kkkkkkokkkkkXXkkX*okk*.kkkkkokkkkkkkokkkkkkkkkk",
"kkkkkkkk+kkkkkkoo:3kk.X+@*@..+.kk3:kkokkkkkkkokkkkkkkkkk",
"kkkkkkkkkokkkkkkokX3kk   ..   kk3okkXokkkkkkokkkkkkkkkkk",
"kkkkkkkkkokkkkkkokk@#kkkkoXXkkk#okkkokkkkkkk+kkkkkkkkkkk",
"kkkkkkkkkkokkkkk+kkk+**@o.X.+@#okkkkokkkkkk+kkkkkkkkkkkk",
"kkkkkkkkkkokkkkk+kkkk....kXk...kkkkkokkkkkk+kkkkkkkkkkkk",
"kkkkkkkkkkkokkkk+okkkXkkkk@kkkkXkkkk+kkkkk@kkkkkkkkkkkkk",
"kkkkkkkkkkkkokkkk+kkkXkkkX3+kkkXkkk++kkkk+kkkkkkkkkkkkkk",
"kkkkkkkkkkkkkookk+kkXkkkX:*oXkkkXkk@kkk++kkkkkkkkkkkkkkk",
"kkkkkkkkkkkkkkkooXXXkkkXkXXXkXkkkXXX+ookkkkkkkkkkkkkkkkk",
"kkkkkkkkkkkkkkkkkk+kkkkXkkXkkX@kkk+k+kkkkkkkkkkkkkkkkkkk",
"kkkkkkkkkkkkkkkkkkX@okXkkkkkkkokk+ok+kkkkkkkkkkkkkkkkkkk",
"kkkkkkkkkkkkkkkkkkkX@XkkkkkkkkXo++kk+kkkkkkkkkkkkkkkkkkk",
"kkkkkkkkkkkkkkkkkkkk+kkkkkkkkk+okkko+kkkkkkkkkkkkkkkkkkk",
"kkkkkkkkkkkkkkkkkkkkokkkkkkkkk+okkkkokkkkkkkkkkkkkkkkkkk",
"kkkkkkkkkkkkkkkkkkkk+kkkkkkkkkokkkkkokkkkkkkkkkkkkkkkkkk",
"kkkkkkkkkkkkkkkkkkkkookkkkkkkkokkkkk+kkkkkkkkkkkkkkkkkkk",
"kkkkkkkkkkkkkkkkkkkko+kkkkkkkk+kkkkkokkkkkkkkkkkkkkkkkkk",
"kkkkkkkkkkkkkkkkkkkkXkkkkkkkkkokkkko+kkkkkkkkkkkkkkkkkkk",
"kkkkkkkkkkkkkkkkkkkkokkkkkkkkkokkkk+okkkkkkkkkkkkkkkkkkk",
"kkkkkkkkkkkkkkkkkkkkokkkkkkkkkokkkkk+kkkkkkkkkkkkkkkkkkk",
"kkkkkkkkkkkkkkkkkkkkokkkkkkkkkokkkkk+kkkkkkkkkkkkkkkkkkk",
"kkkkkkkkkkkkkkkkkkkkkkkkkkkkkk+kkkkkkkkkkkkkkkkkkkkkkkkk",
"kkkkkkkkkkkkkkkkkkkkkkkkkkkkkkokkkkkkkkkkkkkkkkkkkkkkkkk",
"kkkkkkkkkkkkkkkkkkkkkkkkkkkkkk+kkkkkkkkkkkkkkkkkkkkkkkkk",
"kkkkkkkkkkkkkkkkkkkkkkkkkkkkkkokkkkkkkkkkkkkkkkkkkkkkkkk",
"kkkkkkkkkkkkkkkkkkkkkkkkkkkkkkokkkkkkkkkkkkkkkkkkkkkkkkk",
"kkkkkkkkkkkkkkkkkkkkkkkkkkkkkk+okkkkkkkkkkkkkkkkkkkkkkkk",
"kkkkkkkkkkkkkkkkkkkkkkkkkkkkkk@kkkkkkkkkkkkkkkkkkkkkkkkk",
"kkkkkkkkkkkkkkkkkkkkkkkkkkkkkk@kkkkkkkkkkkkkkkkkkkkkkkkk",
"kkkkkkkkkkkkkkkkkkkkkkkkkkkkkk+kkkkkkkkkkkkkkkkkkkkkkkkk",
"kkkkkkkkkkkkkkkkkkkkkkkkkkkkkkokkkkkkkkkkkkkkkkkkkkkkkkk"
};
