/* XPM */
static char *_5_3[] = {
/* columns rows colors chars-per-pixel */
"18 110 33 1 ",
"  c #131313",
". c gray12",
"X c #232323",
"o c #282828",
"O c #2C2C2C",
"+ c #2E2C2E",
"@ c gray20",
"# c #3A3A3A",
"$ c #3D3D43",
"% c #434343",
"& c #4E4E4E",
"* c gray34",
"= c gray39",
"- c gray43",
"; c #777777",
": c #D47727",
"> c #E28F2E",
", c #EA9B32",
"< c #F1A736",
"1 c #FFAF53",
"2 c #FFB962",
"3 c #FFC370",
"4 c #FFCD7F",
"5 c #848484",
"6 c #939393",
"7 c #A2A2A2",
"8 c #AEAEAE",
"9 c #FFD78D",
"0 c #FEE19C",
"q c #FEEBAA",
"w c #FEF5B9",
"e c #FEFFC7",
"r c None",
/* pixels */
"rrrrrrrrO$rrrrrrrr",
"rrrrrrr.o@orrrrrrr",
"rrrrrroX.OX@rrrrrr",
"rrrrrr@orrX%rrrrrr",
"rrrrrr@XrrX@rrrrrr",
"rrrrrroXo@Xorrrrrr",
"rrrrrrr.@%Orrrrrrr",
"rrrrrrrr@%rrrrrrrr",
"rrrrrrrro@rrrrrrrr",
"rrrrrrrrO$rrrrrrrr",
"rrrrrrr.o+orrrrrrr",
"rrrrrroX.+X@rrrrrr",
"rrrrrr@orrX%rrrrrr",
"rrrrrr@XrrX@rrrrrr",
"rrrrrroXo@Xorrrrrr",
"rrrrrrr.@%+rrrrrrr",
"rrrrrrrr@%rrrrrrrr",
"rrrrrrrro@rrrrrrrr",
"rrrrrrrrO$rrrrrrrr",
"rrrrrrr.o@orrrrrrr",
"rrrrrroX.+X@rrrrrr",
"rrrrrr@orrX%rrrrrr",
"rrrrrr@XrrX@rrrrrr",
"rrrrrroXo@Xorrrrrr",
"rrrrrr .@%+ rrrrrr",
"rrrrrrrr%*rrrrrrrr",
"rrrrrrrr@%rrrrrrrr",
"rrrrrrrr#*rrrrrrrr",
"rrrrrrro@#@rrrrrrr",
"rrrrrr@Oo#O%rrrrrr",
"rrrrrr%@rrO*rrrrrr",
"rrrrrr%OrrO%rrrrrr",
"rrrrrr@O@%O@rrrrrr",
"rrrrrrro%*#rrrrrrr",
"rrrrrrrr%*rrrrrrrr",
"rrrrrrrr@%rrrrrrrr",
"rrrrrrrr#*rrrrrrrr",
"rrrrrrro@%@rrrrrrr",
"rrrrrr@Oo#O%rrrrrr",
"rrrrrr%@rrO*rrrrrr",
"rrrrrr%OrrO%rrrrrr",
"rrrrrr@O@%O@rrrrrr",
"rrrrrrro%*#rrrrrrr",
"rrrrrrrr%*rrrrrrrr",
"rrrrrrrr&=rrrrrrrr",
"rrrrrrrr&;rrrrrrrr",
"rrrrrrr#&*&rrrrrrr",
"rrrrrr&$#*$=rrrrrr",
"rrrrrr=&rr$5rrrrrr",
"rrrrrr=$rr$=rrrrrr",
"rrrrrr&$&=$&rrrrrr",
"rrrrrrr#=5*rrrrrrr",
"rrrrrrrr=5rrrrrrrr",
"rrrrrrrr&=rrrrrrrr",
"rrrrrrrr&;rrrrrrrr",
"rrrrrrr#&=&rrrrrrr",
"rrrrrr&$#*$=rrrrrr",
"rrrrrr=&rr$5rrrrrr",
"rrrrrr=$rr$=rrrrrr",
"rrrrrr&$&=$&rrrrrr",
"rrrrrrr#=5*rrrrrrr",
"rrrrrrrr=5rrrrrrrr",
"rrrrrrrr=5rrrrrrrr",
"rrrrrrrr-7rrrrrrrr",
"rrrrrrr&=;=rrrrrrr",
"rrrrrr=*&;*5rrrrrr",
"rrrrrr5=rr*8rrrrrr",
"rrrrrr5*rr*5rrrrrr",
"rrrrrr=*=5*=rrrrrr",
"rrrrrrr&58;rrrrrrr",
"rrrrrrrr58rrrrrrrr",
"rrrrrrrr=5rrrrrrrr",
"rrrrrrrr&&rrrrrrrr",
"rrrrrrrr==rrrrrrrr",
"rrrrrrr*&6;rrrrrrr",
"rrrrrrrr==rrrrrrrr",
"rrrrrrrr&&rrrrrrrr",
"rrrrrrr&%%&rrrrrrr",
"rrrrr%&%@%&&%rrrrr",
"rrrr%&%%%%%&&%rrrr",
"rrr&%%&&&&&&&&&rrr",
"rr&&&&&****&&&&&rr",
"r&==;;;;66;;;;==&r",
"&:>=*=;qqqq;=*=>:&",
"r><2*;q9999q;*2<>r",
"r<<2;29999992;2<<r",
"r,<254999999462<,r",
"r<<2549000099;2<<r",
"r<<2590qqq009;2<<r",
"r<<2590qwwq0952<<r",
"r<22690weewq9622<r",
"r122700weewq07221r",
"r12270qweewq07221r",
"r12260qwqqwq06221r",
"r12250qeqqew05221r",
"r12259q1111q95221r",
"r122;90122109;221r",
"r122;49122194;221r",
"r>12;44133144;21>r",
"r:12;04122149;21:r",
"r,29;900ww009;92,r",
"rr#*@%*;55;*%@*#rr",
"rrr#@###&&###@#rrr",
"rrr@O@##&&##@O@rrr",
"rrrrOO@####@OOrrrr",
"rrrrrOO@@@@@Orrrrr",
"rrrrrrrOOOOrrrrrrr",
"rrrrrrrr%%rrrrrrrr",
"rrrrrrr#%-%rrrrrrr",
"rrrrrrr##%#rrrrrrr"
};
