/* XPM */
static char *_1[] = {
/* columns rows colors chars-per-pixel */
"64 100 152 2 ",
"   c #131313",
".  c gray9",
"X  c #1B1B1B",
"o  c gray12",
"O  c #23170B",
"+  c #2F1F0F",
"@  c #1E371E",
"#  c #3B2713",
"$  c #3A3319",
"%  c #232323",
"&  c gray15",
"*  c #282828",
"=  c #2B2E2D",
"-  c #2C2C2C",
";  c #2E2C2E",
":  c #322D22",
">  c #392B27",
",  c #223322",
"<  c #273C27",
"1  c #2B3827",
"2  c #263328",
"3  c #3D3626",
"4  c #363228",
"5  c #382D34",
"6  c #3F2F38",
"7  c #2D3030",
"8  c #2C3031",
"9  c #2F3B3C",
"0  c #2F3F3F",
"q  c #303032",
"w  c gray20",
"e  c #323737",
"r  c #35353B",
"t  c #3A3A3A",
"y  c #5C2103",
"u  c #53200A",
"i  c #4B2F17",
"p  c #4A271B",
"a  c #453C15",
"s  c #57371B",
"d  c #662101",
"f  c #6F2200",
"g  c #633F1F",
"h  c #412921",
"j  c #423629",
"k  c #453F2A",
"l  c #4F3F2B",
"z  c #43333F",
"x  c #2D4025",
"c  c #2E4425",
"v  c #334B23",
"b  c #344D2D",
"n  c #3D5935",
"m  c #5D4E0E",
"M  c #514512",
"N  c #68570B",
"B  c #746107",
"V  c #7F6A04",
"C  c #5B4326",
"Z  c #53472C",
"A  c #674027",
"S  c #7F4B27",
"D  c #704628",
"F  c #7A4B2B",
"G  c #604C33",
"H  c #6D5536",
"J  c #7B5C3C",
"K  c #4C6C2A",
"L  c #3D3D43",
"P  c #323E49",
"I  c #4B3447",
"U  c #563A4D",
"Y  c #2D4848",
"T  c #344557",
"R  c #285353",
"E  c #275B5B",
"W  c #334D66",
"Q  c #2D527A",
"!  c #2E6767",
"~  c #367070",
"^  c #3E7C7C",
"/  c #434343",
"(  c #4E4E4E",
")  c #444450",
"_  c #4B4B55",
"`  c gray34",
"'  c #446343",
"]  c #4D6E4E",
"[  c #527456",
"{  c #555560",
"}  c #5E5E6D",
"|  c #654160",
" . c #6D4566",
".. c #7F4D6A",
"X. c gray39",
"o. c gray43",
"O. c #72727F",
"+. c #821600",
"@. c #9A1808",
"#. c #A2240C",
"$. c #A9300F",
"%. c #B03C13",
"&. c #B74817",
"*. c #BE541B",
"=. c #8B7300",
"-. c #814F30",
";. c #8C5637",
":. c #985D3F",
">. c #C65F1F",
",. c #CD6B23",
"<. c #866741",
"1. c #976E45",
"2. c #A56446",
"3. c #A0764A",
"4. c #AD7F4E",
"5. c #B47150",
"6. c #8F5477",
"7. c #5D825E",
"8. c #6B906D",
"9. c #7B9C76",
"0. c #9A8500",
"q. c #A89600",
"w. c #B7A800",
"e. c #C5B900",
"r. c #D4CB00",
"t. c #E2DC00",
"y. c #B78C58",
"u. c #C49A69",
"i. c #CF9876",
"p. c #315A8E",
"a. c #37619A",
"s. c #3E69A7",
"d. c #7A7A89",
"f. c #9B6282",
"g. c #AF6F90",
"h. c #BC7F9E",
"j. c #468787",
"k. c #4D8E8E",
"l. c #579A9A",
"z. c #6DAAAA",
"x. c #848484",
"c. c #878795",
"v. c #939393",
"b. c #86BBBB",
"n. c #A2A2A2",
"m. c #D5AE80",
"M. c #E3B490",
"N. c #CC92AA",
"B. c #E8BCC8",
"V. c #9ECACA",
"C. c #B6DAE3",
"Z. c #FEFFC7",
/* pixels */
"G G G G G G G G G H H H G G G G G G G G H H H H H G G G G G G G H J J H H G G H H H H H H J H H G H H G G G G H G H H G G G G G ",
"k Z Z Z l l l l l Z Z G G Z Z l l l l l l l Z Z Z Z Z G G G Z Z Z l l l l l Z Z Z Z Z Z Z l Z Z l Z Z H H Z Z l Z G Z Z Z k Z Z ",
"k Z Z Z l l l l l Z Z G G Z Z l l l l Z l l Z Z Z Z Z G G G Z Z Z l l l l l Z Z Z Z Z Z Z l Z Z l Z Z H H Z Z l Z G Z Z Z k Z Z ",
"Z Z k Z Z Z G Z l Z Z H H Z Z l Z Z l Z Z Z Z Z Z Z l l l l l Z Z Z G G G Z Z Z Z Z l l l l l l l Z Z G G Z Z l l l l l Z Z Z k ",
": : % : : : : : : : : : : : : : : : : : : : : : : : : : : : : : : : : : : : : : : : : : : : : > : : : : : : : : : : : : : : : % ",
": : % o                                                                           . . . . . . . . . . . O O O               : % ",
"j l j %       . % *     u u o - 5 5 5 = 5 o   . . . . . . . . . . . . . . . . . . . . . . . . . . . . . O + # % * 9 P   % j j j ",
"j l j % X o & . O O     u u X & & - - & % o   . . . . . . l.z.V.V.C.l.. . . . . . . . . . . . . . . . . O + # % * 9 P   % j l j ",
"j l j % r L ) $ M M . . : $ # U =.=.=.=.U I . . . . . . . 8 4 P P 0 . . . . . . . . . . X . . . . . . . $ $ $ $ 2 c 1 . % j Z j ",
"j Z j & : a a : $ a = 2 $ M # U N B B B U 6 . . . . . . . 8 E j.R Y . . . . . . . . . <.u.y.u.y.G . . . p u d $ 1 c c . % j l j ",
"j l j # a m M = P T = 1 : $ - U I I z z U L . . . . . . ; Y 8 r 8 - Y 0 . . . . . . 4.<.1.H J J u.k . . p u d $ a c 1 . o j l j ",
"j l j # a M M = P T = 1 : $ * I I I I I I 5 . . . . . % ,     % 9 ~ l.~ b . . . . . 3.y.u.y.4.y.<.H . . p u d $ a c c . % j l j ",
"j l j % $ $ a = P T $ M u d - I I U U I I 5 . . . . Y : p p l G k.z.Z.V.l.^ . . . . l 1.5.1.y.y.i.u.<.. p u d $ $ $ $ . % j Z j ",
"j l j % r L ) = P T = 2 u y - z I U U I I 5 . . . q 9 F *.,.>.&.,.x.V.k.:.J ! . . . . a 2.2.4.i.M.y.G . p u d P R Q p.. % j l j ",
"j l j % r L ) = P T = 1 u y - z I U U I I 5 . . P j.H ;.*.*.*.*.*.,.,.2.*.*.G . . . q H H y.u.u.y.3.G . p u d P R Q p.. o j l j ",
"j l j % r L ) = P T = 1 u d - z I U U I I 5 .   E j.A f #.%.$.%.%.&.&.&.%.F r . . . <.3.1.y.m.y.4.1.A . p u d P R Q p.. % j l j ",
"j l j % r L ) = P T - 1 u d - I I U U I I 5 . . . P ! 3 y d f f f f d d l t P . . % 1.4.4.y.4.1.:.;.C . p u d P R Q p.. % j l j ",
"j l l % r L ) = P T = 1 u d - I I I I I I 5 . . . . Y R p p h h h h h p 5 Y   . . . : l G D ;.;.D C l . p u d P R Q p.. % l l j ",
"j l j   o % & . % & . . O O . o % % % o % . O . . . . . . . . . . . . . . . . . . . . . . . . . o o . . p u d P R Q p.. % j l j ",
"j l j j j j j j j j j j j j j j j j j j & j j j j j j j 3 3 j j j j j j j j j j j j j j j j j j j j j j j j j j j j j j j j l j ",
"j l j j G G G G G H H H G G G G G G G G H H H H H G G G G G G G H J J H H G G H H H H H H J H H G H H G G G G H G H H k . j l j ",
"j l j > l l l l l Z Z G G Z Z l l l l l l l Z Z Z Z Z G G G Z Z Z Z l l l l Z Z Z Z Z Z Z Z Z Z l Z Z H H Z Z l Z G Z l . j l j ",
"j l j % : : : : : : : : : : : : : : : : 3 3 : : : : : : : : : : : : : : : : : : : : : : : : : : : : : : : : : : : : : : . j l j ",
"j l j % . . . X . . . . . . . . . . . . . . . l.z.V.C.V.. . . . . . . . . . . . . . . . . . . . . . . . . . . . . . . . . j l j ",
"j l j . . . . X X . . . . . . . . . . . . . . 8 P R R 8 . . . . . . . . . . . . . . r L L ) . . . . . . ^ z.V.V.. . . . . j l j ",
"j l j . X X X X X X X X X X X X X . . . . . . E R k.k.Y . . . . . X X X X X . > p y 4 $ M M . . . . . . 8 0 0 0 . . . . . j l j ",
"j l j X X X X X l.z.V.C.V.X X X X . . .   . Y E b E ~ ~ R . . . . X X X X X X h p y $ M m N . . . . . . . * ! e . . . . . j l j ",
"j l j X X X X X 8 ! R Y Y . . . . . . . P ! R P P ! k.z.k.E . . . X X - $ m I $ M m 4 $ M m . . . . . . . * z.e . . . . . j l j ",
"j l j X X X + - Y 9 8 Y Y 0 . . . . . 8 ^ z.! b Y ! k.z.k.E 8 . . X X - $ m Y $ M m 4 $ M m . . . . . . 8 * b.E . . . . . j l j ",
"j l j X X 8 . . X 2 Y ~ z.k.E w . . . 0 ~ ! 8 - 8 - E E Y 8 2 9 . t ( * $ M r $ $ a r L ) ) . . . . . - Y 9 Y 8 Y . . . . j l j ",
"j l j . | 6.g.N.h.h.g.h.N.N.g.g. .. . 0 R 7 % o * 8 P P P 8 = P . t t * $ i r h p u r L L ) . . . . % ,     9 ~ l.! . . . j l j ",
"j l j . I ..f.f.N.B.B.B.B.B.f. .z . . e R 7 o o * 8 8 b 9 = - R . t ( * $ a r h p u r L ) ) . . . - : N =.=.k.z.Z.b.^ . . j l j ",
"j l j . z I U U U | | 6.f.6.| U z . . e Y 7 o o & - 8 r e - o e . t ( * $ M r h p u r L L ) . . . ! =.q.q.q.w.e.e.w.q.R   3 l j ",
"j l l . z I I U U | |  .6.6.| U z . . e R - ! ! l.^ E ! R - X Y . t ( * $ M r h p u r L L ) . . . ! N 0.q.e.r.r.t.e.=.m . l l j ",
"j l j . z I I U U | |  .6. .| U z . . Y ~ R & l.Y Y ^ b.Y b.8 R . t ( * $ M r h p u r L ) )   . . j.M m m m N =.B m m R . j l j ",
"j l j . . Y z I U U U U U U 5 Y . . . ~ ~ E e ^ Y b.* e e % - 0 . t ( * $ M r h p u r L L ) . . . . X e Y ~ R Y 0 8 . . . j l j ",
"j l j . . . . .   o o o   .   X . . . . j.k.Y 0 Y - e E R E . . . t _ & $ M r h p u r r L _ . . . . . . . . . . . . . . . j l j ",
"j l j . . . J J J J J G G G J J D G l j * j j j j j j j j j j j j j j 3 j j j j j j j j j j j j j j j j j j j j j j j j o j l j ",
"j l j j G G Z J 4.y.y.1.<.<.<.<.<.J H J H H H H H G G G G G G G H J J H H G G H H H H H H J H H G H H G G G G H G H H k   j l j ",
"j l j > l l Z l J 1.1.1.1.<.<.<.1.<.H l l l Z Z Z Z Z G G G Z Z Z l l l l Z Z Z Z Z Z Z Z Z Z C l Z Z H H Z Z l Z G Z l   j l j ",
"j l j % $ : : : : J <.<.<.<.J <.<.<.G : 3 3 : : : : : : : : : : : : : : : : : : : : : : : : : : : : : : : : : > - : : :   j l j ",
"j l j % % & & & & J J J H H H H J J Z * o o o o o o o o o o o o o o o o o o o o o o o o o o o o o o % . O O % . O O o &   j l j ",
"j l j % & & I I * C H H G G Z Z G G l .             & t t t q & o       & % e P X & % 9 P X & & 9 P   O O O   O O O o % . j l j ",
"j l j % . . z  .& l G C l Z l l G l G . . .     & / ( ` ` ( / t w &     W ! a.s.t W ! a.s.t W ! a.s.& p d f & p d f P P % j l j ",
"j l j % . . I U o H C $ # l Z H H 1.4.<.l .   t / o.c.c.O.o.o.X.` ( t   P R Q p.Y P R Q p.P Y R Q p.o u u d o u u d 8 9 & j l j ",
"j l j % X X a B # J G y.4.4.y.u.y.1.4.1.J l . _ X.x.v.n.c.X.x.` o.X.`   $ 1 c 1 - 1 c 1 c 7 1 2 2 c 3 a M m i a M m X -   j l j ",
"j l j % . X a $ + J + H 4.1.<.1.<.J J J J Z . _ o.o.c.c.x.x.c.` ` X.`   $ c c c , : 1 c 1 , $ < c 1 a m N m M m N m X o   j l j ",
"j l j % . . z z % J C $ J <.J J J H G G l . q _ c.n.x.c.n.n.c.o./ ` ` . $ a 1 c * : a c c * : a c c $ a M m a a M m X o   j l j ",
"j l j % . . z z X o J J C G G k l : : % . . w ` - / o.` - - ` x.e ( _ . $ $ $ $ = $ e P 8 = : r b q > $ i i $ $ i a o &   3 l j ",
"j l l % . . z z I z   o . % % o X % %   . . t c./ / n.X./ - r n.x.o._ X P R Q p.9 P R Q p.9 P R p.p.o p u d o p u d 8 8 . Z l j ",
"j l j % . . z z I I   X . % - ; & & 5   . . t X.c.X.- x.c.n.c.x./ / . . P R Q p.P P R Q p.P P R Q p.o p u d o p u d 8 P . j l j ",
"j l j % . . z I I z - - I 6 z z z 5 5   . . . / ` ` r t o.X./ / / . . . P R Q p.P P R Q p.P P R Q p.o p u d o p u d 8 P . j l j ",
"j l j % . . z z I z - - z I I I I 5 5 . . . . . r o.x.v.x.X./ . . . . . P R Q p.% P R Q p.& P R Q p.X # u y X # u y 8 P % j l j ",
"j l j & & & % % & * . X % * * * - & X & & & & & r X.n.n.x./ & & & & & j 9 Y W Q % 9 Y W Q % 9 Y W Q X # u y X # u y 8 9 % j l j ",
"j l j j j j j j j o o j j j j j o o o o & j j j j j j j j j j j j j j j o % = 8   o % = 8   o % = 8 . . . . . . . . ; 8 % j l j ",
"j l j j G G G G G H H H G G G G G G G G H H H H H G G G G G G G H J J H H G G H H H H H H J H H G H H G G G G H G H H k . j l j ",
"j l j > l l l l l Z Z G G Z Z l l l l l l l Z Z Z Z Z G G G Z Z Z l l l l l Z Z Z Z Z Z Z l Z Z l Z Z H H Z Z l Z G Z l . j l j ",
"j l j % : : : : : $ : : : : : : : : : : 3 3 : : : : : : : : : : : : : : : : : : : : : : : : : : : : : : : : : 1 : : : : . 3 l j ",
"j l j % X . . . . . . . . . . . . . . . . . . . .           .   X . . . . . . . X + + +       X X o X X & 9 I _ / - X   . j l j ",
"j l j % X . . . . . . . . . . . .   o o o o o o o o o o o o . . . . . . . . . . . . . . . . . . . . .     l.z.V.V.      . j l j ",
"j l j % & X . X % : % . . . . . . o     o * q t t t &       . . . . . . . . . . . . . . . . . . . . . . * e b Y P . . X % j l j ",
"j l j % & & : k J J J 3 . . . . . :   & e t / ( ` ` ( / &   . . . . . . . . . . . . . . . . . . . . . . o e 8 Y r . . X % j l j ",
"j l l % & : k J 4.y.4.J > o . . . . t ( ` X.o.o.d.c.c.o./ t . . . . . . . . . . . . . . . . . . . . . . o e - k.r   . X % l l j ",
"j l j % & 3 J 4.4.H 3 J J : . . . . ` X.o.` x.` c.n.v.x.X._ . . . . . . . . M B M d.B M . . . . . . . . % e & k.8 . . X % j l j ",
"j l j % & 3 J 4.l j j j J : . .     ` X.` ` c.x.x.c.c.o.o._ . . . . . . . . N =.r.q.=.N . . . . . . . X & E & b.E . . X % j l j ",
"j l j % & : J <.j j j J j : o   X   ` ` / o.c.n.n.c.x.n.c._ . . . . . . . . . k N N : : . . . . . . X o - r * ^ Y e . X % j l j ",
"j l j % & & 4 J J J J l l l 4 &     _ ( r x.` - - ` o./ - ` . . . . . . . . o k k l p : . . . . . X X - 9 X o 8 Y ~ R X % l l j ",
"j l j % & 3 j j j l l G H 1.G j % X ( o.x.n.r - / X.n./ / c.. . . . . . . . k =.=.` 3 H . . . . . & & X . o $ Y k.V.k.E % l l j ",
"j l j % j 1.<.<.l j l <.4.1.1.J X . . / / x.c.n.c.x.- X.c.X.. . . . . . . k =.q.e.=.3 k 0.. . . . ! B V 0.q.0.w.e.r.w.q.V l l j ",
"j l j % J l j $ 4.j l 4.l Z J 4..   . . / / / X.o.t r ` ` / . . . . . . : N q.e.q.=.Z 3 k B . . . ! V q.q.q.q.w.e.e.e.w.q.l l j ",
"j l j % J l :   <.j j <.  j G 1.    . . . . / X.x.v.x.o.r . . . . . . : k N q.q.q.N Z 3 : M k . . ! B B 0.w.e.r.r.t.r.e.B l l j ",
"j l j % J j j j J : . J j j J J . % & & & & & / x.n.n.X.r & . . . . . : k N =.=.=.N Z 3 : a $ . . j.M m m m m N =.B =.m M l l j ",
"j l j % j J j j : o . 8 J J J % X X v m K K K m v $ v m K K K m v = . . : k N m k k : : : : . . . % R $ $ M M m m m M M % l l j ",
"j l j % % % . & % o       o % % X X c c 1 c c < 1 o c 1 1 c c c 1 , u Z G D J J G G G J J J J J . . % Y r E ~ R Y 0 0 % % j l j ",
"j l j j > > > > > > > > > > > > > > > > % > > : $ > > > % > > : : : > H J <.<.<.<.<.1.4.y.4.J G G G > > > > > > > > > > j j l j ",
"j l j j G G G G G H H H G G G G G G G G H H H H H G G G G G G G H J J H <.1.<.<.<.1.1.3.1.J l l l Z H G G G G H G H H k . j l j ",
"j l j > l l l l l Z Z G G Z Z l l l l l Z l Z Z Z Z Z G G G Z Z Z l l G <.<.<.J <.<.<.<.J > : : : o % H H Z Z l Z G Z l . j l j ",
"j l j % : : : : : : : : : : : : $ : : : 3 3 : : : : : : : : : : : : : Z J J H H H H J J J * . . . . . : : : : : : : : : . j l j ",
"j l l % & . . . . . . . . . . . . . . . n ] n b . . . . . . . . . . . l G G Z Z G G H H l *           . . . . . . . . .   l l j ",
"j l j % & . . . . . . . . . . . . . . ' ] 8.' n b . . . . X X X X o . G l G l l Z l C G l &         . . . . . . . . o + % j l j ",
"j l j % & + : % * 8 % % * % . . . n ] ] ] [ n n n n b . . c b c * l <.4.1.H H Z l # $ C H o   , , @ @ O O     . X O # a # j l j ",
"j l j % $ p A t ( ` k k _ l . . . 1 n ] 7.8.7.] ' c @ . . @ @ @ l J 1.4.1.y.u.y.4.4.y.G J # @ @ @ @ @ O O     % # a # a # j l j ",
"j l j % $ p A t } { ( o.( l . . . . . < b b < < < . . . . $ a M l J J J J <.1.<.1.4.H + J + u #.+.@.@.#.#.+.@.@.#.a # a # j l j ",
"j l j % $ p A t } { ( o.( l . . . . < b n n b c c , . . . $ a M . Z G G H J J J <.J $ C ;.o u +.d +.@.@.+.d +.@.@.a # a # j l j ",
"j l j % $ p p t } { ( o.( Z   . < b ] [ [ ] b c b b b 9 . $ N N * . % : > l k G G Z J J o X # g y $.*.S g y $.*.S # # a # j l j ",
"j l j % $ p A t } { ( o.( $ . . < n 7.9.7.[ n b c n ' / . $ a M * X % % % X o % % . o u f f # s g &.,.F s g &.,.*.a # a # j l j ",
"j l j % $ p A t } { ( o.( $ . , b ' 7.8.[ ' c < , b n b , $ $ $ & X % . O + O u y d y u y d # g y $.>.S g y $.*.S a # a # j l j ",
"j l j % $ p A t } { ( o.( 8 . , b ' 7.[ ] n < < , c b b , @ < < & r % . O +   u u u u u u u u +.y +.+.+.+.y +.+.+.a # $ # j l j ",
"j l j & $ p A t } { _ o.( - . . < b n n b c < , , < c c . @ < < * e Y % O + O u u u u u d +.+.+.d d +.+.+.d d +.+.a # a # j l j ",
"j l j & $ p A t } ` _ o.( 8 . . @ < c b c < , , , < < , . @ < @ * 8 P % $ M # u d +.+.d d +.+.+.d d +.+.+.d d +.+.a # a # j l j ",
"j l j & $ p A t } ` _ o.( 8 . . . , , < < < , , , , , . . @ @ @ * r r : $ M + u u y y u u y y y u u y y y u u y u # # $ # j l j ",
"j l j & & & & & & & & & * & . . . . . , , , , , , . . . . & & & * % * . . . o   . X +     . o +     . X +   . . & & & & % j l j ",
"j l j & & & & & & & & & & & & & & & & & & & & & & & & & & & & & % % * * * % * % % % * * % * % * * * % % % % % * & & & & % j l j ",
"j l l l l l l l l l l l l l l l l l l l l l l l l l l l Z l l l l l l l l l l l l l l l l l l l l l l l l l l l l l l l j l l j ",
"j j j j j j j j j j j j j j j j j j j j j j j j j j j j j j j j j j j j j j j j j j j j j j j j j j j j j j j j j j j j j j j j ",
"o o _ H 3 >   % o o o o o o o o o o o o o o o o o o o o o o o o o o o o o % o o o o o o o o o o o o o o o o o % %   > 3 H _ o o ",
"o G J <.G 4 % o o o o o o o o o o o o o o o o o o o o o o o o o o o o o o o o o o o o o o o o o o o o o o o o o o % 4 G <.J G o ",
"X _ J Z G Z . o % & & & & & & & & & & & & & & & & & & & & & & & & & & & & & & & & & & & & & & & & & & & & & & & o . Z G Z J _ X ",
"  k l l l :                                                                                                         : l l l k   ",
"X   8 8 8 & .                                                                                                     . & 8 8 8   X "
};
