/* XPM */
static char *_[] = {
/* columns rows colors chars-per-pixel */
"64 100 166 2 ",
"   c gray6",
".  c #131313",
"X  c gray9",
"o  c #1B1B1B",
"O  c gray12",
"+  c #23170B",
"@  c #2F1F0F",
"#  c #1E371E",
"$  c #3B2713",
"%  c #3A3319",
"&  c #232323",
"*  c gray15",
"=  c #282828",
"-  c #282F28",
";  c #2B2E2D",
":  c #2C2C2C",
">  c #2C2C2D",
",  c #2E2C2E",
"<  c #322D22",
"1  c #392B27",
"2  c #223322",
"3  c #273C27",
"4  c #2B3827",
"5  c #263328",
"6  c #3D3626",
"7  c #363228",
"8  c #382D34",
"9  c #3F2F38",
"0  c #2D3030",
"q  c #2C3031",
"w  c #2F3B3C",
"e  c #2F3F3F",
"r  c #303032",
"t  c #323737",
"y  c #35353B",
"u  c #3A3A3A",
"i  c #4A271B",
"p  c #453C15",
"a  c #57371B",
"s  c #662101",
"d  c #6F2200",
"f  c #412921",
"g  c #423629",
"h  c #453F2A",
"j  c #4F3F2B",
"k  c #43333F",
"l  c #2D4025",
"z  c #2E4425",
"x  c #334B23",
"c  c #344D2D",
"v  c #355722",
"b  c #3D5935",
"n  c #5D4E0E",
"m  c #514512",
"M  c #68570B",
"N  c #746107",
"B  c #7F6A04",
"V  c #5B4326",
"C  c #53472C",
"Z  c #674027",
"A  c #704628",
"S  c #7A4B2B",
"D  c #604C33",
"F  c #6D5536",
"G  c #7B5C3C",
"H  c #416225",
"J  c #4C6C2A",
"K  c #547630",
"L  c #5C7F36",
"P  c #3D3D43",
"I  c #4B3447",
"U  c #563A4D",
"Y  c #2D4848",
"T  c #344557",
"R  c #285353",
"E  c #275B5B",
"W  c #2D527A",
"Q  c #2E6767",
"!  c #367070",
"~  c #3E7C7C",
"^  c #434343",
"/  c #4E4E4E",
"(  c #444450",
")  c #4B4B55",
"_  c gray34",
"`  c #446343",
"'  c #4D6E4E",
"]  c #527456",
"[  c #555560",
"{  c #5E5E6D",
"}  c #654160",
"|  c #6D4566",
" . c #7F4D6A",
".. c gray39",
"X. c gray43",
"o. c #676774",
"O. c #777777",
"+. c #72727F",
"@. c #821600",
"#. c #A2240C",
"$. c #A9300F",
"%. c #B03C13",
"&. c #B74817",
"*. c #BE541B",
"=. c #8B7300",
"-. c #9B5B2F",
";. c #814F30",
":. c #8C5637",
">. c #985D3F",
",. c #C65F1F",
"<. c #CD6B23",
"1. c #D47727",
"2. c #866741",
"3. c #976E45",
"4. c #A0764A",
"5. c #AD7F4E",
"6. c #B47150",
"7. c #8F5477",
"8. c #5D825E",
"9. c #6D9242",
"0. c #6B906D",
"q. c #7B9C76",
"w. c #9A8500",
"e. c #A89600",
"r. c #B7A800",
"t. c #C5B900",
"y. c #DB832B",
"u. c #E28F2E",
"i. c #F1A736",
"p. c #D4CB00",
"a. c #F1EE2D",
"s. c #B78C58",
"d. c #82A24D",
"f. c #9FB765",
"g. c #C49A69",
"h. c #CF9876",
"j. c #FFB962",
"k. c #315A8E",
"l. c #3E69A7",
"z. c #7A7A89",
"x. c #4470B3",
"c. c #447CC0",
"v. c #9B6282",
"b. c #AF6F90",
"n. c #BC7F9E",
"m. c #468787",
"M. c #4D8E8E",
"N. c #579A9A",
"B. c #6DAAAA",
"V. c #5789CD",
"C. c #6898D9",
"Z. c #848484",
"A. c #878795",
"S. c #939393",
"D. c #91919F",
"F. c #86BBBB",
"G. c #A2A2A2",
"H. c #A5A5AE",
"J. c #B9B9B9",
"K. c #CC92AA",
"L. c #DCA6BC",
"P. c #FFD78D",
"I. c #E8BCC8",
"U. c #9ECACA",
"Y. c #CADDC4",
"T. c #FEFFC7",
/* pixels */
"D D D D D D D D D F F F D D D D D D D D F F F F F D D D D D D D F G G F F D D F F F F F F G F F D F F D D D D F D F F D D D D D ",
"h C C C j j j j j C C D D C C j j j j j j j C C C C C D D D C C C j j j j j C C C C C C C j C C j C C F F C C j C D C C C h C C ",
"y j V g D D D g g o g g g g g g g g 5.F F F F F a g g g g g g g g g g g g g g g a F F F F F 5.g g g g g g g O O g g D D D g V y ",
"y j V 6 G V 6 . . & < G 3.3.D * * 3.D g . . g D D X X X X X X X X X X X X X X X D D g X X g D 3.* * D 3.3.G * & O * 6 V G 6 V y ",
"y j g 6 V 6 . X X O j g j D 3.D 3.D g . X X . g D X X X X X X X X X X X X X X X D g X X X X g D 3.D 3.D j g j O X o & 6 V 6 j y ",
"y j h G V . 1 * O O g . . j D G G g . X X X X g D X X X X X X X X X X X X X X X D g X X X X X g G G D j < * g O O * 6 g V G j y ",
"y j g V V G G G < &   X X < D G G   X X X g D D g X X X 3 X X b X X X X X X X   g D D g X X     G G D < o   o & < G G G V V j y ",
"y j V V D D V D G < O X X & j D D X X X X         X X X X c X X z X X X X X c         X X X X   D D j * X X O < G D V D D V V y ",
"y h V V 6   < V V G < X X & j D D X X X X X X X X X X X X 2 c X 2 z X X X c 3 X X X X X X X X   D D j * X o < G V V <   6 V V y ",
"y h V 6 . X   X V G 7 # o & j D j X X 2 8.] # # X u X X X X 3 ` X 3 X X c # X X X 2 8.] # # X & j D j * X o < G V 6 O   O 6 V y ",
"y h V . X X X X V D < 2 2 < j D g X z ` 2 ` u ' ' u c X z X X 3 X 3 X c X b c X z ` 2 ` u ' ' & g D D * X o & D V 1 O o o O V y ",
"y j D X X X < 6 V 6 * & # 6 D D   X X X c u 2 u # X u u X 3 c X c # # 3 ` c X X X X c u 2 u #   & D D 1 O o o 6 V 6 6 O * O D y ",
"r h D * X X 6 V 2   2 r X G D j u X ` 0.] u 2 u ' 8.b u u X X z c z c 3 X X X X ` 0.] u 2 u ' 8.2 j D G < O o o & V 6 & * O D k ",
"y h D 3.* X O     & z X G D V g X ` u X X u z 2 2 - 8.X X X X p 3 2 3 M X X X ` u X X u z 2 2 - b g V D G < O o O o O * * 3.D k ",
"y j D G 3.u X   X X < G V V 6 + X u X X q.' < < < u b u X X m j Z 3 # g M % X u X X q.' < < < u 2 + 6 V V G 6 < 1 1 1 j 3.G D y ",
"y j j V G 3.G G G G D D V 6 +   X X X X c 6 C C h < X X X X m % =.=.m p % X X X X X c 6 C C h <     + 6 V D D G G G G 3.G V j y ",
"y j h j V G G G D D D V 6 +   X X X X X < 6 h C h < X X X X m =.=.w.=.M m p X X X X < 6 h C h < X     + 6 V D D D G G G V j g y ",
"y j h j C V V V V V V 6 O O j j j j j j j j j j j j j j j j j j j j j j j j j j j j j j j j j j j j & & & 6 V V V V V V C j g y ",
"y g j D D V V V g 6 o o g g g g g g g g g g g g g g g g g g g g g g g g g g g g g g g g g g g g g g g g O O O 6 g V V V D D j y ",
"y h D D 6 6 < & O o o o O & & & & & & & & & & & & & & & & & & & & & & & & & & & & & & & & & & & & & & O o o o O & & < 6 6 D D y ",
"y j D V . . o o o o X X X X X X X X X X X X X X X X X X X X X X X X X X X X X X X X X X X X X X X X X X X X X X X o O & < V D k ",
"y j D g & o & < < < & X X X X X X X X X X X X X X X X X X X X X X X X X X X X X X X X X X X X X X X X X X X & < < < g * & g D k ",
"y j D g < < V V G 3.6 & X X X X X X X X O q e e 5 O X X X X X X X X X X X X X X X X X X X o O O o X X X X & 6 3.G V V 1 < g D k ",
"y h D V g D V g g G 3.< o X X X X X X X & ! F.N.Q O X X X X X X X X X X X X X X X X X X X O H v O X X X X < 3.G g g V D g V D y ",
"r g g D V g 1 < & V G & o X X X X X X X & e Q B.Y O X X X X X X X X X X X X X X X X X X X O x v 2 O O o X   G V     6 g V D j y ",
"y O 7 1 1 <   . & V V < o X X X X X X o O > R e t q O X X X X X X X X X X X X X X X X O & 2 2 < 2 H x O o   V V X X X 1 1 g g y ",
"y j o . .   V . g g V * O O X X X X o & * . 5 ! U.E r O X X X X X X X o O 2 & O X X X & K v < j < x z 2 x 2 V g X X V   X O j y ",
"y j 7 * * X 6 V V V g j E 6 o X X X O t } n.n.n.L.b.| & X X X X X X X o v H K 2 O O O 4 H x x < < 2 & 2 l 2 g V V V 6 X X g j y ",
"y j 6 * * X X X o < F g.i.Z @ X X X O t v.K.I.I.T.v.k * X X X X X X X o 2 x v H & 4 v 4 j 2 < j v 2 2 2 <     o g g & X X g j y ",
"y j 6 * * X O @.#.1.,.P.<.$.$ X X X O t I U }  .b.} k & X X X X X X X X o O 2 x 2 2 x v X v z z X X 2 v H 2 2 2     X X X g j y ",
"y j 6 * * X t %.&.*.,.y.*.$.$ X X X O Y I U } | 7.} k & X X X X X X o o & & < < j * z 4 X x 4 < j j ; H v 2 2 o < < o X X g j y ",
"y j 6 * * X E S &.*.,.<.*.a @ X X X O > P U } } | U e O X X X X X o & < 6 V j j < < X o < < < x o o X X o o X 2 X X X X X g j y ",
"y j g * * X * e Q ! E P * * 1 < < < < * Y Q ! E P * * < < < < < < 1 6 V 6 < < X X X j < < o o 4 ; X < o o X X 2 o X X X X g j y ",
"y j g D D D D D F F F D D D D D D D D F F F F F D D D D D D D F G G F F D D F F F F F F G F F D F F D D D D F D F F D D D j j y ",
"y j g g g g g g c g h g g g g g g g g h h h C 6 6 6 g g g g g h j j h h g g h h h h h h h h h h h h g g g g g h h g 7 7 7 g j y ",
"y j g * * * * * * * * * * * * * * * * * & & * * * * * * * * * * * * * * * * * * * * * * * * * * * * * * * * * * * * * * * g j y ",
"y j 6 * * X X X X X X X X X X X X X X X X X X X X X X X X X X X X X X X X X X X X X X X X X X X X X X X X X X X X X X X * 6 j y ",
"y j 6 * * X X X X X X X X X X X X X X X X X X X X X X X X X X X X X X X X X X X X X X X X X X X X X X X X X X X X X X X * 6 j y ",
"y j 6 * * X X X X X X X X X X X X X X X X X X X X X X X X X X X X X X X X X X X X X X X X X X X X X X X X X X X X X X X * 6 j y ",
"y j 6 * * X X X X X X X X X X X X X X X X X X X X X X X X X X < X X X X X X X X X X X X X X X X X X X X X X X X X X X X * 6 j y ",
"y j 6 * * X X X X X X X X X X X X X X h C F 2.X X X 6 C X X X X < 6 X X X X X X X X X X X X X . R ! N.B.m.X X X X X X X * 6 j y ",
"y j 6 * * X X X X X X X X X X X O X < C D h C D C D 6 X X X X X 6 X X X X X X X O X X X X X X X X ; q q t X X X X X X X * 6 j y ",
"y j 6 * * X X < 6 j X X * 6 X X X < < G 3.D 6 6 6 X X X X X 6 < 6 j X X * < X X X O X X X X X X E q y Y Y e X X X X X X * 6 j y ",
"y j 6 * * X O 6 g < g 6 * X X X X < 6 C h 3.X X X X X X X h O 6 g < g 6 < X X X X * X X X X X e O . & R M.! e X X X X X * 6 j y ",
"y j 6 * * O * 6 < F X X X X X < X < 6 h G D D X D 3.h h D C * 6 < F < 6 < X X < X X X X O X Y i i V D N.U.U.N.Q X X X X * 6 j y ",
"y j 6 * * X O * < D j D j D D X X 6 < 6 h G 3.F G D F 2.2.X O * C 6 j D j D D X X 6 X X X t F *.*.*.*.,.Z.4.&.*.e X X X * 6 j y ",
"y j 6 * * X X * j 6 g < < * g D 6 < X 6 F C F D h 6 h 6 D 2.F C h 6 g < < * g D 6 < X X X E Z @.$.$.%.%.&.&.%.Z R X X X * 6 j y ",
"y j 6 * * X X X X O < g X X X X X X X X X < 6 h D X X X X X X X X O < g X X X X X X X X X X Q i s d d d d s j R X X X X * 6 j y ",
"y j g * * * * * * * * * * * * * * * * * * * * * 6 < * * * * * * * * * * * * * * * * * * * * * Y t E E e Y P & * * * * * * 7 j y ",
"y j j g D D D D D F F F D D D D D D D D F F F F F D D D D D D D F G G F F D D F F F F F F G F F D F F D D D D F D F F h X 6 j y ",
"y j g g 6 g g g g h h h g g g g g g g g h h h h h g g g g g g g h j j h h g g h h h h h h h c h h h h g g g g g c g g 7 7 6 j y ",
"y j g * * * * * * * * * * * * * * * * * * * * * * * * * * * * * * * * * * * * * * * * * * * * * * * * * * * * & * * 2 & * g j y ",
"y j 6 * * X X X X X X X X X X X X X X H v X X X X X X X X X X X X X X X X X X X X X X X X X X X X X X z X X # X . 3 X # * 6 j y ",
"y j 6 * * X X X X X X X X X X X X X < x v X X X X X X X X 2 8.] # # X u X X X X X X X X X X X X X X 3 X X 2 X X V C 4 X * 6 j y ",
"y j 6 * * X X < h C 2.X X 6 C X X X X 6 < X H x X X X X z ` 2 ` u ' ' u c X X X X X X X X X 3 X X > # z ; X V a # ; X # * 6 j y ",
"y j 6 * * X X C C D C D C 6 X X X K v X j X x z X X X X X X c u 2 u # X u 9 X X X X X X X z X X Y X z ; 3 6 C > 3 X X X * 6 j y ",
"y j 6 * * X < F C v H K X X X X h H x X < < < X X X X X ` 0.] u 2 u ' 8.b u u X X X X 2 X ` . # X c ; V C l ; ; e e 2 # * 6 j y ",
"y j 6 * * X < C h G x v H h 4 v C j X < j v X X X X X ` u X X u z 2 2 - 8.X X X X X X l b X P . # V 2 h l X e X ; X X X * 6 j y ",
"y j 6 * * X X h 6 h 3.F x F 2.x v X v z z X X X v H X u X X q.' < < < u b u X X X X o 2 z 2 3 C c l 6 < # # X 2 X ; ; X * 6 j y ",
"y j 6 * * X X X < < h C X j X z 4 C x 4 < j j ; H v X X X X c 6 C C h < X X X X X X 2 l < V < 3 C < X # X X # X # X X X * 6 j y ",
"y j 6 * * X X X < 6 V j j < < X X < < X x X X X X X X X X X < 6 h C h < X X X X X X 6 3 i i c t . w X X # ; X X X X X X * 6 j y ",
"y j g * * X X 6 V 6 < < X < < j < < X X 4 ; X X X X X X X X X < < < < X X X X X X X ; ; i X 2 X # . # X X X # ; X X X X * g j y ",
"y j g D D D D D F F F D D D D D D D D F F F F F D D D D D D D F G G F F D D F F F F F F G F F D F F D D D D F D F F h X 7 j j y ",
"y j g g g 6 6 6 g g g 6 6 6 6 6 6 6 6 g g g g g 6 6 6 6 6 6 6 g g g g g 6 6 g g g g g g g g g g g 6 6 6 6 6 6 g g 6 < < 7 g j y ",
"y j g * * X X X X X X X X X X X X X X X X X X X X X X X X X X X . o . o . o . o . o . o X X X X X X X X X X X X X X X X * g j y ",
"y j 6 * * X X X X X X X X X X X X X p h.w.p X X X X X X X X X X o . o . o . o . o . o . X X X X X X X X X X X X X X X X * 6 j y ",
"y j 6 * * X X X X X X . X X X X X X n w.J.n X X X X X X X X X X . o . o . o . o X X . o X X X X X X X X X X X X X X X X * 6 j y ",
"y j 6 * * X X X a u.w.a X X w.% N X X S.X.X 2.% N w.X X X X X X o . o . o . o . G.q o . X X X X X X X X X X X X X X X X * 6 j y ",
"y j 6 * * X X X w.% N 9.X X n 9.J.X ) O.F ) n 5.J.n X X X X A r.w.o . o o . o . G.t X X X X X X ! B.N.Q X X X X X X X X * 6 j y ",
"y j 6 * * X X X X X.7.. X X X S.X.A.H.X.X.S.X S.X.X X X X X 1.u.g.. o . . o . o A.o.X X X X X X c Q B.X X X X X X X X X * 6 j y ",
"y j 6 * * X X X ) O.F ) X ) X.j ..) t $.:.a X.j .. .X X X X O. .X.o o . o . o . X.) X o X X X X E Y m.Y X X X X X X X X * 6 j y ",
"y j 6 * * X X X H.X.X.S./ m.J.J.S.v.} @.a S J.J.S.q.` X X ) H. ...) . o . o o p.o.o.x.o X X X Q R I ! U.E X X X X X X X * 6 j y ",
"y j 6 * * X X 9.f.H L P o.E N.w k.}  .@.a >.1.1 ` c ' X X m.J.H.S.7.o X X X X w.) o.I X X X c Q ; q Y Q 0 0 X X X X X X * 6 j y ",
"y j 6 * * X X w.H x v ^ O.! W W W  .b.,.1 1.Z Z n ` w.X X [ o.8 [ [ o X X X X b 2 o./ o X X P 4 o & - Y 0 > X X X X X X * 6 j y ",
"y j 6 * * X X w.n v E H d.x.T T l.l.b.&.1 u.a a ' >.1.X X Q ) 8 R  .& X X X X 0.P P R o X X E 4 ~ N.E Q 0 q X X X X X X * 6 j y ",
"y j 6 * * X X w.M L m.d.O.V.V.V.V.b.W X X Z 1.1.1.t.Z X X m.[ P ~ 7.& X X X X 9.y ` B.X X X Q k.~ R k.E N.0 X o X X X X * 7 j y ",
"y j 6 * * * * * M =.m.H o * * & o * * * * * * & o o * * * ) F.z.A.^ o & & = * u ' B.( & * * * Y E ! E m.Y * * * * * * * * 6 j y ",
"y j g * * * * * * * * * * * * * * * * * * * * * * * * * * * O o o = & = = & = & o . o * = & * * & 2 = - * * * * * * * & * 6 j y ",
"y j g D D D D D F F F D D D D D D D D F F F F F D D D D D D D F G G F F D D F F F F F F :.F F D F F V D D D F D F F C . 7 C j y ",
"y j g g g 6 6 6 g g g 6 6 6 6 6 6 6 6 g g g g g 6 6 6 6 6 6 6 g g g g g 6 6 g g g g g g g g g g g g g % 6 6 6 g g 6 < < < g j y ",
"y j g * * X X X X X X X X X X X X X X X X X X X X X X X X X X X X X X X X X X X X X X X X X X X X X X X X X X X X X X X X 6 j y ",
"y j 6 * * X X X X _ ;.% X X X X X X X X X X X X X X X X X X X X X X X X X X X X X X X X X X X X X X X X X X X X X X X X X 1 j y ",
"y j 6 * * X X X X Z.O.< X X X X X X X X X X X X X X X X X X X X X X X X X X X X O X X X X X X & X X X X X X X X X X X X X 1 j y ",
"y j 6 * * X X X X / / < X X X X X X X X @ < X X X X @ X r n.X X X X X X X X X X & ..O X X X X 4.X } L.X X X X X X X X X X 1 j y ",
"y j 6 * * X % _ < C i < X X N.m.X X X X ;.-.% . X X w.X o.7.. 2.X X X X X X X X < c x X X G.8 a.P Z.7.X 4.X X X X X X X X 1 j y ",
"y j 6 * * X g D.1 f i f 1 X Y E X X X u O. .g X X m w.X <.b.. h ' X X @ X X X X & J l X X ' J s.G j...X 8.X X F u X X X X 1 j y ",
"y j 6 * * X f ( 1 ;.g.i f Y q E E X X ( G. .( X X 3.2.o.Z.y X.9.` X X e.X X X X & c c 2 X d.H 4.w.G.P Z.f.X X t.X.X X X X 1 j y ",
"y j 6 * * X O r & j 6.i i = = R q * X ~ J.G.7.X X g.p.o.;.= c c ` X ^ A.^ X X X 3 2 c / X ' ' Y 3.V > Y.q.0.X Z._ X X X X 1 j y ",
"y j 6 * * X q Z.( * 3.i f o & = = O X Q ( > | & X 2.a F U 9 J y ' X H.z.V.  X X H & 3 R ` b ' X.=.7.b.] T ] O _ z.) X X X 1 j y ",
"y j 6 * * X q ../ * 3.i O O O * = = X ~ [ P  .& X 4.a F 7.7.` y J & G.) Y . X X L = 3 E 8.y ` ~ y.o O ] ( z.& y o.' X X X 7 j y ",
"y j 6 * * * * _ ) & 3.i f R E R R * * T B.+.^ o * r ,.r * * 8.8.k.o P P ` * * * J P E P f.P ` N.* * * f.z.C.X P ] F.* * * 7 j y ",
"y j 6 * * * * ( _ & ;.i f * * * * * * * & O * * * * & & * * d.o.x.  4 P B.* * * * X . * d.{ N.{ * * * * * * * 8.F.F.* * * 6 j y ",
"y j g * * * * * * * * * * * * * * * * * * * * * * * * * * * * * * * * o o * * * * * * * * o . * * * * * * * * * * * * * * g j y ",
"y j g D D D D D F F F D D D D D D D D F F F F F D D D D D D D F G G F F D D F F F F F F G F F D F F D D D D F D F F h X 7 j j y ",
"q 7 7 6 g g g g g g g g g g g g g g g g g g g g g g g g g g g g g g g g g g g g g g g g g g g g g g g g g g g g g g 7 < < 7 7 q ",
"O O O O O O O O O O O O O O O O O O O O O O O O O O O O O O O O O O O O O O O O O O O O O O O O O O O O O O O O O O O O O O O O ",
"O O O O O O O O O O O O O O O O O O O O O O O O O O O O O O O O O O O O O O O O O O O O O O O O O O O O O O O O O O O O O O O O ",
"* * * * * * * * * * * * * * * * * * * * * * * * * * * * * * * * * * * * * * * * * * * * * * * * * * * * * * * * * * * * * * * * ",
"* * * * * * * * * * * * * * * * * * * * * * * * * * * * * * * * * * * * * * * * * * * * * * * * * * * * * * * * * * * * * * * * ",
"* * * * * * * * * * * * * * * * * * * * * * * * * * * * * * * * * * * * * * * * * * * * * * * * * * * * * * * * * * * * * * * * "
};
