/* XPM */
static char *treasure[] = {
/* columns rows colors chars-per-pixel */
"72 38 91 1 ",
"  c gray9",
". c gray12",
"X c #3B2713",
"o c #3A3319",
"O c #232323",
"+ c #282828",
"@ c #2B2E2D",
"# c #322D22",
"$ c #392B27",
"% c #2B3827",
"& c #2F3B3C",
"* c #303032",
"= c #5C2103",
"- c #453C15",
"; c #6F2200",
": c #412921",
"> c #453F2A",
", c #4F3F2B",
"< c #2E4425",
"1 c #334B23",
"2 c #355722",
"3 c #5D4E0E",
"4 c #514512",
"5 c #68570B",
"6 c #746107",
"7 c #7F6A04",
"8 c #5B4326",
"9 c #53472C",
"0 c #674027",
"q c #7A4B2B",
"w c #7B5C3C",
"e c #416225",
"r c #4C6C2A",
"t c #547630",
"y c #5C7F36",
"u c #323E49",
"i c #344557",
"p c #334D66",
"a c #2D527A",
"s c #367070",
"d c #930C04",
"f c #821600",
"g c #9A1808",
"h c #A2240C",
"j c #A9300F",
"k c #B03C13",
"l c #B74817",
"z c #BE541B",
"x c #8B7300",
"c c #8F5733",
"v c #CD6B23",
"b c #D47727",
"n c #866741",
"m c #A0764A",
"M c #AD7F4E",
"N c #65893C",
"B c #6D9242",
"V c #9A8500",
"C c #A89600",
"Z c #B7A800",
"A c #C5B900",
"S c #DB832B",
"D c #E28F2E",
"F c #EA9B32",
"G c #F1A736",
"H c #D4CB00",
"J c #E2DC00",
"K c #F1EE2D",
"L c #B78C58",
"P c #82A24D",
"I c #9FB765",
"U c #FFAF53",
"Y c #C18564",
"T c #C49A69",
"R c #B9CD7F",
"E c #FFC370",
"W c #FFF667",
"Q c #315A8E",
"! c #3E69A7",
"~ c #4470B3",
"^ c #6DAAAA",
"/ c #7BA4E6",
"( c #D5AE80",
") c #D8E3A2",
"_ c #FEEBAA",
"` c #FEF5B9",
"' c #93B9F4",
"] c #9ECACA",
"[ c gainsboro",
"{ c #FEFFC7",
"} c None",
/* pixels */
"}}}}}}}}}}}}}}}}}}}}}}}}}}}}}}}}}}}}}}}}}}}}}}}}}}}}}}}}}}}}}}}}}}}}}}}}",
"}}}}}}}}}}}}}}}}}}}}}}}}}}}}}}}}}}}}}}}}}}}}}}}}}}}}}}}}}}}}}}}}}}}}}}}}",
"}}}}}}}}}}}}}}}}}}}}}}}}}}}}}}68}}834}303}}}}}}}}}}}}}}}}}}}}}}}}}}}}}}}",
"}}}}}}}}}}}}}}}}}}}}}}}}}}}}}434}6344}4384}46}}}}}}}}}}}}}}}}}}}}}}}}}}}",
"}}}}}}}}}}}}}}}}}}}}}}}}}}}5}o8}}488}}}33-}o34}}}}}}}}}}}}}}}}}}}}}}}}}}",
"}}}}}}}}}}}}}}}}}}}}}}}}}}}A}o4}}}44o}-04}}}3o}V}}}}}}}}}}}}}}}}}}}}}}}}",
"}}}}}}}}}}}}}}}}}}}}}}}}}}}C}CH}}-4-o}-84-}}Cm}A}}}}}}}}}}}}}}}}}}}}}}}}",
"}}}}}}}}}}}}}}}}}}}}}}}}}}}m}7MHo-AToo-A7-}Yc5}n}}}}}}}}}}}}}}}}}}}}}}}}",
"}}}}}}}}}}}}}}}}}}}}}}}}}}}x}7CCoACLAoAVccoc5q}7}}}}}}}}}}}}}}}}}}}}}}}}",
"}}}}}}}}}}}}}}}}}}}}}}}}}}}no7M4oVCALoVV7co:45}n}}}}}}}}}}}}}}}}}}}}}}}}",
"}}}}}}}}}}}}}}}}}}}}}}}}}}}wZ7C4o-CJ+:omc,oo8qoV}}}}}}}}}}}}}}}}}}}}}}}}",
"}}}}}}}}}}}}}}}}}}}}}}}}}}}7m7Co+.C[}}.Vc$:o85ZV}}}}}}}}}}}}}}}}}}}}}}}}",
"}}}}}}}}}}}}}}}}}}}}}}}}}}}8m7MH}mC[L}Hmc5.V457m}}}}}}}}}}}}}}}}}}}}}}}}",
"}}}}}}}}}}}}}}}}}}}}}}}}}}}377CAKVCKZHmV7q744q77}}}}}}}}}}}}}}}}}}}}}}}}",
"}}}}}}}}}}}}}}}}}}}}}}}}}}}5V3xA[mCJDVVmcq54o43xlXkgffv}}}}}}}}}}}}}}}}}",
"}}}}}}}}}}}}}}}}}}}}}}}}}}}}77CxHVMAZmmV744o855.dSggjGg}}}}}}}}}}}}}}}}}",
"}}}}}}}}}}}}}}}}}}r2<<<%%rP365MZ(wxCM57c35q48- xdvEEzjg}}}}}}}}}}}}}}}}}",
"}}}}}}}}}}}}}}}}}}1e2222rIy6VZ+47xSTLcVVc5-o. 55dvF__jg}}}}sQQauu^}}}}}}",
"}}}}}}}}}}}}}}}}}}1%I`6CZC6367Z++#OOOO..    5xVCdvG__kg>}}}Qp.Oipi}}}}}}",
"}}}}}}}}}}}}lXkgffv%R)ZJWJZ6996xx7ZHZ765xxx756xxdjE__fg>56xx6']~i&}}}}}}",
"}}}}}}}}}}}}dSggjGg@`rxCZCZCA6VZAZx335365ZAZx555dk___;g65xCCxp]]a&}}}}}}",
"}}}}}}}}}}}}dvEEzj>xZZCZZAZxxC7xVV5xZAZx3xCx57xChzbbbGfZ9955555]a&}}}}}}",
"}}}}}}}}}}}}dvF3xZ[ZCCZZVxVCVxJ67553x37x737x76ZJvhg==kUCZC6VCxVCZC6}}}}}",
"r2<<<%%rP}}}dvGx[[ZVVZHZVxCx6xCZCxZAZxCAZxZAZ7xxxWJZ>>ZJWJZxx6ZJWJV}}}}}",
"1e2222rIy}6CZCCCVZCC[HVCCsQQauu^J7VCC7x7x3xZV6CZC6CZC67ZHZ7555VZHZ7}}}}}",
"1%I````N2}ZJWJ[VCZ[ZCAHV5Qp.OipiZ7796CZC6JWJ6ZJWJZJWJZ9955555799a!}}}}}}",
"y%R))))N<}7ZHZZx7VZVVH573OQ']~i&x6CZZJWJZZHZZ7ZHZ7ZHZ795xxCZCZCA6}}6CZC6",
"B@`rPIRN<}}}vhCVVV76xC575*~p]]a&5ZJW7ZHZ76xx7ZHZ765xxxxZZCZZAZxxC}}ZJWJZ",
"<eBINNNI6CZC6}xCxx67VH3-V*Q~]]a&37Zr2<<<%%rPZx335365xCZCVVC[CVCxV}}7ZHZ7",
"2%%22222ZJWJ6CZo-457VH367Qi~]]a&7371e2222rIyV5xZAZx[HZVV[HZVxCx6x}}}}}}}",
"}}}}}}}}7ZHZZJWJZZ7766CZCai/]{a&CZC1%I````N2553x3ZCVZCC[VVCCV535x6CZC6}}",
"}}}}}}}}}}}}7ZHZ77ZHZZJWJi~QQQ~pJWJy%R))))N<xZAZxCVCH[ZCHHV57653-ZJWJZ}}",
"}}}}}}}}}}}}}}}}6CZC67ZHZ!ppppa!ZHZB@`rPIRN<7VCC7xxxA[HAAV75763-}7ZHZ7}}",
"}}}}}}}}}}}}}}}}ZJWJZ}}766CZZJWJZxC<eBINNNI<7}}6CVxxCV6x75736-}}}}}}}}}}",
"}}}}}}}}}}}}}}}}7ZHZ7}}}}ZJW7ZHZ77x2%%22222tC6}ZJCVx777x657-7}}}}}}}}}}}",
"}}}}}}}}}}}}}}}}}}}}}}}}}7ZHZ7}}6CZC6}}}}ZJWJZ}7Zoo-557V53}}}}}}}}}}}}}}",
"}}}}}}}}}}}}}}}}}}}}}}}}}}}}}}}}ZJWJZ}}}}7ZHZ7}}}}}}}o-V-o}}}}}}}}}}}}}}",
"}}}}}}}}}}}}}}}}}}}}}}}}}}}}}}}}7ZHZ7}}}}}}}}}}}}}}}}}}}}}}}}}}}}}}}}}}}"
};
