/* XPM */
static char *_[] = {
/* columns rows colors chars-per-pixel */
"32 4 16 1 ",
"  c #3B2F2C",
". c #532616",
"X c #5C2712",
"o c #652712",
"O c #6E2812",
"+ c #432D27",
"@ c #801F14",
"# c #901919",
"$ c #97221C",
"% c #9F2B1F",
"& c #A63522",
"* c #AD4025",
"= c #BB562D",
"- c #CA6B34",
"; c #E08D40",
": c #FDAD5F",
/* pixels */
" +..XXooOO@@@###$%$%&&&*===-;;;:",
"++...XXoooO@@###$$$&&&**===-;;::",
" ++.XXXXoOO@####$$%%&*&*==--;;;:",
"+++..XXXoOO@@@##$%%%&&&**=---;;:"
};
