/* XPM */
static char *floor2[] = {
/* columns rows colors chars-per-pixel */
"12 12 10 1 ",
"  c gray14",
". c #2A2A2A",
"X c #2C2C2C",
"o c #243924",
"O c #273628",
"+ c #3F392B",
"@ c #323032",
"# c #333435",
"$ c #353A3A",
"% c gray24",
/* pixels */
". . .%#... .",
"..@$X$@. . .",
". .@@..@$.$.",
"+.$.#. .@@@.",
"O@$ .+.$.#%.",
"o @. O@$ .#.",
"...@$X$..@ o",
".. .@@@. $@O",
".+.$.#%#.$.+",
".O@$ .#@@. .",
"... .@$X$@..",
".  .X#% .  ."
};
