/* XPM */
static char *floor[] = {
/* columns rows colors chars-per-pixel */
"12 12 44 1 ",
"  c #262829",
". c #2A2B2E",
"X c #2B2E2E",
"o c #2C2F30",
"O c #2E2F31",
"+ c #2E3132",
"@ c #2C3232",
"# c #2F3134",
"$ c #303133",
"% c #313034",
"& c #323337",
"* c #343337",
"= c #323437",
"- c #343437",
"; c #343538",
": c #37373B",
"> c #36373C",
", c #323A3B",
"< c #37383B",
"1 c #36383C",
"2 c #38383E",
"3 c #383A3F",
"4 c #373B40",
"5 c #363C40",
"6 c #3A3A40",
"7 c #3B3E43",
"8 c #3D3C43",
"9 c #3A3F44",
"0 c #3E3E44",
"q c #3C4045",
"w c #3F4047",
"e c #3F4248",
"r c #404146",
"t c #414348",
"y c #43434B",
"u c #43444B",
"i c #45454B",
"p c #44444C",
"a c #46474F",
"s c #48484F",
"d c #4B4A53",
"f c #4C4C55",
"g c #4E4E57",
"h c #4F5059",
/* pixels */
"ara6at>7a3hf",
";53;870;8+$3",
"1t*0+0;O%383",
"9a8<0;>6aa1a",
"6rg<.;a>03 6",
"7ra3;a9%2&;p",
"+%wtd7O6g;;a",
"q11s07#qdr;a",
"1=5u5q=wsa=t",
"4=>e<+=<es%%",
"===0X+07+1e9",
"+=%%3,4r-81X"
};
