/* XPM */
static char *hud_frame[] = {
/* columns rows colors chars-per-pixel */
"35 46 32 1 ",
"  c #232323",
". c #282828",
"X c #2D3030",
"o c #2F3F3F",
"O c gray20",
"+ c #323737",
"@ c #3A3A3A",
"# c #7E6A12",
"$ c #3D3D43",
"% c #2E4848",
"& c #295353",
"* c #295B5B",
"= c #306767",
"- c #387070",
"; c #434343",
": c #4E4E4E",
"> c #444450",
", c #4B4B55",
"< c gray34",
"1 c #555560",
"2 c gray39",
"3 c gray43",
"4 c #777777",
"5 c #998516",
"6 c #A7961A",
"7 c #B6A71E",
"8 c #C4B821",
"9 c #D3CA25",
"0 c #F0ED40",
"q c #FEF56F",
"w c #7A7A89",
"e c #848484",
/* pixels */
".222,;::,,:,:,,,,,2@,,,,2,,22:::$;X",
"Oe44ee44w444wwwwww4w::www4eww33eee2",
"O:2111::::::::::::<:44X:<::<::::244",
"X:1111:::::>::::<<<:<:4X:::<1:::;e4",
"O<:e@@@OOOOOOOO@X@@X@XO..OOX@OO22e4",
"O<<e4XXXXXXXXXXXXXXXXXXXXXXXXOO<:e4",
"O1<e4X#55580X+#55580X+#55580X@@<<e4",
"X2<e4+5++XX8XX5X+XX8+X5++XX8X@@1<e1",
"O22e4X5+X++5++5X+X+5X+5+X++5+@@2<e4",
"O<<e4+5XX++5++5++++5+X5XX++5+@@22e4",
"O<1e4+5++++8++5++++5++5++++5+@@<<e4",
"O:<e4+5+o+o6++5o+++5+o5+o++5+@@<1e4",
"O:<e4o5o+o+6++5+o++5o+5o+o+5+@@:<e4",
"O11e4+6++++6+o5o+o+5oo5++++5+@@:<e4",
"X<<e4o6o+oo8oo5oo++5oo5++oo5o@@11e4",
"X22e4o5o+oo6oo5oooo5oo5oooo5o@@<<w4",
"@12e4o5oooo5oo5oooo6oo6oo%o5o@@22e4",
"@33e4%6o%oo5o%5%%oo6oo7oooo5o@@1234",
"@33e4o7oo%%5%o5%%%%7o%8oo%o5%@@3311",
"@33e4%6%%o%5o%5%%%%6o%8%%o%5%@@3331",
"@33e4%5%%%%6%%5%%%o6%%9%%%%5%@@33e4",
".@2e4%5%&%&7%%5&%%%5%%9%%%%5% @33e4",
" .@e4&5%%&%8%&5%&%%5%&8%%&&5%X @2e4",
"@2X11%5&&%%8&%5%&%%5&%8&&%&5%;  @e4",
"@2ee1&5&%&&9&%5&&%&5&&7&&&&5&XX2Xe4",
"@23e4&5%%&&9&&5&&&&5&%6&&&&5&@;2ew4",
"X21e4&5&&&*8&&5&&*&6&&5&&&&5&OX23e4",
"@21e4&5&*&*8&&5*&&&7&*5&*&*5&OO21e4",
"@22e4*5*&*&7&&5**&&8*&5*&*&5&OO21e4",
"@12e4*5&&&*6&*5*&*&8**5&&*&5&OX2234",
"X2<e4*5*&**5**5**&*9**5****5*XO12<4",
"@33e4*5****5**5****9**5****5*OO2<e1",
"@23e4*5****5**8*=**8**5=***5=OX33w4",
"@22e4=5==**5*=5==*=8**5****5=OO2ew4",
"@23e4*5====5==5====7*=5**=*5=XO22e4",
"@22e4=5====5*=8====6*=5=*==5=OO23w4",
"@22e4=5====5==5=-==5==5====5=OO22e1",
"X1<e4=5--=-5==8-===5-=5====5=XO22e4",
"@2<e4=8=-==5=-8--==5--8==--5=OO1<e4",
".32e4-q8555#-=q8555#-=q8555#=O;2<e4",
"O22e4---=----==--=-------=---;132e4",
"O22eeee444e@e4443212344eeeeeee422e4",
"X222222222e@@::::>;;;;::132133222e4",
"O22223222232e@X::;;;::;:<23122222e4",
"@@X@@@@@@@@@@@@XOOOXOOOOX@@@OOOOXO;",
"@@@@@@@@@@@@@@@XOOOXXXOOO@@@OOOOOO@"
};
