/* XPM */
static char *magic_bar[] = {
/* columns rows colors chars-per-pixel */
"32 4 16 1 ",
"  c #303334",
". c #333D3E",
"X c #36404A",
"o c #384757",
"O c #374F65",
"+ c #335477",
"@ c #375C8A",
"# c #3C6296",
"$ c #436AA3",
"% c #4971AF",
"& c #497DBB",
"* c #5A89C9",
"= c #6A98D5",
"- c #7CA4E2",
"; c #94B9F1",
": c #B0CDFC",
/* pixels */
"..X.XoooO++@###$$$%%&&**===--;;:",
"..XXXooo+++@@@#$$$%%&****==;;;::",
" ..XXoOOOO+@@###$%%%&&*===---;;:",
"...XXXOOO++@@###$$%%%&**=---;;;:"
};
