/* XPM */
static char *map1[] = {
/* columns rows colors chars-per-pixel */
"12 12 18 1 ",
"  c gray13",
". c gray14",
"X c #2A2A2A",
"o c #2C2C2C",
"O c #323032",
"+ c #333435",
"@ c #353A3A",
"# c #38383D",
"$ c gray24",
"% c #3F3F45",
"& c gray27",
"* c gray31",
"= c #585858",
"- c gray39",
"; c gray43",
": c #767676",
"> c #797A87",
", c #838383",
/* pixels */
"XoOXo.XXo+#X",
"X&=::$X .$-+",
"X&;--*@XO*;X",
"X*:==*&O=;-X",
"X$-=*=+;:>:X",
"X$=**$;::::O",
"X$=&%;>,:::X",
".&-&=;>::::X",
"X&===-::;;;X",
"X&*==-;;---X",
"X&*==----==X",
"XXOXo XXX+#X"
};
