/* XPM */
static char *minimap[] = {
/* columns rows colors chars-per-pixel */
"46 46 25 1 ",
"  c #161717",
". c #171F1F",
"X c #181B1B",
"o c #162323",
"O c #132929",
"+ c #132D2D",
"@ c #163333",
"# c #1A3737",
"$ c #232323",
"% c #282828",
"& c #2D3030",
"* c gray20",
"= c #3A3A3A",
"- c #3D3D43",
"; c #434343",
": c #4E4E4E",
"> c #444450",
", c #4B4B55",
"< c gray34",
"1 c #555560",
"2 c gray39",
"3 c gray43",
"4 c #777777",
"5 c #7A7A89",
"6 c #848484",
/* pixels */
"=:2222222222222222,::,,:,:,,,,,2=,,,,2,,22222,",
"=;6666666666666666644544455555545::55546556446",
"==3332333211<11<21<::::::::::::<:44&:<::<::224",
"==212332232<<<<1<<<:::::>::::<<<:<:4&:::<<:164",
"==22:=====&===&=====********=&==&=&*%%**&%<:64",
"==336                                    *<<64",
"==326  X    X    X  X    X    X   X      *1<64",
"==226      XXXX    X XX      XXX XX X    &2<64",
"==216  X XX X  XXXX  XXXX  X XX  XXXX  X *2264",
"==126XX X XX XX XX X XXXXX XXXXX XXXXX XX*<<64",
"==326XXXXXXXXXXXXXXXXXXXXXXXX XXXXXXXXXXX*<164",
"==126XXXXXXXXXX.XXXXXXXXXXXXXXXXXXXXX..XX*:<64",
"==336..XXXXXX..X.XXXX.XX.XX..XXXX..XXX.XX*:<64",
"==336X...XX..X....X..XX...XX..X.XX..X..X.*1164",
"==336.....X....X.X.X..X.....X.......X..XX&<<64",
"==336..............................X.....&2264",
"==336.......o...o....oo..........o.....o.=1264",
"==336.o...o..o...o....ooo..o.oo....o.o...=3364",
"==336..ooo.o.o.o..o.o.o.o.ooo..oo..ooo.o.=3364",
"==336oo.ooo.o..o.oooooooooooooo.ooo.ooo.o=3364",
"==336oooo..ooooooooo.oooooooooooooooo..oo=3364",
"==226ooOooooooOooOooooooOooooooOoooOoooooO=264",
"==326OoOooOoOooOoOooooOooOoOooOoOooooOoooOo=64",
"==326ooooOOOOoOooooOoOOOOooooOOOOOOooooOo=2&11",
"==226ooOoOOoOooOOOOOoOOOOooOoOOoOOOOOOOOo=2661",
"&=336OOOOoOOOOOOOOoOOOOOOOOOOoOOoOOOOOoOO=2364",
"&&=16OOOOOOOOO+OOOOOOOOOOOO+OOOOOOOO+OOOO&2164",
"&&=16++OOOO+O+O+OOOOOOOO+OOOOOOOO++OOO+OO=2164",
"1&==6++OO++OO++O+OO++OOO+OO++OO+O++OOOO+O=2264",
"=16==++++O+++O++++O+++O++++O++O+O+++O++O+=1264",
"==366++++++++O+++++O++++++++++++++O++++OO&2<64",
"==326+++++@++++++++++++@++++++@++++++++++=3364",
"==226++@++++@+++@++@+@@++++++++++@@+@++@+=2364",
"==126@@+++@+@@+++@++@++@@++@++@+++@@+@+++=2264",
"==2<6@+@+@+@+@@@+@@+@+@+@+@@@+@@@@+@@@+@+=2364",
"==326@@+@+@@@@+@+@@@@@@@@@@@@@@@@@@+@+@@@=2264",
"==226#@@@@@@@@@@@@@#@@@@@@@@@@@@@#@@@@@@@=2264",
"==236@@#@@#@@@#@@#@@@#@@#@@@#@@#@@@#@@#@@&1<64",
"==336#@@#@#@@#@#@@#@#@@#@##@#@@#@#@@#@#@@=2<64",
"==336@@#@####@@@@######@@#@####@@@@######=3264",
"==336###@####@@#@##@#@@####@########@####=2264",
"==3366666666=6444321234466666666666666666;2264",
"==3232332336==::::>;;;;::132132213333343312264",
"==333232233326==::;;;::;:<23122233333333222264",
"$%-=============&***&****&=========---=-===&=:",
"%%==============&***&&&***===================;"
};
