/* XPM */
static char *stamina_bar[] = {
/* columns rows colors chars-per-pixel */
"32 4 16 1 ",
"  c #2B362D",
". c #2F3A2C",
"X c #2F3231",
"o c #31422B",
"O c #364C2A",
"+ c #38572A",
"@ c #43612E",
"# c #4D6B33",
"$ c #557438",
"% c #5C7D3E",
"& c #658644",
"* c #6D8F49",
"= c #819F54",
"- c #9DB46A",
"; c #B7CA83",
": c #D7E1A4",
/* pixels */
"X  ..ooOOO++@@##$%%%&*&*==-;;;::",
"    ooOOO++@@###$$%&&&**=----;;:",
"X ...ooO++++@@#$$$%%%***==--;;::",
"X ...ooOO+++@@#$$%%&&&***==-;:::"
};
