/* XPM */
static char *wall1[] = {
/* columns rows colors chars-per-pixel */
"12 12 37 1 ",
"  c gray12",
". c #3A3319",
"X c gray13",
"o c #2A2A2A",
"O c #322D22",
"+ c #342E25",
"@ c #3D3626",
"# c #353128",
"$ c #423629",
"% c #44392E",
"& c #4F3F2B",
"* c #46412F",
"= c #5B4326",
"- c #53472C",
"; c #5B452D",
": c #504130",
"> c #574736",
", c #604C33",
"< c #604D38",
"1 c #675335",
"2 c #6D5536",
"3 c #6C553B",
"4 c #705B3B",
"5 c #7B5C3C",
"6 c #785E3C",
"7 c #795C41",
"8 c #7D6240",
"9 c #8A573D",
"0 c #866741",
"q c #866743",
"w c #846746",
"e c #866845",
"r c #886E49",
"t c #976E45",
"y c #956D4B",
"u c #98784F",
"i c #AB7E54",
/* pixels */
"Xo*%%%>%OO-$",
"#<33<3ur412-",
":37773qe852-",
";97w7755502,",
";yw7992,500&",
";77e7y5t0q0,",
":77yyi55555=",
"&2225q255q5=",
"$55;2255555.",
"=524,,==552.",
"-552,,3;22,O",
"O@-,@@@@@$O "
};
