/* XPM */
static char *wall[] = {
/* columns rows colors chars-per-pixel */
"12 12 38 1 ",
"  c #2A2A2A",
". c #2C2C2C",
"X c gray18",
"o c #273628",
"O c #2B392D",
"+ c #353128",
"@ c #3F392B",
"# c gray19",
"$ c #323032",
"% c #353435",
"& c #38383D",
"* c #3B3B3F",
"= c gray24",
"- c #3F3F3F",
"; c #44392E",
": c #413B30",
"> c #463C32",
", c #474334",
"< c #504130",
"1 c #514335",
"2 c #534832",
"3 c #534937",
"4 c #6F4830",
"5 c #6E4A36",
"6 c #604D38",
"7 c #604E3C",
"8 c #6C553B",
"9 c gray31",
"0 c #505050",
"q c #6B5640",
"w c #795C41",
"e c #785C45",
"r c #767676",
"t c #8A573D",
"y c #846746",
"u c #82674A",
"i c #956D4B",
"p c #936C4F",
/* pixels */
"$ o . .$.O.%",
"  6;<@:1=8X.",
"&.w+w;>e@e$*",
"9 ywyweuee$0",
"=.w88we78e$-",
"9@8w6we7eq;0",
"9 66823q67.0",
"&.8t68q7eq#&",
"9.8645356q$9",
"= ww8w5qee.=",
"r=wwwipwe,9r",
"8i<w867qe<i6"
};
