/* XPM */
static char *wall2[] = {
/* columns rows colors chars-per-pixel */
"12 12 15 1 ",
"  c #1D1D1D",
". c gray13",
"X c gray14",
"o c #282828",
"O c #2A2A2A",
"+ c #2C2C2C",
"@ c #39352D",
"# c #3F392B",
"$ c #44392E",
"% c #46412F",
"& c #504130",
"* c #534832",
"= c #66422E",
"- c #604D38",
"; c #6C553B",
/* pixels */
"@..OXO@@*$O#",
" OOO$#O#-&O ",
" ######&*$+ ",
" #-***#$&$+ ",
"+-$&#$%&$$+O",
"+*$&%&**-+++",
"$=&$**--;O+$",
"+=$$$---;$+O",
"+&$$$----+++",
"$$$-***$+++$",
"XO++$#++O++o",
"OOXOOOOOO+++"
};
