/* XPM */
static char *wall3[] = {
/* columns rows colors chars-per-pixel */
"15 15 54 1 ",
"  c gray9",
". c #1B1B1B",
"X c #1D1D1D",
"o c #3A3319",
"O c gray13",
"+ c #232323",
"@ c gray14",
"# c gray15",
"$ c #282828",
"% c #2A2A2A",
"& c #282F28",
"* c #2C2C2C",
"= c #2E2C2E",
"- c #322D22",
"; c #223322",
": c #273628",
"> c #2C322C",
", c #3D3626",
"< c #353128",
"1 c #3F392B",
"2 c #323032",
"3 c #35353B",
"4 c #3A3A3A",
"5 c #38383D",
"6 c gray24",
"7 c #423629",
"8 c #453F2A",
"9 c #44392E",
"0 c #4F3F2B",
"q c #46412F",
"w c #53472C",
"e c #504130",
"r c #534832",
"t c #704628",
"y c #604C33",
"u c #6F4830",
"i c #604D38",
"p c #6D5536",
"a c #6C553B",
"s c #7B5C3C",
"d c #416225",
"f c #43612E",
"g c #4E4E4E",
"h c gray31",
"j c #795C41",
"k c #777777",
"l c #8C5637",
"z c #8A573D",
"x c #866741",
"c c #846746",
"v c #976E45",
"b c #956D4B",
"n c #B78C58",
"m c #B58A5D",
/* pixels */
"=##;#$#,==&>==2",
"+#;y70,-7e9r:&$",
"&$sp8ys-jr8jj$>",
"3$ws-s7p9j>jr=5",
"g$sxsxsojcjcj%h",
"4$8s,8sjje1jq=6",
"g,ppsysisrjaa9h",
"4#. .X.#O++X@$6",
"g##yXpwsra#r&$h",
"3$splyp#arzaj=5",
"g$,p-twpru,a7=h",
"4#ssspt$uajjj%6",
"g$ys$vnpmb=ji=h",
"k4p8sdvqbfjqa6k",
"pvv0spy7iajebba"
};
