/* XPM */
static char *__0[] = {
/* columns rows colors chars-per-pixel */
"47 90 30 1 ",
"  c #232323",
". c gray15",
"X c #282828",
"o c #2B2E2D",
"O c #2C2C2C",
"+ c #2E2C2E",
"@ c #2D3030",
"# c #303032",
"$ c gray20",
"% c #323737",
"& c #35353B",
"* c #3A3A3A",
"= c #3D3D43",
"- c #434343",
"; c #4E4E4E",
": c #444450",
"> c #4B4B55",
", c gray34",
"< c #555560",
"1 c #5E5E6D",
"2 c gray39",
"3 c gray43",
"4 c #676774",
"5 c #777777",
"6 c #72727F",
"7 c #7A7A89",
"8 c #848484",
"9 c #939393",
"0 c #A2A2A2",
"q c None",
/* pixels */
"qqqqqqqqqqqqq;***qqqqqqqqqqqqqqqqqqqqqqqqqqqqqq",
"qqqqqqqqqqq*=--**,,2qqqqqqqqqqqqqqqqqqqqqqqqqqq",
"qqqqqqqqqq=-=>,32;;-4qqqqqqqqqqqqqqqqqqqqqqqqqq",
"qqqqqqqqqq=>258983,-=<qqqqqqqqqqqqqqqqqqqqqqqqq",
"qqqqqqqqqq>>388853,>=>qqqqqqqqqqqqqqqqqqqqqqqqq",
"qqqqqqqqqq===;;--=,,=-qqqqqqqqqqqqqqqqqqqqqqqqq",
"qqqqqqqqqq=>=5;**,>,=>qqqqqqqqqqqqqqqqqqqqqqqqq",
"qqqqqqqqqq*225,3532-,;qqqqqqqqqqqqqqqqqqqqqqqqq",
"qqqqqqqqqq*2;;,352;=2-qqqqqqqqqqqqqqqqqqqqqqqqq",
"qqqqqqqqqqq;$---22;2=qqqqqqqqqqqqqqqqqqqqqqqqqq",
"qqqqqqqqqqq$,------;qqqqqqqqqqqqqqqqqqqqqqqqqqq",
"qqqqqqqqqqq&,;;<---,qqqqqqqqqqqqqqqqqqqqqqqqqqq",
"qqqqqqqqqqqq-,---*2,,qqqqqqqqqqqqqqqqqqqqqqqqqq",
"qqqqqqqqq&&=***2,,;,3-,,qqqqqqqqqqqqqqqqqqqqqqq",
"qqqqqq**>;:*;-;22;;352533,;;qqqqqqqqqqqqqqqqqqq",
"qqqqq-;>3:,:-;232523325353222;qqqqqqqqqqqqqqqqq",
"qqq*;,6,=3,,,=3555,553,3553222,;qqqqqqqqqqqqqqq",
"qq*;*-,6=:,2,;55535,33253322332,-qqqqqqqqqqqqqq",
"qq*;*-;,3;;;-*355555;2535235322-qqqqqqqqqqqqqqq",
"qqq;,--2;2;;;;2555335;55235322--qqqqqqqqqqqqqqq",
"qqqq;;-;,2,,;;;;53555:;25525,-,2qqqqqqqqqqqqqqq",
"qqq---;;,;2-,,3555222352525,--;32qqqqqqqqqqqqqq",
"qqq;--*:,;,;-,2555525553;53;;2,;2qqqqqqqqqqqqqq",
"qqq,,;**;,,,,-352555552323,-2,2;23qqqqqqqqqqqqq",
"qqq;,3;*-;2,;-;-553;55522,---;;2,;,qqqqqqqqqqqq",
"qqq,,;3322;2;-2322-,2233,;*-22;;;*;;qqqqqqqqqqq",
"qqq;2,38895007,2=;,32,,,,-q*;,,2;;,;qqqqqqqqqqq",
"qq-===389298072;=,3;522-,-qq*,-**,2;qqqqqqqqqqq",
"qq--323853;388,,32,,2,2;,qqqq*;,;,*,qqqqqqqqqqq",
"qq,=;233999337232,,,,2;2;qqq*=--,;,3;qqqqqqqqqq",
"qq*-,339899995,2;,,,3,2;,q***----322;qqqqqqqqqq",
"qq22=;39999997=-:*;2;-;2q$$;;**;2,23;qqqqqqqqqq",
"qq2;,;;5998993,,,23,2;-;q$*-$**,;2;-qqqqqqqqqqq",
"qq,,=323399987=,32,;,--$;*,O*-==;-qqqqqqqqqqqqq",
"qq,-;,-;225888,=;,-,**-**=3==$-=qqqqqqqqqqqqqqq",
"qqq222*;$--;,;;,;22==-,,-;;,*=-=qqqqqqqqqqqqqqq",
"qqq2,,:;,,;;;;;;;,,:%;;2,,-&;$$$qqqqqqqqqqqqqqq",
"qq==%>-;;;2;;;,3588:=:3,32,qqqqqqqqqqqqqqqqqqqq",
"q&O>-=;;-,,2;=399982,==:32:qqqqqqqqqqqqqqqqqqqq",
"=%--*O-===;2,-399989972*=,3qqqqqqqqqqqqqqqqqqqq",
"qO,*-O--32,2,,3999999998963qqqqqqqqqqqqqqqqqqqq",
"q.%%O&;=;223,,3999997998973qqqqqqqqqqqqqqqqqqqq",
"qq%%%&*-,3;;2;39999999989983qqqqqqqqqqqqqqqqqqq",
"qq%..=2-=;;;3;38999999999983qqqqqqqqqqqqqqqqqqq",
"qq%.&22;,;,,;;35888788877753qqqqqqqqqqqqqqqqqqq",
"qq*.X298588333--2;:;,,,;,22=qqqqqqqqqqqqqqqqqqq",
"qqq-*299599993,3,,2;;,22,,2,qqqqqqqqqqqqqqqqqqq",
"qqq%%29989988323,-;,;32,-;3;qqqqqqqqqqqqqqqqqqq",
"qqqqq299799898;;,,;;,;,,,2>,qqqqqqqqqqqqqqqqqqq",
"qqqqq299799995;-2;,;2;-=--,>qqqqqqqqqqqqqqqqqqq",
"qqqqq5988999833;;,,2,,2-=;,,>qqqqqqqqqqqqqqqqqq",
"qqqqq699299983;,;32,-,3;,;,,,qqqqqqqqqqqqqqqqqq",
"qqqqq799399983,,,>-2,-,-,;,,>qqqqqqqqqqqqqqqqqq",
"qqqqq382999983,-;,,,;,,-,-;--qqqqqqqqqqqqqqqqqq",
"qqqqq2:%388883,-;;,,--;,;;---qqqqqqqqqqqqqqqqqq",
"qqqqqqqqq,22222$$q$$$----;->>qqqqqqqqqqqqqqqqqq",
"qqqqqqqqq$$$$$$$$qqq-$OOO-=qqqqqqqqqqqqqqqqqqqq",
"qqqqqqqqq$=*,>;*-qqq$;=;;;-;qqqqqqqqqqqqqqqqqqq",
"qqqqqqqqq=-=;;;;;qqq;==;;--,qqqqqqqqqqqqqqqqqqq",
"qqqqqqqqq>&=>>==qqqqq;--;22;=qqqqqqqqqqqqqqqqqq",
"qqqqqqqqq==>&$=,qqqqqq$--=$$;qqqqqqqqqqqqqqqqqq",
"qqqqqqqqq&=,>22;qqqqqq=$$;23;=qqqqqqqqqqqqqqqqq",
"qqqqqqqqq=&;;;;--qqqqq==;-===*qqqqqqqqqqqqqqqqq",
"qqqqqqqqqq-$$$$$-qqqqqqq=--*$-=qqqqqqqqqqqqqqqq",
"qqqqqqqqqq323;;;-qqqqqqq;---;;=qqqqqqqqqqqqqqqq",
"qqqqqqqqqq;,82;;;qqqqqqq-;;32;;qqqqqqqqqqqqqqqq",
"qqqqqqqqqq;,13,:-qqqqqqqq-;,72;-qqqqqqqqqqqqqqq",
"qqqqqqqqqqq,73:;;qqqqqqqq;-,33;=qqqqqqqqqqqqqqq",
"qqqqqqqqqqq;3;;;;qqqqqqqq-;;,3;-qqqqqqqqqqqqqqq",
"qqqqqqqqqqq;:8,;qqqqqqqqqq=;,72-qqqqqqqqqqqqqqq",
"qqqqqqqqqqq;*9,;qqqqqqqqqq=;;33;qqqqqqqqqqqqqqq",
"qqqqqqqqqqq**9;;qqqqqqqqqqq-;,7,=qqqqqqqqqqqqqq",
"qqqqqqqqqqqq-73,qqqqqqqqqqq-;,7,%qqqqqqqqqqqqqq",
"qqqqqqqqqqqq;78,;qqqqqqqqqqq;;3;*qqqqqqqqqqqqqq",
"qqqqqqqqqqqq;39,-qqqqqqqqqqq;;;32qqqqqqqqqqqqqq",
"qqqq-;22-;,,*,,;;,-;,,233353-;,7,333,,2222,qqqq",
"qqq,;22,;;;2=$$--,,;>2;;33333;,;--2232,,,32-qqq",
"qqq;;-2-;-3**-;$=-,,>Oo+;;;;3-;-22;532,,,332qqq",
"qq%>;.;--,-37**-==-.OO=&>=&&.-$=-;2;3223,23,2qq",
"qq$-O%*--,733;==&==>;===&-;&&=-;;29973332;,2,qq",
"qq+-$&-,;;,;;=o==;2355;>>&X..&OO=-;3;1;32;;,,qq",
"q-%=&&-.&&&&==>32;23332,,3,4,&-=.O.;373;>&&;-Oq",
"q-;,;-&&;-2;;;>%O;22;2,,,,22-;,;-&&&**,&==OXOoq",
";;,222,;;;,,,22<,*$*,;,;-,-,;,222,:;;,,,;&=>O#*",
"++&&=&&&&&&&&&&+++++++=+&&&+O&&=&&&&&&&&&&O++++",
"+++&=++&=======&++++++++&+++O+&=++&=======&O+++",
"=&+ =+++==&&&=&&&++++++&&++&&+ =+++==&&&=&&&+++",
"=>&+=&+&+&&&&&==&&++++&+===&>&+=&+&+&&&&&==&&++",
"=====+&=++&=&=&==&=+&+++=&======+&=++&=&=&==&=+",
"======&+=+&&&=======+++&&========&+=+&&&======="
};
