/* XPM */
static char *_0_0[] = {
/* columns rows colors chars-per-pixel */
"55 90 18 1 ",
"  c #322D22",
". c #3D3626",
"X c #363228",
"o c #35353B",
"O c #453C15",
"+ c #423629",
"@ c #453F2A",
"# c #4F3F2B",
"$ c #5B4326",
"% c #53472C",
"& c #604C33",
"* c #6D5536",
"= c #7B5C3C",
"- c #3D3D43",
"; c #4B3447",
": c #866741",
"> c #976E45",
", c None",
/* pixels */
",,,,,,,,,,,,,,,,,,,,,,,,,,,,*=*,,,,,,,,,,,,,,,,,,,,,,,,",
",,,,,,,,,,,,,,,,,,,,,,,,,*****=%*$,,,,,,,,,,,,,,,,,,,,,",
",,,,,,,,,,,,,,,,,,,,,,,,*:*=&&*=&&,,,,,,,,,,,,,,,,,,,,,",
",,,,,,,,,,,,,,,,,,,,,,,*=&.%%%%@&**,,,,,,,,,,,,,,,,,,,,",
",,,,,,,,,,,,,,,,,,,,,,,%*.&====%@%*,,,,,,,,,,,,,,,,,,,,",
",,,,,,,,,,,,,,,,,,,,,,,%&.&@%%%*@%*,,,,,,,,,,,,,,,,,,,,",
",,,,,,,,,,,,,,,,,,,,,,,,%@&&**&=#&*,,,,,,,,,,,,,,,,,,,,",
",,,,,,,,,,,,,,,,,,,,,,,,%@**&&=*%%#,,,,,,,,,,,,,,,,,,,,",
",,,,,,,,,,,,,,,,,,,,,,,,,@&****&&%,,,,,,,,,,,,,,,,,,,,,",
",,,,,,,,,,,,,,,,,,,,,,,,,@%*=**&%,,,,,,,,,,,,,,,,,,,,,,",
",,,,,,,,,,,,,,,,,,,,,,,,&@@%&*&#,,,,,,,,,,,,,,,,,,,,,,,",
",,,,,,,,,,,,,,,,,,,,,,,,,%.@%%@.,,,,,,,,,,,,,,,,,,,,,,,",
",,,,,,,,,,,,,,,,,,,,,,,,#*@..%.*,,,,,,,,,,,,,,,,,,,,,,,",
",,,,,,,,,,,,,,,,,,,,,,,%&%=.%%***,,,,,,,,,,,,,,,,,,,,,,",
",,,,,,,,,,,,,,,,,,,,,%*%%&*&*&&&&,,,,,,,,,,,,,,,,,,,,,,",
",,,,,,,,,,,,,,,,,,,,%*&%##&*&&&%&&,,,,,,,,,,,,,,,,,,,,,",
",,,,,,,,,,,,,,,,,,,%%*$&%%%*&&&&%&$,,,,,,,,,,,,,,,,,,,,",
",,,,,,,,,,,,,,,,,,,#&%%%%%%*&&&&&%&,,,,,,,,,,,,,,,,,,,,",
",,,,,,,,,,,,,,,,,,%%&&%%&#%&&&&&&%&#,,,,,,,,,,,,,,,,,,,",
",,,,,,,,,,,,,,,,,,%%&&%%&%%#*&&&%***,,,,,,,,,,,,,,,,,,,",
",,,,,,,,,,,,,,,,,,%%&%%%%%@&@&&#&&%%,,,,,,,,,,,,,,,,,,,",
",,,,,,,,,,,,,,,,,,%%*%%%%&##%&&@#%%&#,,,,,,,,,,,,,,,,,,",
",,,,,,,,,,,,,,,,,%%%*%##%%%%%*@@@@%%%,,,,,,,,,,,,,,,,,,",
",,,,,,,,,,,,,,,,,%%%&%##@#%#%%&@@@@%#,,,,,,,,,,,,,,,,,,",
",,,,,,,,,,,,,,,,,%&%%%%&#%%#%#%#@@@%$,,,,,,,,,,,,,,,,,,",
",,,,,,,,,,,,,,,,,%*%%%%O%%&%%%%&@@@%*,,,,,,,,,,,,,,,,,,",
",,,,,,,,,,,,,,,,,%&&##O#%#&%#%%&*@@%&,,,,,,,,,,,,,,,,,,",
",,,,,,,,,,,,,,,,%&=&##%%%#*%%#%#&%@%*,,,,,,,,,,,,,,,,,,",
",,,,,,,,,,,,,,,,%=*%%###%%&&%#%&&*%%%,,,,,,,,,,,,,,,,,,",
",,,,,,,,,,,,,,,,%*%#&&##%#%*%%%%##*%%,,,,,,,,,,,,,,,,,,",
",,,,,,,,,,,,,,,,*%%@*##%##%*&%%#%%&&%,,,,,,,,,,,,,,,,,,",
",,,,,,,,,,,,,,,,*%+#%%&%%%#%&&%###%&&$,,,,,,,,,,,,,,,,,",
",,,,,,,,,,,,,,,,*#@%%%%@#&##%%&&#&##$*,,,,,,,,,,,,,,,,,",
",,,,,,,,,,,,,,,,%++%##**#&%%%#%#&%%&%&#,,,,,,,,,,,,,,,,",
",,,,,,,,,,,,,,,,&+.##%%&&&##%#%#&####%%#,,,,,,,,,,,,,,,",
",,,,,,,,,,,,,,,,*%X+%%%%&&&%%%%%%%%#%##&,,,,,,,,,,,,,,,",
",,,,,,,,,,,,,,,,%&.@#%%+&#*&&%&&&%#+#%&&,,,,,,,,,,,,,,,",
",,,,,,,,,,,,,,,,-&@X#&#+%%%&&**&%#+&&&&#,,,,,,,,,,,,,,,",
",,,,,,,,,,,,,,,,,&%X&##+@%%#&&%%%+&&#+%&,,,,,,,,,,,,,,,",
",,,,,,,,,,,,,,,,,%&**%.@.@%%%%%++&#&##%%,,,,,,,,,,,,,,,",
",,,,,,,,,,,,,,,,,,@#%*&%%.@%%#+#&%%#&%&%,,,,,,,,,,,,,,,",
",,,,,,,,,,,,,,,,,,,,***&######$&%%#%%&##,,,,,,,,,,,,,,,",
",,,,,,,,,,,,,,,,,,,&*&&%#&&&&*%%%##&%%%#,,,,,,,,,,,,,,,",
",,,,,,,,,,,,,,,,,,,,&#@.%#%#%##%##%&##%#%,,,,,,,,,,,,,,",
",,,,,,,,,,,,,,,,,,,,%&##%%%#%%##%@%%#####,,,,,,,,,,,,,,",
",,,,,,,,,,,,,,,,,,,,%*##%%%%%#+X.##%###%#,,,,,,,,,,,,,,",
",,,,,,,,,,,,,,,,,,,,&&X%%%%##@X++X#%##%%%,,,,,,,,,,,,,,",
",,,,,,,,,,,,,,,,,,,,&=@X+.X.@@X+%X#%####%,,,,,,,,,,,,,,",
",,,,,,,,,,,,,,,,,,,,**X.+X.+XXX%@X%%###%%,,,,,,,,,,,,,,",
",,,,,,,,,,,,,,,,,,,&=&@@@+@#@X.&@+%%%###%,,,,,,,,,,,,,,",
",,,,,,,,,,,,,,,,,,,&=&X%@@##.X@&@+%%%####,,,,,,,,,,,,,,",
",,,,,,,,,,,,,,,,,,,*=&X#.@+#X@%%@+&#%###%,,,,,,,,,,,,,,",
",,,,,,,,,,,,,,,,,,,&*@+%.@+#X.%%%&&%%#%%&,,,,,,,,,,,,,,",
",,,,,,,,,,,,,,,,,,,@&%@%@@##X@*%.&%#%#%&#,,,,,,,,,,,,,,",
",,,,,,,,,,,,,,,,,,,,@.%#&&%%X#*%+#%###%%@,,,,,,,,,,,,,,",
",,,,,,,,,,,,,,,,,,,,#X%@&%%%@&*+%%&#%%%%%,,,,,,,,,,,,,,",
",,,,,,,,,,,,,,,,,,,,,+#.*&&%%&%@%*%###%%%,,,,,,,,,,,,,,",
",,,,,,,,,,,,,,,,,,,,,#%%*%%&%*&@&&%%%@*%&,,,,,,,,,,,,,,",
",,,,,,,,,,,,,,,,,,,,,##&&%%X&*%@%&#@%*%%#,,,,,,,,,,,,,,",
",,,,,,,,,,,,,,,,,,,,+%%&#%#%&&#%&&%@*%@##,,,,,,,,,,,,,,",
",,,,,,,,,,,,,,,,,,,,+%+*%%@%*%%#%%@&%#@#%,,,,,,,,,,,,,,",
",,,,,,,,,,,,,,,,,,,,+%%&#%@&&%#&&*&&%@%%#,,,,,,,,,,,,,,",
",,,,,,,,,,,,,,,,,,,,%#&&%%%*###&&#%#%%###,,,,,,,,,,,,,,",
",,,,,,,,,,,,,,,,,,,,#+*%%*&&%#%&%&%@####%,,,,,,,,,,,,,,",
",,,,,,,,,,,,,,,,,,,+#&&%%&=%%#*&%%@%%@@@#,,,,,,,,,,,,,,",
",,,,,,,,,,,,,,,,,,,##*%#%#=%#&&##%%##@@#%,,,,,,,,,,,,,,",
",,,,,,,,,,,,,,,,,,,#&=%&&*=&%*&%+@%##@.##,,,,,,,,,,,,,,",
",,,,,,,,,,,,,,,,,,,%&&%%#&&&=&%+@%##@@.##,,,,,,,,,,,,,,",
",,,,,,,,,,,,,,,,,,#&*%#&*%#%&%@+@&#%%%.%#,,,,,,,,,,,,,,",
",,,,,,,,,,,,,,,,,,%&&&&*&##&*#%@%%###%.%#,,,,,,,,,,,,,,",
",,,,,,,,,,,,,,,,,,#&%%*%%#@&#+&#&#%###@##,,,,,,,,,,,,,,",
",,,,,,,,,,,,,,,,,#&%*&%#%@&*%#%@&###%@.##,,,,,,,,,,,,,,",
",,,,,,,,,,,,,,,,%#&&%&%%*&%#@%#&##&##@.%#,,,,,,,,,,,,,,",
",,,,,,,,,,,,,,,,%%%&#&&**&%#%#&##&%@.#.##,,,,,,,,,,,,,,",
",,,,,,,,,,,,,,%#&&&%&**&#%#%*&%#&%@@..#%#,,,,,,,,,,,,,,",
",,,,,,,,,,,,#####&&*&#%#%+#%##%&%%#@@.#####,,,,,,,,,,,,",
",,,,,:=**=###&&**&&%&%++@&%%&%%###.. .@.###***=&:*,,,,,",
",,,,===%%+#&&&&%+++@%&&&&..@##@.#@ . . . %&&&=**=::,,,,",
",,,***:=*&%+++@##%%%#%#@%#&&&##%%&&&&%.X .%*&&%%*&**,,,",
",,**.#+++++#%%%%%%#.#@@+@@@@@@+++#@.###+######+++..**,,",
",,=&..++######+#%#%#%%%####%%..++#%#%%%####%%..++#+&*,,",
",==:###..+.++%###+#++..+@++##%#+;+#++..+#++####+;++:::,",
",=>>:*=**&%%%%%%@@@....#@@@@@%......%&&&++%%%&&&&=*>:*,",
"####+####+++#%####%#%%%%#%#%##.###%#%%%%#%%%##.#####+##",
"#######++#.###%###%##%%%%+%.#++###%##%%%%+%.#++########",
"+###++.+###+++#%##+#####+#%++#+#+#+#####+#%++#+#+###++.",
"##++#+++#++.###%%#+##++#+##+##+###+##++#+##+##+###++#++",
"#.#+++++o++####%%##%#...##%%#######%#...##%%#####.#++++",
"%%#####+++%#+##%####+##++#####+#%###+##++#####+#%%#####",
"##+#%##+#++###%%###+++.+##%+++#####+++.+##%+++####+#%##"
};
