/* XPM */
static char *_1_0[] = {
/* columns rows colors chars-per-pixel */
"50 91 47 1 ",
"  c #382D34",
". c #35353B",
"X c #3A3A3A",
"o c #4F3F2B",
"O c #43333F",
"+ c #53472C",
"@ c #604C33",
"# c #6D5536",
"$ c #7B5C3C",
"% c #3D3D43",
"& c #323E49",
"* c #4B3447",
"= c #563A4D",
"- c #344557",
"; c #367070",
": c #3E7C7C",
"> c #434343",
", c #4E4E4E",
"< c #444450",
"1 c gray34",
"2 c #555560",
"3 c #5E5E6D",
"4 c #654160",
"5 c #6D4566",
"6 c #7F4D6A",
"7 c gray39",
"8 c gray43",
"9 c #777777",
"0 c #866741",
"q c #976E45",
"w c #A56446",
"e c #AF6F4B",
"r c #A0764A",
"t c #AD7F4E",
"y c #B36B53",
"u c #B47150",
"i c #8F5477",
"p c #B78C58",
"a c #C18564",
"s c #CF9876",
"d c #9B6282",
"f c #AF6F90",
"g c #BC7F9E",
"h c #848484",
"j c #939393",
"k c #CC92AA",
"l c None",
/* pixels */
"lllllllllllllllllllllllll%4i6lllllllllllllllllllll",
"lllllllllllllllllllllll=if9iff4=llllllllllllllllll",
"lllllllllllllllllllll*=i6$0q7ifdllllllllllllllllll",
"lllllllllllllllllllll*46=di5iddr*lllllllllllllllll",
"lllllllllllllllllllll==4igkf66d#*lllllllllllllllll",
"lllllllllllllllllllll=4*46d64656dlllllllllllllllll",
"lllllllllllllllllllll*O*65fiid4$3lllllllllllllllll",
"llllllllllllllllllllllO*dfkfgd421lllllllllllllllll",
"llllllllllllllllllllllO*5ffgf6<6llllllllllllllllll",
"llllllllllllllllllllllOO=ifdd4*lllllllllllllllllll",
"llllllllllllllllllllll*O*4di4lllllllllllllllllllll",
"lllllllllllllllllllllO=@*45dilllllllllllllllllllll",
"lllllllllllllllllllllO1O=6gfdfllllllllllllllllllll",
"llllllllllllllllllll*#OO5ijgdr2lllllllllllllllllll",
"llllllllllllllllll*di5*O4ifgrfflllllllllllllllllll",
"lllllllllllllllll*ffqi==56ffshf2llllllllllllllllll",
"lllllllllllllllll66qf64*4ifggsdg2lllllllllllllllll",
"llllllllllllllll*df6if6=*idggpdgalllllllllllllllll",
"lllllllllllllllldfqf8fd5*6wgggfiy*llllllllllllllll",
"llllllllllllllllddffddf7=606666ifdllllllllllllllll",
"lllllllllllllll5ifhdfidi6585===iafllllllllllllllll",
"lllllllllllllll56dgddi6d55id54=ifd-lllllllllllllll",
"lllllllllllllll66igdif6i666f6546dd2lllllllllllllll",
"lllllllllllllllidigiif5fi56dd455i5*lllllllllllllll",
"lllllllllllllllif6fidf5fi6i6d647h4dlllllllllllllll",
"llllllllllllll=ig6iiid7fd60ifj=564hlllllllllllllll",
"llllllllllllll*fii5dif$dd6iddg765=illlllllllllllll",
"llllllllllllllii4i66dd50fiidhfgi=5dlllllllllllllll",
"llllllllllllll66idd6di5ifridifsgi5illlllllllllllll",
"lllllllllllll-74,d06i6+iwfdidjdgs86lllllllllllllll",
"lllllllllllll*d4*o#dd6@5ifgdfdh6sfslllllllllllllll",
"lllllllllllll*6=45=ii5ii5idf6qqidgf=llllllllllllll",
"lllllllllllll*@*6io6d=ffd6ri@idfdiffllllllllllllll",
"lllllllllllll@+=i8446@dggd6o4df6iaaailllllllllllll",
"lllllllllllll=6=ii6=iiiaf6+#@itqd05diillllllllllll",
"lllllllllllll*d=i665i6i0irifdd556dd6iillllllllllll",
"lllllllllllll*i4$i05$#66afafggfdd66i6illllllllllll",
"llllllllllllll6540d66i+6iaafffdii6i55dllllllllllll",
"llllllllllllllO6=d646i6+6iafdiid6666iillllllllllll",
"lllllllllllllll6445ii6i4#5i00q#i065#dillllllllllll",
"llllllllllllllll66dai8666656d6gdi54idillllllllllll",
"lllllllllllllllll4fdi86ii66idfdi55idf6llllllllllll",
"lllllllllllllllll5i466d4gf6i6di546did:llllllllllll",
"lllllllllllllllll*6@id6iddd56654i68d;6-lllllllllll",
"llllllllllllllllll6==65iidii5516i56585*lllllllllll",
"llllllllllllllllll6444di55674dd86ii6d4*lllllllllll",
"lllllllllllllllll=66=5ifg@6ii1d68i6677*lllllllllll",
"lllllllllllllllll*4r=idfi@6d68i5i766,1*lllllllllll",
"lllllllllllllllll6464idd6566i6f6d60615*lllllllllll",
"llllllllllllllllli404idg#5f6d6d6fii1ii=lllllllllll",
"llllllllllllllll*64648da65d8s67dfi7i6i*lllllllllll",
"llllllllllllllll%54i4igd6#idh77fd66i6i4lllllllllll",
"llllllllllllllll%464=igq6#6af5jgfiiiii4lllllllllll",
"llllllllllllllll=4i5=igi#6dda4fgfdid5q4lllllllllll",
"lllllllllllllllll&t46ffi@6dghihgdid658=lllllllllll",
"lllllllllllllllllli=6dui@idfiiggddd558=lllllllllll",
"lllllllllllllllllll6duf66itd6gfaiq6656*lllllllllll",
"llllllllllllllllllX60ad66dsfiiud6i6666=lllllllllll",
"llllllllllllllllll%dtfi66fsh8gyqiiq6554lllllllllll",
"llllllllllllllllll*drfi6ddgifaed0i65$6=lllllllllll",
"llllllllllllllllll=idd6idafigudd666556@lllllllllll",
"llllllllllllllllll>dud6ddafipdii6ii4564lllllllllll",
"lllllllllllllllllO4fddiiffdafdd66i6454*lllllllllll",
"lllllllllllllllllO6dfiddfgdarif6675@44*lllllllllll",
"lllllllllllllllll*iff0dfffdaq6d$i$#44=*lllllllllll",
"lllllllllllllllll=ipaddagfaq$q$$0@444==lllllllllll",
"llllllllllllllll.diaiydgff0qfi505=654*=lllllllllll",
"llllllllllllllll*ddfddgfr@0df67i@=55===lllllllllll",
"llllllllllllllll5ffd0rt$@rudd7i#=554*4=lllllllllll",
"lllllllllllllll%dfd0#q@#rfddi66,55i4=4=lllllllllll",
"lllllllllllllll*dd#driidtdid6i,=6d6===4lllllllllll",
"lllllllllllllllidididddfddd660=6di6=46#lllllllllll",
"lllllllllllllliffd00tidfii666=4di64447@lllllllllll",
"lllllllllllll-gid6ffidddd656@=6d6461@i=lllllllllll",
"llllllllllll55i08a#0$did64==*46i6$445i5lllllllllll",
"llllllllll6d6i5ifid6diidi5==*ii6i6446455&lllllllll",
"llll666-di,,6fdd6iii0idi5=**456d==4O*46545i65illll",
"llll56665i6h646666d56r$6=====4444O===O*6666565llll",
"ll6666f6f5555=========O*=44465566i4=====45565i66ll",
"lli====455545==============*==*=======******==*ill",
"l55*=**O**OO=*=*=4=***==OOOOO*  **==OOOOO*  O  ifl",
"lf6*OO*O*****=OOOOO*OOO*=OO OO**OOO*=OO OO***=Oi6l",
"6665666iiii5iid6i666iii6id6iid6iiii6id6iid6i666566",
"========444=4455554==4444========4444=============",
"OOOOO*O=**=*****====***O*O***OO****O*O***OO*OOOOO*",
"O OO*=OOO*==***O*O***=OO*O OO*O**=OO*O OO*O*O OO*=",
"* * O* O**==****O O***O***O=***O**O***O=***O* * O*",
"OO   *O*****O****  OO**=**O*O**OO**=**O*O**OOO   *",
"*O***O*OO***********O***=*O*=**OO***=*O*=**O*O***O",
"=***O*******=**O*  O=**OO*O**O*O=**OO*O**O*O=***O*",
"=O***O******=* O  *O*=*O ******O*=*O ******O=O***O"
};
