/* XPM */
static char *_2_0[] = {
/* columns rows colors chars-per-pixel */
"72 60 20 1 ",
"  c #2E2C2E",
". c #382D34",
"X c #3F2F38",
"o c #2F3B3C",
"O c #35353B",
"+ c #43333F",
"@ c #323E49",
"# c #4B3447",
"$ c #563A4D",
"% c #344557",
"& c #444450",
"* c gray34",
"= c #555560",
"- c #654160",
"; c #6D4566",
": c #7F4D6A",
"> c #8F5477",
", c #9B6282",
"< c #AF6F90",
"1 c None",
/* pixels */
"11111111111111111111111;<<,@11111111111111111111111111111111111111111111",
"11111111111111111111;;><<>>-:@111111111111111111111111111111111111111111",
"1111111111111111111;>:;;$$#$->;11111111111111111111111111111111111111111",
"111111111111111111>>-;-;#+#+$$:11111111111111111111111111111111111111111",
"11111111111111111;;$-:;#$--$$$-;1111111111111111111111111111111111111111",
"11111111111111111;$#-##-:>:-#+#-#111111111111111111111111111111111111111",
"11111111111111111-#$#+#X$:#+#X$$;111111111111111111111111111111111111111",
"11111111111111111#$$#$$+#;++$X$$>111111111111111111111111111111111111111",
"11111111111111111#$$#$>-#-$:,$#$1111111111111111111111111111111111111111",
"111111111111111111-#$#>:#>$>>$-$1111111111111111111111111111111111111111",
"11111111111111111111##--$;>,;#$;;111111111111111111111111111111111111111",
"1111111111111111111$-X#;>:-:++#;1111111111111111111111111111111111111111",
"111111111111111111$-#+X#;>;++1111111111111111111111111111111111111111111",
"11111111111111111$:-$#XX+#$-11111111111111111111111111111111111111111111",
"11111111111111111$$##+X+-;:;11111111111111111111111111111111111111111111",
"111111111111111-;##$+$#$-;>:o1111111111111111111111111111111111111111111",
"11111111111111$:>-#$-$>->>:>;;111111111111111111111111111111111111111111",
"11111111111111:><>:;$#-->>:;;:;#1111111111111111111111111111111111111111",
"11111111111111;:>>,:##--;,-:-->>>;11111111111111111111111111111111111111",
"11111111111111-><,>;#->>$;$:>;-->,>1111111111111111111111111111111111111",
"11111111111111;:>>>,;:<,>$-;<>>>>>::111111111111111111111111111111111111",
"11111111111111>:>::>:>,,:$$,,>,,,>,>#11111111111111111111111111111111111",
"11111111111111:>>--:>>>,<-;>>,,,>,,:@11111111111111111111111111111111111",
"11111111111111;>:;->>>>>,;<,:>>,->>>#11111111111111111111111111111111111",
"11111111111111-::-;::>>::-<,>,,>-,,,111111111111111111111111111111111111",
"11111111111111-::$;>>>>>:->>:>>:->,<111111111111111111111111111111111111",
"11111111111111->:$;:>,>>;$>>::>>,-,$111111111111111111111111111111111111",
"11111111111111;>:$;#;:;:;-:>>-::>$,1111111111111111111111111111111111111",
"11111111111111-,:$>;;>>;--::>;#:-$#1111111111111111111111111111111111111",
"11111111111111;>:--,>:$#--;,,,>-$-#1111111111111111111111111111111111111",
"11111111111111;,>-#####->-#$----$-11111111111111111111111111111111111111",
"11111111111111;>,-#$$$-:,::##$#$$;11111111111111111111111111111111111111",
"11111111111111;:;-$$;>,;>$::##$$--11111111111111111111111111111111111111",
"11111111111111;;:$$#<><::--##$$:>;$$$11111111111111111111111111111111111",
"11111111111111;>><;#-;;::$$#>::>$-::>::,>>$$$111111111111111111111111111",
"11111111111111$:,<:$;;;::$#;:;:-#$:::::::>::,<-1111111111111111111111111",
"111111111111111::;;;:>::>$$::::;#$::>:>::;;::;;:$$1111111111111111111111",
"111111111111111;:;:-:>::-:#:>::$#$-:::::;;;;:;:::>:o11111111111111111111",
"11111111$-;:::$::;:;>:::$$-:>::##$##::>::::::;:>>:::-$->>>---:::11111111",
"1111111+$$:>>#-::;;$##$#$$->:,$#;:--#$>>>>:::;;;;;:;>$$$:>->>;>>11111111",
"1111111+-$;$$&#;>::####$-$>>:-$$,:>:-#+-:>>>>:::;;;:>$$#$-;:>>>,>1111111",
"111111##;$;-$$;-::$#>;#$$-,,>$#-;,,::>-$-+;$$--;:::;-$--#$-:>>:>,1111111",
"111111--;$-$$$#>>-:;->;$--::-$#-$$#$>::>:;$;####X##$-$$$$#X:>>,><<111111",
"11111>:--+$$$$$#:$--;>>$$:;:$#::::>>:>##$$$$#;::,>>:$##$$#+-::>,>>111111",
"11111:>$:;$$;$$#-<:$#;>>;>,-#:$--$->>;##-:,>:<,>>>>>>$X$#X#$>>::>:>11111",
"1111<,;,;;;XXXX+-,>:#$-$;::$$;-$#$$-:->,,:>>:,>,>:;-$$$+XXXX>,,>::>11111",
"1111,:*-$$$#$#$+$:-$###-;:-#$$$$-;<>:>>,:$$-;;:-$$$##$$X...$=>>,,:::1111",
"111>>>-;>#--##$X+$--;>>>:;#X$#$$$;;$;;;::$$$$--$$$$$$$$.X#$;-:->-,>>1111",
"111><,-<;#$#;$$+X$;$-:-:;$+#$$$-$;;-----;;-$$$-$-$#$#$#X$##->>>,>,,,>111",
"11;>;,:-,;<,;-X.XX#$++#+$#X+--$$---$-$$$----$$--#####.$$$-;,,:;,:,:>,111",
"11:>>>>>>>,$::@++X##$--:>$;+$XX#$$-$;$-:>:$##+##X++$:$$#$X:>,,>,,,,,<<11",
"1>:<,:,,,,,,>>>-;-$$###--$#$#$-#-####$####$#$$$X;,-;##-::$;<,>>>>>>,>>11",
"1:>>:>:><>::>:>>>-;--$##$##X#$-$#+$:,:--$#--:>-:$+->>;-;:>>>:>:><>::>:>1",
"<,>,,>>:,,>::;>:::;;:>*;-$:-:;-#$-,::#:$$$#:-$:::-#>>>,,<,>,,>>:,,>::;>1",
"###+##$$###++++++. +#+#@$-;%#&$-:>::-;;-:#--:>>:::$O#+#####+##$$###+++++",
"+#$$++##########+#######+#$$++@;:--#-$#$>-#---$##++#####+#$$++##########",
"###+####+#####+++.++##++###+###-+#$##--%+.+-##+#++#+##++###+####+#####++",
"+##++#+##+$#####.++++###+##++#+$#+$###$#.++##$$+$.+++###+##++#+##+$#####",
"+#+++#.+#####$###++++++++#+++#.+#####$###++.+#+#..+++++++#+++#.+#####$##",
"##+#++.+###$++$+##+#+++###+#++.+###$++$+##+$##+#+###+++###+#++.+###$++$+"
};
