/* XPM */
static char *_3_0[] = {
/* columns rows colors chars-per-pixel */
"61 91 30 1 ",
"  c #1E371E",
". c #3A3319",
"X c #282F28",
"o c #223322",
"O c #273C27",
"+ c #2B3827",
"@ c #263328",
"# c #3D3626",
"$ c #2F3B3C",
"% c #453C15",
"& c #453F2A",
"* c #4F3F2B",
"= c #2D4025",
"- c #2E4425",
"; c #334B23",
": c #344D2D",
"> c #355722",
", c #3D5935",
"< c #5D4E0E",
"1 c #514512",
"2 c #53472C",
"3 c #674027",
"4 c #604C33",
"5 c #446343",
"6 c #4D6E4E",
"7 c #527456",
"8 c #777777",
"9 c #5D825E",
"0 c #6B906D",
"q c None",
/* pixels */
"O@Oqqqqqqqqqqqqqqqqqqqqqqqqqqqqqqqqqqqqqqqqqqqqqqqqqqqqqqqqqq",
"qq@@-O,qqqqqqqqqqqqqqqqqqqqqqqqqqqqqqqqqqqqqqqqqqqqqqqqqqqqqq",
"qq+ - 5,-:qqqqqqqqqqqqqqqqqqqqqqqqqqqqqqqqqqqqqqqqqqqqqq++@@q",
"q=o-oo Oo-OqqqqqqqqqqqqqqqqqqqqqqqqqqqqqqqqqqqqqqqqOO Ooooqqq",
" ooo ooooO-qqqqqqqqqqqqqqqqqqqqqqqqqqqqqqqqqqqqqqO::=   -o++q",
"qqqqoOo- O::qqqqqqqqqqqqqqqqqqqqqqqqqqqqqqqqqqqq+::+ oqqq:o+ ",
"qqqqooooo-:, qqqqqqqqqqqqqqqqqqqqqqqqqqqqqqqqqqO:, oqqqqq-oo ",
"qqqqo- o -:5-qqqqqqqqqqqq++:++qqqqqqqqqqqqqqqqO,6- qqqqq- o  ",
"qqqqO: o- :5,+qqqqqqqqqq+======qqqqqqqqqqqq --,67795qq::  oo ",
"qqqqOO o-oo,5:qqqqqqqqq++++==++qqqqqqqqqqqo   -,:OOOOOOoOoXoq",
"qqqqOOO -oo:6, qqqqqqqq++++++=++qqqqqqqqq-X+57:o--:O oo  XOoq",
"qqqqOO- ooo:55=qqqqqqq +++++++++++qqqqqqqXO595+oo----  OX - q",
"qqqqOOOOX  O56:oqqqqqq ====+===+==qqqqqqqO595+:q-oo-  XoO-:qq",
"qqqqO=:Oo  o:5:-qqqqq  ===++=+++=Oqqqqqqq,95-:Oqqq o  o   oqq",
"qqqqO:--%X o ,,-qqqqq OO==:=+,7:-XOqqqqqO,5--+Oqqqq   O oqqqq",
"qqqqO-:-%XXo O:--qqq  OO++++:765:-OqqqqO:,=++ Oqqqqqqoooqqqqq",
"qqqqO::1-XX X ---Oqq ---=++-,--:-5oqqq-:6==+o Oqqqqqqqqqqqqqq",
"qqqqO:-:-OX X O-,:Oqqo- ++O-5:oO+ -qq:,6:++o-  qqqqqqqqqqqqqq",
"qqqqO-%-- X  XoO,6,Oqo o-O-O,9,,-oqq-,6:+-oo-- qqqqqqqqqqqqqq",
"qqqqO----   OXq -56,- oo--+-:,,=- O:56,=-oooo,Oqqqqqqqqqqqqqq",
"qqqqO;--OooXOo q :56,:-oooo ,,-+O==56,O:oooo ,6-qqqqqqqqqqqqq",
"qqqqO---O  : o qq :56,,:Oo -O:,-+-+5,:-oooooo ,58qqqqqqqqqqqq",
"qqqqO---  -:Oooqqq -,-O,:o 6:Oo ::::O oooooo O 72Oqqqqqqqqqqq",
"qqqqOO:-O -: o  qqq+--O-:=,7,- :,+,- qooo oo --1,5,qqqqqqqqqq",
"qqqqOOOOO-:   - qqq +,O-+5665- ,-+-Oqoooo oo ;%% ,:qqqqqqqqqq",
"qqqq  ---     -oqqqqO,O:O6965,,:== qqo    ooO;<   ,,qqqqqqqqq",
"qqqqOO:,O-OO  -O qqqO:: -6077765Ooqqo    o OO%O-- :--qqqqqqqq",
"qqqq 5Oo-,O O -Ooqqq+: OO5907906- qoo    o O;<::-  O-qqqqqqqq",
"qqqq5- -,,, O O-o qq= :,-,696709- ooo    o -.--:-  :,qqqqqqqq",
"qqq--X==,=+oO o =O q+ =-,O,7565:,- oo  O  O-.O:-- O:-qqqqqqqq",
"qqq:: =:=++ OOo OO     O-O:65,-,,:Ooo  OO O-%O-:: -5-qqqqqqqq",
"qqq:: =O:,: -OO  =%  o    ,76,O=-O+Xo  OO O> O--: 5Oqqqqqqqqq",
"qqq-5- ,,5O :O +O->O O  -,6776:+  Xoo   O %% OO:O5:qqqqqqqqqq",
"qqqq:: :5,O :O-+O%-- O:,569997,- ooo  OoO %- O-O-, qqqqqqqqqq",
"qqqqO5: 5,O :-,+%O--O :5,797096:ooo   O  %%- O -, qqqqqqqqqqq",
"qqqqq 5O*,- :,-O O-OOo::6669096,oo     o %-- --: qqqqqqqqqqqq",
"qqqqqqO*O - >,:ooOOO+o:576579075%   o  O%O-O -oOOqqqqqqqqqqqq",
"qqqqqq ,-,O%,,-ooO--O@:565799795,+     O O:-:-  oqqqqqqqqqqqq",
"qqqqqqq ,-O ,,:  +&O @:,,599556955=  o O ---O-, oqqqqqqqqqqqq",
"qqqqqqqo :- :,: O-+O O:6,,695:,9,6: +  O -::O-55Oqqqqqqqqqqqq",
"qqqqqqqoo O ,5- OO-O O:57,:56,,6,5: o  O --:O :56-qqqqqqqqqqq",
"qqqqqqqOO:-O::- +=Oooo+o+=O-::::-=Oo  O O---%OXX,2:qqqqqqqqqq",
"qqqqqq-O:  O,:- -O   OOo o=ooo OO     O O-;-O=XX+:-qqqqqqqqqq",
"qqqqqXO:  O-,3*o   -O:,-Oo-Xo ooooo     O>-:--+ #OO-qqqqqqqqq",
"qqqqqO-OXOO&42-+ O -O:5,O oO Oo +o-O   O%:-::-O X:,qqqqqqqqqq",
"qqqq:,XX O&::5,+ OO  :55:O O O O o-- O O---:OOOoO-:qqqqqqqqqq",
"qqqq:-XXoO-:,5:+  O  -,5,= o+    O-: O ;---oOO O-:qqqqqqqqqqq",
"qqqqq:-XoO--:5:+ OO  -,65:OoO O. O-:   O--O=Oo--:qqqqqqqqqqqq",
"qqqqqq--XOOO:::=O-O  O,55,= oO O O-:O  O-5-=o-:-qqqqqqqqqqqqq",
"qqqqqqq--O+O-5:+O=O  O,76::OoOoo+--:O  O-,O-:>qqqqqqqqqqqqqqq",
"qqqqqqqq---OO:,=O=   O,66::O oooO::-   O :;-O qqqqqqqqqqqqqqq",
"qqqqqqqqqq:-O-,=OO   O:66,:- o  O-,-o o ;-:  Oqqqqqqqqqqqqqqq",
"qqqqqqqqqqq:-::=OO    -675,:-  +::-O  O:-- O-Oqqqqqqqqqqqqqqq",
"qqqqqqqqqqqO---:OO OO O595,:OOo+-,-o   O  O:-Oqqqqqqqqqqqqqqq",
"qqqqqqqqqqqOO+--:o o  O,965::OoO::+    : O-;-Oqqqqqqqqqqqqqqq",
"qqqqqqqqqqq--OOO:- o  O,775:, oO,=o   :::OO%-Oqqqqqqqqqqqqqqq",
"qqqqqqqqqqq-:-=---o   O-696,,o :,oO  oO---;::Oqqqqqqqqqqqqqqq",
"qqqqqqqqqqq-::---  O   -59:,,o=,=oOOooO :;%O-Oqqqqqqqqqqqqqqq",
"qqqqqqqqqqq----:-  O   O576,:o:,oOOOOOOO >-OOOqqqqqqqqqqqqqqq",
"qqqqqqqqqqq:----- OOO  O,:65Oo-:o  o O O  --OOqqqqqqqqqqqqqqq",
"qqqqqqqqqqq---:-  O    O,565O -Ooo OO OOOOO:-:qqqqqqqqqqqqqqq",
"qqqqqqqqqqq-OO-o O ..  :,:55 oO+OOO O  O    ::qqqqqqqqqqqqqqq",
"qqqqqqqqqqqO--Oo o%O OO,:-,,oo-OOoOO OOO;    :,qqqqqqqqqqqqqq",
"qqqqqqqqqq6--OOOO%.OO :,:OOOoo  OO-OOO;O     -Oqqqqqqqqqqqqqq",
"qqqqqqqqqO--O OO %oO O:56:O ooo ooO--O%;     oOqqqqqqqqqqqqqq",
"qqqqqqqqq,Oo O %     --67,-oooOOOO O;1%-O   :Oqqqqqqqqqqqqqqq",
"qqqqqqqqq-:  O1  OOOOO,66,OooooO-OO1%%OOO  ,Ooqqqqqqqqqqqqqqq",
"qqqqqqqqq:=:%O. .Ooo O,66, o oO---%;--O O ,Ooqqqqqqqqqqqqqqqq",
"qqqqqqqqqq::OO . O O -,56:ooOooOO-%OOOoo,5-qqqqqqqqqqqqqqqqqq",
"qqqqqqqqqqq:==   O    ,75-oo-oO OOOOooOOO:qqqqqqqqqqqqqqqqqqq",
"qqqqqqqqqqqq=:,- O  O ,5:-ooOooOooo=,:O:qqqqqqqqqqqqqqqqqqqqq",
"qqqqqqqqqqqqqq=-OO O  ,,5Ooo Oo  OO:::qqqqqqqqqqqqqqqqqqqqqqq",
"qqqqqqqqqqqqqqq:OOO   :55OoO ooo :qqqqqqqqqqqqqqqqqqqqqqqqqqq",
"qqqqqqqqqqqqqqqqqq    :75Ooo- Oqqqqqqqqqqqqqqqqqqqqqqqqqqqqqq",
"qqqqqqqqqqqqqqqqqqqqqqO65O- oOoqqqqqqqqqqqqqqqqqqqqqqqqqqqqqq",
"qqqqqqqqqqqqqqqqqqqqqq-6: :qqo-Oqqqqqqqqqqqqqqqqqqqqqqqqqqqqq",
"qqqqqqqqqqqqqqqqqqqqqq:,: :qqoOOqqqqqqqqqqqqqqqqqqqqqqqqqqqqq",
"qqqqqqqqqqqqqqqqqqqqqq,,- :qoO:qqqqqqqqqqqqqqqqqqqqqqqqqqqqqq",
"qqqqqqqqqqqqqqqqqqqqq:6,OO-qqqqqqqqqqqqqqqqqqqqqqqqqqqqqqqqqq",
"qqqqqqqq6775676776776,7: O-:::5:569756776qqqqqqqqqqqqqqqqqqqq",
"qqqqqqq777655:6666666,,:  O::5:5777567,:76qqqqqqqqqqqqqqqqqqq",
"qqqqqqq776:77::56566-:,, :    ,,::5:5:6:,7qqqqqqqqqqqqqqqqqqq",
"qqqqqq97777::5555575=::---O-O-OOO:,=:=::=55qqqqqqqqqqqqqqqqqq",
"qqqqqq656776:56656,::795565::55,99799665677qqqqqqqqqqqqqqqqqq",
"qqqqq$:::::::::::,,,,,,,,,,,,,,,,:,,::::::::qqqqqqqqqqqqqqqqq",
"qqqqq:::=:+===::::::,::::::::::::::=::::=:+=qqqqqqqqqqqqqqqqq",
"qqqqq:+::==::=::::::::::::::::::::=:::+::==:qqqqqqqqqqqqqqqqq",
"qqqqq==::=+  =:::::::=:::::::=:=::::===::=+ qqqqqqqqqqqqqqqqq",
"qqqqq::::+   =:===:=,::::::=:::::::=:::::+  qqqqqqqqqqqqqqqqq",
"qqqqq:::++  +++++::::::::==:::::::::::::++  qqqqqqqqqqqqqqqqq",
"qqqqq+=  ++    :,::::::::::::::::::::+=  ++ qqqqqqqqqqqqqqqqq"
};
