/* XPM */
static char *_4_0[] = {
/* columns rows colors chars-per-pixel */
"46 90 18 1 ",
"  c #1E371E",
". c #282F28",
"X c #223322",
"o c #273C27",
"O c #2B3827",
"+ c #263328",
"@ c #2D4025",
"# c #2E4425",
"$ c #334B23",
"% c #344D2D",
"& c #355722",
"* c #3D5935",
"= c #446343",
"- c #4D6E4E",
"; c #527456",
": c #5D825E",
"> c #6B906D",
", c None",
/* pixels */
"#*,,,,,,,,,,,,,,,,,,,,,,,,,,,,,,,,,,,,,,,,,,,,",
",, ##%%,,,,,,,,,,,,,,,,,,,,,,,,,,,,,,,,,,,,,,,",
",,@o XX%*@,,,,,,,,,,,,,,,,,,,,,,,,,,,,,,,,,,,,",
",o   o%##*,,,,,,,,,,,,,,,,,,,,,,,,,,,,,,,,,,,,",
",,,,X XXX%O,,,,,,,,,,,,,,,,,,,,,,,,,,,,,,,,,,,",
",,,,X,,,o*%,,,,,,,,,,,,,O@OO,,,,,,,,,,,,,,,,,,",
",,,,+X,,,*=@,,,,,,,,,,,O@O%@@,,,,,,,,,,,,,,,,,",
",,,,+X,,,%=%,,,,,,,,,,O@OOOO@O,,,,,,,,,,,,,,,,",
",,,,+X,,,o== ,,,,,,,,,OO@OOOOO,,,,,,,,,,,,,,,,",
",,,,oX,,,o=-#,,,,,,,,OOOOOOOOXO,,,,,,,,,,O,,,,",
",,,,O@,,,,%-*O,,,,,,,OO%XOOOXOOO,,,,,,,,OXX,,,",
",,,,X@,,,,O==@,,,,,,,@@@ @@X@@@@,,,,,,,oXXX,,,",
",,,, @,,,, %%@o,,,,,,@@X@@@O@@@oo,,,,,,#XXX,,,",
",,,, @+,,,,o@*#,,,,,,%O@@XO=;-*#o*,,,,o%XOOO,,",
",,,,,++,,,, ###o,,,,@O@OOO%=:*%%o*,,,#%*XO@X,,",
",,,,,+O,,,,,o#%%o,,,@@%XOo%#OO##o,,,%**OXO X,,",
",,,,,+++,,,, o%=+o,,@@@OOo#:*#%Oo,,#*%@XO Xo.X",
",,,,,O++,,,,, o**XX,O@OO #**-==X o#%O%O# X .X ",
",,,,,OOO+,,,,, #=X*#@OOO %==*% X@%Xo*@% X X X,",
",,,,,,@++,,,,,, %X-*%#OOX@o%*@XXXO-=@#   X.OO,",
",,,,,,O+OO,,,,,, %@*%**o %*#o#o%X*%%o X XOXX,,",
",,,,,,OOOO.,,,,,,OO###*OO=-#oX%%%%# XX X.OO,,,",
",,,,,,,O@O++,,,,,,O%%o*O=@-%o%*@*# XX X.OO@,,,",
",,,,,,,OOO+O+,,,,, ##%@=;-*@o#@O* X  @@ O@,,,,",
",,,,,,,+OO.OO+,,,,,#%%O=;;;-==@O XO OO OO,,,,,",
",,,,,,,,OO..+O++,,,#%  *:>;;::=OX oOXOO@,,,,,,",
",,,,,,,,+@+X+OO+++O* %o#->:;>>=#X @@@XO ,,,,,,",
",,,,,,,,,+O...OO+++ ##*o*-;--:#@  O@OO@,,,,,,,",
",,,,,,,,,OO+X.+@@++XOo##o=;=*%*=#  OX@,,,,,,,,",
",,,,,,,,,,OO+X.+OO+X  o% *;=##%%oO OX,,,,,,,,,",
",,,,,,,,,,,$OX@%+@+XXX o*-=-%Ooo .@X,,,,,,,,,,",
",,,,,,,,,,,+O$X@ + +#%%=-:-;=# X.OO,,,,,,,,,,,",
",,,,,,,,,,,,+&XOO  +#%=-::>:-%#X X@,,,,,,,,,,,",
",,,,,,,,,,,,,+O@O@+ o**;;=>>;=%XXO,,,,,,,,,,,,",
",,,,,,,,,,,,,,XX$OO o**;*-:>;=%X ,,,,,,,,,,,,,",
",,,,,,,,,,,,,,,+OO@+o*-X*;:::-*O,,,,,,,,,,,,,,",
",,,,,,,,,,,,,,,,,++Oo**#-:;-;;-*@,,,,,,,,,,,,,",
",,,,,,,,,,,,,,,,,,,,#=%*-:;**;-*=o,,,,,,,,,,,,",
",,,,,,,,,,,,,,,,,,,,%**=*;;*O=-*=##,,,,,,,,,,,",
",,,,,,,,,,,,,,,,,,,OXo#-*%*===**%oo,,,,,,,,,,,",
",,,,,,,,,,,,,,,,,,,@@X@@Xo%%%%*O@XX,,,,,,,,,,,",
",,,,,,,,,,,,,,,,,,,oooXX@OXOOX%%XX ,,,,,,,,,,,",
",,,,,,,,,,,,,,,,,,,o%## XXXXXX#XXo ,,,,,,,,,,,",
",,,,,,,,,,,,,,,,,,,o*%%oX OOOO XXoo,,,,,,,,,,,",
",,,,,,,,,,,,,,,,,,,,%==%o  @   X##o,,,,,,,,,,,",
",,,,,,,,,,,,,,,,,,,,O==*o@ @   X#*o,,,,,,,,,,,",
",,,,,,,,,,,,,,,,,,,,O=-*%o @   X*-X,,,,,,,,,,,",
",,,,,,,,,,,,,,,,,,,,O=-=%oO   O@*-O,,,,,,,,,,,",
",,,,,,,,,,,,,,,,,,,,#=;=*%O   XO=;@,,,,,,,,,,,",
",,,,,,,,,,,,,,,,,,,,,=;=*%oX XO%-=,,,,,,,,,,,,",
",,,,,,,,,,,,,,,,,,,,,*:-*%%XXXO=;%,,,,,,,,,,,,",
",,,,,,,,,,,,,,,,,,,,,*;-*%% XX#--,,,,,,,,,,,,,",
",,,,,,,,,,,,,,,,,,,,,%;-=*% XX*;%,,,,,,,,,,,,,",
",,,,,,,,,,,,,,,,,,,,,#*:=*% XO=;@,,,,,,,,,,,,,",
",,,,,,,,,,,,,,,,,,,,,#==-=% X#-%,,,,,,,,,,,,,,",
",,,,,,,,,,,,,,,,,,,,,,*;==%XX@=@,,,,,,,,,,,,,,",
",,,,,,,,,,,,,,,,,,,,,,*-:%% X=*,,,,,,,,,,,,,,,",
",,,,,,,,,,,,,,,,,,,,,,#=;-*  -O,,,,,,,,,,,,,,,",
",,,,,,,,,,,,,,,,,,,,,,#=--*Xo=O,,,,,,,,,,,,,,,",
",,,,,,,,,,,,,,,,,,,,,,%**-*XX%,,,,,,,,,,,,,,,,",
",,,,,,,,,,,,,,,,,,,,,%%#%=*XX ,,,,,,,,,,,,,,,,",
",,,,,,,,,,,,,,,,,,,,,**o%%oXX ,,,,,,,,,,,,,,,,",
",,,,,,,,,,,,,,,,,,,,#*=*ooXX ,,,,,,,,,,,,,,,,,",
",,,,,,,,,,,,,,,,,,,,%=--% XX ,,,,,,,,,,,,,,,,,",
",,,,,,,,,,,,,,,,,,,,%=;-% XXX,,,,,,,,,,,,,,,,,",
",,,,,,,,,,,,,,,,,,,,%%;-%XoXX,,,,,,,,,,,,,,,,,",
",,,,,,,,,,,,,,,,,,,,%O-=#X#XX,,,,,,,,,,,,,,,,,",
",,,,,,,,,,,,,,,,,,,,#=-* XoXX,,,,,,,,,,,,,,,,,",
",,,,,,,,,,,,,,,,,,,,#@-* X oX,,,,,,,,,,,,,,,,,",
",,,,,,,,,,,,,,,,,,,,#@-* oXoX,,,,,,,,,,,,,,,,,",
",,,,,,,,,,,,,,,,,,,,,=-%  X.o,,,,,,,,,,,,,,,,,",
",,,,,,,,,,,,,,,,,,,,,=;# X# oX,,,,,,,,,,,,,,,,",
",,,,,,,,,,,,,,,,,,,,,=;#X%.oXX,,,,,,,,,,,,,,,,",
",,,,,,,,,,,,,,,,,,,,,%;#X%,XXo,,,,,,,,,,,,,,,,",
",,,,,,,,,,,,,,,,,,,,,%-# %,,X#,,,,,,,,,,,,,,,,",
",,,,,,,,,,,,,,,,,,,,,=*# %,,Xo,,,,,,,,,,,,,,,,",
",,,,,,,,,,,,,,,,,,,,#-*# %,Xo,,,,,,,,,,,,,,,,,",
",,,,,,,,,,,,,,,,,,,,*-*# #,,,,,,,,,,,,,,,,,,,,",
",,,,,,;;;=-;-;;;;;;-*;%# ##%%==%;;;=;:;-,,,,,,",
",,,,,,;;;===-=----=-=*%  o%%%%-;;--;**=;,,,,,,",
",,,,,;;;;;;%%==--;-##** %    **=%-%==-%;-,,,,,",
",,,,,;;;;;%%=%=%--%%%##*@@o###o#%%%@@%%%-,,,,,",
",,,,=-=--==%=-=-%%%>:-=;=%%%==;;;;:;=-=--=,,,,",
",,,,%%%%%%%%%%%****************%%*%%%%%%%@,,,,",
",,,,%%@%%O@@%%%%%%%%%%%%%%%%%%%%%%%%%%@%%O,,,,",
",,,,@@%%@@%@@%%%%%%%%%%%%%%%%%%%@%%%@@%%@@,,,,",
",,,,@%%%OO O@%%%%%%%%%%%%%%@@%%%%%%@@%%%OO,,,,",
",,,,%%%%   O@%%@@@%*%%%%%%O%%*%%%@%%%%%%  ,,,,",
",,,,%%@OO   O@ O%%%%%%%%O%%%%%%%%%%%%%@OO ,,,,",
",,,,O   O    O*%%%%%%%%%%%%%%%%%%%%%O   O ,,,,"
};
