/* XPM */
static char *_6_0[] = {
/* columns rows colors chars-per-pixel */
"61 91 10 1 ",
"  c #2F1F0F",
". c #3B2713",
"X c #4B2F17",
"o c #57371B",
"O c #633F1F",
"+ c #734323",
"@ c #7A4B2B",
"# c #8B532B",
"$ c #9B5B2F",
"% c None",
/* pixels */
". .%%%%%%%%%%%%%%%%%%%%%%%%%%%%%%%%%%%%%%%%%%%%%%%%%%%%%%%%%%",
"%%  X.o%%%%%%%%%%%%%%%%%%%%%%%%%%%%%%%%%%%%%%%%%%%%%%%%%%%%%%",
"%%..X.OoXX%%%%%%%%%%%%%%%%%%%%%%%%%%%%%%%%%%%%%%%%%%%%%%..  %",
"%. X  .. X.%%%%%%%%%%%%%%%%%%%%%%%%%%%%%%%%%%%%%%%%....   %%%",
".   .    .X%%%%%%%%%%%%%%%%%%%%%%%%%%%%%%%%%%%%%%.XX....X ..%",
"%%%% . X..XX%%%%%%%%%%%%%%%%%%%%%%%%%%%%%%%%%%%%.XX.. %%%X ..",
"%%%%     XXo.%%%%%%%%%%%%%%%%%%%%%%%%%%%%%%%%%%.Xo. %%%%%X  .",
"%%%% X. .XXOX%%%%%%%%%%%%..X..%%%%%%%%%%%%%%%%.o+X.%%%%%X. ..",
"%%%%.X. X.XOo.%%%%%%%%%%.......%%%%%%%%%%%%.XXo+@@#O%%XX..  .",
"%%%%... X  oOX%%%%%%%%%........%%%%%%%%%%% ...XoX...... .   %",
"%%%%....X  X+o.%%%%%%%%.........%%%%%%%%%X .O@X XXX..  .. . %",
"%%%%..X.   XOO.%%%%%%%............%%%%%%% .O#O.  XXXX... .X.%",
"%%%%.... ...O+X %%%%%%............%%%%%%%.O#O.X%X  X..  .XX%%",
"%%%%..X. .. XOXX%%%%%.............%%%%%%%o#OXX.%%%. .. ... %%",
"%%%%.XXXX . .ooX%%%%%.....X..o@XX .%%%%%.oOXX..%%%%..... %%%%",
"%%%%.XXXX   ..XXX%%%........X@+OXX.%%%%.Xo.....%%%%%%   %%%%%",
"%%%%.XXoX  . .XXX.%%.XXX...XoXXXXO %%%XX+... ..%%%%%%%%%%%%%%",
"%%%%.XXXX. . ..XoX.%% X....XOX ...X%%Xo+X.. X..%%%%%%%%%%%%%%",
"%%%%.XXXX. ..  .o+o.% . X.X.o#ooX %%Xo+X.X  XX.%%%%%%%%%%%%%%",
"%%%%.XXXX.... %.XO+oX.  XX.XXoo.X..XO+o.X    o.%%%%%%%%%%%%%%",
"%%%%.XXX.   . .%.XO+oXX    .ooX....O+o.X    .o+X%%%%%%%%%%%%%",
"%%%%.XXX...X. .%%.XO+ooX. .X.XoX.X.OoXX      .oO@%%%%%%%%%%%%",
"%%%%.XXX..XX.  %%%.XoX.oX .+X. .XXXX..      ...@o.%%%%%%%%%%%",
"%%%%..XX..XX. ..%%%.XX.XX.o@oX.Xo.oX.%   .  .XXooOo%%%%%%%%%%",
"%%%%.....XX...X.%%%..o.X.O++OX.oX.X.%    .  .XXX.oX%%%%%%%%%%",
"%%%%..XXX.....X %%%%.o.X.+#+OooX...%% ....  .XO...oo%%%%%%%%%",
"%%%%..Xo.X....X..%%%.XX.X+$@@@+O. %% .... ...X.XX.XXX%%%%%%%%",
"%%%%.O. Xo....X. %%%.X...O#$@#$+X.%  .... ..XOXXX...X%%%%%%%%",
"%%%%OX.Xooo....X .%%..XoXo+#+@$#X.   .... .X.XXXX..Xo%%%%%%%%",
"%%%XX ..o.. .. ....%...Xo.o@O+OXoX.  ......X..XXX..XX%%%%%%%%",
"%%%XX..X...... .........X.X+OoXooX.  ......XX.XXX.XOX%%%%%%%%",
"%%%XX...XoX.X.....X.. ....o@+o..X..  ......o..XXX.O.%%%%%%%%%",
"%%%XOX.ooO..X....Xo.....Xo+@@+X...   .....XX...X.OX%%%%%%%%%%",
"%%%%XX.XOo..X.X..XXX..XoO+###@oX.   ... ..XX..X.Xo.%%%%%%%%%%",
"%%%%.OX.Oo..XXo.X.XX..XOo@#@$#+X   ......XXX...Xo.%%%%%%%%%%%",
"%%%%%.O.XoX.XoX...X.. XX+++#$#+o  ..... .XXX.XXX.%%%%%%%%%%%%",
"%%%%%%.X..X.ooX  .... XO@+O@#$@OX... ...X.X..X ..%%%%%%%%%%%%",
"%%%%%%.oXo.XooX  .XX. XO+O@##@#Oo.........XXXX.. %%%%%%%%%%%%",
"%%%%%%%.oX..ooX...X.. XooO##OO+#OO... ...XXX.Xo. %%%%%%%%%%%%",
"%%%%%%% .XX.XoX..X....X+oo+#OXo#o+X......XXX.XOO.%%%%%%%%%%%%",
"%%%%%%%  ...oOX...X...XO@oXO+oo+oOX. ....XXX..XO+X%%%%%%%%%%%",
"%%%%%%% ..X.XXX..X..  . ..XXooooXo  .....X.XXX.X+O %%%%%%%%%%",
"%%%%%%%..XX.oXX..X..    . . ...o .. .....XXoX.  oXo%%%%%%%%%%",
"%%%%%%.X.X..OoX .....XXX .   .. .. ......XXXXX ...XX%%%%%%%%%",
"%%%%%.X.  .XOOX......XoX.... ............oXXXX.. .Xo%%%%%%%%%",
"%%%%%o.  .XoooX......XOoX. ...... ......X.XXXX.  XX%%%%%%%%%%",
"%%%%Xo   XXXXOX......XOOo.  ..... XX...XXXXX... XX%%%%%%%%%%%",
"%%%%%XX  .XXXOo......Xo+oX. ......XX...XXX.X. .XX%%%%%%%%%%%%",
"%%%%%XX.....XoX......XoOOX........XX....XoX..XXX%%%%%%%%%%%%%",
"%%%%%%%XX...XOX.......o@+XX. .  .XXX....Xo.XXo%%%%%%%%%%%%%%%",
"%%%%%%%%XXX..Xo.......o++XX..   .XXX.....XXX..%%%%%%%%%%%%%%%",
"%%%%%%%%%%XX.Xo.......X++oXX. ...XoX . .XXX...%%%%%%%%%%%%%%%",
"%%%%%%%%%%%XXXX.......X+@OoXX...XXX....XXX..X.%%%%%%%%%%%%%%%",
"%%%%%%%%%%%.XXXX.......O#OoX.. .XoX .......XX.%%%%%%%%%%%%%%%",
"%%%%%%%%%%%...XXX . ...o#+OXX. .XX.....X..XXX.%%%%%%%%%%%%%%%",
"%%%%%%%%%%%XX...XX. ...o@@OXo. .o. ...XXX..XX.%%%%%%%%%%%%%%%",
"%%%%%%%%%%%XXX.XXX ....X+#+oo .Xo ... .XXXXXX.%%%%%%%%%%%%%%%",
"%%%%%%%%%%%XXXXXX......XO#Xoo .o. ..  ..XXX.X.%%%%%%%%%%%%%%%",
"%%%%%%%%%%%XXXXXX.......O@+oX Xo ........oX...%%%%%%%%%%%%%%%",
"%%%%%%%%%%%XXXXXX.......oX+O. XX .. ......XX..%%%%%%%%%%%%%%%",
"%%%%%%%%%%%XXXXX........oO+O..X.  .........XXX%%%%%%%%%%%%%%%",
"%%%%%%%%%%%X..X .......XoXOO. ..............XX%%%%%%%%%%%%%%%",
"%%%%%%%%%%%.XX. . X....oXXoo  X.. ......X....Xo%%%%%%%%%%%%%%",
"%%%%%%%%%%+XX....X....XoX...  ....X...X......X.%%%%%%%%%%%%%%",
"%%%%%%%%%.XX.....X ...XO+X..   .  .XX.XX..... .%%%%%%%%%%%%%%",
"%%%%%%%%%o. ...X.....XX+@oX   ......XoXX....X.%%%%%%%%%%%%%%%",
"%%%%%%%%%XX...o.......o++o.    .X..oXX.....o. %%%%%%%%%%%%%%%",
"%%%%%%%%%X.XX.....  ..o++o. . .XXXXXXX....o. %%%%%%%%%%%%%%%%",
"%%%%%%%%%%XX.........XoO+X  .  ..XX...  oOX%%%%%%%%%%%%%%%%%%",
"%%%%%%%%%%%X..........o@OX  X ......  ...X%%%%%%%%%%%%%%%%%%%",
"%%%%%%%%%%%%.XoX......oOXX  .  .   .oX.X%%%%%%%%%%%%%%%%%%%%%",
"%%%%%%%%%%%%%%.X......ooO.  .. ....XXX%%%%%%%%%%%%%%%%%%%%%%%",
"%%%%%%%%%%%%%%%X......XOO. ..   .X%%%%%%%%%%%%%%%%%%%%%%%%%%%",
"%%%%%%%%%%%%%%%%%%....X@O.  X..%%%%%%%%%%%%%%%%%%%%%%%%%%%%%%",
"%%%%%%%%%%%%%%%%%%%%%%.+O.X. . %%%%%%%%%%%%%%%%%%%%%%%%%%%%%%",
"%%%%%%%%%%%%%%%%%%%%%%X+X.X%% X.%%%%%%%%%%%%%%%%%%%%%%%%%%%%%",
"%%%%%%%%%%%%%%%%%%%%%%XoX.X%% ..%%%%%%%%%%%%%%%%%%%%%%%%%%%%%",
"%%%%%%%%%%%%%%%%%%%%%%ooX.X% .X%%%%%%%%%%%%%%%%%%%%%%%%%%%%%%",
"%%%%%%%%%%%%%%%%%%%%%X+o..X%%%%%%%%%%%%%%%%%%%%%%%%%%%%%%%%%%",
"%%%%%%%%+@@O+@+@@+@@+o@X..XXXXOXO+#@O+@@+%%%%%%%%%%%%%%%%%%%%",
"%%%%%%%@@@+OOX+++++++ooX...XXOXO@@@O+@oX@+%%%%%%%%%%%%%%%%%%%",
"%%%%%%%@@+X@@XXO+O++XXoo.X....ooXXOXOX+Xo@%%%%%%%%%%%%%%%%%%%",
"%%%%%%#@@@@XXOOOOO@O.XXXXX.X.X...Xo.X.XX.OO%%%%%%%%%%%%%%%%%%",
"%%%%%%+O+@@+XO++O+oXX@#OO+OXXOOo##@##++O+@@%%%%%%%%%%%%%%%%%%",
"%%%%%.XXXXXXXXXXXooooooooooooooooXooXXXXXXXX%%%%%%%%%%%%%%%%%",
"%%%%%XXX.X....XXXXXXoXXXXXXXXXXXXXX.XXXX.X..%%%%%%%%%%%%%%%%%",
"%%%%%X.XX..XX.XXXXXXXXXXXXXXXXXXXX.XXX.XX..X%%%%%%%%%%%%%%%%%",
"%%%%%..XX.....XXXXXXX.XXXXXXX.X.XXXX...XX...%%%%%%%%%%%%%%%%%",
"%%%%%XXXX.....X...X.oXXXXXX.XXXXXXX.XXXXX...%%%%%%%%%%%%%%%%%",
"%%%%%XXX.........XXXXXXXX..XXXXXXXXXXXXX....%%%%%%%%%%%%%%%%%",
"%%%%%..........XoXXXXXXXXXXXXXXXXXXXX.......%%%%%%%%%%%%%%%%%"
};
