/* XPM */
static char *_8_0[] = {
/* columns rows colors chars-per-pixel */
"47 90 14 1 ",
"  c #23170B",
". c #2F1F0F",
"X c #3B2713",
"o c #3A3319",
"O c #412921",
"+ c #4F3F2B",
"@ c #5B4326",
"# c #604C33",
"$ c #6D5536",
"% c #7B5C3C",
"& c #866741",
"* c #976E45",
"= c #A0764A",
"- c None",
/* pixels */
"-------------+ooo------------------------------",
"-----------oOOOoo@@#---------------------------",
"----------OOO@@$#++O%--------------------------",
"----------O@#%&*&$@OO#-------------------------",
"----------@@$&&&%$@@O@-------------------------",
"----------OOO++OOO@@OO-------------------------",
"----------O@O%+oo@@@O@-------------------------",
"----------o##%@$%$#O@+-------------------------",
"----------o#++@$%#+O#O-------------------------",
"-----------+XOOO##+#O--------------------------",
"-----------X@OOOOOO+---------------------------",
"-----------o@++#OOO@---------------------------",
"------------O@OOOo#@@--------------------------",
"---------ooOooo#@@+@$O@@-----------------------",
"------oo@++o+O+##++$%#%$$@++-------------------",
"-----O+@$+@+O+#$#%#$$#%$%$###+-----------------",
"---o+@%@O$@@@O$%%%@%%$@$%%$###@+---------------",
"--o+oO@%O+@#@+%%%$%@$$#%$$##$$#@O--------------",
"--o+oO+@$+++Oo$%%%%%+#%$%#$%$##O---------------",
"---+@OO#+#++++#%%%$$%+%%#$%$##OO---------------",
"----++O+@#@@++++%$%%%++#%%#%@O@#---------------",
"---OOO++@+#O@@$%%%###$%#%#%@OO+$#--------------",
"---+OOo+@+@+O@#%%%%#%%%$+%$++#@+#--------------",
"---@@+oo+@@@@O$%#%%%%%#$#$@O#@#+#$-------------",
"---+@$+oO+#@+O+O%%$+%%%##@OOO++#@+@------------",
"---@@+$$##+#+O#$##O@##$$@+oO##+++o++-----------",
"---+#@$&&*%==&@#O+@$#@@@@O-o+@@#++@+-----------",
"--OOOO$&*#*&=&#+O@$+%##O@O--o@Ooo@#+-----------",
"--OO$#$&%$+$&&@@$#@@#@#+@----o+@+@o@-----------",
"--@O+#$$***$$&#$#@@@@#+#+---oOOO@+@$+----------",
"--oO@$$*&****%@#+@@@$@#+@-oooOOOO$##+----------",
"--##O+$******&OO+o+#+O+#-XX++oo+#@#$+----------",
"--#+@++%**&**$@@@#$@#+O+-XoOXoo@+#+O-----------",
"--@@O$#$$***&&O@$#@+@OOX+o@.oOOO+O-------------",
"--@O+@O+##%&&&@O+@O@ooOooO$OOXOO---------------",
"---###o+XOO+@++@+##OOO@@O++@oOOO---------------",
"---#@@++@@+++++++@@+o++#@@Oo+XXX---------------",
"--OOo@O+++#+++@$%&&+O+$@$#@--------------------",
"-o.@OO++O@@#+O$***&#@OO+$#+--------------------",
"OoOOo.OOOO+#@O$***&**&#oO@$--------------------",
"-.@oO.OO$#@#@@$********&*%$--------------------",
"-.oo.o+O+##$@@$*****&**&*&$--------------------",
"--oooooO@$++#+$********&**&$-------------------",
"--o..O#OO+++$+$&**********&$-------------------",
"--o.o##+@+@@++$%&&&&&&&&&&%$-------------------",
"--o..#*&%&&$$$OO#+++@@@+@##O-------------------",
"---oo#**%****$++@#@O@@O@@@@o-------------------",
"---oo#**&**&*$+%@++@+###@@@@-------------------",
"-----#**&****%@#+#O+#+O+#@@@-------------------",
"-----#**&****$O@@O@+@OOOO@@@-------------------",
"-----%*&&***&$$++@@#@@#OO+@@@------------------",
"-----%**#***&$+@+$#@O@$+@+@@@------------------",
"-----&**$***&$@@@@O#@O@O@+@@@------------------",
"-----$&#****&$@O+@@@+@@O@O+OO------------------",
"-----#+o$&&&&$@O++@@OO+@++OOO------------------",
"---------@#####XX-XXXOOOO+O@@------------------",
"---------XXXXXXXX---OX...OO--------------------",
"---------XOo@@+oO---X+O+++O+-------------------",
"---------OOO+++++---+OO++OO@-------------------",
"---------@oO@@OO-----+OO+##+O------------------",
"---------OO@oXO@------XOOOXX+------------------",
"---------oO@@##+------OXX+#$+O-----------------",
"---------Oo++++OO-----OO+OOOOo-----------------",
"----------OXXXXXO-------OOOoXOO----------------",
"----------$#$+++O-------+OOO++O----------------",
"----------+@&#+++-------O++$#++----------------",
"----------+@$$@+O--------O+@&#+O---------------",
"-----------@&$+++--------+O@$$+O---------------",
"-----------+$++++--------O++@$+O---------------",
"-----------++&@+----------O+@&#O---------------",
"-----------+o*@+----------O++$$+---------------",
"-----------oo*++-----------O+@&@O--------------",
"------------O&$@-----------O+@&@o--------------",
"------------+&&@+-----------++$+o--------------",
"------------+$*@O-----------+++$#--------------",
"----O+##O+@@o@@++@O+@@#$$$%$O+@&@$$$@@####@----",
"---@+##@+++#OXXOO@@++#++$$$$$+@+OO##$#@@@$#O---",
"---++O#O+O$ooO+XOO@@@...++++$O+O##+%$#@@@$$#---",
"--o@+.+OO@O$&ooOOOO...Oo@Ooo.OXOO+#+$##$@#$@#--",
"--XO.ooOO@&$$+OOoOO@+OOOoO+ooOO++#**&$$$#+@#@--",
"--XOXoO@++@++O.OO+#$%%+@@o...o..OO+$+$+$#++@@--",
"-OoOooO.ooooOO@$#+#$$$#@@$@%@oOO...+$&$+@oo+O.-",
"-O+@+Ooo+O#++++oX+##+#@@@@##O+@+Oooooo@oOO....-",
"++@###@+++@@@###@oXo@+@+O@O@+@###@+++@@@+oO@.Xo",
"..ooOoooooooooo.......O.ooo..ooOoooooooooo.....",
"...oO..oOOOOOOOo........o.....oO..oOOOOOOOo....",
"Oo. O...OOoooOooo......oo..oo. O...OOoooOooo...",
"O@o.Oo.o.oooooOOoo....o.OOOo@o.Oo.o.oooooOOoo..",
"OOOOO.oO..oOoOoOOoO.o...OoOOOOOO.oO..oOoOoOOoO.",
"OOOOOOo.O.oooOOOOOOO...ooOOOOOOOOo.O.oooOOOOOOO"
};
