/* XPM */
static char *_9_0[] = {
/* columns rows colors chars-per-pixel */
"47 90 15 1 ",
"  c #1E371E",
". c #223322",
"X c #273C27",
"o c #2B3827",
"O c #2D4025",
"+ c #2E4425",
"@ c #344D2D",
"# c #3D5935",
"$ c #446343",
"% c #4D6E4E",
"& c #527456",
"* c #5D825E",
"= c #6B906D",
"- c #7B9C76",
"; c None",
/* pixels */
";;;;;;;;;;;;;;;;;;;;;;;;;;;;;;ooo@;;;;;;;;;;;;;",
";;;;;;;;;;;;;;;;;;;;;;;;;;;$##ooOOOo;;;;;;;;;;;",
";;;;;;;;;;;;;;;;;;;;;;;;;;&O@@$%##OOO;;;;;;;;;;",
";;;;;;;;;;;;;;;;;;;;;;;;;$OO#%*=*&$#O;;;;;;;;;;",
";;;;;;;;;;;;;;;;;;;;;;;;;#O##%&***%##;;;;;;;;;;",
";;;;;;;;;;;;;;;;;;;;;;;;;OO##OOO@@OOO;;;;;;;;;;",
";;;;;;;;;;;;;;;;;;;;;;;;;#O###oo@&O#O;;;;;;;;;;",
";;;;;;;;;;;;;;;;;;;;;;;;;@#O$%&%#&$$o;;;;;;;;;;",
";;;;;;;;;;;;;;;;;;;;;;;;;O$O@$&%#@@$o;;;;;;;;;;",
";;;;;;;;;;;;;;;;;;;;;;;;;;O$@$$OOO.@;;;;;;;;;;;",
";;;;;;;;;;;;;;;;;;;;;;;;;;;@OOOOOO#.;;;;;;;;;;;",
";;;;;;;;;;;;;;;;;;;;;;;;;;;#OOO$@@#o;;;;;;;;;;;",
";;;;;;;;;;;;;;;;;;;;;;;;;;##$oOOO#O;;;;;;;;;;;;",
";;;;;;;;;;;;;;;;;;;;;;;##O%#@##$oooOoo;;;;;;;;;",
";;;;;;;;;;;;;;;;;;;@@#%%&$&%@@$$@O@o#@#oo;;;;;;",
";;;;;;;;;;;;;;;;;@$$$%&%&$%%$&$%$@O###%#@O;;;;;",
";;;;;;;;;;;;;;;@#$$$%&&%#%&&#&&&%O###%O#*#@o;;;",
";;;;;;;;;;;;;;O#$%%$$%%&$%%#&%&&&@#$##O*#Oo@o;;",
";;;;;;;;;;;;;;;O$$%&%$&%&$@&&&&&%oO@@@%#@Oo@o;;",
";;;;;;;;;;;;;;;OO$$%&%$&&@&%%&&&$@@@@$@$OO#@;;;",
";;;;;;;;;;;;;;;$#O#&$&&$@#&&&%&@@@@##$#@O@@;;;;",
";;;;;;;;;;;;;;$%@OO#&$&$&%$$$&&&%##O$@#@@OOO;;;",
";;;;;;;;;;;;;;$@#$@@%&@%&&&$&&&&$#O@#@##oOO@;;;",
";;;;;;;;;;;;;%$@$#$O#%$%$&&&&&$&%O####@oo@##;;;",
";;;;;;;;;;;;#@#$@@OOO#$$&&&@%&&O@O@#$@Oo@%#@;;;",
";;;;;;;;;;;@@o@@@$$Oo@#%%$$#O$$%$O@$@$$%%@##;;;",
";;;;;;;;;;;@#@@$##@o;O####$%#@O$#*--&=**%#$@;;;",
";;;;;;;;;;;@$#ooO#o;;O#O$$&@%#O@$*-*=$=*%OOOO;;",
";;;;;;;;;;;#o#@#@o;;;;#@$#$##$%##**%@%&*%$%OO;;",
";;;;;;;;;;@%#@#OOOo;;;@$@$####$%$*%%===%%$@O#;;",
";;;;;;;;;;@$$%OOOOooo;#@$#%###@$#&====*=%%#Oo;;",
";;;;;;;;;;@%$#$@oo@@..;$@O@$@o#OO*======%@O$$;;",
";;;;;;;;;;;O@$@#oo.Oo.;@O@$#%$###%==*==&@@#@$;;",
";;;;;;;;;;;;;O@OOOo #o@.OO#@#$%#O**===%%$%O##;;",
";;;;;;;;;;;;;;;OO.OO%OooOoo#O#@O#***&$$@O#@O#;;",
";;;;;;;;;;;;;;;OOOo#@@O##OOO$$@#@@#@OO.@o$$$;;;",
";;;;;;;;;;;;;;;...@oO##$@@X###@@@@@@@##@###$;;;",
";;;;;;;;;;;;;;;;;;;;#$%#%#O#**&%#@@@$@@@O#XOO;;",
";;;;;;;;;;;;;;;;;;;;#$%#OO#$*===%O@$##O@@.O..o;",
";;;;;;;;;;;;;;;;;;;;%#Oo$*==*===%O#$@OOOO.oO.XO",
";;;;;;;;;;;;;;;;;;;;%*=*========%##$#$%OO Oo# ;",
";;;;;;;;;;;;;;;;;;;;%*=*==*=====%##%$$@O@o.XX ;",
";;;;;;;;;;;;;;;;;;;%*==*========%@$@@%#Ooo.XX;;",
";;;;;;;;;;;;;;;;;;;%*==========*%@%@@@OO$O.XX;;",
";;;;;;;;;;;;;;;;;;;%&**********&%@@##@#@$$o.X;;",
";;;;;;;;;;;;;;;;;;;O$$#@###@#@$OO%%%**&*=$ .o;;",
";;;;;;;;;;;;;;;;;;;o####O##O#$#@@%====&==$XX;;;",
";;;;;;;;;;;;;;;;;;;####$$$@#@@#&@%=*==*==$XX;;;",
";;;;;;;;;;;;;;;;;;;###$@O@$@O$@$#&====*==$;;;;;",
";;;;;;;;;;;;;;;;;;;###OOOO#@#O##O%====*==$;;;;;",
";;;;;;;;;;;;;;;;;;###@OO$##$##@@%%*===**=&;;;;;",
";;;;;;;;;;;;;;;;;;###@#@%#O#$%@#@%*===$==*;;;;;",
";;;;;;;;;;;;;;;;;;###@#O#O#$O####%*===%==*;;;;;",
";;;;;;;;;;;;;;;;;;OO@O#O##@###@O#%*====$*%;;;;;",
";;;;;;;;;;;;;;;;;;OOO@@#@OO##@@O#%****%X#$;;;;;",
";;;;;;;;;;;;;;;;;;##O@OOOO...;..$$$$$#;;;;;;;;;",
";;;;;;;;;;;;;;;;;;;;OO   .O;;;........;;;;;;;;;",
";;;;;;;;;;;;;;;;;;;@O@@@O@.;;;Oo@##oO.;;;;;;;;;",
";;;;;;;;;;;;;;;;;;;#OO@@OO@;;;@@@@@OOO;;;;;;;;;",
";;;;;;;;;;;;;;;;;;O@$$@OO@;;;;;OO##Oo#;;;;;;;;;",
";;;;;;;;;;;;;;;;;;@..OOO.;;;;;;#O.o#OO;;;;;;;;;",
";;;;;;;;;;;;;;;;;O@%$@..O;;;;;;@$$##Oo;;;;;;;;;",
";;;;;;;;;;;;;;;;;oOOOO@OO;;;;;OO@@@@oO;;;;;;;;;",
";;;;;;;;;;;;;;;;OO.oOOO;;;;;;;O.....O;;;;;;;;;;",
";;;;;;;;;;;;;;;;O@@OOO@;;;;;;;O@@@%$%;;;;;;;;;;",
";;;;;;;;;;;;;;;;@@$%@@O;;;;;;;@@@$*#@;;;;;;;;;;",
";;;;;;;;;;;;;;;O@$*#@O;;;;;;;;O##%%#@;;;;;;;;;;",
";;;;;;;;;;;;;;;O@%%#O@;;;;;;;;@@#%*#;;;;;;;;;;;",
";;;;;;;;;;;;;;;O@%#@@O;;;;;;;;@@@@%@;;;;;;;;;;;",
";;;;;;;;;;;;;;;O$*#@O;;;;;;;;;;@#*#@;;;;;;;;;;;",
";;;;;;;;;;;;;;;@%%@@O;;;;;;;;;;@#=o@;;;;;;;;;;;",
";;;;;;;;;;;;;;O#*#@O;;;;;;;;;;;@@=oo;;;;;;;;;;;",
";;;;;;;;;;;;;;X#*#@O;;;;;;;;;;;#%*O;;;;;;;;;;;;",
";;;;;;;;;;;;;;o@%@@;;;;;;;;;;;@#**@;;;;;;;;;;;;",
";;;;;;;;;;;;;;$%@@@;;;;;;;;;;;O#=%@;;;;;;;;;;;;",
";;;;#$$$$##%%%#*#@O%&%%%$##@O#@@##o##@O$$@O;;;;",
";;;O$%###$%$$OO@#@%%%%%@@$@@##OO..O$@@@#$$@#;;;",
";;;$%%###$%&@$$O@O%##########OO.@Ooo%O@O$O@@;;;",
";;$#%$#%$$%@$@OO.O+ooO#oO XXOOOOoo*%O#OO@ @#X;;",
";;#$#@$%%%*==$@@OOoo@OoOOO@#OOoOO@%%*#OOoX O.;;",
";;##@@$%@%@%@OO  XXXXX##@&&%$@OO O@@#@@#Oo.O.;;",
"; O@oo#@%*%@   OOo#&#%##$%%%$@$%#OOoooo.OooOXO;",
"; .. OOo#oooooO@#@O$$####$@$$@.X@@@@$O@ooO@#@O;",
"o. #Oo@###@@##$$$#@#O#O@#@#o.o#$$$###@@@#$$$#@@",
"  .. ooooooooooOoo  ooo O     X ooooooooooOoo  ",
"    oOOOOOOOo  Oo     o        oOOOOOOOo  Oo   ",
"   oooOoooOO   OX oo  oo      oooOoooOO   O. oO",
"  ooOOooooo o oO oXoOOO o    ooOOooooo o oO o#O",
" OoOOoOoOo  Oo OOOOOOoO   o OoOOoOoOo  Oo OOOOO",
"OOOOOOOooo O oOOOOOOOOoo   OOOOOOOooo O oOOOOOO"
};
