/* XPM */
static char *__0[] = {
/* columns rows colors chars-per-pixel */
"39 91 11 1 ",
"  c #382D34",
". c #43333F",
"X c #4B3447",
"o c #563A4D",
"O c #654160",
"+ c #6D4566",
"@ c #7F4D6A",
"# c #8F5477",
"$ c #9B6282",
"% c #AF6F90",
"& c None",
/* pixels */
"&&&&&&&&&&&&&&&&&&+@@##&&&&&&&&&&&&&&&&",
"&&&&&&&&&&&&&&&&##@O@#%@@&&&&&&&&&&&&&&",
"&&&&&&&&&&&&&&@$+O+@+++#@#&&&&&&&&&&&&&",
"&&&&&&&&&&&&&####@@++@+O@@&&&&&&&&&&&&&",
"&&&&&&&&&&&&&OoOOO+ooO@@@+&&&&&&&&&&&&&",
"&&&&&&&&&&&&&ooO##+oOXO+#@+&&&&&&&&&&&&",
"&&&&&&&&&&&&&&oXooXo+OXOO@@+&&&&&&&&&&&",
"&&&&&&&&&&&&&&&o@o+@#OoX++##@&&&&&&&&&&",
"&&&&&&&&&&&&&&&+#+@#@+oXooO@@&&&&&&&&&&",
"&&&&&&&&&&&&&&&&Oo@@@oOX@+###&&&&&&&&&&",
"&&&&&&&&&&&&&&&&Ooo@@#Oo@+#@+@&&&&&&&&&",
"&&&&&&&&&&&&&&&&&O+$+Oo+OOO+O+&&&&&&&&&",
"&&&&&&&&&&&&&&&&&&&+@+O++@O+O+&&&&&&&&&",
"&&&&&&&&&&&&&&&&&&&+OoOO+@$+O+@&&&&&&&&",
"&&&&&&&&&&&&&&&&O@@@+OO+@++$$+@&&&&&&&&",
"&&&&&&&&&&&&&&&&O##$#+oOO@++@+##&&&&&&&",
"&&&&&&&&&&&&&&&&$#%###o+O@+@#@@#$&&&&&&",
"&&&&&&&&&&&&&&&@#@$###++++#@#@+#$%o&&&&",
"&&&&&&&&&&&&&&++#$$##$##@@+##$@##$#&&&&",
"&&&&&&&&&&&&&@OO$$####@@+++##$@++#$#&&&",
"&&&&&&&&&&&O@#@+$#%$%@#@@+##@++O+@$#&&&",
"&&&&&&&&&&&O#@@+@#$$@#@@+@$@++++++@@&&&",
"&&&&&&&&&&&+##+O###$@$@++$$$+$$+@+O+&&&",
"&&&&&&&&&&&&+@O+####@+@@O@@$#@++O+O&&&&",
"&&&&&&&&&&&&&O+O@##@O+%$@@##+#@++@&&&&&",
"&&&&&&&&&&&&&&++###@O###+@+O##$@@@++O&&",
"&&&&&&&&&&&&&&@@@$##@###OO+++@$#@@@+O&&",
"&&&&&&&&&&&&&&#@#@+@@$$@++OO@@$#+#+@&&&",
"&&&&&&&&&&&&&&#+####@##O+O+#@O#@+@@@&&&",
"&&&&&&&&&&&&+&@$#@##@$$@@#@++$+#@+&&&&&",
"&&&&&&&&&&&++O#@##@+@@@@@+@#+++@#@@&&&&",
"&&&&&&&&OOO+++#$#@#O$$++@OOO+@+@@++&&&&",
"&&&&&&&&o++@@###@O@$##@@#O+@&&++&&&&&&&",
"&&&&&&&@OO++@+@O@#$###@+@OO&&&&&&&&&&&&",
"&&&&&&&+O++++@O@$$$#+@###+@&&&&&&&&&&&&",
"&&&&&&#$o+O+O@+O+@+@+@###@O&&&&&&&&&&&&",
"&&&&&&#@+OOo+#+OOo@+@@####+OO&&&&&&&&&&",
"&&&&&&&OOoOOO+@+@+oo++##@###OO&&&&&&&&&",
"&&&&&&&&+OoOOo@+o@@@oO@#@@#@@+#&&&&&&&&",
"&&&&&&&&&+o+++@O+o+@@@O+@+@@+#@&&&&&&&&",
"&&&&&&&&&+O+@+@@@@OO+O++++##%%$&&&&&&&&",
"&&&&&&&&&+O+@#O+@@@oO@#@+@@##$@&&&&&&&&",
"&&&&&&&&&+O++#@O#@@#@OO++##+O+&&&&&&&&&",
"&&&&&&&&&+o+O@#++#$%#$OOoOoOO@&&&&&&&&&",
"&&&&&&&&&OOo+@@+O@$$###@@O@@##$&&&&&&&&",
"&&&&&&&&&++o++@#@++#@##+++Oo+$+&&&&&&&&",
"&&&&&&&&&+@oO+++@OO@#@@O@#$#+O@&&&&&&&&",
"&&&&&&&&&+oOO++O$@O+O#O+@@+OO#@&&&&&&&&",
"&&&&&&&&&+o@@O++#@OOOO+@@O+O#@+&&&&&&&&",
"&&&&&&&&&OO++OO+@%#++OO+##@%+O+&&&&&&&&",
"&&&&&&&&&o$$@Oo+@##+@$O++++++OO&&&&&&&&",
"&&&&&&&&&+$@%#OO+##$O#%+OOOOO#+&&&&&&&&",
"&&&&&&&&+#@@##OO++%$@+@#@OO#++O&&&&&&&&",
"&&&&&&&&O@###@@oO+@$$#+@@@@#+++&&&&&&&&",
"&&&&&&&&O##$@@+Oo++@$##++@@+OOO&&&&&&&&",
"&&&&&&&&+@##@@OOoo+O+%$#oOOOoO+&&&&&&&&",
"&&&&&&&&++#@@+++OooO++@#+@oo@@+&&&&&&&&",
"&&&&&&&&++@++@#++oooO+OO##+@$@&&&&&&&&&",
"&&&&&&&&&O++@@##OOoooOO++OO+++&&&&&&&&&",
"&&&&&&&&&+@@###@@@OOOooOOO+++&&&&&&&&&&",
"&&&&&&&&&+OO#$#@#$+O+++O&&&&&&&&&&&&&&&",
"&&&&&&&&&+O+@+#$@#@++++O&&&&&&&&&&&&&&&",
"&&&&&&&&&++O@$##@+++O+++&&&&&&&&&&&&&&&",
"&&&&&&&&&+++O##$##$@@#+o&&&&&&&&&&&&&&&",
"&&&&&&&&&++@@#$#@$$$@@@@&&&&&&&&&&&&&&&",
"&&&&&&&&&O++@O+#$%%%++@O&&&&&&&&&&&&&&&",
"&&&&&&&&O++++@@@%%$#OO#@&&&&&&&&&&&&&&&",
"&&&&&&&&&+O+O++##@+@+O+O&&&&&&&&&&&&&&&",
"&&&&&&&&&OOo++OOO#@+@+O@&&&&&&&&&&&&&&&",
"&&&&&&&&&oOoOoO+OO@@+@++&&&&&&&&&&&&&&&",
"&&&&&&&&&OOoooOOoOO%++O+&&&&&&&&&&&&&&&",
"&&&&&&&&&+OOo+OXoOO@@@@+&&&&&&&&&&&&&&&",
"&&&&&&&&&@++@++OOOOO+++O&&&&&&&&&&&&&&&",
"&&&&&&&&&+@+@+OO@+OO@#$#+&&&&&&&&&&&&&&",
"&&&&&&&&&&Oo@@@@+OO##+##@+&&&&&&&&&&&&&",
"&&&&&&&&&&OoO@o+oO$%#$OOOO&&&&&&&&&&&&&",
"&&&&&&&&&&&ooooOo@$$###++&&&&&&&&&&&&&&",
"&&&&&@#@@@@@oOoO@#@#++oooo@O#+@@+@&&&&&",
"&&&&X@#OXXXXoX+O+++@OooXoOo+@##@@@o&&&&",
"&&&@++O#oo+XO+O+@@#XoXo.XooXoO++++OX&&&",
"&&&+ooooXXoO+OoXooooooOoooXXXXXXXoo@o&&",
"&&+@XXXXXX.XoXoXoOoXXXXoo  ..X.   .@#&&",
"&o#+ . ..oXXX.X..  .X..XXXX.X..XXXX++O&",
"&+@++@#Oo+ooo+OoooooO+OOO+OO++@@@+@++@&",
"oooooXXooOoXXXoooooXXOOOoooooooooooooX.",
"XXX..X XXXoXXXoXXoooo.o X..XXXXXXXX..X ",
".. .XXX...XoXX.XXXXX.Xo..X.X.XXX.. .XXX",
"X...X.. XXXooX.XX..X.XX.XX.XXX..X...X..",
".... ..XXXXoOXXoX   XXooXXXXX X..... ..",
"XXX...oX.XXoXXXX.XX..XXXXX.XooXXXXX...o",
"oXX.X..XXXooXXX... .XXo...XXXX.XoXX.X.."
};
