/* XPM */
static char *_0_0[] = {
/* columns rows colors chars-per-pixel */
"47 90 12 1 ",
"  c #23170B",
". c #2F1F0F",
"X c #3B2713",
"o c #4B2F17",
"O c #57371B",
"+ c #633F1F",
"@ c #734323",
"# c #7F4B27",
"$ c #8B532B",
"% c #9B5B2F",
"& c #8F5733",
"* c None",
/* pixels */
"*************oXXX******************************",
"***********XXXXXXOO+***************************",
"**********XXXOO@+ooX@**************************",
"**********XO+@$&$@OXX+*************************",
"**********OO@$$$@@OOXO*************************",
"**********XXXooXXXOOXX*************************",
"**********XOX@oXXOOOXO*************************",
"**********X++@O@@@+XOo*************************",
"**********X+ooO@@+oX+X*************************",
"***********o.XXX++o+X**************************",
"***********.OXXXXXXo***************************",
"***********XOoo+XXXO***************************",
"************XOXXXX+OO**************************",
"*********XXXXXX+OOoO@XOO***********************",
"******XXOoOXoXo++oo@@+@@@Ooo*******************",
"*****XoO@OOOXo+@+@+@@+@@@@+++o*****************",
"***XoO#OX@OOOX@@@@O@@@O@@@@+++Oo***************",
"**XoXXO#XOO+Oo@@@@@O@@+@@@++@@+OX**************",
"**XoXXoO@oooXX@@@@@@o+@@@+@@@++X***************",
"***oOXX+o+oooo+@@@@@@o@@+@@@++XX***************",
"****ooXoO+OOoooo@@@@@Oo+@@+@OXO+***************",
"***XXXooOo+XOO@@@@+++@@+@+@OXXo@+**************",
"***oXXXOOoOoXO+@@@@+@@@@o@@oo+Oo+**************",
"***OOoXXoOOOOX@@+@@@@@+@+@OX+O+o+@*************",
"***oO@oXXo+OoXoX@@@o@@@++OXXXoo+OoO************",
"***OOo@@++o+oX+@++XO++@@OoXX++oooXoo***********",
"***o+O@$$&@%%$O+XoO@+OOOOX*XoOO+ooOo***********",
"**XXXX@$&+&$%$+oXO@o@++XOX**XOXXXO+o***********",
"**XX@+@$@@o@$$OO@+OO+O+oO****XoOoOXO***********",
"**OXo+@@&&&@@$+@+OOOO+o+o***XXXXOoO@o**********",
"**XXO@@&$&&&&@O+oOOO@O+oO*XXXXXXX@++o**********",
"**++Xo@&&&&&&$XXOXo+oXo+*..ooXXo+O+@o**********",
"**+oOoo@&&$&&@OOO+@O+oXo*.XX.XXOo+oX***********",
"**OOX@+@@&&&$$XO@+OoOXX.oXO.XXXXoX*************",
"**OXoOXo++@$$$OXoOXOXXXXXX@XX.XX***************",
"***+++Xo.XXoOooOo++XXXOOXooOXXXX***************",
"***+OOOoOOoooooooOOO.oo+OOXXo...***************",
"**XX.OXooo+oooO@@$$OXO@O@+O********************",
"*X.OXXooXOO+oX@&&&$+OXXO@+O********************",
"X.XXX.XXXXo+OX@&&&$&&$+XXO@********************",
"*.OXX.XX@+O+OO@&&&&&&&&$&#@********************",
"*....XoXo++@OO@&&&&&$&&$&$@********************",
"**...XXXO@oo+o@&&&&&&&&$&&$@*******************",
"**. .X+XXooo@o@$&&&&&&&&&&$@*******************",
"**. X++oOoOOoo@@$$$$$$$$$$@@*******************",
"**X .+&$@$$@@@XX+oOoOOOoO++X*******************",
"***..+&&@&&&&@ooO+OXOOXOOOOX*******************",
"***..+&&$&&$&@o@OooOo+++OOOO*******************",
"*****+&&$&&&&@O+o+Xo+oXo+OOO*******************",
"*****+&&$&&&&@XOOXOoOXXXXOOO*******************",
"*****@&$$&&&$@@ooOO+OO+XXoOOO******************",
"*****#&&+&&&$@oOo@+OXO@oOoOOO******************",
"*****$&&@&&&$@OOOOX+OXOXOoOOO******************",
"*****@$+&&&&$@OXoOOOoOOXOXoXX******************",
"*****+O.@$$$$@OXooOOXXoOooXXX******************",
"*********O+++++..*...XXXXoXOO******************",
"*********........***X....XX********************",
"*********.XXOOoXX***.oXoooXo*******************",
"*********XXXooooo***oXXooXXO*******************",
"*********OXXOOXX*****oXXo++oX******************",
"*********XXOX.XO******.XXX..o******************",
"*********XXOO++o******X..o+@oX*****************",
"*********XXooooXX*****XXoXXXXX*****************",
"**********X.....X*******XXXX.XX****************",
"**********@+@oooX*******oXXXooX****************",
"**********oO$+ooo*******Xoo@+oo****************",
"**********oO@@OOX********XoO$+oX***************",
"***********O$@Ooo********oXO@@oX***************",
"***********o@oooo********XooO@oX***************",
"***********oO$Oo**********XoO$+X***************",
"***********oX&Oo**********Xoo@@o***************",
"***********XX&oo***********XoO$OX**************",
"************X$@O***********XoO$O.**************",
"************o$$Oo***********oo@oX**************",
"************o@&OX***********ooo@+**************",
"****Xo++XoOOXOOooOXoOO+@@@@@XoO$O@@@OO++++O****",
"***Oo++Oooo+X..XXOOoo+oo@@@@@oOoXX++@+OOO@+X***",
"***ooX+XoX@XXXo.XXOOO...oooo@XoX++o@@+OOO@@+***",
"**.Oo.oXXOX@$XXXXXX ..XXOXXX X.XXo+o@++@O+@O+**",
"**.X..XXXO$@@oXXXXXOoXXXXXoXXXXoo+&&$@@@+oO+O**",
"**.X.XXOooOooX.XXo+@@@oOOX   X..XXo@o@o@+ooOO**",
"*X.XXXX XXXXXXO@+o+@@@+OO@O@OXXX...o@$@oOXXoX.*",
"*XoOoXXXoX+oooo..o++o+OOOO++XoOoXXXXXXOXXX.  .*",
"ooO+++OoooOOO+++OX.XOoOoXOXOoO+++OOooOOOoXXO..X",
"..XXXXXXXXXXXXX.......X.XXX..XXXXXXXXXXXXX.....",
"...XX..XXXXXXXXX........X.....XX..XXXXXXXXX....",
"XX. X...XXXXXXXXX......XX..XX. X...XXXXXXXXX...",
"XOX.XX.X.XXXXXXXXX....X.XXXXOX.XX.X.XXXXXXXXX..",
"XXXXX.XX..XXXXXXXXX.X...XXXXXXXX.XX..XXXXXXXXX.",
"XXXXXXX.X.XXXXXXXXXX...XXXXXXXXXXX.X.XXXXXXXXXX"
};
