/* XPM */
static char *_1_0[] = {
/* columns rows colors chars-per-pixel */
"47 90 20 1 ",
"  c #232323",
". c #282828",
"X c #282F28",
"o c #2B2E2D",
"O c #2C3031",
"+ c #2F3B3C",
"@ c #2F3F3F",
"# c #323737",
"$ c #35353B",
"% c #323E49",
"& c #2D4848",
"* c #344557",
"= c #285353",
"- c #275B5B",
"; c #2E6767",
": c #367070",
"> c #3E7C7C",
", c #468787",
"< c #579A9A",
"1 c None",
/* pixels */
"1111111111111&+++111111111111111111111111111111",
"11111111111+@@@++%%=111111111111111111111111111",
"1111111111@@@+%-=&&+=11111111111111111111111111",
"1111111111@*&>,<,:*@+=1111111111111111111111111",
"1111111111**:,,,>:*%+*1111111111111111111111111",
"1111111111@+@&&@@@**@@1111111111111111111111111",
"1111111111@+@>&++***@*1111111111111111111111111",
"1111111111+==>*:>:;@%&1111111111111111111111111",
"1111111111+=@&*->;&@=+1111111111111111111111111",
"11111111111@O@++&=+=+11111111111111111111111111",
"11111111111O*@@@+@@&111111111111111111111111111",
"11111111111+*&&;@@@%111111111111111111111111111",
"111111111111@*@@@+=%*11111111111111111111111111",
"111111111++@+++=%%@%:@%*11111111111111111111111",
"111111++*&=+&@&;;&@->;>:-+@&1111111111111111111",
"11111@&*:=*=@&=&&>;::=>:>:;&&&11111111111111111",
"111+&*;*@:***@:;>>*;>:%:>>:;;=*&111111111111111",
"11+&+@*;@&*;*&>>>:>*-:;>::;;::=%@11111111111111",
"11+&+@&*:&&&@+:>>>>>@=>:>;:>:;=@111111111111111",
"111&*@@;&-&&&&;>>>::>&>>;:>:;=@@111111111111111",
"1111&&@&*;**&&&&;:>>>=&;>>;>*@*;111111111111111",
"111@@@&&*&;@**:>>>;==:>;>;>*@@&:;11111111111111",
"111&@@+=*&*&@*;>>>>;>>>:&>:&&;*&;11111111111111",
"111**&++&****@:>;>>>>>;:;:*@;*;&;:1111111111111",
"111&%;&+@&-%&@&@;;;&;;;--%@@@&&-%&%111111111111",
"111%%&;;&&@&@+-;--@%--;;%&+@--&&&+&&11111111111",
"111&-%;::>;,,:%-@&%;-%%%%@1+&%%-&&%&11111111111",
"11@@@@;:>->:,:-&@%;&;--@%@11+%@++%-&11111111111",
"11@@;-;:;;&;::%%;-%%-%-&%1111+&%&%+%11111111111",
"11%@&-;;>>>;;:-;-%%%%-&-&111+@@@%&%;&1111111111",
"11+@%;;>:>>>>;%-&%%%;%-&%1+++@@@@;--&1111111111",
"11--@&;>>>>>>:@@&+&-&@&-1##&&++&-%-;&1111111111",
"11-&%&&;>>:>>;%%%-;%-&@&1#+@#++%&-&@11111111111",
"11%%@;-;;>>>::@%;-%&%@@#&+%O+@@@&@1111111111111",
"11%@&%@&--;:::%@&%@%++@++@;@@#@@111111111111111",
"111---+&#@@&%&&%&--@@@%%@&&%+@@@111111111111111",
"111-%%&&%%&&&&&&&%%&+&&-%%@+&###111111111111111",
"11@@+%@&&&-&&&%;;::&@&;%;-%11111111111111111111",
"1+O%@@&&@%%-&@;>>>:-%@@&;-&11111111111111111111",
"@+@@+O@@@@&-%@;>>>:>>:-+@%;11111111111111111111",
"1O%+@O@@;-%-%%;>>>>>>>>:>;;11111111111111111111",
"1O++O+&@&--;%%;>>>>>:>>:>:;11111111111111111111",
"11+++++@%;&&-&;>>>>>>>>:>>:;1111111111111111111",
"11+oO@-@@&&&;&;:>>>>>>>>>>:;1111111111111111111",
"11+o+--&%&%%&&;;::::::::::;;1111111111111111111",
"11+oO->:;::;;;@@-&&&%%%&%--@1111111111111111111",
"111++->>;>>>>;&&%-%@%%@%%%%+1111111111111111111",
"111++->>:>>:>;&;%&&%&---%%%%1111111111111111111",
"11111->>:>>>>;%-&-@&-&@&-%%%1111111111111111111",
"11111->>:>>>>;@%%@%&%@@@@%%%1111111111111111111",
"11111;>::>>>:;;&&%%-%%-@@&%%%111111111111111111",
"11111;>>->>>:;&%&;-%@%;&%&%%%111111111111111111",
"11111:>>;>>>:;%%%%@-%@%@%&%%%111111111111111111",
"11111;:->>>>:;%@&%%%&%%@%@&@@111111111111111111",
"11111-&+;::::;%@&&%%@@&%&&@@@111111111111111111",
"111111111%-----##1###@@@@&@%%111111111111111111",
"111111111########111@#OOO@@11111111111111111111",
"111111111#@+%%&+@111#&@&&&@&1111111111111111111",
"111111111@@@&&&&&111&@@&&@@%1111111111111111111",
"111111111%+@%%@@11111&@@&--&@111111111111111111",
"111111111@@*+O@*111111O@@@$$&111111111111111111",
"111111111+@**--&111111@OO&--&@11111111111111111",
"111111111@+&&&&@@11111@@&@@@@+11111111111111111",
"1111111111@OOOOO@1111111@@@+$@@1111111111111111",
"1111111111;-;&&&@1111111&@@@&&@1111111111111111",
"1111111111&%:-&&&1111111@&&;-&&1111111111111111",
"1111111111&%;;%&@11111111@&%:-&@111111111111111",
"11111111111%:;&&&11111111&@%;;&@111111111111111",
"11111111111&;&&&&11111111@&&%;&@111111111111111",
"11111111111&&:%&1111111111@&%:-@111111111111111",
"11111111111&+>%&1111111111@&&;;&111111111111111",
"11111111111++>&&11111111111@&%:%@11111111111111",
"111111111111@:;%11111111111@&%:%+11111111111111",
"111111111111&::%&11111111111&&;&+11111111111111",
"111111111111&;>%@11111111111&&&;-11111111111111",
"1111@&--@&%%+%%&&%@&%%-;;;;;@&%:%;;;%%----%1111",
"111*&;-%&&&-@##@@%%&&-&&;;;;;&%&@@--;-%%%;-@111",
"111&&@-@&@;@@@&#@@%%%OOO&&&&;@&@--&;;-%%%;;-111",
"11#*&.&@@%@-;@@@@@@oOO@@%@@@o@#@@&-&;--;%-;%-11",
"11O@.#@@@%;--&@@@+@%&@@@@@&@@@@&&->>;-;;-&%-%11",
"11O@O@@%&&%&&@OO++%%%%%%%@ooo@OO@@&-&;&;-&&%%11",
"1@#@@@@o@@@@@O++=&=---=%%;%;%@@@OOO&;;;&%@@&@O1",
"1@&*&@@@&@-$&&&++&==&=%%%%--@&%&@@@@@@%@@@OooO1",
"&&*---%&&&%%%--=%@#@%&%&@%@%&%---%&&&%%%&@@%O#@",
"oo@@@@@@@@@@@@@OOOOOOO@O@@@OO@@@@@@@@@@@@@OOOOO",
"ooo@@oO@@@@@@@@@OOOOOOOO@OOOOO@@OO@@@@@@@@@OOOO",
"@@o @oOO@@@@@@@@@OOOOOO@@OO@@OX@OOO@@@@@@@@@OOO",
"@*@o@@O@O@@@@@@@@@OOOO@O@@@@%@O@@O@O@@@@@@@@@OO",
"@@@@@o+@oo+@+@+@@+@o+ooo@+@@@@@@o+@oo+@+@+@@+@o",
"@@@@@@+o@o+++@@@@@@@ooo++@@@@@@@@+o@o+++@@@@@@@"
};
