/* XPM */
static char *__0[] = {
/* columns rows colors chars-per-pixel */
"78 90 28 1 ",
"  c #282F28",
". c #2C2C2C",
"X c #2E2C2E",
"o c #303032",
"O c gray20",
"+ c #323737",
"@ c #35353B",
"# c #3A3A3A",
"$ c #3D3D43",
"% c #434343",
"& c #4E4E4E",
"* c #444450",
"= c #4B4B55",
"- c gray34",
"; c #555560",
": c #5E5E6D",
"> c gray39",
", c gray43",
"< c #676774",
"1 c #777777",
"2 c #72727F",
"3 c #7A7A89",
"4 c #848484",
"5 c #878795",
"6 c #939393",
"7 c #91919F",
"8 c #A2A2A2",
"9 c None",
/* pixels */
"99999999999999999999999999999999999--99999999999999999999999999999999999999999",
"99999999999999999999999999999999-9->4->999999999999999999999999999999999999999",
"9999999999999999999999999999999-4,>144449-999999999999999999999999999999999999",
"99999999999999999999999999999&-14,4161,66>999999999999999999999999999999999999",
"99999999999999999999999999999&>,4,,,41164>999999999999999999999999999999999999",
"99999999999999999999999999999&--&>44444-1>999999999999999999999999999999999999",
"99999999999999999999999999999&&-%-1661>&>-999999999999999999999999999999999999",
"999999999999999999999999999914->>%#-1%#->-999999999999999999999999999999999999",
"9999999999999999999999999999461,6,->4,->>>>99999999999999999999999999999999999",
"999999999999999999999999999>644,664,6164,1-99999999999999999999999999999999999",
"999999999999999999999999999-416>,,--->4,16499999999999999999999999999999999999",
"999999999999999999999999999114,-1,64141441199999999999999999999999999999999999",
"999999999999999999999999999-41-664144,,464699999999999999999999999999999999999",
"99999999999999999999999999-11,>1,11>-,1,46>-9999999999999999999999999999999999",
"99999999999999999999999-,141>164444>1,4,11>11999999999999999999999999999999999",
"9999999999999999999999,,>>141>,4411,4664,>-44-99999999999999999999999999999999",
"99999999999999999999916>>,4411-41>>46644,-6664-9999999999999999999999999999999",
"9999999999999999999-,4>>4441>61>>1416111>166461-999999999999>46419999999999999",
"999999999999999999-461,4411>,441->,1,,>11144666>>9999999999991664>999999999999",
"99999999999999999-6,>>,461,,4>-,4-&,,1461>6666611>99999999999>>144999999999999",
"9999999999999999941>>,664>411644,>,>64441166666141:-99999999991116>99999999999",
"99999999999999991,>>,6641-,146664,6,1->44166666414444199999999>186199999999999",
"999999999999999-4,>,6644>>>>,11444>->46>-6666664,444661-99,11>&-,,,O9999999999",
"99999999999999>64>,6644,-,1>,,>>,4>>111,>11444,,,44664>-9-46>-1++%-%9999999999",
"99999999999999,6,>46611>-,,,1111411>166448864444,44646>41161--1%&&%99999999999",
"9999999999999-64>4664>,->1>,1114>111466146664666,66664>44161&>>%&-999999999999",
"9999999999999461>664>1>&,,111,11,611,66411111,44,66664>64461&>>%>%999999999999",
"999999999999>64>4664,4>&,111>--,141114444411->>,,44661>41461&>1%>%999999999999",
"999999999999164>466144>$>,,--,441,,41444144,-461>>444>>41461->,%>=999999999999",
"99999999999-461,,1441,,@$$>-46466>>444,444,>>466141,1>>61364,&>&&=999999999999",
"999999999991461,111181>>&>=141>,14,44,46461->11447,44-1631444-,&%&999999999999",
"9999999999946614448861-&,$&466444>>46146641&->166>641>1644644>>&&-999999999999",
"9999999999-486,4688641--&%&486611-,,414666>--1461661,,4843664>----999999999999",
"99999999991864,6886641--%-,164,4>-,,641864->141>6664>,4642664,>&&-999999999999",
"999999999946611864661>-,%,4666861-4>664161-,4,>6464,-,4641444>,&&-999999999999",
"999999999>468,4646641>>,%,464,-,,>44666164>,-66646,,>16661,144>--%999999999999",
"999999999,666>4466441->,%->,-&>1,4464464411>464461>->,4663>44,1--&999999999999",
"9999999991464>646444,-&,$$>&&->>144664>11&-,644461>->1141,14141-%&999999999999",
"99999999-46111664646,-&,@&,>>,1-->11,>--1&-16466641>>,614664444-&-999999999999",
"99999999-44411464166,>&>@4,,6141----66,44-1164664,>>,114664,>>1&+-999999999999",
"99999999>,41,46668644>&>%>1>,164%$46>>,>-&>166661,,>,>416664444-&-999999999999",
"99999999-461,46886644>&-%->>%>>&>>>>%$##-&>64464,,,,-,4,4614444,--999999999999",
"99999999,461>46664644>&&%%->*4,>--,->416,1&1>>64666,,,446444464,&-999999999999",
"99999999,44,>,,464144,-&**4,=,=-641>>44,41&,6,>4666>411444446411-&999999999999",
"99999999->->>46666666,-&$&4-=>1*644>,14444,&6614664,,64,>1111191&-999999999999",
"99999999164>,611641464,&$->,-6,$464-464>464,>64641111>,11666469-&&999999999999",
"99999999>>-->444444441,&$>44=4%>664141114441,>,466661,,11644669---999999999999",
"99999999-->,11,144444,1-%,6>=41-666441466664>4,-446611111,,,,191-&999999999999",
"99999999-1>,>,,,>>--41--%,11-4,=6664,4444444466411-----&&->>-991%-999999999999",
"9999999999>-141,441111>-%,44*14>666644444444461166,&&->>>>1,-991%-999999999999",
"9999999999441,1>114,1,>-%>4%&64>6666444466441116641->>,1,>11999%&-999999999999",
"99999999991,1111,>1,>--*->44*64&4446666666644,46464,-,11>>41999#&-999999999999",
"999999999911111,,,---*%&>,81>1&>4466666646441464,66,>111>>1,999&>-999999999999",
"99999999991111,>>,111&$-,,6>>64-46644666644466466664111,-,,,999,>>999999999999",
"999999999911,>>,1,111&$>1,,,&41>46441464446416664664111,-141999,--999999999999",
"9999999999,,>>11>1,11-*,1>16>14>46664444666441446666111>>4419991>&999999999999",
"9999999999-->>11164,1-&>,>44&61>1644444666446666,66611,-,44>999,-&999999999999",
"99999999999>11116641>-->1>6-,41,-114466641,44666666611,-,4,-999,&-999999999999",
"999999999999>1,14441,--11>>,114>->,444661,66444446664,--,11>999,%-999999999999",
"999999999999->,>644,1->11>46164>&>>,4441,144444444444>-111199991--999999999999",
"999999999999---1464,1--,1>4,161>&>,>11,,1146466644444,,,,119999%--999999999999",
"999999999999-----1411--11>16444>%>->>,1444666664>,14411,,1-9999>--999999999999",
"999999999999>11>>>,1>->4,>46641>&,,>>->114441,1>>44461,111>99991--999999999999",
"999999999999>46441--1>>4>>4,4>>-*11111,>>>,>,,14646661,111>99991--999999999999",
"999999999999>14646,-->>4>>,46-*>--,,64441111,441666664,11199999,--999999999999",
"999999999999>,444611--,6>,46,11,,->1146666444666666664,11>999991%&999999999999",
"999999999999,1646411>,164>4-641,,>-,114666666667466644111999999,--999999999999",
"999999999999,4646,,441144->,4411>>>>,114666466664444141,-9999991--999999999999",
"999999999999146664,1,116,>4>64,,-1>>>>1114466644411446,,9999999=&>999999999999",
"999999999999>46644,,,1141=*->1,114,1>->>,11111111116161-9999999=>-999999999999",
"999999999999,664,>1>>-,4>>341,,,46611>>->>,,,>->146646-99999999&--999999999999",
"999999999999,6141,1>>,>461441><6664411,,,>>->,14864444-99999999&--999999999999",
"999999999999,16,,1>>,1,4645611166644,11111144446666644-99999999--&999999999999",
"999999999999,6,>1>->1,>66447411146441461,6866664666411-99999999:--999999999999",
"999999999999,4>1>->>1->664464,>11666,166466444446664,11999999993&&999999999999",
"999999999999,>1,->1,>%-4464441,111464,4,4446644666444664-9999993-%999999999999",
"999999999999,,1-,11>&%-4464111,,111111>644666444411444>449999993-%999999999999",
"999999999999>1,>,,-&%*-66841111,1,11464->64441,,466664,66-99999:%&999999999999",
"999999-&-&-&1>>>>&&%**-466411111111-#%,44,,1,>4441>&X#%%-4-,%%-3%-o&%&-&999999",
"99999>-&4,-&&->&&***%*&,666111411&#-&%O,,144461%+&>14441>%%--&%,%-&-->==<99999",
"9999@>-%==;&%$#o##ooo#@$--11,,,-#>14>1>o,11>-$#++&-144<31>-%#o#--X=&->-#>@9999",
"999@-&X&&;%@@X@X        X XXX##@%&%>1%,>#$@$$@&=XXXX&##%%&%%%    XXX=%&:&2@999",
"99o>%->->--&%$@    XXX$@$$=&XX%,&$%###@@%$>&-=-*-&=---%=&&=&@@%&$$o&%&-===-&99",
"9%&-->&&4,-&&-&@@  @ @XXX$%%%$@-%%&%%=$$=&%$$%@%%%%%=-=%-&---&%-%%&-->&&<=-&&9",
"X@X@@$$X@@@$%$#o##ooo#@$@#X@@o#####$%%$#@@@$%$#o##@. XX.X$@##o#####$%%$#@@@$%$",
"XX@@@XX@@$@$$@$@XXXXXXXX@XXXXXXXXX@@@XX@@$@$$@$@XXXXXXXX@XXXXXXXXX@@@XX@@$@$$@",
"@XXX@X$X@$$$$@$$$@XXXXXX@@XX@@@X@XXX@X$X@$$$$@$$$@XXXXXX@@XX@@@X@XXX@X$X@$$$$@",
"$$@X@@XX$@@@@$@$@XXXXXX@X$$X@@$$$$@X@@XX$@@@@$@$@XXXXXX@X$$X@@$$$$@X@@XX$@@@@$",
"$$=$$@@$X@@@$@$$$@@XXXXX$@$$@@$$$$=$$@@$X@@@$@$$$@@XXXXX$@$$@@$$$$=$$@@$X@@@$@",
"$$$$@$XX@@@@$@@$$$$$XXXX$@$$$$$$$$$$@$XX@@@@$@@$$$$$XXXX$@$$$$$$$$$$@$XX@@@@$@"
};
