/* XPM */
static char *__0[] = {
/* columns rows colors chars-per-pixel */
"55 91 29 1 ",
"  c #232323",
". c #2E2C2E",
"X c #322D22",
"o c #3D3626",
"O c #363228",
"+ c #382D34",
"@ c #3F2F38",
"# c #2C3031",
"$ c #2F3B3C",
"% c #35353B",
"& c #423629",
"* c #453F2A",
"= c #4F3F2B",
"- c #43333F",
"; c #5B4326",
": c #53472C",
"> c #674027",
", c #604C33",
"< c #6D5536",
"1 c #7B5C3C",
"2 c #4B3447",
"3 c #563A4D",
"4 c #434343",
"5 c #8C5637",
"6 c #866741",
"7 c #976E45",
"8 c #A0764A",
"9 c #AD7F4E",
"0 c None",
/* pixels */
"00000000000000000000002030-0-0-000000000000000000000000",
"000000000000000000000oo@<,:,o,o000000000000000000000000",
"000000000000000000000ooo*o*o,:,#00000000000000000000000",
"000000000000000000000o:,o,,,:*,#00000000000000000000000",
"000000000000000000000,:==:,:,:=#00000000000000000000000",
"00000000000000000000,,=<68876<o:00000000000000000000000",
"0000000000000000000-<,=,=166,<:,10000000000000000000000",
"0000000000000000000#6:X&&:<,=::,6:000000000000000000000",
"0000000000000000000#,=X,6,,677<o,*000000000000000000000",
"00000000000000000000.:X<6<1677,Xo#000000000000000000000",
"000000000000000000000&X<617761:X:0000000000000000000000",
"000000000000000000000@:,77176<*o00000000000000000000000",
"00000000000000000000+,<:<6766<*@00000000000000000000000",
"0000000000000000000$;:,*:<16,*::00000000000000000000000",
"0000000000000000000*::<:*:,<,::<@0000000000000000000000",
"0000000000000000000,71<<,,,66,:,,@000000000000000000000",
"0000000000000000000<1,16<1,<1<<<,6$00000000000000000000",
"00000000000000000#:*1<961<6<,861<6,00000000000000000000",
"0000000000000000@::*1<1,676778881<<-0000000000000000000",
"000000000000000#,6<:*,1,1898888886,, 000000000000000000",
"000000000000000,11<<:;<61<86889888,,:000000000000000000",
"00000000000000066,61:::67<<88899996*6-00000000000000000",
"000000000000000,7716<::1<616899999868,00000000000000000",
"00000000000000#11:611<,:,1116998998,*6@0000000000000000",
"00000000000000#6,,,1;1:*,<,6,69688,,:*:0000000000000000",
"000000000000002::,,6;6:<:,<1,o6<6,;*:*,0000000000000000",
"000000000000001:<,,<<6,,:,6<,***;::,<*<@000000000000000",
"000000000000006,,,,661<<*,<,,=o:;o,<,:6@000000000000000",
"00000000000000,16,,<76;,::781:*:*:1,,:6@000000000000000",
"0000000000000@611,1,16,:>,6,6=*=O,:,:<,#000000000000000",
"0000000000000#::11,66,;:>:,1<=*OoOoX,<,@000000000000000",
"0000000000000@1<689,6;7*::=,,:**=,,:;,:@000000000000000",
"0000000000000#::16,,178*;,:,1,:::<<6*<10000000000000000",
"0000000000000#,,11,;787*,,:<=,=,<<,<*<6#000000000000000",
"00000000000000:,<<:;96<:,::1=,,,:,6,*,,#000000000000000",
"0000000000000#:1,,;=1<<,,::<6,=:,:<,:::,000000000000000",
"0000000000000:,,,,=,1<<,:::,<,=:<*,6:*,:000000000000000",
"0000000000000,<,;=:,<11,::=,<,::<*:6,:<*#00000000000000",
"0000000000000,1,,<,:<:<::*=,<,:,1,,7<:,,@00000000000000",
"0000000000000,11,;;,1=<::*=<1<,,:1686:,<@00000000000000",
"000000000000011,<<,111<*,:;<<<;1,<,6,,,1:00000000000000",
"0000000000000,,:,;:16<,,<=*76<=,,:,81:=,o00000000000000",
"000000000000O:,,=,<:16,<,=,<:,=1,,,11:,=X00000000000000",
"000000000000<65;6861:,:6,<,<=<=1::,81:<,o00000000000000",
"00000000000@<9<;1161<,,<<,<<<<=7:<166*,7X00000000000000",
"00000000000<71=<7161<=,,<=111<=6<:,<1*:*X00000000000000",
"00000000000,1,;1<,66:<1,6=,16,=<:,611*::o00000000000000",
"000000000001,:;11676,1,11=,11,46,1111*:,,00000000000000",
"00000000000,1==7,781;,671=666==,66,1,*,:o00000000000000",
"00000000000,:=<,<11,,,66,;866=66,7,1<o,:o00000000000000",
"00000000000,:;,,,,,,677<7;<<7,61,1:,1o:*o00000000000000",
"000000000001<;::,:,111111,;;6;6111,,:o*,#00000000000000",
"00000000000#,=,,,,,66,<1,1,=7=1,11<,,o=1#00000000000000",
"000000000000,::,,:6611<6,7866=717<,<1o,<000000000000000",
"000000000000#:=::,1,<:<:;787,,1<667,1o<,000000000000000",
"000000000000@:,,::1,11,:<16,;,6:61811:1:000000000000000",
"0000000000000@:=:,1<6,6,6666;<,117716:<:000000000000000",
"00000000000000:,:<,1,,,<<77<;1:,1176<,<0000000000000000",
"00000000000000@,:,16:611,66<=::<,676<,00000000000000000",
"000000000000000,,1<,6<1<678<;,,1<1761:00000000000000000",
"000000000000000,:1:<1<,6;::=,,66:1,6<:#0000000000000000",
"000000000000000,,166,,11,<:=,,1,1<<1<:@0000000000000000",
"000000000000000,1,<,:,:61,*,66,,6::<<:@0000000000000000",
"00000000000000011<:<<:,11,*,66,,,:,7<o#0000000000000000",
"00000000000000@6:,:,,,116*,,111,,,,<,,o0000000000000000",
"00000000000000#1::,,:611:*,,::1,:,,<6:X0000000000000000",
"00000000000000o,:<,:611:::,6,1::,,<<,:X0000000000000000",
"00000000000000o,:<1161,:*:1,6,:,,:,,,:o0000000000000000",
"00000000000000:,6,,,,<:**,,<<,,,,:11,:o0000000000000000",
"00000000000000:,:<,*61:*,7,6,:,,,,<,,,o0000000000000000",
"00000000000000:1,<:16,*:,<8<<,<<,,<,,,o0000000000000000",
"0000000000000o:,6<<1:**716,,,,,<<<<:,,o0000000000000000",
"0000000000000o11166,**1:1<:<:1,,<*::,::0000000000000000",
"0000000000000<1<76,*,,:,,:,:<,16::,,,,:o000000000000000",
"000000000000o81,<,*<11<:::*<<11,<,7<<:<:000000000000000",
"00000000000oo161*,1<<::***<,<,,1<,1:<<11:o0000000000000",
"000000000000,**,16,:*:*=;::*:<6,,6:<11,,,*o000000000000",
"0000061<<1<:6<76::***:*:*,:,*6<,:,,,,,*:o***,,<,6<00000",
"0000<11<,::,::***::,,,**o:,,1:<:,:::*:&oooo*&&:<1620000",
"000<<<6<:**&===*,::**oo*::,::,**o&=:::,:::::,,,<<,,<000",
"00:<o=&&&&&=::::::=&=&&o&=ooo&=&&==o===&======&&&o&<,00",
"001,oo&&======&=:=:=:::====::oo&;::::::========&&=&,<00",
"0,16===oo&o&&:===&=&&oo&=&&====&=&=&=&&&=&&====&2&&66,0",
"01776<1<<161<1<,,<<,:,,,,<:::,::,,,:,,,,<<<,,<6116776<0",
"====&====&&&=:====:=::::=:::==o&==:=:::::::;,:::,:,:::=",
"=======&&=o===:===:==::::&:o=&&===:==::::&:o=&&========",
"&===&&o&===&&&=:==&=====&=:&&===&=&=====&=:&&=&=&===&&o",
"==&&=&&&=&&o===::=&==&&=&==&==&===&==&&=&==&==&===&&=&&",
"=o=&&&&&%&&====::==:=ooo==::=======:=ooo==::=====o=&&&&",
"::=====&&&:=&==:====&==&&=====&=:===&==&&=====&=::=====",
"==&=:==&=&&===::===&&&o&==:&&&=====&&&o&==:&&&====&=:=="
};
