/* XPM */
static char *__0[] = {
/* columns rows colors chars-per-pixel */
"46 88 23 1 ",
"  c #23170B",
". c #2F1F0F",
"X c #2B2E2D",
"o c #322D22",
"O c #3D3626",
"+ c #2C3031",
"@ c #35353B",
"# c #412921",
"$ c #423629",
"% c #453F2A",
"& c #4F3F2B",
"* c #5B4326",
"= c #53472C",
"- c #604C33",
"; c #6D5536",
": c #7B5C3C",
"> c #4B3447",
", c #866741",
"< c #976E45",
"1 c #A0764A",
"2 c #AD7F4E",
"3 c #B78C58",
"4 c None",
/* pixels */
"444444444444444444444444=,-=,-4444444444444444",
"44444444444444444444444=-:-:--;444444444444444",
"4444444444444444444444==:---::;-44444444444444",
"444444444444444444444=--=;-::,;-44444444444444",
"44444444444444444444=;:-=-:-::;-44444444444444",
"44444444444444444444=:-:&;=:=,--=4444444444444",
"44444444444444444444&;&-;,:;=::-=4444444444444",
"44444444444444444444%=&=:;;:-=<--=444444444444",
"4444444-4444444444444%==-:,---:=-;444444444444",
"4444444444444444444:4=%%-;::-;==-4444444444444",
"4444444;4-44444444:---;--;-;--4444444444444444",
"444444;--;44-----444-+-4,;,;444::4444444444444",
"4444;&-;;;---444444;--44,,:;;;,<<:444444444444",
"=;-%%&=--;;;444444:;-:;;;,;-;-<11:444444444444",
"444444<-::;4444444,-::,,-:;---<<<;444444444444",
"44444+;-;444444444:;1:;:,,,;-:<<1:444444444444",
"444444;-::44444444-:-,<,:,-=-<,<1;-44444444444",
"4444444:,;4444444;-,,-,-==-;;:,,:--44444444444",
"4444444;:,,44444;:-;,<;=-;;-,:::;=-44444444444",
"4444444+,,<:444:,,;;:,,;;;-<,::;--=44444444444",
"44444444:,,:;4-,,:;,;:,,--,<,,;-<-=44444444444",
"44444444:,::,-:::;:,-;,,1:,1<:-,;-=44444444444",
"444444444:;;:;-,:-;---;,,,,<,--1<;-44444444444",
"4444444444;:::-;;-;;---:::<:--:;;--44444444444",
"44444444444,-:-;;-:;----;,--;;:;:;444444444444",
"4444444444X:;,--<-;-::;-------;1,-444444444444",
"44444444444-=:;-;=:;,--;;-;-;;;;--444444444444",
"44444444444=O%=--=:-;--;:,:;-;;;-4444444444444",
"44444444444=OO=:-=;;--=;<,,<,;,--4444444444444",
"44444444444=%O-<%=;--;-=:,:12;-,-4444444444444",
"44444444444=%O-2%=-::=;--:,:;;=-;4444444444444",
"44444444444=%O-3%=----===;,;:;---4444444444444",
"44444444444=%O;<%-=-:;-;=--;,:::--444444444444",
"44444444444;%O;:%-;,;;-=-=---;,,,;=44444444444",
"44444444444:%%:-=-;-==-;;:=---;;--=44444444444",
"44444444444;=O:=4%-===-:-%=%=---;;O44444444444",
"444444444444=O,44%=:,-=======%OOO4444444444444",
"444444444444=%;44=%%=,--====;====4444444444444",
"444444444444;%-44=;%%%-;--=;;==--4444444444444",
"444444444444-=-44-:====:;:;=--;:;4444444444444",
"4444444444444-444;2=;;=-;,,--:--,4444444444444",
"44444444444444444:<-;;=-:-<--;--,4444444444444",
"44444444444444444;,-::;=--=;--:-:4444444444444",
"44444444444444444:<::;-::-;---;-;4444444444444",
"444444444444444444,;<:,,;;-;;-;-,4444444444444",
"444444444444444444,<,--:;,;--;;;<4444444444444",
"444444444444444444:,<,--;<:::-;<,4444444444444",
"444444444444444444,,,::-:,<;,;;,<4444444444444",
"44444444444444444+::::;-::<;;:;,<4444444444444",
"444444444444444444;,,:--:,,;;;:,,4444444444444",
"444444444444444444;:<:-=:,,:;:,1,4444444444444",
"444444444444444444,::;;-:,::=;,1<4444444444444",
"444444444444444444;,,;:-;,::--;,:4444444444444",
"4444444444444444444::-:-;,,,--,,,4444444444444",
"4444444444444444444:,;:-=,::;=<<:4444444444444",
"4444444444444444444:<;:-=:,,:=:,;4444444444444",
"4444444444444444444:,;:-%---:-;1,4444444444444",
"4444444444444444444:<;:-=---,--;-4444444444444",
"44444444444444444444,,;;=;--:;=;-4444444444444",
"44444444444444444444<,;;=,:;:;=;-4444444444444",
"4444444444444444444412:;;-,,,;=;-4444444444444",
"44444444444444444444<<;;;%:::;=--4444444444444",
"44444444444444444444:,;--%:,,;=;-4444444444444",
"44444444444444444444;;;--%,,;;-=-4444444444444",
"44444444444444444444%:---=;,;----4444444444444",
"444444444444444444444;-=-=-,,%-;;4444444444444",
"444444444444444444444--%;=-:;%;:-4444444444444",
"444444444444444444444-%%;=-<,%:--4444444444444",
"444444444444444444444-$=-=-<<=----444444444444",
"444444444444444444444&=--=-:;&O---444444444444",
"44444444444444444444#:;=--%:,;OO;:&44444444444",
"444444444444444444%;:;::;;%;,,:oO;:$4444444444",
"44444444444444444$::;;;::-:=:,1;&O-,;444444444",
"444444444444444-;,-$;-;,:--$$,,:&$$;3;#4444444",
"44444444444444-::;;-,:,;;;;-$;,,-&$$;;;- 44444",
"444444444444,:;-&;-,,$&----=-;=-=O-&-:-,;44444",
"44444444444=::;-=-:---$;=-&&=-;-=O;--;;:,.4444",
"4444444444;;;,;-;-&===&------;--$$--=;;;-;;444",
"444444444&;O&$$$$$&======&O&&&$$$$$$$$$$OO;*44",
"444444444:-OO$$&&&&&&$&=&=&===&&&&==OO$$&$-;44",
"44444444-:,&&&OO$O$$=&&&$&$$OO$&$$&&&&$>$$,,-4",
"44444444:<<,;:;;:,::<,,:1<,::::,,,::1,,<:<<,;4",
"4444444&&&&$&&&&$$$&=&&&&=&====&===&&O&&&&&$&&",
"4444444&&&&&&&$$&O&&&=&&&=&&====$=O&$$&&&&&&&&",
"4444444$&&&$$O$&&&$$$&=&&$&&&&&$&=$$&$&$&&&$$O",
"4444444&&$$&$$$&$$O&&&==&$&&$$&$&&$&&$&&&$$&$$",
"4444444&O&$$$$$@$$&&&&==&&=&OOO&&==&&&&&O&$$$$",
"4444444==&&&&&$$$=&$&&=&&&&$&&$$&&&&&$&==&&&&&"
};
