/* XPM */
static char *__0[] = {
/* columns rows colors chars-per-pixel */
"55 91 14 1 ",
"  c #363228",
". c #382D34",
"X c #3F2F38",
"o c #43333F",
"O c #4B3447",
"+ c #563A4D",
"@ c #654160",
"# c #6D4566",
"$ c #7F4D6A",
"% c #8F5477",
"& c #9B6282",
"* c #AF6F90",
"= c #BC7F9E",
"- c None",
/* pixels */
"-----------------------OOO-----------------------------",
"---------------------O#=O&$OO--------------------------",
"--------------------OO%O$O+OOO-------------------------",
"--------------------OX%&#%#&O#&------------------------",
"-------------------XX@&$&%@%@O*------------------------",
"-------------------oXO##O#%*@#O------------------------",
"--------------------XXX#+#*%@OO$-----------------------",
"--------------------O$$&$*%@+O@%-----------------------",
"--------------------X$OOO&@O#$@------------------------",
"---------------------@+OO%&&O%#&-----------------------",
"---------------------o$+&%%%O%&*-----------------------",
"---------------------o@%%&#+&&%------------------------",
"---------------------@++OO#&&O$------------------------",
"----------------------@%*&&&@%#------------------------",
"---------------------o#@&&@&@$#@#@O--------------------",
"------------------OOO$$$#$&%@O@$OOOO-------------------",
"-----------------OO#&&%#&%%##@@+O&OO&O-----------------",
"----------------OOO#&&$#####O#+XOOO+@#O----------------",
"---------------o#%#%&&#%%&$@O@OO@O@@@$%O---------------",
"---------------O&*%@O$&#$&&#OOO$#$%@@@%$O--------------",
"--------------o&*=%@+#%####O@$#&#$#X@##$#O-------------",
"--------------O$&*&#@+@##@@OO%##@+OO#@#%#$-------------",
"-------------@%@@&%#@O+OOOO@#O@#+O@#$##$%%%------------",
"-------------&%+#&$O%#OOOOO##%%@OO@O@##&%@+O-----------",
"-------------@&O@%@###+@#%%$$$@OXX@%@@&&%$OOO----------",
"------------@*#OO@@#@O%O#&%##@+OOOO#O@&%%%@O@----------",
"------------@&OOOXO#O@##OO##$OOO#@O#O$&%##O++O---------",
"-----------o*%@+O&@@O@$OO@#%#OO#%#OO%%*%$O@@OO---------",
"-----------o&O@@O#@#OO@O@#%#O@#&%@O@&#$#$+@@OOO--------",
"-----------&*#%@O@@OO&&$$OOO%@%$OO#&&&@$@@O+O@#--------",
"----------o&%$$Oo@@+@@%$@O&&%@#@#%**&##X#$OO+##O-------",
"----------@%@@$+oOOOOO$OOOO@#OO@%***$##O@#OO@#$&-------",
"----------##O$#OoOoOO@OOOOO+O+O#&**@@@ O#OO@$&%&-------",
"----------O$O#@OOooooOOOO&#O@@O#*&&%#OX@&O#@#$&&-------",
"---------O#&O$$OoOOooo++O$####O&%%#$@@@#%$&@%**#-------",
"--------o#&@X%*OoOOOOO+@OOO+@#@#%###O+#%*&&#%*$--------",
"-------o@#%#O#$OOOOOO#O@O@OOOOOO#@@%@#%&&%#O&&%--------",
"-------O%%&&*$OOO@O@@@O#O#OO++OOO%&%@O@%&#@#&&@--------",
"-------O#&&*$@OOOOOXO@#%O%#O&+++OO$%O@#&%$$&*@---------",
"-------O#%&%OOXOX@OO#@#&O&#O$O@@OOO$%&%$@%&$@O---------",
"-------O&##O##XOO#OO%##&O&#O#O%#++OOO%&#&%$O@----------",
"-------O#@OO$&OX@@@O#@#%O%%O###&O#@+OOOOO@O------------",
"-------oOOO+##OO#O@@@@#&#%%O%#$*%O$#OOO----------------",
"--------O@O@#+OOOOO@#O@%#&%O&&#&#X$#OOO----------------",
"--------o@O##+O#OOO$#@@#@%#O*%$*$$$#@@@----------------",
"---------OOO#@O@O#O@%@@%*&&%&*##%%$$###----------------",
"-------------@OO@@@%&$#$&*&#&%$%*&%&##%O---------------",
"-------------oO##%#&&#@$&&&@#$%#&%#O%O@@---------------",
"-------------o#&$$#&*#$#%$$@@$%#%$O##OO@---------------",
"-------------o#%#@$*=O###%#O@$#O##@@$#%@---------------",
"-------------o#&*%%*&O%%&#&O#%&#@#O$#@#OO--------------",
"-------------o@&*%#&&O$$#%$O#%*&@%$OO@##@--------------",
"-------------o@&*%@&%O$###@O%&*@@@@X@#O#@--------------",
"-------------O@&*##%$O&$$%O#$%@OOOO@#@O#@--------------",
"-------------O$$##@@#O%##@@O@O#@O+OO@#O$OO-------------",
"-------------@&%*#O@&O#@##@$O%#+O+#O%$O&#O-------------",
"-------------#&&%OO##O%&%&&@@##OXO@O#$###@-------------",
"-------------%*$#XO##O&&%$%@@O@++#&#O%$@$@-------------",
"-------------%#@OO###O#@@OOO@@@@@#$O@%%##O-------------",
"-------------OO#@O#$#O@%@#%#@%##@@@O@#@O%#O------------",
"-------------@#O%O%@@O@%&&&OO@###$&#@OOO$#O------------",
"------------o@@%*O$#OO&*&&#O@@##$#%#OO+@#&@------------",
"------------oO&&$O&&@O&&&$##@%&&#@##OO#@%&@------------",
"------------o#&%#O##@O&##%$##%&&#O##O##@$@OO-----------",
"------------o@$&@OO#@O##&%$@@*%@@@&%OO%*O#OO-----------",
"------------o$%OOO@@@O@&&%*$#OO@@@%%##**O&%@-----------",
"------------o$OOXO@$OO&&**=#%%#%&$%$%##$O$$@-----------",
"------------o#OOOO#$@O*&&*#@O%#@&O%&&O&$O@#O-----------",
"------------o%OOOO#%#O&&&&&&O#$#&O#%#O%##%%@O----------",
"------------o%#OOX@@OO&&&$%*O&*&$O#%@O#&$XO@O----------",
"------------oOO@OO##@O#&&&&&O&&%$O%#@O#%#O#%$----------",
"------------o@#OOX#%@O##%*$%#@**@#@#$@@&&O#@#----------",
"------------o###XOO#OO%#&&$&%%&#$%@%$$#&*O$#&O---------",
"-----------o@%#OOO###O$&&$**%$#%&$%%$&O*&#%%$O---------",
"----------o#OOOOOO#%%O&$&*&%#@$&*%$&#&O*$##&$O---------",
"--------o@&%%#OO@#%&#O%$&&&#@O%&&#OO%$O$$@%&#@---------",
"-------OO%OOOO#&@$%%$O$@%$$$@O%*&#O##@O#%*O$$*---------",
"-----OOOOOOOOOOO#%&%%O@O#%%@@O#&$#O@$$O@#&$@#++$#%-----",
"----#@#oOOOXOo@@#o#%#O&%&#%@#O%%*#O@##@+@@++++#$$$$----",
"---$#%$#++@@++#++#$+O+++++oOOo$@++O+oo++$####@####%$---",
"--$$oooO+++@++O.OOOoOOooOOoooOOOOOoooOOOOOooo....Oo$$--",
"--$$OOOOOOoO+O+O+@+OOOO++..ooOO++..ooOO++..ooOo...o$&--",
"-%%#.o.oo+OOOoOoo..oOooOOOOoOooOOOOoOooOOOOoOooOOOO##$-",
"-#$##$%$$@@@+++OooooO++OO#OOOOOOO@+@@@+++@++++$&%#$##$-",
"oOOOOoooO+OOOO+O@+++O+++OO.OO+++OO.OO+++OO.OOOOOoOOOOoo",
"OOOooO.OOO+OOO+OO++++o+.OooOOo+.OooOOo+.OooOOOOOOOOooO.",
"oo.oOOOoooO+OOoOOOOOoO+ooOoOoO+ooOoOoO+ooOoOoOOOoo.oOOO",
"OoooOoo.OOO++OoOOooOoOOoOOoOOOOoOOoOOOOoOOoOOOooOoooOoo",
"OXOooooo.ooOOOO++OO+OXXXOO++OOOOOOO+OXXXOO++OOOOOXOoooo",
"++OOOOOooo+OoOO+OOOOoOOooOOOOOoO+OOOoOOooOOOOOoO++OOOOO",
"OOoO+OOoOooOOO++OOOoooXoOO+oooOOOOOoooXoOO+oooOOOOoO+OO"
};
