/* XPM */
static char *__0[] = {
/* columns rows colors chars-per-pixel */
"54 88 13 1 ",
"  c gray12",
". c #2F1F0F",
"X c #3B2713",
"o c #3A3319",
"O c #412921",
"+ c #4F3F2B",
"@ c #604C33",
"# c #6D5536",
"$ c #7B5C3C",
"% c #866741",
"& c #976E45",
"* c #A0764A",
"= c None",
/* pixels */
"=================.oooo.===============================",
"================oO+#@Ooo.=============================",
"===============.XO#@O..o+=============================",
"==============.+o+@oOOO.oo============================",
"==============.o+@+#%&%+XoO===========================",
"==============.o@@+O&%@OOoo===========================",
"=============.o@#+@oo@+O@X++==========================",
"=============.X@@+%$##@@#OOo==========================",
"=============.X++o@@+O+#+++O+=========================",
"=============X++oo+@##%$++OO+=========================",
"=============X++.+#&%&&&%$+o+=========================",
"=============X#o.@#%%&&%%%O+==========================",
"============.O$Oo#$%*%*&$&@O+=========================",
"===========$$@@#o@#%%$$$$%$+++$=======================",
"=========#%$%%#%O+$%@@&%##@OO$$+======================",
"=======@$$$@@#@##O@$+$##@@+O@$++@=====================",
"=====O@$$$%$@+#$$#++++@+++O@$@o$@=====================",
"=====+O.+#$%#@@@++++O+O++@$@+o@@+.====================",
"=====OX+o.O#%$@ooO$$@@#@#++oO@@Ooo====================",
"=====X@$@+..O$+++oO++@@+OoO+@@o+++====================",
"=====+#$++o.oO@++@@+OoooO@##+o++++.===================",
"====X+#+OO.O+OOO+@@$#####@+Oo+#@o+.===================",
"====O@$+o.oO++oOoO++@@@+++O++##@O@o===================",
"====+#@+oO+++O+@++O++O+Oo++#@#@++@+===================",
"====+@+O++@@O+O#@@#++++@#####@@+o++===================",
"===X++O+$#+O+++#@###@##@$$###@+@+@+.==================",
"===X++O#@+@@+O+@###@##@@####@@+@+@@.==================",
"===o+o+#@+@+oO+###@##@+#####@++#++O.==================",
"===oo+##++#+Oo+@#@+++o@#@@@++@@@O+@+==================",
"===oO@#+++@OoO#@##@O+++++++++@#+++@+==================",
"===OO@o+@@+Oo+@###$+@#++@+++@@#++O+++=================",
"==.o+oO#$+++o+#@##$@###@@@@##+++@O+++=================",
"==.oOO@$@+@+o@@#@##@@$$#++o++##@@o+@.=================",
"==.O+#$++#@+o@#@@@#@+$#oo@$#@##+@OO++=================",
"=.oo@##++$@+o++##@@@#@#$$$$@@@@+Oo+oO=================",
"=++@@+oO###+o++##@+@+@####@##@#OO++oo=================",
"=O@#@o+@$@++Oo+@@@@+@@@#####@#+OOOoO.=================",
"=O@+O++@#@+OX.X.o++o@@+#@#@OX++OoOOOo=================",
"oO++O@##@++ooooX..oo++@#@++@OOooOO+O+=================",
".oOoO$$++O+ooO+oOO++.o+@O+OOOoo+oO+O==================",
"X+Oo+@oo..OoO++oooO+@+OO+o+OoOO+oOO+==================",
" OO@Oo.Oo++O+++o+.++##@@+O+@@@o+++O+==================",
"o.++OX@####o+@+XXX+@##@+oO@#@@+++++===================",
" Xoo.@@@$@+o+@+OOo+@##@+++##@@o++o====================",
"=    o++#O.+@#OOo+++##@+++##@@o++O.===================",
"======o+@.++##++OOO+@#@+++##@@o++O+===================",
"========.XO@##+Oo+@@+#O@@@#$@+O@@+O===================",
"==========O+##++OO@@+@O@@@#$@O+@@OO+==================",
"=========X+@##++oo+#@+#@##@#@O+#@OO+==================",
"=========.++##+OO++##O@@##$@@O@##Oo+==================",
"=========.+@##++oO+$#+####$#+O###Oo++=================",
"=========.@@#O+oOo+$+####$#@+O#$#O+++=================",
"=========.+#@++OoO@#@$###$##++#$#OO++=================",
"=========+@+@+OOOO@#@$##$%##@+#$#O@+++================",
"=========+@+@@Oo.o@#@###$%##++###+++++================",
"=========++@#@+o.o+$@#@$%$@@+@##@+O++++===============",
"=========+@@#@oo.O+$@$#$%#@@@@@#@+O@+++===============",
"=========+@@@+Oo.++#@$$#@#++@#@##o+@+++===============",
"=========+@@#++X.X@#@@##@#+@@#+++OO+@++===============",
"========o+@@#+OX.o+#@@$#@@+@@##$@+O+@++===============",
"========o+@@@+oXOO+@#+@@@@+@##$$@+++@+++==============",
"========++##@++ooX+@#@O@@@@@#$$#@#@@@@++==============",
"========++$##+++oOO+@#O@@@@##$$#+@@@#@@+==============",
"========+@@@@+OOOoO@##@O+@@##$##@####@++==============",
"========+@#$$+++oOO@##@o+@##$##@+##$##@+==============",
"========+@#$$+O+OOO+@#@o+@#$##@@O##$##@++=============",
"========+@@##+++o++@#@@OO@$$$#@O###$$##+.=============",
"========+@+@$+@++++#@@@@@+$$@@++##$$$##@O=============",
"========+@+@###@#oO@$###%X##@+O+##$$$#@#+=============",
"========+@+@##$##+@#@$%$$OO+Oo+##$####@#+.============",
"========+@+###$#$#+#$#$$%@ooo+@$$$######++============",
"========+++#$#$#$$#+##@##OO@###$$###+#@@@+============",
"========+@+###$#$$$@+@#@.o+#$$$$###@#@#@++============",
"========++@###$####$OXOXO##$##$$++@###++++============",
"=====+X@+++@@##$$$#$#++O@$##$X@#$$@####@@@O.O++#@+====",
"=====+oo++@++@@##$$$@@OO$##+o$#$$##@@+O..o+X.O++#+====",
"====++XXO@@@@###$$@+$#+O$#@.o.O@@@#+OO+++o++O+OO+++===",
"====XXoXoooO+@@#+O+$+++O++oo.. XooOOX.O#++@@+oO@+@#===",
"===OXooX..ooOo..O+#@O+#+oo.OOO+Oo.....++@@@@@o.O+++@==",
"===o+o+OoOOO+OO+ooOoOXXXX..+++O+O++o+O+oXXXXoOO+O+Oo==",
"==OX+O+++++++O++OO. Oooo++++@+++#+OX+++++++++O++OO.Xo=",
"==O+++@++$@+++++Ooo.oO+++++++++O+OO+++@+++++++++Ooooo=",
"=.o.ooOO.oooOOOoXooXXXooOoooooXoooooOOOOooooOOOoXooXXo",
"=..ooo..ooOoOOoOo........o.........ooo..ooOoOOoOo.....",
"=o...o.O.oOOOOoOOOo......oo..ooo.o...o.O.oOOOOoOOOo...",
"=OOo.oo..OooooOoOo......o.OO.ooOOOOo.oo..OooooOoOo....",
"=OO+OOooO.oooOoOOOoo.....OoOOooOOOO+OOooO.oooOoOOOoo..",
"=OOOOoO..ooooOooOOOOO....OoOOOOOOOOOOoO..ooooOooOOOOO."
};
