/* XPM */
static char *blood_4[] = {
/* columns rows colors chars-per-pixel */
"64 57 11 1 ",
"  c #1B1B1B",
". c #3B2713",
"X c #232323",
"o c gray15",
"O c #4B2F17",
"+ c #57371B",
"@ c #662101",
"# c #6F2200",
"$ c #821600",
"% c #9A1808",
"& c None",
/* pixels */
"&&&&&&&&&&&&&&&&&&&&&&&&&&&&&&&&&&&&&&&&&&&&&&&&&&&&&&&&&&&&&&&&",
"&&&&&&&&&&&&&&&&&&&&&&&&&&&&&&&&&&&&&&&&&&&&&&&&&&&&&&&&&&&&&&&&",
"&&&&&&&&&&&&&&&&&&&&&&&&&&&&&&&&&&&&&&&&&&&&&&&&&&&&&&&&&&&&&&&&",
"&&&&&&&&&&&&&&&&&&&&&&&&&&&&&&&&&&&&&&&&&&&&&&&&&&&&&&&&&&&&&&&&",
"&&&&&&&&&&&&&&&&&&&&&&&&&&&&&&&&&&&&&&&&&&&&&&&&&&&&&&&&&&&&&&&&",
"&&&&&&&&&&&&&&&&&&&&&&&&&&&&&&&&&&&&&&&&&&&&&&&&&&&&&&&&&&&&&&&&",
"&&&&&&&&&&&&&&&&&&&&&&&&&&&&&&&&&&&&&&&&&&&&&&&&&&&&&&&&&&&&&&&&",
"&&&&&&&&&&&&&&&&&&&&&&&&&&&&&&&&&&&&&&&&&&&&&&&&&&&&&&&&&&&&&&&&",
"&&&&&&&&&&&&&&&&&&&&&&&&&&&&&&&&&&&&&&&&&&&&&&&&&&&&&&&&&&&&&&&&",
"&&&&&&&&&&&&&&&&&&&&&&&&&&&&&&&&&&&&&&&&&&&&&&&&&&&&&&&&&&&&&&&&",
"&&&&&&&&&&&&&&&&&&&&&&&&&&&&&&&&&&&&&&&&&&&&&&&&&&&&&&&&&&&&&&&&",
"&&&&&&&&&&&&&&&&&&&&&&&&&&&&&&&&&&&&&&&&&&&&&&&X&&&&&&&&&&&&&&&&",
"&&&&&&&&&&&&&&&&&&&&&&&&&&&&&&&&&&&&&&&&&&&&&&&O&&&&&&&&&&&&&&&&",
"&&&&&&&&&&&&&&&&&&&&&&&&&&&&&&&&&&&&&&&&&&&&&&&O@&&&&&&&&&&&&&&&",
"&&&&&&&&&&&&&&&&&&&&&&&&&&&&&&&&&&&&&&&&&&&&&&&&OOX&&&&&&&&&&&&&",
"&&&&&&&&&&&&&&&&&&&&&&&&&&&&&&&&&&&&&&&&&&&&&&&&&&&&&&&&&&&&&&&&",
"&&&&&&&&&&&&&&&&&&&&&&&&&&&&&&&&&&&&&&&&&&&&&&&&&&&&&&&&&&&&&&&&",
"&&&&&&&&& &&&&&&&&&&&&&&&&&&&&&&&&&&&&&&&&&&&&&&&&&&&&&&&&&&&&&&",
"&&&&&&&&&&&&&&&&&&&&&&&&&&&&&&&&&OO&&&&&&&&&&&&&&&&&&&&&&&.O.&&&",
"&&&&&&&&&&&&&&&&&&&&&&&&&&&&&&&&&@@&&&&&&&&&&&&&&&&&&&&&&&O#@&&&",
"&&&&&&&&&&&&&&&&&&&&&&&&&&&&X&&&&.&&&&&&&&&&&&&&&&&&&&&&&&O#@&&&",
"&&&&&&&&&&&&&&&&&&&&&&&&&&&&X&&&&&&&&&&&&&&&&&&&&&&&&&&&&&O#@&&&",
"&&&&&&&&&&&&&&&&&&&&&&&&&&&&&&&&&&&&&&&&&&&&&&&&&&&&&&&&&&O##@&&",
"&&&&&&OO&&&&&&&&&&&&&&&&&&&&&&&&&&&&&&&&&&&&&&&&&&&&&&&&&&O#$#&&",
"&&&&&&@@&&&&&&&&&&&&&&&&&&&&&&&&&&&&&&&&&&&&&&&&&&&&&&&&&&O@$$@&",
"&&&&&@@&&&&&&&&&&&&&&&&&&&&&&&&&&&&&&&&&&&&&&&&&&&&&&&&&&&.+#%%@",
"&.O@@@&&&&&&&&&&&&&&&.@@&&&&&&&&&&&&&&&&&&&&&&&&&&&&&&&&&&&.O@@O",
".@#$#&&&&&&&&&&&&&&&&&@@O&&&&&&&&&&&&&&&&&&&&&&&&&&&&&&&&&&&&&&&",
"O@$%@&&&&&&&&&&&&&&&&&&&&@O&&&&&&&&&&&&&&@&&&&&&&&&&&&&&&&&&&&&&",
"O@$#@&&&&&&&&&&&&&&&&&&&&@@&&&&&&&&&&&&&&&&&&&&&&&&&&&&&&&&&&&&&",
"oO@@&&&&&&&&&&&&&&&&&&&&&&@&&&&&&&&&&&&&&&&&&&&&&&&&&&&&&&&&&&&&",
"&&&&&&&&&&&&&&&&&&&&&&&&O@#@&&&&&&&&&&&&&&&&&&&&&&&&&&&&&&&&&&&&",
"&&&&&&&&&&&&&&&&&&&&&&&.@$%@&&&&&&&&&&&&&&&&&&&&&&&&&&&&&&&&&&&&",
"&&&&&&&&&&&&&&&&&&&&&&&O@$$@&&&&&&&&&&&&&&&&&&&&&&&&&.&&&&&&&&&&",
"&&&&&&&&&&&&&&&&&&&&&&.+##@&&&&&&&&&&&&&&&&&&&&&&&&&&O@&&&&&&&&&",
"&&&&&&&&&&&&&&&&&&&&&&O@#@&&&&&&&&&&&&&&&&&&&&&..&&&&&@@&@@@@@&&",
"&&&&&&&&&&&&&&&&&&&&&&.O@&&&&&&&&&&&&&&&&&&&&&&&O&&&&&&O@@@&@#@&",
"&&&&&&&&&&&&&&&&&&&&&&&&&&&&&&&&&&.&&&&&&&&&&&&&O&&&&&&&&&&&&##&",
"&&&&&&&&&&&&&&&&&&&&&&&&&&&&&&&&&&OO&&&&&&&&&&&&OO&&&&&&&&&&&@#@",
"&&&&&&&&&&&&&&&&&&&&&&&&&&&&&&&&&&&O&&&&&&&&&&&&&O&&&&&&&&&&&&@@",
"&&&&&&&&&&&&&&&&&&&&&&&&&&&&&&&&&&&.&&&&&&&&&&&&&.&&&&&&&&&&&&&O",
"&&&&&&&&&&&&&&&&&&&&&&&&&&&&&&&&&&&X&&&&&&&&&&&&&&X&&&&&&&&&&&&.",
"&&&&&&&&&&&&&&&&&&&&&&&&&&&&&&&&&&&&&&&&&&&&&&&&&&&&&&&&&&&&&&&O",
"&&&&&&&&&&&&&&&&&&&&&&&&&&&&&&&&&&&&&&&&&&&&&&&&&&&&&&&&O@&&&&@@",
"&&&&&&&&&O@@.&&&&&&&&&&&&&&&&&&&&&&&&&&&&&&&&&&&&.&&&&&&@%#@&@#@",
"&&&&&&&XO@#$@&&&&&&&&&&&&&&&&&&&&&&&&&&&&&&&&&&&@@&&&&&&@%%@@@@&",
"&&&&&&&&+#$#@&&&&&&&&&&&&&&&&&&&&&&&&&&&&&&&&&&&@#@&&&&&&@@&&&&&",
"&&&&&&&&O@#@&&&&&&&&&&&&&&&&&&&&&&&&&&&&&&&&&&&&O&O@.&&&&&&&&&&&",
"&&&&&&&O@##@&&&&&&&&&&&&&&&&&&&&&&&&&&&&&&&&&&&&O&&&O&&&&&&&&&&&",
"&&&&&&O@##@&&&&&&&&&&&&&&&&&&&&&&&&&&&&&&&&&&&&&O@@&@&&&&&&&&&&&",
"&&&&.O&@#@&&&&&&&&&&&&&&&&&&&&&&&&&&&&&&&&&&&&&&&##@OO.OO&&&&&&&",
"&&&&O&&&@&&&&&&&&&&&&&&&&&&&&&&&&&&&&&&&&&&&&&&&&@#&&&&&@O&&&&&&",
"&&&&O&&&O&&&&&&&&&&&&&&&&&&&&&&&&&&&&&&&&&&&&&&&&@@&&&&&&O&&&&&&",
"&&&&.O&@O&&&&&&&&&&&&&&&&&&&&&&&&&&&&&&&&&&&&&&&&&@@&&&&&O&&&&&&",
"&&&&&&OO&&&&&&&&&&&&&&&&&&&&&&&&&&&&&&&&&&&&&&&&&&@#&&&&@O&&&&&&",
"&&&&&&&&&&&&&&&&&&&&&&&&&&&&&&&&&&&&&&&&&&&&&&&&&&@%#@OOO&&&&&&&",
"&&&&&&&&&&&&&&&&&&&&&&&&&&&&&&&&&&&&&&&&&&&&&&&&&&&&&&&&&&&&&&&&"
};
