/* XPM */
static char *blood_1[] = {
/* columns rows colors chars-per-pixel */
"64 57 13 1 ",
"  c #2F1F0F",
". c #3B2713",
"X c #232323",
"o c #4B2F17",
"O c #57371B",
"+ c #662101",
"@ c #6F2200",
"# c #821600",
"$ c #9A1808",
"% c #A2240C",
"& c #B03C13",
"* c #BC7F9E",
"= c None",
/* pixels */
"=====================================oO++o======================",
"====================================+@$$$+======================",
"===================================+#$%#@o======================",
"=================================o+#$$$+========================",
"===============o+++++====o+++o.++@#$$$+=========================",
"==============.@$%%$$@++@@#$@==@#$$#@+==========================",
"==============+@#$$$$$$$$$$$#@+@#$$@============================",
"=============o@#@@@$$$$$$$%%%$#@@@#+============================",
"============o@#$@=@#$$$$$%%&%%$@=+#@============================",
"===========o@$$$#@@$$$$%%%&*&%$@=+#@@+++++======================",
"==========+@$$$$$$$$$$$$%%%&%%$#@@$$@#$$$@+=====================",
"=======o+@@##@++++++@#$$$$$$$%%$$$$#@+++++.=====================",
"======o@#$#@+=======@#$$$$$$$$$$$$$#@===========================",
"======.++++=======o+@$$$$$$$$#$$$$$$#+==========================",
"============++.==+@$$$#@@#$#@+@$$$$%$$+=========================",
"===========+@+==+#$%$$@=+#$@==+#$$$%%$@=========================",
"========== ++==.@$%%$#+=.++o=.@$$#@@#$#+========================",
"===============+#$$$$@=======o#$$@==+@$+========================",
"==============.@$$#@$+===+++=o#$$@===+#@========================",
"==============+#$@=++o==o@$@=.@$$$@==+##+=======================",
"=============.+@@=======+#$@==+#$&$@=+#$@+++====================",
"==============++==XX=..=+#$#+=o@$&*#@+++++@@+===================",
"=====================++=o@$$@==+#%&%@=====+#+===================",
"================+++=++===+@$#+=.@$&%#@++==+#+===================",
"===============+@$@++.====+#$+==o@$$$$$#@@@$+===================",
"==============o@$#+=======o@$@===++++++@$$@@o===================",
"==============+#$+========+$$@=========+#$#=====================",
"==============.++========o@$$@==========+@@+====================",
"=========================.+#$@============@@====================",
"===========================+@@+===========@$+===================",
"============================@#+==========++@@+==================",
"=========================+++@#@========o+o==@$+=================",
"========================o@@++@@+======o+====+$+=================",
"========================.++==+@+======o======@+=================",
"==============================+.======.====.+o==================",
"=======================================o===+====================",
"=======================================o+=++====================",
"========================================+@$+====================",
"=========================================+$+====================",
"==========================================@@====================",
"==========================================+@+===================",
"===========================================+++==================",
"=============================================+@o================",
"=============================================+$+================",
"=============================================o+o================",
"================================================================",
"================================================================",
"================================================================",
"================================================================",
"================================================================",
"================================================================",
"================================================================",
"================================================================",
"================================================================",
"================================================================",
"================================================================",
"================================================================"
};
