/* XPM */
static char *impact_0[] = {
/* columns rows colors chars-per-pixel */
"32 31 4 1 ",
"  c #777777",
". c #7A7A89",
"X c #BCBCC7",
"o c None",
/* pixels */
"oooooooooooooooooooooooooooooooo",
"oooooooooooooooooooooooooooooooo",
"oooooooooooooooooooooooooooooooo",
"oooooooooooooooo ooooooooooooooo",
"ooooooooooooooo  ooooooooooooooo",
"ooooooooooooo.oooooooooooooooooo",
"oooooooooooooooooooo ooooooooooo",
"oooooooooooooooo.ooooooooooooooo",
"oooooooooooXoo Xo oooooooooooooo",
"oooooooo ooooooo  oooooooooooooo",
"oooooooooo .. oo  o  oo oooooooo",
"oooooooooo o.Xo Xooooooooooooooo",
"oooooooo.o  oo.ooX ooooooooooooo",
"oooooooooooooooooo ooooooooooooo",
"oooooooooooooX o ooooooooooooooo",
"oooooooooooooooooooooooooooooooo",
"oooooooooooooooooooooooooooooooo",
"oooooooooooooooooooooooooooooooo",
"oooooooooooooooooooooooooooooooo",
"oooooooooooooooooooooooooooooooo",
"oooooooooooooooooooooooooooooooo",
"oooooooooooooooooooooooooooooooo",
"oooooooooooooooooooooooooooooooo",
"oooooooooooooooooooooooooooooooo",
"oooooooooooooooooooooooooooooooo",
"oooooooooooooooooooooooooooooooo",
"oooooooooooooooooooooooooooooooo",
"oooooooooooooooooooooooooooooooo",
"oooooooooooooooooooooooooooooooo",
"oooooooooooooooooooooooooooooooo",
"oooooooooooooooooooooooooooooooo"
};
