/* XPM */
static char *__0[] = {
/* columns rows colors chars-per-pixel */
"43 61 45 1 ",
"  c gray6",
". c #131313",
"X c gray9",
"o c #1B1B1B",
"O c gray12",
"+ c #3A3319",
"@ c #232323",
"# c gray15",
"$ c #322D22",
"% c #392B27",
"& c #3D3626",
"* c #5C2103",
"= c #53200A",
"- c #4A271B",
"; c #453C15",
": c #6F2200",
"> c #412921",
", c #5D4E0E",
"< c #514512",
"1 c #68570B",
"2 c #746107",
"3 c #7F6A04",
"4 c #53472C",
"5 c #6D5536",
"6 c #7B5C3C",
"7 c #930C04",
"8 c #821600",
"9 c #9A1808",
"0 c #A2240C",
"q c #A9300F",
"w c #B03C13",
"e c #BE541B",
"r c #8B7300",
"t c #866741",
"y c #976E45",
"u c #A0764A",
"i c #9A8500",
"p c #A89600",
"a c #B7A800",
"s c #D4CB00",
"d c #B78C58",
"f c #C49A69",
"g c #FFB962",
"h c #FFC370",
"j c None",
/* pixels */
"jjjjjjjjjjjjjjjjjjjjjjjjjjjjjjjjjjjjjjjjjjj",
"jjjjjjjjjjjjjjjjjjjjjjjjjjjjjjjjjjjjjjjjjjj",
"jjjjjjjjjjjjjjjjjjjjjjjjjjjjjjjjjjjjjjjjjjj",
"jjjjjjjjjjeeeee8jjjjjjjjjjjjjjjjjjjjjjjjjjj",
"jjjjjjjjj0979900w9jjjjjjjjjjjjjjjjjjjjjjjjj",
"jjjjjjjj:8:::**=##=:jjjjjjjjjjjjjjjjjjjjjjj",
"jjjjjjjj*****==@Oooo#*jjjjjjjjjjjjjjjjjjjjj",
"jjjjjjjj=======##@@###=jjjjjjjjjjjjjjjjjjjj",
"jjjjjjjj#===========*::#jjjjjjjjjjjjjjjjjjj",
"jjjjjjjj#======***:7999*jjjjjjjjjjjjjjjjjjj",
"jjjjjjjj=======**:87908ojjjjjjjjjjjjjjjjjjj",
"jjjjjjjj=====##=*:8899**jjjjjjjjjjjjjjjjjjj",
"jjjjjjjj*===##@@#=*:87:qw8jjjjjjjjjjjjjjjjj",
"jjjjjjjj:**==@oXX@=**8*970qqqw*jjjjjjjjjjjj",
"jjjjjjjj,aaai#OXXo#=**=*==*:799=jjjjjjjjjjj",
"jjjjjyjj Xu> 2,<;O@=*===O#=**=:7jjjjjjjjjjj",
"jjjjydu5jXdd    X;2ri1=2o@@#@=*8jjjjjjjjjjj",
"jjjju6ydy4df$      @X#;#XX#=****ojjjjjjjjjj",
"jjjj4tyyufdd5     @ Xo@O #=*****ojjjjjjjjjj",
"jjjj$ty5yytyy    XXoXXoo @O>==*=Xjjjjjjjjjj",
"jjjjj5dt5455t>   ==@XX>>X  .XXo@jjjjjjjjjjj",
"jjjjjj54>>>455o =#X >55>544>$XX jjjjjjjjjjj",
"jjjjjjj>>>>>45fd5X $4>o5uyy5>XX jjjjjjjjjjj",
"jjjjjjj>$>>>54ydfhdt*@oydffd5> jjjjjjjjjjjj",
"jjjjjjj$>4$>>$>5tuffhffgfffdt>jjjjjjjjjjjjj",
"jjjjjjjj>>$o o=$>45yuffggddy5$jjjjjjjjjjjjj",
"jjjjjjjj.>>X XXX .>>45yuddy54jjjjjjjjjjjjjj",
"jjjjjjjjj>>   #    X>>>>5u5>jjjjjjjjjjjjjjj",
"jjjjjjjjjX>X  o       >>>>>Xjjjjjjjjjjjjjjj",
"jjjjjjjjjjX            $$X #jjjjjjjjjjjjjjj",
"jjjjjjjjjjj               @**jjjjjjjjjjjjjj",
"jjjjjjjjjj*X  @:8:O       X@*<jjjjjjjjjjjjj",
"jjjjjjjjjj@# X#oOo@@       X<#=jjjjjjjjjjjj",
"jjjjjjjjjjjjX     oO+       ,@*jjjjjjjjjjjj",
"jjjjjjjjjjjj         ,=====3$==jjjjjjjjjjjj",
"jjjjjjjjjjj#X  o=* O*$i8783%==@jjjjjjjjjjjj",
"jjjjjjjjjjj*===****:::-s31>8:=ojjjjjjjjjjjj",
"jjjjjjjjjj=*==****=:::2pi3,-**ojjjjjjjjjjjj",
"jjjjjjjjjj:*=======*::r 2 <#*=Xjjjjjjjjjjjj",
"jjjjjjjjj*:======*887*;p r;O==jjjjjjjjjjjjj",
"jjjjjjjjj78*===*89999*X;r<XO#@jjjjjjjjjjjjj",
"jjjjjjjj79q0090999990*OXXXO@@@jjjjjjjjjjjjj",
"jjjjjjj9qweeeeww98799*%XXO##%*jjjjjjjjjjjjj",
"jjjjjj8q0wwwwwq0000998*###%===jjjjjjjjjjjjj",
"jjjj*0wq900000900q000788*****jjjjjjjjjjjjjj",
"jjj9wqeq9787770qqwew00978:***jjjjjjjjjjjjjj",
"jj:qweeeq0000qwqww07777778:*=jjjjjjjjjjjjjj",
"jj0weeeeeeeeewww0787777888:*ojjjjjjjjjjjjjj",
"j799qwweeeewq0w08887997888*=jjjjjjjjjjjjjjj",
"j*=**:87999789088887009788= jjjjjjjjjjjjjjj",
"#@XOo@@##===*8888:::87778*@j=*=jjjjjjjjjjjj",
"@X XXXXXXXXO@*::::**=*:88**77770q*j5jjjjjjj",
"X           X#*****=#@===*88000090yuffjjjjj",
"             X=****==XX#*::99777887t55tujjj",
"j ..          o=**===#X =:888888:**4&&&455j",
"j.XX.          @======#X =:::***=#o>$XXX$&&",
"jj.XX.          o######@X @===#@X  .XXXXXXX",
"jjjj .           Xoo@@@##X  XXX  jjjjjXXXXX",
"jjjjjj              XXOO@@oX     jjjjjjjXX ",
"jjjjjjjjj             XXXooooXXjjjjjjjjjjjj",
"jjjjjjjjjjjj          j      jjjjjjjjjjjjjj"
};
