/* XPM */
static char *__1[] = {
/* columns rows colors chars-per-pixel */
"43 61 46 1 ",
"  c gray6",
". c #131313",
"X c gray9",
"o c #1B1B1B",
"O c gray12",
"+ c #3A3319",
"@ c #232323",
"# c gray15",
"$ c #322D22",
"% c #392B27",
"& c #3D3626",
"* c #5C2103",
"= c #53200A",
"- c #4A271B",
"; c #453C15",
": c #6F2200",
"> c #412921",
", c #5D4E0E",
"< c #514512",
"1 c #68570B",
"2 c #746107",
"3 c #7F6A04",
"4 c #53472C",
"5 c #6D5536",
"6 c #7B5C3C",
"7 c #930C04",
"8 c #821600",
"9 c #9A1808",
"0 c #A2240C",
"q c #A9300F",
"w c #B03C13",
"e c #BE541B",
"r c #8B7300",
"t c #866741",
"y c #976E45",
"u c #A0764A",
"i c #9A8500",
"p c #A89600",
"a c #B7A800",
"s c #D4CB00",
"d c #B78C58",
"f c #C49A69",
"g c #FFB962",
"h c #FFC370",
"j c #D5AE80",
"k c None",
/* pixels */
"kkkkkkkkkkkkkkkkkkkkkkkkkkkkkkkkkkkkkkkkkkk",
"kkkkkkkkkkk*eweeekkkkkkkkkkkkkkkkkkkkkkkkkk",
"kkkkkkkkkkk97990qw7kkkkkkkkkkkkkkkkkkkkkkkk",
"kkkkkkkkkk888888::89kkkkkkkkkkkkkkkkkkkkkkk",
"kkkkkkkkkk8:88::*===**kkkkkkkkkkkkkkkkkkkkk",
"kkkkkkkkk*8:88:**=####=kkkkkkkkkkkkkkkkkkkk",
"kkkkkkkkk7888:::*===###Okkkkkkkkkkkkkkkkkkk",
"kkkkkkkk8888:**:8***===#kkkkkkkkkkkkkkkkkkk",
"kkkkkkk;a777:*=*:8::8::*kkkkkkkkkkkkkkkkkkk",
"kkkkkkk  aar*===*8999098kkkkkkkkkkkkkkkkkkk",
"kkkkkkk    or====*87909=kkkkkkkkkkkkkkkkkkk",
"kkkkkkkk    o2====*8998=kkkkkkkkkkkkkkkkkkk",
"kkkkkkkk     $,===**:7:qe8kkkkkkkkkkkkkkkkk",
"kkkkkkkkk     o,==***:*9770qqw:kkkkkkkkkkkk",
"kkkkkkkkk      $,*****=*==*:799=kkkkkkkkkkk",
"kkkkkykkX d>    X21:*===O#=**=:7kkkkkkkkkkk",
"kkkkydu5k6dd      O12o==@OO#O=::kkkkkkkkkkk",
"kkkku6yduydfo      XX###XX#=***:@kkkkkkkkkk",
"kkkk4tyyufdd5       Xo#O #=*****okkkkkkkkkk",
"kkkkOty5yytyyOXXXXX@ooo@ #@>=-*=Xkkkkkkkkkk",
"kkkkk5dt5455t-XXX==OXX--o  .XooOkkkkkkkkkkk",
"kkkkkk54>>>454$#=OX >55>544>$oX kkkkkkkkkkk",
"kkkkkkk>>$>-45fd5o o4$@5uyy5$Xo kkkkkkkkkkk",
"kkkkkkk>O>$>54ydfhdt-#oydffd5>.kkkkkkkkkkkk",
"kkkkkkk$$4$>>$-5tudfhjfgfffdt>kkkkkkkkkkkkk",
"kkkkkkkk$>$@ @>o>45yudfggddy5Okkkkkkkkkkkkk",
"kkkkkkkk.>>X oXX .$>45yuddy54kkkkkkkkkkkkkk",
"kkkkkkkkk>>   #    X$>>>5u5>kkkkkkkkkkkkkkk",
"kkkkkkkkkX>X  @       $>>>>Xkkkkkkkkkkkkkkk",
"kkkkkkkkkkX            $oX #kkkkkkkkkkkkkkk",
"kkkkkkkkkkk               O**kkkkkkkkkkkkkk",
"kkkkkkkkkk*X  #:8:O       X@*<kkkkkkkkkkkkk",
"kkkkkkkkkk## X#@OoO@       X<#=kkkkkkkkkkkk",
"kkkkkkkkkkkkX     oO+       ,@*kkkkkkkkkkkk",
"kkkkkkkkkkkk         ,=====3$==kkkkkkkkkkkk",
"kkkkkkkkkkk#o  o=* O*$i8783%==Okkkkkkkkkkkk",
"kkkkkkkkkkk:===*:**:::-s31>8:=@kkkkkkkkkkkk",
"kkkkkkkkkk=*==****=:::2pi3,-**okkkkkkkkkkkk",
"kkkkkkkkkk:*=======*::r 2 <#*=Xkkkkkkkkkkkk",
"kkkkkkkkk*:======*877*;p r;O==kkkkkkkkkkkkk",
"kkkkkkkkk78*===*79999*X;r<XO#@kkkkkkkkkkkkk",
"kkkkkkkk79qq990997999*OXXXO@@@kkkkkkkkkkkkk",
"kkkkkkk9qeeeeeww97797*%XXO##%*kkkkkkkkkkkkk",
"kkkkkk8qqqwwwwq0009998*###%===kkkkkkkkkkkkk",
"kkkk*0wq99qqq0990q0q978:****:kkkkkkkkkkkkkk",
"kkk9wqeq9777779qqweqq9978:***kkkkkkkkkkkkkk",
"kk:qeeeeqq00qqeqww97777778:*=kkkkkkkkkkkkkk",
"kkqweeeeeeeeewqw0777777778:*@kkkkkkkkkkkkkk",
"k799qweeeeeeqqw98887977788:=kkkkkkkkkkkkkkk",
"k:=**:87999789988887999788= kkkkkkkkkkkkkkk",
"#OoO@OO##===*8888:::87778:Ok=*=kkkkkkkkkkkk",
"Oo XXXXXXoXO#*::::**=*::8**77770q:k5kkkkkkk",
"XX          X#*::**=##===*88990999yuffkkkkk",
"             X=****==oX#*::99777787t55tukkk",
"k.XX.         @=**===#XX=:878888::*4&&&455k",
"k.XX.          O======#XX=:::::*=#o$OXXXO&>",
"kk.XX.          @######OX O===##o  .XXXXXXX",
"kkkk X           Xo@O####X  XXX  kkkkkXXXXX",
"kkkkkk              XXOO@@oX     kkkkkkkXX ",
"kkkkkkkkk             XXXooooXXkkkkkkkkkkkk",
"kkkkkkkkkkkk          k      kkkkkkkkkkkkkk"
};
