/* XPM */
static char *__2[] = {
/* columns rows colors chars-per-pixel */
"43 61 47 1 ",
"  c gray6",
". c #131313",
"X c gray9",
"o c #1B1B1B",
"O c gray12",
"+ c #3A3319",
"@ c #232323",
"# c gray15",
"$ c #322D22",
"% c #392B27",
"& c #3D3626",
"* c #5C2103",
"= c #53200A",
"- c #4A271B",
"; c #453C15",
": c #6F2200",
"> c #412921",
", c #5D4E0E",
"< c #514512",
"1 c #68570B",
"2 c #746107",
"3 c #7F6A04",
"4 c #53472C",
"5 c #604C33",
"6 c #6D5536",
"7 c #7B5C3C",
"8 c #930C04",
"9 c #821600",
"0 c #9A1808",
"q c #A2240C",
"w c #A9300F",
"e c #B03C13",
"r c #BE541B",
"t c #8B7300",
"y c #866741",
"u c #976E45",
"i c #A0764A",
"p c #9A8500",
"a c #A89600",
"s c #B7A800",
"d c #D4CB00",
"f c #B78C58",
"g c #C49A69",
"h c #FFB962",
"j c #FFC370",
"k c #D5AE80",
"l c None",
/* pixels */
"lllllllllllllllerr0llllllllllllllllllllllll",
"lllllllllllll0eweeeelllllllllllllllllllllll",
"lllllllllllleewewwqqwllllllllllllllllllllll",
"lllllllll;2sweewq08990lllllllllllllllllllll",
"lllllllll  2srq0889***8llllllllllllllllllll",
"lllllllll   1s99999**=**lllllllllllllllllll",
"lllllllll    t***99:*===Ollllllllllllllllll",
"lllllllll    @t***98:**##llllllllllllllllll",
"lllllllll    $2***:88:*=Ollllllllllllllllll",
"lllllllll   o6,****80q8:Ollllllllllllllllll",
"lllllllll   >yt****98qw8lllllllllllllllllll",
"lllllllll   $6;-****908=lllllllllllllllllll",
"lllllllll    >;;*****8:wr9lllllllllllllllll",
"lllllllll     X2>*::*:*088qwwe*llllllllllll",
"lllllllll      ;1t1:**#*==*:800=lllllllllll",
"lllllull Xf>  X  X*2*===O#=***:8lllllllllll",
"llllufi6 7ff  O X=@=#o==@OO#O**9lllllllllll",
"llllu7ufiufg> $u*=#X ###XX#*****@llllllllll",
"llll4yuuigff6 7u4 X Xo#O #=*****ollllllllll",
"llll$yu7uuyuu*=##oX@XXo@ #@>=**=Xllllllllll",
"lllll7fy6446y-XXX==OXX--o  .XXoOlllllllllll",
"llllll44>>>464>#=OX >67-544>$XX lllllllllll",
"lllllll>>>>>46gf7o $4>@5uuu7>oX lllllllllll",
"lllllll>$>>>64ufgjfy*#oufggf7>.llllllllllll",
"lllllll$>4>>>>>6yifgjkfhgggfy>lllllllllllll",
"llllllll>>>@ @>$>46uifghhffu6$lllllllllllll",
"llllllll.>>o XXX .>>46uiffu6>llllllllllllll",
"lllllllll>>   #    X>>>>6i6>lllllllllllllll",
"lllllllllX>X  @       >>>>>olllllllllllllll",
"llllllllllX            >$X #lllllllllllllll",
"lllllllllll               O**llllllllllllll",
"llllllllll*X  #:8:O       X@*<lllllllllllll",
"llllllllll## X#@OoO@       X<#=llllllllllll",
"llllllllllllX     oO+       ,@*llllllllllll",
"llllllllllll         ,=====3$==llllllllllll",
"lllllllllll#o  o=* O*$p9893%==Ollllllllllll",
"lllllllllll*===****:::-d31>9:=@llllllllllll",
"llllllllll=********:::2ap3,-**ollllllllllll",
"llllllllll:*=***===*::t 2 <#*=Xllllllllllll",
"lllllllll*:======*988*;a t;O==lllllllllllll",
"lllllllll89*==**80000*X;t<XO#@lllllllllllll",
"llllllll80ww00q00800q*OXXXO@@@lllllllllllll",
"lllllll0wrrrrree08808*%XXO##%*lllllllllllll",
"llllll9wweeeeewqqq0009*###%===lllllllllllll",
"llll*qew0qqwwq00qwqqq889*****llllllllllllll",
"lll0ewrw0888880wwerewq089:***llllllllllllll",
"ll:wrrrrwqqqqwrweeq8888889:**llllllllllllll",
"llwerrrrrrrrreeeq888888889:*@llllllllllllll",
"l800werrrrrrwqeq8998088889:=lllllllllllllll",
"l:=**:88000890q89998q00889* lllllllllllllll",
"#OXO@OO##===*9999:::98888*Ol=*=llllllllllll",
"OX XXXXXXXXO#*::::**=*:99**8888qw*l6lllllll",
"XX          X#*::**=##===*9900q000uigglllll",
"             X=****==oX#*::00888898y66yilll",
"l.XX.         @=**===#XX=:989999::*4&&&466l",
"l.XX.          O======#XX=:::::*=#o$OXXXO&>",
"ll.XX.          @######OX O===##o  .XXXXXXX",
"llll X           Xo@O####X  XXX  lllllXXXXX",
"llllll              XXOO@@oX     lllllllXX ",
"lllllllll             XXXooooXXllllllllllll",
"llllllllllll          l      llllllllllllll"
};
