/* XPM */
static char *__0[] = {
/* columns rows colors chars-per-pixel */
"29 82 47 1 ",
"  c gray6",
". c #131313",
"X c gray9",
"o c #1B1B1B",
"O c gray12",
"+ c #3A3319",
"@ c #232323",
"# c gray15",
"$ c #322D22",
"% c #392B27",
"& c #3D3626",
"* c #5C2103",
"= c #53200A",
"- c #4A271B",
"; c #453C15",
": c #6F2200",
"> c #412921",
", c #5D4E0E",
"< c #514512",
"1 c #68570B",
"2 c #746107",
"3 c #7F6A04",
"4 c #53472C",
"5 c #604C33",
"6 c #6D5536",
"7 c #7B5C3C",
"8 c #930C04",
"9 c #821600",
"0 c #9A1808",
"q c #A2240C",
"w c #A9300F",
"e c #B03C13",
"r c #BE541B",
"t c #8B7300",
"y c #866741",
"u c #976E45",
"i c #A0764A",
"p c #9A8500",
"a c #A89600",
"s c #B7A800",
"d c #D4CB00",
"f c #B78C58",
"g c #C49A69",
"h c #FFB962",
"j c #FFC370",
"k c #D5AE80",
"l c None",
/* pixels */
"lllllllllllllllllllllllllllll",
"lllllllllllllllllllllllllllll",
"lllllllllllllllllllllllllllll",
"llllllrrrrr8lllllllllllllllll",
"lllllw0000qqe0lllllllllllllll",
"llll:9:::**====:lllllllllllll",
"llll*****==@@oo@#*lllllllllll",
"llll====*===#@@##==llllllllll",
"llll#==========**::#lllllllll",
"llll#=====***::8000*lllllllll",
"llll=======**:800q8@lllllllll",
"llll========*:9800**lllllllll",
"llll*====@O@==*:98:we8lllllll",
"llll3**==@oXX@=**9*08qwwwe*ll",
"lll;ssapp,OXXo@=**=*==*:800=l",
"lull Xi> X;++;,=:===O==***:8l",
"ufi6loff    XX11t<=3@@O#@**9l",
"i7yfu4fgO      @X@<#XX==****o",
"4yyuigff6     O Xo@O ==*****o",
"$yu7iuyuu    XXoXXoo @#==**=X",
"l7fy6456y>   ==@XX>>X  .oO##l",
"ll54>>>465# =#X >66>544>$Oo l",
"lll>>>>>46gf6# #4>#5iuu7>oO l",
"lll>$>>>64ufgjfy4@oufggf7> ll",
"lll$>4$>>$>6yifkjkgkgggfy>lll",
"llll>>$@ @>$>46yigghhffu6$lll",
"llllo>>o XXX  >>46uiffu64llll",
"lllll>>   #    o>>>>6i6>lllll",
"lllllo>X  @       $>>>>Xlllll",
"llllllo            $Oo =;llll",
"lllllll      O        @*<llll",
"llllll*X  @:8:@       X<#=lll",
"llllll@# X#oOoO+       ,@*lll",
"llllllllX       ,=====3$==Oll",
"llllllll      O*$p9893%===#ll",
"lllllll#X  X=*:::-d31>9:==@ll",
"lllllll*===**::::2ap3,-**=Oll",
"llllll@**==****::t 2 <#*==oll",
"llllll**====*****;a t;O==#oll",
"llllll*=======***X;t<XO#@@Xll",
"lllll@*=###====**OXXXO@@@@Xll",
"lllll===@@@##===*%XXO##%##Xll",
"lllll*=#OOO@#===**###%==*=Xll",
"lllll*==@OO@#======##*====lll",
"lllll===#@@#=======**=@OO@lll",
"lllll====##==========O@oo@lll",
"lllllO=========#====O@oo@@lll",
"lllll #======#OO@==O@@OOOOlll",
"llllllO@#==##OXoO=@@@@##@@lll",
"llllll@OO@@@oXXo#@@O@####@lll",
"llllll=@XXoXXXXO@@#==#####lll",
"llllll=@oXXXXXO=@#*=#@@##Olll",
"llllll==#oXXX#=##=*@@@@#=@lll",
"llllll====##=*=@=*@O@@#===lll",
"llllll==**=***#===OO@=====lll",
"llllll#=*:9**=@==@O@===##=lll",
"llllllX=#=*==@#=@OO#==@@@#lll",
"lllllllOOOOOo@##OOO=#@@@@@lll",
"lllllllooXXXXXOOo@@#@OOO@@lll",
"lllllllloXXXXXOoXo@@OOOOOOlll",
"llllllllooXXXXOXXoOO@OOOOOlll",
"llllllll XoooooXXo@oo@OOOOlll",
"lllllllllXXoooXXXoooo@OOO@lll",
"lllllllllXXXXX XooXXo@O@@@lll",
"lllllllll X    XoXXXoO@@@@lll",
"lllllllll XX   XoXXXO@@@@@lll",
"llllllllllXX   XXXXXO#@@@@lll",
"llllllllllXXoXXoXXXX###@#@lll",
"llllllllll X@OOOXXXX######lll",
"llllllllllloo@@@XXXO@#####lll",
"lllllllllllXXooooXX@O#####lll",
"lllllllllllXooooXXoO@@###=lll",
"lllllllllll XooooXoXXO###=lll",
"llllllllllllX XXXXXXXo###=lll",
"llllllllllll      X Xo@=#=lll",
"llllllllllllll.    l X#olllll",
"lllllllllllllO+   l     lllll",
"lllllllllllll64.  l44.  lllll",
"lllllllllll6y4oO. yfiy64lllll",
"lllllllllffy&OO.4ifffiu7&llll",
"lllllllli74&O.4fgfffi74&lllll",
"llllllll..llll7iiiu74$lllllll"
};
