/* XPM */
static char *__1[] = {
/* columns rows colors chars-per-pixel */
"29 82 47 1 ",
"  c gray6",
". c #131313",
"X c gray9",
"o c #1B1B1B",
"O c gray12",
"+ c #3A3319",
"@ c #232323",
"# c gray15",
"$ c #322D22",
"% c #392B27",
"& c #3D3626",
"* c #5C2103",
"= c #53200A",
"- c #4A271B",
"; c #453C15",
": c #6F2200",
"> c #412921",
", c #5D4E0E",
"< c #514512",
"1 c #68570B",
"2 c #746107",
"3 c #7F6A04",
"4 c #53472C",
"5 c #604C33",
"6 c #6D5536",
"7 c #7B5C3C",
"8 c #930C04",
"9 c #821600",
"0 c #9A1808",
"q c #A2240C",
"w c #A9300F",
"e c #B03C13",
"r c #BE541B",
"t c #8B7300",
"y c #866741",
"u c #976E45",
"i c #A0764A",
"p c #9A8500",
"a c #A89600",
"s c #B7A800",
"d c #D4CB00",
"f c #B78C58",
"g c #C49A69",
"h c #FFB962",
"j c #FFC370",
"k c #D5AE80",
"l c None",
/* pixels */
"llllllllll:llllllllllllllllll",
"lllllll*rerrrllllllllllllllll",
"lllllll0800qwe8llllllllllllll",
"llllll999999::90lllllllllllll",
"llllll9999:**===**lllllllllll",
"lllll*9999:**==##==llllllllll",
"lllll8999:::*====###lllllllll",
"llll9999:***9***====lllllllll",
"lll3s888:***:9::9:**lllllllll",
"lll  ssp*===*900qq09lllllllll",
"lll    o3====*980q0=lllllllll",
"llll    $<====*9009=lllllllll",
"llll     $;===**:8:wr9lllllll",
"lllll     $;==***:*080qwwe*ll",
"lllll      <1*****=*==*:800=l",
"lullX f>    o<1**2==O#=***:8l",
"ufi6l7ff      O21o;=@@O##=*9l",
"i7yfiufgo      XX#=#XX#=****o",
"4yyuigff6       Xo@O ==*****o",
"$yu7iuyuu#XXXXX@XXoo ##>==*=X",
"l7fy6446y-XXX==@XX--X  XXOo#l",
"ll44>>>464$==OX >66-544>$oo l",
"lll>>$>>46gf6o $4$#5iuu7>oO l",
"lll>O>>>64ufgjfy-@oufggf7> ll",
"lll$>4$>>$46yifkjkgkgggfy>lll",
"llll$>$o @-$>46yigghhffu6$lll",
"llllX>>o XXX  >>46uiffu64llll",
"lllll>>   #    o>>>>6i6>lllll",
"lllllX>X  @       $>>>>Xlllll",
"llllllX            $Oo =;llll",
"lllllll      O        @*<llll",
"llllll*X  @:8:@       X<#=lll",
"llllll@# X#oOoO+       ,@*lll",
"llllllllX       ,=====3$==Oll",
"llllllll      O*$p9893%===#ll",
"lllllll#X  X=*:::-d31>9:==@ll",
"lllllll*===**::::2ap3,-**=Oll",
"llllll@*===****::t 2 <#*==oll",
"llllll**====*****;a t;O==#oll",
"llllll*=======***X;t<XO#@@Xll",
"lllll#==###====**OXXXO@@@@Xll",
"lllll==##@@##===*%XXO##%##Xll",
"lllll==#OOO@#===**###%==*=Xll",
"lllll*==@OO@#======##*====lll",
"lllll===#@@#=======**=@OO@lll",
"lllll====##==========O@oo@lll",
"lllllO===#=====#===#@@oo@@lll",
"lllll #======#OO#==O@@OOOOlll",
"llllllOO##=##OXoO=@@@####Olll",
"llllll@OO@@@oXXo##@O@####@lll",
"llllll=@XXoXXXXO###==#####lll",
"llllll=#oXXXXX@=O#*=#####Olll",
"llllll==#oXXX#=##=*##@##=#lll",
"llllll====##=*=@=*#OO###==lll",
"llllll==**=***##==OO#==##=lll",
"llllll#==:9**=#==@O#===##=lll",
"llllllX=#=*==##=#OO#=#####lll",
"lllllllO@OOOo@##O@O###@@@#lll",
"lllllllooXXXXXO@o@@#@OOOO@lll",
"lllllllloXXXXXOoXo#@OOOOOOlll",
"llllllllooXXXX@XXoOO@@@OOOlll",
"llllllll XoooooXXo@oo@@OOOlll",
"lllllllllXXoooXXXoooo@OOO#lll",
"lllllllllXXXXX XooXXo@O@@Olll",
"lllllllll X    XoXXXo@@@#@lll",
"lllllllll XX   XoXXXO@####lll",
"llllllllllXX   XXXXXO####@lll",
"llllllllllXXoXXoXXXX######lll",
"llllllllll X@OOOXXXX######lll",
"llllllllllloo@@@XXXO@#####lll",
"lllllllllllXXooooXX#O#####lll",
"lllllllllllXooooXXoO@@####lll",
"lllllllllll XooooXoXXO###=lll",
"llllllllllllX XXXXXXXo###=lll",
"llllllllllll      X Xo@=#=lll",
"llllllllllllll.    l X#olllll",
"lllllllllllllO+   l     lllll",
"lllllllllllll64.  l44.  lllll",
"lllllllllll6y4oO. yfiy64lllll",
"lllllllllffy&OO.4ifffiu7&llll",
"lllllllli74&O.4fgfffi74&lllll",
"llllllll..llll7iiiu74$lllllll"
};
