/* XPM */
static char *__1[] = {
/* columns rows colors chars-per-pixel */
"67 108 68 1 ",
"  c black",
". c gray6",
"X c #131313",
"o c gray9",
"O c #1B1B1B",
"+ c gray12",
"@ c #232323",
"# c #322D22",
"$ c #392B27",
"% c #3D3626",
"& c #3A3A3A",
"* c #5C2103",
"= c #53200A",
"- c #4A271B",
"; c #453C15",
": c #662101",
"> c #6F2200",
", c #412921",
"< c #423629",
"1 c #453F2A",
"2 c #4F3F2B",
"3 c #5D4E0E",
"4 c #514512",
"5 c #68570B",
"6 c #746107",
"7 c #7F6A04",
"8 c #5B4326",
"9 c #53472C",
"0 c #674027",
"q c #7A4B2B",
"w c #604C33",
"e c #6D5536",
"r c #7B5C3C",
"t c gray34",
"y c #930C04",
"u c #821600",
"i c #9A1808",
"p c #A2240C",
"a c #A9300F",
"s c #B03C13",
"d c #B74817",
"f c #8B7300",
"g c #814F30",
"h c #8C5637",
"j c #866741",
"k c #976E45",
"l c #A0764A",
"z c #AD7F4E",
"x c #9A8500",
"c c #A89600",
"v c #C5B900",
"b c #D4CB00",
"n c #E2DC00",
"m c #B78C58",
"M c #C18564",
"N c #C49A69",
"B c #CF9876",
"V c #FFB962",
"C c #FFC370",
"Z c #FFCD7F",
"A c #D5AE80",
"S c #E3B490",
"D c #FFD78D",
"F c #E5C196",
"G c #FEE19C",
"H c #FEEBAA",
"J c #FEF5B9",
"K c None",
/* pixels */
"KKKKKKKKKKKKKKKKKKKKKKKKKKKKKKKKKKKKKKKKKKKKKKKKKKKKKKKKKKKKKKKKKKK",
"KKKKKKKKKKKKKKKKKKKKKKKKKKKKKKKKKKKKKKKKKKKKKKKKKKKKKKKKKKKKKKKKKKK",
"KKKKKKKKKKKKKKKKKKKKKKKKKKKKKKKKKKKKKKKKKKKKKKKKKKKKKKKKKKKKKKKKKKK",
"KKKKKKKKKKKKKKKKKKKKKKKKKKKKKKKKKKKKKKKKKKKKKKKKKKKKKKKKKKKKKKKKKKK",
"KKKKKKKKKKKKKKKKKKKKKKKKKKKKKKKKKKKKKKKKKKKKKKKKKKKKKKKKKKKKKKKKKKK",
"KKKKKKKKKKKKKKKKKKKKKKKKKKKKKKKKKKKKKKKKKKKKKKKKKKKKKKKKKKKKKKKKKKK",
"KKKKKKKKKKKKKKKKKKKKKKKKKKKKKKKKKKKKKKKKKKKKKKKKKKKKKKKKKKKKKKKKKKK",
"KKKKKKKKKKKKKKKKKKKKKKKKKKKKKKKKKKKKKKKKKKKKKKKKKKKKKKKKKKKKKKKKKKK",
"KKKKKKKKKKKKKKKKKKKKKKKKKKKKKKKKKKKKKKKKKKKKKKKKKKKKKKKKKKKKKKKKKKK",
"KKKKKKKKKKKKKKKKKKKKKKKKKKKKKKKKKKKKKKKKKKKKKKKKKKKKKKKKKKKKKKKKKKK",
"KKKKKKKKKKKKKKKKKKKKKKKKKKKKKKKKKKKKKKKKKKKKKKKKKKKKKKKKKKKKKKKKKKK",
"KKKKKKKKKKKKKKKKKKKKKKKKKKKKKKKKKKKKKKKKKKKKKKKKKKKKKKKKKKKKKKKKKKK",
"KKKKKKKKKKKKKKKKKKKKKKKKKKKKKKKKKKKKKKKKKKKKKKKKKKKKKKKKKKKKKKKKKKK",
"KKKKKKKKKKKKKKKKKKKKKKKKKKKKKKKKKKKKKKKKKKKKKKKKKKKKKKKKKKKKKKKKKKK",
"KKKKKKKKKKKKKKKKKKKKKKKKKKKKKKKKKKKKKKKKKKKKKKKKKKKKKKKKKKKKKKKKKKK",
"KKKKKKKKKKKKKKKKKKKKKKKKKKKKKKKKKKKKKKKKKKKKKKKKKKKKKKKKKKKKKKKKKKK",
"KKKKKKKKKKKKKKKKKKKKKKKKKKKKKKKKKKKKKKKKKKKKKKKKKKKKKKKKKKKKKKKKKKK",
"KKKKKKKKKKKKKKKKKKKKKKKKKKKKKKKKKKKKKKKKKKKKKKKKKKKKKKKKKKKKKKKKKKK",
"KKKKKKKKKKKKKKKKKKKKKKKKKKKKKKKKKKKKKKKKKKKKKKKKKKKKKKKKKKKKKKKKKKK",
"KKKKKKKKKKKKKKKKKKKKKKKKKKKKKKKKKKKKKKKKKKKKKKKKKKKKKKKKKKKKKKKKKKK",
"KKKKKKKKKKKKKKKKKKKKKKKKKKKKKKKKKKKKKKKKKKKKKKKKKKKKKKKKKKKKKKKKKKK",
"KKKKKKKKKKKKKKKKKKKKKKKKKKKKKKKKKKKKKKKKKKKKKKKKKKKKKKKKKKKKKKKKKKK",
"KKKKKKKKKKKKKKKKKKKKKKKKKKKKKKKKKKKKKKKKKKKKKKKKKKKKKKKKKKKKKKKKKKK",
"KKKKKKKKKKKKKKKKKKKKKKKKKKKKKKKKKKKKKKKKKKKKKKKKKKKKKKKKKKKKKKKKKKK",
"KKKKKKKKKKKKKKKKKKKKKKKKKKKKKKKKKKapsdd=KKKKKKKKKKKKKKKKKKKKKKKKKKK",
"KKKKKKKKKKKKKKKKKKKKKKKKKKKKKKKK=ppipsss=KKKKKKKKKKKKKKKKKKKKKKKKKK",
"KKKKKKKKKKKKKKKKKKKKKKKKKKKKKKKK-uiipsssuKKKKKKKKKKKKKKKKKKKKKKKKKK",
"KKKKKKKKKKKKKKKKKKKKKKKKKKKKKKK,,>uiisdsaKKKKKKKKKKKKKKKKKKKKKKKKKK",
"KKKKKKKKKKKKKKKKKKKKKKKKKKKKKKK=,=uipvnva=KKKKKKKKKKKKKKKKKKKKKKKKK",
"KKKKKKKKKKKKKKKKKKKKKKKKKKKKKKK$,,uicOO-cuKKKKKKKKKKKKKKKKKKKKKKKKK",
"KKKKKKKKKKKKKKKKKKKKKKKKKKKKKKK$,,>uxooo+f*KKKKKKKKKKKKKKKKKKKKKKKK",
"KKKKKKKKKKKKKKKKKKKKKKKKKKKKKKK,,,=fooXo+7uKKKKKKKKKKKKKKKKKKKKKKKK",
"KKKKKKKKKKKKKKKKKKKKKKKKKKKKKKK=,,=7ooooX+fpKKKKKKKKKKKKKKKKKKKKKKK",
"KKKKKKKKKKKKKKKKKKKKKKKKKKKKKKK-=,,7oXoo.+6i0jmKKKKKKKKKKKKKKKKKKKK",
"KKKKKKKKKKKKKKKKKKKKKKKKKKKKKKK*>=7Ooooo..O40gjkKKKKKKKKKKKKKKKKKKK",
"KKKKKKKKKKKKKKKKKKKKKKKKKKKKKKK->:6OoooX..+-$0hmKKKKKKKKKKKKKKKKKKK",
"KKKKKKKKKKKKKKKKKKKKKKKKKKKKKKKK=5.oooo..+4$#2rl1KKKKKKKKKKKKKKKKKK",
"KKKKKKKKKKKKKKKKKKKKKKKKKKKKKKKK$3o.XXXX++$#$2ek1KKKKKKKKKKKKKKKKKK",
"KKKKKKKKKKKKKKKKKKKKKKKKKKKKK11%++;....+@4+@,,wj2KKKKKKKKKKKKKKKKKK",
"KKKKKKKKKKKKKKKKKKKKKKKKKKKK1Bw,,+$;@@#44<#80#8ljKKKKKKKKKKKKKKKKKK",
"KKKKKKKKKKKKKKKKKKKKKKKKKKKKBz#,,OOO44-,<<9rr#<zMKKKKKKKKKKKKKKKKKK",
"KKKKKKKKKKKKKKKKKKKKKKKKKKK1zr&<22% $<-,,*BCB##rM1KKKKKKKKKKKKKKKKK",
"KKKKKKKKKKKKKKKKKKKKKKKKKKK8je288j:**---=yisC2#8zkKKKKKKKKKKKKKKKKK",
"KKKKKKKKKKKKKKKKKKKKKKKKKKKrew<*pspu>ub75yyas*K2kM1KKKKKKKKKKKKKKKK",
"KKKKKKKKKKKKKKKKKKKKKKKKKKKjw8Kupddds6cx73yipyK<rz8KKKKKKKKKKKKKKKK",
"KKKKKKKKKKKKKKKKKKKKKKKKKK2lr,K:yppppf.6.4uuyyK#wllKKKKKKKKKKKKKKKK",
"KKKKKKKKKKKKKKKKKKKKKKKKKKzzrKK=*:>yy;c.f;*==*K#8jMKKKKKKKKKKKKKKKK",
"KKKKKKKKKKKKKKKKKKKKKKKKK2zl8KK,,--**+;f4--,-,KK<wre1KKKKKKKKKKKKKK",
"KKKKKKKKKKKKKKKKKKKKKKKKKzzr#KKK,---,+==+----KKK#<rjrKKKKKKKKKKKKKK",
"KKKKKKKKKKKKKKKKKKKKKKKK8zkwKKKK--,,#<<<<# $KKKKK8ejjtKKKKKKKKKKKKK",
"KKKKKKKKKKKKKKKKKKKKKKKKzlr,KKKK2w&#8ewee<#KKKKKK,8wrN1KKKKKKKKKKKK",
"KKKKKKKKKKKKKKKKKKKKKKK1zkw#KKKK,e,,wwwew2#KKKKKKK#2wjzKKKKKKKKKKKK",
"KKKKKKKKKKKKKKKKKKKKKKKkke<KKKKK,w<8wwew22#KKKKKKKK#2wkjKKKKKKKKKKK",
"KKKKKKKKKKKKKKKKKKKKKK1Vz,#KKKKK28erwww88w=#KKKKKKKK#2wl8KKKKKKKKKK",
"KKKKKKKKKKKKKKKKKKKKKK2BkjKKKKK=erkewewwek=eKKKKKKKKK#8wk1KKKKKKKKK",
"KKKKKKKKKKKKKKKKKKKKKK8BjrKKKK,=llew8werl>zj,KKKKKKKKK#8ek1KKKKKKKK",
"KKKKKKKKKKKKKKKKKKKKKKwBr,KKKKkB=zk2,erlz>MNkKKKKKKKKKK#8eze<KKKKKK",
"KKKKKKKKKKKKKKKKKKKKKKrNrKKKK,BM>zljerjjk>NNM#KKKKKKKKKK#28eer8KKKK",
"KKKKKKKKKKKKKKKKKKKKKKkm8KKKKjBz>kjkljre>zMMm,KKKKKKKKKKK,eew888KKK",
"KKKKKKKKKKKKKKKKKKKKKKzz#KKKKmNzj>rrjre>qzMMm8KKKKKKKKKKKK<0ww#,KKK",
"KKKKKKKKKKKKKKKKKKKKKKBlKKKK#MMzj>>ewe>*qzmmzrKKKKKKKKKKKKK,88,,eKK",
"KKKKKKKKKKKKKKKKKKKKKKVjKKKK#mmlre>>w>*=kzzzzjKKKKKKKKKKKKKK#88<r#K",
"KKKKKKKKKKKKKKKKKKKKK#MZeKKK,zzlrw*>>>=rmmzzzkKKKKKKKKKKKKKKKK#2,KK",
"KKKKKKKKKKKKKKKKKKKKK#VZZN#K,zzlj8=*=*0hMmzzlkKKKKKKKKKKKKKKKKKKKKK",
"KKKKKKKKKKKKKKKKKKKKK2BN#22K,zzljr====jMMzzzlkKKKKKKKKKKKKKKKKKKKKK",
"KKKKKKKKKKKKKKKKKKKKK2zN#KKK,lzljr2==qjMMzzzkrKKKKKKKKKKKKKKKKKKKKK",
"KKKKKKKKKKKKKKKKKKKKK#kzlKKK,kzlkrw##hNNMmzlk8KKKKKKKKKKKKKKKKKKKKK",
"KKKKKKKKKKKKKKKKKKKKKKwkjKKK,jzljre,,MMMMmzlj#KKKKKKKKKKKKKKKKKKKKK",
"KKKKKKKKKKKKKKKKKKKKKKK,#KKK,rzljre22MMMMzzkrKKKKKKKKKKKKKKKKKKKKKK",
"KKKKKKKKKKKKKKKKKKKKKKKKKKKK,elljre2eMMMmzlj8KKKKKKKKKKKKKKKKKKKKKK",
"KKKKKKKKKKKKKKKKKKKKKKKKKKKK#wjkjrw2rmMmzlkr#KKKKKKKKKKKKKKKKKKKKKK",
"KKKKKKKKKKKKKKKKKKKKKKKKKKKK#wrjrew2ezmzlljeKKKKKKKKKKKKKKKKKKKKKKK",
"KKKKKKKKKKKKKKKKKKKKKKKKKKKK#werrew2ezzzlkj<KKKKKKKKKKKKKKKKKKKKKKK",
"KKKKKKKKKKKKKKKKKKKKKKKKKKKKKeerrw82ezzzlkr#KKKKKKKKKKKKKKKKKKKKKKK",
"KKKKKKKKKKKKKKKKKKKKKKKKKKKKKeerrw82wzzzljeKKKKKKKKKKKKKKKKKKKKKKKK",
"KKKKKKKKKKKKKKKKKKKKKKKKKKKKKeerre82wmzzlj<KKKKKKKKKKKKKKKKKKKKKKKK",
"KKKKKKKKKKKKKKKKKKKKKKKKKKKKKejrrew2ezzllr#KKKKKKKKKKKKKKKKKKKKKKKK",
"KKKKKKKKKKKKKKKKKKKKKKKKKKKKK8jeew82elkkkeKKKKKKKKKKKKKKKKKKKKKKKKK",
"KKKKKKKKKKKKKKKKKKKKKKKKKKKKK,eee882wjrrr,KKKKKKKKKKKKKKKKKKKKKKKKK",
"KKKKKKKKKKKKKKKKKKKKKKKKKKKKK#rre88<#wrrr#KKKKKKKKKKKKKKKKKKKKKKKKK",
"KKKKKKKKKKKKKKKKKKKKKKKKKKKKK#eee08##8eer#KKKKKKKKKKKKKKKKKKKKKKKKK",
"KKKKKKKKKKKKKKKKKKKKKKKKKKKKKKwwww8##20we<KKKKKKKKKKKKKKKKKKKKKKKKK",
"KKKKKKKKKKKKKKKKKKKKKKKKKKKKKK,8888#K<22w8KKKKKKKKKKKKKKKKKKKKKKKKK",
"KKKKKKKKKKKKKKKKKKKKKKKKKKKKKK#<222##,<<8wKKKKKKKKKKKKKKKKKKKKKKKKK",
"KKKKKKKKKKKKKKKKKKKKKKKKKKKKKKK82<2w#<2<2eKKKKKKKKKKKKKKKKKKKKKKKKK",
"KKKKKKKKKKKKKKKKKKKKKKKKKKKKKKK22<282,22<e#KKKKKKKKKKKKKKKKKKKKKKKK",
"KKKKKKKKKKKKKKKKKKKKKKKKKKKKKKK<<28wr,,<<8#KKKKKKKKKKKKKKKKKKKKKKKK",
"KKKKKKKKKKKKKKKKKKKKKKKKKKKKKKK<28ww2,,,<8,KKKKKKKKKKKKKKKKKKKKKKKK",
"KKKKKKKKKKKKKKKKKKKKKKKKKKKKKKK,88ww<,,,8w#KKKKKKKKKKKKKKKKKKKKKKKK",
"KKKKKKKKKKKKKKKKKKKKKKKKKKKKKKK#88ww2,,28w#KKKKKKKKKKKKKKKKKKKKKKKK",
"KKKKKKKKKKKKKKKKKKKKKKKKKKKKKKK#820w2,,22<KKKKKKKKKKKKKKKKKKKKKKKKK",
"KKKKKKKKKKKKKKKKKKKKKKKKKKKKKKKK,2882,,<<#KKKKKKKKKKKKKKKKKKKKKKKKK",
"KKKKKKKKKKKKKKKKKKKKKKKKKKKKKKKK#<882,,<<#KKKKKKKKKKKKKKKKKKKKKKKKK",
"KKKKKKKKKKKKKKKKKKKKKKKKKKKKKKKKK,282#,<<#KKKKKKKKKKKKKKKKKKKKKKKKK",
"KKKKKKKKKKKKKKKKKKKKKKKKKKKKKKKKK#20w#,22KKKKKKKKKKKKKKKKKKKKKKKKKK",
"KKKKKKKKKKKKKKKKKKKKKKKKKKKKKKKKKK8ww#,88KKKKKKKKKKKKKKKKKKKKKKKKKK",
"KKKKKKKKKKKKKKKKKKKKKKKKKKKKKKKKKK<w8#,88KKKKKKKKKKKKKKKKKKKKKKKKKK",
"KKKKKKKKKKKKKKKKKKKKKKKKKKKKKKKKKK#ww#<w8KKKKKKKKKKKKKKKKKKKKKKKKKK",
"KKKKKKKKKKKKKKKKKKKKKKKKKKKKKKKKKK#we,2wwKKKKKKKKKKKKKKKKKKKKKKKKKK",
"KKKKKKKKKKKKKKKKKKKKKKKKKKKKKKKKKKKee8werKKKKKKKKKKKKKKKKKKKKKKKKKK",
"KKKKKKKKKKKKKKKKKKKKKKKKKKKKKKKKKKKerrlkzwKKKKKKKKKKKKKKKKKKKKKKKKK",
"KKKKKKKKKKKKKKKKKKKKKKKKKKKKKKKKKKKlzMZAAAKKKKKKKKKKKKKKKKKKKKKKKKK",
"KKKKKKKKKKKKKKKKKKKKKKKKKKKKKKKKKKjANADDZZ#KKKKKKKKKKKKKKKKKKKKKKKK",
"KKKKKKKKKKKKKKKKKKKKKKKKKKKKKKKKKeGZAGHGGD#KKKKKKKKKKKKKKKKKKKKKKKK",
"KKKKKKKKKKKKKKKKKKKKKKKKKKKKKKKK<HJGAHHGDSKKKKKKKKKKKKKKKKKKKKKKKKK",
"KKKKKKKKKKKKKKKKKKKKKKKKKKKKKKKKAGFmlHDZCrKKKKKKKKKKKKKKKKKKKKKKKKK",
"KKKKKKKKKKKKKKKKKKKKKKKKKKKKKKKKK,<,#KKK8rw,KKKKKKKKKKKKKKKKKKKKKKK",
"KKKKKKKKKKKKKKKKKKKKKKKKKKKKKKKKKKKKKKKKKKKKKKKKKKKKKKKKKKKKKKKKKKK"
};
