/* XPM */
static char *__4[] = {
/* columns rows colors chars-per-pixel */
"67 108 68 1 ",
"  c black",
". c gray6",
"X c #131313",
"o c gray9",
"O c #1B1B1B",
"+ c gray12",
"@ c #3A3319",
"# c #232323",
"$ c #322D22",
"% c #392B27",
"& c #3D3626",
"* c #3A3A3A",
"= c #5C2103",
"- c #53200A",
"; c #4A271B",
": c #453C15",
"> c #662101",
", c #6F2200",
"< c #412921",
"1 c #423629",
"2 c #453F2A",
"3 c #4F3F2B",
"4 c #5D4E0E",
"5 c #514512",
"6 c #68570B",
"7 c #746107",
"8 c #7F6A04",
"9 c #5B4326",
"0 c #53472C",
"q c #674027",
"w c #704628",
"e c #604C33",
"r c #6D5536",
"t c #7B5C3C",
"y c #930C04",
"u c #821600",
"i c #9A1808",
"p c #A2240C",
"a c #A9300F",
"s c #B03C13",
"d c #B74817",
"f c #BE541B",
"g c #8B7300",
"h c #814F30",
"j c #866741",
"k c #976E45",
"l c #A0764A",
"z c #AD7F4E",
"x c #7B9C76",
"c c #9A8500",
"v c #A89600",
"b c #D4CB00",
"n c #B78C58",
"m c #C18564",
"M c #C49A69",
"N c #CF9876",
"B c #FFB962",
"V c #FFC370",
"C c #FFCD7F",
"Z c #D5AE80",
"A c #E3B490",
"S c #FFD78D",
"D c #E5C196",
"F c #FEE19C",
"G c #D8E3A2",
"H c #FEEBAA",
"J c #FEF5B9",
"K c None",
/* pixels */
"KKKKKKKKKKKKKKKKKKKKKKKKKKKKKKKKKKKKKKKKKKKKKKKKKKKKKKKKKKKKKKKKKKK",
"KKKKKKKKKKKKKKKKKKKKKKKKKKKKKKKKKKKKKKKKKKKKKKKKKKKKKKKKKKKKKKKKKKK",
"KKKKKKKKKKKKKKKKKKKKKKKKKKKKKKKKKKKKKKKKKKKKKKKKKKKKKKKKKKKKKKKKKKK",
"KKKKKKKKKKKKKKKKKKKKKKKKKKKKKKKKKKKKKKKKKKKKKKKKKKKKKKKKKKKKKKKKKKK",
"KKKKKKKKKKKKKKKKKKKKKKKKKKKKKKKKKKKKKKKKKKKKKKKKKKKKKKKKKKKKKKKKKKK",
"KKKKKKKKKKKKKKKKKKKKKKKKKKKKKKKKKKKKKKKKKKKKKKKKKKKKKKKKKKKKKKKKKKK",
"KKKKKKKKKKKKKKKKKKKKKKKKKKKKKKKKKKKKKKKKKKKKKKKKKKKKKKKKKKKKKKKKKKK",
"KKKKKKKKKKKKKKKKKKKKKKKKKKKKKKKKKKKKKKKKKKKKKKKKKKKKKKKKKKKKKKKKKKK",
"KKKKKKKKKKKKKKKKKKKKKKKKKKKKKKKKKKKKKKKKKKKKKKKKKKKKKKKKKKKKKKKKKKK",
"KKKKKKKKKKKKKKKKKKKKKKKKKKKKKKKKKKKKKKKKKKKKKKKKKKKKKKKKKKKKKKKKKKK",
"KKKKKKKKKKKKKKKKKKKKKKKKKKKKKKKKKKKKKKKKKKKKKKKKKKKKKKKKKKKKKKKKKKK",
"KKKKKKKKKKKKKKKKKKKKKKKKKKKKKKKKKKKKKKKKKKKKKKKKKKKKKKKKKKKKKKKKKKK",
"KKKKKKKKKKKKKKKKKKKKKKKKKKKKKKKKKKKKKKKKKKKKKKKKKKKKKKKKKKKKKKKKKKK",
"KKKKKKKKKKKKKKKKKKKKKKKKKKKKKKKKKKKKKKKKKKKKKKKKKKKKKKKKKKKKKKKKKKK",
"KKKKKKKKKKKKKKKKKKKKKKKKKKKKKKKKKKKKKKKKKKKKKKKKKKKKKKKKKKKKKKKKKKK",
"KKKKKKKKKKKKKKKKKKKKKKKKKKKKKKKKKKKKKKKKKKKKKKKKKKKKKKKKKKKKKKKKKKK",
"KKKKKKKKKKKKKKKKKKKKKKKKKKKKKKKKKKKKKKKKKKKKKKKKKKKKKKKKKKKKKKKKKKK",
"KKKKKKKKKKKKKKKKKKKKKKKKKKKKKKKKKKKKKKKKKKKKKKKKKKKKKKKKKKKKKKKKKKK",
"KKK<nlr2KKKKKKKKKKKKKKKKKKKKKKKKKKKKKKKKKKKKKKKKKKKKKKKKKKKKKKKKKKK",
"KKr9l99k9KKKKKKKKKKKKKKKKKKKKKKKKKKKKKKKKKKKKKKKKKKKKKKKKKKKKKKKKKK",
"$k999<<9jj2KKKKKKKKKKKKKKKKKKKKKKKKKKKKKKKKKKKKKKKKKKKKKKKKKKKKKKKK",
"$3$KKKK<9rz9KKKKKKKKKKKKKKKKKKKKKKKKK=paaaa<KKKKKKKKKKKKKKKKKKKKKKK",
"KKKKKKKK$3rzM2KKKKKKKKKKKKKKKKKKKKKKvg-asppu<KKKKKKKKKKKKKKKKKKKKKK",
"KKKKKKKKK$3elCM2KKKKKKKKKKKKKKKKKKKgXO8-piu,>KKKKKKKKKKKKKKKKKKKKKK",
"KKKKKKKKKKK1etMClKKKKKKKKKKKKKKKKK7XXXX6,uu>><KKKKKKKKKKKKKKKKKKKKK",
"KKKKKKKKKKKK<9rkAMx0KKKKKKKKKKKKKK:XX..o6,u--<KKKKKKKKKKKKKKKKKKKKK",
"KKKKKKKKKKKKK<39jMSFHZt2KKKKKKKKK7+X+X.X4----<KKKKKKKKKKKKKKKKKKKKK",
"KKKKKKKKKKKKKK193erjnNDHGZxjrrKKK7++XoXO4----<KKKKKKKKKKKKKKKKKKKKK",
"KKKKKKKKKKKKKKKKK$19999tlZSCzjr2+6X+XXX#5----<KKKKKKKKKKKKKKKKKKKKK",
"KKKKKKKKKKKKKKKKKKKK$$<139etljr&+4++XX.X:-uu-<KKKKKKKKKKKKKKKKKKKKK",
"KKKKKKKKKKKKKKKKKKKKKKKKKK$393w1%5++..XoO:pi=<KKKKKKKKKKKKKKKKKKKKK",
"KKKKKKKKKKKKKKKKKKKKKKKKKKKKK$39=:+X+.XX.:p=<<KKKKKKKKKKKKKKKKKKKKK",
"KKKKKKKKKKKKKKKKKKKKKKKKKKKKKKK@1<:.+XX..@<=<%KKKKKKKKKKKKKKKKKKKKK",
"KKKKKKKKKKKKKKKKKKKKKKKKKKKKKKK&3=:+X+oXX@-%%KKKKKKKKKKKKKKKKKKKKKK",
"KKKKKKKKKKKKKKKKKKKKKKKKKKKKKKKmj=<:+<<@@%<;9$KKKKKKKKKKKKKKKKKKKKK",
"KKKKKKKKKKKKKKKKKKKKKKKKKKKKKKKVVj;;3>;;@<;&rmKKKKKKKKKKKKKKKKKKKKK",
"KKKKKKKKKKKKKKKKKKKKKKKKKKKKKK*Shq>b86-<<;9@rMMKKKKKKKKKKKKKKKKKKKK",
"KKKKKKKKKKKKKKKKKKKKKKKKKKKKKKyfff7vc84y===rznM2KKKKKKKKKKKKKKKKKKK",
"KKKKKKKKKKKKKKKKKKKKKKKKKKKKK ypsdg.7.5>y,iilzn3KKKKKKKKKKKKKKKKKKK",
"KKKKKKKKKKKKKKKKKKKKKKKKKKKKK-=,ui:v.g:,,,,u=lz3KKKKKKKKKKKKKKKKKKK",
"KKKKKKKKKKKKKKKKKKKKKKKKKKKKK-;-==-:g5-====-;zm9KKKKKKKKKKKKKKKKKKK",
"KKKKKKKKKKKKKKKKKKKKKKKKKKKKKK-;;;;311<--;-;1MNrKKKKKKKKKKKKKKKKKKK",
"KKKKKKKKKKKKKKKKKKKKKKKKKKKKKKK-==rtjzt;<<;$$mNlKKKKKKKKKKKKKKKKKKK",
"KKKKKKKKKKKKKKKKKKKKKKKKKKKKKKK<$rtttkkj<;r$KlNMKKKKKKKKKKKKKKKKKKK",
"KKKKKKKKKKKKKKKKKKKKKKKKKKKKKKK$rtrttttttre$KtNN2KKKKKKKKKKKKKKKKKK",
"KKKKKKKKKKKKKKKKKKKKKKKKKKKKKKKKerrrtrrrtj9$KemNrKKKKKKKKKKKKKKKKKK",
"KKKKKKKKKKKKKKKKKKKKKKKKKKKKKKKK<qertrrrtj1$K1nNzKKKKKKKKKKKKKKKKKK",
"KKKKKKKKKKKKKKKKKKKKKKKKKKKKKKKK$99errrrtj<KK$kNN2KKKKKKKKKKKKKKKKK",
"KKKKKKKKKKKKKKKKKKKKKKKKKKKKKKKK$e9errrrtt1KK$tnm2KKKKKKKKKKKKKKKKK",
"KKKKKKKKKKKKKKKKKKKKKKKKKKKKKKKK-reeererrr9e<$elMrKKKKKKKKKKKKKKKKK",
"KKKKKKKKKKKKKKKKKKKKKKKKKKKKKKK<-ejtrrerrre-M$3nNmKKKKKKKKKKKKKKKKK",
"KKKKKKKKKKKKKKKKKKKKKKKKKKKKKKKmN-ekre9errt-mj3tMMKKKKKKKKKKKKKKKKK",
"KKKKKKKKKKKKKKKKKKKKKKKKKKKKKK$MNm-zjr<ettt-lmjjmM2KKKKKKKKKKKKKKKK",
"KKKKKKKKKKKKKKKKKKKKKKKKKKKKKKrmMne-ltttttt,jmkzNN2KKKKKKKKKKKKKKKK",
"KKKKKKKKKKKKKKKKKKKKKKKKKKKKKKkmMlj,jjkjtt,rjzkkMZ3KKKKKKKKKKKKKKKK",
"KKKKKKKKKKKKKKKKKKKKKKKKKKKKKKzmmztt,tjtt,erjlltMBrKKKKKKKKKKKKKKKK",
"KKKKKKKKKKKKKKKKKKKKKKKKKKKKK$znnztr,,rrr,etjkktzVlKKKKKKKKKKKKKKKK",
"KKKKKKKKKKKKKKKKKKKKKKKKKKKKK1zzzljre=,e,-ejjzzjtZmKKKKKKKKKKKKKKKK",
"KKKKKKKKKKKKKKKKKKKKKKKKKKKKK9lzzkjre=,,=-etjzmj9NNKKKKKKKKKKKKKKKK",
"KKKKKKKKKKKKKKKKKKKKKKKKKKKKKelzlktte-==-=etknmjeMZ2KKKKKKKKKKKKKKK",
"KKKKKKKKKKKKKKKKKKKKKKKKKKKKKrkllktt9-----etknmzDHDjKKKKKKKKKKKKKKK",
"KKKKKKKKKKKKKKKKKKKKKKKKKKKKKekllkjt9<-<-<rkzzmZZMJJ0KKKKKKKKKKKKKK",
"KKKKKKKKKKKKKKKKKKKKKKKKKKKKK3kllkjte$$K$<rzMMMZtKnHGKKKKKKKKKKKKKK",
"KKKKKKKKKKKKKKKKKKKKKKKKKKKKK<kllkjtr$KKK<rmmNMmtKK3eKKKKKKKKKKKKKK",
"KKKKKKKKKKKKKKKKKKKKKKKKKKKKK$jlzkjtr$KKK<jnmMMmrKKKKKKKKKKKKKKKKKK",
"KKKKKKKKKKKKKKKKKKKKKKKKKKKKKKjllkjtr$KKK$lnmmmmrKKKKKKKKKKKKKKKKKK",
"KKKKKKKKKKKKKKKKKKKKKKKKKKKKKKeklkttr$KKK$lzzmnnrKKKKKKKKKKKKKKKKKK",
"KKKKKKKKKKKKKKKKKKKKKKKKKKKKKK3jkjtte$KKK$jlzznzeKKKKKKKKKKKKKKKKKK",
"KKKKKKKKKKKKKKKKKKKKKKKKKKKKKK<jjjtte$KKKKrklznz3KKKKKKKKKKKKKKKKKK",
"KKKKKKKKKKKKKKKKKKKKKKKKKKKKKK$tjjtr9$KKKKrjlznl<KKKKKKKKKKKKKKKKKK",
"KKKKKKKKKKKKKKKKKKKKKKKKKKKKKKKtjjtr3$KKKK9kzznt<KKKKKKKKKKKKKKKKKK",
"KKKKKKKKKKKKKKKKKKKKKKKKKKKKKKKrjktr3$KKKK3kzzzr<KKKKKKKKKKKKKKKKKK",
"KKKKKKKKKKKKKKKKKKKKKKKKKKKKKKK9kkte3KKKKK<kllke$KKKKKKKKKKKKKKKKKK",
"KKKKKKKKKKKKKKKKKKKKKKKKKKKKKKK<jjte3KKKKK$jjjte$KKKKKKKKKKKKKKKKKK",
"KKKKKKKKKKKKKKKKKKKKKKKKKKKKKKK$jtre1KKKKK$rtkkl$KKKKKKKKKKKKKKKKKK",
"KKKKKKKKKKKKKKKKKKKKKKKKKKKKKKK$trre<KKKKK$9tjjk$KKKKKKKKKKKKKKKKKK",
"KKKKKKKKKKKKKKKKKKKKKKKKKKKKKKKKtttq<KKKKKK9jtrt$KKKKKKKKKKKKKKKKKK",
"KKKKKKKKKKKKKKKKKKKKKKKKKKKKKKKKttr9<KKKKKK$jree$KKKKKKKKKKKKKKKKKK",
"KKKKKKKKKKKKKKKKKKKKKKKKKKKKKKKKtrr9$KKKKKK$r999$KKKKKKKKKKKKKKKKKK",
"KKKKKKKKKKKKKKKKKKKKKKKKKKKKKKKKr999$KKKKKKK3113$KKKKKKKKKKKKKKKKKK",
"KKKKKKKKKKKKKKKKKKKKKKKKKKKKKKKKr393$KKKKKKK<113<KKKKKKKKKKKKKKKKKK",
"KKKKKKKKKKKKKKKKKKKKKKKKKKKKKKKKr331$KKKKKK$<113<KKKKKKKKKKKKKKKKKK",
"KKKKKKKKKKKKKKKKKKKKKKKKKKKKKKK$r311$KKKKKK<13<3eKKKKKKKKKKKKKKKKKK",
"KKKKKKKKKKKKKKKKKKKKKKKKKKKKKKK$r33<1KKKKKK1999rtKKKKKKKKKKKKKKKKKK",
"KKKKKKKKKKKKKKKKKKKKKKKKKKKKKKK1r999tKKKKKK99eettKKKKKKKKKKKKKKKKKK",
"KKKKKKKKKKKKKKKKKKKKKKKKKKKKKKK3treej$KKKKK399ertKKKKKKKKKKKKKKKKKK",
"KKKKKKKKKKKKKKKKKKKKKKKKKKKKKKK1jteej<KKKKK399ee9KKKKKKKKKKKKKKKKKK",
"KKKKKKKKKKKKKKKKKKKKKKKKKKKKKKK$trert<KKKKK<3999$KKKKKKKKKKKKKKKKKK",
"KKKKKKKKKKKKKKKKKKKKKKKKKKKKKKKKrqeer$KKKKK$3993KKKKKKKKKKKKKKKKKKK",
"KKKKKKKKKKKKKKKKKKKKKKKKKKKKKKKK399qr$KKKKKK3993KKKKKKKKKKKKKKKKKKK",
"KKKKKKKKKKKKKKKKKKKKKKKKKKKKKKKK$39erKKKKKKK19e1KKKKKKKKKKKKKKKKKKK",
"KKKKKKKKKKKKKKKKKKKKKKKKKKKKKKKKK99e9KKKKKKK<qe<KKKKKKKKKKKKKKKKKKK",
"KKKKKKKKKKKKKKKKKKKKKKKKKKKKKKKKK9qr3KKKKKKK<qe$KKKKKKKKKKKKKKKKKKK",
"KKKKKKKKKKKKKKKKKKKKKKKKKKKKKKKKK9rr1KKKKKKK$er$KKKKKKKKKKKKKKKKKKK",
"KKKKKKKKKKKKKKKKKKKKKKKKKKKKKKKKK1rt<KKKKKKK$er$KKKKKKKKKKKKKKKKKKK",
"KKKKKKKKKKKKKKKKKKKKKKKKKKKKKKKKK<tt<KKKKKKK<er$KKKKKKKKKKKKKKKKKKK",
"KKKKKKKKKKKKKKKKKKKKKKKKKKKKKKKKK$tt3KKKKKKK1er$KKKKKKKKKKKKKKKKKKK",
"KKKKKKKKKKKKKKKKKKKKKKKKKKKKKKKKK$tteKKKKKKK3er$KKKKKKKKKKKKKKKKKKK",
"KKKKKKKKKKKKKKKKKKKKKKKKKKKKKKKKK$jjkKKKKKKK3rtkKKKKKKKKKKKKKKKKKKK",
"KKKKKKKKKKKKKKKKKKKKKKKKKKKKKKKKK$kkzKKKKKKK3tjmtKKKKKKKKKKKKKKKKKK",
"KKKKKKKKKKKKKKKKKKKKKKKKKKKKKKKKKMzzm$KKKKKK1tlMN$KKKKKKKKKKKKKKKKK",
"KKKKKKKKKKKKKKKKKKKKKKKKKKKKKKKKeVNmm$KKKKKK<tzMNrKKKKKKKKKKKKKKKKK",
"KKKKKKKKKKKKKKKKKKKKKKKKKKKKKKKKMSVMkKKKKKKK$rlMNmKKKKKKKKKKKKKKKKK",
"KKKKKKKKKKKKKKKKKKKKKKKKKKKKKKKKCCVMkKKKKKKKKrkmNNKKKKKKKKKKKKKKKKK",
"KKKKKKKKKKKKKKKKKKKKKKKKKKKKKKK$CCVMlKKKKKKKK9kmMmKKKKKKKKKKKKKKKKK",
"KKKKKKKKKKKKKKKKKKKKKKKKKKKKKKK$ZVVAlKKKKKKKK<znntKKKKKKKKKKKKKKKKK",
"KKKKKKKKKKKKKKKKKKKKKKKKKKKKKKKK9mZCtKKK9te<KKzzjKKKKKKKKKKKKKKKKKK",
"KKKKKKKKKKKKKKKKKKKKKKKKKKKKKKKKKKKKKKKKKKKKKKKKKKKKKKKKKKKKKKKKKKK"
};
