/* XPM */
static char *__5[] = {
/* columns rows colors chars-per-pixel */
"67 108 65 1 ",
"  c gray6",
". c #131313",
"X c gray9",
"o c #1B1B1B",
"O c gray12",
"+ c #1E371E",
"@ c #3A3319",
"# c #232323",
"$ c #322D22",
"% c #3A3A3A",
"& c #5C2103",
"* c #53200A",
"= c #4A271B",
"- c #453C15",
"; c #662101",
": c #6F2200",
"> c #412921",
", c #423629",
"< c #453F2A",
"1 c #4F3F2B",
"2 c #5D4E0E",
"3 c #514512",
"4 c #68570B",
"5 c #746107",
"6 c #7F6A04",
"7 c #5B4326",
"8 c #53472C",
"9 c #674027",
"0 c #604C33",
"q c #6D5536",
"w c #7B5C3C",
"e c #434343",
"r c gray39",
"t c #930C04",
"y c #821600",
"u c #9A1808",
"i c #A2240C",
"p c #A9300F",
"a c #B03C13",
"s c #B74817",
"d c #BE541B",
"f c #8B7300",
"g c #985D3F",
"h c #866741",
"j c #976E45",
"k c #A0764A",
"l c #AD7F4E",
"z c #7B9C76",
"x c #9A8500",
"c c #A89600",
"v c #B7A800",
"b c #C5B900",
"n c #D4CB00",
"m c #B78C58",
"M c #C18564",
"N c #C49A69",
"B c #CF9876",
"V c #FFB962",
"C c #FFC370",
"Z c #FFCD7F",
"A c #D5AE80",
"S c #E3B490",
"D c #FEE19C",
"F c #FEEBAA",
"G c None",
/* pixels */
"GGGGGGGGGGGGGGGGGGGGGGGGG+$GGGGGGGGGGGGGGGGGGGGGGGGGGGGGGGGGGGGGGGG",
"GGGGGGGGGGGGGGGGGGGGGGGqDDFF0GGGGGGGGGGGGGGGGGGGGGGGGGGGGGGGGGGGGGG",
"GGGGGGGGGGGGGGGGGGGGGGzFh$Zj,GGGGGGGGGGGGGGGGGGGGGGGGGGGGGGGGGGGGGG",
"GGGGGGGGGGGGGGGGGGGGG,N>GGN>0GGGGGGGGGGGGGGGGGGGGGGGGGGGGGGGGGGGGGG",
"GGGGGGGGGGGGGGGGGGGGGGGGGG$$h$GGGGGGGGGGGGGGGGGGGGGGGGGGGGGGGGGGGGG",
"GGGGGGGGGGGGGGGGGGGGGGGGGG$$j>GGGGGGGGGGGGGGGGGGGGGGGGGGGGGGGGGGGGG",
"GGGGGGGGGGGGGGGGGGGGGGGGGG$1j7GGGGGGGGGGGGGGGGGGGGGGGGGGGGGGGGGGGGG",
"GGGGGGGGGGGGGGGGGGGGGGGGGG$0jwGGGGGGGGGGGGGGGGGGGGGGGGGGGGGGGGGGGGG",
"GGGGGGGGGGGGGGGGGGGGGGGGGG$wjlGGGGGGGGGGGGGGGGGGGGGGGGGGGGGGGGGGGGG",
"GGGGGGGGGGGGGGGGGGGGGGGGGGGkjm$GGGGGGGGGGGGGGGGGGGGGGGGGGGGGGGGGGGG",
"GGGGGGGGGGGGGGGGGGGGGGGGGG$kjkqGGGGGGGGGGGGGGGGGGGGGGGGGGGGGGGGGGGG",
"GGGGGGGGGGGGGGGGGGGGGGGGGG$jhhjGGGGGGGGGGGGGGGGGGGGGGGGGGGGGGGGGGGG",
"GGGGGGGGGGGGGGGGGGGGGGGGGG$hqqlGGGGGGGGGGGGGGGGGGGGGGGGGGGGGGGGGGGG",
"GGGGGGGGGGGGGGGGGGGGGGGGGGG$wMlGGGGGGGGGGGGGGGGGGGGGGGGGGGGGGGGGGGG",
"GGGGGGGGGGGGGGGGGGGGGGGGGGG$BNkGGGGGGGGGGGGGGGGGGGGGGGGGGGGGGGGGGGG",
"GGGGGGGGGGGGGGGGGGGGGGGGGGG$jhkGGGGGGGGGGGGGGGGGGGGGGGGGGGGGGGGGGGG",
"GGGGGGGGGGGGGGGGGGGGGGGGGGGGhjk$GGGGGGGGGGGGGGGGGGGGGGGGGGGGGGGGGGG",
"GGGGGGGGGGGGGGGGGGGGGGGGGGGGwhk$GGGGGGGGGGGGGGGGGGGGGGGGGGGGGGGGGGG",
"GGGGGGGGGGGGGGGGGGGGGGGGGGGG7hk$GGGGGGGGGGGGGGGGGGGGGGGGGGGGGGGGGGG",
"GGGGGGGGGGGGGGGGGGGGGGGGGGGG>wj>GGGGxcvbpGGGGGGGGGGGGGGGGGGGGGGGGGG",
"GGGGGGGGGGGGGGGGGGGGGGGGGGGG$qh,GGGf.  csuGGGGGGGGGGGGGGGGGGGGGGGGG",
"GGGGGGGGGGGGGGGGGGGGGGGGGGGGGqw7GGf..   fp*GGGGGGGGGGGGGGGGGGGGGGGG",
"GGGGGGGGGGGGGGGGGGGGGGGGGGGGGwkjGG6.X...fu*GGGGGGGGGGGGGGGGGGGGGGGG",
"GGGGGGGGGGGGGGGGGGGGGGGGGGGGGhlMG6..... 6y*GGGGGGGGGGGGGGGGGGGGGGGG",
"GGGGGGGGGGGGGGGGGGGGGGGGGGGGGhjl>5.    .6***GGGGGGGGGGGGGGGGGGGGGGG",
"GGGGGGGGGGGGGGGGGGGGGGGGGGGGGwwg95    ..4***GGGGGGGGGGGGGGGGGGGGGGG",
"GGGGGGGGGGGGGGGGGGGGGGGGGGGGG7w=4. . ...4*;*GGGGGGGGGGGGGGGGGGGGGGG",
"GGGGGGGGGGGGGGGGGGGGGGGGGGGGG$q94. . X .4*;;GGGGGGGGGGGGGGGGGGGGGGG",
"GGGGGGGGGGGGGGGGGGGGGGGGGGGGGG0w2.. X ..O2iiGGGGGGGGGGGGGGGGGGGGGGG",
"GGGGGGGGGGGGGGGGGGGGGGGGGGGGGG$w2. .  .   2pGGGGGGGGGGGGGGGGGGGGGGG",
"GGGGGGGGGGGGGGGGGGGGGGGGGGGGGGG0@3.#..oO  -iGGGGGGGGGGGGGGGGGGGGGGG",
"GGGGGGGGGGGGGGGGGGGGGGGGGGGGGG$,03o # #    *GGGGGGGGGGGGGGGGGGGGGGG",
"GGGGGGGGGGGGGGGGGGGGGGGGGGGGGGeqh--o.o OOO-*GGGGGGGGGGGGGGGGGGGGGGG",
"GGGGGGGGGGGGGGGGGGGGGGGGGGGGGG*mV08-6-OO--==qNGGGGGGGGGGGGGGGGGGGGG",
"GGGGGGGGGGGGGGGGGGGGGGGGGGGGGG&msd&&&&--=*&0jNMGGGGGGGGGGGGGGGGGGGG",
"GGGGGGGGGGGGGGGGGGGGGGGGGGGGGG&tsddttn64tsddSMN0GGGGGGGGGGGGGGGGGGG",
"GGGGGGGGGGGGGGGGGGGGGGGGGGGGGG*uupss5cx62aipummhGGGGGGGGGGGGGGGGGGG",
"GGGGGGGGGGGGGGGGGGGGGGGGGGGGGG=&::yif 5 3y::yyljGGGGGGGGGGGGGGGGGGG",
"GGGGGGGGGGGGGGGGGGGGGGGGGGGGGG>=**;:-c f-&&&&&llGGGGGGGGGGGGGGGGGGG",
"GGGGGGGGGGGGGGGGGGGGGGGGGGGGGG$=====O-f3O=====mB<GGGGGGGGGGGGGGGGGG",
"GGGGGGGGGGGGGGGGGGGGGGGGGGGGGGG=*==>77771$===$kBqGGGGGGGGGGGGGGGGGG",
"GGGGGGGGGGGGGGGGGGGGGGGGGGGGGGG1w$1jjjwhhh%0$GqNmGGGGGGGGGGGGGGGGGG",
"GGGGGGGGGGGGGGGGGGGGGGGGGGGGGGG>w0wwwwqwwwhw$G,lB<GGGGGGGGGGGGGGGGG",
"GGGGGGGGGGGGGGGGGGGGGGGGGGGGGGGG00qqqwqqqwhwGG$jBjGGGGGGGGGGGGGGGGG",
"GGGGGGGGGGGGGGGGGGGGGGGGGGGGGGGG$7770qqqqqwqGGGqMB<GGGGGGGGGGGGGGGG",
"GGGGGGGGGGGGGGGGGGGGGGGGGGGGGGGGG77790qqqqw7GGG7lj0GGGGGGGGGGGGGGGG",
"GGGGGGGGGGGGGGGGGGGGGGGGGGGGGGGGG>0770qqqqw7GGG>whjGGGGGGGGGGGGGGGG",
"GGGGGGGGGGGGGGGGGGGGGGGGGGGGGGGGG>0777qq0qw0GGGG7whGGGGGGGGGGGGGGGG",
"GGGGGGGGGGGGGGGGGGGGGGGGGGGGGGGG$M*q00000qwwGGGG,hjrGGGGGGGGGGGGGGG",
"GGGGGGGGGGGGGGGGGGGGGGGGGGGGGGGGMBN*hq000qwj*GGGhklj<GGGGGGGGGGGGGG",
"GGGGGGGGGGGGGGGGGGGGGGGGGGGGGGGwBBNM*hq000wk*1GG7wlN<GGGGGGGGGGGGGG",
"GGGGGGGGGGGGGGGGGGGGGGGGGGGGGGGMBBMNm*wq>qkm*qGG$qjM7GGGGGGGGGGGGGG",
"GGGGGGGGGGGGGGGGGGGGGGGGGGGGGG7MNNMml*hwjlll:w$GG1hmwGGGGGGGGGGGGGG",
"GGGGGGGGGGGGGGGGGGGGGGGGGGGGGGkMNMmkw:wklkj:0w1GG$wlmGGGGGGGGGGGGGG",
"GGGGGGGGGGGGGGGGGGGGGGGGGGGGG$mMMMlhw&wjhhw:wwwGGG0lN<GGGGGGGGGGGGG",
"GGGGGGGGGGGGGGGGGGGGGGGGGGGGG7mmmmlhw*&qq0:qhwq$GG>jM7GGGGGGGGGGGGG",
"GGGGGGGGGGGGGGGGGGGGGGGGGGGG$jlllllkw*&&0**0hww7GG$wmhGGGGGGGGGGGGG",
"GGGGGGGGGGGGGGGGGGGGGGGGGGGG$llllkkkw**&&**qwhwwGGG0lmGGGGGGGGGGGGG",
"GGGGGGGGGGGGGGGGGGGGGGGGGGGG$kllkkjkh7****>qwhwlGGG,kN1GGGGGGGGGGGG",
"GGGGGGGGGGGGGGGGGGGGGGGGGGGG$jkkkjhkk1&*&*,qwhwk1GG>wjB<GGGGGGGGGGG",
"GGGGGGGGGGGGGGGGGGGGGGGGGGGGGhjkkjhjlq7**>7qwhhlhGG0wlBjGGGGGGGGGGG",
"GGGGGGGGGGGGGGGGGGGGGGGGGGGGGqhjkjhjlw>>$$70whhlMGG0wlMMGGGGGGGGGGG",
"GGGGGGGGGGGGGGGGGGGGGGGGGGGGG,hjjjhjlkGGG>1qwwhmN$G7qhkl0GGGGGGGGGG",
"GGGGGGGGGGGGGGGGGGGGGGGGGGGGG$whjjhjllGGG$10qwhmM0G,0wklwGGGGGGGGGG",
"GGGGGGGGGGGGGGGGGGGGGGGGGGGGGGqwjjhjklGGG$,7qwhlMjG>$9jkjGGGGGGGGGG",
"GGGGGGGGGGGGGGGGGGGGGGGGGGGGGG7whhhjkkGGGG>10whlmmG$G$hljGGGGGGGGGG",
"GGGGGGGGGGGGGGGGGGGGGGGGGGGGGG>qwhwhjjGGGG$,7qwjlm$GGG7q$GGGGGGGGGG",
"GGGGGGGGGGGGGGGGGGGGGGGGGGGGGG$qwwwwjhGGGG$>70qwlm>GGGGGGGGGGGGGGGG",
"GGGGGGGGGGGGGGGGGGGGGGGGGGGGGGGqwwwwjwGGGGG>,70wjl7GGGGGGGGGGGGGGGG",
"GGGGGGGGGGGGGGGGGGGGGGGGGGGGGGG7wwwwj9GGGGG$>17qhlhGGGGGGGGGGGGGGGG",
"GGGGGGGGGGGGGGGGGGGGGGGGGGGGGGG>whhwj1GGGGG$>170wllGGGGGGGGGGGGGGGG",
"GGGGGGGGGGGGGGGGGGGGGGGGGGGGGGG$qhhwj,GGGGGG>,70wjl$GGGGGGGGGGGGGGG",
"GGGGGGGGGGGGGGGGGGGGGGGGGGGGGGGGwhhqh>GGGGGG$,17qwj,GGGGGGGGGGGGGGG",
"GGGGGGGGGGGGGGGGGGGGGGGGGGGGGGGGqwwqq$GGGGGG$>170wj0GGGGGGGGGGGGGGG",
"GGGGGGGGGGGGGGGGGGGGGGGGGGGGGGGG7wqqw$GGGGGGG,117qjwGGGGGGGGGGGGGGG",
"GGGGGGGGGGGGGGGGGGGGGGGGGGGGGGGG1wwqwGGGGGGGG$,170hhGGGGGGGGGGGGGGG",
"GGGGGGGGGGGGGGGGGGGGGGGGGGGGGGGG7wwq0GGGGGGGGG$,70qwGGGGGGGGGGGGGGG",
"GGGGGGGGGGGGGGGGGGGGGGGGGGGGGGGGqw097GGGGGGGGG$,7700GGGGGGGGGGGGGGG",
"GGGGGGGGGGGGGGGGGGGGGGGGGGGGGGGGwq771GGGGGGGGGG>1179GGGGGGGGGGGGGGG",
"GGGGGGGGGGGGGGGGGGGGGGGGGGGGGGGGhq71>GGGGGGGGGG>,,17GGGGGGGGGGGGGGG",
"GGGGGGGGGGGGGGGGGGGGGGGGGGGGGGG$h011>GGGGGGGGGG>>,,7GGGGGGGGGGGGGGG",
"GGGGGGGGGGGGGGGGGGGGGGGGGGGGGGG0w01,$GGGGGGGGGG,1117$GGGGGGGGGGGGGG",
"GGGGGGGGGGGGGGGGGGGGGGGGGGGGGGGww071$GGGGGGGGGG7700q1GGGGGGGGGGGGGG",
"GGGGGGGGGGGGGGGGGGGGGGGGGGGGGGGwh007$GGGGGGGGGG0000wqGGGGGGGGGGGGGG",
"GGGGGGGGGGGGGGGGGGGGGGGGGGGGGGG0hqq0>GGGGGGGGGG7000whGGGGGGGGGGGGGG",
"GGGGGGGGGGGGGGGGGGGGGGGGGGGGGGG1wqq01GGGGGGGGGG,000qhGGGGGGGGGGGGGG",
"GGGGGGGGGGGGGGGGGGGGGGGGGGGGGGG$q007,GGGGGGGGGG$7000wGGGGGGGGGGGGGG",
"GGGGGGGGGGGGGGGGGGGGGGGGGGGGGGG$7797>GGGGGGGGGG$77077GGGGGGGGGGGGGG",
"GGGGGGGGGGGGGGGGGGGGGGGGGGGGGGG$,777$GGGGGGGGGGG,707,GGGGGGGGGGGGGG",
"GGGGGGGGGGGGGGGGGGGGGGGGGGGGGGGG$777$GGGGGGGGGGG$700>GGGGGGGGGGGGGG",
"GGGGGGGGGGGGGGGGGGGGGGGGGGGGGGGG$797GGGGGGGGGGGGG700,GGGGGGGGGGGGGG",
"GGGGGGGGGGGGGGGGGGGGGGGGGGGGGGGG$007GGGGGGGGGGGGG,0q1GGGGGGGGGGGGGG",
"GGGGGGGGGGGGGGGGGGGGGGGGGGGGGGGG$q07GGGGGGGGGGGGG>0q7GGGGGGGGGGGGGG",
"GGGGGGGGGGGGGGGGGGGGGGGGGGGGGGGG$qq7GGGGGGGGGGGGG$qq9GGGGGGGGGGGGGG",
"GGGGGGGGGGGGGGGGGGGGGGGGGGGGGGGGGqq7GGGGGGGGGGGGGGwq0GGGGGGGGGGGGGG",
"GGGGGGGGGGGGGGGGGGGGGGGGGGGGGGGGG0w0GGGGGGGGGGGGGGwqwGGGGGGGGGGGGGG",
"GGGGGGGGGGGGGGGGGGGGGGGGGGGGGGGGGqw0GGGGGGGGGGGGGGhqhGGGGGGGGGGGGGG",
"GGGGGGGGGGGGGGGGGGGGGGGGGGGGGGGGGhhq$GGGGGGGGGGGGGwww$GGGGGGGGGGGGG",
"GGGGGGGGGGGGGGGGGGGGGGGGGGGGGGGGNlhq$GGGGGGGGGGGGGwhhl$GGGGGGGGGGGG",
"GGGGGGGGGGGGGGGGGGGGGGGGGGGGGGGGCMkw$GGGGGGGGGGGGGwhjNNGGGGGGGGGGGG",
"GGGGGGGGGGGGGGGGGGGGGGGGGGGGGGG$ABMk>GGGGGGGGGGGGG7hkBCNGGGGGGGGGGG",
"GGGGGGGGGGGGGGGGGGGGGGGGGGGGGGG$ABBl1GGGGGGGGGGGGGGwkNCCwGGGGGGGGGG",
"GGGGGGGGGGGGGGGGGGGGGGGGGGGGGGG$BABM0GGGGGGGGGGGGGG$jMCCVGGGGGGGGGG",
"GGGGGGGGGGGGGGGGGGGGGGGGGGGGGGGGBBBMwGGGGGGGGGGGGGGG0lBCV,GGGGGGGGG",
"GGGGGGGGGGGGGGGGGGGGGGGGGGGGGGGGkBNAmGGGGGGGGGGGGGGGGhMBN$GGGGGGGGG",
"GGGGGGGGGGGGGGGGGGGGGGGGGGGGGGGG$lBVV>GGGGGGGGGGGGGGG$kNkGGGGGGGGGG",
"GGGGGGGGGGGGGGGGGGGGGGGGGGGGGGGGGG0lB$GG7w0>GGGGGGGGGG$w>GGGGGGGGGG",
"GGGGGGGGGGGGGGGGGGGGGGGGGGGGGGGGGGG$7GGGGGGGGGGGGGGGGGGGGGGGGGGGGGG"
};
