/* XPM */
static char *__6[] = {
/* columns rows colors chars-per-pixel */
"67 108 55 1 ",
"  c gray6",
". c #131313",
"X c gray9",
"o c #1B1B1B",
"O c gray12",
"+ c #3A3319",
"@ c #322D22",
"# c #5C2103",
"$ c #53200A",
"% c #4A271B",
"& c #453C15",
"* c #662101",
"= c #6F2200",
"- c #412921",
"; c #423629",
": c #453F2A",
"> c #4F3F2B",
", c #5D4E0E",
"< c #514512",
"1 c #68570B",
"2 c #746107",
"3 c #7F6A04",
"4 c #5B4326",
"5 c #674027",
"6 c #604C33",
"7 c #6D5536",
"8 c #7B5C3C",
"9 c #930C04",
"0 c #821600",
"q c #9A1808",
"w c #A2240C",
"e c #A9300F",
"r c #B03C13",
"t c #B74817",
"y c #BE541B",
"u c #8B7300",
"i c #C65F1F",
"p c #866741",
"a c #976E45",
"s c #A0764A",
"d c #AD7F4E",
"f c #9A8500",
"g c #A89600",
"h c #C5B900",
"j c #D4CB00",
"k c #B78C58",
"l c #C18564",
"z c #C49A69",
"x c #CF9876",
"c c #FFB962",
"v c #FFC370",
"b c #FFCD7F",
"n c #D5AE80",
"m c #FFD78D",
"M c None",
/* pixels */
"MMMMMMMMMMMMMMMMMMMMMMMMMMMMMMMMMMMMMMMMMMMMMMMMMMMMMMMMMMMMMMMMMMM",
"MMMMMMMMMMMMMMMMMMMMMMMMMMMMMMMMMMMMMMMMMMMMMMMMMMMMMMMMMMMMMMMMMMM",
"MMMMMMMMMMMMMMMMMMMMMMMMMMMMMMMMMMMMMMMMMMMMMMMMMMMMMMMMMMMMMMMMMMM",
"MMMMMMMMMMMMMMMMMMMMMMMMMMMMMMMMMMMMMMMMMMMMMMMMMMMMMMMMMMMMMMMMMMM",
"MMMMMMMMMMMMMMMMMMMMMMMMMMMMMMMMMMMMMMMMMMMMMMMMMMMMMMMMMMMMMMMMMMM",
"MMMMMMMMMMMMMMMMMMMMMMMMMMMMMMMMMMMMMMMMMMMMMMMMMMMMMMMMMMMMMMMMMMM",
"MMMMMMMMMMMMMMMMMMMMMMMMMMMMMMMMMMMMMMMMMMMMMMMMMMMMMMMMMMMMMMMMMMM",
"MMMMMMMMMMMMMMMMMMMMMMMMMMMMMMMMMMMMMMMMMMMMMMMMMMMMMMMMMMMMMMMMMMM",
"MMMMMMMMMMMMMMMMMMMMMMMMMMMMMMMMMMMMMMMMMMMMMMMMMMMMMMMMMMMMMMMMMMM",
"MMMMMMMMMMMMMMMMMMMMMMMMMMMMMMMMMMMMMMMMMMMMMMMMMMMMMMMMMMMMMMMMMMM",
"MMMMMMMMMMMMMMMMMMMMMMMMMMMMMMMMMMMMMMMMMMMMMMMMMMMMMMMMMMMMMMMMMMM",
"MMMMMMMMMMMMMMMMMMMMMMMMMMMMMMMMMMMMMMMMMMMMMMMMMMMMMMMMMMMMMMMMMMM",
"MMMMMMMMMMMMMMMMMMM@-@MMMMMMMMMMMMMMMMMMMMMMMMMMMMMMMMMMMMMMMMMMMMM",
"MMMMMMMMMMMMMMMMMM7a6>s-MMMMMMMMMMMMMMMMMMMMMMMMMMMMMMMMMMMMMMMMMMM",
"MMMMMMMMMMMMMMMMMM-444>@MMMMMMMMMMMMMMMMMMMMMMMMMMMMMMMMMMMMMMMMMMM",
"MMMMMMMMMMMMMMMMMMM-;;@MMMMMMMMMMMMMMMMMMMMMMMMMMMMMMMMMMMMMMMMMMMM",
"MMMMMMMMMMMMMMMMMMM@--MMMMMMMMMMMMMMMMMMMMMMMMMMMMMMMMMMMMMMMMMMMMM",
"MMMMMMMMMMMMMMMMMMM--@MMMMMMMMMMMMMMMMMMMMMMMMMMMMMMMMMMMMMMMMMMMMM",
"MMMMMMMMMMMMMMMMMM@--@MMMMMMMMMMMMMMMMMMMMMMMMMMMMMMMMMMMMMMMMMMMMM",
"MMMMMMMMMMMMMMMMMM@--@MMMMMMMMMMMMMwii#MMMMMMMMMMMMMMMMMMMMMMMMMMMM",
"MMMMMMMMMMMMMMMMMM;--MMMMMMMMMMMMMwyw9e*MMMMMMMMMMMMMMMMMMMMMMMMMMM",
"MMMMMMMMMMMMMMMMMM4--MMMMMMMMMMMM#tehjhe#MMMMMMMMMMMMMMMMMMMMMMMMMM",
"MMMMMMMMMMMMMMMMM->--MMMMMMMMMMMMwwg212g=MMMMMMMMMMMMMMMMMMMMMMMMMM",
"MMMMMMMMMMMMMMMMM6;-;MMMMMMMMMMM$wf2  X2f-MMMMMMMMMMMMMMMMMMMMMMMMM",
"MMMMMMMMMMMMMMMMM7;;;MMMMMMMMMMM=0u.   o.uMMMMMMMMMMMMMMMMMMMMMMMMM",
"MMMMMMMMMMMMMMMMM>>>;7:MMMMMMMMM03@.   . 3$MMMMMMMMMMMMMMMMMMMMMMMM",
"MMMMMMMMMMMMMMMMMM>>->a8MMMMMMMMw2X..   .20MMMMMMMMMMMMMMMMMMMMMMMM",
"MMMMMMMMMMMMMMMMMMM;4>>az:MMMMMMe2.     ..1MMMMMMMMMMMMMMMMMMMMMMMM",
"MMMMMMMMMMMMMMMMMMMM-4448z8MMMMMq1.    .  1MMMMMMMMMMMMMMMMMMMMMMMM",
"MMMMMMMMMMMMMMMMMMMMM@>444zmsMM0#1.    .  ,MMMMMMMMMMMMMMMMMMMMMMMM",
"MMMMMMMMMMMMMMMMMMMMMMM@>46ss7%-#,     .  ,*MMMMMMMMMMMMMMMMMMMMMMM",
"MMMMMMMMMMMMMMMMMMMMMMMM@;4445>-$<OO..    <@-a8MMMMMMMMMMMMMMMMMMMM",
"MMMMMMMMMMMMMMMMMMMMMMMMMM@;44--%$<O .. .<&-4azaMMMMMMMMMMMMMMMMMMM",
"MMMMMMMMMMMMMMMMMMMMMMMMMMMMM-@-4$&%%%%-$&-;47klMMMMMMMMMMMMMMMMMMM",
"MMMMMMMMMMMMMMMMMMMMMMMMMMMMMM@4p4$&++++&57676dd:MMMMMMMMMMMMMMMMMM",
"MMMMMMMMMMMMMMMMMMMMMMMMMMMMMM@acdp0*-%%==wwk6as:MMMMMMMMMMMMMMMMMM",
"MMMMMMMMMMMMMMMMMMMMMMMMMMMMMMM7btyy99j31tyytp8s:MMMMMMMMMMMMMMMMMM",
"MMMMMMMMMMMMMMMMMMMMMMMMMMMMMMM-wrett2gf3,ttttal>MMMMMMMMMMMMMMMMMM",
"MMMMMMMMMMMMMMMMMMMMMMMMMMMMMMM%===9eu 2 <ee999z8MMMMMMMMMMMMMMMMMM",
"MMMMMMMMMMMMMMMMMMMMMMMMMMMMMMM@%$$*0&g u&q0=*0kkMMMMMMMMMMMMMMMMMM",
"MMMMMMMMMMMMMMMMMMMMMMMMMMMMMMM@%%%$#$&u<$####$al:MMMMMMMMMMMMMMMMM",
"MMMMMMMMMMMMMMMMMMMMMMMMMMMMMMM@@-%%%O>64O%%%%-8l6MMMMMMMMMMMMMMMMM",
"MMMMMMMMMMMMMMMMMMMMMMMMMMMMMMMM@@-@@4dap8%-%-@7daMMMMMMMMMMMMMMMMM",
"MMMMMMMMMMMMMMMMMMMMMMMMMMMMMMMM@@@@6sap888--M@6apMMMMMMMMMMMMMMMMM",
"MMMMMMMMMMMMMMMMMMMMMMMMMMMMMMMM-@-688888877@MM4p8:MMMMMMMMMMMMMMMM",
"MMMMMMMMMMMMMMMMMMMMMMMMMMMMMMMM---467877778@MM-77;MMMMMMMMMMMMMMMM",
"MMMMMMMMMMMMMMMMMMMMMMMMMMMMMMMM@>-467777786MMM@78aMMMMMMMMMMMMMMMM",
"MMMMMMMMMMMMMMMMMMMMMMMMMMMMMMMMM5>>4677777>MMM-8ap:MMMMMMMMMMMMMMM",
"MMMMMMMMMMMMMMMMMMMMMMMMMMMMMMMM$75>4676777-MMM@pda:MMMMMMMMMMMMMMM",
"MMMMMMMMMMMMMMMMMMMMMMMMMMMMMMMM7$p666777774MMM@6sd>MMMMMMMMMMMMMMM",
"MMMMMMMMMMMMMMMMMMMMMMMMMMMMMMM5v$ka7666667a$MMM-pd7MMMMMMMMMMMMMMM",
"MMMMMMMMMMMMMMMMMMMMMMMMMMMMMM@vnx$kp76467p$dMMM@7dpMMMMMMMMMMMMMMM",
"MMMMMMMMMMMMMMMMMMMMMMMMMMMMMMkxxz$la87-6ad$k@MMM6dkMMMMMMMMMMMMMMM",
"MMMMMMMMMMMMMMMMMMMMMMMMMMMMM-xxxzz=sp78ps=pd>MMM-slMMMMMMMMMMMMMMM",
"MMMMMMMMMMMMMMMMMMMMMMMMMMMMMazxzkd=a8assp=pz8MMM@al:MMMMMMMMMMMMMM",
"MMMMMMMMMMMMMMMMMMMMMMMMMMMM@llzldaa=8pp8=6dlaMMMM8l4MMMMMMMMMMMMMM",
"MMMMMMMMMMMMMMMMMMMMMMMMMMMM7klldap8=777=6adldMMMM6kpMMMMMMMMMMMMMM",
"MMMMMMMMMMMMMMMMMMMMMMMMMMMMdkkksp77#=6=#6adkdMMMM4kd:MMMMMMMMMMMMM",
"MMMMMMMMMMMMMMMMMMMMMMMMMMM@dddda87>$==#$8adkl@MMM4kxn:MMMMMMMMMMMM",
"MMMMMMMMMMMMMMMMMMMMMMMMMMM@sddspa8>##=$>7pdkk@MMM-kzxx:MMMMMMMMMMM",
"MMMMMMMMMMMMMMMMMMMMMMMMMMM@assapap6###$;7pdkl;MMM@sdzxlMMMMMMMMMMM",
"MMMMMMMMMMMMMMMMMMMMMMMMMMM@pasapas6$#$$48adkl6MMMM8aszx6MMMMMMMMMM",
"MMMMMMMMMMMMMMMMMMMMMMMMMMMM7aaapad8@$$@68pdkl8MMMM47@szx:MMMMMMMMM",
"MMMMMMMMMMMMMMMMMMMMMMMMMMMM;paaaass@MM@47pdklaMMMM->M@dl:MMMMMMMMM",
"MMMMMMMMMMMMMMMMMMMMMMMMMMMM@8pappsd-MM-47pskldMMMMM@MMM-MMMMMMMMMM",
"MMMMMMMMMMMMMMMMMMMMMMMMMMMMM7pappad4MM@>78adlkMMMMMMMMMMMMMMMMMMMM",
"MMMMMMMMMMMMMMMMMMMMMMMMMMMMM48pp8as4MM@;68dkkl@MMMMMMMMMMMMMMMMMMM",
"MMMMMMMMMMMMMMMMMMMMMMMMMMMMM-7888pa;MMM-4asddk@MMMMMMMMMMMMMMMMMMM",
"MMMMMMMMMMMMMMMMMMMMMMMMMMMMM@7888pa@MMM-4pasdd-MMMMMMMMMMMMMMMMMMM",
"MMMMMMMMMMMMMMMMMMMMMMMMMMMMMM7888pp@MMM@>7padk-MMMMMMMMMMMMMMMMMMM",
"MMMMMMMMMMMMMMMMMMMMMMMMMMMMMM4888p8@MMM@-4padk>MMMMMMMMMMMMMMMMMMM",
"MMMMMMMMMMMMMMMMMMMMMMMMMMMMMM@7p8p8@MMMM->8ask4MMMMMMMMMMMMMMMMMMM",
"MMMMMMMMMMMMMMMMMMMMMMMMMMMMMM@8p888@MMMM->8asd7MMMMMMMMMMMMMMMMMMM",
"MMMMMMMMMMMMMMMMMMMMMMMMMMMMMMM88777@MMMM-;7aps8MMMMMMMMMMMMMMMMMMM",
"MMMMMMMMMMMMMMMMMMMMMMMMMMMMMMM67674@MMMM@;4p8p8MMMMMMMMMMMMMMMMMMM",
"MMMMMMMMMMMMMMMMMMMMMMMMMMMMMMM>777>@MMMM@;>68p8MMMMMMMMMMMMMMMMMMM",
"MMMMMMMMMMMMMMMMMMMMMMMMMMMMMMM-877>MMMMMM-;68ppMMMMMMMMMMMMMMMMMMM",
"MMMMMMMMMMMMMMMMMMMMMMMMMMMMMMM>766>MMMMMM@-4778MMMMMMMMMMMMMMMMMMM",
"MMMMMMMMMMMMMMMMMMMMMMMMMMMMMMM4644>MMMMMM@->466MMMMMMMMMMMMMMMMMMM",
"MMMMMMMMMMMMMMMMMMMMMMMMMMMMMMM46;>;MMMMMMM->>>>MMMMMMMMMMMMMMMMMMM",
"MMMMMMMMMMMMMMMMMMMMMMMMMMMMMMM46;;-MMMMMMM-;;;>MMMMMMMMMMMMMMMMMMM",
"MMMMMMMMMMMMMMMMMMMMMMMMMMMMMMM74;;-MMMMMMM-;>>4MMMMMMMMMMMMMMMMMMM",
"MMMMMMMMMMMMMMMMMMMMMMMMMMMMMMM84>;-MMMMMMM--;>4MMMMMMMMMMMMMMMMMMM",
"MMMMMMMMMMMMMMMMMMMMMMMMMMMMMMMp64>;@MMMMM@4;-;5@MMMMMMMMMMMMMMMMMM",
"MMMMMMMMMMMMMMMMMMMMMMMMMMMMMMM876644MMMMM@44>-6@MMMMMMMMMMMMMMMMMM",
"MMMMMMMMMMMMMMMMMMMMMMMMMMMMMMM886647MMMMM@44448@MMMMMMMMMMMMMMMMMM",
"MMMMMMMMMMMMMMMMMMMMMMMMMMMMMMM676658MMMMM@44447@MMMMMMMMMMMMMMMMMM",
"MMMMMMMMMMMMMMMMMMMMMMMMMMMMMMM-46566MMMMM@>4446@MMMMMMMMMMMMMMMMMM",
"MMMMMMMMMMMMMMMMMMMMMMMMMMMMMMMM4446-MMMMMM;44>>MMMMMMMMMMMMMMMMMMM",
"MMMMMMMMMMMMMMMMMMMMMMMMMMMMMMMM->46@MMMMMM@>4>-MMMMMMMMMMMMMMMMMMM",
"MMMMMMMMMMMMMMMMMMMMMMMMMMMMMMMM@447@MMMMMM@>44@MMMMMMMMMMMMMMMMMMM",
"MMMMMMMMMMMMMMMMMMMMMMMMMMMMMMMM@464MMMMMMMM>44@MMMMMMMMMMMMMMMMMMM",
"MMMMMMMMMMMMMMMMMMMMMMMMMMMMMMMMM664MMMMMMMM>56@MMMMMMMMMMMMMMMMMMM",
"MMMMMMMMMMMMMMMMMMMMMMMMMMMMMMMMM675MMMMMMMM;67@MMMMMMMMMMMMMMMMMMM",
"MMMMMMMMMMMMMMMMMMMMMMMMMMMMMMMMM476MMMMMMMM-67MMMMMMMMMMMMMMMMMMMM",
"MMMMMMMMMMMMMMMMMMMMMMMMMMMMMMMMM;76MMMMMMMM-67MMMMMMMMMMMMMMMMMMMM",
"MMMMMMMMMMMMMMMMMMMMMMMMMMMMMMMMM-87@MMMMMMM>67MMMMMMMMMMMMMMMMMMMM",
"MMMMMMMMMMMMMMMMMMMMMMMMMMMMMMMMM-88;MMMMMMM478@MMMMMMMMMMMMMMMMMMM",
"MMMMMMMMMMMMMMMMMMMMMMMMMMMMMMMMMsp8>MMMMMMM4786MMMMMMMMMMMMMMMMMMM",
"MMMMMMMMMMMMMMMMMMMMMMMMMMMMMMMM7xda4MMMMMMM78ax4MMMMMMMMMMMMMMMMMM",
"MMMMMMMMMMMMMMMMMMMMMMMMMMMMMMMMdnzd7MMMMMMM48dxv@MMMMMMMMMMMMMMMMM",
"MMMMMMMMMMMMMMMMMMMMMMMMMMMMMMMMlvnl8MMMMMMM@7sxvkMMMMMMMMMMMMMMMMM",
"MMMMMMMMMMMMMMMMMMMMMMMMMMMMMMMMzvnzpMMMMMMMM6axvb-MMMMMMMMMMMMMMMM",
"MMMMMMMMMMMMMMMMMMMMMMMMMMMMMMMMlvnxa@MMMMMMM-plnvaMMMMMMMMMMMMMMMM",
"MMMMMMMMMMMMMMMMMMMMMMMMMMMMMMMMaxxxn@MMMMMMMM7dxnsMMMMMMMMMMMMMMMM",
"MMMMMMMMMMMMMMMMMMMMMMMMMMMMMMMM@dzvv-MMMMMMMM@azz-MMMMMMMMMMMMMMMM",
"MMMMMMMMMMMMMMMMMMMMMMMMMMMMMMMMMM6dx@MM486-MMM6dpMMMMMMMMMMMMMMMMM",
"MMMMMMMMMMMMMMMMMMMMMMMMMMMMMMMMMMM@-MMMMMMMMMMM-MMMMMMMMMMMMMMMMMM"
};
