/* XPM */
static char *__1[] = {
/* columns rows colors chars-per-pixel */
"74 101 68 1 ",
"  c gray6",
". c #131313",
"X c gray9",
"o c #1B1B1B",
"O c gray12",
"+ c #1E371E",
"@ c #3A3319",
"# c #232323",
"$ c gray15",
"% c #282828",
"& c #322D22",
"* c #392B27",
"= c #3D3626",
"- c #363228",
"; c #5C2103",
": c #53200A",
"> c #4A271B",
", c #453C15",
"< c #662101",
"1 c #6F2200",
"2 c #412921",
"3 c #423629",
"4 c #453F2A",
"5 c #4F3F2B",
"6 c #5D4E0E",
"7 c #514512",
"8 c #68570B",
"9 c #746107",
"0 c #7F6A04",
"q c #5B4326",
"w c #53472C",
"e c #674027",
"r c #604C33",
"t c #6D5536",
"y c #7B5C3C",
"u c #930C04",
"i c #821600",
"p c #9A1808",
"a c #A2240C",
"s c #A9300F",
"d c #B03C13",
"f c #B74817",
"g c #BE541B",
"h c #8B7300",
"j c #866741",
"k c #976E45",
"l c #A0764A",
"z c #AD7F4E",
"x c #9A8500",
"c c #A89600",
"v c #B7A800",
"b c #C5B900",
"n c #E2DC00",
"m c #B78C58",
"M c #C18564",
"N c #C49A69",
"B c #CF9876",
"V c #FFB962",
"C c #FFC370",
"Z c #FFCD7F",
"A c #D5AE80",
"S c #E3B490",
"D c #FFD78D",
"F c #FEE19C",
"G c #FEEBAA",
"H c #FEF5B9",
"J c #FEFFC7",
"K c None",
/* pixels */
"KKKKKKKKKKKKKKKKKKKKKKKKKKKKKKKKKKKKKKKKKKKKKKKKKKKKKKKKKKKKKKKKKKKKKKKKKK",
"KKKKKKKKKKKKKKKKKKKKKKKKKKKKKKKKKKKKKKKKKKKKKKKKKKKKKKKKKKKKKKKKKKKKKKKKKK",
"KKKKKKKKKKKKKKKKKKKKKKKKKKKKKKKKKKKKKKKKKKKKKKKKKKKKKKKKKKKKKKKKKKKKKKKKKK",
"KKKKKKKKKKKKKKKKKKKKKKKKKKKKKKKKKKKKKKKKKKKKKKKKKKKKKKKKKKKKKKKKKKKKKKKKKK",
"KKKKKKKKKKKKKKKKKKKKKKKKKKKKKKKKKKKKKKKKKKKKKKKKKKKKKKKKKKKKKKKKKKKKKKKKKK",
"KKKKKKKKKKKKKKKKKKKKKKKKKKKKKKKKKKKKKKKKKKKKKKKKKKKKKKKKKKKKKKKKKKKKKKKKKK",
"KKKKKKKKKKKKKKKKKKKKKKKKKKKKKKKKKKKKKKKKKKKKKKKKKKKKKKKKKKKKKKKKKKKKKKKKKK",
"KKKKKKKKKKKKKKKKKKKKKKKKKKKKKKKKKKKKKKKKKKKKKKKKKKKKKKKKKKKKKKKKKKKKKKKKKK",
"KKKKKKKKKKKKKKKKKKKKKKKKKKKKKKKKKKKKKKKKKKKKKKKKKKKKKKKKKKKKKKKKKKKKKKKKKK",
"KKKKKKKKKKKKKKKKKKKKKKKKKKKKKKKKKKKKKKKKKKKKKKKKKKKKKKKKKKKKKKKKKKKKKKKKKK",
"KKKKKKKKKKKKKKKKKKKKKKKKKKKKKKKKKKKKKKKKKKKKKKKKKKKKKKKKKKKKKKKKKKKKKKKKKK",
"KKKKKKKKKKKKKKKKKKKKKKKKKKKKKKKKKKKKKKKKKKKKKKKKKKKKKKKKKKKKKKKKKKKKKKKKKK",
"KKKKKKKKKKKKKKKKKKKKKKKKKKKKKKKKKKKKKKKKKKKKKKKKKKKKKKKKKKKKKKKKKKKKKKKKKK",
"KKKKKKKKKKKKKKKKKKKKKKKKKKKKKKKKKKKKKKKKKKKKKKKKKKKKKKKKKKKKKKKKKKKKKKKKKK",
"KKKKKKKKKKKKKKKKKKKKKKKKKKKKKKKKKKKKKKKKKKKKKKKKKKKKKKKKKKKKKKKKKKKKKKKKKK",
"KKKKKKKKKKKKKKKKKKKKKKKKKKKKKKKKKKKKKKKKKKKKKKKKKKKKKKKKKKKKKKKKKKKKKKKKKK",
"KKKKKKKKKKKKKKKKKKKKKKKKKKKKKKKKKKKKKKKKKKKKKKKKKKKKKKKKKKKKKKKKKKKKKKKKKK",
"KKKKKKKKKKKKKKKKKKKKKKKKKKKKKKKKKKKKKKKKKKKKKKKKKKKKKKKKKKKKKKKKKKKKKKKKKK",
"KKKKKKKKKKKKKKKKKKKKKKKKKKKKKKKKKKKKKKKKKKKKKKKKKKKKKKKKKKKKKKKKKKKKKKKKKK",
"KKKKKKKKKKKKKKKKKKKKKKKKKKKKKKKKKKKKKKKKogfffKKKKKKKKKKKKKKKKKKKKKKKKKKKKK",
"KKKKKKKKKKKKKKKKKKKKKKKKKKKKKKKKKKKKKKKKfgffffKKKKKKKKKKKKKKKKKKKKKKKKKKKK",
"KKKKKKKKKKKKKKKKKKKKKKKKKKKKKKKKKKKKKKK.OffffddKKKKKKKKKKKKKKKKKKKKKKKKKKK",
"KKKKKKKKKKKKKKKKKKKKKKKKKKKKKKKKKKKKK.   OfdddasKKKKKKKKKKKKKKKKKKKKKKKKKK",
"KKKKKKKKKKKKKKKKKKKKKKKKKKKKKKKKKKKKK  &==&ssspu;KKKKKKKKKKKKKKKKKKKKKKKKK",
"KKKKKKKKKKKKKKKKKKKKKKKKKKKKKKKKKKKK. .&==&aasauuKKKKKKKKKKKKKKKKKKKKKKKKK",
"KKKKKKKKKKKKKKKKKKKKKKKKKKKKKKKKKKKK..&===&aassuuKKKKKKKKKKKKKKKKKKKKKKKKK",
"KKKKKKKKKKKKKKKKKKKKKKKKKKKKKKKKKK1v..==3==vassai;KKKKKKKKKKKKKKKKKKKKKKKK",
"KKKKKKKKKKKKKKKKKKKKKKKKKKKKKKKKK;x.  =5y==0ssssi:KKKKKKKKKKKKKKKKKKKKKKKK",
"KKKKKKKKKKKKKKKKKKKKKKKKKKKKKKKKdv     &qq&&vsssu%KKKKKKKKKKKKKKKKKKKKKKKK",
"KKKKKKKKKKKKKKKKKKKKKKKKKKKKKKKK       &===&oddssKKKKKKKKKKKKKKKKKKKKKKKKK",
"KKKKKKKKKKKKKKKKKKKKKKKKKKKKKK=Bp;  OO5qty5& vdss*KKKKKKKKKKKKKKKKKKKKKKKK",
"KKKKKKKKKKKKKKKKKKKKKKKKKKKKKKMBy;oXO#u1rjq   dss;KKKKKKKKKKKKKKKKKKKKKKKK",
"KKKKKKKKKKKKKKKKKKKKKKKKKKKKKmNl5y3& oO&>>:O  +aiKKKKKKKKKKKKKKKKKKKKKKKKK",
"KKKKKKKKKKKKKKKKKKKKKKKKKKKKKMMq3yt==y1pp2o#$$&=rAKKKKKKKKKKKKKKKKKKKKKKKK",
"KKKKKKKKKKKKKKKKKKKKKKKKKKKKzNy33mCB1upass:    5zmA=KKKKKKKKKKKKKKKKKKKKKK",
"KKKKKKKKKKKKKKKKKKKKKKKKKKK=Vt53&ZsadsdddddfgdetklzMKKKKKKKKKKKKKKKKKKKKKK",
"KKKKKKKKKKKKKKKKKKKKKKKKKKKCy53&dfffspsddfffffa1yklzKKKKKKKKKKKKKKKKKKKKKK",
"KKKKKKKKKKKKKKKKKKKKKKKKKKrNr=-&sdfffaddddssdsppyjklKKKKKKKKKKKKKKKKKKKKKK",
"KKKKKKKKKKKKKKKKKKKKKKKKKKAy5==2:ippapsdppi111i;qyjlKKKKKKKKKKKKKKKKKKKKKK",
"KKKKKKKKKKKKKKKKKKKKKKKKjCkr=KK*2>;;;>ap:;;::::==yzmKKKKKKKKKKKKKKKKKKKKKK",
"KKKKKKKKKKKKKKKKKKKKKKKKBzt3=KKK22222tljk22222*=KtNNKKKKKKKKKKKKKKKKKKKKKK",
"KKKKKKKKKKKKKKKKKKKKKKKjjy5=KKKKKK=&tyyjk5===53=K=MN3KKKKKKKKKKKKKKKKKKKKK",
"KKKKKKKKKKKKKKKKKKKKKKNzjt3KKKKKKK==yytjkk===rq=K=mMjKKKKKKKKKKKKKKKKKKKKK",
"KKKKKKKKKKKKKKKKKKKKKNMztw=KKKKKKKtttyttyyyqqt5=K&lMNKKKKKKKKKKKKKKKKKKKKK",
"KKKKKKKKKKKKKKKKKKK&NMkr3&KKKKKKKKrtrtyttttyjt=KKKjMMKKKKKKKKKKKKKKKKKKKKK",
"KKKKKKKKKKKKKKKKKK5jlt4KKKKKKKKKKK=qtyyttttyyt=KKKtmM=KKKKKKKKKKKKKKKKKKKK",
"KKKKKKKKKKKKKKKKKkjtw=KKKKKKKKKKKKK5rtyytttyjy=KKKqjNjKKKKKKKKKKKKKKKKKKKK",
"KKKKKKKKKKKKKKKKmy5=KKKKKKKKKKKKKKjytttttttyjl;jKKK5jl=KKKKKKKKKKKKKKKKKKK",
"KKKKKKKKKKKKKKKyyr@KKKKKKKKKKKKKKKkjxyttrttjjv;jKKK5ymkKKKKKKKKKKKKKKKKKKK",
"KKKKKKKKKKKKKKZm5KKKKKKKKKKKKKKKKzapmkrr5ttj0u:jy==ryMM=KKKKKKKKKKKKKKKKKK",
"KKKKKKKKKKKKKKVVKKKKKKKKKKKKKKKKKNMpuzlv=5jzzutjytK5tylrKKKKKKKKKKKKKKKKKK",
"KKKKKKKKKKKKKy3=KKKKKKKKKKKKKKKKKMMk11kknc8liiyjytq=qtjyKKKKKKKKKKKKKKKKKK",
"KKKKKKKKKKKKK=qKKKKKKKKKKKKKKKKK=MMm;;;xbnh61<klytjK5tyzKKKKKKKKKKKKKKKKKK",
"KKKKKKKKKKKKK=rKKKKKKKKKKKKKKKKKqMMmt;;x 9 6<<zMjtrK3ttzKKKKKKKKKKKKKKKKKK",
"KKKKKKKKKKKKKKlKKKKKKKKKKKKKKKKKjmmzl::,c h,;jlmztqKKrtlKKKKKKKKKKKKKKKKKK",
"KKKKKKKKKKKKKK=KKKKKKKKKKKKKKKKKkzzzky:,,h7>:jlmMkqrKqrj=KKKKKKKKKKKKKKKKK",
"KKKKKKKKKKKKKKKKKKKKKKKKKKKKKKKKkzzljy2>3w2>tMBmMmqkK=qyyKKKKKKKKKKKKKKKKK",
"KKKKKKKKKKKKKKKKKKKKKKKKKKKKKKKKkllljyr2222rmBBMmmqkKK=tlKKKKKKKKKKKKKKKKK",
"KKKKKKKKKKKKKKKKKKKKKKKKKKKKKKKKklllkytq222BBBBMmm5yKKKrtNSZZzq5=KKKKKKKKK",
"KKKKKKKKKKKKKKKKKKKKKKKKKKKKKKKKklllkytr222NNBBMmz5qKKKq5qqqzBkKKKKKKKKKKK",
"KKKKKKKKKKKKKKKKKKKKKKKKKKKKKKKKjzzlkyyt=KmNNBBMmz=KKKKKKKKKKKKKKKKKKKKKKK",
"KKKKKKKKKKKKKKKKKKKKKKKKKKKKKKKKtzzlkyyt5KmNNBNmzl=KKKKKKKKKKKKKKKKKKKKKKK",
"KKKKKKKKKKKKKKKKKKKKKKKKKKKKKKKK3lzlkjtt5KmMMNmzlj=KKKKKKKKKKKKKKKKKKKKKKK",
"KKKKKKKKKKKKKKKKKKKKKKKKKKKKKKKK=lllkktr3KzMMMzljyKKKKKKKKKKKKKKKKKKKKKKKK",
"KKKKKKKKKKKKKKKKKKKKKKKKKKKKKKKKKklkjjtr3KzmmMzljqKKKKKKKKKKKKKKKKKKKKKKKK",
"KKKKKKKKKKKKKKKKKKKKKKKKKKKKKKKKKjkkjytq==lMMMzkt=KKKKKKKKKKKKKKKKKKKKKKKK",
"KKKKKKKKKKKKKKKKKKKKKKKKKKKKKKKKKjkkytrq==zMMmzk3KKKKKKKKKKKKKKKKKKKKKKKKK",
"KKKKKKKKKKKKKKKKKKKKKKKKKKKKKKKKKykkytq5==mMmzzjKKKKKKKKKKKKKKKKKKKKKKKKKK",
"KKKKKKKKKKKKKKKKKKKKKKKKKKKKKKKKKqkkytq5=qzzlkltKKKKKKKKKKKKKKKKKKKKKKKKKK",
"KKKKKKKKKKKKKKKKKKKKKKKKKKKKKKKKK=lkytq5=tkljyjKKKKKKKKKKKKKKKKKKKKKKKKKKK",
"KKKKKKKKKKKKKKKKKKKKKKKKKKKKKKKKKKkkytq5=rklkjyKKKKKKKKKKKKKKKKKKKKKKKKKKK",
"KKKKKKKKKKKKKKKKKKKKKKKKKKKKKKKKKKyttr55==kkyytKKKKKKKKKKKKKKKKKKKKKKKKKKK",
"KKKKKKKKKKKKKKKKKKKKKKKKKKKKKKKKKKqttr53==krrrrKKKKKKKKKKKKKKKKKKKKKKKKKKK",
"KKKKKKKKKKKKKKKKKKKKKKKKKKKKKKKKKK5rtr53==r55==KKKKKKKKKKKKKKKKKKKKKKKKKKK",
"KKKKKKKKKKKKKKKKKKKKKKKKKKKKKKKKKK3qtr5=K=3333@KKKKKKKKKKKKKKKKKKKKKKKKKKK",
"KKKKKKKKKKKKKKKKKKKKKKKKKKKKKKKKKK=5rq53K=3553=KKKKKKKKKKKKKKKKKKKKKKKKKKK",
"KKKKKKKKKKKKKKKKKKKKKKKKKKKKKKKKKK3=qq5qK=3553=KKKKKKKKKKKKKKKKKKKKKKKKKKK",
"KKKKKKKKKKKKKKKKKKKKKKKKKKKKKKKKKKr355=rK3=553=KKKKKKKKKKKKKKKKKKKKKKKKKKK",
"KKKKKKKKKKKKKKKKKKKKKKKKKKKKKKKKKKr533===5====3KKKKKKKKKKKKKKKKKKKKKKKKKKK",
"KKKKKKKKKKKKKKKKKKKKKKKKKKKKKKKKKKr5335535====5KKKKKKKKKKKKKKKKKKKKKKKKKKK",
"KKKKKKKKKKKKKKKKKKKKKKKKKKKKKKKKKKtq5rqq=53===KKKKKKKKKKKKKKKKKKKKKKKKKKKK",
"KKKKKKKKKKKKKKKKKKKKKKKKKKKKKKKKKKytqrrq=3533=KKKKKKKKKKKKKKKKKKKKKKKKKKKK",
"KKKKKKKKKKKKKKKKKKKKKKKKKKKKKKKKKKjyrrrr=3333=KKKKKKKKKKKKKKKKKKKKKKKKKKKK",
"KKKKKKKKKKKKKKKKKKKKKKKKKKKKKKKKKKyyrrrq55533KKKKKKKKKKKKKKKKKKKKKKKKKKKKK",
"KKKKKKKKKKKKKKKKKKKKKKKKKKKKKKKKKK=qqrqq5553=KKKKKKKKKKKKKKKKKKKKKKKKKKKKK",
"KKKKKKKKKKKKKKKKKKKKKKKKKKKKKKKKKKK=5qqq=qq3=KKKKKKKKKKKKKKKKKKKKKKKKKKKKK",
"KKKKKKKKKKKKKKKKKKKKKKKKKKKKKKKKKKKK5qqq=qq=KKKKKKKKKKKKKKKKKKKKKKKKKKKKKK",
"KKKKKKKKKKKKKKKKKKKKKKKKKKKKKKKKKKKKqqqq=qq=KKKKKKKKKKKKKKKKKKKKKKKKKKKKKK",
"KKKKKKKKKKKKKKKKKKKKKKKKKKKKKKKKKKKKqrrq5qqKKKKKKKKKKKKKKKKKKKKKKKKKKKKKKK",
"KKKKKKKKKKKKKKKKKKKKKKKKKKKKKKKKKKKK=ttrqrqKKKKKKKKKKKKKKKKKKKKKKKKKKKKKKK",
"KKKKKKKKKKKKKKKKKKKKKKKKKKKKKKKKKKKKKttrtttKKKKKKKKKKKKKKKKKKKKKKKKKKKKKKK",
"KKKKKKKKKKKKKKKKKKKKKKKKKKKKKKKKKKKKKytryykB=KKKKKKKKKKKKKKKKKKKKKKKKKKKKK",
"KKKKKKKKKKKKKKKKKKKKKKKKKKKKKKKKKKKKKyttylmByKKKKKKKKKKKKKKKKKKKKKKKKKKKKK",
"KKKKKKKKKKKKKKKKKKKKKKKKKKKKKKKKKKKKKjytjMBBBKKKKKKKKKKKKKKKKKKKKKKKKKKKKK",
"KKKKKKKKKKKKKKKKKKKKKKKKKKKKKKKKKKKKKzzlBCBBBKKKKKKKKKKKKKKKKKKKKKKKKKKKKK",
"KKKKKKKKKKKKKKKKKKKKKKKKKKKKKKKKKKKKlCFAVCCBBKKKKKKKKKKKKKKKKKKKKKKKKKKKKK",
"KKKKKKKKKKKKKKKKKKKKKKKKKKKKKKKKKKKjJGFFCVANMKKKKKKKKKKKKKKKKKKKKKKKKKKKKK",
"KKKKKKKKKKKKKKKKKKKKKKKKKKKKKKKKKKFHGGFABNz=KKKKKKKKKKKKKKKKKKKKKKKKKKKKKK",
"KKKKKKKKKKKKKKKKKKKKKKKKKKKKKKKKKKDFZFmyzlqKKKKKKKKKKKKKKKKKKKKKKKKKKKKKKK",
"KKKKKKKKKKKKKKKKKKKKKKKKKKKKKKKKKKKK==KKKKKKKKKKKKKKKKKKKKKKKKKKKKKKKKKKKK",
"KKKKKKKKKKKKKKKKKKKKKKKKKKKKKKKKKKKKKKKKKKKKKKKKKKKKKKKKKKKKKKKKKKKKKKKKKK"
};
