/* XPM */
static char *__2[] = {
/* columns rows colors chars-per-pixel */
"74 101 67 1 ",
"  c gray6",
". c #131313",
"X c gray9",
"o c #1B1B1B",
"O c gray12",
"+ c #3A3319",
"@ c #232323",
"# c #282828",
"$ c #322D22",
"% c #392B27",
"& c #3D3626",
"* c #5C2103",
"= c #53200A",
"- c #4A271B",
"; c #453C15",
": c #662101",
"> c #6F2200",
", c #412921",
"< c #423629",
"1 c #453F2A",
"2 c #4F3F2B",
"3 c #5D4E0E",
"4 c #514512",
"5 c #68570B",
"6 c #746107",
"7 c #7F6A04",
"8 c #5B4326",
"9 c #53472C",
"0 c #674027",
"q c #604C33",
"w c #6D5536",
"e c #7B5C3C",
"r c #930C04",
"t c #821600",
"y c #9A1808",
"u c #A2240C",
"i c #A9300F",
"p c #B03C13",
"a c #B74817",
"s c #BE541B",
"d c #8B7300",
"f c #814F30",
"g c #8C5637",
"h c #866741",
"j c #976E45",
"k c #A0764A",
"l c #AD7F4E",
"z c #9A8500",
"x c #A89600",
"c c #B7A800",
"v c #C5B900",
"b c #E2DC00",
"n c #B78C58",
"m c #C18564",
"M c #C49A69",
"N c #CF9876",
"B c #FFB962",
"V c #FFC370",
"C c #FFCD7F",
"Z c #D5AE80",
"A c #E3B490",
"S c #E5C196",
"D c #FEE19C",
"F c #FEEBAA",
"G c #FEF5B9",
"H c #FEFFC7",
"J c None",
/* pixels */
"JJJJJJJJJJJJJJJJJJJJJJJJJJJJJJJJJJJJJJJJJJJJJJJJJJJJJJJJJJJJJJJJJJJJJJJJJJ",
"JJJJJJJJJJJJJJJJJJJJJJJJJJJJJJJJJJJJJJJJJJJJJJJJJJJJJJJJJJJJJJJJJJJJJJJJJJ",
"JJJJJJJJJJJJJJJJJJJJJJJJJJJJJJJJJJJJJJJJJJJJJJJJJJJJJJJJJJJJJJJJJJJJJJJJJJ",
"JJJJJJJJJJJJJJJJJJJJJJJJJJJJJJJJJJJJJJJJJJJJJJJJJJJJJJJJJJJJJJJJJJJJJJJJJJ",
"JJJJJJJJJJJJJJJJJJJJJJJJJJJJJJJJJJJJJJJJJJJJJJJJJJJJJJJJJJJJJJJJJJJJJJJJJJ",
"JJJJJJJJJJJJJJJJJJJJJJJJJJJJJJJJJJJJJJJJJJJJJJJJJJJJJJJJJJJJJJJJJJJJJJJJJJ",
"JJJJJJJJJJJJJJJJJJJJJJJJJJJJJJJJJJJJJJJJJJJJJJJJJJJJJJJJJJJJJJJJJJJJJJJJJJ",
"JJJJJJJJJJJJJJJJJJJJJJJJJJJJJJJJJJJJJJJJJJJJJJJJJJJJJJJJJJJJJJJJJJJJJJJJJJ",
"JJJJJJJJJJJJJJJJJJJJJJJJJJJJJJJJJJJJJJJJJJJJJJJJJJJJJJJJJJJJJJJJJJJJJJJJJJ",
"JJJJJJJJJJJJJJJJJJJJJJJJJJJJJJJJJJJJJJJJJJJJJJJJJJJJJJJJJJJJJJJJJJJJJJJJJJ",
"JJJJJJJJJJJJJJJJJJJJJJJJJJJJJJJJJJJJJJJJJJJJJJJJJJJJJJJJJJJJJJJJJJJJJJJJJJ",
"JJJJJJJJJJJJJJJJJJJJJJJJJJJJJJJJJJJJJJJJJJJJJJJJJJJJJJJJJJJJJJJJJJJJJJJJJJ",
"JJJJJJJJJJJJJJJJJJJJJJJJJJJJJJJJJJJJJJJJJJJJJJJJJJJJJJJJJJJJJJJJJJJJJJJJJJ",
"JJJJJJJJJJJJJJJJJJJJJJJJJJJJJJJJJJJJJJJJJJJJJJJJJJJJJJJJJJJJJJJJJJJJJJJJJJ",
"JJJJJJJJJJJJJJJJJJJJJJJJJJJJJJJJJJJJJJJJJJJJJJJJJJJJJJJJJJJJJJJJJJJJJJJJJJ",
"JJJJJJJJJJJJJJJJJJJJJJJJJJJJJJJJJJJJJJJJJJJJJJJJJJJJJJJJJJJJJJJJJJJJJJJJJJ",
"JJJJykwJJJJJJJJJJJJJJJJJJJJJJJJJJJJJJJJJJJJJJJJJJJJJJJJJJJJJJJJJJJJJJJJJJJ",
"JJq8w82j&JJJJJJJJJJJJJJJJJJJJJJJJJJJJJJJJJpsatJJJJJJJJJJJJJJJJJJJJJJJJJJJJ",
"wq8888<8wl2JJJJJJJJJJJJJJJJJJJJJJJJJJJJJ.saaaauJJJJJJJJJJJJJJJJJJJJJJJJJJJ",
"8&JJJJJ+2qeM&JJJJJJJJJJJJJJJJJJJJJJJJJJ..#aaaapJJJJJJJJJJJJJJJJJJJJJJJJJJJ",
"&JJJJJJJ<8qjNJJJJJJJJJJJJJJJJJJJJJJJJJ..  caapiiJJJJJJJJJJJJJJJJJJJJJJJJJJ",
"JJJJJJJJJ&<8wZAjJJJJJJJJJJJJJJJJJJJJJ.  OO$iiiiy=JJJJJJJJJJJJJJJJJJJJJJJJJ",
"JJJJJJJJJJJ&2whlCmJJJJJJJJJJJJJJJJJJJ.  &&$buiuty%JJJJJJJJJJJJJJJJJJJJJJJJ",
"JJJJJJJJJJJJJ<9qjMnZM1JJJJJJJJJJJJJJ.  O&&&cuuirtrJJJJJJJJJJJJJJJJJJJJJJJJ",
"JJJJJJJJJJJJJJ229wjMZDFZMMJJJJJJJJ:c  .&q8&7uiiyttJJJJJJJJJJJJJJJJJJJJJJJJ",
"JJJJJJJJJJJJJJ&22<8qwjMSDFMMnwq-Jez#  .<we&7uiiut>JJJJJJJJJJJJJJJJJJJJJJJJ",
"JJJJJJJJJJJJJJJJJJ&2888828eMVBBBg=     &ww2&biiit*JJJJJJJJJJJJJJJJJJJJJJJJ",
"JJJJJJJJJJJJJJJJJJJJJJJ$&&28888wfr     @$$$$ziiirJJJJJJJJJJJJJJJJJJJJJJJJJ",
"JJJJJJJJJJJJJJJJJJJJJJJJJJJJJ&28282 oO-2ehw$ ppiuJJJJJJJJJJJJJJJJJJJJJJJJJ",
"JJJJJJJJJJJJJJJJJJJJJJJJJJJJJJJJJ<q9 o-80hq  XpiiJJJJJJJJJJJJJJJJJJJJJJJJJ",
"JJJJJJJJJJJJJJJJJJJJJJJJJJJJJJJJJ&qe&<8-=.=-  zt%JJJJJJJJJJJJJJJJJJJJJJJJJ",
"JJJJJJJJJJJJJJJJJJJJJJJJJJJJJJJJJ<lmljj>r,,$@O$-JJJJJJJJJJJJJJJJJJJJJJJJJJ",
"JJJJJJJJJJJJJJJJJJJJJJJJJJJJJJJJJnCVpppppy%   .&NBJJJJJJJJJJJJJJJJJJJJJJJJ",
"JJJJJJJJJJJJJJJJJJJJJJJJJJJJJJJJJasaiupppppasslkmmBJJJJJJJJJJJJJJJJJJJJJJJ",
"JJJJJJJJJJJJJJJJJJJJJJJJJJJJJJJJraaaaaaaaaapiiphlnMeJJJJJJJJJJJJJJJJJJJJJJ",
"JJJJJJJJJJJJJJJJJJJJJJJJJJJJJJJJ*>yupppppuy>t>rrklnjJJJJJJJJJJJJJJJJJJJJJJ",
"JJJJJJJJJJJJJJJJJJJJJJJJJJJJJJJJ==**>>:p>::*==**hkljJJJJJJJJJJJJJJJJJJJJJJ",
"JJJJJJJJJJJJJJJJJJJJJJJJJJJJJJJJ-,---,:ut,,---,&hlmlJJJJJJJJJJJJJJJJJJJJJJ",
"JJJJJJJJJJJJJJJJJJJJJJJJJJJJJJJJJ---&8hkkh&,--<&8mZMJJJJJJJJJJJJJJJJJJJJJJ",
"JJJJJJJJJJJJJJJJJJJJJJJJJJJJJJJJJJ&$weeejjh&&&2&&hNNJJJJJJJJJJJJJJJJJJJJJJ",
"JJJJJJJJJJJJJJJJJJJJJJJJJJJJJJJJJJweeeewheheww2&JqNN&JJJJJJJJJJJJJJJJJJJJJ",
"JJJJJJJJJJJJJJJJJJJJJJJJJJJJJJJJJJqwwweewwwehh&&J&mNmJJJJJJJJJJJJJJJJJJJJJ",
"JJJJJJJJJJJJJJJJJJJJJJJJJJJJJJJJJJ<8wweewwweej&$J&nNNJJJJJJJJJJJJJJJJJJJJJ",
"JJJJJJJJJJJJJJJJJJJJJJJJJJJJJJJJJJJ<8qwewwweeh&JJJhMNJJJJJJJJJJJJJJJJJJJJJ",
"JJJJJJJJJJJJJJJJJJJJJJJJJJJJJJJJJJJ&28qwwwwweh&JJJwlM<JJJJJJJJJJJJJJJJJJJJ",
"JJJJJJJJJJJJJJJJJJJJJJJJJJJJJJJJJJJzqqqqwqwwew2:JJ8jMnJJJJJJJJJJJJJJJJJJJJ",
"JJJJJJJJJJJJJJJJJJJJJJJJJJJJJJJJJJpNlzeqw8wwev=hN&2hNBeJJJJJJJJJJJJJJJJJJJ",
"JJJJJJJJJJJJJJJJJJJJJJJJJJJJJJJJJkNuMnvzq2qwcw*wZm&8mNmJJJJJJJJJJJJJJJJJJJ",
"JJJJJJJJJJJJJJJJJJJJJJJJJJJJJJJJJMNMymkhz&8zee*qmM<hMNMJJJJJJJJJJJJJJJJJJJ",
"JJJJJJJJJJJJJJJJJJJJJJJJJJJJJJJJJmMMrrkkebx5h**qhMklmBNJJJJJJJJJJJJJJJJJJJ",
"JJJJJJJJJJJJJJJJJJJJJJJJJJJJJJJJ<mMmj*>:zvbd3**whhj&lVNJJJJJJJJJJJJJJJJJJJ",
"JJJJJJJJJJJJJJJJJJJJJJJJJJJJJJJJknmml***z 6 3**hhhkjlVZ&JJJJJJJJJJJJJJJJJJ",
"JJJJJJJJJJJJJJJJJJJJJJJJJJJJJJJJklnlke*=;x d;=qhhhmh2BVhJJJJJJJJJJJJJJJJJJ",
"JJJJJJJJJJJJJJJJJJJJJJJJJJJJJJJJkllljh-=,;d4==qhhjMh&ZVlJJJJJJJJJJJJJJJJJJ",
"JJJJJJJJJJJJJJJJJJJJJJJJJJJJJJJJkllkjeq-,<9-=,whhnmhemVNJJJJJJJJJJJJJJJJJJ",
"JJJJJJJJJJJJJJJJJJJJJJJJJJJJJJJJkkkkhew8,,,,,,whlnmlZFSMJJJJJJJJJJJJJJJJJJ",
"JJJJJJJJJJJJJJJJJJJJJJJJJJJJJJJ&jkkkhewq,,,,,,ehlnmNZqMHGJJJJJJJJJJJJJJJJJ",
"JJJJJJJJJJJJJJJJJJJJJJJJJJJJJJJJjkkkjeew&,,,,2emMNmneJJqZZJJJJJJJJJJJJJJJJ",
"JJJJJJJJJJJJJJJJJJJJJJJJJJJJJJJJhkkkjeew2JJJJ2jmMMMMhJJJJJJJJJJJJJJJJJJJJJ",
"JJJJJJJJJJJJJJJJJJJJJJJJJJJJJJJJhkkkjeew2JJJJ2lmMMMmkJJJJJJJJJJJJJJJJJJJJJ",
"JJJJJJJJJJJJJJJJJJJJJJJJJJJJJJJJwkkkjeew2JJJJ<lnmMmmkJJJJJJJJJJJJJJJJJJJJJ",
"JJJJJJJJJJJJJJJJJJJJJJJJJJJJJJJJ&jkkjeew2JJJJ<klnmnnkJJJJJJJJJJJJJJJJJJJJJ",
"JJJJJJJJJJJJJJJJJJJJJJJJJJJJJJJJJhjjheww2JJJJ&jklnnnjJJJJJJJJJJJJJJJJJJJJJ",
"JJJJJJJJJJJJJJJJJJJJJJJJJJJJJJJJJehhhewq&JJJJ&hjllnneJJJJJJJJJJJJJJJJJJJJJ",
"JJJJJJJJJJJJJJJJJJJJJJJJJJJJJJJJJehhhewq&JJJJ&ejllnneJJJJJJJJJJJJJJJJJJJJJ",
"JJJJJJJJJJJJJJJJJJJJJJJJJJJJJJJJJwhjheq8&JJJJJekllnhwJJJJJJJJJJJJJJJJJJJJJ",
"JJJJJJJJJJJJJJJJJJJJJJJJJJJJJJJJJ&hjheq8&JJJJJqklllq8JJJJJJJJJJJJJJJJJJJJJ",
"JJJJJJJJJJJJJJJJJJJJJJJJJJJJJJJJJJhjheq2&JJJJJ2jkjh8<JJJJJJJJJJJJJJJJJJJJJ",
"JJJJJJJJJJJJJJJJJJJJJJJJJJJJJJJJJJhjewq2&JJJJJ&ehjhh&JJJJJJJJJJJJJJJJJJJJJ",
"JJJJJJJJJJJJJJJJJJJJJJJJJJJJJJJJJJeeww8<&JJJJJ&ehjhk&JJJJJJJJJJJJJJJJJJJJJ",
"JJJJJJJJJJJJJJJJJJJJJJJJJJJJJJJJJJeeww8<&JJJJJ&whhej&JJJJJJJJJJJJJJJJJJJJJ",
"JJJJJJJJJJJJJJJJJJJJJJJJJJJJJJJJJJqeew8<&JJJJJJ8heqw&JJJJJJJJJJJJJJJJJJJJJ",
"JJJJJJJJJJJJJJJJJJJJJJJJJJJJJJJJJJqeww2<JJJJJJJ2w8822JJJJJJJJJJJJJJJJJJJJJ",
"JJJJJJJJJJJJJJJJJJJJJJJJJJJJJJJJJJeq8q22JJJJJJJ&2<2<8JJJJJJJJJJJJJJJJJJJJJ",
"JJJJJJJJJJJJJJJJJJJJJJJJJJJJJJJJJJeq282&JJJJJJJ&&<<<8JJJJJJJJJJJJJJJJJJJJJ",
"JJJJJJJJJJJJJJJJJJJJJJJJJJJJJJJJJJeq<2&&JJJJJJJ&&<<&qJJJJJJJJJJJJJJJJJJJJJ",
"JJJJJJJJJJJJJJJJJJJJJJJJJJJJJJJJJJeq<<&&JJJJJJJ2&&<&eJJJJJJJJJJJJJJJJJJJJJ",
"JJJJJJJJJJJJJJJJJJJJJJJJJJJJJJJJJJeq<<&&JJJJJJJ8888qhJJJJJJJJJJJJJJJJJJJJJ",
"JJJJJJJJJJJJJJJJJJJJJJJJJJJJJJJJJJew8888JJJJJJJ888qwhJJJJJJJJJJJJJJJJJJJJJ",
"JJJJJJJJJJJJJJJJJJJJJJJJJJJJJJJJJJheqq8hqJJJJJJ888qweJJJJJJJJJJJJJJJJJJJJJ",
"JJJJJJJJJJJJJJJJJJJJJJJJJJJJJJJJJJhhwweejJJJJJJ28888qJJJJJJJJJJJJJJJJJJJJJ",
"JJJJJJJJJJJJJJJJJJJJJJJJJJJJJJJJJJhewqeehJJJJJJ288828JJJJJJJJJJJJJJJJJJJJJ",
"JJJJJJJJJJJJJJJJJJJJJJJJJJJJJJJJJJwwqqwwwJJJJJJ&8882&JJJJJJJJJJJJJJJJJJJJJ",
"JJJJJJJJJJJJJJJJJJJJJJJJJJJJJJJJJJ&288qw&JJJJJJJ8888JJJJJJJJJJJJJJJJJJJJJJ",
"JJJJJJJJJJJJJJJJJJJJJJJJJJJJJJJJJJJ&28qwJJJJJJJJ888qJJJJJJJJJJJJJJJJJJJJJJ",
"JJJJJJJJJJJJJJJJJJJJJJJJJJJJJJJJJJJJ8qweJJJJJJJJ88qwJJJJJJJJJJJJJJJJJJJJJJ",
"JJJJJJJJJJJJJJJJJJJJJJJJJJJJJJJJJJJJqqeeJJJJJJJJ2qw8JJJJJJJJJJJJJJJJJJJJJJ",
"JJJJJJJJJJJJJJJJJJJJJJJJJJJJJJJJJJJJwwehJJJJJJJJ2qw<JJJJJJJJJJJJJJJJJJJJJJ",
"JJJJJJJJJJJJJJJJJJJJJJJJJJJJJJJJJJJJwwehJJJJJJJJ2qw&JJJJJJJJJJJJJJJJJJJJJJ",
"JJJJJJJJJJJJJJJJJJJJJJJJJJJJJJJJJJJJ2whjJJJJJJJJ8qw&JJJJJJJJJJJJJJJJJJJJJJ",
"JJJJJJJJJJJJJJJJJJJJJJJJJJJJJJJJJJJJ&ehjJJJJJJJJqqw<JJJJJJJJJJJJJJJJJJJJJJ",
"JJJJJJJJJJJJJJJJJJJJJJJJJJJJJJJJJJJJ&ejkJJJJJJJJqwwkJJJJJJJJJJJJJJJJJJJJJJ",
"JJJJJJJJJJJJJJJJJJJJJJJJJJJJJJJJJJJJ&hjlJJJJJJJJqwek2JJJJJJJJJJJJJJJJJJJJJ",
"JJJJJJJJJJJJJJJJJJJJJJJJJJJJJJJJJJJJlklmJJJJJJJJ8ejmNJJJJJJJJJJJJJJJJJJJJJ",
"JJJJJJJJJJJJJJJJJJJJJJJJJJJJJJJJJJJ8BMmM&JJJJJJJ8ejMNlJJJJJJJJJJJJJJJJJJJJ",
"JJJJJJJJJJJJJJJJJJJJJJJJJJJJJJJJJJ&CCBmk+JJJJJJJ&wjMNNwJJJJJJJJJJJJJJJJJJJ",
"JJJJJJJJJJJJJJJJJJJJJJJJJJJJJJJJJJMCCVmlJJJJJJJJJqhmNNMJJJJJJJJJJJJJJJJJJJ",
"JJJJJJJJJJJJJJJJJJJJJJJJJJJJJJJJJJBCCVmnJJJJJJJJJ&enmmjJJJJJJJJJJJJJJJJJJJ",
"JJJJJJJJJJJJJJJJJJJJJJJJJJJJJJJJJJNVVBAAJJJJJJJJJJlmmk&JJJJJJJJJJJJJJJJJJJ",
"JJJJJJJJJJJJJJJJJJJJJJJJJJJJJJJJJJJ&nNCMJJJJJJJJJJkljJJJJJJJJJJJJJJJJJJJJJ",
"JJJJJJJJJJJJJJJJJJJJJJJJJJJJJJJJJJJJJJJJJJJJJJJJJJJJJJJJJJJJJJJJJJJJJJJJJJ"
};
