/* XPM */
static char *bush[] = {
/* columns rows colors chars-per-pixel */
"128 128 41 1 ",
"  c gray6",
". c #131313",
"X c gray9",
"o c #1B1B1B",
"O c gray12",
"+ c #1E371E",
"@ c #3A3319",
"# c #232323",
"$ c gray15",
"% c #282828",
"& c #282F28",
"* c #2B2E2D",
"= c #2C2C2C",
"- c #322D22",
"; c #392B27",
": c #223322",
"> c #273C27",
", c #2B3827",
"< c #263328",
"1 c #3D3626",
"2 c #363228",
"3 c #2C3031",
"4 c #2F3F3F",
"5 c #35353B",
"6 c #3A3A3A",
"7 c #423629",
"8 c #4F3F2B",
"9 c #2D4025",
"0 c #2E4425",
"q c #344D2D",
"w c #3D5935",
"e c #53472C",
"r c #604C33",
"t c #3D3D43",
"y c #444450",
"u c #4B4B55",
"i c #446343",
"p c #4D6E4E",
"a c #527456",
"s c #5D825E",
"d c white",
/* pixels */
"dddddddddddddddddddddddddddddddddddddddddddddddddddddddddddddddddddddddddddddddddddddddddddddddddddddddddddddddddddddddddddddddd",
"dddddddddddddddddddddddddddddddddddddddddddddddddddddddddddddddddddddddddddddddddddddddddddddddddddddddddddddddddddddddddddddddd",
"dddddddddddddddddddddddddddddddddddddddddddddddddddddddddddddddddddddddddddddddddddddddddddddddddddddddddddddddddddddddddddddddd",
"dddddddddddddddddddddddddddddddddddddddddddddddddddddddddddddddddddddddddddddddddddddddddddddddddddddddddddddddddddddddddddddddd",
"dddddddddddddddddddddddddddddddddddddddddd+qdddq0ddddddddddddddddddddddddddddddddddddddddddddddddddddddddddddddddddddddddddddddd",
"dddddddddddddddddddddddddddddddddddddddddd+ppddwwddwqddddddddddddddddddddddddddddddddddddddddddddddddddddddddddddddddddddddddddd",
"ddddddddddddddddddddddddddddddddddddddd0ipapasddw0aa00qdddddddddddddddddddddddddqwdddwwddddddddddddddddddddddddddddddddddddddddd",
"dddddddddddddddddddddddddddddddddddddddwpaswasdpp0ap0>0ddddddddddddddddwpdpwddwqqqddswwqdddddddddddddddddddddddddddddddddddddddd",
"ddddddddddddddddddddddddddddddddddddddddwwq+wwaaaiiisa0qdddddddddddddddpsspaadppqqwdspwqdddddddddddddddddddddddddddddddddddddddd",
"ddddddddddddddddddddddddddddddddddddddipqwqqapapsaasasqdsqqddqwddspddwwqss+iaqpiwwwiaapqdqqddddddddddddddddddddd0qdddq+ddddddddd",
"ddddddddddddddddddddddddddddddddddddddpiwq0wassissaawpdsa00dwqwdassiiqippwwapqwwaawwdsw0d0qdddddddddddddddddqwddwwddpp+ddddddddd",
"d+qdddqdddddddddddddddddddddddddddddddddwppiqwiipipwwaappw00q0wdapwpiwwpiqpsaqasapppdiwp000ddqqdddddddddddq00aa0wqasapapi0dddddd",
"d+ppddwwddwqddddddddddddddddddddddddddqippsspqiqwisswisdi00000qwidiappqwdwpddissaiid>wpi0ww>>qqwqddddddddd0>0pa0pppsa+qapwq0dddd",
"papadaqw0da00qdddddddddddddddddddddddqqippsapwqqpaaiwpwqdd0i00adappppapwipiiapwaawqiippi0ww>q0wwqddddddddq0asiiiaaadw+ppw+wwdddq",
"aswasppp0ap0>0ddddddddddddddddwpdpwddddqwiqqiwwwaaiqqpspw00wwqqqaawasapwppw0wppiiiqiwwwqww0dq0ps>>wddddqsaddasaddd0ipapasaqw0da0",
"wq+wddaaddisa0qdddddddddddddddpsspaaasppdq0qwwppqiqqwiippwidaw0ddqisswiiwpdqippwiidqwwqqqqdww>s>>qqqdd00asppdaassiwpaswasppp0ap0",
"wqqapdpsaasasqasqqddqwddspddwwqss+iasswssppiwippqwiwiiiiiqppdwa0qwwiippwqppwiiiqqwd0dqq>+0q0q0w>0q00qdqqppaadwpdpiiwwqpwwaaaiids",
"q0wassissaawppsa00ddqwdassiiqippwwapqwwpddpdqqiiiqqwwq0qwiiwd0+dqwqwidpqdiiwwwq00qdw0qw00qdddq00>>qw0wwippsiwssiwipqwqdddapsaada",
"ppiqwiipipwwaappdd0qdwwapwpiwwpiqpsaqaww>iwdqwwiiwwqqqwwwiq000>wiwwqqdw0qi0wiqqw0>qw00qqqq0qq>+>>>wdqqwppiqpwiaappiwq0wassdssaaw",
"pdspqiqwisswispi0000dqwiqiappddqwpppwi>>iiwq0dqqqwqwwqq0qw00qwdqiiwqwidii>0q0qww00qwq00qqdq0q>>000wwppiqwqipqqiaawwwppiqwiipipww",
"pdapwqqpaaiwpwqq00d00dwappppapwipiwwiwaa0>ww00>>qwqwqw00qwqwwq00qwwqiwqipqwq00qqqq00q0>>0wq00>0wqwwwdpiqqpppwqqiqqippsspqiqwissw",
"dqqiwwwaaiqqpspw00wwqqqaawasapwppwqw00qw0>>>00>>wqq000>>wq0qqq00wqqw0wqqiwi0qw00q0++>0>>00q0>>0wwqddqwpi0000iwiwqqidpsapwqqpaaiw",
"q0qwdppqiqqwiippwipdd00qqisswidwppqi>>wqiq>+++>w00q0qwqwqq>0+0wii0iw0q00wiq00wqww00>+00q0++>++0qqwqqqwpw000qwwqqppqdiqqiwwwdaiqq",
"ppiwippqwiwiiiiiqppqwd0qwwiipdwdppwii>>qw00>++>q00>0q+q00>q00qwii0iwqiiqwqqq00qqqqq++0>qq0+>+>00qwwwqq000dd0qqwaspppq0qwwppqdqqw",
"0ppdqiiiqq+qq0qq0iwq0+0qwqwiipqiiiwwwq0>>>0000q0qq>0q+pp+0wwqqwqwiqw0iiiwq0wq0000q0>00>00qq>+0q00>>qqq0w00w0wwq0qwssppiwippqdiwi",
"iwwqdwiiww+pp+qwwqqwq>wiwwqqqw0qi0wi00w>>qqwq0q00q0ipapasaqw0aa00qwq0qwqw0qwq000>0q0>0>++q0qwqq0ww>qwwqwwww00wpiqaas0ppqqiiiqqww",
"iwq0wqq0ipapasaqw0aa00qqiwqwiwii>0q000qq00qw>>qqqwwpawwasppp0ap0>0w0iq00w0wwqq00q0wp>pw++wqqq0sswwqwqqwqqwii00qdiaa>iwwqwwiiwwqq",
">ww00>>wpaswasppp0ap0>000qqiwqipqwq00qqwpqpw>>wqqq0sswwqwaaaiiisa0qqii000qqqq000q0psspaa>ppqqwsspwqq>0wwqqpipqqpqwapppq0wqqqwqww",
">>>00>>wwwqpwwaaaiiisa0q>0w0wqqiwi0000wpsspaaqppqqwsspwqpapsaasasqasqqq>qwq0spqqwwqss0iaqpiwwwiaapq0qqwqwqwppiwaiwapipqp0>>qwqwq",
"+>+++>ipqwqqapapsaasasqasqq0qqwwisp>>wwqss+iaqpiwwwiaapqsqqssaawppsa00w0qw0assiiqippwwapqwwaawwssw0w0q0qiiwiaawaaiii0>ip0>>wqq00",
"00>++>piwq0wassissaawppsa00sqqwwassiiqippwwapqwwaawwssw0w0qpipwwaappqw0q0wwapwpiwwpiqpsaqasapppsiwp0000qqqqwpaqqiwqiiwwip>w00q0q",
">0000q0qwppiqwiipipwwaappps0q0wwapwpiwwpiqpsaqasapppsiwp000wiqqwispi00000qwiqiappqwqwpppissaiip>wpi0qw>>qq0qqwiqqiwwqippi>q00>0q",
"+qwq0qqippsspqiqwisswispi0000wqwiqiappqwqwpppissaiip>wpi0qw>>qqwpwqq00q000wappppapwipiiapwaawqiippi0ww>q0w0qwwiiwiiqqwi00q0qq>0q",
"0qw>>qqippsapwqqpaaiwpwqq00i000wappppapwipiiapwaawqiippi0ww>q0wqpspw00wwqqqaawasapwppw0wppiiiqiwwwqww0wq0q0>>0q0qq000iwi>q00qq0>",
"qq0>>ppqwiqqiwwwaaiqqpspw00wwqqqaawasapwppw0wppiiiqiwwwqww0wq0qw>>ppwip++00qqisswiiwppqippwiiqqwwqqqq0ww>0>>qq0>0q0q00iq>qq0qq>>",
">++>aspppq0qwwppqiqqwiippwip0000qqisswiiwppqippwiiqqwwqqqq0ww>w>>qqiqppqw+0qwwiippwqppwiiiqqwq0qqq>+0q0q0q>0q0>0qq000>>>>0>+>0++",
">++>sswssppiwippqwiwiiiiiqppqw00qwwiippwqppwiiiqqwq0qqq>+0q0q0w>0q0wiiwq0+0qwqwiipqiiiwwwq00qww0qw00qwqwq00>>q00wwip>+>>q>+++>++",
"q000qwwps0ppqqiiiqqwwq0qwiiwq0+0qwqwiipqiiiwwwq00qww0qw00qwqwq00>>wwiwwip>wiwwqqqw0qi0wiqqw0>qw00qqqq0qq>+>>>+wqqwppiq+>qq0%%>>+",
"wq>>>0ww>iwwqwwiiwwqqqwwwiq000>wiwwqqqw0qi0wiqqw0>qw00qqqq0qq>+>>>0wqqwppiqiiwqwiwii>0q0qww00qwq00qqwq0q>>000wwppiqwqip0q00+%>0>",
"w0>>wi>>+iwq0wqqqwqwwqq0qw00qwqqiiwqwiwii>0q0qww00qwq00qqwq0q>>000wwppiqwqipw+qiwqq0qwq00qqqq00q0>>0wq00>0wqwwwppiqq>ppqq00>++%+",
"q>wwiw0w0>ww00>>qwqwqw00qwqwwq00qwwqiwqipqwq00qqqq00q0>>0wq00>0wqwwwppiqq0ppq+ppwqwwwiwqw00q0++>0>>00q0>>0wwq0qqwpi0000q0ww+++%%",
">>qw00qw0>>>00>>wqq000>>wq0qqq00wqqw0wqqiwi0qw00q0++>0>>00q0>>0wwq0qqwpi000ipapasaqw0aa00qww00>+00q0++>++0qqwqqqwpwqwwq0www>qq>+",
">00+>>wq0q>+++>w00+qqwqq0q>0+0wii0iw0q00wiq00wqww00>+00q0++>++0qqwqqqwpw00wpaswasppp0ap0>0qqqq++0>qq0+>+>0wpwpwqqwqqq0sswwq>wwpi",
"q>0>+>>>>00>++>q00+ppw0ww>>wqqwii0iwqiiqwqqq00qqqqq++0>qq0+>+>00qwwwqq000q0wwqwwwaaaiiisa0q0q0>00>00qq>+0qpsspaaqppqqwsspwqqqwip",
"qww00q+>>>0000q0ipapasaqw0aa00qqwiqw0iiiwq0wq0000q0>00>0qwq>+ww00>>qqq0w0ipqwqqapapsaasasqasqq0>qw++sp>>wwqss>iaqpiwwwiaapqqqq00",
"aaw000q>>>qwq0qwpaswasppp0ap0>00iwwq0qwqw0qwq00wp0pw>0wqqq0sswwq0>>qwwqwwpiwq0wassissaawppsa000>qw+assiiqippwwapqwwaawwssw0i0qiw",
"aaiq00qq00qw>>qqwwq>wwaaaiiisa0q>qw0iq00w0wwqq0psspaa>ppqqwsspwq0qwwqqwqqwiwppiqwiipipwwaapp0q0q>wwapwpiwwpiqpsaqasapppsiwp000pp",
"qiqwi0q00qq0>>ipqwqqapapsaasasqasqq+qqw0q0pqqwwqssqiaqpiwwwiaapq0qqq>0wwqqippsspqiqwisswispi00000qwiqiappqwqwpppissaiip>wpi0ww>>",
"0>000qw00>++>qpiwq0wassissaawppsa00+ppw>wwsiwqippwwapqwwaawwssw0>0q0>qwqqqippsapwqqpaaiwpwqq00000>wappppapwipiiapwaawqiippi0ww>q",
"q>0>>00wq>++>qq0wppiqwiipipwwaap0ipapasaqw0aa00qiqpsaqasapppsiwp0+qwqqq0pqwwiqwwwwwaaiqqpspw00wwqqqaawasapwppw0wppiiiqiwwwqww0wq",
"i>>>>0>>0q000qqippsspqiqwisswispwpaswasppp0ap0>0qwpppissaiip>wpiwpppwqwwqqqqsswwqppqiqqwiippwip>+00qqisswiiwppqippwiiqqwwqqqq0ww",
"0w>+>0>>0wq>>qqippsapwqqpaaiwpwqqwwq0wwaaaiiisa0qpiiapwaawqiip0ipsspaaqppqqwsspwqppqwiwiiiiiqppqw&0qwwiqwpwqwwwiiiqqwq0qqq>+0q0q",
">qqq0>0www0>>ppqwiqqiwwwaaiqqpsipqwqqapapsaasasqasqqwpqwiispwwwwqssaiaqpiwwwiaapqiqqqqwwq0qwiiwp0pwqwwqqqpsswwqwwq00qww0qw00qwqw",
"qqiapq0>0q>>aspppq0qwwppqiqqwiipiwq0wassissaawppsa00ipqwiassiiqippwwapqwwaawwssw0w0qwwqqqwwwiqpsspaawppqqwsspwqiqqw0>qw00qqqq0qq",
"ppiaawqq0>>>sswssppiwippqwiwiiiiiwppiqwiipipwwaapppw0qiwwapwpiwwpiqpsaqasapppsiwp000qwqqsp0qwwqssqiaqpiwwwiaapq0qqw00qwq00qqwq0q",
"apwwppwaa>00+wwps0ppqqiiiqqwwq0qippsspqiqwisswispi0000qqwiqiappqwqwpppissaiip>wpi0>w>>qqssiiqippwwapqwwaawwssw000qqqq00q0>>0wq00",
"awwaaqwaaq>0>+ww>iwwqwwiiwwqqqqqippsapwqqpaaiwpwqq00i00wwappppapwipiiapwaawqiippi0ww>q0wpwpiwwpiqpsaqasapppsiwp0000qqq+>0>>00q0>",
"0qq0awipwqwwwi>>+iwq0wqqqwqwwqppqwiqqiwwwaaiqqpspw00wwqqqaawasapwppw0wppiiiqiwwwqww0wq0iq>>ppqwqwpppissaiip>wpi0ww>>qq>+00q0++>+",
">>wwqqwqqawwiwwq0>ww00>>qwqwqaspppq0qwwppqiqqwiippwip0q00qqisswiiwppqippw+qqqwq0qqq0ww>a>>qqapwipiiapwaawqiippi0ww>q0w++0>qq0+>+",
"saqw0aa00qqw00qw0>>qw0>>wwq00sswssppiwippqwiwiiiiiqppqw00qwwiippwqppwiiiq+pp0qww>+wq0q0a>0q0apwppw0wppiiiqiwwwqww0wq00>>>>00qq>+",
"sppp0ap0>0wp>pwqqwqqq+sswwqpqpwwps0ppqqiiiqqwwq0qwiiwq0+0qwqwiipqiiiww0ipapasaqw0aa00qq00>>swiwwipqippwiiqqwwqqqw0wwww>>qq++q0>>",
"waaaiiisa0psspaaqppqqwsspwqsspaww>iwwqwwiiwwqqqwwwiq000>wiwwqqqw0qi0wiwpaswasppp0ap0>0>+>>>iwqqwppiqiiwpwpwwwwqqqqsswwq0q0++>>>0",
"qwpsspsawwqssqiaqpiwwwiaapqsqqi>>piwq0wqqqwqwwqq0qw00qwqqiiwqwiwii>0q0qwwq0wwaaaiiisa0q>000wwppiqwqipqpsspaawppqqwsspwq>>++>wwip",
"qwiassiiqippwwapqwwaawwssw0w0qwpq0>ww00>>qwqwqw00qwqwwq00qwwqiwqipqwqipqwqqapapsaasasqasqqwwqwpispapwwqsssiaqpiwwwiaapq>qqwqqwpp",
"wwwapwpiwwpiqpsaqasapppsiwp0000qqq>>>00>>wqq000>>wq0qqq00wqqw0wqqiwi0piwq0wassissaawppsa00q0qwwassiiqippwwapqwwaawwssw000qwppiqw",
"qqwiqiappqwqwpppissaiip>wpi0ww>>qqs>+++>w00q0qwqwqq>0+0wii0iw0q00wiq00wwppiqwiipipwwaappqq0qqwwapwpiwwpiqpsaqasapppsiwp000wpqqqq",
"0qwappppapwipiiapwaawqiippi0ww>q0w00>++>q00>0qw000>>00qwii0iwqiiqwqqqqippsspqiqwisswispi0000wqwiqiappqwqwpppissaiip>wpi0qw>>qqi0",
"qqqaawasapwppw0wppiiiqiwwwqww0wq0>>>>00q0qq>0q0q0+00qqqqqwiqw0iiiwq0qqippsapwqqpaaiwpwqq00>00qwappppapwipiiapwaawqiippi0ww>q0ww0",
"w00qqisswiiwppqippwiiqqwwqqqq0ww>>>>qq0q00qq0>0q00qqwwq>0iwwq0qwqw0qppqwiqqiwwwaaiqqpspw00wwqqqaawasapwppw0wppiiiqiwwwqww0wq000>",
"wp0qwwiippwqppwiiiqqwq0qqq>+0q0q0i>0q0>qq0qq>>00>0qqqwiwq>qw0iq00w0aspppq0qwwppqiqqwiippwipww00qqisswiiwppqippwiiqqwwqqqq0ww>0>>",
"0+0qwqwiipqiiiwwwq00qww0qw00qwqwq00>>>>0wwip++>>>q0>>0iwq>>>qii000qsswssppiwippqwiwiiiiiqppqw>0qwwiippwqppwiiiqqwq0qqq>+0q0q0q>0",
"0>wiwwqqqw0qi0wiqqw0>qw00qqqq0qq>+>>>>wqqwppiq000q0>>>qw>qq>qwwq>>qqwwps0ppqqiiiqqwwq0qwiiwq0+0qwqwiipqiiiwwwq00qww0qw00qwqwq00>",
"wqqiiwqwiwii>0q0qww00qwq00qqwq0q>>000wwppiqwqip>>>0>+>>q0qq0+0ww0>00qww>iwwqwwiiwwqqqwwwiq000>wiwwqqqw0qi0wiqqw0>qw00qqqq0qq>+>>",
"q00qwwqiwqipqwq00qqqq00q0>>0wq00>0wqwwwppiqq0pp>+>0>+>0>>>000qwq>00wi>>>iwq0wqqqwqwwqq0qw00qwqqiiwqwiwii>0q0qww00qwq00qqwq0q>>00",
"q00wqqw0wqqiwi0qw00q0++>0>>00q0>>0wwq0qqwpi0000>++>0>>>0>>0qqqq>>wwiw0>0>ww00>>qwqwqw00qwqwwq00qwwqiwqipqwq00qqqq00q0>>0wq00>0wq",
"0wii0iw0q00wiq00wqww00>+00q0++>++0qqwqqqwpw00%0+%%+>>+>0000qq00qqqw00qw0>>>00>>wqq000>>wq0qqq00wqqw0wqqiwi0qw00q0++>0>>00q0>>0ww",
"qwii0iwqiiqwqqq00qqqqq++0>qq0+>+>00qwwwqq000>00+%%++>>>00>>0>+>q0>>>>wq0q>+++>w00q0qwqwqq>0+0wii0iw0q00wiq00wqww00>+00q0++>++0qq",
"qqqwiqw0iiiwq0wq0000q0>00>00qq>+0q00>>qqq0>00w0>+00q++000>>>+++>++0>>>>000>++>q00>0qw000>>00qwii0iwqiiqwqqq00qqqqq++0>qq0+>+>00q",
"q>0iwwq0qwqw0qwq000>0q0>0>++q0>>qq00>>qwwq0www000piqaa0>>00>>>++>++>+>>>>0000q0qq>0q0q0+00qqqqqwiqw0iiiwq0wq0000q0>00>00qq>+0q00",
"iwq>qw0iq00w0wwqq00q0q0>>+++>>>00000qwwqqwqqwii0+qwiaa>00>>000>>>++00+>>>qwq0q00qq0>0q00qqwwq>0iwwq0qwqw0qwq000>0q0>0>++q0>>qq00",
"iwq>>>qii000qqqq000q0qq>>++>++>0>>>0qqq>0wwqqpipqqpqwappp>00>+00>0000qq>0qw>>qq0qq>>00>0qqqwiwq>qw0iq00w0wwqq00q0q0>>+++>>>00000",
"qw>qq>qwwq>>qq000qq000q00>+>>>00>00>>00>qwqwqwppiwaiwapipqp0>>00>+000q00qq0>>0>+>0++>>>q0>>0iwq>>>qii000qqqq000q0qq>>++>++>0>>>0",
">q0qq0+0ww0>00qq0q0>000>+>++00>>+>0>>0wqq0qiiwiaawaaiii0+ip>00>>++00>w00>++>q>+++>++000q0>>>qw>qq>qwwq>>qq000qq000q00>+>>>00>00>",
"0>>>000qwq>000qq0>+0>+0>+&>0>>>+++>000wqw0qiqqwpaqqiw&iiwwip>>+>>0>>00wq>++>qq0%%>>+>>>>0>+>>q0qq0+0ww0>00qq0q0>000>+>++00>>+>0>",
">0>>0qqqq>>0qq00>+>q>+0>++00++>>>>+>0>0qwwwwq0qqwiqqiwwqippi++>>>>0>00>0q000q00+%>0>>>+>0>+>0>>>000qwq>000qq0>+0>+0>+&>0>>>+++>0",
">0000qq00qq0000>>>q00>++>&>>>+>000>>0>0qiwqqq0qwwiiwiiqqwi+&+>>0>>>+0>>0wq>>>00>++%+0>++>0>>>0>>0qqqq>>0qq00>+>q>+0>++00++>>>>+>",
">00>>0>+>q0>>>++00q0>>+&+&+>>>>>>00>+>q00qwqq00q0q0qq000iwi>+>>>+qq>>0www0>>>0>+++%%0+%%+>>+>0000qq00qq0000>>>q00>++>&>>>+>000>>",
"000>>>+++>++0>++>0>>++0>+++>+++>>>>0>>wq0q0q0qwq00>0q0>00iq>%&+qqiapq0>0q>>qq00>00>+>+%%++>>>00>>0>+>q0>>>++00q0>>+&+&+>>>>>>00>",
"0>>00>>>++>++>+>+++>>>0>>+&++>>++0000000qwq0qqwqq>0qq000>>>++iippiaawqq0>>>0q0q0>00>>>+0>>++000>>>+++>++0>++>0>>++0>+++>+++>>>>0",
">00>>000>>>++0++++>>+00>>+++++>>>>>qqq00qww0>>qqq0000>>>>>>%+iaapwwppwaa>00+>0000qq0000>0>+00>>00>>>++>++>+>+++>>>0>>+&++>>++000",
">00>00>+00>00>+++>>>+00>++>>&+&+0>>0qqqq00q0>>q>+>>>>>>0>&+>+0aawwaaqwaaq>0>+>+>qq0>0++00+>0>00>>000>>>++0++++>>+00>>+++++>>>>>q",
"00>+00>>00>+000>>>00>+>>&+>>&+>>>>0qq00q0>00qq0>>0q>>>++>>%++%%0qqpawipwqww00q++q0>>0+>0++00>00>00>+00>00>+++>>>+00>++>>&+&+0>>0",
"0>+>>>00>>+++0>>+000>>++&+>++>>>++>0q00>>++0qq00qqq>>>>>>>+>>+>>%qqqqipqaaw0qwq00>q0>>>+>0+>00>+00>>00>+000>>>00>+>>&+>>&+>>>>0q",
"&&>>>+>>+>00>+>00+>>++>+>>+&&>>+>>++>00+00+>>0qq>>>>>00>>>>iiw>>qww+0wqqaaiqwq0q0+0++++>0+++0>+>>>00>>+++0>>+000>>++&+>++>>>++>0",
"+++>>+++>>000++00>++&&>>+&&++++>>+>>+>0+0q00>0qq++>>>0qqaa&aawiiwqq0qiiqqiqwi00q++>0>000++>&&&>>>+>>+>00>+>00+>>++>+>>+&&>>+>>++",
">&+%+&+>+>>>>++>>>+>+&++>>++%%>>>+>>>>>++>>>>>00>00>0>q0aapaappwwi0qqwiq0>0wwqqq>>++>+>0>>00+++>>+++>>000++00>++&&>>+&&++++>>+>>",
">>++%++>>++++>>>+++>>++>>++%%>>&&++>00>>00+>>+0>+0q0>0qwwippwpipai00w0qwq>>qwwi000++0>>+00>>>&+%+&+>+>>>>++>>>+>+&++>>++%%>>>+>>",
">++>%%%&++>>>>+++>>++++>>&&+>++++>00>>>+>>++>+++>>>>0qq00wiqwq0aaqqwwq0wi0>>>iiqq0qq00>>00++>>++%++>>++++>>>+++>>++>>++%%>>&&++>",
">+&+&++&+%&>++>>+++>+&&&+%&>>+>>>>00+>0>+&>0+&&++>>qq00qq>0000iiq0wiiq0qww>+q0000qqq00+>>>+&>++>%%%&++>>>>+++>>++++>>&&+>++++>00",
"00>+&%++&%%+++>>+++>>+++%%&+>>>>+>>+>>00+&>0+%&>>00qq>>q0w00wqi0>>qqqw00qq>+0qq0>0>>00>+>0++>+&+&++&+%&>++>>+++>+&&&+%&>>+>>>>00",
">0>&+>+%$&&+%+++%++++>>+$%>+>>+>++&+>+>>>+&%>>>>qq>>0>0>wwqwwqq+0++00ii>>>0q>wq0+>++++%+>0>>00>+&%++&%%+++>>+++>>+++%%&+>>>>+>>+",
"++++%++%%%$$$%$&%%+%%>+%%$&+>>++>>&>>%>>+%%&0>+>qq00000>wqwiwww0q++>0ii0>0qw0>>0>>+>0>>>+>>+>0>&+>+%$&&+%+++%++++>>+$%>+>>+>++&+",
">>>++>>+%+%&&&+%>+>%++>%&+$&+&+&>>+%%%%&%&+>00>>>>qq>+>wiqiiqq>q0q0+>wq0q0>ww0+0qq00>q0+%%+>++++%++%%%$$$%$&%%+%%>+%%$&+>>++>>&>",
">>>>>+>>+%%$%%%+>>>>>+>++%&&&+>>&&%&%++&&%&&>++0++>>++>wi>0qwwwiqwqq+>000>0qq0>>00qq>q0+>>+>>>>++>>+%+%&&&+%>+>%++>%&+$&+&+&>>+%",
"+$0>&&++>+%+%+>>+++>>+&&+>>+&&>+>+&+>>+++>&&>++&&+++>>q00qqqqqii>wwq0>w>0>+>>+q00>0q>00&++0>>>>>>+>>+%%$%%%+>>>>>+>++%&&&+>>&&%&",
">>0&+%%%+$+%+>>>>+>0>0>&&00+>00>+%+>>+>+>+&%&&+&%+>>+>qq00>qiiq0qw0+qq00q>++0+>+%+>00+>>$&&>+$0>&&++>+%+%+>>+++>>+&&+>>+&&>+>+&+",
"&&0+%>>+&&&&&++%%++>00>+>>0>>>000+>>00>>+&&+%&&++>00>+>>>>>qiw0qwq+0q0>0q0qq>>++%+>00++>000>>>0&+%%%+$+%+>>>>+>0>0>&&00+>00>+%+>",
"$$%>%++%$&+>&+>>0>+>0>>+++>>0>+>0>+>0>>>++>0&%+&&>>++++>qiiqq0qq0>0>>>0q0+>>+>00++%+>>0>++>>&&0+%>>+&&&&&++%%++>00>+>>0>>>000+>>",
">&%%&&%&&%+%>>+>00++>&>+&&&>00>+>%>+>0000>>>+++%%>++>++>>iw000>000q>+0qq>+00++>>>00%+00>>+++$$%>%++%$&+>&+>>0>+>0>>+++>>0>+>0>+>",
"%&$&&$%$%&$&&%$&+&>>&&&&%$>+>>+%%%%>+>+>>+0>+>>+&&+&>+&&+>>0+++>0q0>+00>+++0>%++>0>+++>&&>00>&%%&&%&&%+%>>+>00++>&>+&&&>00>+>%>+",
"$$%$$%$$%+>%$$%$%%$&+%$$%%+$$+$$+$$+>++&$>+>>00>$$&+>+$+&qq>+q>+>+0%>>>>00+>00+#>+>>+$&+++%%%&$&&$%$%&$&&%$&+&>>&&&&%$>+>>+%%%%>",
"$%+%%%%+%++%%+%8$+$%%$%%$%+%$$%+%%%$$%%$&+$%$%$&$&+0+$$&&>>q+000>>>>0$+>00%++>0>#++%+%%+%%>%$$%$$%$$%+>%$$%$%%$&+%$$%%+$$+$$+$$+",
"$%$++#:++%%##281-%<@@@@&%<>>%%%$$%$#O%%<27%%$$$&&&+>$&+&&>>q>000>00>0&$+>>++>+%%%%%+%++%%+%%$%+$$%$%%$&+%$$%$+$%%$%%$%+%$$%+%%%$",
"++:::$%&<<##7852->@%-$$&&<<97;O%##O#%+,678#$$$$$%>>%%%>>%$>>0$0>>0++>>$#$%+%$%$++%>+++076,+%#O##%O;$+$%%$%%$%+%$$%+%%%$$%%%$$%$$",
"349,&&%#%%#%7812<@<%%$$$&&<287%<%#O##<+277###:+$%%%$%+>+%%+>0$>>>+%+%$%%%%%%++>>::>+##772+<##O#%<%782<&&$$$%%<@%%%$$%$%%%%&&,%%$",
"33,,&$$%%%%2y82-0<%%%#$$$&&2172##O##O<-282##$::::$%%<,>>0%%%$%%%&%%++%>0+,,<%%<::::$##282-<O##O##2712&&$$$#%%%<0-28y2%%%%$$&,,33",
"33<,:$$2-%-7y7-<@<<%%%$$$$%2172#%o#%##-77%OO#$:::#+<#++>>0%%&::::::&%%0>>++#<+#:::$#OO%77-##%#o%#2712%$$$$%%%<<@<-7y7-%-2$$:,<33",
"%3:<:&#72#7ee2<%@&&%$%$$$$%-172#:O#O#O277%oo#$::&<%<+++:<0<##&:##:&##<0<:+++<%<&::$#oo%772O#O#O:#271-%$$$$%$%&&@%<2ee7#27#&:<:3%",
"%&:::<&21%7u8-<>:%#%O%#$$$%-1175::OOO-82-#oOO$:&=<%<#&<#&>:#$$#$$#$$#:>&#<&#<%<=&:$OOo#-28-OOO::5711-%$$$#%O%#%:><-8u7%12&<:::&%",
"%&::::&-8tyr7-<<,###%O###$$-2175$O#O#272%OooO$$$$####%##%<:$$$$%%$$$$:<%##%####$$$$OooO%272#O#O$5712-$$###O%###,<<-7ryt8-&::::&%",
"%%::::&#7eur1;%<:<%#O#o#O$$$-17-OXo##72-#OOO#::$##<&###%<<*%%$$%%$$%%*<<%###&<##$::#OOO#-27##oXO-71-$$$O#o#O#%<:<%;1rue7#&::::%%",
"%$$::$#$27re1;;#O%=#O##O#$$%-17-ooo$27-$OoOO:::$##%&$OO%&&==%$$%%$$%==&&%OO$&%##$:::OOoO$-72$ooo-71-%$$#O##O#=%O#;;1er72$#$::$$%",
"%$###OOO#-177%----#O%%O#o%$%287-ooo-22-OooO#::$###%&%O##&%==$##%%##$==%&##O%&%###$::#OooO-22-ooo-782%$%o#O%%O#----%771-#OOO###$%",
"#OOOOOoooO$--%$%%%--#Oo###<%287-O--27-#OooO:::$OO#%%&%$#$#$$#O####O#$$#$#$%&%%#OO$:::OooO#-72--O-782%<###oO#--%%%$%--$OoooOOOOO#",
"#OooooX...XO#$%$#%#;-%;#o#< 787o#--2--OoXoO:::OOO#&&&&#O#oOOOoO##OoOOOo#O#&&&&#OOO:::OoXoO--2--#o787 <#o#;%-;#%#$%$#OX...XooooO#",
"OoXXX.... .Xo#&%oO#%%-1-;O  8e7#-722-#O..XO::OOoO#&&%%#$OXXXXooOOooXXXXO$#%%&&#OoOO::OX..O#-227-#7e8  O;-1-%%#Oo%&#oX. ....XXXoO",
"OoXXXX..   .o:<&%:*O#%111%#;8e;#27--%O   XO::OoXoO#$$&%&#XXXXoO##OoXXXX#&%&$$#OoXoO::OX   O%--72#;e8;#%111%#O*:%&<:o.   ..XXXXoO",
"$#OOOoo     O$3%<*%oOO%212#8r8;o-2-#O     #33# OO##$$333$OoOOO$33$OOOoO$333$$##OO #33#     O#-2-o;8r8#212%OOo%*<%3$O     ooOOO#$"
};
