/* XPM */
static char *floor1[] = {
/* columns rows colors chars-per-pixel */
"64 64 64 1 ",
"  c gray9",
". c #1B1B1B",
"X c gray12",
"o c #3A3319",
"O c #232323",
"+ c gray15",
"@ c #282828",
"# c #282F28",
"$ c #2B2E2D",
"% c #2C2C2D",
"& c #2E2C2E",
"* c #322D22",
"= c #223322",
"- c #273C27",
"; c #2B3827",
": c #263328",
"> c #3D3626",
", c #363228",
"< c #2C3031",
"1 c #2F3B3C",
"2 c #303032",
"3 c gray20",
"4 c #323737",
"5 c #3A3A3A",
"6 c #53200A",
"7 c #423629",
"8 c #453F2A",
"9 c #4F3F2B",
"0 c #43333F",
"q c #2D4025",
"w c #2E4425",
"e c #334B23",
"r c #344D2D",
"t c #355722",
"y c #3D5935",
"u c #5B4326",
"i c #53472C",
"p c #674027",
"a c #704628",
"s c #7A4B2B",
"d c #604C33",
"f c #6D5536",
"g c #7B5C3C",
"h c #416225",
"j c #547630",
"k c #446343",
"l c #4D6E4E",
"z c #527456",
"x c #814F30",
"c c #8C5637",
"v c #985D3F",
"b c #866741",
"n c #976E45",
"m c #A56446",
"M c #A0764A",
"N c #AD7F4E",
"B c #B47150",
"V c #65893C",
"C c #5D825E",
"Z c #6D9242",
"A c #6B906D",
"S c #7B9C76",
"D c #B78C58",
"F c #C18564",
/* pixels */
"tqeq79:7i8ififgfggfgf>$qr@O7di>8g8i7;;:$=8ifgbgbnbf8+=$:i9eetirw",
"q>dgp9:88ifiigbbgggdi8X69.q>f@,pdd997q$$8idbbsbcgsx8,=$d7fffwwtt",
"d8fcf77>sfd8sgcfggsi@;;7u8889>>>8w7w7:;-,fgfggbgif7d&i8sbngsfith",
"88igd9igggiu>iggfu8>8,>dbgvi>9q8987$76i5ipfffgbgfid7->78disgsgfd",
"7i9>>>9pgxp>.@@8Xo,,,u88fMCgi8p9e877yqqewii>88ii+8>dopp9g9dgbfd8",
"ry998>89ff>777=>@,:,,;uOivnbiidpe9>9-;;i77=-78,i:9+9>>>9xbpdbigy",
"9qrq9i8Xip9XagCf@$=:*=8@psbff8i7-;-:@utq;tri--e=9id9pi>>uabpd+gd",
"qe79e9rwp8@ffMDMbg@::ow@>iffsgi;q;iiXwq;e;-yut73-aaysb8i8udX, #5",
"7q8qq9w>=dhzNBMNngbg87r@>igsdgi97#;-dgbggii=wr99d8sbgbb>77uu+p8&",
"8iq9X9q;qfdnMbbnnffggX@q8dffgfiiu&778fffvgaii9>@a8idfbbviu7->>@f",
"iipyO978=>bcgggbbvcbbi=>8idd8gfi;e=&ugddxbggii,.@8dddgANMs@.i:=d",
"bbduqur>==gfgnnnvcbbbd@9d>>>>isi9;7ifvgvgxfvgi>O8fnMMmbZMnf8didi",
"fggguu77=dffnMnAMmbnbgf7;iO>>88,,,>ifbfgbnfggxv8pbMjMMNNZBsdsfgg",
"nbbvf> uXfcbngMNSvvvbgg&w;8@@Oiqe7>idpfbfnbgdzb8>xnbmxvNNbsgbbbb",
"gbbbvg>.>igcbfgbvvbvbfww>>i,.,*uuwpgfigdbnxffgge &iad8dgxdgbbbgg",
"vbgggg>qti8sbgdadddfff99iti,>>>qqu>ddfsfgvfdfgf9e-.k.O8idifgbsfb",
"ggbidf99i98>ddd8887idyi>-fss8i89>79ifbgdfcidbbngO7:Or@&>pidgfdff",
"bcd>@$&9X788id8>8r-9;7q>dggfgs8:&pu8gggigbdggcSg79,%w-7.9ii8>>fg",
"fi>9 wu9u=>i,>1y-q;9:<>O>88fsg88i97>igbfbbg8>ibvi8&>9-7% O>>OXdd",
">q9O:u7i$@e&$1oi@@i>>i,i88888fd8ue>w8isbcgid8dbf9,=>@it7q .X.88d",
"7.9;7::97q;@-,sngfg:+di>8pi8@i99t--e8>dgbfffdfgi=o7d9dd9e@uq9q,=",
"@p7q7980q;-8ahiggffgbvfiO@:>9.u>-9-erifpfiadpdfi7bbSbvp7i-upi9:&",
":$$i988qdpff9hhidscMbCf+ @.8dq-i79r9euuwiii>88@i8vbNNSbcgd@ru9i>",
"&@8fs8:97iggfgd>ifvbdbgr@@-dvgsNgciie9ii98>>u97,>>isbvbgv99ir*+8",
"@,Ofgi8>iibnbvdiiggnxmc97siigvbbfggir99i:=>9ieq98q8pggbvswqqi,9:",
":9:8>@9s8dbCMgbfnggfcMg-8i:8riffdfcidu7q**iwree8pbgffggbuiee9789",
"79:7>77d>fvNbnfdzgbfbMf8>8,;;>idfgdcg8X=wq=eq9d>8bSbffsg8ywOe=&O",
"u$$&&7duisbcncdmDnbvxvg@r8,,,+>;>di+=**;;t7qq8i87bNNbggg::-e=i=O",
"9-=&iawegggvnbfmBcsgccg+-q3-w;..O8i9u>;=yewydiuXOibbgbgdiu9>gdi8",
"iifq7dq;gbfbbcMMbcbgbgd9q7;#q+O -f9:pw@w>>yg8piipp8p>qidq:,iiidi",
"ffgww7&-sgfggnnlvbgvgf>7q9-fxbsipf889;,i&:fvgggNCngi. .8,@+:>-dd",
"bgbf7;. >ggfgfbMggidfd-7-i;bgcfd8fsf88>#8igbnbnCnnCguuq7@@9>>8df",
"gvgd9:=uOiggf@ids>ii,9q77u8fdfs8,-dgs8-$>igbvcbvnMMnfs2i&-p8@-id",
"fid-q>>O Xpd8.9888>>77q9w8O>s>ddiidfbi9+,,gccfggbsbngiwuuwu7@ >7",
"777:3>>u.@,OXqu,-8e898qqi9>ipfisgggfb8,8-igfbvbggnbnff:::;:@@:77",
"77a>iwbgi9,@97idff=-o>;>7i>88ddgfgvggxgp->sbvccvnnngxgd:@i9:&:77",
"7ui>>tVmbb@>i>dbbvgd=,9ai9>9wiuggggggvgpt8fgcfgcgvgbbdd;:%ui7:%:",
"#3y>8nnNngf;&widbSbd=>,o@887udddgbcgfd>>p8igbxggbnngvfi;%79ui7@7",
"73i.8cgsgbbg@u8@gFDg8>,*pfi:>dddfggffpX>>8idbgssbbnbssiq:-eu 7&7",
"::&>@id@9fbb>8>=ibDc79@=>du&>iiidsgfgi8isg,dgbccnbvbMbi;;--ie=$$",
" quii>:89dbf8@X.>diO=>>88i8>=8>>88ifid,dbgffgfggncbczbi97qe>:%:u",
",7audpd @gMC8>X@7@>O@.@.&di8p798p>>8i@$#ggsdggbbbbbbfg;:ohe9O>>>",
">Ouup,9#:xng>X,8fdp7yy@@@dsi8p88d8@>88#;8gfp8idgsddfgd,r;w-88p8d",
"d>X>7:,dr>dd 8ggfbfgfhh>Oq77uiO@>9>i99i,,ip8ifsff88fgd:yh>idsgfg",
"gaOOg,:7;e>9tfgffavdfbfb8>9u@@88;>2;qpipu,9rdfgbfp>pirqqO>igbggs",
"vg8Ous$99q>@78pidfdfvcffdO>9qO&;:ruiiiai9;,.8dffi>r88i-79:fgfdgg",
"fgd::>79:<e>id8pdffbcbvMg>>i73:9;;ua-rpi9-,=ui@O,-8iuu9qO7ffcgbc",
"bbf7iiq9$u9qdf8>8ffggdbnc8ww&:4uriyed7fir9,=*8,uO79dqp9-.Oicbbfg",
"fsfi>iwq,;$O:i,Ofgddbffbbh8:=-eddiiwdiguu9>>*pgiXiauuu9.OO8gggbx",
"fif8O7=uqXq$OX>Oidgbgbdcvf8>>;=fgdfgsiddp7*>7ibfiituu7@ @@@9i8ds",
"f89.;w-9q$$$--<X,igsgsscbfh8qir@9gggfvgii**>78bggcdqeu@X>ii-@eis",
">>i;e;>>;qq.+uiwO8dfbcgffgh8>Owie8digfbvgii9pi8dgdui:8@fbbgd:X,i",
".p&;@@ifd&,&OidiOOidbgfbfggi#qhee8fdgfbfdbi897u@*p>:$iggbNSbfO>9",
",$;7divgci@@X=id@.>ifgvgfff>O#ry7pddgggbgbis89 ,OX>idipgbmNNb8:&",
"7&>wifgbnbs= Or>,O;,ufbfiip>;O:yO>idbbfgfgiia79,&=>if>+8pgNDNsi-",
"$7+XdddvMDvi O3;@@>@rfbbdf>8,;;>&pidggfbdgfiw8>;u@=ipir7@ivNSbOy",
":7 XfgifnDDg+,u;@OOO -igpd8,>,,>iffdsvcgpfsi7sapu$=>8ffd88gnng>7",
"7@i@df88gDNbf87+; . i O@8p8uu,O+8fgsddfd>8fp889-a;>.>dgsfdfbcf87",
"--;&iippdvvbbffu>>O q8+>8qq;d>8788fgd8@u@8d88fdii..uX8agfidgbi>9",
"q;&.t@upi9dgsisfdfi7 i>i9;;=bbgb8XX@>>i.@w>>@pdfsiXu .ifi8dsg88t",
"7&::wi8-;>+8idsffggpO@>7qiXibNnNbiX ;97 @@@X@>igggp :;@ip888u7qq",
"7:w:;9>iOu>8ffgfifbf>@q>#:OifbnMDs@  o7X@8yX>pfgbbg@iq;>9>i8@q7w",
"u+0ei-7h>ipisgbsddfdiu+;p=X>pdgnndi,$;;:>>>8ffgbbbvi:q#q7i7eeqi7",
"--ei;77->,idgggbgdsdi>,Oai&:idfgfi7i7@-:8>8ifggbgmig>q&&qthrh+-9"
};
