/* XPM */
static char *floor3[] = {
/* columns rows colors chars-per-pixel */
"64 64 25 1 ",
"  c #131313",
". c gray9",
"X c #1B1B1B",
"o c #2F1F0F",
"O c #3A3319",
"+ c #232323",
"@ c gray15",
"# c #2E2C2E",
"$ c #322D22",
"% c #392B27",
"& c #2B3827",
"* c #3A3A3A",
"= c #4B2F17",
"- c #4A271B",
"; c #57371B",
": c #412921",
"> c #423629",
", c #453F2A",
"< c #4F3F2B",
"1 c #2D4025",
"2 c #674027",
"3 c #3D3D43",
"4 c #434343",
"5 c #4E4E4E",
"6 c gray34",
/* pixels */
",@$X,O><%%,O>%>>O$<>>5<X@$X@@X@#X@%>X@XXO@@>,><<>O$$%$<<<+X$@@X$",
"$><$%><<>>@$$o>,$$o,,4<$@#>>$$>@@@#>O+XX$@>%$,<<><<>$$@,5>@@@@$$",
"X,,%$<,,O$@$$>,$$$>>$<<% @$X@><$X3$@@@@.$>%<@<<><<O>>,$><%>$+<@+",
"%<5<<<><<>O$X$#$O$@$%X$$$$%O@%%$@<%+X$>X>,>>$>>@><<<O>O%#@<<$5XX",
"@<,<<,,,>$>@@$@@%@X@#@X+%<,,$%,<$5%@>%@X%%#%$>>$,<<<$$>;$X%*@@XX",
"%>%%>$@$@@@@>@+%$@+X%$@@$$>#$$<>>%$@>> $@X$$$<><<<O,XX,<<5OoOOX$",
"><>>O X@X@X@>@%<>X@X>%$$X@%$$$>,<,<O>%X+<,$,>OO<<%@X@$>,<;O<<2X@",
"%<@X@X+$X$$$%>,,%@XX@>>@$%%,$@>$><4<<$XX,>>%<;,<<O%>OO>$<<<25<X@",
"@>XX>@@@>,%,>><$@,%@XX@X%<O>@$>>,,<$<>@$OXX@O=O;<<O<<O%>>5<<><>$",
"@>@X%O@@%$<>>>,o%<<O@@@@$$>o$%>5>,,O$$X%X@@X$2<<5<O>,<<<5<%@>>>>",
">$XX$>,,@$>>,>,%<<<%@@$%$@@@@<<<O,%>$X%<X@$@>5<<,><<<<<O<>%@$$@>",
"<%X$>>$<>>%<<>,O#$%<,$+%>$$1$<,O<,<,,><,O>$X$><<->2<<<;<<,<>$,,,",
"$$@@$@X$<<<<,>>>XXX%<% @$+<,>$>,,$O<,<>o,%X$@$%<,>>><<<<>O><<<<>",
"$$#@+X$<<<4<$,<%$$%>$@XX$%>$@$$>$.$,<,$$$X.@@>O>>,=><<,<>$$><>#@",
"@%@@@@%>><$%>>%$X+%>$@@@$$,%XX$$$$@O><@&@X$@@,<@O<;O$&%>>$@%<oXX",
">>X$+$$%>,,<<%OX@$%,<>@XX@%<$@>o@@$,X%$$$@@O@#<>$@>$XX@$,$X><<@X",
">>@>X$>>$%>>>>>%$$%%1%$$X@%5%,>$$X$$X@$%,>.@O%<%@O><@@%$>$$>><+X",
"$$X%X$,%$$>@%>$$$@X@$%>@@@>@#<&O<@X@@+<<$@X@$%$$X$,<>@$$%%<,,,$#",
"$@+X$>$$%,>o>O$%X$$>><,$@$>+@@$><%X@>>,$,@X$@@X$+>><<@@@$<$5,,@$",
"@@X@$>O@>%>O%>@%>%>,%<,+@%$X$,%%<O@@1,,$%@+$$>$XX@+$%$O@$@X>55@$",
"@XX$$O>>,O@#$O$%<$@$X$OXXX@><<$$,@@X$><,<>o><;,$O@@X@%,XoO$%,<$$",
"$$@@$>O,>$X$>>$$<,$@@>@XX@$$<,@@>$@@,>@><<,>,>O<><#Ooo,,%@$*>>$$",
"@%@$%$$,>O$%,,%X>>>>O$>$X$$@$>>O$$$$$O$,<<-O$$>>$$>><<>$$@X>,%%@",
"@+X@,$X@,>$>><<$,><5<,>>$@%,,%><,<>@X<<;<<>Oo,<@@@>%<5>X%,@$&%@X",
"@$$&<OX@%$X%,<5<@@>4,<@>>$%<<<<O%%O@,<<<;=,o$<<,>,>O,$>@$Oo@X$$X",
"$%%X$>O@$+$@%>,>@X$,<,>$$X@$><>%@Xo1>,<<>,<O><,O>,%>>X@#$,,<%$,@",
"%@$X>%>,,$%,$$O$X$,>$,;>,$$%X%$$@$X$><<<,5<>><%>,>@@<OX$>,>>*<>X",
"$$@$<<5<>%,<%$>$@><$XO$@>o@$X#>$$>O@$<,<5<$$$<O,5>>$><@O%>%%<<>$",
"XX@%<,5,$>%>,>O>o<<>#$@$>,>>@$$5>,$@%%<5<-@$O@$<<O$>+%$<$,@>>,@%",
"+$>@>$$$><<$>>O,O%4<$<,>>5>$>@$$,, @@>65<,$OO,$$$$$$@$%%@>%,>,>>",
"@><>$%%@%>,4<%$,<$,O@>>o$OO,5>o=5,$%<5565<o$$#@@X>>$%>$@@>,$,,&,",
"<<%%,>,>@,<%$$>,<<<@@$>,,$@%>O><65O,<565<>O%$$X<O,,X@$@$$%<%>%%%",
">5%$>@@>@>$X$%Oo>,O@%$,>$@$@@>>,55,O,<<<<@$>@@$%,>5,$$%,$%<<$X<,",
"$,$@,%X@#>$$@O$<,$XX$>5>O,>$+><$<5>X$>,<<$#>$@X@>><,X@$@@>><,$,%",
"#>>$>>OX%<>O@>@<<@+@X>$%>,$o@>>$%@+X$%<<,>$5<$.X@$@X<<%>X$$<>$,$",
"X$@@@<<$>,,@$>$$,>@,>>@$$#$o$$$>@$@$=$>,<#X#>>XX@@@$X%@$$>@$%,#X",
"XX$$,<<,66>$>>,>$#$@@>$XX@><>,>@$><<<@@%<$XX@>@X@$@@XX@%,%$$$,@+",
"X+>$><<<<,$@%$<>$X#>$$$XX$,<>,,+$,<>%$$,>@XX$$,>X@$X+@$>>@O@X$,%",
"$XOXX%$,5<@@$X$$@$$>,#$@X+@@.$O@@O,$@%$,X$X+X@<%X@$@@X><,$#@$$>>",
"X$@@@$,,%,@X+@$@%$@@+@@$.XX+X$$$O>$$$OX%$$X$o$XXX@@%O$,<%O>>>>@@",
"@@@$<>$@@XXXX%$&<<%@@%$%X@<@$><OO$$,@,$><O@$oo+@@$@>,><>@%$%>,@$",
"X%O%,>+X@@>>XXX%5>$>,@%,<>*>$>>,O@$>$5,@>Oo$$$@$>@$$%,@X@@%@>O@$",
"X$X&%%XX@X%<O.X%<$$>$$$<4>@X@@X$$X,oX<>>,:>>o%>>O%$><$X@>,@@$@XX",
"+XX+XXX+$$$<,XX@$o$XX%,%%>@XXX$,>$,>@<$<$><<,O,,>$%<,@$$<<$$o@XX",
"XX+@@@@,%@>>O@X$$<OX$>,$>#$X@@XO<><>><>>@#<<,X><5<,<>$X$>%,$X@@X",
"XXX@>@@%%>>@@$$>>*$Xo>$%$$$@@$@$#>,@,,<$@$,,>$@<<<>O@.@X$O>$@XX+",
"@@@$$$@$%<>O@>><$>,o@@X@$@@>$,%O$,-o><>@>>@,>$><%%>$$@>,OX@X+X@o",
"$$%>#X$,1%@$><,%O>,$XXX&%X#,<@O$-$,><,$$oo$%>$,5>%%$>>%,,X@&X+@@",
"<>><,$$<$%@%@,>>,<<>$@XO%@@><,$$$XO<<O,>$<<><,%<<5,$<5<,<$%>X@%$",
"<<><,$$>$X@X$>$+X><%@O$%%X@@<5->>XO<o=<,>,>o@%$>,<<>><<<>,>,>$@%",
"><$$<%>@XX@+$@@X.@O@$@@X$X.X$$>O>$$>O<O><,$,$$>5<<<><%@$$X$><$$O",
"$%>O4<<@@X@X@%$$@$X><$$>,$OoX>>$<>$@<<>,<<,,<<<<<<<>,>$@%@X>,$>,",
"o@>@$%,@XXXX@$$%<4$>4>>,,X@$O<<>,O$<<>>,,,,>>,<<,>%X+#>+X@X@#$>,",
">O<@,X$@$@@@X@>@$#$>%X,%$$X$%,<<<o%<O-O%<>>>$%>@#<$XX@@XX@#@%$o$",
">o<+OX@X#,XX@@$$.X$$XX@<<5@$$>O><,=,,,;$O>oXO@XXX#@+X@X$+X#@%%$O",
">O<$@@@>%$$+$%>$X@$@>$#>%,>>O>,$<<<-,,<@X,,<$X+@@$@XX@@$@X$@XXX,",
"o$<$$$><5@%$X@OO$>$>><>,%X>$@>;=<<;o@<,.@,<<$XXX><%$$@X+XX#>@X>%",
"O$@>>,,$<,@@@@,<<%$,%>,%>@><$%<O><,$+>%@@><,$$XX+>5>>$%XXX@,&X,O",
">>o><,>$,<%$o$O5<O%%>$$>,@@<<X@&><>%<>%,XX>@>,$@X>5>,<<+X@X$%@>,",
",%O$$o%,>$*5$@>,><>><>,%@XXX%&@O-><><>o$X+,@>>>X@><><,5,X@$$@@,,",
"<$$,$%,%>X><,@$$$,>>><<@X@XX$>$,OO<O$$OoO@>,,,>$+X<>,>%5>&<X+X+<",
"#$X,%$@$%$$#,O@$o@,>%@%$XXXXO>X$<<;$><<,@%+,<%<>$X>*$>>@%%>O@X$$",
"X%@%$@$>$%>>$,>$$>&$@@%$@XX@X@O#>><<>><%@@X%<<5&$XX%>>5$X$><%@<@",
"><$$@$%,$%,,$<,,>,$@>@@$%$&,@%<,$oO>>,<>$X@$><O@@XX$<,<,,<<%@O<O"
};
