/* XPM */
static char *__4[] = {
/* columns rows colors chars-per-pixel */
"75 55 48 1 ",
"  c #2F1F0F",
". c #3A3319",
"X c #322D22",
"o c #392B27",
"O c #223322",
"+ c #273C27",
"@ c #2B3827",
"# c #263328",
"$ c #453C15",
"% c #453F2A",
"& c #2D4025",
"* c #334B23",
"= c #344D2D",
"- c #3D5935",
"; c #53472C",
": c #7B5C3C",
"> c #416225",
", c #4C6C2A",
"< c #547630",
"1 c #5C7F36",
"2 c #2D4848",
"3 c #446343",
"4 c #4D6E4E",
"5 c #527456",
"6 c #866741",
"7 c #A0764A",
"8 c #65893C",
"9 c #5D825E",
"0 c #6D9242",
"q c #6B906D",
"w c #7B9C76",
"e c #F1EE2D",
"r c #B78C58",
"t c #82A24D",
"y c #9FB765",
"u c #C49A69",
"i c #B9CD7F",
"p c #FFF667",
"a c #94B08D",
"s c #D5AE80",
"d c #AFC8A8",
"f c #D8E3A2",
"g c #FEEBAA",
"h c #FEF5B9",
"j c #CADDC4",
"k c gainsboro",
"l c #FEFFC7",
"z c None",
/* pixels */
"zzzzzzzzzzzzzzzzzzzzzzzzzzzzzzzzzzzzzzzzzzzzzzzzzzzzzzzzzzzzzzzzzzzzzzzzzzz",
"zzzzzzzzzzzzzzzzzzzzzzzzzzzzzzzzzzzzzzzzzzzzzzzzzzzzzzzzzzzzzzzzzzzzzzzzzzz",
"zzzzzzzzzzzzzzzzzzzzzzzzzzzzzzzzzzzzzzzzzzzzzzzzzzzzzzzzzzzzzzzzzzzzzzzzzzz",
"zzzzzzzzzzzzzzzzzzzzzzzzzzzzzzzzzzzzzzzzzzzzzzzzzzzzzzzzzzzzzzzzzzzzzzzzzzz",
"zzzzzzzzzzzzzzzzzzzzzzzzzzzzzzzzzzzzzzzzzzzzzzzzzzzzzzzzzzzzzzzzzzzzzzzzzzz",
"zzzzzzzzzzzzzzzzzzzzzzzzzzzzzzzzzzzzzzzzzzzzzzzzzzzzzzzzzzzzzzzzzzzzzzzzzzz",
"zzzzzzzzzzzzzzzzzzzzzzzzzzzzzzzzzzzzzzzzzzzzzzzzzzzzzzzzzzzzzzzzzzzzzzzzzzz",
"zzzzzzzzzzzzzzzzzzzzzzzzzzzzzzzzzzzzzzzzzzzzzzzzzzzzzzzzzzzzzzzzzzzzzzzzzzz",
"zzzzzzzzzzzzzzzzzzzzzzzzzzzzzzzzzzzzzzzzzzzzzzzzzzzzzzzzzzzzzzzzzzzzzzzzzzz",
"zzzzzzzzzzzzzzzzzzzzzzzzzzzzzzzXoXzzzzzzzzzzzzzzzzzzzzzzzzzzzzzzzzzzzzzzzzz",
"zzzzzzzzzzzzzzzzzzzzzzzzzzzzzzO@@@@@@@@@Xzzzzzzzzzz OXzzzzzzzzzzzzzzzzzzzzz",
"zzzzzzzzzzzzzzzzzzzzzzzzzzzzXXXX%=%@%%%%@zzzzzzzzz *%+Ozzzzzzzzzzzzzzzzzzzz",
"zzzzzzzzzzzzzzzzzzzzzzzzzzzzX&@@=-%===-=%Xzzzzzzzz*--&Ozzzzzzzzzzzzzzzzzzzz",
"zzzzzzzzzzzzzzzzzzzzzzzXooXXX@%%-------=%XXX&@%&@%-,-&Ozzzzzzzzzzzzzzzzzzzz",
"zzzzzzzzzzzzzzzzzzzzzzzzXXX.%==--5544<<-%...======-8>&zzzzzzzzzzzzzzzzzzzzz",
"zzzzzzzzzzzzzzzzzzzzzzzzXo%=-47u0999543;;7:$=--,<,>e8*&X  zzzzzzzzzzzzzzzzz",
"zzzzzzzzzzzzzzzzzzzzzzXX%=-7t4459qq9994<-$.$:7<10yeeey1*&  zzzzzzzzzzzzzzzz",
"zzzzzzzzzzzzzzzzXooXXX@%-7645599qqaqq99<;;-.$-tu431e8-*&X zzzzzzzzzzzzzzzzz",
"zzzzzzzzzzzzzzzzz@%=%%-<7444599qqwawwqq94<;;;599yq0t83%@Xzzzzzzzzzzzzzzzzzz",
"zzzzzzzzzzzzzzzzz@%=-4t6445599qwwwawwwwq9994wq9qqwyw93-=@Xzzzzzz.zzzzzzzzzz",
"zzzzzzzzzzzzzzzzX&%=-t9955559qwwwyayywwwwwwawqwwwwwy943-%oXzzzzzzzzzzzzzzzz",
"zzzzzzzzzzzzzzzzXX%=<645qq59qwwwyyyiayyyywiwwwwwwwwyw953-=@zzzzzzzzzzzzzzzz",
"zzzzzzzzzzzzzzzzXX.-u44555wwqwwwyyifiiiyyiyywwwwwwwqp9953=&Xzzzzzzzzzzzzzzz",
"zzzzzzzzzzzX&&Xzz X:<445599tyywyyiihffiifyyaaaaawwwwqy953-&Xzzzzzzzzzzzzzzz",
"zzzzzzzzzzzXXXXXz  71q4459qwwwiyiiifhfihiiayaaaawwwqqp995-%oXzzzzzzzzzzzzzz",
"zzzzzzzzzz zOXXX X.:ya45qwwwyyiihifhlhliiiiiaaaawwwwwyw95-%X zzzzzzzzzzzzzz",
"zzzzzzzz z   X&*-30wllaayyyaaiiiffllllgfffiddddaawq99qq4-%Xzzzzzzzzzzzzzzzz",
"zzzzzzzz &zz X&=31williaaaaaiiffhlllllllhffiiaaawww999t53=%Xzzzzzzzzzzzzzzz",
"zzzzzzzz&>zzzX@=-340ia9qyaiiiiiiffgllllfffiiaaayway999953-&Xzzzzzzzzzzzzzzz",
"zzzzzzz&=j%%&%=-459yaaqqqwwwyyiiiilglgfihiiaayywwii99t933-&@O zzzzzzzzzzzzz",
"zzzzzO&>ql1>=%=--34s99999qwwwwyyyhifhfiiiidaaaaiijkitp53>==&@O zzzzzzzzzzzz",
"zzzzzzzz&1zzzzX%=34t999999qtwtwyiiiffhiiaayiiywwyidt9t3>====+Ozzzzzzzzzzzzz",
"zzzzzzzz &zzzz @=-34u544999qqttiwyiiifiayyyywaaqqyy9r--=&%=&+Ozzzzzzzzzzzzz",
"zzzzzzzzz zzzzz&=-3360445999qqywwyyyaiyyyyywwqqwwwtt4-=%%@+@zzzzz zzzzzzzzz",
"zzzzzzzzzzzzzzz@=-333t4445599wqwwwwwwyywwwwwqq99qwwt3=%@&@@zzzzzzz& zzzzzzz",
"zzzzzzzzzzzzzzz@%=-333t44559w99qwwwwwtaqqqqq99999qt53=%%%&Xzzzzzz=>zzzzzzzz",
"zzzzzzzzzzzzzzzO&=-----4755q99999qqqqqw999999545r03---==%&&zzzzzz3yzzzzzzzz",
"zzzzzzzzzzzzzzzzX&%=----3ut55999999999w9999955qr443-----=%@Oz&=>tjla5=OOzzz",
"zzzzzzzzzzzzzzzzz@@=----455yt999955099qq9599ty533333-===%&@zzz&=-yl3=Ozzzzz",
"zzzzzzzzzzzzzzzzzz@&=-34543559uut540q99qtuy99553333--==&@@Xzzzzzz>qzzzzzzzz",
"zzzzzzzzzzzzzzzzzzO@=-3533355555545tuqq955555533--======+@zzzzzzzO=Ozzzzzzz",
"zzzzzzzzzzzzzzzzzzO+=-33-3335554410ipttq9443333-=&&+@+&&&#OzzzzzzOOzzzzzzzz",
"zzzzzzzzzzzzzzzzzzO&-------33333,<0iptqq94-----&&zzzOOO#++#zzzzzzzzzzzzzzzz",
"zzzzzzzzzzzzzzzzzz#&=2=====---=%.@=0t5599-=%@@&zz zzzzzO+&+Ozzzzzzzzzzzzzzz",
"zzzzzzzzzzzzzzzzzz#&%&&=&&===&@@zz%,43455-&Xzzzzzzzzzzzz#++#Ozzzzzzzzzzzzzz",
"zzzzzzzzzzzzzzzzzz#++&&&&+++++#@Oz&-333442#XOzzz+zOOzzzzO##Ozzzzzzzzzzzzzzz",
"zzzzzzzzzzzzzzzzzz@@#+++##O@@@@Ozz@=-----=@@@Oz+-+OOOzzzzOOzzzzzzzzzzzzzzzz",
"zzzzzzzzzzzzzzzzzzzOOOOOOOOOOO@Ozz@&======+#@zzzOzzzzzzzzzzzzzzzzzzzzzzzzzz",
"zzzzzzzzzzzzzzzzzzzzzzzzOzzzzzzzzzO+===&==&+#zzzzzzzzzzzzzzzzzzzzzzzzzzzzzz",
"zzzzzzzzzzzzzzzzzzzzzzzzzzzzzzzzzzz@+++++&+#Ozzzzzzzzzzzzzzzzzzzzzzzzzzzzzz",
"zzzzzzzzzzzzzzzzzzzzzzzzzzzzzzzzzzzzOOOO###Ozzzzzzzzzzzzzzzzzzzzzzzzzzzzzzz",
"zzzzzzzzzzzzzzzzzzzzzzzzzzzzzzzzzzzzzzzzzzzzzzzzzzzzzzzzzzzzzzzzzzzzzzzzzzz",
"zzzzzzzzzzzzzzzzzzzzzzzzzzzzzzzzzzzzzzzzzzzzzzzzzzzzzzzzzzzzzzzzzzzzzzzzzzz",
"zzzzzzzzzzzzzzzzzzzzzzzzzzzzzzzzzOOzzzzzzzzzzzzzzzzzzzzzzzzzzzzzzzzzzzzzzzz",
"zzzzzzzzzzzzzzzzzzzzzzzzzzzzzzzzzzzzzzzzzzzzzzzzzzzzzzzzzzzzzzzzzzzzzzzzzzz"
};
