/* XPM */
static char *__7[] = {
/* columns rows colors chars-per-pixel */
"75 55 48 1 ",
"  c #2F1F0F",
". c #3A3319",
"X c #322D22",
"o c #392B27",
"O c #223322",
"+ c #273C27",
"@ c #2B3827",
"# c #263328",
"$ c #453C15",
"% c #633F1F",
"& c #453F2A",
"* c #2D4025",
"= c #334B23",
"- c #344D2D",
"; c #3D5935",
": c #53472C",
"> c #7B5C3C",
", c #416225",
"< c #4C6C2A",
"1 c #547630",
"2 c #5C7F36",
"3 c #563A4D",
"4 c #434343",
"5 c #446343",
"6 c #4D6E4E",
"7 c #527456",
"8 c #866741",
"9 c #65893C",
"0 c #5D825E",
"q c #6D9242",
"w c #6B906D",
"e c #7B9C76",
"r c #F1EE2D",
"t c #B78C58",
"y c #82A24D",
"u c #9FB765",
"i c #B9CD7F",
"p c #FFF667",
"a c #6DAAAA",
"s c #94B08D",
"d c #A5A5AE",
"f c #AFC8A8",
"g c #FFE581",
"h c #D8E3A2",
"j c #CADDC4",
"k c gainsboro",
"l c #FEFFC7",
"z c None",
/* pixels */
"zzzzzzzzzzzzzzzzzzzzzzzzzzzzzzzzzzzzzzzzzzzzzzzzzzzzzzzzzzzzzzzzzzzzzzzzzzz",
"zzzzzzzzzzzzzzzzzzzzzzzzzzzzzzzzzzzzzzzzzzzzzzzzzzzzzzzzzzzzzzzzzzzzzzzzzzz",
"zzzzzzzzzzzzzzzzzzzzzzzzzzzzzzzzzzzzzzzzzzzzzzzzzzzzzzzzzzzzzzzzzzzzzzzzzzz",
"zzzzzzzzzzzzzzzzzzzzzzzzzzzzzzzzzzzzzzzzzzzzzzzzzzzzzzzzzzzzzzzzzzzzzzzzzzz",
"zzzzzzzzzzzzzzzzzzzzzzzzzzzzzzzzzzzzzzzzzzzzzzzzzzzzzzzzzzzzzzzzzzzzzzzzzzz",
"zzzzzzzzzzzzzzzzzzzzzzzzzzzzzzzzzzzzzzzz *zzzzzzzzzzzzzzzzzzzzzzzzzzzzzzzzz",
"zzzzzzzzzzzzzzzzzzzzzzzzzzzzzzzzzzzzzzzzz,zzzzzzzzzzzzzzzzzzzzzzzzzzzzzzzzz",
"zzzzzzzzzzzzzzzzzzzzzzzzzzzzzz $$%%%%%111l$=**zzzzzzzzzzzzzzzzzzzzzzzzzzzzz",
"zzzzzzzzzzzzzzzzzzzzzzzzz .%$ zzzzzzzX*,ylw11>$Xzzzzzzzzzzzzzzzzzzzzzzzzzzz",
"zzzzzzzzzzzzzzzzzzzzzz $:.zzzzzzzzzz zzz*q*XXXz.%$zzzzzzzzzzzzzzzzzzzzzzzzz",
"zzzzzzzzzzzzzzzzzzzz %.XX@XOzzzzzzzzzzzz*-**Xzzzzz.% zzzzzzzzzzzzzzzzzzzzzz",
"zzzzzzzzzzzzzzzzzzz%.zzz@-&*@@XzXXX@XXzzX*&-*zzzzzzz.%zzzzzzzzzzzzzzzzzzzzz",
"zzzzzzzzzzzzzzzzz$.zzzzO&4;-&-*-***&*@XX@-55;zzzzzzzzz..zzzzzzzzzzzzzzzzzzz",
"zzzzzzzzzzzzzzz % zzzzzz@-5555;;;;;;;--&;5005@zzzzzzzzz % zzzzzzzzzzzzzzzzz",
"zzzzzzzzzzzzzz $zzzzzzzX@-5766655555555550wfw&XXzz zzzzzz$ zzzzzzzzzzzzzzzz",
"zzzzzzzzzzzzz.$zzzzzzzz@&;50077666700000wsflfw2,-***Xzzzzz$.zzzzzzzzzzzzzzz",
"zzzzzzzzzzzz $zzzzzzzX**;567w0077700wwwwsfjllfw65;--&ozzzzz$.zzzzzzzzzzzzzz",
"zzzzzzzzzzz $zzzzz X**--;5700e00700www00eeejs0755;;;-&@zzzzz%Xzzzzzzzzzzzzz",
"zzzzzzzzzzz%zzzzz X*--;556700ee000wwwwwwswese0065;555;*@XzzzX%zzzzzzzzzzzzz",
"zzzzzzzzzz. zzzz .*&-;55577000eewwwwwweeseesew076557765-&@oXz..zzzzzzzzzzzz",
"zzzzzzzzz %zzzzz.$=&-;55567000wsweeweeeseesseew0767000764&@@zz%zzzzzzzzzzzz",
"zzzzzzzzz$.zX  z=q=&;55566700wwwseeeeeeseeeeeew0000wew0;*@@@#@.$zzzzzzzzzzz",
"zzzzzzzzz%  X.$>rrt1111166600wweseesssfseeeeeeewweeeww7;@@4@*@@:zzzzzzzzzzz",
"zzzzzzzz $zzz X.1r11661666000wweefssisfsseeeeessewwwww7;44g34-@&.zzzzzzzzzz",
"zzzzzzzz. zzzzzz.1.@;670000wwwweeejijisssseedswwwwwww074oo3@&&#@$zzzzzzzzzz",
"zzzzzzzz$zzzzzz .$=-;56700essweeesshllsssffeeewwwwww005&XXoo##@@:zzzzzzzzzz",
"zzzzzzzz%zzzzzz X=-;57700wwweeefjifklkfksssseeeeeww075&XXXXXX@OX%zzzzzzzzzz",
"zzzzzzzO%zzzzzz *-;57700wwweeesshklllllkjfsseeeeeew05-&*XXXXXOzz%zzzzzzzzzz",
"zzzzzzz+1zzzzzz .;5670000wwweeessjfklkfijfseeeeeeew75-&@@@@@XXzz%zzzzzzzzzz",
"zzzzzO+ay-z  z X*;;577000wwwwwsseeslkfsssseessseew07;&&&&&*@#@OX$zzzzzzzzzz",
"zzzzzzz;;Xzzzzz*&;;5577000weswwweesshsfseeeeeeessse7;&@@**&**+O..zzzzzzzzzz",
"zzzzzzzO*.zzzz**-;;555770ew000wweefssssfeeeeeeewww06;;&&@@@#@@z$ zzzzzzzzzz",
"zzzzzzzz %zzz @-;;;557000700000wwesssseeseeeeewww06;&*XXXXooXXz%zzzzzzzzzzz",
"zzzzzzzzz. zzz@-;5577777777qq00wwseeeeeeseeewwww007;&X zzzzzXz.$zzzzzzzzzzz",
"zzzzzzzzzz%zzz@;55555670000yy00wwseeeeeeesewwwww007;&Xzzzzzzzz%Xzzzzzzzzzzz",
"zzzzzzzzzz..z@-;;;;556700yuifuyyseeeeweeeeewwwww0075-@Xzzzzzz .zzzzzzzzzzzz",
"zzzzzzzzzzX:XX@**-;;5677000iuwwwswwwwwwww0ew00ww0065;-*#Xzzzz%zzzzzzzzzzzzz",
"zzzzzzzzzzzX%zz**---5555667yy70we0000000077000ww0065;;;&@Ozz$ zzzzzzzzzzzzz",
"zzzzzzzzzzzz.$ z*+*-;;;5555007700776666776570wee075;--;-+Oz$ zzzzzzzzzzzzzz",
"zzzzzzzzzzzzz.$XOO@*--;;;55555775555555655550wuu065;-;--@z$.zzzzzzzzzzzzzzz",
"zzzzzzzzzzzzzz;1XzX+--;;;;555565;---;55555<7quppuq7,;--+O$ zzzzzzzzzzzzzzzz",
"zzzzzzzzzzzzz -2>XX*-;;;;;55555--&&-;55,;;;<9uppuq7,--*X% zzzzzzzzzzzzzzzzz",
"zzzzzzzzzzzzzz0i-:<-;;;;;;55575---&-;;;-&***-5yy5-*+**$$zzzzzzzzzzzzzzzzzzz",
"zzzzzzzzzzO-5ullfy0y655;;;556655;---;;--@*XX@-<<;Xzz.% zzzzzzzzzzzzzzzzzzzz",
"zzzzzzzzzzzO-,fl755;581;;;56665;-**&--**@@#@+*==*X.% zzzzzzOOzzzzzzzzzzzzzz",
"zzzzzzzzzzzzzz7y-O@O@#-1855665;-**@+#+#@#@***--;:%XzzzzzzzzOOzzzzzzzzzzzzzz",
"zzzzzzzzzzzzzz-;@zzzzzO+*;6y05;*OOzzOO@#+--;1q1=Xzzzzzzzzzzzzzzzzzzzzzzzzzz",
"zzzzzzzzzzzzzzzOzzzzzzzO@*-;;-;::::%::>111;--5;*zzzzzzzzzzzzzzzzzzzzzzzzzzz",
"zzzzzzzzzzzzzzzzzzzzzzzzz#+*+@zzzzzOOOOO@@@@*<;*  zzzzzzzzzzzzzzzzzzzzzzzzz",
"zzzzzzzzzzzzzzzzzzzzzzzzzz##OzzzzzzOO##OOzzzz*Ozzzzzzzzzzzzzzzzzzzzzzzzzzzz",
"zzzzzzzzzzzzzzzzzzzzzzzzzzOOOzzzzzzOO###Ozzzzz zzzzzzzzzzzzzzzzzzzzzzzzzzzz",
"zzzzzzzzzzzzzzzzzzzzzzzzzOOzzzzzzzzOO###Ozzzzzzzzzzzzzzzzzzzzzzzzzzzzzzzzzz",
"zzzzzzzzzzzzzzzzzzzzzzzzzzzzzzzzzzzzO##OOzzzzzzzzzzzzzzzzzzzzzzzzzzzzzzzzzz",
"zzzzzzzzzzzzzzzzzzzzzzzzzzzzzzzzzzOzzOOOzzzzzzzzzzzzzzzzzzzzzzzzzzzzzzzzzzz",
"zzzzzzzzzzzzzzzzzzzzzzzzzzzzzzzzzzzzzzzzzzzzzzzzzzzzzzzzzzzzzzzzzzzzzzzzzzz"
};
