/* XPM */
static char *__8[] = {
/* columns rows colors chars-per-pixel */
"75 55 51 1 ",
"  c #2F1F0F",
". c #3A3319",
"X c #322D22",
"o c #392B27",
"O c #223322",
"+ c #273C27",
"@ c #2B3827",
"# c #263328",
"$ c #2F3F3F",
"% c #453C15",
"& c #453F2A",
"* c #2D4025",
"= c #334B23",
"- c #344D2D",
"; c #3D5935",
": c #53472C",
"> c #7B5C3C",
", c #416225",
"< c #4C6C2A",
"1 c #547630",
"2 c #5C7F36",
"3 c #563A4D",
"4 c #2D4848",
"5 c #434343",
"6 c #4B4B55",
"7 c #446343",
"8 c #4D6E4E",
"9 c #527456",
"0 c #7F4D6A",
"q c #65893C",
"w c #5D825E",
"e c #6D9242",
"r c #6B906D",
"t c #7B9C76",
"y c #F1EE2D",
"u c #82A24D",
"i c #9FB765",
"p c #B9CD7F",
"a c #FFF667",
"s c #468787",
"d c #579A9A",
"f c #6DAAAA",
"g c #94B08D",
"h c #AFC8A8",
"j c #FFE581",
"k c #93B9F4",
"l c #B6DAE3",
"z c #CADDC4",
"x c gainsboro",
"c c #FEFFC7",
"v c None",
/* pixels */
"vvvvvvvvvvvvvvvvvvvvvvvvvvvvvvvvvvvvvvvvvvvvvvvvvvvvvvvvvvvvvvvvvvvvvvvvvvv",
"vvvvvvvvvvvvvvvvvvvvvvvvvvvvvvvvvvvvvvvvvvvvvvvvvvvvvvvvvvvvvvvvvvvvvvvvvvv",
"vvvvvvvvvvvvvvvvvvvvvvvvvvvvvvvvvvvvvvvvvvvvvvvvvvvvvvvvvvvvvvvvvvvvvvvvvvv",
"vvvvvvvvvvvvvvvvvvvvvvvvvvvvvvvvvvvvvvvvvvvvvvvvvvvvvvvvvvvvvvvvvvvvvvvvvvv",
"vvvvvvvvvvvvvvvvvvvvvvvvvvvvvvvvvvvvvvvvvvvvvvvvvvvvvvvvvvvvvvvvvvvvvvvvvvv",
"vvvvvvvvvvvvvvvvvvvvvvvvvvv .%. vvvvvvvvv .%.vvvvvvvvvvvvvvvvvvvvvvvvvvvvvv",
"vvvvvvvvvvvvvvvvvvvvvvvv..Xvvvvvvvvvvvvvvvvvvvv..vvvvvvvvvvvvvvvvvvvvvvvvvv",
"vvvvvvvvvvvvvvvvvvvvv..vvvvvvvvvvvvvvvvvvvvvvvvvvv..vvvvvvvvvvvvvvvvvvvvvvv",
"vvvvvvvvvvvvvvvvvvv.vvvvvvvvvvvvvvvvvvvvvvvvvvvvvvvv %vvvvvvvvvvvvvvvvvvvvv",
"vvvvvvvvvvvvvvvvv.vvvvvvvvvvvvvvvvvvvvvvvvvvvvvvvvvvvv % vvvvvvvvvvvvvvvvvv",
"vvvvvvvvvvvvvvv  vvvvvvvvvvvXOvvvvvvvvvvvvvvvvvvvvvvvvvv..vvvvvvvvvvvvvvvvv",
"vvvvvvvvvvvvvv.vvvvvvvvvv vO**+OvvvvvvvvvO+@OOvvvvvvvvvvO .vvvvvvvvvvvvvvvv",
"vvvvvvvvvvvv  vvvvvvvvvvX*@*-;-+@@OOvvOO+-;-*#*@vvvvvvv*7vv  vvvvvvvvvvvvvv",
"vvvvvvvvvvv.Xvvvvvvvvvvv;;-;;;;---*+@@@+-;774;-*vvvO**-9x-*vX.vvvvvvvvvvvvv",
"vvvvvvvvvv.*vvvvvvvvvvX*e177777;;;;----&-;7789;@OvvX*+-7z*OvvX.vvvvvvvvvvvv",
"vvvvvvvvv *;Ovvvvv v*-<uyyuw978777777;;7777788;*@Ovvvvv+,vvvvv  vvvvvvvvvvv",
"vvvvvvvO*-+f+OOvOvO@*--7ue898889888877899999w874*+X**OO@*vvvvvv vvvvvvvvvvv",
"vvvvvvv*<;sks;OOOO+*--;72w99998wr99989wrrrwrw997-**;;---*#Ovvvvv.vvvvvvvvvv",
"vvvvvvv. vOe*vvvO@*-;;478999999wtwwwwwrrrrgdww997-;ww8777-*Ovvvvv.vvvvvvvvv",
"vvvvvvv vvv+Ovvv@#*-;;;77799wwwwtrwwwwrdrggrrrrrw87hg9ww97-#vvvvv.Xvvvvvvvv",
"vvvvvv.vvvvOvvvv@&-;;;;;;789wwwwrgrrrrdddgrrrdggghxcclhgr8;+vvvvvv%vvvvvvvv",
"vvvvvv.vvvvvvvvvv#-;7;---;79wwwwrgrrtttdgdrrrrdddttczgfdr8-@Ovvvvv.vvvvvvvv",
"vvvvv  vvvvvvvvvO#*-;;7;;79wwwwrrrgtgggtgrrrrrrrwwwhgrrrw9-XvvvvvvX vvvvvvv",
"vvvvv.vvvvvvvvvvO+*-;;;;9wwwwwwrrtggggggtrrrrrwww9wgggdrw7+vvvvOOvv%vvvvvvv",
"vvvvv%vvvvvvvvvvv@&;;7779wwttwrrrtgghghttrrrrwwrrrrtrrrw94#vvvOOOOv%vvvvvvv",
"vvvvv.vvvvvvvvvvv@-;7899wwwwwrggttgxxhgggtrrggtwwwrrrww98-OvvvOOOOv.vvvvvvv",
"vvvv .vvvvvvvvvvO*-7899wwwwwrrttgzglclhgzhgtrrwwrrrrw984-@vvvvvvvvv vvvvvvv",
"vvvvX=OOvvvvvvvv@*-789wwwwwrrttghlccccclhgggtrrrrrrr97-@XvvvvvvOvvv vvvvvvv",
"vvvvX<-vvvvvv O@*-;789uwwwwwrrrgzgglclhzgggtrrwrrrrr97&XX@@OvvvOvvv vvvvvvv",
"vvvvXqevvvvvvvO*--7789fuwwrtgrrrrtthxxgttggrrwwwrrrr9;-ooo@@@#+##vv.vvvvvvv",
"vOO-,px,--*OO*--;;7wsplzhgwwwwrrrthghgttrrrrgtwwrrrr97&@o@####++#vv.vvvvvvv",
"OO-7iccpw;-**--;778wwwfuwwwwwwwrrgtggggrrrrrrwttdrrw8;*@ooo@O#OOOvv.vvvvvvv",
"vvvvvri*  v@-;;7777;77ew78899wwwtrttttgrrrrrwwwwrttw8-@@o3vvvvvvvvv vvvvvvv",
"vvvvv,2<=vv@*------;;77777;79wwwgrrrttrgrrrrwwwwwwww96330j3ovvvvvv.vvvvvvvv",
"vvv *<uap:.@@+*-**--;7777;;779wtwwrrrrrgrrwwwwwwww98;55530ovvvvvvv.vvvvvvvv",
"vvvvv*&>=vvvvOO+*+--77777;-;78wrwwwwrrrdtrrwwwwww997;*Ovo5Xvvvvvv vvvvvvvvv",
"vvvvvv %.vvvvvOO++-477777;;;79w9wwwwwwwrtwwwwwwww997;*vvvvvvvvvvv.vvvvvvvvv",
"vvvvvvvX%vvvvvvO+*-;777777;;8w99wwwwwwwwrr999999w9984#vvvvvvvvvv%vvvvvvvvvv",
"vvvvvvvv  vvvvvO#*-;4777777799999ww888999w98778999974+vvvvvvvvv. vvvvvvvvvv",
"vvvvvvvvv  vvvvvO+-4;47774;897889w977777799;;7789884-Ovvvvvvvv  vvvvvvvvvvv",
"vvvvvvvvvv  vvvvO#*-----;;787777729---;4;78;47788774+@vvvvvvvv vvvvvvvvvvvv",
"vvvvvvvvvvv  vvvvO+---*--;77;;777uq-&-;;;;7;478887;-#@Ovvvvv  vvvvvvvvvvvvv",
"vvvvvvvvvvvv  vvvOO**++*-77--;,wuyyu9,,7;;;;447774-++#OOvvv  vvvvvvvvvvvvvv",
"vvvvvvvvvvvvvv.vvvO++##*-;;-----,iu;;;;--**-4-;44-+OOOOvvv.vvvvvvvvvvvvvvvv",
"vvvvvvvvvvvvvvv..OO#+#O*---;--+#+,,----+#@v@**-4-+vvvvvvX.vvvvvvvvvvvvvvvvv",
"vvvvvvvvvvvvvvvvv:&##O#++-$--4*+*----$*Ovvvv#+#+#OvvvvX%vvvvvvvvvvvvvvvvvvv",
"vvvvvvvvvvvvvvvvvv@:@OOO#+-$$$-++***-*#OOvv@###Ovvvv .vvvvvvvvvvvvvvvvvvvvv",
"vvvvvvvvvvvvvvvvvvvvX&&oO#++**+OOOO@##OvvOOO###vvv..vvvvvvvvvvvvvvvvvvvvvvv",
"vvvvvvvvvvvvvvvvvvvvvvvX&;-*###OvvOOvvOvvOOO#&-:&Xvvvvvvvvvvvvvvvvvvvvvvvvv",
"vvvvvvvvvvvvvvvvvvvvvvvvvO@&-:%.   vvv vX..&&&&#Ovvvvvvvvvvvvvvvvvvvvvvvvvv",
"vvvvvvvvvvvvvvvvvvvvvvvvvvvvOvvvvvvvvvvvvvvvvv##Ovvvvvvvvvvvvvvvvvvvvvvvvvv",
"vvvvvvvvvvvvvvvvvvvvvvvvvvvvvvvvvvvvvvvvvvvvvvvOvvvvvvvvvvvvvvvvvvvvvvvvvvv",
"vvvvvvvvvvvvvvvvvvvvvvvvvvvvvvvvvvvvvvvvvvvvvvvvvvvvvvvvvvvvvvvvvvvvvvvvvvv",
"vvvvvvvvvvvvvvvvvvvvvvvvvvvvvvvvvvOvvOOOvvvvvvvvvvvvvvvvvvvvvvvvvvvvvvvvvvv",
"vvvvvvvvvvvvvvvvvvvvvvvvvvvvvvvvvvvvvvvvvvvvvvvvvvvvvvvvvvvvvvvvvvvvvvvvvvv"
};
