/* XPM */
static char *floor_2[] = {
/* columns rows colors chars-per-pixel */
"64 64 44 1 ",
"  c #1B1B1B",
". c gray12",
"X c #3A3319",
"o c #232323",
"O c gray15",
"+ c #282828",
"@ c #282F28",
"# c #2C2C2C",
"$ c #2C2C2D",
"% c #322D22",
"& c #3D3626",
"* c #363228",
"= c #2D3030",
"- c #2C3031",
"; c #2F3B3C",
": c #303032",
"> c gray20",
", c #323737",
"< c #3A3A3A",
"1 c #57371B",
"2 c #423629",
"3 c #453F2A",
"4 c #4F3F2B",
"5 c #5B4326",
"6 c #53472C",
"7 c #604C33",
"8 c #6D5536",
"9 c #7B5C3C",
"0 c #3D3D43",
"q c #323E49",
"w c #344557",
"e c #434343",
"r c #4E4E4E",
"t c #444450",
"y c #4B4B55",
"u c gray34",
"i c gray39",
"p c gray43",
"a c #777777",
"s c #866741",
"d c #976E45",
"f c #A0764A",
"g c #AD7F4E",
"h c #848484",
/* pixels */
"6677777777777777777777777767777767e0<e44667777777777675y7y877323",
"79999sfs999999999999999999sfdddd8s874t176999999999998sssd99762&4",
"899ssfgdssssssssssss9sssssdgddddsdf9705s9sss99999999sdfffds84#&4",
"89ssdggsssssssssssss9ssssssddsddddfs727dsss999999ss9sdgffgg86O%6",
"89ssdgdss9999999sssss9999999ssssdds97039sss999999ss99ddddff84O%6",
"899sdfdss9999999sssss99999999ssssss744279s99999999s99ssssss73.*6",
"79ssddsss999ss99sssss99999999sssss976327s99999999999999999972o*<",
"79sssssss999999999sss999999999ssss976**6999sss999899999998762O%3",
"799sssss99999999ssssss99999999999ss973,4788999999677888887742%*4",
"y9ssssss99999999sssssss999999999sss996>,*438877774666777776e2&04",
"r9ssssss9999999s99ssssss9999999sssss97*o##rur00eeeeee0r00rrurre6",
"wdsssss9s99999999999ssss999999ssssss97%#0euirrruurrrrrrreuuuuur6",
"wdss999999999999999999999999999sssss97*>riuiuuuiiuuuuuuuuuuiiiu7",
"69999999999999999999999999999999ssss9720eapppippiiuuuuuuuuuiipu7",
"37999999999999999999999999999999999997<0raapppaiiiuuuuuuuuuuupu7",
"27999999999999999999999999999999999987w0eappiiiiuuuuuuuuuuuuuuu7",
"&7s999999999999999999999999999988888770.riiiiiuuuuuuuuuuuuiiiuu2",
"34999999999999999999999998988887777776-.ruuuuuuuuuuuuuuiiiiiiuu2",
"3479899999999999999999998789777666766,$oeuuuuuuuuuuuuuiiiiiiuur2",
"22687888888888888888888877773663304&3-$oerrrurrrruuuuuiiiuuuure2",
"*348777777777777777777777777622%&*+@O:$00e0ereerrrrrrrrrrrrrree*",
"#<0rruiiiuuuuuuuuuuuuuuuuuure<##.-;q*>*44646eee7888888870ee873*O",
"O<euuaaaapiiiiiiiiiiiiupppauue,Oo-38777774888889sssss99977887&2$",
"#>ruphaaaiiiiiiiuuuuuuuippppiie,.*699999sddddsddddddds9989888742",
"#=uiphaiiuuiiiuuuuuuuiiuuuuppaur0-7sssssffffffffdddddd9999998742",
">=uiiaiiiuuuuuuuuuuuuiiuuuuuppur007dsssdfdddddddsssddss999999742",
",=rpiiuuiuuuuuuuuuuuuuuuuuuuiuir<e7dsssddssssssssssssss999999740",
",>rpiuuuuuuuuuuuuuuuiiuuuuuuuuuree7dssssss9999999999999999999742",
",0ruuuuuuuuuuuuuuuuiiiuuuuuuuuuer07dsss999999ss99999999999998742",
"0eruuuuuuuuuuuuuuuiiiiuuuuuuuuur0,7sss9999999s999999999999978742",
"reuuuuuuuuuuuuuuuuuiuiuuuuuuuuur:$899999999999999999999999988742",
"eriiuuuuuuuuuuuuuuuuiuuuuuuuuuuu##678998998999999999999999888744",
"0uiiuuuuuuuuuuuuuuuuuuuuuuuuuuur#O*&277444677777&777777777787744",
"<iiiuuuuuuuuuuuuuuuiuuuuuuiuuuur>O#*464444444766*&*&466666477443",
"Opiiuuuuuuuuuuuuuuuiuuuuuiiuuuur0o678869999987877*<*oeerrrrrure,",
".aiiuuuuuuuuuuuuuuuuuiuuuiiiuuure#79dds9sssssss9s66Oouuiiuuuuur0",
"Opiiuuuuuuuuiiiiuuuuuuuuuiiiuuure<9fgfdsssssdfddf74%<ppaaiiiiure",
"0iiiuuuuuuiiiiiiiuuuuuuuiiiiuuur<rsfggdsssssddgff844eahaaaaaiiue",
"ruiiuuuuuiiiiiiiiiiuuuuuuiiiuuiu<rdsddss999sssddf964,uaaphahpiue",
"ruiiuuuuuiiiiiiiiiiuuuuuuuuuuuii<edssss9999999sssd44,riiipppiiue",
"ruiiuuuuuuuiiiiuiiiuuuuuuuuuuuiu0eds9999999999sssd74,uuuuiiiuuue",
"ruiiiiiiiuuuuuuuuiuuuiiiuuuuuiiu<ed99999999ssssssd72riuuuuuuuuue",
"0ruiiiiiiuuuuuuuuuuuiiiiiiiiiiiue,d9999999ssssssss74rpuuuuuuuuue",
"eruuiiiiuuuuuuuuuuuuiiiiiiiiiipur,s99999999sssssss33rpuuuuiiuuue",
"<eruuuuuuuuuuuuuuuuuuuuuuuuiuuir0>7999999999ssss9933epuuuuiiiuur",
">>>>erruuuuur0e#errrrrrruuuuuureOo67888888889899873*:auuuuiiiiur",
"##>>eruiiiiur0e#,:0e0eerrrurr<<: .446666666664764*O*:auuuuuuiuur",
"%*&789dfffffs874**67688888877773&%%O242732444366%%#*epiuuuuuuuur",
"%47s9sdddddgd99724799dds9998999999636788877788788744rpiuuuuuuuur",
"%69d9999sssfs997%79sdggd999999999998999s9999sssss974rpiiuuuuuuur",
"%q7989889999987&%6sffffs99999999999sddddddddfddds993rpiiiuuuuuur",
"%:X638778887774**&ggffs999999999sssddddddddfffdds9s4uiiiiuuuuuur",
"%Oo%7888999788*Oo6ggsss999999999sssssssssssddssss996uiiiuuuuuuue",
"%>0euppppppuiir*%7dfss9999999999999sssssssssss999998uiiiiuuuuure",
"%rruphahppaipau647dss99ss999999999999999999999999998uiiiiiuuuure",
"%ruiipppiiiippu647dsssssss99999999999999999999999s96uiiiiiuuuur0",
"2ruuuuuuuuuiipu7449sssssss99999999999999999999999s96uiiiiiuuuure",
"2rruuuuuuuuuuiu6667dsssss99999ss999999999sssssssss96uiiiiiuuuure",
"6rruuuuuuuuuuuu7667dssss9999999999999999999sssssss96rpiiiiuuuuur",
"4ruuuuuuuuuuuuu7667dss999999998899999999999s99fffs97epiiiiuuuuur",
"2ruuuuuuuuuuuuu7637dsss99999997799999999999ssssff997riiiuuuuuure",
"2ruuuuuuuuuuuuu76%7s9sss999997777999999999999s99s8740ruuuuuuuure",
"*eruurrruuuuurr7q2777778877776666787777777777888877e0eruuuuuuree",
"e4477eee77777eee00e66647744eeeeeee7006666266477774660e0rrrrrr0<<"
};
