/* XPM */
static char *floor[] = {
/* columns rows colors chars-per-pixel */
"128 128 37 1 ",
"  c #161616",
". c gray13",
"X c gray14",
"o c #282828",
"O c #2A2A2A",
"+ c #2C2C2C",
"@ c #2F3231",
"# c gray19",
"$ c #303031",
"% c #313333",
"& c #303334",
"* c #333435",
"= c gray21",
"- c #353A3A",
"; c #333D3E",
": c #38383D",
"> c gray24",
", c #3F3F45",
"< c #334141",
"1 c #36404A",
"2 c #384757",
"3 c gray27",
"4 c gray31",
"5 c #464650",
"6 c #4C4D55",
"7 c #585858",
"8 c #565660",
"9 c #5E5F6C",
"0 c gray39",
"q c gray43",
"w c #676773",
"e c #767676",
"r c #72727D",
"t c #797A87",
"y c #838383",
"u c #868693",
"i c #90909D",
/* pixels */
";&2262722225222227,O2,25822,2222,1121@562286@6625222267985222286;&2262822225222228,O2<25822,2222,,,2,@262276%6625222268985222286",
"+O568676454766554w,O5,,896555555,:16-&874499+5747545679ww87556q7+O568484454864554w;O5,6896555555,,,4,O874499O5747565679ww87554q7",
"OX35656,3,35535,6woo,;,66553,513>&5:+O55,566+&,,5,<,6689086,>,05oo,5656,3,35535,6w+O,,;6665,,531&&2>OO55,566+%,,5<3,6689086,>,05",
"XX,551,,,;,,,,,,99oo,-;55351,31*==6+oO,,;5,,,3+>,,1,6468888,>;7,XX,555,;,;,,,,,,99o+,:;,515,,31*,@6OoO,,;5,,,3+,,;,,6668888,>:7,",
"XX5555,,,,,,,,1585O&5,,3556,,,;&:45Xo@;,,,5,5q@O@,5,66568885,,7,Xo5555,,,,,,,,,585o%5,,3556,,,,@:55XOO,,,,5,5q@+=;5,66568885,;7,",
"OO3645,,,,5,,,365@O=6555535,,,,:19, :@,,5,53,q6 X=,>365698655>76oO3445,,,,5,;,,65$o=6555535,,,<*101 ,@,,5,53<q6 O&3:365698655>76",
"OO,33,,;;,,,-,17@ o166635,,,5,;15w@.5*;,3,45;79O O:@>>5878,,,:67OO,33,;;;,,,;,,8& O>66635,,,5,<,5w@.2@,,3,65;79O +;%:>5788,,,>67",
"OO-,,,;;:;;-;;56 Xo5666,5,,5,5551eXo4,;35543,,6>+O:O@X,55,+$;+$6OO:,,,;;:;>:;;56 XO5666,5,,5,555,eoX4;;,5543,,6-+O:O#o=65,O$:$@6",
"OX+%,,,,,;@&,,51 o+,,,3,5-,5>345,w $3,-53531,;,,5++@& =O+=$+:&+>OX+&,,,,,;==;<6, OO,,,3,5:,5>,45,w #3:;535,,,;,,5%O#& @o+=$O:%O>",
"O OO,:;,,;&,,59o =;,;>,,,=;:&;55,w =,,>1,5-:*,;;6,ooO $OO65O+%:;O OO,=;,,;=:,59+ %;,;>,,,=;:=;55,w =,,:,,5;::3;;6=Oo$ @oO65O%#:;",
"O OO==:;,;;5568 .55,,,,,;%=+O;,56wXO,:1;;5:=;-=%>&+@@%>:,97o::85O +o-%:;,;;5568 .55,,,,,;&&+O;,56wXO;>,;;5:&::*@>=+#&$,-:98O::85",
"OX>OO=,;;;,569, O645,,,,;OO+O;5497Ooo$=&@,:@*=O#%&$,,>,,,76O57t9OX>++&,;;;,569, O645,,,,;++++;5497OO@%=*%,:=@-o+#=&,,>,,586O57t9",
"OO55$O>;,,5578Oo%453,,>;;+O+&36696Xo OO+#@&:O%+;;5>,,-;,55@,53w8OO55$+>;,,5588+o@453,,>;;+++%,4696Xo o+&%===O%+,;5>,;-;155%>53w8",
"OO34>=$:,,4675oo$5,,5,=%;&+&:5470, @ +&:>,;>=>:;;5,,,@<55&o5;,98OO,6>=$:,,4675Oo@5,,5,%=;%+%:5470, @ O+=>;;>=:=;;5,,,=,,5#+5;;98",
"OO;1,6:=,,35,,. %3554,$+;$=:,5367$X$ >:3,,;==,3-:,,,,,55*$,5;,q9OO;,,6:&,,35,,X %3554,#+;%=:,5367$X$ ,,,,,;:=,,;:,,,,,55%$>5;,q9",
"OX;;:67>,,>;*,  :,5665+&;+=5,,555OOO 5,,,3<:@,5,,,5,,55&o555,1eqoo;;:67>,,>;=:  :,5665O%;+:5,,555OOO 5,,,,;;=35,,,5,,55=O555,5eq",
"XX;;,5458765=: .>,,61<*==#;,5,5,%+:= ,,,,,55=54,,,5554=+$564,3r0Xo;;,5457765:: X>,,43,&==$;,5,5,@O,= ,,,,,55=54,,,5556=+%564,3r0",
"X.<;35-,6665,8+ @,55,,>-==,,5,,O$$66 $5,,555=,5,,,6665O*>543,,07Xo<;,5>,6665,7o %,55,,>:=@,,5,,O$$56 $5,,555=,5,,,6665o%>563;,07",
"oo,,55,,55535w6o ,46,;,,;;,,3>$o,,68OO53,35,:1,,55566-O,,665;-97oo<,55,,55535w6+ ,46,;13,;,,3:%o,,68+o53,35,>,,,55566-O,,665;,97",
"Oo,,565;,3554895 *35,,,,4,,,,$o$6558, >5,,55,,,,33,,,.,45865,&76Oo<,565;13556895 =,5,;,,5,,,,$o$6557, >5,,55,,,<33,,,.,45765,&74",
"Oo<1,66;,,566678=O+>,,,,5,,5: X=5,,6= >1,54636553,=:OO545776,O75Oo;,,66;,,566677=O+>=,,,5,,5: X=5,,6= >,,54655553,=:+o545776,O75",
"Oo*;,33,;,6766656#OOo5:,555,o o#3,33=+=:,66535644,%$ -5,,555,%65Oo=;,33<;,5766656#O++5:,555,o o$3,33=O=-,64535644,%# :5,,555,%65",
"OO*<;,,;;,66665,75$oo,@,55:%oO#,66885>O+:566654465% +,,%$&=,5,87OO=;;,,;;,66665,75#oO,%,55:&o++,66785>++:566454445% +,,@$@=,5,78",
"OX*<;,,,;,454635675$o@o=5>oo,=,5655876=OO53556645,  &;;+++&,4,89Oo=;;,,,,,454635675$O%X=5>o+:=,5655886=O+53556665,  =;;OO+&35,89",
"Oo=,;,55:;3554546665+OX :Oo>6,55,,;5566@.,,53465,> =%*;%O%=55:40oo=,,,15:;1554546665+OX -+o>6145,,,2566%.,,53465,: =@=:$+$=55:40",
"oO:,,,45;;,555466,56:O   O&56,,5,,,,,575 #>,,5,,>O =+O%$%&=,>%69oO;,,,65,;<555466,56:o   +&55,,5,,,,,575 @,,,5,,>O =+O@$&&=,,$49",
"oO;3,5535,,555565,555%X  &555555,,,,5,56+ +--::>$o OXOOO@&:$O+59oO;,,5535,3555565,555&X  %555555,,,,5,56o o,-::>$O OXoO+&=:&++59",
"OO;<55,,5356664666,>,$+$ +455,,35,,,,,<4# .#%=:+o=+%+%+>558,:+,5OO;,55,,5356666666,>,$++ +655,,35,,,,,,6@ .$@&:Oo=@@@@+>557,:+,5",
"OO,,,5,,5554665675>O$=>6+O7863;,,,;,;,,,  #,,56$ 5:,,5>,55967,35OO,,,53,5554465685>+$=,6++7863,,,,;,;,;-  $,,56$ 5:,,5>,55968>35",
"OO,;;35,353335376>%#+;,8>O4865,,,;;;,;$o #555665 5,<55,,,,666586OO,;;3,,353335374>%$+;,7>+4765,,,;;;,;&O @555665 5,,55,,,,466586",
"OO5;;,,,355,>,>5,+=,-;,64>=553,,,;<,:=O &5755,,6 >,;,,5,,,365,96OO5;;,,,355,>,>5,$&,-;,64>*553,,,;;,>=+ @5755,,6 >,;,,5,,,345,96",
"OX-,<;;,5,,>#,>:%=55,;,574=$,55,;;;,@@Xo69865,,5-o-,,,5,,5555,76OX-,,;;,5,,>#,>:$=55,;,574=#,55,;;;,%#Xo69865,,5-O&,,,5,,5555,86",
"O o==@%::>#%:58=+675,556678%@353,;@;O$o>98664,,,5 O::,5554555,76O o=%%&::>#%,57=+485,556487**,51;;&:+%O>98664,,,5 +::,5556555,86",
"OXoO+OoOO+#>567O*885,53669w,++15,&OOO=-586665,3,6$Xo&,55<665,:96OXoO+OO+O+#:567O=885,53649w:+#<5,=OOO=-586665,3,6$Xo@,553665,=96",
"OO@%%+ o+%>,55=$6865,,554695=++5,OoO$,5,4546355355  O,5,,345,,97OO%%%+ O+%:,55=%6845,,554695=+O5>OOO#,5,4546355355  O,5,3345,>97",
"OO;5,,oo,>,,5,o4743,,,6335666@o*+OO=>5,;35545465,6  O,,,,,3,5@99OO;5,,XO,>,,5,O6843,,,6335666%.,%OO=>5,;35545465,6  O;,,,,3,5=99",
"Oo;5,4:=,,,,5*O805,,,565535572@ ==>,=,,;,555464,,5$ =%,,,:5,,$0rOo;5,4:=,,,,5+o705,,,545535575@ ==>,:;,;,555464,,5$ =%,,,;5,,$0r",
"Oo;;;3,,,,;5, =796,555533,,,66, =31;=-,,,555565,,55 5+,553355=qrOo;;;3,,,,;5;X=796,555533,,,66, =,,;%:,,,555565,,55 5O,55,355=qr",
"OO,;=,,55;,,o+>4765,3355,=,,556XO,,;=;;356664666,,7 :%56655,,,qqOO,;=,,55;;,O+>6865,33551*:,566XO,;;=;;356664666,,8 :%56655,,,qq",
"OO,,=;533,,+ -;>47453,65;;,;,55oO,;@@,;5544656885,8Xo#547763,5r0OO,,=;533,,+ :=>47453165;;,,<55oO,;=@,;5544656885,8XO$547763;5r0",
"OO,,;,,3,,, O*;*,6655,4311,;,,6oO,;&;,;533353886<,6+oX657865,6y0OO,,;<,,1,, +-:=,6455,43,,,;,,6OO,;=;,;5333538863,4OXX657865,6y0",
"OO,,;5,;;,@ ,,<,:553,,3,31,;;,9+X;;;,,;55,555665,,6;+ 456453,6i9OO,,;5,;:,# :3,;:553,,3,,5,;;,9@X;;;,,;55,555665,;61O 456653,6i9",
"OO,,,15;%> *,,5;=55,,,,,,,,;;;w, &:,5,;3555536635,56X 34655555u9OO,,,55;=> %,,5;:55,,,,,,,,;;;9, =:<5,;3555536635,56X 34655555u9",
"OO31:>>:O=X,,55,;6355;,;;-,;<,95 =,55,,,,55554646539 X45865554e7oO,,:>>:+*X,,55,;6355;,;-;,;<<95 =,55,,,,55554646539 X45765556e8",
"XX==#%==&=o,,,,,;4555,;;==,;:;95 +155,,5,555356665,9 o44664,354,Xo==$=:%#:+,,,,,;4555,;;==;,;,95 +,55,,5,555356665,9 O44663,,54,",
"XX%=*:5;5@O<,,;;,35565,;>=;;,37,+ 333,,,,,,5568665,7  55,33,:=#:XX%&=:5;5#o,,,;;,35545,;>:;;,,7:+ ,33,,,,,,5568645,7  55333,>=%:",
"X %>,5,,8Oo,,,,<,353535<,5;,555+: *1,,,,,,,548843,,6O >5,,5:+*,4X =>,5,;8+o,,,<<,353535<,5-,255+: -,,,,,,,,548861,,6+ :5,,5,+=,4",
"O ::,2;,9+X;,,;<55,,355;;,,5<=*&+X+=;,;,,,,,5895,,,6=XO:--:+=5q7o ;:,5;<9+o;,,;<55,,,55;;,,5,*#=+XO;;,;,,,,,57953,,6&XO:::=+=5q7",
"OX;=;5<;9OO%,,;<5,5,55,;;-13>+ :+% ,,,;,;;;,3796,55,>+oO## $55q7OX;=;5,;9+O%;,;<5,5,55,;;>,3>+ >O@ ,,,;,;;;,3796,55,>OoO## #55q7",
"OO;=>:;;6 $O;,,53,,;,,,@,=>>O*o*>3 -,,;;;;,5,6765,,%:%OO== <5,06OO;::;;;6 $O;,,53,,;,,:=;=>>O%o:>, -,,,;;;,5,6765,,*:%+O=: ,5>06",
"OO1,::;:6 $X;,53,,,:,,-@;@=O **,,6,%-,;,;3,,->476>>*55:=;* &,=76OO,,::;:6 #X;,53,,,:,,:&;=&+ $:,,6,@-,;,;,,,;>474>>*55>-:# -,=76",
"OO,,3;;15#%X@,3,,,,,5,:=;%O  -3,,565&-=,,,,;&;144&:,65335=&.=+3,OO,,,;;,5%%.&,3,,,,,5,:=;&o  ;;,,565@-=,,,,;=;,64%:,65,,5%=.:O,,",
"OO::::,,;:5 o:,,,,,,3,:,;@ .%;;;,,56,%O-=,,==&,:,*,,,::;550## %%OO-:::,,;:5 O;,,,,,,3,-;;$ X&;;;,,,6,$+-=,,===;:,%,,,>:;550$# %%",
"OO;:*:::::6$ +,5,,,,5,;;;% %;=;;;,,55,+%O=%=,&@O:,,,,@=;4606,oO%OO;-&:::::6$ O,5,,,,5,;;;@ &;=;;,,355,+&o===;=&&:,,,;%=;46063XO%",
"OO;;:==:::,,$ >,,,,,3,,;%OX:;=*;,,,,,,>5oo+@-@@,,5,,:%:16655,=-5OO;;,&=;::,,$ >,5,;,3,,,@oo:;==;,,,,,,>5ooo%:=&-,5,,;=:,6465,==5",
"OO=<;%%%:-,5,o+,,,&,55-@X+=;;=*,,,,,,,58;+XX+=,;,,31;*,33,,-,%56OO=,;@@&::;5,o+,,,&,55==oO&:;==,,,,,,,58-+XX+=,;,,,,;=,,33;:;%56",
"oo=;=OO+&,,,5>X:,:&1,,+oo==;;;;,,;,,,,545>X o,1;-,,,;%2,,,;%=O55oo*1%+OO%;,,5>X:,>=,,,OOo&=;;;;,,,,,,,165>X O;5;;,,,;,,,,,:&=+55",
"oo@=%=+o+=,,,,O+,@#=$=oo+=;;;;;,,;;,,,,655OX&,3;;,,;,3,,,5;O%O,5o+#@==+O+=,,,,O+:%$=$=oO+=;;;;;,,;;,,,1655OX=,,;;,,;;,,,,5;+%O,5",
"OO&-;;+OO@;,,,=XOOO++=%&,;=;;;,,,,,;,,5666= :,5,;3,;,=%,,4;OOO,6oo#*,;#O+=;,,,=X+ooOO=%%,;=;;;,,,,,;,,4666: :,5:;1,,;--,,4;O+O,6",
"X.$%;,+O+%;,,,5  +O#>5,,5;=;;;;,,,,,,,56485X$,3,55,,1:#&;,=OOo,5oX#%;,OO+=;,,,5  +O%>5,,3;&;;;;,,,,,,,56675X@,3,55,,,-$&;,@++O,5",
"OX$%,,%O&;;;;,6  ::556555,;;;;;,,,,,,,34,53Xo55,3,,,,,=$=:##%+25oX##1,#O+;;;;,6  ::556556,,;;;;,,,,,,,34,53XO55,33,,,,%$@,$$@$55",
"OO%=:=OO&;-=&:,$ ==5,,,,,:-==%->>:::>>>5>=3XX>5,5>:=@@&@=%o+#%,,Oo@*:-+O%,==&:,$ ==5,,,1,:-@&=->>::-:>>5>=>XX,5,5=:=&&&$&@o+@$,,",
"O.++OOoO+&O+++++ oo%=%%&%++++++&$+++%%#%OO$. O==:#+OOOO+$+ ooO#*+X++OOOOO#++++++ oO&=&@*@+OO+++%#+++%#$%+O#X +=&:&OOOO++$O ooO+&",
"OO+++Ooo++++++o+OooO%+O+O+++++++++++O++o+OOOoO++@++oooOO%X oooo%oo++OooO+O++++o+ooo+&++++++++++++++++++o+o+oo+++@OOOooo+&o oooo&",
",*22627222252222281+2,22722,2222,,32,%562286%66252222689852222763#2262722225222228,O2<25822,2222,,,2,@262276*6625222268985222286",
"oO567684456764554w;O1,5896555555,,,4,+774499O5747565679ww77556q7OO567486656766556w;O5,5896555555,,,4,O874499+5747565679ww87554q7",
"Xo,5656,3,35535,6wOO3,;6655,,53,&&51oo55,566+&,,5,3,6689086,>,05oo,5656,3,35535<6w+O,,;6655,,531&&2>OO55,566+*,,,,3,6689086,:,05",
"XX,555,;,;,,,,3199oO,@,55,5,,,,=,&6ooo,,;5,,,3+>,;,,6667887,>;7,..,555,;3:,,,,,399o+,:;5515,,31*,@6OoO,,;5,,,3+,,;,,6468888,>,7,",
"Xo5555,,,,,,,,,285o&5,,35663,,;%,22XO$;,,,5,5q$+&;5,66568885,,71Xo5555,,,,,,,,,575o&5,,3556,,,,@:55XOO,,,,5,5q@+*,5,66568885,;7,",
"oo3645,,,,5,;,,55@O=6555515,,,<-,8, ;*,,5,53<q6 o*,,365698655>75oO3645,,,,5,;,,65$o=6555535,,,<*391 ,@,,5,53<q6 o@,;365698655>76",
"OO133,;;;,,,;,,8% O>66635,,,5,,,5w&.5=;,3,45;79O O-$,>5888,,,>68OO133,;;;,,,;,,7& O>66635,,,5,<,5w@.2@,,3,45,79O +,@>>5788,,,,47",
"OO:3,,;;:;>:;,56 XO5666,5,,5,5551roo4;;,5543,,6;OO:O$X,55,+$-##5OO:3,,;;:;::;,56 XO5666,53,5,5551eoX4;;,554<,,6-+O;o@o:55,O+:$$6",
"OX+%,,<,,;*=;,6, O+,,,3,5:,5>,45,w #3=3535,,,;,,5%O#% %OO=$O,@o,OXO=,,<,,;-=;,51 O+,,,3,5:,5>,45,w +3;;535,,,;,,5#+#% %O+=$+,&O,",
"O oO,:;,,;=:,59o @;,;>,,,=;:=;55,w =,,-,,5;::,;;6:oo# #OO55O$$*,O oO,:;,,;&:,59+ %;,;>,,,=;:=;55,w *,3=3,5,::,;;6:oo+ $OO65o++:;",
"O +o=%:;,;;5567 X551,,,,;&=+O;,56wXo:,,;;5:=->=@>&O$%#>:,97o::85O +o==:;,;;5567 .55,,,,,;%=+O;,56wX+1=,;;5*@;>=@>%O#&%>:,98o::85",
"OX>++=,;;;,569, O645,,,,;++++;5497+o@%&@%,:%%&O$&=$,,>,,586O57t9OX>++%,;;;,569, O645,,,,;++++;5407o+@#=#@,,**@O@$=#,,>,,576o57t9",
"OO55$+>;,,5587Oo%453,,>;;OO+%,4696Xo OO+#===+#+;;5>,<:;,55#>53w8OO55$O>;,,5588+O@453,,>;;+O+%,4696Xo oO%@*@&o@+;;5>,<:;,55$>53w8",
"OO,6>=#:,,4675Oo#5,,5,=%;%+&:5470, @ O@>>;;>=>:;;5,,;=<55$+5;;98OO,6>=#:,,4675OO$5,,5,%=;%+%:5470, @ O#:-,,-=,:;;5,,;=<55%O5;;98",
"OO;,,6:=,,35,,X #3554,#+;$=:,5368@X@ >>,,,;:=,,;:,,,,,55=$>5;,q9OO;,,6;&,,35,,X %3554,#+;#=:,5367$X$ ,,,,,;-=,,;:,,,,,55&$:5;,q9",
"oo;;:67>,,>;&,  :,5665+%;+:5,,555OOO 5,,,,<:=,5,,,5,,55=O555,5eqoo;;:67>,,-,%:  :,5665+%;+:5,,555OOO 5,,,,,-@,5,,,5,,55=O555,5eq",
"Xo;;,5458765=; .>,,63,%==$;,5,5,@O:= ,,,,,55=54,,,5554=+#564,3r0Xo;;,5458765=: X>,,43,===$,,5,5,%O:= ,,,,,55=54,,,5556=O$564,3r0",
"Xo,;,5>,6665,8+ =,55,,>;==,,5,,+$$66 $5,,555=,5,,,6665o=>543;,07Xo<;,5;,6665,8O &,55,,>;&$,,5,,O$$66 %5,,555=,5,,,6665o=>563;,07",
"oO<,55,,55535w6o ,46,;,,;;,,3>#o,,68+O53,35,;,,,55566-O,,665;>97oo,,55,,55535w6O ,46,;,,,;,,<>#o,,68+o53,35,;,,,55566=O,,665;,97",
"OX<,565;,3556795 =,5,;,,5,,,,#o#6558, >5,,55,,,,33,,,X,45765,&84Oo<,565;,3554895 =,5,;,,5,,,,%o#6558, >5,,55,,,,33,,,X,45765,&74",
"Oo;,,66;,,566688=OO,-,,,5,,5: X=5,,6= >,,54655553,=:Oo545776,O75Oo;,,66;,,566687=O+>-,,,5,,5: X=5,,4= >,,54655553,=:+o545776,O75",
"Oo&;,33<:,6766456$O++5:,555,O o$3,33=o=-,64535644,%% :5,,555,*65Oo=;,33<;,6766656$++O5:,555,O o#3,33*+==,64535644,%$ :5,,555,%65",
"OO@;;,,;;166665,75#oO,%,55:=O+$,66885,OO:566454445& +,<%$*=,5:88OO%;;,,;;,66665,75%oO,%,55:%o+$,66785>++:566454445% +,<=%%=,5:88",
"Oo-;;,,,;,454635675#O$o%5>XO:&,5655876=O+53556645,  =;;+OO=,6,89Oo=;;,,,;,454635675+O$o%5>o+:=,5655886=++53556645,  =;;+O+=,6,89",
"oo*,;,55:;3554546665++X -Oo=6,55,,,5566#X,,53465,> =&=;$+#&55:60oo=,;,55:;3554546665+OX ;+O>6,55,,,5556@X,,53645,> ==%;#+#=55:40",
"o+;,,,45;;,555464,56:O   O*56,,5,,,,,575 +>,,5,,>+ &+O&@%%*,>%49oO;,,,45;;,555466,56:o   O%56,,5,,,,,585 @:,,4,1>O =OO=%%%=,,$49",
"oO;,,5535,,555565,555%X  *555555,,,,5,56+ O--::>@O O.OO++=,+O+59oO;,,5535,,555565,555&X  %555555,,,,5,56O O:*,::#O O.oO+%==&++59",
"OO;,55,,5354664666,>,#+# O655,,31,,,,,<6% X$%=:OO@O%@%O>557,,+,5OO;,55,,5356666666,>,$++ O455,,35,,,,1<4@ X$@@:oo%+%#%+>557,:O,5",
"OO,,,5,,5554465675,+O=,6++7763;,3,;,;,,>  $,,56$ 5;,,5>,55968,35OO,,,5,,5554465685>+$=,6+O7863;,,,;,;,<>  $,,56@ 5:,,5>,55968>35",
"OO1:;35,353335386>&+O;,7>+6765,,,,;;,;@O $555665 5,,55,,,,666576OO,;;35,353335374>%$+;,7>+4865,,,;;;,;=O $555665 5,<55,,,,466586",
"OO5-;,,,355,>,>5,+&,-;,64>-553,,,;;,>=O &5855,,6 >,,,,5,,,345,96OO5;;,,,355,>,>5,$&,-;,64>=553,,,;,,>=O @5755,,6 >,,,,5,,,365,96",
"O.-3,;;,5,,>$,>:%=55,;3576=@,52,;;;,$$Xo69765,,5-X-,,,5,,5555,86OX-,<;;,5,,>$,>:$=55,;,574=$,55,;;;,#$Xo69865,,5-X-,,,5,,5555,86",
"O X=&=&;:>@@:57=+675,556488$=,5,;;&:o@O>98664,,,5 O::,5554555,76O o==%=::>$%,57=+675,556687+-,5,;;%:O%O>98664,,,5 O::,5554555,86",
"OXOO++o+OO$>567+=885,53649w>OO,5,=++O=-576665,3,6$Xo=,553665,:96OXoOOOoOOO#>567+=885,53669w,O+,5,*O+O=-586665,3,6%Xo%,553665,:96",
"OO@@%+ o+@>,55=#6865,,554695=O+5>+XO@,5,4566355355  O,5,,345,>97OO%%%O oO%:,55=$6745,,554695=OO5-+OO#,5,4546355355  O,5,,345,>97",
"OO;5,,oo,>,,5,o68433,,6335666%o;%O+&>5,;35545465,6  O;,,,,3,5=99OO;5,,oO,>,,5,o6843,,,6335666@o;%OO=>5,;35545465,6  O;,,,,3,5=99",
"Oo;5,4:=,,,,5+o705,,,565535585$ ==>,:;,;,555464,,5% @=,,,:51,$0rOo;5,4:=,,,,5+o805,,,565535575+ ==>,:;,;,555464,,5$ =%,,,;5,,$0r",
"Oo;;;3,,,,;5,X*796,555533,,,66, =,,,=:,,,555565,,55 5+,55,355=qrOo;;;3,,,,;5;X=796,555533,,,66, =,,;%:,,,555565,,55 5+,55,355=qr",
"OO,;=,,55;<,XO>6865,3355,-;,566XO,;;&;;356664666,,8 :$56455,,,qqOO,;=,,55;<,O+>4865,3355,:;,566X+,;;&;;356664666,,8 :%56455,,,qq",
"OO,,=;533,,+ ;:>47453,65;;,;,55oO,;==,;5544656885,7XX%567853,5r0OO,,=;533,,O -:>47453,65;;,;,55oO,;=*,;5544656885,8Xo$547763;5r0",
"+O,,;<,,,,, o;=@,6455,43,,,;,,5OO,;=;,;5333538863,5OoX657765,6y0OO,,;<,,,,, +;:=,6455,43,,,;<,6OO,;=;,;5333538863,6OoX657865,6y0",
"OO,,;5,;;,@ ;,3,;553,,3,,5,;;,9@X;;;,,;55,555665,,5,O 456453,6i9OO,,;5,;;,+ :,,;,553,,3,,5,;;,9%X;;;,,;55,555665,;6;O 456653,6i9",
"OO,,,55;=, @,,2;:55,,,,,,,,;;,w, =:<5,;3555536635156X 34655555u9OO,,,55;=, @,,5;:55,,,,,,,,;;;w, =:<5,;3555536635,56X 34655555u9",
"oO,,:>-,O=X,,55,;6355;,;:;,;,<95 =,55,,,,555546466,9 X45865554e8OO,,:>>:O=X,,55,;6355;,;:;,;<<95 =,55,,,,55554646539 X45865554e8",
"Xo==$=:*+:O,,,,,;4555,;;=&;;;;91 +,55,,5,555356665,9 o64664,,54,XX==$=:@%:O,,,,3;6555,;;==;<;,95 +,55,,5,555356665,9 o44666,,54,",
"XX$&=:,;5%X,,,;;,35545,;>:;;<<8>+ ,33,,,,,,5568645,7  551333>=$:XX@&=:5;5%X3,,;;135545,;>:;;,,7:+ ,33,,,,,,5568645,7  55,33,>=$:",
"X =>,5,;7OO,,,,<,353535<,5,,555+: -,,,,,,,,548863,,6O >5,,5=+=,4X @,,5,;8OO,,,<<,353535,,5-,255+: -,,,,,,,,548863,,6+ >5,,5:+=,4",
"o ;:,5;,9Oo,,,;<55,,,55;;,,5,=+-+Xo;;,;,,,,,58953,,6@XO:;=;+=5q7O ;-,5;,9+.;,,-<55,,,5,;;,,5,*+=+Xo;;,;,,,,,5795,,,6=XO:-=-+=5q7",
"o.1@<,,;9+O&;,;,5,5,55,;;>,3>O >+@ ,,,;,;;;,3796,55,>OoO## #55q7OX;=&2,;9oO%;,;,5,5,55,;;>,3>+ >O@ ,,,;,;;;,3796,55,>OoO$$ $55q7",
"OO;@,,&,6 @O;,,53,,;,,:&;=>>+%O:>, -,,,;;;11,4765,,%:%++=: ,5>06OO;;;,;;6 %O;,,53,,;,,:=;=>>O%O:>, :,,,;;;,5,4865,,&:&+O=: ,5>06",
"OO,,;;;&6 @X;,53,,,:,,:=;=&O +:,,6,@-,;,-,3,;>474>>%55>-:# -,=74OO,,;&,*6 %X;,51,,,-,,:&;=&+ $:,,6<=&,;,;,,,;>474>,%55>-:$ -,=74",
"OO,,,;,,5%@X@,3,,,,,5,:=;%O  ;;,,565@;=,3,1:=;,64%:,65,,5%%X-O,,OO,,,,&,2%%.*,33,,,,5,:=;%o  ;;,,565@;=,,,,;=;,64%:,65,,5=%.-+,,",
"OO,;,&,,,:5 O:,,,,,,3,:;,@ X&;;;,,55,#+;=,,===;:,=,,,>:;550%% #=OO---,,,;:5 o=3,,,,,<,*;;$ X&;;;,,56,$O:=,,===;:,%,,,>:;550%# #=",
"OO,&@;,&--6$ +,5,,,,5,;;;$ @;=;;,,,55,+@O===;=%@:,,,;%=;46061oO%OO,=&&,*::6+ o,5,,,,5,,;;$ &;=;;;,,55,+$O===;=&$:,,,;==;6606,oo%",
"OO;;,%*&&,,,+ >,5,;,3,,;+oo:;==;,,,,,,:5ooO%==%-,5,,;=:,5665,@*5OO;;,-=,::,,$ >,5,:,31,,@Oo:;==;,,,,,,,5ooo@:=%-,5,,;@:,6465,==5",
"OX@,,&&$,@,5,OO,,,=,55:&oo=:;==3,,,,,,57-+XX+=,;,,,,;=,133,=,@56OO=,;+@&::;5,OO,,,=355:=XO&:;==,,,,,,,57;+XX+=,;,,,,;=,,33;:;@56",
"oo-,@+++&;,,5>O:,>=,,,+oo@&;;;;1,;,,,,545>X X;5;;,,,;=5,3,:&=+55OX@,=+++&;,,5:O:,>=,,,+oo%=;;;;,,;,,,,545>X o;5;;,,,;=2,,,:&=+55",
"oo&&@@+OO=,,,,OO:%$=%%o++-;;;;-3,;;,,,,655+.&,,,;,,;<,,,<2-+%O,5OO&=&&+O+=,,,,O+:%#=$=ooO=;;;;;,,;;,,,,655OX=,,;;,,;,,,,,5;O%O,5",
"oo@-;,+O+=;,,,=X+ooOo=%%,;&;;;,,,,,,,,5666: ;,5:;3,;;:=,,5,O+O,6XO@%;;+O+&;,,,=X+ooOO=%@,;=;;;<,,,,;,,5666: :,5:;<,,;-=,,4;O+O,6",
"oX@&;,+OO=;,,,5  ++$>5,,5;=,;;;,,,,,,,56485X&,3,55,,1:##,,@O++,5OX%*;,+O+=;3,,5  ++#>5,,5;=;;;;,,,,,,,56485X&,3,55,,,-@&;,%O++,5",
"oX$&,,$O%;;;:,6  ::5565551;,;;;,,,,,,,34,53X+55,3,,,3-=+=,+$@$55XX%%,,$O+;;;;,6  ::556555,;;;;;,,,,,,,34,53X+55,3,,,,,@$@,$$%$55",
"Oo$-;@OO&;-@=:,$ ==53<,,,;&=@&->>:::>>>5>=>XX>5,5>:=%%&%&@OO$$,:OO%&:-OO@,==&:,$ ==5,,,,,>-=%=:>>:::>>>5>=>XX>5,5>:==&&$&@o+@$,:",
"OX++OOoO+@++++++ oo%-**##++++++@#+++&$#%+O$X O==:#+OOO++@O ooO$%OX+++OoO+@++++++ oo%=%%%%++++++%%+++&&@%+O$X +=&:$+OOO++$O ooO$%",
"Oo+++ooo++++++o+ooo+#++++++++++++++++++o+o+oO++O%++oooO+@o oooo&+o++OooO++++++o+ooo+%++++++++++++++++OOo+o+oo+++&++oooo+@o oooO@"
};
