/* XPM */
static char *floor_1[] = {
/* columns rows colors chars-per-pixel */
"64 64 42 1 ",
"  c #1B1B1B",
". c gray12",
"X c #3A3319",
"o c #232323",
"O c gray15",
"+ c #282828",
"@ c #282F28",
"# c #2C2C2C",
"$ c #2C2C2D",
"% c #322D22",
"& c #392B27",
"* c #3D3626",
"= c #363228",
"- c #382D34",
"; c #2D3030",
": c #2C3031",
"> c #2F3B3C",
", c #303032",
"< c gray20",
"1 c #323737",
"2 c #35353B",
"3 c #3A3A3A",
"4 c #57371B",
"5 c #423629",
"6 c #453F2A",
"7 c #4F3F2B",
"8 c #5B4326",
"9 c #53472C",
"0 c #604C33",
"q c #6D5536",
"w c #7B5C3C",
"e c #3D3D43",
"r c #323E49",
"t c #344557",
"y c #434343",
"u c #4E4E4E",
"i c #444450",
"p c #4B4B55",
"a c #866741",
"s c #976E45",
"d c #A0764A",
"f c #AD7F4E",
/* pixels */
"9900000000000000000000000090000090ye3y77990000000000908p0pq00656",
"0wwwwadawwwwwwwwwwwwwwwwwwadssssqaq07i409wwwwwwwwwwwqaaasww095*7",
"qwwaadfsaaaaaaaaaaaawaaaaasfssssasdw0e8awaaawwwwwwwwasdddsaq7#*7",
"qwaasffaaaaaaaaaaaaawaaaaaassassssda050saaawwwwwwaawasfddffq9O%9",
"qwaasfsaawwwwwwwaaaaawwwwwwwaaaassaw0e6waaawwwwwwaawwssssddq7O%9",
"qwwasdsaawwwwwwwaaaaawwwwwwwwaaaaaa07750wawwwwwwwwawwaaaaaa06.=9",
"0waassaaawwwaawwaaaaawwwwwwwwaaaaaw09650awwwwwwwwwwwwwwwwww05o=3",
"0waaaaaaawwwwwwwwwaaawwwwwwwwwaaaaw09==9wwwaaawwwqwwwwwwwq095+%6",
"0wwaaaaawwwwwwwwaaaaaawwwwwwwwwwwaaw06170qqwwwwww900qqqqq0075%=7",
"pwaaaaaawwwwwwwwaaaaaaawwwwwwwwwaaaww9,1=76qq00007999000009y5*e7",
"uwaaaaaawwwwwwwawwaaaaaawwwwwwwaaaaaw0=o%%0w077999999707700q0099",
"tsaaaaawawwwwwwwwwwwaaaawwwwwwaaaaaaw0%%79qa000qq00000009wwwww09",
"tsaawwwwwwwwwwwwwwwwwwwwwwwwwwwaaaaaw0==0awawwwaawwwwwwwqwwaaaq0",
"9wwwwwwwwwwwwwwwwwwwwwwwwwwwwwwwaaaaw0579dsssassaawwwwwwwwwaasq0",
"60wwwwwwwwwwwwwwwwwwwwwwwwwwwwwwwwwww0370ddsssdaaawwwwwwwwwwwsq0",
"50wwwwwwwwwwwwwwwwwwwwwwwwwwwwwwwwwwq0t79dssaaaawwwwwwwwwwwwwwq0",
"*0awwwwwwwwwwwwwwwwwwwwwwwwwwwwqqqqq00e.0aaaaawwwwwwwwwwwwaaaww5",
"67wwwwwwwwwwwwwwwwwwwwwwwqwqqqq0000009;.0wwwwwwwwwwwwwwaaaaaaww5",
"670wqwwwwwwwwwwwwwwwwwwwq0qw0009990963#o9qqqqwwwqwwwwwaaaaaawq05",
"559q0qqqqqqqqqqqqqqqqqqq000069966e756;;.8000q0000wqqqqaaawwww095",
"=67q000000000000000000000000955%*=+@+;#77y79099000000000000009y=",
"%6700waaawwwwwwwwwwwwwwwwwq096%+.;>r=,=97979yyy0qqqqqqq0eyyq06=+",
"O69qwddddsaaaaaaaaaaaawsssdwq95Oo#6q000007qqqqqwaaaaawww00qq0*5#",
"%*0wsfdddaaaaaaawwwwwwwassssaa92.=9wwwwwassssasssssssawwqwqqq075",
"%&wasfdaawwaaawwwwwwwaawwwwssdqi9%0aaaaaddddddddsssssswwwwwwq075",
"*&waadaaawwwwwwwwwwwwaawwwwwssw0e70saaasdsssssssaaassaawwwwww075",
"5&0saawwawwwwwwwwwwwwwwwwwwwawa0690saaassaaaaaaaaaaaaaawwwwww07e",
"5-0sawwwwwwwwwwwwwwwaawwwwwwwww0990saaaaaawwwwwwwwwwwwwwwwwww075",
"5e0wwwwwwwwwwwwwwwwaaawwwwwwwww8u70saaawwwwwwaawwwwwwwwwwwwwq075",
"e90wwwwwwwwwwwwwwwaaaawwwwwwwww07=0aaawwwwwwwawwwwwwwwwwwww0q075",
"i9qwwwwwwwwqqqqwwwwawawqqwwwwww0&%qwwwwwwwwwwwwwwwwwwwwwwwwqq075",
"90aawwwwwwqqqqqwwwwwawqqqwwwwwwq%@90qwwqwwqwwwwwwwwwwwwwwwqqq077",
"7waawwwwwwwqqqwwwwwwwwqqwwwwwww0%O=*500777900000*0000000000q0077",
"6aaawwwwwwwwqqwwwwwawwwwwwawwww0*O#=797777777099=*=*799999700776",
"Osaawwwwwwwwwwwwwwwawwwwwaawwww07o90qq9wwwwwq0q00=3=o9900000w095",
".daawwwwwwwwwwwwwwwwwawwwaaawww09+0wssawaaaaaaawa97+owwaawwwwq07",
"Osaawwwwwwwwaaaawwwwwwwwwaaawww096wdfdsaaaaasdssd07%6ssddaaaaw09",
"7aaawwwwwwaaaaaaawwwwwwwaaaawww060adffsaaaaassfddq779dfdddddaaq9",
"0waawwwwwaaaaaaaaaawwwwwwaaawwaw60sassaawwwaaassdw975wddsfdfsaq9",
"0waawwwwwaaaaaaaaaawwwwwwwwwwwaa69saaaawwwwwwwaaas7750aaasssaaq9",
"0waawwwwwwwaaaawaaawwwwwwwwwwwawr8sawwwwwwwwwwaaas075qwwwaaawwq9",
"0waaaaaaawwwwwwwwawwwaaawwwwwaaw69swwwwwwwwaaaaaas050awwwwwwwwq9",
"70waaaaaawwwwwwwwwwwaaaaaaaaaaaq95swwwwwwwaaaaaaaa070swwwwwwwwq9",
"90wwaaaawwwwwwwwwwwwaaaaaaaaaasq05awwwwwwwwaaaaaaa660swwwwaawwq9",
"690qwwwwwwwwqqqqqwwwwwwwwwwawwa07*0wwwwwwwwwaaaaww669swwwwaaawq0",
"==*=900qqqqq079%90000000wqqqqq09Oo90qqqqqqqqwqwwq06==dwwwwaaaaq0",
"%+==90waaaaw079%*=79799000q0066* .779999999997097=+==dwwwwwwawq0",
"%=*0qwsdddddaq07==909qqqqqq00006*%%O575065777699%%+=9sawwwwwwwq0",
"%70awasssssfsww0570wwssawwwqwwwwww9690qqq000qq0qq0770sawwwwwwwq0",
"%9wswwwwaaadaww0%0wasffswwwwwwwwwwwqwwwawwwwaaaaaw070saawwwwwwq0",
"%r0wqwqqwwwwwq0*%9addddawwwwwwwwwwwassssssssdsssaww60saaawwwwwq0",
"%;X96q00qqq0007==*ffddawwwwwwwwwaaassssssssdddssawa7waaaawwwwwq0",
"=Oo%0qqqwww0qq=+o9ffaaawwwwwwwwwaaaaaaaaaaassaaaaww9waaawwwwwwq9",
"%<79wsssssswaa0=%0sdaawwwwwwwwwwwwwaaaaaaaaaaawwwwwqwaaaawwwww09",
"%00wsfdfssdasdw970saawwaawwwwwwwwwwwwwwwwwwwwwwwwwwqwaaaaawwwq09",
"%0waasssaaaassw970saaaaaaawwwwwwwwwwwwwwwwwwwwwwwaw9waaaaawwwq07",
"50wwwwwwwwwaasw077waaaaaaawwwwwwwwwwwwwwwwwwwwwwwaw9waaaaawwww09",
"500wwwwwwwwwwaw9990saaaaawwwwwaawwwwwwwwwaaaaaaaaaw9waaaaawwww09",
"700wwwwwwwwwwww0990saaaawwwwwwwwwwwwwwwwwwwaaaaaaaw90saaaawwwwq0",
"70wwwwwwwwwwwww0990saawwwwwwwwqqwwwwwwwwwwwawwdddaw09saaaawwwwq0",
"50wwwwwwwwwwwww0960saaawwwwwww00wwwwwwwwwwwaaaaddww00aaawwwwww09",
"50wwwwwwwwwwwww09%0awaaawwwww0000wwwwwwwwwwwwawwaq0770wwwwwwwq09",
"=90qq000qqqqq000r500000qq000099990q0000000000qqqq00y790qwwwqq099",
"y7700yyy00000yyyeey99970077yyyyyyy0ee9999599700007997970p0000e3>"
};
