/* XPM */
static char *__0[] = {
/* columns rows colors chars-per-pixel */
"89 133 82 1 ",
"  c #1B1B1B",
". c gray12",
"X c gray15",
"o c #2C2C2C",
"O c #2F3F3F",
"+ c #303032",
"@ c gray20",
"# c #323737",
"$ c #35353B",
"% c #3A3A3A",
"& c #453F2A",
"* c #4F3F2B",
"= c #344D2D",
"- c #3D5935",
"; c #5D4E0E",
": c #68570B",
"> c #746107",
", c #7F6A04",
"< c #53472C",
"1 c #604C33",
"2 c #6D5536",
"3 c #7B5C3C",
"4 c #3D3D43",
"5 c #4B3447",
"6 c #563A4D",
"7 c #2E6767",
"8 c #367070",
"9 c #434343",
"0 c #4E4E4E",
"q c #4B4B55",
"w c gray34",
"e c #555560",
"r c #5E5E6D",
"t c #6D4566",
"y c gray39",
"u c gray43",
"i c #676774",
"p c #777777",
"a c #72727F",
"s c #A2240C",
"d c #A9300F",
"f c #B74817",
"g c #8B7300",
"h c #C65F1F",
"j c #866741",
"k c #976E45",
"l c #AD7F4E",
"z c #6B906D",
"x c #7B9C76",
"c c #9A8500",
"v c #B7A800",
"b c #E28F2E",
"n c #EA9B32",
"m c #F1A736",
"M c #D4CB00",
"N c #E2DC00",
"B c #F1EE2D",
"V c #B78C58",
"C c #FFAF53",
"Z c #C49A69",
"A c #FFC370",
"S c #FFF667",
"D c #37619A",
"F c #468787",
"G c #848484",
"H c #878795",
"J c #939393",
"K c #91919F",
"L c #94B08D",
"P c #A2A2A2",
"I c #A5A5AE",
"U c #AEAEAE",
"Y c #FFD78D",
"T c #F4CAA7",
"R c #FEEBAA",
"E c #FEF5B9",
"W c #BCBCC7",
"Q c #C5C5C5",
"! c gainsboro",
"~ c #FEFFC7",
"^ c #CDCDE0",
"/ c None",
/* pixels */
"//////////////h//////////////////////////////////////////////////////////////////////////",
"/////////////////////////////////////////////////////////////////////////////////////////",
"///////////////////b/////////////////////////////////////////////////////////////////////",
"///////////////////bb////////////////////////////////////////////////////////////////////",
"////////////////////m////////////////////////////////////////////////////////////////////",
"///////////////////////////////////////XXoo//////////////////////////////////////////////",
"//////////////////////////////////////Xo//X@//9qie9@/////////////////////////////////////",
"//////////////////////////////////////oX///$/q@o///o@////////////////////////////////////",
"////////////////bmb////////////////////X@//41%///%/@@//////////////////////n/////////////",
"/////////////b///BBf//////////////////////49%1////%@//////////////////////b//////////////",
"////////////bb///BEb////////////////&@Oq<q1i0eq%/////////////////////////////////////////",
"////////////b////db////////////////o$./OO97pee3q9%///////////////////////////////////////",
"//////////////////s/////b////////q%o///OX@qq4X1e9@@%e@///////////////////////////////////",
"////////////////////////bb//////e@///.@X//4+//Xe9///%9@//////////////////////////////////",
"////////////////////////bb//////9/%%/9X//$OX///@e%////@q////////////////////hbh//b///////",
"////////////////////////Cnb////e@@o%qe///49/////1q%////9////////////////////nh///////////",
"/////////////h//////bb//nCb////9/@//eq//o0$/////@%/@9//X$///////////////////n////////////",
"/////////////////////bbsbCb////9/o/oe/XXXXX$////@q@@@i//$///////////////B///h////////////",
"////////b////////////CCbsb/////@///o9o4e99$@X4///9@@/%w/@//////////////bm////////////////",
"///////bb/////////m//CCbs//////@w/@9o47crq9O@X$//q@///q/@//////////////bb////////////////",
"///////m//////////mmmCCs////////@q9@o7WP7wqq4++//w@//@//@//////////////bs////////////////",
"//////////////mm/mmmEEb//////////o9o$gZz:e9<49q#/i9@///@///////////////sb/dCb////////////",
"/////////////CRRmECE~~f///////////oqeGj7eeq<+4e+%ae9%@@/////////////////smSCmb///////////",
"/////////////CRCCE~~~Eb/f/////////oa4$+oo+$qeew#9q@@%///////////////////mSSbbb///////////",
"//////o@$bmb$&$@+@ooo..o@4o.//////o@9VI3e9$@qia@@@//////////////////////C~~b/////////////",
"////////fBB...b......./////////////q9JP,7w;49qH@@///////////////////////CS~~b////////////",
"////////bEB///bb.....///////////9w/w%eer$Xo94999////9///////////////////bCS~~bb/bm///////",
"/////////bd////b..X.///////////9F//%%Xu%X+%oe$@9@/@@a@///////////////////bC~SSBbmmm//////",
"///b/////s//////..X.///////////9w@/a0<Jo%$eu3%00@///i9////////////////////b~~SBbSmm//////",
"//bb////////////..XX.////////////ooHMGP9%uJGe.w%o@/09@//////////////h////fbS~~Sb~Bm//////",
"//bb////////////..Xo.//////////////uPjq%eul3<%9o/o@@@///////////////bm///fm~~~~S~SS//////",
"//nC/////////////.XooX/////////////qe3r:%7reo90/////////////////////db//fbE~~~~BSBn//////",
"//Cn//bb/////////..X@o.////////////+;%ooo1e9+90////////////////////o@d%%$$$$++@ooo..o@%o.",
"//Cbsbb//////////...o+X////////////.<rpe%9<9+./////////////////////////lHCmw+o....../////",
"//bsbCC///////////..X%oX////////////$9%%e%&+.////////////////////////9ur$+bf......///////",
"///sbCC//m////////..X+%+.///////////.r:e%++..///////////////////////9%bb...f...//////////",
"////sCCmmm////////...oq$ooo4$$0ralD;@%....+%@.%%@eiw/////////////////omCm.///////////////",
"/////bEEmmm/mm/////..X4X@9<<1rcWPp:<.++.X+9+%&4er:ZY~Wa09//////////&2%CSCb///////////////",
"/////f~~ECEmRRC/////..X@+%wq1euG;q$r9.9===1+4ee0rerW!N^PHwq9////+$re%+bSSm///////////////",
"///f/bE~~~ECCRC/////...XXo$4oq19$e%9;r++.&+179&4qqe;e<jgaFgaw09Xejw@@X.CSm///////////////",
"o@$%%$&$$@@+ooo..o@%o......X@999%r9*99+<-<q%%O44&<4$++$eeuKHw0brkq+=X.SESm///////////////",
"////....XXoo.XX..//////....oo@@0J:9%%%%9$++$%49$+%++ooo+=3ww9Xbb%++XfSE~b////////////////",
"//////......Xo..///////////oo0HZle<9%;=44%q:19e4o+X...Xooo=+X+bC&+XfnR~~E////////////////",
"//////////.XXo..////////////aATUae9q4=%%49er7e:+X........X++++CSno.fCE~~E////////////////",
"//////////..XXo.///////////uQ~Ule<94O<%=qe7zppr%...........oo@CSn..fC~~~Cf///////////////",
"///////////..X&o./////////uHJgla994%OO%%6eiLQJ:9...X../////...bCn.//CE~~~nf//////////////",
"////////////..o$o.///////90guwi9955$++$4qq7xvu90X..o.//////////bb///nC~~~Cf//////////////",
"////////////..o$0o.////o32@%t3<%4qO+%+=5=qq7e9$eXXo.+///////////b///fCE~ECn//////////////",
"/////////////..o1J0o/o902@.+5%$56O+o=o+=%<O=4$+%oo.o////////////bb/fbCE~ECCf/////////////",
"//////////////..%lJqoeeqoX.X+++oo+9$6=++$=$=$+o$..@9%///////////mbfbmC~~E~~m/////////////",
"//////////////.o%a0o0q9oXX..XXo9e<$%;O5+X+===$o..X99%//////o@$%%$$$$++@ooo..o@%o.////////",
"///////////////oo1o%9%XXX....+%&&+OO%q%<+XX.....XX999%/////////9@$9%$oXoXX.//////////////",
"///////////////.o%%%@XX..../.&&++%%$$$+%=++X.....XX990////////%=&ooXX.....///////////////",
"////////////////.o@@XX....//.<$%%5%&&$==o*X..//...X@900//////%;@X.....///////////////////",
"////////////////..XX....////o&4&%%%<%%$=+oX.///....X%00////%9:&o...//////////////////////",
"/////////////////....///////+$%&9<q9%%=*29X@////...Xo9w9//qr8%o...///////////////////////",
"///////////////////////////O@&%%9<<9%<%9>y9//////...X+qiwwrq4o...////////////////////////",
"///////////////////////////@%&&9<6%%%922iiq%//////..Xo%q874$o.../////////////////////////",
"///////////////////////////$%%%9q9%%%<>ii20%o/////...X@q4&oo...//////////////////////////",
"//////////////////////////@%%%%9q%%%&%ry>299@//////...X=o.o..////////////////////////////",
"/////////////////////////@$%%%%$$%%%%%920r2%#o//////......../////////////////////////////",
"/////////////////////////$%%%%%909%%%<&902<%#o///////......//////////////////////////////",
"/////////////////////////$%%%%%%%%<%%%%9209%%o////////...////////////////////////////////",
"////////////////////////o%%%%%%%%%%%%%%209<9%#///////////////////////////////////////////",
"////////////////////////o%445&%%%%%%$%%9y999%#o//////////////////////////////////////////",
"////////////////////////+%%O5&O%%%$$$%%q9<99%oo//////////////////////////////////////////",
"////////////////////////+%<$$O%%%$$$+%909&99@oo//////////////////////////////////////////",
"///////////////////////o+%%$++$$$$+++%90%%$$+oo//////////////////////////////////////////",
"///////////////////////o+%&$+X$$++oo$%0q%%$$+o///////////////////////////////////////////",
"///////////////////////o$%&$+Xo++oX+$%09%%$$+o///////////////////////////////////////////",
"///////////////////////+$%$$+oX+oXo+$%04%%$$@o///////////////////////////////////////////",
"///////////////////////+$<$$+oooX.+$$%q9%%$+oo///////////////////////////////////////////",
"///////////////////////@$%$$++oX.X+$%444%%$+oo///////////////////////////////////////////",
"///////////////////////+$%%&$++X.o$$%994%%$+o////////////////////////////////////////////",
"////////////////////////$%%$$++X.o$$%094%%$+o////////////////////////////////////////////",
"////////////////////////+&O$$++X.o$$%994%%$+o////////////////////////////////////////////",
"////////////////////////+%O$$+oX.o+$%094%%$o/////////////////////////////////////////////",
"////////////////////////+%O$++oX.o+$%0q4%%$o/////////////////////////////////////////////",
"////////////////////////+%%$++oX.o$$%0<6%%@//////////////////////////////////////////////",
"/////////////////////////%O$++oX.oO59096%$+//////////////////////////////////////////////",
"/////////////////////////%%$++oX.o$59096%$o//////////////////////////////////////////////",
"/////////////////////////$O@+ooX.o$%9;9%%$///////////////////////////////////////////////",
"/////////////////////////+O++ooXXo$&909%%@///////////////////////////////////////////////",
"/////////////////////////+%$+oXXXo$9q;9%%o///////////////////////////////////////////////",
"/////////////////////////@%O@+o.o+5%005%$////////////////////////////////////////////////",
"//////////////////////////%O++o.o+<9;69%$////////////////////////////////////////////////",
"//////////////////////////$O+oo.o+%9w69%@////////////////////////////////////////////////",
"//////////////////////////$%+oo.o+<q;9$%@////////////////////////////////////////////////",
"//////////////////////////%$ooo.o+<0w<9%/////////////////////////////////////////////////",
"//////////////////////////++ooXXo$9;e%%5/////////////////////////////////////////////////",
"//////////////////////////o+oXXXX%9eq9%$/////////////////////////////////////////////////",
"//////////////////////////o$+XXXX$9;q<%+/////////////////////////////////////////////////",
"///////////////////////////$$XXX.+<<qO<+@////////////////////////////////////////////////",
"///////////////////////////$+XXX.+&<;<&++////////////////////////////////////////////////",
"///////////////////////////@+XXX.+o%O<$$$+///////////////////////////////////////////////",
"///////////////////////////+oXXX.Xo<&$++$$@//////////////////////////////////////////////",
"///////////////////////////@ooXX..o$@o+o+$$//////////////////////////////////////////////",
"////////////////////////////ooXX..Xoooooo+$+/////////////////////////////////////////////",
"////////////////////////////ooXX...XXooooo++/////////////////////////////////////////////",
"////////////////////////////ooXXX...Xooooo++o////////////////////////////////////////////",
"////////////////////////////ooXXX../.XoXooo++////////////////////////////////////////////",
"////////////////////////////ooXXX../..XoXoo+@////////////////////////////////////////////",
"////////////////////////////XoXX...//.XXXXoo+o///////////////////////////////////////////",
"/////////////////////////////oXX...//X.XXXoooo///////////////////////////////////////////",
"/////////////////////////////oXX...///..XXXooo///////////////////////////////////////////",
"/////////////////////////////oXX...////..XXXoo///////////////////////////////////////////",
"/////////////////////////////oXX...////...XXXo///////////////////////////////////////////",
"/////////////////////////////oXX..//////..XXXoo//////////////////////////////////////////",
"/////////////////////////////oXX..//////X..XXo+//////////////////////////////////////////",
"/////////////////////////////oXX..///////..XXX+//////////////////////////////////////////",
"/////////////////////////////+oX..///////...XX+//////////////////////////////////////////",
"/////////////////////////////@oXX..//////X..XXXo/////////////////////////////////////////",
"////////////////////////////X+oXX..///////...XX+/////////////////////////////////////////",
"////////////////////////////@+XXX..///////...XXoo////////////////////////////////////////",
"///////////////////////////++oXXX..XoXoXX....XX+o////////////////////////////////////////",
"/////////////////////ooooo@+oXXX...XXXXoXo..XXX%@oo//////////////////////////////////////",
"////////////////oo+q%++ooXXXXXXX....oXoXoX.o+XXoo+XXooX//////////////////////////////////",
"//////////////o@&@++%%$$XXXX........XoXXXooooXXXoXo++++oX////////////////////////////////",
"////////////o%<<+++X$%%%oX........X.XXoXX.o++o..XXXX+++@&%X//////////////////////////////",
"///////////%<<%&&+oX+X$+o.....XoXoXoX+4+%@+$$+XXX.XoX++$$&%X/////////////////////////////",
"///////////o%q<&4&&++X++X.XooXoXXXXXo4%.%o$X+oXX.X++44%$&+q /////////////////////////////",
"///////////o$%<<&44&&oXo+$&$+&+$+++$+++ + X XXo++$+4+%%$%%X /////////////////////////////",
"///////////X$$$q1<4&4$%44+444+4+4+$+$oX X X Xo4+%%%%%&&<o.X /////////////////////////////",
"////////////o$@&<2e1%&44&44444+4+++++++$+++&+4%%%5+4&<&o.X. /////////////////////////////",
"///////////X%X$+++&&q0q<44&4444+&+&++++++$44$555555+X ..X X /////////////////////////////",
"///////////X**Xo++o+o++$4$qqweri2q6%4455%4%4&oo      .   @. /////////////////////////////",
"///////////X&+<%oX+o+o+o+XoXoXX++o+o+ooX. . .          Xo.X /////////////////////////////",
"///////////XX$+*1+.Xo+ooooXoXoXX.X.X.... . .         XX..X. /////////////////////////////",
"//////////// X$@&+1<+.X.. .XoXoXX.X.X.. . .        .X . .  //////////////////////////////",
"////////////// XX@++444444+o .             .XX.          ////////////////////////////////",
"////////////////   Xoo+oo+o+&+$@4<w4+ooo+ . .          //////////////////////////////////",
"////////////////////    XXXoXoXX.X.X.X.. .         //////////////////////////////////////",
"//////////////////////////                   ////////////////////////////////////////////"
};
