/* XPM */
static char *torch1_2[] = {
/* columns rows colors chars-per-pixel */
"16 86 37 1 ",
"  c gray15",
". c #322D22",
"X c gray20",
"o c #3A3A3A",
"O c #453F2A",
"+ c #514512",
"@ c #746107",
"# c #53472C",
"$ c #604C33",
"% c #6D5536",
"& c #7B5C3C",
"* c #434343",
"= c #4E4E4E",
"- c gray34",
"; c gray39",
": c gray43",
"> c #777777",
", c #8B7300",
"< c #814F30",
"1 c #C65F1F",
"2 c #CD6B23",
"3 c #D47727",
"4 c #976E45",
"5 c #AD7F4E",
"6 c #9A8500",
"7 c #C5B900",
"8 c #DB832B",
"9 c #E28F2E",
"0 c #F1A736",
"q c #C49A69",
"w c #FFB962",
"e c #FFC370",
"r c #939393",
"t c #D5AE80",
"y c #FFD78D",
"u c #FEFFC7",
"i c None",
/* pixels */
"iiiiiiiiiiiiiiii",
"iiiiiiiiiiiiiiii",
"iiiiiiiiiiiiiiii",
"iiiiiiiiiiiiiiii",
"iiiiiiiiiiiiiiii",
"iiiiiiiiiiiiiiii",
"iiiiiiiiiiiiiiii",
"iiiiiiiiiyiiiiii",
"iiiiii0iie0iiiii",
"iiiii00yi0iiiiii",
"iiiii0yuyiiiiiii",
"iiiii0yuyiiiiiii",
"iiiii0yyyiiiiiii",
"iiiiii0y00iiiiii",
"iiiiiiy00y3iiiii",
"iiiiiiuy0y03iiii",
"iiiiiiuy00y03iii",
"iiiiiiy000yy0iii",
"iiiiiiuy00uy0iii",
"iiiiiiuuy0uy3iii",
"i1iii0uuyyy0iiii",
"iiii0yuuyuyyiiii",
"iiii0uuuuuy0i9ii",
"iri0yyrrru03irii",
"i>iyyy>>>y012>ii",
"i;*0ew;;;0021;ii",
"i---;;---;;--*ii",
"ii=*93===39*=iii",
"ii**23***38**iii",
"iiio<3ooo3<oiiii",
"iii*o3XXX3X*iiii",
"iiii;>r>;>;iiiii",
"iiii*;:;*;-iiiii",
"iiiiii5tqiiiiiii",
"iiiiii5q5iiiiiii",
"iiiiii554iiiiiii",
"iiiiii454iiiiiii",
"iiiiii&5&iiiiiii",
"iiiii@676@iiiiii",
"iiiii+@,@+iiiiii",
"iiiiii###iiiiiii",
"iiiiii$$$iiiiiii",
"iiiiii%%%iiiiiii",
"iiiiii$&$iiiiiii",
"iiiiii$%%iiiiiii",
"iiiiii#%$iiiiiii",
"iiiiii#$$iiiiiii",
"iiiiii#%#iiiiiii",
"iiiiii#$#iiiiiii",
"iiiiii#$Oiiiiiii",
"iiiiii#$Oiiiiiii",
"iiiiii##Oiiiiiii",
"iiiiii#$Oiiiiiii",
"iiiiiiO#Oiiiiiii",
"iiiiiiO#Oiiiiiii",
"iiiiiiO#Oiiiiiii",
"iiiiiiO#Oiiiiiii",
"iiiiiiOOOiiiiiii",
"iiiiiiO#Oiiiiiii",
"iiiiiiOOOiiiiiii",
"iiiiiiO#Oiiiiiii",
"iiiiiiO#Oiiiiiii",
"iiiiiiO#Oiiiiiii",
"iiiiiiO#Oiiiiiii",
"iiiiiiO#Oiiiiiii",
"iiiiiiOOOiiiiiii",
"iiiiiiOOOiiiiiii",
"iiiiiiO#Oiiiiiii",
"iiiiiiOOOiiiiiii",
"iiiiiiO#Oiiiiiii",
"iiiiiiO#Oiiiiiii",
"iiiiiiO#Oiiiiiii",
"iiiiiiO#Oiiiiiii",
"iiiiiiO#Oiiiiiii",
"iiiiiiOOOiiiiiii",
"iiiiiiO#Oiiiiiii",
"iiiiiiOOOiiiiiii",
"iiiiiiO#Oiiiiiii",
"iiiiiiOOXiiiiiii",
"iiiiiiOOXiiiiiii",
"iiiiiiOOOiiiiiii",
"iiiiiiOOOiiiiiii",
"iiiiiiOOXiiiiiii",
"iiiiiiOXXiiiiiii",
"iiiiiiOXXiiiiiii",
"iiiiii.  iiiiiii"
};
