/* XPM */
static char *ceiling_1[] = {
/* columns rows colors chars-per-pixel */
"64 64 51 1 ",
"  c gray9",
". c #1B1B1B",
"X c gray12",
"o c #23170B",
"O c #2F1F0F",
"+ c #3B2713",
"@ c #3A3319",
"# c #232323",
"$ c gray15",
"% c #282828",
"& c #282F28",
"* c #2B2E2D",
"= c #2C2C2C",
"- c #2E2C2E",
"; c #322D22",
": c #392B27",
"> c #3D3626",
", c #363228",
"< c #2D3030",
"1 c #2C3031",
"2 c #2F3B3C",
"3 c #2F3F3F",
"4 c #303032",
"5 c #323737",
"6 c #35353B",
"7 c #3A3A3A",
"8 c #4B2F17",
"9 c #57371B",
"0 c #633F1F",
"q c #412921",
"w c #423629",
"e c #453F2A",
"r c #4F3F2B",
"t c #5B4326",
"y c #53472C",
"u c #674027",
"i c #704628",
"p c #7A4B2B",
"a c #604C33",
"s c #6D5536",
"d c #7B5C3C",
"f c #3D3D43",
"g c #323E49",
"h c #344557",
"j c #434343",
"k c #4E4E4E",
"l c #444450",
"z c #866741",
"x c #976E45",
"c c #A0764A",
"v c #AD7F4E",
/* pixels */
"tsdrrrrrrttttrrrrrrrrrrrrtrrrttttrrrrrrrrrrrttttrr9rrrtrttrtsdrt",
"rssrrttuutrrrrrrrtttttuiiituutrrrrrrrtttttuutrttttutrttrttttssut",
"rrrrerrrrarrrr0rrrrrrrerrrrrrreeerrrrrrrrrrrrrrrrrrrrrrrrrrrrrrr",
"++;;;;;;##;#####++++;;;;;;;;;;;.;++++++++;;;;;;;;;++++########++",
"++;;;;;OOOOOOOOO++++;;;;;OOOOOOoO++++++++;;;;;OOOO++++O.....;:++",
"#OOOO;$;rrrrrrrrrrrrrrrrerrrrrrrrrrw>>>wrrrrrrrrrrrrrrrw,;;##OO@",
"#OOOO;wysaaaaaaaasssssaaaaaaasssssaye>>raaassssaaaaaaaaayr;X#O+@",
"$;+@+:rszdddddddddzzzdddddddddzzzzday,,ydddzzzdddsddddddar,;;++@",
"wwrrr:ysddddddddzzzzzzdddddddddddzzdae5rassddddddyaassssarwrrwww",
"wttriwysddddddddzzzzzzzdddddddddzzzddy45,ressaaaaryyyaaayrrirttw",
"itrrtwasdddddddzddzzzzzzdddddddzzzzzda,#;;adarryyyyyyrarrrwtrrti",
"prrrtwaszdddddddddddzzzzddddddzzzzzzda;;ryszaaassaaaaaaayqwtrrrp",
"irrru9asdddddddddddddddddddddddzzzzzda,,azdzdddzzddddddda;9urrri",
"urrri9usddddddddddddddddddddddddzzzzdawrycxxxzxxzzddddddaq0irrru",
"urrrp9usddddddddddddddddddddddddddddda7raccxxxczzzddddddsr0prrru",
"urrtp9usddddddddddddddddddddddddddddsahrazxxzzzzddddddddsr0ptrru",
"trrti9usdddddddddddddddddddddddsssssaaf7adzzzzddddddddddsa0itrrt",
"trrut9asdddddddddddddddddsdssssaaaaaay,,ysdddddddddddddzss9turrt",
"trrutwtsddddddddddddddddsasdaaayyyaye7=,rasssdddsdddddzzdtwturrt",
"trttrwyassssssssssssssssaaaaeyyeefrwe<*>taaasaaaadsssszzsyrrttrt",
"trtrr>yaaaaaaaaaaaaaaaaaaaaayww,>,%&%<=rrjryayyaaaaaaaaaarerrtrt",
"trtrr>aszdddddddddddddddddsaye,;*123,4,yryryjjjasssssssaarerrtrt",
"tttrr>adcxzzzzzzzzzzzzdxxxcdsyw=%-esaaaaarsssssdzzzzzdddarerrttt",
"trrrr>adczzzzzzzdddddddzxxxxzzy64,ydddddzxxxxzxxxxxxxzddarrirttw",
"itrrt>adzddzzzdddddddzzddddxxcslr,azzzzzccccccccxxxxxxddsrrtrrti",
"prrrt>yszddddddddddddzzdddddxxdafraxzzzxcxxxxxxxzzzxxzzdsrwtrrrp",
"irrru>yszdddddddddddddddddddzdzaeyaxzzzxxzzzzzzzzzzzzzzdsewurrri",
"urrriyraddddddddddddzzdddddddddayyaxzzzzzzddddddddddddddaewirrru",
"urrrp#radddddddddddzzzdddddddddtkraxzzzddddddzzdddddddddsrrprrru",
"urrtprysddddddddddzzzzdddddddddar,azzzdddddddzddddddddddsrrptrru",
"trrtiuasdddssssddddzdzdssdddddda:rsdddddddddddddddddddddsytitrrt",
"trrutrasddsssssdddddzdsssddddddsrwrasddsddsdddddddddddddaytturrt",
"trrutrasdddsssddddddddssdddddddar>>>waarrryaaaaa>yaaaaaaattturrt",
"trttrtasddddssdddddzddddddzddddar>>,ryrrrrrrrayyreeeryyyyytirttw",
"trtrrrtsdddddddddddzdddddzzddddaewwassydddddsasaar>,wryaarrtrrti",
"itrrt;radddddddddddddzdddzzzdddarradxxzdzzzzzzzdzyr,eadzaw>trrrp",
"prrrt;eaddddzzzzdddddddddzzzdddayascvcxzzzzzxcxxcar;ydxcs>:urrri",
"irrru;eaddzzzzzzzdddddddzzzzdddaeazcvvxzzzzzxxvccsrrycvcdwwirrru",
"urrri;radzzzzzzzzzzddddddzzzddzdeaxzxxzzdddzzzxxcdyrwdccdrrprrru",
"urrrp:radzzzzzzzzzzdddddddddddzzeyxzzzzdddddddzzzxrrwazzsrrptrru",
"urrtp:ysdddzzzzdzzzdddddddddddzdgtxzddddddddddzzzxarwsddsyritrrt",
"trrtiwyszddddddddzdddzzzdddddzzdeyxddddddddzzzzzzxawazddsyrturrt",
"trrutwaszdddddddddddzzzzzzzzzzzsywxdddddddzzzzzzzzaraxddsrwturrt",
"trrutwasddddddddddddzzzzzzzzzzxsawsddddddddzzzzzzzeeaxddaqwrttrt",
"trttr9asddddsssssddddddddddzddzarrasddddddddzzzzddeeyxdda;9rrtrt",
"trtrr9usssssary;yaaaaaaadsssssay$,rassssssssdsddsae,,cddaq0rrtrt",
"trtrr9idzzzdaryeweyyryyaaasaaee>.X>ryyyyyyyyyrayr,%,,cddsr0rrttt",
"urrtp9idcccczsarweyayssssssaaaae>;;$wrwaewrrreyy;;%,yxzdsr0wrrrt",
"trrti9idxxxvxddaeraddxxzdddsddddddyeyasssaaassassarraxzdsa0itrrt",
"trrut9aszzzczdda;adzxvvxdddddddddddsdddzddddzzzzzdaraxzzss9turrt",
"trrutwysdddddsa>;yzcccczdddddddddddzxxxxxxxxcxxxzddeaxzzstwturrt",
"trttrwrasssaaar,,>vvcczdddddddddzzzxxxxxxxxcccxxzdzrdzzzsrwrttrt",
"trtrr>ysdddass,%#yvvzzzdddddddddzzzzzzzzzzzxxzzzzddydzzzsr>rrtrt",
"trtrr>adxxxdzza,;axczzdddddddddddddzzzzzzzzzzzdddddsdzzzsr>rrtrt",
"tttrr>adxxczxcdyraxzzddzzddddddddddddddddddddddddddsdzzzsr,rrttt",
"trrrr>adzzzzxxdyraxzzzzzzzdddddddddddddddddddddddzdydzzzsr>wrrrt",
"49www>ysdddzzxdarrdzzzzzzzdddddddddddddddddddddddzdydzzzsrw>>@;+",
"18q>;>rassssssayerassssssssssssaaaaaaaassssssssssayyasssaw,;;o++",
"-+;;+>wryyyyyyew>wrrtttyaayyyyyewwwryyyyyyyyyaayyrwwwyyyrwO+;;o+",
";;;;;;,,w>wwq;;;;qqqqqqqrwwwwwq;  ;qwwwwwwwwrwrrwq;XXe>>>r;;;;;;",
"++$##,####++++;;;;;;;;;++++++++;.;;;;;;;;;;;++++#####;##;;;;;;++",
"rrrrrrrrrrrrrrrrrrrrrrrrrrrrrrreeerrrrrrrerrrrrrr0rrrrarrrrerrrr",
"ttuiiuuiiitttrrttrruiuttrrrrrrrww>uuuttrrttuiittrtrrwtrrrrrttuii",
"rrrrrrrrrrrrr>>>rrrrwwwwrrrrrrrrr>>>rrrrwwrrrrrr@@rr,wrrwwrrwrrr"
};
