/* XPM */
static char *ceiling_3[] = {
/* columns rows colors chars-per-pixel */
"64 64 42 1 ",
"  c #131313",
". c gray9",
"X c #1B1B1B",
"o c gray12",
"O c #3A3319",
"+ c #232323",
"@ c gray15",
"# c #322D22",
"$ c #392B27",
"% c #3D3626",
"& c #363228",
"* c #2D3030",
"= c #423629",
"- c #453F2A",
"; c #4F3F2B",
": c #514512",
"> c #5B4326",
", c #53472C",
"< c #674027",
"1 c #704628",
"2 c #7A4B2B",
"3 c #604C33",
"4 c #6D5536",
"5 c #7B5C3C",
"6 c #4E4E4E",
"7 c #654160",
"8 c #814F30",
"9 c #8C5637",
"0 c #985D3F",
"q c #866741",
"w c #976E45",
"e c #A56446",
"r c #A0764A",
"t c #AD7F4E",
"y c #B47150",
"u c #B78C58",
"i c #C18564",
"p c #C49A69",
"a c #CF9876",
"s c #D5AE80",
"d c #E3B490",
"f c #E5C196",
/* pixels */
"@$=#$#&&##@XX#@Xoo#@XX#$=$=&o@@=;=##@##;oX XXX$=$$@>$@$;==#$=122",
"@o@@X;=@#@#$1$$<<===1>4;=>;>&$#;==>>>=1=$188882w413;=>$<11$#>><2",
"88>;4ewttttqt000088;;883;84;;#=>11188238y03009twtppteee42ttw88>4",
"pwt000t88800880p0ttttt0ptt04p$;twpttttty0099000eq040eewtwweipwtt",
";8198884881118;499e00t0tt99t;=310000t118ww224388118rr008180y;813",
"8>;;;212>;11;>>=1>4>=4888;2>=@@>121=42118==1==40t0999rrr94;08>;4",
"=;;=;;;>>1;=;89;=;===;;8;;==#..$$=11088898>14=892211=;=83402;1>;",
";>>;>>>;1>;;>121>;;>2;;=;$$$oo.o==1>@###==$=;;=>>>;===;;;>;;=>2=",
";>;;>;;>;>>9===;;$=<>;;;<<$=#$o#$###$$$$#$$$;;=&==;>>;;;1>;;;22;",
"@$=#$@o#=$##$$$==$@$=#$;;;=$#o... X@o@@;>>>;=#@#$$$=<;;=$==>====",
"@o@@XX@@XX@oX@@@oo@o@@X#@@##$3@;=-$#@$#@@@##@@$$o.@@###@@#@@o.oX",
"=;;=2;;;==$$<>;;4>>;<<7;1988eq3019eee22$;;=;>;<<<1>$2<==;==$=;;;",
";;t1102>;==;;;4t8tt499>829;880e8899990980018<>>q0809;%%$#w909;;;",
"023=;;4;>;;8q048tt34ww3>421289e0ye0000yeiiddfpr24800##o.Xpstw02>",
"11=eee22111=q9923489t00ww8wpttuptppp90800y0030iir8tt$$Xo#wwpt88=",
"0ee0epte00ee8w21231>0;;-83888yy0000yiyy000ryyyee03q0. X#;198ee93",
"092888;800928==81>;>;$3441<<2=;>;;;88;;39999;88;9934##.@;1;;;222",
"<80>;2222<8084>>>221=3<11;;;>;;====#$=;==;1>1;;;89;=8Xoo#443;;;1",
"22>$$$$=;=$$;;$$1>;>=;;;<;>1>===@$=$1;;21>=>;;=111>>4=@43;;194>>",
"$$9;;>>;;=<<>1;;81;;;==&@##;=;===@@==$$;;1>>112$$$==e;$@#=;<219;",
">>;$$$-;==;>;=$=>>=;&##@=;=@&=;=;99#@=$;===<11;;;>>;8$==1;;;==;=",
"@$=#$=#@$$$#$@@=$=$$#$###@@.Xo.oo@@#&@@##@###$=$####=#$o;o####o;",
"@o@@X@o@@@@##=#X.@o=>=92>84q81<=$;;=914===&=&#==&&=;=#X@@#@@o.oX",
";;=q8492>1211=#$o;=;8098829wwtsfsptptp9e900848;;91;&@@=$=;08;;==",
"88;84000t00008$==11492>2289;489e90900909t0t018t480848;80004888;;",
"099eq0erte9tee;$@#$838088;;;;;;;8;4;;;4;;;0;2088q00;>4t9tt90099e",
"49;44t0tt0t004=@43w98>=111>$>$<22>11;888498>8844t484;009eqq049;;",
"8>>$=1w4140tw8Xoo#$;=$==$#===13>;;;>>>#1818>;80008848;;4>;448>>=",
"1>>;>=##@##o$##.@;1<==#$$=##=$;>>2=1$;;>$$;$$1284>;;;;>>;;821>>2",
";8;;>=@$3;<<=. X#;>;#;;-#==>2>1>1=#34;O1$02<<=>>==;>>1>>2>>>;8;;",
";==<>;<;;4<<3$$Xo##==$$$====$$4993;;=;9;=%*%=%##$$@@=;===$;;;===",
";>;=#@##==;*@##o.Xo$#&#@XX+$$;========;;;;;;=$==;;;;4;&=$=1;;>;>",
"@$=#$#$$==#$;;%%$#-==##$###oo#@XX.XX@@@@#@#$=$$%=*@oo@@Xo.o@@#@@",
"@o@@X;33;34422<==;<18$$><122<<=2<$=$====$=@@335134;;>;=$==;;#@@o",
"tq4y0099088928819>20844482<22388132<11<@.X#=yyyy0dpy0ryr0re9tq48",
"yyy0eetww99q94i0puee0qy00yipyuiydirw3e5;o$#=00005ediii30yp00yyyy",
"1;28;39e994%;49;333yye5ruiwwui333y000001==$808888488;84q00r91;2>",
"309008099545eyye;333483483eey0yyy5rie21#@$;e881;;>>>>;8821913099",
">==;qy595;449q55qqqe053;;=9;;;;;4434ess34@=4333343=;;===$==;>==>",
";;>>2>3435qe5qyiwe921=;;;=>;;>;=$$$$$$$#ooX8####$=44;4$=$=;;;;>3",
"=;81;>;=;<;$$$==2==$$=>12;12;=;=O:;#<<<;@.##$=;>92;=$=;;933;=;8;",
">;;=$$$$==$==$@==o$#@#==;;>>=$$$$####$$;#X .$##>=$$$=;;;;;;>>;;=",
"@$=#$=$;;;=;;#;=$==$#$$$=>>;1;;;;;=;=$$#oX$$$=$====$=$$==>;=$#$;",
"@o@@XXXo@oo@@@#@@o.oX@@@@@&#&##&###@@X#X.o##.#+o$oo@@@@@#@@o.oXo",
"$$=33;$;=3;q;>$$=$1o@$$#=$$$##ooo##$#$=;%%$##o$$===3311==<=$$$=;",
"$ue9rueyseuspae92;4$;;>;=1=11838>>8=<>%2<==;11338344311334;$$==;",
"829e829<qt33ttqtq2<#=;>80000ryype0qpy0;>;;;;;;80808880800t0089q$",
"1wq9ewqe0qq43;;>$$@$o$3;4008398;;;;;4ypyy080yyyrspiiy99e8t991==8",
"1iyssiyqq45999ie=;#  #>>430994ey00435q53qiuq;4;8490390y09q0014=;",
"35q3;5q3;5q3;%@o#=#XX@$4343we5e4530189345;;;>;;;;>34;;;898=;3333",
";=;===;1=&=3;99i532X%=;qqqe9qq355wii3;;9;;;334999499449991;;;>2=",
";><$=><;====;19293#.X2;<;=>;;=<992295qqe9343q921211>18;;=22;;2;;",
";$$@$$$=>=@o;==&;=# X$;=;=>>;9$=====;>=;993;98821;2122>;>;;;;81;",
"@$=#$;$$=##o###@X@XX#$$$#o#$;$=;===;;;=;>>;39&==&=;=&#;;;;;>;;>;",
"@o@#$3@;@@#@@o.oX==$#$oooo@@oo@###$##@$@$=$$#@@o=#####+Xo.o@@#@@",
"===$#o..;;=;13433=;$=;$=>=$$#$@$=====$#;;;>8===o===;=$;========$",
"4>>=#$o#33>;4484=43;2q9p888;;w-%11$@@=8311881=$@;23133>128844>>;",
"18;$oo.o;89333q;4;11w8iqrrrq3====;;0tts82813q81w1w1w904;888118;;",
"022=#..$tpttiey3urssri9ywit9qrr133w8=110;=#--388wq00y8r99qr80222",
"ii8>=@@>848q3909;;;=$$3;43wwww55q3;3;;4;t6ttippuw1t989898t00ii88",
"338t;=314;319qq23;;44>;>1;>==;q5555r344;3q118e00yqeeir55q9qy3380",
"9494p$;t=;=;;;==3;;>1;;;;;;;;;;;;>&-3,3534992;411;;1199433999499",
"293;;#=>>>;;;==;;;;==========;;;;;;;=;;2>======>;1===;2121>22933",
">>;>&$#;;;;;=>;;;;;=;;;$=$$=;>;;>2;;;>>8;=;>218;19===$>>>>2<>>;$"
};
