/* XPM */
static char *magic_sword[] = {
/* columns rows colors chars-per-pixel */
"70 149 81 1 ",
"  c #23170B",
". c #2F1F0F",
"X c #3B2713",
"o c #3A3319",
"O c #2C2C2C",
"+ c #392B27",
"@ c #223322",
"# c #3D3626",
"$ c gray20",
"% c #3A3A3A",
"& c #4B2F17",
"* c #57371B",
"= c #423629",
"- c #4F3F2B",
"; c #2E4425",
": c #344D2D",
"> c #3D5935",
", c #5B4326",
"< c #53472C",
"1 c #704628",
"2 c #604C33",
"3 c #6D5536",
"4 c #7B5C3C",
"5 c #5C7F36",
"6 c #323E49",
"7 c #4B3447",
"8 c #563A4D",
"9 c #344557",
"0 c #334D66",
"q c #2D527A",
"w c #434343",
"e c #4E4E4E",
"r c gray34",
"t c #4D6E4E",
"y c #527456",
"u c #654160",
"i c gray39",
"p c gray43",
"a c #777777",
"s c #814F30",
"d c #866741",
"f c #976E45",
"g c #A0764A",
"h c #AD7F4E",
"j c #8F5477",
"k c #5D825E",
"l c #B78C58",
"z c #C49A69",
"x c #CF9876",
"c c #FFCD7F",
"v c #315A8E",
"b c #37619A",
"n c #3E69A7",
"m c #4470B3",
"M c #447CC0",
"N c #9B6282",
"B c #BC7F9E",
"V c #5789CD",
"C c #6898D9",
"Z c #7BA4E6",
"A c #848484",
"S c #939393",
"D c #94B08D",
"F c #A2A2A2",
"G c #AEAEAE",
"H c #B9B9B9",
"J c #D5AE80",
"K c #E3B490",
"L c #FFD78D",
"P c #E5C196",
"I c #FEE19C",
"U c #F4CAA7",
"Y c #F5D4AC",
"T c #FEEBAA",
"R c #FEF5B9",
"E c #93B9F4",
"W c #C5C5C5",
"Q c #CADDC4",
"! c gainsboro",
"~ c #FEFFC7",
"^ c None",
/* pixels */
"^^^^^^^^^^^^^^^^^^^^^^^^^^^^^^^^^^^^^^^^^^^^^^^^^^^^^^^^^^^^^^^^qnq^^^",
"^^^^^^^^^^^^^^^^^^^^^^^^^^^^^^^^^^^^^^^^^^^^^^^^^^^^^^^^^^^^^^^qmVmq^^",
"^^^^^^^^^^^^^^^^^^^^^^^^^^^^^^^^^^^^^^^^^^^^^^^^^^^^^^^^^^^^^^qvVZVvq^",
"^^^^^^^^^^^^^^^^^^^^^^^^^^^^^^^^^^^^^^^^^^^^^^^^^^^^^^^^^^^^^^vMZZZMv^",
"^^^^^^^^^^^^^^^^^^^^^^^^^^^^^^^^^^^^^^^^^^^^^^^^^^^^^^^^^^^^^vmCE~!Zmq",
"^^^^^^^^^^^^^^^^^^^^^^^^^^^^^^^^^^^^^^^^^^^^^^^^^^^^^^^^^^^^qvVZ!~~EMv",
"^^^^^^^^^^^^^^^^^^^^^^^^^^^^^^^^^^^^^^^^^^^^^^^^^^^^^^^^^^^^qmZ!~G~!Mv",
"^^^^^^^^^^^^^^^^^^^^^^^^^^^^^^^^^^^^^^^^^^^^^^^^^^^^^^^^^^^^vME~pr~!Mv",
"^^^^^^^^^^^^^^^^^^^^^^^^^^^^^^^^^^^^^^^^^^^^^^^^^^^^^^^^^^^qvC!~Wa~!Mv",
"^^^^^^^^^^^^^^^^^^^^^^^^^^^^^^^^^^^^^^^^^^^^^^^^^^^^^^^^^^^vmZ~pHe~!Mv",
"^^^^^^^^^^^^^^^^^^^^^^^^^^^^^^^^^^^^^^^^^^^^^^^^^^^^^^^^^^qvV!~AHr~!Mv",
"^^^^^^^^^^^^^^^^^^^^^^^^^^^^^^^^^^^^^^^^^^^^^^^^^^^^^^^^^^vmZ!~GSS~!Mv",
"^^^^^^^^^^^^^^^^^^^^^^^^^^^^^^^^^^^^^^^^^^^^^^^^^^^^^^^^^qvVE~aGFS~!Mv",
"^^^^^^^^^^^^^^^^^^^^^^^^^^^^^^^^^^^^^^^^^^^^^^^^^^^^^^^^^vmZ!~FH!a~!Mv",
"^^^^^^^^^^^^^^^^^^^^^^^^^^^^^^^^^^^^^^^^^^^^^^^^^^^^^^^^qvVE~aGHGA~!Mv",
"^^^^^^^^^^^^^^^^^^^^^^^^^^^^^^^^^^^^^^^^^^^^^^^^^^^^^^^^vmZ!~FHHGS~!Mv",
"^^^^^^^^^^^^^^^^^^^^^^^^^^^^^^^^^^^^^^^^^^^^^^^^^^^^^^^qvVE~aGHWFa~!Mv",
"^^^^^^^^^^^^^^^^^^^^^^^^^^^^^^^^^^^^^^^^^^^^^^^^^^^^^^^qmZ!~FHHWGA~!Mv",
"^^^^^^^^^^^^^^^^^^^^^^^^^^^^^^^^^^^^^^^^^^^^^^^^^^^^^^^vME~iGHWWFp~!Mv",
"^^^^^^^^^^^^^^^^^^^^^^^^^^^^^^^^^^^^^^^^^^^^^^^^^^^^^^qvV!~SHHWW!r~!Mv",
"^^^^^^^^^^^^^^^^^^^^^^^^^^^^^^^^^^^^^^^^^^^^^^^^^^^^^^vmZ!~GHWWWWr~!Mv",
"^^^^^^^^^^^^^^^^^^^^^^^^^^^^^^^^^^^^^^^^^^^^^^^^^^^^^qvVE~AHHWWW!i~!Mv",
"^^^^^^^^^^^^^^^^^^^^^^^^^^^^^^^^^^^^^^^^^^^^^^^^^^^^^vmZ!~FHWWWW!i~!Mv",
"^^^^^^^^^^^^^^^^^^^^^^^^^^^^^^^^^^^^^^^^^^^^^^^^^^^^qvVE~pGWWWWW!e~!Mv",
"^^^^^^^^^^^^^^^^^^^^^^^^^^^^^^^^^^^^^^^^^^^^^^^^^^^^vMZ!~FHHWWWW!e~!Mv",
"^^^^^^^^^^^^^^^^^^^^^^^^^^^^^^^^^^^^^^^^^^^^^^^^^^^vmCE~iGWHWWWW!r~!Mv",
"^^^^^^^^^^^^^^^^^^^^^^^^^^^^^^^^^^^^^^^^^^^^^^^^^^qvVZ!~AHWWWWWH!i~!Mv",
"^^^^^^^^^^^^^^^^^^^^^^^^^^^^^^^^^^^^^^^^^^^^^^^^^^qmCE~~FHWWWWWHS~~EMv",
"^^^^^^^^^^^^^^^^^^^^^^^^^^^^^^^^^^^^^^^^^^^^^^^^^^vMZ!~aHHWWWW!Ga~!EMv",
"^^^^^^^^^^^^^^^^^^^^^^^^^^^^^^^^^^^^^^^^^^^^^^^^^^vMZ!~FHHWWWW!Sp~~EMv",
"^^^^^^^^^^^^^^^^^^^^^^^^^^^^^^^^^^^^^^^^^^^^^^^^^qvC!~rGHHWWWW!Sr~~EMv",
"^^^^^^^^^^^^^^^^^^^^^^^^^^^^^^^^^^^^^^^^^^^^^^^^^vmZ~~aHHHWWWW!Fe~!ZMv",
"^^^^^^^^^^^^^^^^^^^^^^^^^^^^^^^^^^^^^^^^^^^^^^^^^vV!~~FGWHWWWW!Sw~!ZMv",
"^^^^^^^^^^^^^^^^^^^^^^^^^^^^^^^^^^^^^^^^^^^^^^^^qbC~~iGHHHWWWW!Ai~ECmq",
"^^^^^^^^^^^^^^^^^^^^^^^^^^^^^^^^^^^^^^^^^^^^^^^^vm!~iAGHHHWWWWWp~!ZVvq",
"^^^^^^^^^^^^^^^^^^^^^^^^^^^^^^^^^^^^^^^^^^^^^^^qvV!~rFGHHHWWW!Sw~!ZMv^",
"^^^^^^^^^^^^^^^^^^^^^^^^^^^^^^^^^^^^^^^^^^^^^^^qmZ!~pGHGHWWWW!aw~!Cmq^",
"^^^^^^^^^^^^^^^^^^^^^^^^^^^^^^^^^^^^^^^^^^^^^^^vME~~AGGHHHWWWWpr~EVvq^",
"^^^^^^^^^^^^^^^^^^^^^^^^^^^^^^^^^^^^^^^^^^^^^^^vM!~iFGGHHHWWWWr~!ZMv^^",
"^^^^^^^^^^^^^^^^^^^^^^^^^^^^^^^^^^^^^^^^^^^^^^qvV!~iGGGGHWHWWFw~!ZMv^^",
"^^^^^^^^^^^^^^^^^^^^^^^^^^^^^^^^^^^^^^^^^^^^^^qmZ!~aGGGGHHWW!pw~ECmq^^",
"^^^^^^^^^^^^^^^^^^^^^^^^^^^^^^^^^^^^^^^^^^^^^^vME~iSGGGGHHWWWi~!ZVvq^^",
"^^^^^^^^^^^^^^^^^^^^^^^^^^^^^^^^^^^^^^^^^^^^^^vM!~eGGGGGHHHWWr~!ZMv^^^",
"^^^^^^^^^^^^^^^^^^^^^^^^^^^^^^^^^^^^^^^^^^^^^qvV!~pGGGGGHHHWFw~!Cmq^^^",
"^^^^^^^^^^^^^^^^^^^^^^^^^^^^^^^^^^^^^^^^^^^^^qmZ!~SGGGGGGHHWpw~EVvq^^^",
"^^^^^^^^^^^^^^^^^^^^^^^^^^^^^^^^^^^^^^^^^^^^^vME~iFGGGGGGHHWr~!ZMv^^^^",
"^^^^^^^^^^^^^^^^^^^^^^^^^^^^^^^^^^^^^^^^^^^^^vM!~iGGGGGGGHHFw~!Cmq^^^^",
"^^^^^^^^^^^^^^^^^^^^^^^^^^^^^^^^^^^^^^^^^^^^qvV!~aGGGGGGHGWA%~!Vvq^^^^",
"^^^^^^^^^^^^^^^^^^^^^^^^^^^^^^^^^^^^^^^^^^^^qmZ!~SGGGGGGGGWre~EMv^^^^^",
"^^^^^^^^^^^^^^^^^^^^^^^^^^^^^^^^^^^^^^^^^^^^vME~iFFGGGGGGGGe~!ZMv^^^^^",
"^^^^^^^^^^^^^^^^^^^^^^^^^^^^^^^^^^^^^^^^^^^^vM!~iFFGGGGGGHFw~!Cmq^^^^^",
"^^^^^^^^^^^^^^^^^^^^^^^^^^^^^^^^^^^^^^^^^^^qvV!~aFGGGGGGGWpw~EVvq^^^^^",
"^^^^^^^^^^^^^^^^^^^^^^^^^^^^^^^^^^^^^^^^^^^qmZ!~SFGFGGGGGFr~!ZMv^^^^^^",
"^^^^^^^^^^^^^^^^^^^^^^^^^^^^^^^^^^^^^^^^^^^vME~iFFFGGGGGGSw~!Cmq^^^^^^",
"^^^^^^^^^^^^^^^^^^^^^^^^^^^^^^^^^^^^^^^^^^^vM!~iFFFFGGGGHpw~!Vvq^^^^^^",
"^^^^^^^^^^^^^^^^^^^^^^^^^^^^^^^^^^^^^^^^^^qvV!~aFFFFGGGGGre~EMv^^^^^^^",
"^^^^^^^^^^^^^^^^^^^^^^^^^^^^^^^^^^^^^^^^^^qmZ!~AFFFFFGGGGw~!ZMv^^^^^^^",
"^^^^^^^^^^^^^^^^^^^^^^^^^^^^^^^^^^^^^^^^^^vME~iFFFFFFGGGSw~!Cmq^^^^^^^",
"^^^^^^^^^^^^^^^^^^^^^^^^^^^^^^^^^^^^^^^^^^vM!~iFFFFFFFGGrw~EVvq^^^^^^^",
"^^^^^^^^^^^^^^^^^^^^^^^^^^^^^^^^^^^^^^^^^qvV!~aFFFFFFFGFw~!ZMv^^^^^^^^",
"^^^^^^^^^^^^^^^^^^^^^^^^^^^^^^^^^^^^^^^^^qmZ!~AFFFFFFFGFw~!Cmq^^^^^^^^",
"^^^^^^^^^^^^^^^^^^^^^^^^^^^^^^^^^^^^^^^^^vME~iSFFFFFFFGrw~!Vvq^^^^^^^^",
"^^^^^^^^^^^^^^^^^^^^^^^^^^^^^^^^^^^^^^^^^vM!~iSFFFFFFFFer~EMv^^^^^^^^^",
"^^^^^^^^^^^^^^^^^^^^^^^^^^^^^^^^^^^^^^^^qvV!~pSFFFFFFFFw~!ZMv^^^^^^^^^",
"^^^^^^^^^^^^^^^^^^^^^^^^^^^^^^^^^^^^^^^^qmZ!~aSSFFFFFFS%~!Cmq^^^^^^^^^",
"^^^^^^^^^^^^^^^^^^^^^^^^^^^^^^^^^^^^^^^^vME~iASSFSFFFFew~EVvq^^^^^^^^^",
"^^^^^^^^^^^^^^^^^^^^^^^^^^^^^^^^^^^^^^^^vM!~iASSSFSFFFw~!ZMv^^^^^^^^^^",
"^^^^^^^^^^^^^^^^^^^^^^^^^^^^^^^^^^^^^^^qvV!~pASSSSFFFaw~!Cmq^^^^^^^^^^",
"^^^^^^^^^^^^^^^^^^^^^^^^^^^^^^^^^^^^^^^qmZ!~aASASSFSFrw~!Vvq^^^^^^^^^^",
"^^^^^^^^^^^^^^^^^^^^^^^^^^^^^^^^^^^^^^^vME~iaAASSSSSFwr~EMv^^^^^^^^^^^",
"^^^^^^^^^^^^^^^^^^^^^^^^^^^^^^^^^^^^^^^vM!~rAaSASASFaw~!ZMv^^^^^^^^^^^",
"^^^^^^^^^^^^^^^^^^^^^^^^^^^^^^^^^^^^^^^vM!~paAaAASSSp$~!Cmq^^^^^^^^^^^",
"^^^^^^^^^^^^^^^^^^^^^^^^^^^^^^^^^^^^^^qvC!~aaaAaASAFww~EVvq^^^^^^^^^^^",
"^^^^^^^^^^^^^^^^^^^^^^^^^^^^^^^^^^^^^^qmZ~iaaaaAAAAAw~!ZMv^^^^^^^^^^^^",
"^^^^^^^^^^^^^^^^^^^^^^^^^^^^^^^^^^^^^^vM!~iaaaaaAAApw~!Cmq^^^^^^^^^^^^",
"^^^^^^^^^^^^^^^^^^^^^^^^^^^^^^^^^^^^^^vV!~paaaaaaASrw~!Vvq^^^^^^^^^^^^",
"^^^^^^^^^^^^^^^^^^^^^^^^^^^^^^^^^^^^^qbC~~paaaaaaaaer~EMv^^^^^^^^^^^^^",
"^^^^^^^^^^^^^^^^^^^^^^^^^^^^^^^^^^^^^qm!~iaaaaaaaaaw~!Zmq^^^^^^^^^^^^^",
"^^^^^^^^^^^^^^^^^^^^^^^^^^^^^^^^^^^^^vM!~raaaaaaaAp%~!Vvq^^^^^^^^^^^^^",
"^^^^^^^^^^^^^^^^^^^^^^^^^^^^^^^^^^^^^vV!~iapaaaaaaee~!Mv^^^^^^^^^^^^^^",
"^^^^^^^^^^^^^^^^^^^^^^^^^^^^^^^^^^^^qbC~~paaaaaaaaw~~EMv^^^^^^^^^^^^^^",
"^^^^^^^^^^^^^^^^^^^^^^^^^^^^^^^^^^^^qm!~ippaaaaaapw~!Zmq^^^^^^^^^^^^^^",
"^^^^^^^^^^^^^^^^^^^^^^^^^^^^^^^^^^^^vM!~rapppaaaaww~!Vvq^^^^^^^^^^^^^^",
"^^^^^^^^^^^^^^^^^^^^^^^^^^^^^^^^^^^^vV!~ipppppaaaw~~EMv^^^^^^^^^^^^^^^",
"^^^^^^^^^^^^^^^^^^^^^^^^^^^^^^^^^^^qbC~~ppppippaaw~!Zmq^^^^^^^^^^^^^^^",
"^^^^^^^^^^^^^^^^^^^^^^^^^^^^^^^^^^^qm!~rppipippai%~!Vvq^^^^^^^^^^^^^^^",
"^^^^^^^^^^^^^^^^^^^^^^^^^^^^^^^^^^^vM!~rppipipppwe~!Mv^^^^^^^^^^^^^^^^",
"^^^^^^^^^^^^^^^^^^^^^^^^^^^^^^^^^^^vV!~ippriipppw~~EMv^^^^^^^^^^^^^^^^",
"^^^^^^^^^^^^^^^^^^^^^^^^^^^^^^^^^^qbC~~iprirpppi%~!Zmq^^^^^^^^^^^^^^^^",
"^^^^^^^^^^^^^^^^^^^^^^^^^^^^^^^^^^qm!~~pieirippww~!Vvq^^^^^^^^^^^^^^^^",
"^^^^^^^^^^^^^^^^^^^^^^^^^^^^^^^^^^vM!~riiwieppiw~~EMv^^^^^^^^^^^^^^^^^",
"^^^^^^^^^^^^^^^^^^^^^^^^^^^^^^^^^^vV!~iieerripiw~!Zmq^^^^^^^^^^^^^^^^^",
"^^^^^^^^^^^^^^^^^^^^^^^^^^^^^^^^^qbC~~iiwieiiprw~!Vvq^^^^^^^^^^^^^^^^^",
"^^^^^^^^^^^^^^^^^^^^^^^^^^^^^^^^^qm!~~iiwiwiipwe~!Mv^^^^^^^^^^^^^^^^^^",
"^^^^^^^^^^^^^^^^^^^^^^^^^^^^^^^^^vM!~rieerwiiiw~~EMv^^^^^^^^^^^^^^^^^^",
"^^^^^^^^^^^^^^^^^^^^^^^^^^^^^^^^^vV!~iiweeeiirw~!Zmq^^^^^^^^^^^^^^^^^^",
"^^^^^^^^^^^^^^^^^^^^^^^^^^^^^^^^qbC~~ir$iweiiew~!Vvq^^^^^^^^^^^^^^^^^^",
"^^^^^^^^^^^^^^^^^^^^^^^^^^^^^^^^qm!~~iewi%riiw~~EMv^^^^^^^^^^^^^^^^^^^",
"^^^^^^^^^^^^^^^^^^^^^^^^^^^^^^^^vM!~ri%er%iirw~!Zmq^^^^^^^^^^^^^^^^^^^",
"^^^^^^^^^^^^^^^^^^^^^^^^^^^^^^^^vV!~rrOrewiirw~!Vvq^^^^^^^^^^^^^^^^^^^",
"^^^^^^^^^^^^^^^^^^^^^^^^^^^^^^^qbC~~rw%rweiiwr~!Mv^^^^^^^^^^^^^^^^^^^^",
"^^^^^^^^^^^^^^^^^^^^^^^^^^^^^^^qm!~~r%wr%eirw~~EMv^^^^^^^^^^^^^^^^^^^^",
"^^^^^^^^^^^^^^^^^^^^^^^^^^^^vqqvM!~re$ee$eirw~!Zmq^^^^^^^^^^^^^^^^^^^^",
"^^^^^^^^^^^^^^^^^^^^^^^^^^^vmvqvV!~re$rw%rrww~!Vvq^^^^^^^^^^^^^^^^^^^^",
"^^^^^^^^^^^^^^^^^^^^^^^^^^vmVmvbC~iewwr%wrrw~~EMv^^^^^^^^^^^^^^^^^^^^^",
"^^^^^^^^^^^^^^^^^^^^^^vq^qvVZMbm!~re%we$errw~!Zmq^^^^^^^^^^^^^^^^^^^^^",
"^^^^^^^^^^^^^^^^^^^^^vMmqvmZ!CVV!~re$ee$erew~!Vvq^^^^^^^^^^^^^^^^^^^^^",
"^^^^^^^^^^^^^^^^^^^^vmCMvvV~~~ZZ!~ew%rw%rrwr~!Mv^^^^^^^^^^^^^^^^^^^^^^",
"^^^^^^^^^^^^^^^^^^^qbC!CbvD~e~!E~iewwe%wrew~~Zmq^^^^^^^^^^^^^^^^^^^^^^",
"^^^^^^^^^^^^^^^^^^^vV~~~mnD~w~!!~re%we%wre%~!Cvq^^^^^^^^^^^^^^^^^^^^^^",
"^^^^^^^^^^^^^^^^^^vm!~w~GDG~w~!!~rw%ew$rrww~!Mvq^^^^^^^^^^^^^^^^^^^^^^",
"^^^^^^^^^^^^^^^^^^vV~~-~!Z!~=~!!~uw%ew%erw~~!Mvqqvv^^^^^^^^^^^^^^^^^^^",
"^^^^^^^^^^^^^^^^^qbG~8-~!E~~&~!~~u$we%wer%~~ZmvvmMn^^^^^^^^^^^^^^^^^^^",
"^^^^^^^^^^^^^^^^^vm!~2-~!!~<<~!~~e$we$eeeS~!CbvMCVv^^^^^^^^^^^^^^^^^^^",
"^^^^^^^^^^^^^^^^^vV!~,-~!!~,-~~~8w%ew$eew~~!VmMCZMv^^^^^^^^^^^^^^^^^^^",
"^^^^^^^^^^^^^^^^^vV~~,,~~!~,-e~~ewwe%weew~~ECZZEZMv^^^^^^^^^^^^^^^^^^^",
"^^^^^^^^^^^^^^^^qbG~222u~~~--w~~e$we%weeS~!ZZG~~Zmq^^^^^^^^^^^^^^^^^^^",
"^^^^^^^^^^^^^^^^vm!~2332~~u---~~e$ew$eew~~!ZG~<~Gbq^^^^^^^^^^^^^^^^^^^",
"^^^^^^^^^^^^^^^qvC!~3432~~3---~ew$ew%eew~~!E~u%~Dv^^^^^^^^^^^^^^^^^^^^",
"^^^^^^^^^^^^^^^qmZ~~4444~~2---~e%we%weew~~!!~#A~Vv^^^^^^^^^^^^^^^^^^^^",
"^^^^^^^^^^^^^^^vM!~ufggf~~2---~e$we%wewS~!!~,o~!Vv^^^^^^^^^^^^^^^^^^^^",
"^^^^^^^^^^^^^^^vM!~3gzzzar,---ew$ew$eew~~!~3#$~!mv^^^^^^^^^^^^^^^^^^^^",
"^^^^^^^^^^^^^^^vM!~2zILLJ3----ew%ew%eew~~W~-=A~Gbq^^vnq^^^^^^^^^^^^^^^",
"^^^^^^^^^^^^^^^vM!~2gRRRJ3---<e%we%wee$~Q~2##~~VvqqvMVmq^^^^^^^^^^^^^^",
"^^^^^^^^^^^^^^^vM!~23JLLl2w--<e$ww%wewS~~4==$~!VvvvVZZVvq^^^^^^^^^^^^^",
"^^^^^^^^^^^^^^^vM!~233gh33---ew%ww%eew~~42##A~!VmmCG~GZmq^^^^^^^^^^^^^",
"^^^^^^^^^^^^^^^vM!~3333432---ew%ew%eew~43===~~ECCZG~-~EMv^^^^^^^^^^^^^",
"^^^^^^^^^^^^^^^vM!~r33323,--<e%we%weww44-==#~!ZZZG~,-~!Mv^^^^^^^^^^^^^",
"^^^^^^^^^^^^^^^qm!~i3333322,weiiw%eew342===~~EZZE~8-#~!Mv^^^^^^^^^^^^^",
"^^^^^^^^^^^^^^^qbC~~32><33fg4weerree344-===~!ZZZ!~-Xo~!Mv^^^^^^^^^^^^^",
"^^^^^^^^^^^^^^^qvV!~u<>>>23fg4eeeieu44,====~!ZZ!~,oXA~Zmq^^^^^^^^^^^^^",
"^^^^^^^^^^^^^qq0iSH~~<>>t<324ggeeeu343====~~EZ!~4&oO~!Cvq^^^^^^^^^^^^^",
"^^^^^^^^^^^^q0glzzJzgi<;yy<<<4gg4e334--===~!EG~42ooo~!mv^^^^^^^^^^^^^^",
"^^^^^^^^^^^qiNBLTBuzlgw,o#5ty23fg4342-====~!G~33##oA~Cbq^^^^^^^^^^^^^^",
"^^^^^^^^^^04BJIIzz37<#-r=#>:;=2233342--==~HW~33-#O#~!Vv^^^^^^^^^^^^^^^",
"^^^^^^^^^04Nf4f,fhhs2##22+;;##<<2344fgggga~~33,-#=#~!mv^^^^^^^^^^^^^^^",
"^^^^^^^^00fxzJJ2.o-2g=o###-O#:>>>>4444ffff4332===-A~Cbq^^^^^^^^^^^^^^^",
"^^^^^^^^94JlfNj3 @#-1o+#O-&2o+>5<k34443333333oo##=~!Vv^^^^^^^^^^^^^^^^",
"^^^^^^^944ggfcch3,@##+o@  &,o..+##-433333333#ooooS~Zmv^^^^^^^^^^^^^^^^",
"^^^^^^^6,4dxczhzf3-Oo@.   &*Xoo=o==4333333,#oooo~~CVv^^^^^^^^^^^^^^^^^",
"^^^^^^6ooo4g44dgl3oO@+OO@#*&XX.+oo2333333-#o##o~!ZVv^^^^^^^^^^^^^^^^^^",
"^^^^^96ooo%2<<<4d43ooo#+O**&X.   +7#-#.O  ...O~GZMv^^^^^^^^^^^^^^^^^^^",
"^^^^^9,+-=+O#+-<22-=@@o++o&&.    O+@@ +#####-d2Smvq^^^^^^^^^^^^^^^^^^^",
"^^^^04,4d,++O+##oo#o,-@oooO.=+-=o++..o++++##+-g20q^^^^^^^^^^^^^^^^^^^^",
"^^^qrghggggglgllgzzggggdfzzgff432<oo=-=#-#++++2f20q^^^^^^^^^^^^^^^^^^^",
"^^q0gcxzg44JJgJllJzlllfhlzJJxxJzzzfd432,=<=#+++2f30^^^^^^^^^^^^^^^^^^^",
"^^03zccJl44g44zJgzlffff4hzJKKPUUPPxlhgh423<=+#+#3g90^^^^^^^^^^^^^^^^^^",
"^0<Nzc~Jd-3l,2gllddgfhgd2xxJJKYYYYKJzllhgd3-o=-#<3f9^^^^^^^^^^^^^^^^^^",
"q<zl3hzz3o,f,.2hhllllf4-,hllzJKPUUPJzhhggd3<=<=-##29^^^^^^^^^^^^^^^^^^"
};
