/* XPM */
static char *__1[] = {
/* columns rows colors chars-per-pixel */
"40 52 36 1 ",
"  c #3A3319",
". c #453C15",
"X c #5D4E0E",
"o c #514512",
"O c #68570B",
"+ c #746107",
"@ c #7F6A04",
"# c #53472C",
"$ c #821600",
"% c #9A1808",
"& c #A2240C",
"* c #B03C13",
"= c #8B7300",
"- c #C65F1F",
"; c #CD6B23",
": c #D47727",
"> c #9A8500",
", c #A89600",
"< c #B7A800",
"1 c #C5B900",
"2 c #E28F2E",
"3 c #EA9B32",
"4 c #F1A736",
"5 c #D4CB00",
"6 c #E2DC00",
"7 c #F1EE2D",
"8 c #FFAF53",
"9 c #FFB962",
"0 c #FFC370",
"q c #FFCD7F",
"w c #FFD78D",
"e c #FEE19C",
"r c #FEEBAA",
"t c #FEF5B9",
"y c #FEFFC7",
"u c None",
/* pixels */
"uuuuuuuuuuuuuuuuuuuuuuuuu*uuuuuuuuuuuuuu",
"uuuuuuuuuuuuuuuuuuuuuuuuuuuuuuuuuuuuuuuu",
"uuuuuuuuuuuuuuuuuuuu-uuuuuuuuuuuuuuuuuuu",
"uuuuuuuuuuuuuuuuuuu--uuuuuuuuuuuuuuuuuuu",
"uuuuuuuuuuuuuuuuuuu:uuuuuuuuuuuuuuuuuuuu",
"uuuuuuuuuuuuuuuuuuuuuuuuuuuuuuuuuuuuuuuu",
"uuuuuuuuuuuuuuuuuuuuuuuuuuuuuuuuuuuuuuuu",
"uuuuuuuuuuuuuuuuuuuuuuuuuuuuuuuuuuuuuuuu",
"uuuuuuuuuuuuuuuuuuuuu-:-uuuuuuuuuuuuuuuu",
"uuuuuuuuuuuuuuuuuuuu&44uuu-uuuuuuuuuuuuu",
"uuuuuuuuuuuuuuuuuuuu-q4uuu--uuuuuuuuuuuu",
"uuuuuuuuuuuuuuuuuuuuu-%uuuu-uuuuuuuuuuuu",
"uuuuuuuuuuuuuuu-uuuuu$uuuuuuuuuuuuuuuuuu",
"uuuuuuuuuuuuuu--uuuuuuuuuuuuuuuuuuuuuuuu",
"uuuuuuuuuuuuuu--uuuuuuuuuuuuuuuuuuuuuuuu",
"uuuuuuuuuuuuu-;2uuuuuuuuuuuuuuuuuuuuuuuu",
"uuuuuuuuuuuuu-2;uu--uuuuuuuuuuuuuuuuuuuu",
"uuuuuuuuuuuuu-2-$--uuuuuuuuuuuuuuuuuuuuu",
"uuuuuuuuuuuuuu-$-22uuuuuuuuuuuuuuuuuuuuu",
"uuuuuuuuuuuuuuu$-32uu:uuuuuuuuuuuuuuuuuu",
"uuuuuuuuuuuuuuuu$23:::uuuuuuuuuuuuuuuuuu",
"uuuuuuuuuuuuuuuuu-qq:::u::uuuuuuuuuuuuuu",
"uuuuuuuuuuuuuuuuu&ttq3q:003uuuuuuuuuuuuu",
"uuuuuuuuuuuuuuu&u-qtttq3303uuuuuuuuuuuuu",
"uuuuuuuuuuuuuuu&&-3tttt3-33uuuuuuuuuuuuu",
"uuuuuuuuuuuuuuuu&-3tttt3t-3uuuuuuuuuuuuu",
"uuuuuuuuuuuuuuuu&33tttttt3uuuuuuuuuuuuuu",
"uuuuuuuuu +,<55280yyyeqeye94=+  uuuuuuuu",
"uuuuu +,<577755280yyyqqeyye9775<,+  uuuu",
"uu X,577665115530ryyeqeyyye91566775,X uu",
"u +5766511<,;;303ryyeqeyyye9,<1156675+  ",
".=<765,------;we0wrryrweyyw4-----,567<=.",
".@<55-----:-;:wy00wwryrwew02-----;-55<@.",
".o@<5---:-:-;:4w400wwrr940824:4:---5<@o.",
" o.X@<<---:--;:8444qqq2:2224::---<<@X.o ",
"u.o.oo=<5<-:----------;;;;;-:-==>=o..o.u",
"u oooo.oO+<775<,1,1551,>>>><>+Ooo.oXo.uu",
"uu oXXo.....oXXXOOOOOOOOOXooooooooo.. uu",
"uuu oXo....oXXXXXXXXXooooooooXXooo.. uuu",
"uuuu oXo.ooXOOOOOXXoooooXXXooXXoo.. uuuu",
"uuuuu .ooooO++++OOXo.oXOOOXXoooo. uuuuuu",
"uuuuuu  .ooX+=>=OOXoooO+++OXoo.  uuuuuuu",
"uuuuuuuu ..oXO+OXXooooXOOXoo.. uuuuuuuuu",
"uuuuuuu.o   ..ooo......ooo.    uuuuuuuuu",
"uuuuuu.O  uuuu            uuu   uuuuuuuu",
"uuuu XO  uuuuuuuuuuuuu .o.uuuu . uuuuuuu",
"uuu Xo uuuuuuuuuuuuuuuu.Oouuuu ..uuuuuuu",
"uu.+# uuuuuuuuuuuuuuuuuuuuuuuuu ..uuuuuu",
"u +#.uuuuuuuuuuuuuuuuuuuuuuuuuu .o.uuuuu",
"uu  uuuuuuuuuuuuuuuuuuuuuuuuuuuu .O uuuu",
"uuuuuuuuuuuuuuuuuuuuuuuuuuuuuuuu .o@ uuu",
"uuuuuuuuuuuuuuuuuuuuuuuuuuuuuuuuu .oouuu"
};
