/* XPM */
static char *torch1_1[] = {
/* columns rows colors chars-per-pixel */
"16 86 36 1 ",
"  c gray15",
". c #322D22",
"X c gray20",
"o c #3A3A3A",
"O c #453F2A",
"+ c #514512",
"@ c #746107",
"# c #53472C",
"$ c #604C33",
"% c #6D5536",
"& c #7B5C3C",
"* c #434343",
"= c #4E4E4E",
"- c gray34",
"; c gray39",
": c gray43",
"> c #777777",
", c #BE541B",
"< c #8C5637",
"1 c #CD6B23",
"2 c #D47727",
"3 c #976E45",
"4 c #AD7F4E",
"5 c #9A8500",
"6 c #A89600",
"7 c #F1A736",
"8 c #E2DC00",
"9 c #B78C58",
"0 c #FFAF53",
"q c #C49A69",
"w c #FFC370",
"e c #939393",
"r c #D5AE80",
"t c #FFD78D",
"y c #FEFFC7",
"u c None",
/* pixels */
"uuuuuuuuuuuuuuuu",
"uuuuuuuuuuuuuuuu",
"uuuuuuuuuuuuuuuu",
"uuuuuuuuuuuuuuuu",
"uuuuuuuuuuuuuuuu",
"uuuuuuuuuuuuuuuu",
"uuuuuuuuuuuuuuuu",
"uuuuuuuuuuuuuuuu",
"uuuuuuuuuuuuuuuu",
"uuuuuuuuu7tuuuuu",
"uuuuuuuuuty7uuuu",
"uuuuuuu7utt7uuuu",
"uuuuuu7t77t7uuuu",
"uuuuu7tytt7uuuuu",
"uuuuu7yytyt7uuuu",
"uuuuu7yytyt7uuuu",
"uuuuuutytytuuuuu",
"uuuuuu7ttt7uuuuu",
"uuuuuutytt77uuuu",
"uuuuuutyytt7uuuu",
"uuuuuutyytyt7uuu",
",uuuu7tyyyyt7uuu",
"01uu7yyyyyytuuuu",
"1euutyeeeyy7ueuu",
"u>u1yt>>>yt71>uu",
"u;*7tw;;;0722;uu",
"u---;;---;;--*uu",
"uu=*72===2w*=uuu",
"uu**72***27**uuu",
"uuuo<2ooo2&ouuuu",
"uuu*o2XXX2X*uuuu",
"uuuu;>e>;>;uuuuu",
"uuuu*;:;*;-uuuuu",
"uuuuuu4rquuuuuuu",
"uuuuuu4q9uuuuuuu",
"uuuuuu494uuuuuuu",
"uuuuuu393uuuuuuu",
"uuuuuu33&uuuuuuu",
"uuuuu@686@uuuuuu",
"uuuuu+@5@+uuuuuu",
"uuuuuu###uuuuuuu",
"uuuuuu$$$uuuuuuu",
"uuuuuu%&%uuuuuuu",
"uuuuuu$&$uuuuuuu",
"uuuuuu$%%uuuuuuu",
"uuuuuu#%$uuuuuuu",
"uuuuuu#$$uuuuuuu",
"uuuuuu#%#uuuuuuu",
"uuuuuu#$#uuuuuuu",
"uuuuuu#$Ouuuuuuu",
"uuuuuu#$Ouuuuuuu",
"uuuuuu##Ouuuuuuu",
"uuuuuu#$Ouuuuuuu",
"uuuuuuO#Ouuuuuuu",
"uuuuuuO#Ouuuuuuu",
"uuuuuuO#Ouuuuuuu",
"uuuuuuO#Ouuuuuuu",
"uuuuuuOOOuuuuuuu",
"uuuuuuO#Ouuuuuuu",
"uuuuuuOOOuuuuuuu",
"uuuuuuO#Ouuuuuuu",
"uuuuuuO#Ouuuuuuu",
"uuuuuuO#Ouuuuuuu",
"uuuuuuO#Ouuuuuuu",
"uuuuuuO#Ouuuuuuu",
"uuuuuuOOOuuuuuuu",
"uuuuuuOOOuuuuuuu",
"uuuuuuO#Ouuuuuuu",
"uuuuuuOOOuuuuuuu",
"uuuuuuO#Ouuuuuuu",
"uuuuuuO#Ouuuuuuu",
"uuuuuuO#Ouuuuuuu",
"uuuuuuO#Ouuuuuuu",
"uuuuuuO#Ouuuuuuu",
"uuuuuuOOOuuuuuuu",
"uuuuuuO#Ouuuuuuu",
"uuuuuuOOOuuuuuuu",
"uuuuuuO#Ouuuuuuu",
"uuuuuuOOXuuuuuuu",
"uuuuuuOOXuuuuuuu",
"uuuuuuOOOuuuuuuu",
"uuuuuuOOOuuuuuuu",
"uuuuuuOOXuuuuuuu",
"uuuuuuOXXuuuuuuu",
"uuuuuuOXXuuuuuuu",
"uuuuuu.  uuuuuuu"
};
