/* XPM */
static char *_9_3[] = {
/* columns rows colors chars-per-pixel */
"41 93 80 1 ",
"  c #131313",
". c gray9",
"X c #1B1B1B",
"o c gray12",
"O c #2F1F0F",
"+ c #1E371E",
"@ c #3B2713",
"# c #3A3319",
"$ c #232323",
"% c gray15",
"& c #282828",
"* c #282F28",
"= c #2B2E2D",
"- c #2C2C2C",
"; c #2C2C2D",
": c #2E2C2E",
"> c #322D22",
", c #223322",
"< c #273C27",
"1 c #263328",
"2 c #382D34",
"3 c #2C3031",
"4 c #2F3B3C",
"5 c #303032",
"6 c gray20",
"7 c #35353B",
"8 c #3A3A3A",
"9 c #453C15",
"0 c #423629",
"q c #4F3F2B",
"w c #5D4E0E",
"e c #514512",
"r c #68570B",
"t c #746107",
"y c #7F6A04",
"u c #5B4326",
"i c #53472C",
"p c #604C33",
"a c #6D5536",
"s c #3D3D43",
"d c #323E49",
"f c #2D4848",
"g c #344557",
"h c #334D66",
"j c #4E4E4E",
"k c #4B4B55",
"l c gray34",
"z c #555560",
"x c #5E5E6D",
"c c #676774",
"v c #821600",
"b c #9A1808",
"n c #A2240C",
"m c #B03C13",
"M c #8B7300",
"N c #C65F1F",
"B c #CD6B23",
"V c #D47727",
"C c #9A8500",
"Z c #A89600",
"A c #B7A800",
"S c #C5B900",
"D c #DB832B",
"F c #E28F2E",
"G c #EA9B32",
"H c #F1A736",
"J c #D4CB00",
"K c #E2DC00",
"L c #F1EE2D",
"P c #FFAF53",
"I c #FFB962",
"U c #FFC370",
"Y c #FFCD7F",
"T c #D5AE80",
"R c #FFD78D",
"E c #FEE19C",
"W c #FEEBAA",
"Q c #FEF5B9",
"! c #FEFFC7",
"~ c None",
/* pixels */
"~~~~~~~~~~~~~~~~~~~~~~~~~~m~~~~~~~~~~~~~~",
"~~~~~~~~~~~~~~~~~~~~~~~~~~~~~~~~~~~~~~~~~",
"~~~~~~~~~~~~~~~~~~~~~N~~~~~~~~~~~~~~~~~~~",
"~~~~~~~~~~~~~~~~~~~~NN~~~~~~~~~~~~~~~~~~~",
"~~~~~~~~~~~~~~~~~~~~V~~~~~~~~~~~~~~~~~~~~",
"~~~~~~~~~~~~~~~~~~~~~~~~~~~~~~~~~~~~~~~~~",
"~~~~~~~~~~~~~~~~~~~~~~~~~~~~~~~~~~~~~~~~~",
"~~~~~~~~~~~~~~~~~~~~~~~~~~~~~~~~~~~~~~~~~",
"~~~~~~~~~~~~~~~~~~~~~~NVN~~~~~~~~~~~~~~~~",
"~~~~~~~~~~~~~~~~~~~~~nHH~~~N~~~~~~~~~~~~~",
"~~~~~~~~~~~~~~~~~~~~~NYH~~~NN~~~~~~~~~~~~",
"~~~~~~~~~~~~~~~~~~~~~~Nb~~~~N~~~~~~~~~~~~",
"~~~~~~~~~~~~~~~~N~~~~~v~~~~~~~~~~~~~~~~~~",
"~~~~~~~~~~~~~~~NN~~~~~~~~~~~~~~~~~~~~~~~~",
"~~~~~~~~~~~~~~~NN~~~~~~~~~~~~~~~~~~~~~~~~",
"~~~~~~~~~~~~~~NBF~~~~~~~~~~~~~~~~~~~~~~~~",
"~~~~~~~~~~~~~~NFB~~NN~~~~~~~~~~~~~~~~~~~~",
"~~~~~~~~~~~~~~NFNvNN~~~~~~~~~~~~~~~~~~~~~",
"~~~~~~~~~~~~~~~NvNFF~~~~~~~~~~~~~~~~~~~~~",
"~~~~~~~~~~~~~~~~vNGF~~V~~~~~~~~~~~~~~~~~~",
"~~~~~~~~~~~~~~~~~vFGVVV~~~~~~~~~~~~~~~~~~",
"~~~~~~~~~~~~~~~~~~NYYVVV~VV~~~~~~~~~~~~~~",
"~~~~~~~~~~~~~~~~~~nQQYGYVUUG~~~~~~~~~~~~~",
"~~~~~~~~~~~~~~~~n~NYQQQYGGUG~~~~~~~~~~~~~",
"~~~~~~~~~~~~~~~~nnNGQQQQGNGG~~~~~~~~~~~~~",
"~~~~~~~~~~~~~~~~~nNGQQQQGQNG~~~~~~~~~~~~~",
"~~~~~~~~~~~~~~~~~nGGQQQQQQG~~~~~~~~~~~~~~",
"~~~~~~~~~~~~~~~~FPU!!!EYE!EIH~~~~~~~~~~~~",
"~~~~~~~~~~~~~~~~FPU!!!YYE!!E~~~~~~~~~~~~~",
"~~~~~~~~~~~~~~~~GUW!!EYE!!!E~~~~~~~~~~~~~",
"~~~~~~~~~~~~~~~~UGY!!EYE!!!EI~~~~~~~~~~~~",
"~~~~~~~~~~~~~~~~~TRQQQQQQEEE~~~~~~~~~~~~~",
"~~~~~~tZAJLLLJJFPT!!!YYE!!EILLJAZt##~~~~~",
"~#tJLKKJSSAZBBGUGY!!EYE!!!EIZASSJKKLJt##~",
"9yAJJNNNNNVNBVR!UURRW!WRERUFNNNNNBNJJAy9~",
"#e9wyAANNNNDNNVPPYYYYYFVFFFNNVNNNAAyw9e#~",
"~#eeee9ertALLJAZSZSJJSZCCCCACtr##9ewe9~~~",
"~~~#ewwe99999ewwwrrrrrrrrrwe###999ee99#~~",
"~~~~#ewe9999ewwwwwwwwweeeeee####9ee99#~~~",
"~~~~~#ewe9eewrrrrrwweeeeewe9####9ee9#~~~~",
"~~~~~~#9eeeerttttrrwe9eeww9#####99#~~~~~~",
"~~~~~~~##9eewtMCMrrweeeewe9####99#~~~~~~~",
"~~~~~~~~~#99ewrtrwweeeeee9####99#~~~~~~~~",
"~~~~~~~~~~###99eee999999###@#99#~~~~~~~~~",
"~~~~~~~~~~~~$#############O###~~~~~~~~~~~",
"~~~~~~~~~~~~$&>>::3--%%$%$oXo&~~~~~~~~~~~",
"~~~~~~~~~~~~$O;=;>3>-:&$$$oXo=~~~~~~~~~~~",
"~~~~~~~~~~~~$%;=>=:::-&%$ooX$$~~~~~~~~~~~",
"~~~~~~~~~~~~$%->=:3:===;&$XXo&~~~~~~~~~~~",
"~~~~~~~~~~~~oO>->;=:3&=$$$XX$&~~~~~~~~~~~",
"~~~~~~~~~~~~o%%>;-;:;=&&$oXXo;~~~~~~~~~~~",
"~~~~~~~~~~~~&$->3&&::&;$$XoXo5~~~~~~~~~~~",
"~~~~~~~~~~~~--3:&&;3--&&$XXX&;~~~~~~~~~~~",
"~~~~~~~~~~~~--533333:&-%$$&o&2~~~~~~~~~~~",
"~~~~~~~~~~~~--:3587844611$$o$&~~~~~~~~~~~",
"~~~~~~~~~~~~-55377848643;$&o&&~~~~~~~~~~~",
"~~~~~~~~~~~~&537-84d4766-$$o$-~~~~~~~~~~~",
"~~~~~~~~~~~~&57356d4d3631$&o$-~~~~~~~~~~~",
"~~~~~~~~~~~~&-6764677753-$$X$5~~~~~~~~~~~",
"~~~~~~~~~~~~&-764782d571-o$X$5~~~~~~~~~~~",
"~~~~~~~~~~~~&-67687f3413-$oo&5~~~~~~~~~~~",
"~~~~~~~~~~~~&-464444-51--XoX&2~~~~~~~~~~~",
"~~~~~~~~~~~~&-646448=313&o$o&2~~~~~~~~~~~",
"~~~~~~~~~~~~&-764474133-$$$X$2~~~~~~~~~~~",
"~~~~~~~~~~~~11366474&3-;$%$o$-~~~~~~~~~~~",
"~~~~~~~~~~~~1-63463;$&&&&$oXo-~~~~~~~~~~~",
"~~~~~~~~~~~~&133663$%&&3&&$Xo2~~~~~~~~~~~",
"~~~~~~~~~~~~&16161$&5&3=&ooX$2~~~~~~~~~~~",
"~~~~~~~~~~~~&13333=533==&o$o$-~~~~~~~~~~~",
"~~~~~~~~~~~~11311=434-3-&$oXo-~~~~~~~~~~~",
"~~~~~~~~~~~~%111;31313-3&$$oo2~~~~~~~~~~~",
"~~~~~~~~~~~~%*113343=13=&$oXo&~~~~~~~~~~~",
"~~~~~~~~~~~~o$&1533413&-$o$oX&~~~~~~~~~~~",
"~~~~~~~~~~~~$$-1357511=$&$oXo&~~~~~~~~~~~",
"~~~~~~~~~~~~o*-3-433111&$$oXX$~~~~~~~~~~~",
"~~~~~~~~~~~~&13133335&&o&$oXo$~~~~~~~~~~~",
"~~~~~~~~~~~~$113175<+1=1$ooXX$~~~~~~~~~~~",
"~~~~~~~~~~~~&13155531--$&ooXo$~~~~~~~~~~~",
"~~~~~~~~~~~~$113-3<5+1&&$oXX.$~~~~~~~~~~~",
"~~~~~~~~~~~~o1-15<5-1=-$$oo..$~~~~~~~~~~~",
"~~~~~~~~~~~~o&&1+51<1&1&o.  Xo~~~~~~~~~~~",
"~~~~~~~~~~~&X$1-3-<-31-1$oX.oX&~~~~~~~~~~",
"~~~~~~~~~$&8&o1+-<-511%%XoX.X.43X~~~~~~~~",
"~~~~~~~-4o5kls6*11,+1&&$oXX..;f4X5$~~~~~~",
"~~~~~~$8s&o7kcks6$**$$oX...X&4;$o=8&~~~~~",
"~~~~~~5sj8&o7ilxzjpiq0#>>$oooXXX-8f&~~~~~",
"~~~~~~5sjzd>oo$>>>$>$$$ooXXX.oX=4f3o~~~~~",
"~~~~~~&5sghkq&oXooXXXXX..  Xo%;8s4-X~~~~~",
"~~~~~~o&3skapuq7&$oX.  ..Xoo&=4-&oXX~~~~~",
"~~~~~~~o$>#0iiiiiii88775==&&$oXX  X~~~~~~",
"~~~~~~~~o$$&%>5#;>>;>>&&&$oX..   ~~~~~~~~",
"~~~~~~~~~~Xoo$oooooooooXX..   X~~~~~~~~~~",
"~~~~~~~~~~~~~~ ...XX..     ~~~~~~~~~~~~~~"
};
