/* XPM */
static char *__0[] = {
/* columns rows colors chars-per-pixel */
"40 52 34 1 ",
"  c #3A3319",
". c #453C15",
"X c #514512",
"o c #68570B",
"O c #746107",
"+ c #7F6A04",
"@ c #53472C",
"# c #B03C13",
"$ c #BE541B",
"% c #8B7300",
"& c #C65F1F",
"* c #CD6B23",
"= c #D47727",
"- c #9A8500",
"; c #A89600",
": c #B7A800",
"> c #C5B900",
", c #DB832B",
"< c #E28F2E",
"1 c #EA9B32",
"2 c #F1A736",
"3 c #D4CB00",
"4 c #E2DC00",
"5 c #F1EE2D",
"6 c #FFAF53",
"7 c #FFB962",
"8 c #FFC370",
"9 c #FFCD7F",
"0 c #FFD78D",
"q c #FEE19C",
"w c #FEEBAA",
"e c #FEF5B9",
"r c #FEFFC7",
"t c None",
/* pixels */
"tttttttttttttttttttttttttttttttttttttttt",
"tttttttttttttttttttttttttttttttttttttttt",
"tttttttttttttttttttttttt&ttttttttttttttt",
"ttttttttttttttttttttttt##ttttttttttttttt",
"tttttttttttttttttttttttttttttttttttttttt",
"ttttttttttttttttttt&&ttttttttttttttttttt",
"tttttttttttttttttt&<tttttttttttttttttttt",
"tttttttttttttttttt&ttttttttttttttttttttt",
"tttttttttttttttttttt&=tttttttttttttttttt",
"ttttttttttttttttttt&8=tttttttttttttttttt",
"tttttttttttttttttt20q&tttt&ttttttttttttt",
"tttttttttttttttttt7r8tttttt&tttttttttttt",
"tttttttttttttttttt1q6&ttttt&*ttttttttttt",
"ttttttttttttttttttt<66&tttt&*ttttttttttt",
"tttttttttttttttttttt<8<tttt*tttttttttttt",
"ttttttttttttttttttt&*7<&tttttttttttttttt",
"ttttttttttttttttttt&7<=&tttttttttttttttt",
"tttttttttttttttttt&=<0=*tttttttttttttttt",
"ttttttttttttt&tt&=<<r0=&tttttttttttttttt",
"tttttttttttt&&tt&<7rr01&tttttttttttttttt",
"ttttttttttt&&tt&17rrrq1&tttttttttttttttt",
"ttttttttttt&2&t&1qrrq71&tt&ttttttttttttt",
"ttttttttttt&22t&17rq71=&t&&ttttttttttttt",
"tttttttttttt&2&117q011&tt&*ttttttttttttt",
"ttttttttttttt&1661071=&t&<&*tttttttttttt",
"ttttttttttttt&19966=1<1&&&&&tttttttttttt",
"tttttttttttttt19e969111<<1&ttttttttttttt",
"ttttttttt O;:319ew691q9qrq72%O  tttttttt",
"ttttt O;:3555328eew6199qrrq7553:;O  tttt",
"tt @;355443>>222wrwwq9qrrrq7>344553;@ tt",
"t O35443>>:;;202wrrrq9qrrrq7;:>>34453O  ",
".%:543;&&&&&&<9qrwwwrw0qrr02&&&&&;345:%.",
".+:33&&&&&&*&=2rrrr0wrw0q0721&&&&*&33:+.",
".X+:3&&*&=&,&=20rrr00ww70026&1&=&&&3:+X.",
" XX@+::&&=&,&&=6699999<6661&1$&&&::+@.X ",
"t.XXXo%--%&&*&&&&&&&&&*****&=&%--%X..X.t",
"t XXXXXooO%%---;>>>44>>;-;:>:-oXX.X@X.tt",
"tt X@XXXXXXX@@@@ooooooooo@XXXXXXXX.X. tt",
"ttt XXX...X@@@@@@@@oo@@@XXXXXXXXX..  ttt",
"tttt X@X.XX@oooo@@@@@X@@@@@XX@XXX.. tttt",
"ttttt .XXX@OOOOOo@@XX@oooo@X@XXX. tttttt",
"tttttt  .X@oO+%+o@@XX@OOOOo@XX.  ttttttt",
"tttttttt ..Xooooo@XXXXooo@XX.. ttttttttt",
"ttttttt.X   ..XXXXX...XXXX.    ttttttttt",
"tttttt.o  tttt            ttt   tttttttt",
"tttt @o  ttttttttttttt .X.tttt . ttttttt",
"ttt @X tttttttttttttttt.oXtttt ..ttttttt",
"tt.O@ ttttttttttttttttttttttttt ..tttttt",
"t O@.tttttttttttttttttttttttttt .X.ttttt",
"tt  tttttttttttttttttttttttttttt .o tttt",
"tttttttttttttttttttttttttttttttt .X+ ttt",
"ttttttttttttttttttttttttttttttttt .XXttt"
};
