/* XPM */
static char *__2[] = {
/* columns rows colors chars-per-pixel */
"40 52 39 1 ",
"  c #3A3319",
". c #453C15",
"X c #5D4E0E",
"o c #514512",
"O c #68570B",
"+ c #746107",
"@ c #7F6A04",
"# c #53472C",
"$ c #821600",
"% c #9A1808",
"& c #A2240C",
"* c #A9300F",
"= c #B03C13",
"- c #B74817",
"; c #8B7300",
": c #C65F1F",
"> c #CD6B23",
", c #D47727",
"< c #9A8500",
"1 c #A89600",
"2 c #B7A800",
"3 c #C5B900",
"4 c #DB832B",
"5 c #E28F2E",
"6 c #EA9B32",
"7 c #F1A736",
"8 c #D4CB00",
"9 c #E2DC00",
"0 c #F1EE2D",
"q c #FFAF53",
"w c #FFB962",
"e c #FFC370",
"r c #FFCD7F",
"t c #FFD78D",
"y c #FEE19C",
"u c #FEEBAA",
"i c #FEF5B9",
"p c #FEFFC7",
"a c None",
/* pixels */
"aaaaaaaaaaaaaaaaaaaa>aaaaaaaaaaaaaaaaaaa",
"aaaaaaaaaaaaaaaaaaa:aaaaaaaaaaaaaaaaaaaa",
"aaaaaaaaaaaaaaaaaaaaaaaaaaaaaaaaaaaaaaaa",
"aaaaaaaaaaaaaaaaaaaaaaaaaaaaaaaaaaaaaaaa",
"aaaaaaaaaaaaaaaaaaaaaaaaaaaaaaaaaaaaaaaa",
"aaaaaaaaaaaaaaaaaaaaaaaaaaaaaaaaaaaaaaaa",
"aaaaaaaaaaaaaaaaaaaaa=:=aa:aaaaaaaaaaaaa",
"aaaaaaaaaaaaaaaaaaaaa>=aaaaaaaaaaaaaaaaa",
"aaaaaaaaaaaaaaaaaaaaa>aaaaaaaaaaaaaaaaaa",
"aaaaaaaaaaaaaaaaa7aaa=aaaaaaaaaaaaaaaaaa",
"aaaaaaaaaaaaaaaa:,aaaaaaaaaaaaaaaaaaaaaa",
"aaaaaaaaaaaaaaaa::aaaaaaaaaaaaaaaaaaaaaa",
"aaaaaaaaaaaaaaaa:$aaaaaaaaaaaaaaaaaaaaaa",
"aaaaaaaaaaaaaaaa$:a%5:aaaaaaaaaaaaaaaaaa",
"aaaaaaaaaaaaaaaaa$,w5,:aaaaaaaaaaaaaaaaa",
"aaaaaaaaaaaaaaaaa,ww:::aaaaaaaaaaaaaaaaa",
"aaaaaaaaaaaaaaaaa5pp:aaaaaaaaaaaaaaaaaaa",
"aaaaaaaaaaaaaaaaa5wpt:aaaaaaaaaaaaaaaaaa",
"aaaaaaaaaaaaaaaaa:5wpt::a:4aaaaaaaaaaaaa",
"aaaaaaaaaaaaaaaaaa:5tww7:444aaaaaaaaaaaa",
"aaaaaaaaaaaaaaaaaaa:ptw7:w44aaaaaaaaaaaa",
"aaaaaaaaaaaaaaaaaa&:wptw:y74aaaaaaaaaaaa",
"aaaaaaaaaaaaaaaaaa&,ppptwywwaaaaaaaaaaaa",
"aaaaaaaaaaaaaaaaa&:rpppt7w7>aaaaaaaaaaaa",
"aaaaaaaaaaaaaaaa&-,ppptw66>4aaaaaaaaaaaa",
"aaaaaaaaaaaa4aaa*:rppptp6475aaaaaaaaaaaa",
"aaaaaaaaaaaa6>aa*rrrptww7w75aaaaaaaaaaaa",
"aaaaaaaaa +476>5qettpyr7wtw7;+  aaaaaaaa",
"aaaaa +12807eer5qqtitrw7tpyw00821+  aaaa",
"aa X1800998ettrtqtipyrqwtpyw38990081X aa",
"a +80998332etupqtippirqtypyw123389908+  ",
".;20981::::7turqtpiupuqwtyt7:::::18902;.",
".@288::::::>5q7qeipiupuwqtw5:::::>:882@.",
".o@28::>:,:4:57qeyiituuwqqq5:6:,:::82@o.",
" o.X@22::,:4::,qqrrrrr5,555::,:::22@X.o ",
"a.o.XO;2<;::>:::::::::>>>>>:,:;2<;o..o.a",
"a oooooXO<2881113138931<<233<@Ooo.oXo.aa",
"aa oXXo.ooXXXXXXOOO+++OOOoooooooooo.. aa",
"aaa oXo...oXXXXXXXXXXXooooooXXXooo.. aaa",
"aaaa oXooooXOOOOXXXXoXXXXXXoXXXoo.. aaaa",
"aaaaa .oooX+++++OXXXXXOOOOXXoooo. aaaaaa",
"aaaaaa  .ooO;<;+OOXoXX++++OXoo.  aaaaaaa",
"aaaaaaaa ..oO++OXooooXOOOXoo.. aaaaaaaaa",
"aaaaaaa.o   ..ooo......ooo.    aaaaaaaaa",
"aaaaaa.O  aaaa            aaa   aaaaaaaa",
"aaaa XO  aaaaaaaaaaaaa .o.aaaa . aaaaaaa",
"aaa Xo aaaaaaaaaaaaaaaa.Ooaaaa ..aaaaaaa",
"aa.+# aaaaaaaaaaaaaaaaaaaaaaaaa ..aaaaaa",
"a +#.aaaaaaaaaaaaaaaaaaaaaaaaaa .o.aaaaa",
"aa  aaaaaaaaaaaaaaaaaaaaaaaaaaaa .O aaaa",
"aaaaaaaaaaaaaaaaaaaaaaaaaaaaaaaa .o@ aaa",
"aaaaaaaaaaaaaaaaaaaaaaaaaaaaaaaaa .ooaaa"
};
