/* XPM */
static char *__3[] = {
/* columns rows colors chars-per-pixel */
"40 52 36 1 ",
"  c #3A3319",
". c #453C15",
"X c #5D4E0E",
"o c #514512",
"O c #68570B",
"+ c #746107",
"@ c #7F6A04",
"# c #53472C",
"$ c #9A1808",
"% c #A2240C",
"& c #B03C13",
"* c #8B7300",
"= c #C65F1F",
"- c #CD6B23",
"; c #D47727",
": c #9A8500",
"> c #A89600",
", c #B7A800",
"< c #C5B900",
"1 c #DB832B",
"2 c #E28F2E",
"3 c #EA9B32",
"4 c #F1A736",
"5 c #D4CB00",
"6 c #E2DC00",
"7 c #F1EE2D",
"8 c #FFAF53",
"9 c #FFB962",
"0 c #FFC370",
"q c #FFCD7F",
"w c #FFD78D",
"e c #FEE19C",
"r c #FEEBAA",
"t c #FEF5B9",
"y c #FEFFC7",
"u c None",
/* pixels */
"uuuuuuuuuuuuuuuuuuuuuuuuuuuuuuuuuuuuuuuu",
"uuuuuuuuuuuuuuuuuuuuuuuuuuuuuuuuuuuuuuuu",
"uuuuuuuuuuuuuuuuuuuuuuuuuuuuuuuuuuuuuuuu",
"uuuuuuuuuuuuuuuuuuuuuuu&uuuuuuuuuuuuuuuu",
"uuuuuuuuuuuuuuuuuuuuuu;=uuuuuuuuuuuuuuuu",
"uuuuuuuuuuuuuuuuuuuuuu=$uuuuuuuuuuuuuuuu",
"uuuuuuuuuuuuuuuuuuuuuu$uuuuuuuuuuuuuuuuu",
"uuuuuuuuuuuuuuuuu;3uuuuuuuuuuuuuuuuuuuuu",
"uuuuuuuuuuuuuuuu%=uuuuuuuuuuuuuuuuuuuuuu",
"uuuuuuuuuuuuuuuu%uuu==uuuuuuuuuuuuuuuuuu",
"uuuuuuuuuuuuuuuuuuu;3;uuuuuuuuuuuuuuuuuu",
"uuuuuuuuuuuuuuuuuu=393uuuuuuuuuuuuuuuuuu",
"uuuuuuuuuuuuuuuuuu;99=uuuuuuuuuuuuuuuuuu",
"uuuuuuuuuuuuuuuuuu;93uuuuuuuuuuuuuuuuuuu",
"uuuuuuuuuuuuuuuuuu;8q8uuuuuuu=uuuuuuuuuu",
"uuuuuuuuuuuuuuuuuuu=tq8%uuuu==uuuuuuuuuu",
"uuuuuuuuuuuuuuuuuuuqte0-%uuu3=uuuuuuuuuu",
"uuuuuuuuuuuuuuuuuuuqttq3%uu-83uuuuuuuuuu",
"uuuuuuuuuuuuuuuuuu%3ete3%uu-93uuuuuuuuuu",
"uuuuuuuuuuuuuuuuu%-ettq3uuu-3=uuuuuuuuuu",
"uuuuuuuuuuuuuuuuu%3tte3-uuu==uuuuuuuuuuu",
"uuuuuuuuuuuuuuuuu-3qtq3%uuu=uuuuuuuuuuuu",
"uuuuuuuuuuuuuuuu%33qtq3=%u==uuuuuuuuuuuu",
"uuuuuuuuuuuuu;uu;eeqee3;=%=1uuuuuuuuuuuu",
"uuuuuuuuuuuu;3u%;eteqee33;1q1uuuuuuuuuuu",
"uuuuuuuuuuuu39u-;eteqee00;qe4uuuuuuuuuuu",
"uuuuuuuuuuuu393;;3etet000qee1uuuuuuuuuuu",
"uuuuuuuuu +>9rww80yyyeq00ee0=+  uuuuuuuu",
"uuuuu +>,5779rrw80yyyqq00ee0775,>+  uuuu",
"uu X>577665<9rr900yyeq000qe9<566775>X uu",
"u +57665<<,>>9y090yyeq0eeeq9>,<<56675+  ",
".*,765>======2q040rryrweeyw4=====>567,*.",
".@,55=====;==;40440wryrwew92=====-=55,@.",
".o@,5===;=;==;49424wwrr9ww42=;=;===5,@o.",
" ooX:,,===;===;22224qq44422==;===,,@X.o ",
"u.o.X+*:>*=;==========-----=;=*::*o..o.u",
"u oooooO+:><>>:><><66<>::::>:+Ooo.o.o.uu",
"uu oXoo.oXOOO++@@@@@@@OOOOOOOooooo.o. uu",
"uuu ooo..oooXXOOOOO++OOXXooooXooooo. uuu",
"uuuu oooooooXXOOOXOOOOXXXXXoooooo.. uuuu",
"uuuuu .ooooXO+@+OXXXXXXOOOXXXooo. uuuuuu",
"uuuuuu  ..oXO+:+OOXXooXO@OXXoo.  uuuuuuu",
"uuuuuuuu ..oXO+OXooooooXXXoo.. uuuuuuuuu",
"uuuuuuu.o   ..ooo......ooo.    uuuuuuuuu",
"uuuuuu.O  uuuu            uuu   uuuuuuuu",
"uuuu XO  uuuuuuuuuuuuu .o.uuuu . uuuuuuu",
"uuu Xo uuuuuuuuuuuuuuuu.Oouuuu ..uuuuuuu",
"uu.+# uuuuuuuuuuuuuuuuuuuuuuuuu ..uuuuuu",
"u +#.uuuuuuuuuuuuuuuuuuuuuuuuuu .o.uuuuu",
"uu  uuuuuuuuuuuuuuuuuuuuuuuuuuuu .O uuuu",
"uuuuuuuuuuuuuuuuuuuuuuuuuuuuuuuu .o@ uuu",
"uuuuuuuuuuuuuuuuuuuuuuuuuuuuuuuuu .oouuu"
};
