/* XPM */
static char *__2[] = {
/* columns rows colors chars-per-pixel */
"89 133 83 1 ",
"  c #1B1B1B",
". c gray12",
"X c gray15",
"o c #2C2C2C",
"O c #2F3F3F",
"+ c #303032",
"@ c gray20",
"# c #323737",
"$ c #35353B",
"% c #3A3A3A",
"& c #453F2A",
"* c #4F3F2B",
"= c #344D2D",
"- c #3D5935",
"; c #5D4E0E",
": c #68570B",
"> c #746107",
", c #7F6A04",
"< c #53472C",
"1 c #604C33",
"2 c #6D5536",
"3 c #7B5C3C",
"4 c #3D3D43",
"5 c #4B3447",
"6 c #563A4D",
"7 c #2E6767",
"8 c #367070",
"9 c #434343",
"0 c #4E4E4E",
"q c #4B4B55",
"w c gray34",
"e c #446343",
"r c #555560",
"t c #5E5E6D",
"y c gray43",
"u c #676774",
"i c #777777",
"p c #72727F",
"a c #A2240C",
"s c #A9300F",
"d c #B74817",
"f c #8B7300",
"g c #C65F1F",
"h c #866741",
"j c #976E45",
"k c #AD7F4E",
"l c #A89600",
"z c #B7A800",
"x c #C5B900",
"c c #E28F2E",
"v c #EA9B32",
"b c #F1A736",
"n c #E2DC00",
"m c #F1EE2D",
"M c #B78C58",
"N c #FFAF53",
"B c #C49A69",
"V c #FFB962",
"C c #FFC370",
"Z c #FFF667",
"A c #468787",
"S c #5789CD",
"D c #848484",
"F c #878795",
"G c #939393",
"H c #91919F",
"J c #94B08D",
"K c #86BBBB",
"L c #A2A2A2",
"P c #A5A5AE",
"I c #AEAEAE",
"U c #AFC8A8",
"Y c #FFD78D",
"T c #F4CAA7",
"R c #FEEBAA",
"E c #FEF5B9",
"W c #BCBCC7",
"Q c #C5C5C5",
"! c #CADDC4",
"~ c gainsboro",
"^ c #FEFFC7",
"/ c #CDCDE0",
"( c None",
/* pixels */
"(((((((((((((((((((((((((((((((((((((((((((((((((((((((((((((((((((((((((((((((((((((((((",
"(((((((((((((((((((((((((((((((((((((((((((((((((((((((((((((((((((((((((((((((((((((((((",
"(((((((((((((((((((((((((((((((((((((((((((((((((((((((((((((((((((((((((((((((((((((((((",
"((((((((((((((((g((((((((((((((((((((((((((((((((((((((((((((((((((((((((((((((((((((((((",
"((((((((((((((((cb(((((((((((((((((((((((((((((((((((((((((((((((((((((((((((((((((((((((",
"((((((((((((((((sc(((((((((((((((((((((@Xoo((((((((((((((((((((((((((((((((((((((((((((((",
"(((((((((((((((((s((((((((((((((((((((@%((X@((@Oq4@X(((((((((((((((((((((((((((((((((((((",
"(((((((((((((((((((((Nb(((((((((((((((%@((($($@o(((.X((((((((((((((((((((((((((((((((((((",
"((((((((((((((((((((((cd(((((((((((((((@9((4&%(((o(XX((((((((((((((((((((((((((((((((((((",
"((((((((((((((((((cc(((d((((((((((((((((((r9%1((((oX(((((((((((((((((((((((((((((((((((((",
"((((((((((((((((((bNb(((((((((((((((19qu3u1uyrq%(((((((((((((((((((((((((((((((c(((((((((",
"((((((((((((((((((NZNc(((((((((((((%qo(qq97ipp3q9%((((((((((((((((((((((((((((gg(((((((((",
"((((((((((((((((((cZZb(((((((((((q%o(((OX@qqr@hr9@Xo4X(((((((((((((((((((((((((((((((((((",
"(((((((((((((((((((NZb((((((((((r@(((.@X((49((@r9(((o@X(((((((((((((((((((cc(((((((((((((",
"((((((((((c(((((((ZEZb((((((((((9(%%(@X(($O@(((@r%((((X$(((((((((((((((((cN((((((((((((((",
"((((((((((cc((((dZE^c((((((((((r@@o%$4(((49(((((1qo((((@(((((((((((((((((c(((((((((((((((",
"((((((((((cN(((dvR^^E((((((((((9(+((4$((o0$(((((@%(X@((X$((((((((((((((((((cb((((((((((((",
"((((((((((NZv((dNE^^E((((((((((9(+(o4(XXXXX$((((@qXXXq(($(((((((((((((((((cRb((((((((((((",
"((((((((((NZv((dN^^^Nd(((((((((@(((.@o4pw9$@@r(((9@X(o9(@((((((((((((((((m^^c((((c(((((((",
"((((((((((cgv(((NE^^^vd((((((((Xw(X+.4AxFu9O9@q((q@((($(X((((((((((((((((Z^R((((((c((((((",
"((((((((((bcc(((vN^^^Nd(((((((((X$+X.A^~Apuq09@((w@((X((X((((((((((((((((N^Zc(((((cv(((((",
"((((((((((csc(((dNE^ENv((((((((((.+.$zYJfpw3u9q@(u9@(((X((((((((((((((((((NZZc((((cv(((((",
"((((((((((s(cc(dcNE^ENNd((((((((((.$rDMAppu3wwy9%p09%XX((((((((((((((((((((NRN((((v((((((",
"(((((bN(((((bcdcbN^^E^^b((b(((((((.r%$+%%9quLpi9wq@@o(((((((((((((((((((((cvZNc((((((((((",
"((((dco@$%&$$&$@+@ooo..o@%o.((((((.@9MP3pwq9uHL999((((((((((((((((((((((((cZNbc((((((((((",
"((((d(((cc(...........((((((((((((($9GL,7pfrwuW99((((((((((((((((((((((((cbN^bv((((((((((",
"(((((((bNb((((.......(((((((((((@9(9owrt$X%w0www((((+(((((((((((((g(c((cbNN^^bc((((((((((",
"((((((cNZN(((((...X.(((((((((((@7((ooXy$Xo%opq9w9(XXr@(((((((((((((cc((cNZ^^^Nc((((((((((",
"((((((bZZc((((((..X.(((((((((((@9X(r%<Go%$ry3$q0X(((q+((((((((((((cc((ccZ^^^^Nc((((((((((",
"((((((bZN(((((((..XX.((((((((((((..tlDL9%yGDw.9o.X(%+X((((((((((((cmc(ccc^^^ZNc((c(((((((",
"((((((bZEZ((((((.cXo.((((((((((((((qihq%ryk3<o@.(.XXX(((((((((((((cmm(cNb^^ZNbc(cc(((((((",
"(((((((c^EZd((((ccXooX((((((((((((($r3t:%7tro+%((((((((((((((((((((cmcNNZ^^NNc((cv(((((((",
"(((((((E^^Rvd(((Nc.X@o.((((((((((((o;%ooo1r9++%((((((((((((((((((((o@$%%$$$$++@ooo..o@%o.",
"(((((((E^^ENd((vZN..o+X((((((((((((.<tir%9<9+.(((((((((((((((((((((((((kFtrw+o......(((((",
"((((((dN^^^Nd((vZN..X%oX(((((((((((($9%$r%&+.(((((((((((((((((((((((cbct$+........(((((((",
"(((((dv^^^EN(((vNc..X+%+.(((((((((((.t:w%++..((((((((((((((((((((c((9mmd.......((((((((((",
"(((((dN^^^Nv(((cc(...oq$o%OqqwyFLVS;@%....+%+.%%@wuw((((((((((((cc(((mEc..(((((((((((((((",
"(((((vNE^ENd(((c(((..X4X@933hFx^^Lf3.@+.X+9+%&4rtfBY^Wp09(((((((c((&2sc..((((((((((((((((",
"((((dNNE^ENcd(cc((((..X@+%wuhHQ~lHqF9.9===1+4wrqtrFW~n/LFwq9((((+$tr%+a.@(((c((((((((((((",
"((((b^^E^^Nbcdcb((((...XXo$49uhiuLy9;t++.&+174<4qqr,p3hfpAfpwq@Xrhw@+X..((((cc(((((((((((",
"o@$%%$&$$@@+ooo..o@%o......@@9wwyWw*99+<-3u%%=44&<4$99qrryHFw0Xtjq+=X..(((((cc(((((((((((",
"((((....XXoo.XX..((((((....oo@@0Gf9%%%%9q99q%444@%++oo%9e3ww9X%9%++X..((((((Nv(((((((((((",
"((((((......Xo..(((((((((((oo0FBkr<9%;=rrqufh9r4ooX...Xo$%e9X+O&&+X..(((cc((vN(((((((((((",
"((((((((((.XXo..((((((((((((pCTIrr9q4=%0rwpFAp;+X........X+++++=+o..(((((ccacN(((((((((((",
"((((((((((..XXo.(((((((((((yQ^I3r<94O<O=upAJLLF%...........+o@oo...((((((NNcac(((((((((((",
"(((((((((((..X&o.(((((((((%tGf3r994%44##6pH!^Qfw...X..(((((.......((((b((NNca((((((((((((",
"((((((((((((..o$o.(((((((+%:09q9955$++$4qqAUnGwy@X.o.(((((((((((((((((bbbNNa(((((((((((((",
"((((((((((((..o$0oo((((o3*@%5<<%4qO+%+=5=qqApwqp+Xo..(((((((((((((bb(bbbEEc((((((((((((((",
"(((((((((((((..o1y0o(o902@.+5%$56O+o=o+=%<Oewq9q%o..(((((((((((((NRRbENE^^d((((((((((((((",
"((((((((((((((..o3yqorrqoX.X+++oo+9$6=++$=$=q9%q..X9%((((((((((((NRNNE^^^Ec(d((((((((((((",
"((((((((((((((..or%.0q9oXX..XXo9r<$%;O5+X+===q$..X99%((((((o@$%%$$$$++@ooo..o@%o.((((((((",
"(((((((((((((((..&.o@oXXX....+%&&+OO%q%<+XX.....XX999%(((((((((9@$9%$oXoXX.((((((((((((((",
"(((((((((((((((..oooXXX....(.&&++%%$$$+%=++X.....X@990((((((((%=&ooXX.....(((((((((((((((",
"((((((((((((((((..XXXX....((.<$%%5%&&$==o*X..((...X9900((((((%;@X.....(((((((((((((((((((",
"((((((((((((((((..XX....((((o&4&%%%<%%$=+oX.(((....@000((((%9:&o...((((((((((((((((((((((",
"(((((((((((((((((....(((((((+$%&9<q9%%=*<%X@((((...X%ww9((ut8%o...(((((((((((((((((((((((",
"(((((((((((((((((((((((((((O@&%%9<<9%<%%;09((((((...@9uuiLu04o...((((((((((((((((((((((((",
"(((((((((((((((((((((((((((@%&&9<6%%%9<<ruq%((((((..X%0HK74+o...(((((((((((((((((((((((((",
"((((((((((((((((((((((((((($%%%9q9%%%<;ru20%#(((((...X9u4&oo...((((((((((((((((((((((((((",
"((((((((((((((((((((((((((@%%%%9q%%%&%q0>299%((((((...X=o.o..((((((((((((((((((((((((((((",
"(((((((((((((((((((((((((@$%%%%$$%%%%%%<0t2%##((((((........(((((((((((((((((((((((((((((",
"((((((((((((((((((((((((($%%%%%909%%%<&%02<%##(((((((......((((((((((((((((((((((((((((((",
"((((((((((((((((((((((((($%%%%%%%%<%%%%%<09%%#((((((((...((((((((((((((((((((((((((((((((",
"((((((((((((((((((((((((o%%%%%%%%%%%%%%<99<9%#(((((((((((((((((((((((((((((((((((((((((((",
"((((((((((((((((((((((((o%445&%%%%%%$%%90999%##((((((((((((((((((((((((((((((((((((((((((",
"((((((((((((((((((((((((+%%O5&O%%%$$$%%q9<99%##((((((((((((((((((((((((((((((((((((((((((",
"((((((((((((((((((((((((+%<$$O%%%$$$+%909&99%#o((((((((((((((((((((((((((((((((((((((((((",
"(((((((((((((((((((((((o+%%$++$$$$+++%90%%$$@oo((((((((((((((((((((((((((((((((((((((((((",
"(((((((((((((((((((((((o+%&$+X$$++oo$%0q%%$$+o(((((((((((((((((((((((((((((((((((((((((((",
"(((((((((((((((((((((((o$%&$+Xo++oX+$%09%%$$+o(((((((((((((((((((((((((((((((((((((((((((",
"(((((((((((((((((((((((+$%$$+oX+oXo+$%04%%$$@o(((((((((((((((((((((((((((((((((((((((((((",
"(((((((((((((((((((((((+$<$$+oooX.+$$%q9%%$+oo(((((((((((((((((((((((((((((((((((((((((((",
"(((((((((((((((((((((((@$%$$++oX.X+$%444%%$+oo(((((((((((((((((((((((((((((((((((((((((((",
"(((((((((((((((((((((((+$%%&$++X.o$$%994%%$+o((((((((((((((((((((((((((((((((((((((((((((",
"(((((((((((((((((((((((($%%$$++X.o$$%094%%$+o((((((((((((((((((((((((((((((((((((((((((((",
"((((((((((((((((((((((((+&O$$++X.o$$%994%%$+o((((((((((((((((((((((((((((((((((((((((((((",
"((((((((((((((((((((((((+%O$$+oX.o+$%094%%$o(((((((((((((((((((((((((((((((((((((((((((((",
"((((((((((((((((((((((((+%O$++oX.o+$%0q4%%$o(((((((((((((((((((((((((((((((((((((((((((((",
"((((((((((((((((((((((((+%%$++oX.o$$%0<6%%@((((((((((((((((((((((((((((((((((((((((((((((",
"(((((((((((((((((((((((((%O$++oX.oO59096%$+((((((((((((((((((((((((((((((((((((((((((((((",
"(((((((((((((((((((((((((%%$++oX.o$59096%$o((((((((((((((((((((((((((((((((((((((((((((((",
"((((((((((((((((((((((((($O@+ooX.o$%9;9%%$(((((((((((((((((((((((((((((((((((((((((((((((",
"(((((((((((((((((((((((((+O++ooXXo$&909%%@(((((((((((((((((((((((((((((((((((((((((((((((",
"(((((((((((((((((((((((((+%$+oXXXo$9q;9%%o(((((((((((((((((((((((((((((((((((((((((((((((",
"(((((((((((((((((((((((((@%O@+o.o+5%005%$((((((((((((((((((((((((((((((((((((((((((((((((",
"((((((((((((((((((((((((((%O++o.o+<9;69%$((((((((((((((((((((((((((((((((((((((((((((((((",
"(((((((((((((((((((((((((($O+oo.o+%9w69%@((((((((((((((((((((((((((((((((((((((((((((((((",
"(((((((((((((((((((((((((($%+oo.o+<q;9$%@((((((((((((((((((((((((((((((((((((((((((((((((",
"((((((((((((((((((((((((((%$ooo.o+<0w<9%(((((((((((((((((((((((((((((((((((((((((((((((((",
"((((((((((((((((((((((((((++ooXXo$9;r%%5(((((((((((((((((((((((((((((((((((((((((((((((((",
"((((((((((((((((((((((((((o+oXXXX%9rq9%$(((((((((((((((((((((((((((((((((((((((((((((((((",
"((((((((((((((((((((((((((o$+XXXX$9;q<%+(((((((((((((((((((((((((((((((((((((((((((((((((",
"((((((((((((((((((((((((((($$XXX.+<<qO<+@((((((((((((((((((((((((((((((((((((((((((((((((",
"((((((((((((((((((((((((((($+XXX.+&<;<&++((((((((((((((((((((((((((((((((((((((((((((((((",
"(((((((((((((((((((((((((((@+XXX.+o%O<$$$+(((((((((((((((((((((((((((((((((((((((((((((((",
"(((((((((((((((((((((((((((+oXXX.Xo<&$++$$@((((((((((((((((((((((((((((((((((((((((((((((",
"(((((((((((((((((((((((((((@ooXX..o$@o+o+$$((((((((((((((((((((((((((((((((((((((((((((((",
"((((((((((((((((((((((((((((ooXX..Xoooooo+$+(((((((((((((((((((((((((((((((((((((((((((((",
"((((((((((((((((((((((((((((ooXX...XXooooo++(((((((((((((((((((((((((((((((((((((((((((((",
"((((((((((((((((((((((((((((ooXXX...Xooooo++o((((((((((((((((((((((((((((((((((((((((((((",
"((((((((((((((((((((((((((((ooXXX..(.XoXooo++((((((((((((((((((((((((((((((((((((((((((((",
"((((((((((((((((((((((((((((ooXXX..(..XoXoo+@((((((((((((((((((((((((((((((((((((((((((((",
"((((((((((((((((((((((((((((XoXX...((.XXXXoo+o(((((((((((((((((((((((((((((((((((((((((((",
"(((((((((((((((((((((((((((((oXX...((X.XXXoooo(((((((((((((((((((((((((((((((((((((((((((",
"(((((((((((((((((((((((((((((oXX...(((..XXXooo(((((((((((((((((((((((((((((((((((((((((((",
"(((((((((((((((((((((((((((((oXX...((((..XXXoo(((((((((((((((((((((((((((((((((((((((((((",
"(((((((((((((((((((((((((((((oXX...((((...XXXo(((((((((((((((((((((((((((((((((((((((((((",
"(((((((((((((((((((((((((((((oXX..((((((..XXXoo((((((((((((((((((((((((((((((((((((((((((",
"(((((((((((((((((((((((((((((oXX..((((((X..XXo+((((((((((((((((((((((((((((((((((((((((((",
"(((((((((((((((((((((((((((((oXX..(((((((..XXX+((((((((((((((((((((((((((((((((((((((((((",
"(((((((((((((((((((((((((((((+oX..(((((((...XX+((((((((((((((((((((((((((((((((((((((((((",
"(((((((((((((((((((((((((((((@oXX..((((((X..XXXo(((((((((((((((((((((((((((((((((((((((((",
"((((((((((((((((((((((((((((X+oXX..(((((((...XX+(((((((((((((((((((((((((((((((((((((((((",
"((((((((((((((((((((((((((((@+XXX..(((((((...XXoo((((((((((((((((((((((((((((((((((((((((",
"(((((((((((((((((((((((((((++oXXX..XoXoXX....XX+o((((((((((((((((((((((((((((((((((((((((",
"(((((((((((((((((((((ooooo@+oXXX...XXXXoXo..XXX%@oo((((((((((((((((((((((((((((((((((((((",
"((((((((((((((((oo+q%++ooXXXXXXX....oXoXoX.o+XXoo+XXooX((((((((((((((((((((((((((((((((((",
"((((((((((((((o@&@++%%$$XXXX........XoXXXooooXXXoXo++++oX((((((((((((((((((((((((((((((((",
"((((((((((((o%<<+++X$%%%oX........X.XXoXX.o++o..XXXX+++@&%X((((((((((((((((((((((((((((((",
"(((((((((((%<<%&&+oX+X$+o.....XoXoXoX+4+%@+$$+XXX.XoX++$$&%X(((((((((((((((((((((((((((((",
"(((((((((((o%q<&4&&++X++X.XooXoXXXXXo4%.%o$X+oXX.X++44%$&+q (((((((((((((((((((((((((((((",
"(((((((((((o$%<<&44&&oXo+$&$+&+$+++$+++ + X XXo++$+4+%%$%%X (((((((((((((((((((((((((((((",
"(((((((((((X$$$q1<4&4$%44+444+4+4+$+$oX X X Xo4+%%%%%&&<o.X (((((((((((((((((((((((((((((",
"((((((((((((o$@&<2r1%&44&44444+4+++++++$+++&+4%%%5+4&<&o.X. (((((((((((((((((((((((((((((",
"(((((((((((X%X$+++&&q0q<44&4444+&+&++++++$44$555555+X ..X X (((((((((((((((((((((((((((((",
"(((((((((((X**Xo++o+o++$4$qqwrtu2q6%4455%4%4&oo      .   @. (((((((((((((((((((((((((((((",
"(((((((((((X&+<%oX+o+o+o+XoXoXX++o+o+ooX. . .          Xo.X (((((((((((((((((((((((((((((",
"(((((((((((XX$+*1+.Xo+ooooXoXoXX.X.X.... . .         XX..X. (((((((((((((((((((((((((((((",
"(((((((((((( X$@&+1<+.X.. .XoXoXX.X.X.. . .        .X . .  ((((((((((((((((((((((((((((((",
"(((((((((((((( XX@++444444+o .             .XX.          ((((((((((((((((((((((((((((((((",
"((((((((((((((((   Xoo+oo+o+&+$@4<w4+ooo+ . .          ((((((((((((((((((((((((((((((((((",
"((((((((((((((((((((    XXXoXoXX.X.X.X.. .         ((((((((((((((((((((((((((((((((((((((",
"((((((((((((((((((((((((((                   (((((((((((((((((((((((((((((((((((((((((((("
};
