/* XPM */
static char *__1[] = {
/* columns rows colors chars-per-pixel */
"63 76 44 1 ",
"  c gray6",
". c #131313",
"X c gray9",
"o c #1B1B1B",
"O c gray12",
"+ c #3A3319",
"@ c #232323",
"# c gray15",
"$ c #282828",
"% c #322D22",
"& c #392B27",
"* c #3D3626",
"= c #363228",
"- c #3A3A3A",
"; c #4A271B",
": c #453C15",
"> c #412921",
", c #423629",
"< c #453F2A",
"1 c #4F3F2B",
"2 c #514512",
"3 c #5B4326",
"4 c #53472C",
"5 c #674027",
"6 c #704628",
"7 c #7A4B2B",
"8 c #604C33",
"9 c #6D5536",
"0 c #7B5C3C",
"q c #4E4E4E",
"w c gray43",
"e c #9A1808",
"r c #814F30",
"t c #8C5637",
"y c #985D3F",
"u c #866741",
"i c #976E45",
"p c #A56446",
"a c #A0764A",
"s c #AD7F4E",
"d c #B78C58",
"f c #C18564",
"g c #C49A69",
"h c None",
/* pixels */
"hhhhhhhhhhhhhhhhhhhhhhhhh11hhh7i073h33hhhhhhhhhhhhhhhhhhhhhhhhh",
"hhhhhhhhhhhhhhhhhhhhhhhhhhh2hysdsi98r%hhhhhhhhhhhhhhhhhhhhhhhhh",
"hhhhhhhhhhhhhhhhhhhhhhhhyhp6+5ytyu674%hhhhhhhhhhhhhhhhhhhhhhhhh",
"hhhhhhhhhhhhhhhhhhhhhhphrr5:>O37763:%hryhhhhhhhhhhhhhhhhhhhhhhh",
"hhhhhhhhhhhhhhhhhhhhhp5tt5rO;++,13>%.hrryhhhhhhhhhhhhhhhhhhhhhh",
"hhhhhhhhhhhhhhhhhhhtpt55p5%O;+%;:3>%.Opyrhrrhhhhhhhhhhhhhhhhhhh",
"hhhhhhhhhhhhhhhhhhrhy5rr55%%3:%oo+;.%Oppypyhhhhhhhhhhhhhhhhhhhh",
"hhhhhhhhhhhhhhhhhhhrrrs9af%>Oe    eo%Osdat6yphhhhhhhhhhhhhhhhhh",
"hhhhhhhhhhhhhhhhh3r3addggddOo  %O  OO>>ddasdss0hhhhhhhhhhhhhhhh",
"hhhhhhhhhhhhhhhhhasssdddds%13 +3+O.O%%>iayttt765hhhhhhhhhhhhhhh",
"hhhhhhhhhhhhhhhh97657tasirO%1>%3%O>  O>3ait65663hhhhhhhhhhhhhhh",
"hhhhhhhhhhhhhh::$@$@&17r75% ,O%3%&O-OO36t3&OXX@@;hhhhhhhhhhhhhh",
"hhhhhhhhhhhhhh,%@OXXO,3563&%q rrrO%qO3655*X  .XX@:hhhhhhhhhhhhh",
"hhhhhhhhhhhhhh,@oX. X%35633-wq.r %wX,5655+X   .X@:hhhhhhhhhhhhh",
"hhhhhhhhhhhhh+$OX.  X@13553,%qwqwq >13553+     .X@hhhhhhhhhhhhh",
"hhhhhhhhhhhhh,$o.    O,3533&.w%>%w +33311%      XX@hhhhhhhhhhhh",
"hhhhhhhhhhhh:,@X      #*++%o  %%%  oO#&&%O .    .X@5hhhhhhhhhhh",
"hhhhhhhhhhh6,%oX   hh  XXX.        ....X  hh     .@>6hhhhhhhhhh",
"hhhhhhhhhh53=@oX. .hhh...              .Xhhhh     X@,:hhhhhhhhh",
"hhhhhhhhh,:1#oX   hhhhhO..             .@hhhhh    .o,7,hhhhhhhh",
"hhhhhhhhhr6=O.  .hhhhhOOX.             X@hhhhhhh   o>57hhhhhhhh",
"hhhhhhhh,r1#X   .hhhhh#@X.             XOhhhhhhh    O>7,hhhhhhh",
"hhhhhhhh66*o  ..hhhhhh%OX.             .X+hhhhhhh.  .@33hhhhhhh",
"hhhhhhh,3>O.  hhhhhhhh+OX.              X@hhhhhhhh   .#1,hhhhhh",
"hhhhhhh3>o.  hhhhhhhh%%OX               XO>hhhhhhhh   X&3hhhhhh",
"hhhhhh,1@.  hhhhhhhhh+#OX               .X%hhhhhhhhh.  @,,hhhhh",
"hhhhh,3>X  hhhhhhhhh%%@oX.              .XO>hhhhhhhhhh  >3hhhhh",
"hhhhh31@X hhhhhhhhhh%%@oX.               .O%hhhhhhhhhhh o+3hhhh",
"hhhh31%X hhhhhhhhhhh+$@X..       XX      .X@hhhhhhhhhhhh @+5hhh",
"hhh,3%X hhhhhhhhhhh%+%@X..       X       .XO+hhhhhhhhhhh .+38hh",
"hhh3=#X hhhhhhhhhhh%+%OX..      hh       .X#+hhhhhhhhhhhh.@38hh",
"hh,5%O hhhhhhhhhhhh+%#OX..     hhhh      .o#+hhhhhhhhhhhhh ;88h",
"hh1>#Xhhhhhhhhhhhhh++#oX..    hhhhh      .XO%hhhhhhhhhhhhh%998h",
"h%5%#hhhhhhhhhhhhhh+%@oX.    hhhhhh      .oO#hhhhhhhhhhhhh0035:",
"h338<hhhhhhhhhhhhhh+%@oX.    hhhhhhh     .ooOhhhhhhhhhhhh3<O1:$",
"h1;18<hhhhhhhhhhhhh+$#OX.   hhhhhhhh     .ooOhhhhhhhhhhhhOO+@:$",
"%;X.o1hhhhhhhhhhhhh;$$#o..  hhhhhhhh     .OO#hhhhhhhhhhhhohh :#",
"+O.h..hhhhhhhhhhhhh>$%%O..  hhhhhhhhh   .X#@#hhhhhhhhhhhhhhoX%h",
"+O.hh.hhhhhhhhhhhhh=$+>OX.  hhhhhhhhh   .O%#%hhhhhhhhhhhhhhoX#h",
"#.hhhhhhhhhhhhhhhhh+@+>OX. hhhhhhhhhhh  .@%%>hhhhhhhhhhhhho hXh",
"#..hhhhhhhhhhhhhhhh#o%#o.  hhhhhhhhhhh. .#%%>hhhhhhhhhhhhhhho h",
".h..hhhhhhhhhhhhhhho XoX ..hhhhhhhhhhhh .O$>=ohhhhhhhhhhhhh  hh",
"Xhhhhhhhhhhhhhhhhhh. ..  Xhhhhhhhhhhhhh  oO%+ohhhhhhhhhhhhhhhhh",
"h hhhhhhhhhhhhhhhhX  . X hhhhhhhhhhhhhhh .XO+ohhhhhhhhhhhhhhhhh",
"hhhhhhhhhhhhhhhhhh   . XXhhhhhhhhhhhhhhh  .X%ohhhhhhhhhhhhhhhhh",
"hhhhhhhhhhhhhhhhhh   .X hhhhhhhhhhhhhhhhh  .Xoohhhhhhhhhhhhhhhh",
"hhhhhhhhhhhhhhhhhh   .ohhhhhhhhhhhhhhhhhh  .XOoohhhhhhhhhhhhhhh",
"hhhhhhhhhhhhhhhhhh  .o hhhhhhhhhhhhhhhhhh   .ooohhhhhhhhhhhhhhh",
"hhhhhhhhhhhhhhhhhh  XXhhhhhhhhhhhhhhhhhhh   .ooohhhhhhhhhhhhhhh",
"hhhhhhhhhhhhhhhhhX  XXhhhhhhhhhhhhhhhhhhhh  .oohhhhhhhhhhhhhhhh",
"hhhhhhhhhhhhhhhhhXooXhhhhhhhhhhhhhhhhhhhhh   oohhhhhhhhhhhhhhhh",
"hhhhhhhhhhhhhhhhhXoXXXhhhhhhhhhhhhhhhhhhhh   ohhhhhhhhhhhhhhhhh",
"hhhhhhhhhhhhhhhhhXoXXXhhhhhhhhhhhhhhhhhhhh   ohhhhhhhhhhhhhhhhh",
"hhhhhhhhhhhhhhhh#XXXXXhhhhhhhhhhhhhhhhhhhh .Xoohhhhhhhhhhhhhhhh",
"hhhhhhhhhhhhhhhhXXXXXhhhhhhhhhhhhhhhhhhhhh Xo.oohhhhhhhhhhhhhhh",
"hhhhhhhhhhhhhhhhXXXXXhhhhhhhhhhhhhhhhhhhhhho@o ohhhhhhhhhhhhhhh",
"hhhhhhhhhhhhhhh#XXXXXhhhhhhhhhhhhhhhhhhhhhhOoo.ohhhhhhhhhhhhhhh",
"hhhhhhhhhhhhhhh#%XXXXXhhhhhhhhhhhhhhhhhhhhho#%oohhhhhhhhhhhhhhh",
"hhhhhhhhhhhhhhhh%XXXXhhhhhhhhhhhhhhhhhhhhhho@##o hhhhhhhhhhhhhh",
"hhhhhhhhhhhhhhh%XXXXXhhhhhhhhhhhhhhhhhhhhhho@o@o hhhhhhhhhhhhhh",
"hhhhhhhhhhhhhhh%#XXXXhhhhhhhhhhhhhhhhhhhhhhooXoo  hhhhhhhhhhhhh",
"hhhhhhhhhhhhhh%##XXXXXhhhhhhhhhhhhhhhhhhhhhoo X#  hhhhhhhhhhhhh",
"hhhhhhhhhhhhhh%XXXXXXXhhhhhhhhhhhhhhhhhhhh ooo ooXhhhhhhhhhhhhh",
"hhhhhhhhhhhhhhXXXXXXXXhhhhhhhhhhhhhhhhhhhhhoXooooXhhhhhhhhhhhhh",
"hhhhhhhhhhhhhh#XXXXXXXhhhhhhhhhhhhhhhhhhhhhXoooooXhhhhhhhhhhhhh",
"hhhhhhhhhhhhh%XXXXX##XXhhhhhhhhhhhhhhhhhhhXoooooooXhhhhhhhhhhhh",
"hhhhhhhhhhhhh%XXhXXh#Xhhhhhhhhhhhhhhhhhhh#ooooooooohhhhhhhhhhhh",
"hhhhhhhhhhhhhhXhhXhhhXhhhhhhhhhhhhhhhhhhh#oohhoohoohhhhhhhhhhhh",
"hhhhhhhhhhhhhhhhhhhhhhhhhhhhhhhhhhhhhhhhhhohhhohhhohhhhhhhhhhhh",
"hhhhhhhhhhhhhhhhhhhhhhhhhhhhhhhhhhhhhhhhhhhhhhhhhhhhhhhhhhhhhhh",
"hhhhhhhhhhhhhhhhhhhhhhhhhhhhhhhhhhhhhhhhhhhhhhhhhhhhhhhhhhhhhhh",
"hhhhhhhhhhhhhhhhhhhhhhhhhhhhhhhhhhhhhhhhhhhhhhhhhhhhhhhhhhhhhhh",
"hhhhhhhhhhhhhhhhhhhhhhhhhhhhhhhhhhhhhhhhhhhhhhhhhhhhhhhhhhhhhhh",
"hhhhhhhhhhhhhhhhhhhhhhhhhhhhhhhhhhhhhhhhhhhhhhhhhhhhhhhhhhhhhhh",
"hhhhhhhhhhhhhhhhhhhhhhhhhhhhhhhhhhhhhhhhhhhhhhhhhhhhhhhhhhhhhhh",
"hhhhhhhhhhhhhhhhhhhhhhhhhhhhhhhhhhhhhhhhhhhhhhhhhhhhhhhhhhhhhhh"
};
