/* XPM */
static char *__2[] = {
/* columns rows colors chars-per-pixel */
"63 76 42 1 ",
"  c gray6",
". c #131313",
"X c gray9",
"o c #1B1B1B",
"O c gray12",
"+ c #3A3319",
"@ c #232323",
"# c gray15",
"$ c #282828",
"% c #322D22",
"& c #3D3626",
"* c #363228",
"= c #4A271B",
"- c #453C15",
"; c #412921",
": c #423629",
"> c #453F2A",
", c #4F3F2B",
"< c #514512",
"1 c #5B4326",
"2 c #53472C",
"3 c #674027",
"4 c #704628",
"5 c #7A4B2B",
"6 c #604C33",
"7 c #6D5536",
"8 c #7B5C3C",
"9 c #434343",
"0 c gray43",
"q c #9A1808",
"w c #814F30",
"e c #8C5637",
"r c #985D3F",
"t c #866741",
"y c #976E45",
"u c #A56446",
"i c #A0764A",
"p c #AD7F4E",
"a c #B78C58",
"s c #C18564",
"d c #C49A69",
"f c None",
/* pixels */
"fffffffffffffffffffffffffffffffffffffffffffffffffffffffffffffff",
"fffffffffffffffffffffffffffffffffffffffffffffffffffffffffffffff",
"fffffffffffffffffffffffffffffffffffffffffffffffffffffffffffffff",
"fffffffffffffffffffffffff%fffffffff1wffffffffffffffffffffffffff",
"fffffffffffffffffffffffff;%1eppy4225%ffffffffffffffffffffffffff",
"fffffffffffffffffffffffff;1eyyrwer3;1ffffffffffffffffffffffffff",
"ffffffffffffffffffffffffuO1eeew1,4+X%wfwfffffffffffffffffffffff",
"fffffffffffffffffffffwfwwOO,43,+=1XX%y,,fffffffffffffffffffffff",
"ffffffffffffffffffwwfwww%%O;;===1%X%:,,3uwuufffffffffffffffffff",
"ffffffffffffffffffffwww%Oo;%oX%%.%+X,w,ywwfffffffffffffffffffff",
"fffffffffffffffffff588ypaoq    q OO ,,wy3uwwwffffffffffffffffff",
"ffffffffffffffff8aaapppd%,7 *O  :%% tyew3wwfffewfffffffffffffff",
"fffffffffffffff-4eeuuuiao%X:1%XX :% pwyuu,,eywfffffffffffffffff",
"ffffffffffffff--,34weeiyo,%11OX9   ,duuaaat,,wfffffffffffffffff",
"ffffffffffffff%%@o@#;rrw,wwwX%X0.  eiippassit,fffffffffffffffff",
"fffffffffffff$$ooXoo:www,owo% 0=+ +>5eeiyrere8fffffffffffffffff",
"fffffffffffff$@X  X#3w44,09090=0  O,153&%%%#:1<ffffffffffffffff",
"ffffffffffff+@o.  .%344430===00OOO+111=@X  .X$+-fffffffffffffff",
"fffffffffff1;o.    #:31,,.09009O %31,,%o     .O$-ffffffffffffff",
"ffffffffff-+@X    .o#%%#XX 111% @,-1,&o        o@-fffffffffffff",
"fffffffff&4,@.   . f XXX         o%;%O         .o#:ffffffffffff",
"fffffffff74&o.   .ff              XXX           .O6ffffffffffff",
"ffffffff25-@.   fffff                   +f.      o3ffffffffffff",
"ffffffff1&@.   fffffff.                #;ff      o:3fffffffffff",
"fffffff-&@X  .ffffffff                 o#fff    .##:,ffffffffff",
"ffffff-;OX   fffffffff                  o+fff   .#354ffffffffff",
"ffffff,@X   fffffffff                   .Offff..XO,44<fffffffff",
"fffff1&o  fffffffffff                   .o;fffffoX#-11fffffffff",
"ffff1%o. ffffffffffff                   ..#-ffffoXO+,1fffffffff",
"fff1>@. ffffffffffff                    ..O,fffffo.@,1fffffffff",
"fff1;o.fffffffffffff                     .o,fffffo.O,1fffffffff",
"ff21O ffffffffffffff  ..                 .o;ffffff.o:1fffffffff",
"ff2%o ffffffffffffff ....       ff      ..X+-ffffffX+4-ffffffff",
"f<11 ffffffffffffff ......      fff     ..X$1ffffffo@43ffffffff",
"f1;77ffffffffffffff..XX...     ffff     ...$1fffffffO43ffffffff",
"f1# 1#fffffffffffff.XXXX...  ffffff     ..X#*fffffffX44ffffffff",
"f:  # fffffffffffffXoooXX..  fffffff    ..X@+fffffffX45ffffffff",
":# f ffffffffffffffo@@@oX.. ffffffff    ..XO$ffffffff11:fffffff",
": fffffffffffffffff@:++@X.. ffffffff    ..XO$ffffffff411fffffff",
"#  ffffffffffffffff:,11*X.  ffffffff..   .Xo$+fffff5re41:ffffff",
"Xf  ffffffffffffff+,454;X. .fffffffff    .Xo#Offff5rrre4:ffffff",
" fffffffffffffffff-35w3#X. ffffffffff    ..o@Offf1O+41+:Xffffff",
"f ffffffffffffffff+3w51O.  fffffffffff   ..o@@fff# f4+ # ffffff",
"fffffffffffffffffff-31;X. fffffffffffff   .oO@fff ff+.  .ffffff",
"fffffffffffffffffff-,;O. ffffffffffff f   .XO@ffffff    fffffff",
"fffffffffffffffffff-;O.. ffffffffff       ..oofff,:X.f ffffffff",
"ffffffffffffffffff-+@X X fffffffff        ....offf..f.fffffffff",
"ffffffffffffffffff-%o. Xffffffffff            .ffffffffffffffff",
"ffffffffffffffffff=@.. Xfffffffffff          ffffffffffffffffff",
"fffffffffffffffff-;o.  .fffffffffff    ff   fffffffffffffffffff",
"fffffffffffffffff=OX.  .ffffffffffff    fffffffffffffffffffffff",
"fffffffffffffffff%o..  .ffffffffffff    fffffffffffffffffffffff",
"fffffffffffffffffOX.    fffffffffffff    ffffffffffffffffffffff",
"fffffffffffffffff.X.    fffffffffffff    ffffffffffffffffffffff",
"fffffffffffffffff oX   ffffffffffffff      ffffffffffffffffffff",
"fffffffffffffffff  X   ffffffffffffff      ffffffffffffffffffff",
"fffffffffffffffff. X. ffffffffffffffff      fffffffffffffffffff",
"fffffffffffffffffo o  ffffffffffffffff       ffffffffffffffffff",
"fffffffffffffffffO O ffffffffffffffffff       fffffffffffffffff",
"fffffffffffffffffO O ffffffffffffffffff       fffffffffffffffff",
"ffffffffffffffffO@   ffffffffffffffffff    ff  ffffffffffffffff",
"ffffffffffffffff@$   ffffffffffffffffff  f  f  ffffffffffffffff",
"ffffffffffffffff$:$ ffffffffffffffffffff ff f fffffffffffffffff",
"fffffffffffffff@%Oo fffffffffffffffffffffffffffffffffffffffffff",
"fffffffffffffff$%o  offffffffffffffffffffffffffffffffffffffffff",
"ffffffffffffffo%$  $ ffffffffffffffffffffffffffffffffffffffffff",
"ffffffffffffffo$   @ ffffffffffffffffffffffffffffffffffffffffff",
"ffffffffffffff$-    fffffffffffffffffffffffffffffffffffffffffff",
"fffffffffffff**%    fffffffffffffffffffffffffffffffffffffffffff",
"fffffffffffff%-oo$offffffffffffffffffffffffffffffffffffffffffff",
"ffffffffffff*%-ooooffffffffffffffffffffffffffffffffffffffffffff",
"fffffffffff*%-ooo$offffffffffffffffffffffffffffffffffffffffffff",
"fffffffff  *--$$oofffffffffffffffffffffffffffffffffffffffffffff",
"fffffffff *$$o$ooofffffffffffffffffffffffffffffffffffffffffffff",
"fffffffff $ff$$of  ffffffffffffffffffffffffffffffffffffffffffff",
"fffffffffffffffffffffffffffffffffffffffffffffffffffffffffffffff"
};
