/* XPM */
static char *__3[] = {
/* columns rows colors chars-per-pixel */
"63 76 44 1 ",
"  c gray6",
". c #131313",
"X c gray9",
"o c #1B1B1B",
"O c gray12",
"+ c #3A3319",
"@ c #232323",
"# c gray15",
"$ c #282828",
"% c #322D22",
"& c #392B27",
"* c #3D3626",
"= c #363228",
"- c #3A3A3A",
"; c #4A271B",
": c #453C15",
"> c #412921",
", c #423629",
"< c #453F2A",
"1 c #4F3F2B",
"2 c #514512",
"3 c #5B4326",
"4 c #53472C",
"5 c #674027",
"6 c #704628",
"7 c #7A4B2B",
"8 c #604C33",
"9 c #6D5536",
"0 c #7B5C3C",
"q c #4E4E4E",
"w c gray43",
"e c #9A1808",
"r c #814F30",
"t c #8C5637",
"y c #985D3F",
"u c #866741",
"i c #976E45",
"p c #A56446",
"a c #A0764A",
"s c #AD7F4E",
"d c #B78C58",
"f c #C18564",
"g c #C49A69",
"h c None",
/* pixels */
"hhhhhhhhhhhhhhhhhhhhhhhhh11hhh7i073h33hhhhhhhhhhhhhhhhhhhhhhhhh",
"hhhhhhhhhhhhhhhhhhhhhhhhhh32hysdsi98r%hhhhhhhhhhhhhhhhhhhhhhhhh",
"hhhhhhhhhhhhhhhhhhhhhhhhyhp6+5ytyu674%hhhhhhhhhhhhhhhhhhhhhhhhh",
"hhhhhhhhhhhhhhhhhhhhhhpprrr:>O37763:%hryhhhhhhhhhhhhhhhhhhhhhhh",
"hhhhhhhhhhhhhhhhhhhhhprr5rrO;++,13>%.hrryhhhhhhhhhhhhhhhhhhhhhh",
"hhhhhhhhhhhhhhhhhhhrpt55pr%O;+%;:3>%.Opyrhrrhhhhhhhhhhhhhhhhhhh",
"hhhhhhhhhhhhhhhhhhhhy5rrrr%%3:%oo+;.%Oppypyhhhhhhhhhhhhhhhhhhhh",
"hhhhhhhhhhhhhhhhhhhrrrs9af%>Oe    eo%Osdat6yphhhhhhhhhhhhhhhhhh",
"hhhhhhhhhhhhhhhhh3r3addggddOo  %O  OO>>ddasdss0hhhhhhhhhhhhhhhh",
"hhhhhhhhhhhhhhhhhasssdddds%13 +3+O.O%%>iayttt765hhhhhhhhhhhhhhh",
"hhhhhhhhhhhhhhh89r757tiairO%1>%3%O>  O>3ii0656rr4hhhhhhhhhhhhhh",
"hhhhhhhhhhhhhh::+#@#>17r75% ,O%3%&O-OO36t5=#X.#=3hhhhhhhhhhhhhh",
"hhhhhhhhhhhhhh>@@X..O%3663&%q rrrO%qO36551@o   X#:hhhhhhhhhhhhh",
"hhhhhhhhhhhhh@%@X. .X$35633-wq.r %wX,5653,OX    O=hhhhhhhhhhhhh",
"hhhhhhhhhhhhh%@oX   .@13553,%qwqwq >13551+X.    .@hhhhhhhhhhhhh",
"hhhhhhhhhhhh@%OX.   .o,3533&.w%>%w +3331,#.      X#hhhhhhhhhhhh",
"hhhhhhhhhhh<;$oX     .>1++%o  %%%  oO#&&%O       .#3hhhhhhhhhhh",
"hhhhhhhhhhh3+@X.   hh ..oXX        ...X.. hh      o*8hhhhhhhhhh",
"hhhhhhhhhh<<%o.   hhhh..                 hhhh     .#4hhhhhhhhhh",
"hhhhhhhhh<5+@X   hhhhhho.              .ohhhhh     O*3hhhhhhhhh",
"hhhhhhhhh61%X   hhhhhhOo.              .Ohhhhhhh   o17*hhhhhhhh",
"hhhhhhhh*6+OX   hhhhhhOo.              .ohhhhhhh   o*79hhhhhhhh",
"hhhhhhhh31@X  hhhhhhhhoX.              .X+hhhhhhh  .@13hhhhhhhh",
"hhhhhhh*:#X   hhhhhhhh%X.              ..Ohhhhhhhh  .@>3hhhhhhh",
"hhhhhh*3+o  .hhhhhhhh>#..               .o>hhhhhhhh  .@<3hhhhhh",
"hhhhhh<1#X hhhhhhhhhh+OX.               .o%hhhhhhhhh  X+3hhhhhh",
"hhhhh*3>X hhhhhhhhhh+%o..               .o@+hhhhhhhhh .@;3hhhhh",
"hhhhh2:O hhhhhhhhhhh+$X.                 .@%hhhhhhhhhh X@,3hhhh",
"hhhh*3% hhhhhhhhhhhh$OX.                 .O+hhhhhhhhhhh o$1,hhh",
"hhhh61#hhhhhhhhhhhhh%o..      h          .o@+hhhhhhhhhhhXO%3hhh",
"hhh*61Xhhhhhhhhhhhhh%o..      hh        ..oo+hhhhhhhhhhh X#1,hh",
"hhh2:> hhhhhhhhhhhh+$X.       hh       ...oo>hhhhhhhhhhhh.O13hh",
"hh*73:hhhhhhhhhhhhh%#X.      hhhhh    ..XXXo@hhhhhhhhhhhhh.,8hh",
"hh+31>hhhhhhhhhhhhh%@..      hhhhhh   ..Xooo@hhhhhhhhhhhhhh885h",
"hh33;1=hhhhhhhhhhhh%O.       hhhhhh.  ..o@@o@hhhhhhhhhhhhh884*h",
"h+3+X=1hhhhhhhhhhhh%O..     hhhhhhhh  .Xo@=#@hhhhhhhhhhhh11O%*h",
"h33X  ==hhhhhhhhhhh%o..     hhhhhhhh   X@=,%#hhhhhhhhhhhhXX .*h",
"h++  h  hhhhhhhhhhh$O..     hhhhhhhhh  X#=,+#hhhhhhhhhhhhXh  %h",
"ho+  h hhhhhhhhhhhh$$X..    hhhhhhhhh  X@,,+#hhhhhhhhhhhhhh  Xh",
"hho  hhhhhhhhhhhhhhO+o..   hhhhhhhhhhh  %36=ohhhhhhhhhhhhh XXXh",
"hh h hhhhhhhhhhhhhh%>O..   hhhhhhhhhhh. XO>= hhhhhhhhhhhhhXhX h",
"hhohh hhhhhhhhhhhhhh+OX.   hhhhhhhhhhhh   .o hhhhhhhhhhhhhhX hh",
"hhh hhhhhhhhhhhhhhhhOoo.  hhhhhhhhhhhhh      hhhhhhhhhhhhh  hhh",
"hhhhhhhhhhhhhhhhhhh+oX..  hhhhhhhhhhhhhh  .  hhhhhhhhhhhhhhhhhh",
"hhhhhhhhhhhhhhhhhhh@X. . hhhhhhhhhhhhhhh  .   hhhhhhhhhhhhhhhhh",
"hhhhhhhhhhhhhhhhhhho..   hhhhhhhhhhhhhhh X.   hhhhhhhhhhhhhhhhh",
"hhhhhhhhhhhhhhhhhhh..    hhhhhhhhhhhhhhhho.   hhhhhhhhhhhhhhhhh",
"hhhhhhhhhhhhhhhhhhX      hhhhhhhhhhhhhhhh o   hhhhhhhhhhhhhhhhh",
"hhhhhhhhhhhhhhhhhhX      hhhhhhhhhhhhhhhhhXX.  hhhhhhhhhhhhhhhh",
"hhhhhhhhhhhhhhhhhh. .   hhhhhhhhhhhhhhhhhh o.  hhhhhhhhhhhhhhhh",
"hhhhhhhhhhhhhhhhhh. .   hhhhhhhhhhhhhhhhhhoXX   hhhhhhhhhhhhhhh",
"hhhhhhhhhhhhhhhhhhh . . hhhhhhhhhhhhhhhhhhhXX  Xhhhhhhhhhhhhhhh",
"hhhhhhhhhhhhhhhhhhho    hhhhhhhhhhhhhhhhhhhoXooXhhhhhhhhhhhhhhh",
"hhhhhhhhhhhhhhhhhhho   hhhhhhhhhhhhhhhhhhhhXXXoXhhhhhhhhhhhhhhh",
"hhhhhhhhhhhhhhhhhhooX. hhhhhhhhhhhhhhhhhhhhXXXoXhhhhhhhhhhhhhhh",
"hhhhhhhhhhhhhhhhhoo.oX hhhhhhhhhhhhhhhhhhhhXXXXX#hhhhhhhhhhhhhh",
"hhhhhhhhhhhhhhhhho o@ohhhhhhhhhhhhhhhhhhhhhhXXXXXhhhhhhhhhhhhhh",
"hhhhhhhhhhhhhhhhho.ooOhhhhhhhhhhhhhhhhhhhhhhXXXXXhhhhhhhhhhhhhh",
"hhhhhhhhhhhhhhhh oo%#ohhhhhhhhhhhhhhhhhhhhhhXXXXX#hhhhhhhhhhhhh",
"hhhhhhhhhhhhhhhh o##@ohhhhhhhhhhhhhhhhhhhhhXXXXX%#hhhhhhhhhhhhh",
"hhhhhhhhhhhhhhhh o@o@ohhhhhhhhhhhhhhhhhhhhhhXXXX%hhhhhhhhhhhhhh",
"hhhhhhhhhhhhhhh  ooXoohhhhhhhhhhhhhhhhhhhhhhXXXXX%hhhhhhhhhhhhh",
"hhhhhhhhhhhhhhh  #X oohhhhhhhhhhhhhhhhhhhhhhXXXX#%hhhhhhhhhhhhh",
"hhhhhhhhhhhhhhhXoo ooo hhhhhhhhhhhhhhhhhhhhXXXXX##%hhhhhhhhhhhh",
"hhhhhhhhhhhhhhhXooooXohhhhhhhhhhhhhhhhhhhhhXXXXXXX%hhhhhhhhhhhh",
"hhhhhhhhhhhhhhhXoooooXhhhhhhhhhhhhhhhhhhhhhXXXXXXXXhhhhhhhhhhhh",
"hhhhhhhhhhhhhhXoooooooXhhhhhhhhhhhhhhhhhhhhXXXXXXX#hhhhhhhhhhhh",
"hhhhhhhhhhhhhhooooooooo#hhhhhhhhhhhhhhhhhhXX##XXXXX%hhhhhhhhhhh",
"hhhhhhhhhhhhhhoohoohhoo#hhhhhhhhhhhhhhhhhhhX#hXXhXX%hhhhhhhhhhh",
"hhhhhhhhhhhhhhohhhohhhohhhhhhhhhhhhhhhhhhhhXhhhXhhXhhhhhhhhhhhh",
"hhhhhhhhhhhhhhhhhhhhhhhhhhhhhhhhhhhhhhhhhhhhhhhhhhhhhhhhhhhhhhh",
"hhhhhhhhhhhhhhhhhhhhhhhhhhhhhhhhhhhhhhhhhhhhhhhhhhhhhhhhhhhhhhh",
"hhhhhhhhhhhhhhhhhhhhhhhhhhhhhhhhhhhhhhhhhhhhhhhhhhhhhhhhhhhhhhh",
"hhhhhhhhhhhhhhhhhhhhhhhhhhhhhhhhhhhhhhhhhhhhhhhhhhhhhhhhhhhhhhh",
"hhhhhhhhhhhhhhhhhhhhhhhhhhhhhhhhhhhhhhhhhhhhhhhhhhhhhhhhhhhhhhh",
"hhhhhhhhhhhhhhhhhhhhhhhhhhhhhhhhhhhhhhhhhhhhhhhhhhhhhhhhhhhhhhh"
};
