/* XPM */
static char *_0_0[] = {
/* columns rows colors chars-per-pixel */
"52 93 43 1 ",
"  c #131313",
". c gray9",
"X c #1B1B1B",
"o c gray12",
"O c #3A3319",
"+ c #232323",
"@ c gray15",
"# c #282828",
"$ c #322D22",
"% c #3D3626",
"& c #363228",
"* c #5C2103",
"= c #4A271B",
"- c #453C15",
"; c #412921",
": c #423629",
"> c #453F2A",
", c #4F3F2B",
"< c #5B4326",
"1 c #53472C",
"2 c #674027",
"3 c #704628",
"4 c #7A4B2B",
"5 c #604C33",
"6 c #6D5536",
"7 c #7B5C3C",
"8 c #777777",
"9 c #821600",
"0 c #9A1808",
"q c #A2240C",
"w c #814F30",
"e c #8C5637",
"r c #985D3F",
"t c #866741",
"y c #976E45",
"u c #A56446",
"i c #A0764A",
"p c #AD7F4E",
"a c #B47150",
"s c #B78C58",
"d c #848484",
"f c #A2A2A2",
"g c None",
/* pixels */
"ggggggggggggggggggggggg9gggqgggggggggggggggggggggggg",
"ggggggggggggggggggggg9ggggggg9gggggggggggggggggggggg",
"gggggggggggggggggggggggq9ggg9ggggggggggggggggggggggg",
"ggggggggggggggggggggggg9ggg9g9gggggggggggggggggggggg",
"ggggggggggggggggggggggggg9999ggggggggggggggggggggggg",
"gggggggggggggggggggggg9g9ggggggggggggggggggggggggggg",
"gggggggggggggggggggggggggg999ggggggggggggggggggggggg",
"gggggggggggggggggggggg9ggggg99gggggggggggggggggggggg",
"ggggggggggttggggggggggggt9991ggggggggggggggggggggggg",
"ggggggg<y5<ytgggggggOgOtpqs*911gtggggggggggggggggggg",
"ggggg1t+6:Xg gggggggyO19*q99p9Og5ggggggggggggggggggg",
"ggggg@<X2o.ggggggggg1O10@99*:0@t,ggggggggggggggggggg",
"ggggg>5 6. gg66ggggg$1ts1:9*1@O6$ggggggggggggggggggg",
"ggggg>+.o+O+6t+ggggg@OOO1d**81@5$ggggggggggggggggggg",
"ggggg$ .+&,,& gggggg@@@8f999f8O$$ggggggggggggggggggg",
"ggggg# .++.. gggggggO@@=8**998@Ogggggggggggggggggggg",
"ggggo. .. gggggggggggo @f8ffd. @gggggggggggggggggggg",
"ggggo  . ggggggggggggo@ OOO+O +@gggggggggggggggggggg",
"gggg.    gggggggggggg<4$ o.   $<Oggggggggggggggggggg",
"gggX.   gggggggggg<6tyr,X:@. +,t76<ggggggggggggggggg",
"gggo    gggggg7yt6tpytww:<@@;36epst6tyt6gggggggggggg",
"ggg.    gggg6typyrty766t<:O:,t63<tiiruuu6<gggggggggg",
"ggo.   ggg6tyrre43444443t6<t63<<<34weeruit<ggggggggg",
"ggo    gtpppire443<,:<33<,:<:<34<<<3434eua6<gggggggg",
"go.    <yipye4<,:&@+o+&<<2&<34<:$@@@&:<3wure6<gggggg",
"go     ,32<<:&@@+XX...o$:2$3<:@@+ooo+@&&24ysar3<gggg",
"oo     oo@@oXX.     ....oO#:O@o.......o@&2riiauewggg",
"o.      .            ...XXXXX...      .oo&<322wee2gg",
"o                    ....               .@o&5yssiw2g",
"g              g                       gg.&5rppiu2>&",
"ggg      ggggggg                     gggg&5riyre42&o",
"ggggggggggggggggg                   gespissi42:&&&@X",
"ggggggggggggggggg                   <& &spi5ooo@oXgg",
"gggggggggggggggggg .               g   yeyeeoXgggggg",
"ggggggggggggggggggg.      .       ggggge&e o ggggggg",
"gggggggggggggggggggo              gggg<:o&  gggggggg",
"ggggggggggggggggggg@              gggg< g g  ggggggg",
"gggggggggggggggggggO              gggg gg gg ggggggg",
"ggggggggggggggggggg@              gggg ggg ggggggggg",
"gggggggggggggggggggo              Oggggggggggggggggg",
"ggggggggggggggggggo.              .ggggggggggggggggg",
"ggggggggggggggggggo.              .ggggggggggggggggg",
"gggggggggggggggggg@X     . ..     .Ogggggggggggggggg",
"gggggggggggggggggg$o.             o$Oggggggggggggggg",
"ggggggggggggggggg:$@o             @,<:gggggggggggggg",
"gggggggggggggggg%<:$+.           o&<<,gggggggggggggg",
"gggggggggggggggg,<:&@.          .#:<<,gggggggggggggg",
"gggggggggggggggg<3,&#o.         o$,,<<gggggggggggggg",
"ggggggggggggggg%34,:$#.        .+$,,33:ggggggggggggg",
"ggggggggggggggg:34,:&$o.   g   o@:,<3w<ggggggggggggg",
"ggggggggggggggg,3w2,:&#.   gg  +@:,<4e4ggggggggggggg",
"ggggggggggggggg24e3,:&+.  ggg  o@$:<4w4ggggggggggggg",
"gggggggggggggg%2we32:$o   gggg .o$:<wewggggggggggggg",
"gggggggggggggg:3we42&#.  ggggg  X@:3wew:gggggggggggg",
"gggggggggggggg,3erw2&o.  ggggg  .@O3eew:gggggggggggg",
"gggggggggggggg,3erw3&o  gggggg   XO4ere,gggggggggggg",
"gggggggggggggg1wrre3#. gggggggg  X,eyre,gggggggggggg",
"gggggggggggggg1wyie3#  ggggggggg @2rire-gggggggggggg",
"gggggggggggggg,3yte2o gggggggggg $24rr3:gggggggggggg",
"gggggggggggggg,3we4,. gggggggggg @<2442Ogggggggggggg",
"ggggggggggggggg222<O gggggggggggg.O<<<Oggggggggggggg",
"ggggggggggggggg<,:O# gggggggggggg X#O==ggggggggggggg",
"gggggggggggggg-:#.X.ggggggggggggg Xo#&&-gggggggggggg",
"gggggggggggggg<&#  .ggggggggggggg ..o+&-gggggggggggg",
"gggggggggggggg<&+  .ggggggggggggg   X+#&-ggggggggggg",
"ggggggggggggg,<#o. .gggggggggggggg  .o+#-ggggggggggg",
"ggggggggggggg<,#X..Xgggggggggggggg   .+@&ggggggggggg",
"ggggggggggggg<,+..  gggggggggggggg   .oo&ggggggggggg",
"ggggggggggggg,Oo.   ggggggggggggggg  .Xo&ggggggggggg",
"ggggggggggggg,Oo.  gggggggggggggggg   .o@#gggggggggg",
"ggggggggggggg:#X   gggggggggggggggg   .oo@gggggggggg",
"gggggggggggggO+.   ggggggggggggggggg  ..X@gggggggggg",
"gggggggggggggOX.  gggggggggggggggggg    X+gggggggggg",
"ggggggggggggg#X   ggggggggggggggggggg   .Xgggggggggg",
"ggggggggggggg#.   ggggggggggggggggggg  X. gggggggggg",
"ggggggggggggOX.  gggggggggggggggggggg .XX. ggggggggg",
"gggggggggggg X   gggggggggggggggggggg.X XX ggggggggg",
"gggggggggggg .   ggggggggggggggggggg X+X X ggggggggg",
"ggggggggggg@.....ggggggggggggggggggg  XX X  gggggggg",
"ggggggggggg......ggggggggggggggggggg  @$XX  gggggggg",
"ggggggggggg......ggggggggggggggggggggX+@@X ggggggggg",
"gggggggggg@......ggggggggggggggggggggX+X+X ggggggggg",
"gggggggggg@$....gggggggggggggggggggggXX.XX ggggggggg",
"ggggggggggX$....gggggggggggggggggggggXX .. ggggggggg",
"ggggggggg $.....gggggggggggggggggggg XXX .Xggggggggg",
"ggggggggg ......gggggggggggggggggggg X.XXXXggggggggg",
"ggggggggg$.......ggggggggggggggggggg .XXXXX.gggggggg",
"ggggggggg$.......ggggggggggggggggggg XXXXXXXgggggggg",
"gggggggg ........gggggggggggggggggg@XXXXXXXXgggggggg",
"gggggggg ........gggggggggggggggggg@XX  XX Xgggggggg",
"gggggggg .....@@..ggggggggggggggggg X  gX  XXggggggg",
"ggggggg  ..g..g@.gggggggggggggggggg gg ggg gXggggggg",
"ggggggg g.gg.ggg.ggggggggggggggggggggggggggggggggggg"
};
