/* XPM */
static char *__0[] = {
/* columns rows colors chars-per-pixel */
"65 92 40 1 ",
"  c gray6",
". c #131313",
"X c gray9",
"o c #1B1B1B",
"O c gray12",
"+ c #3A3319",
"@ c #232323",
"# c gray15",
"$ c #282828",
"% c #322D22",
"& c #392B27",
"* c #3D3626",
"= c #363228",
"- c #4A271B",
"; c #453C15",
": c #412921",
"> c #423629",
", c #453F2A",
"< c #4F3F2B",
"1 c #514512",
"2 c #5B4326",
"3 c #53472C",
"4 c #674027",
"5 c #704628",
"6 c #7A4B2B",
"7 c #604C33",
"8 c #6D5536",
"9 c #7B5C3C",
"0 c #434343",
"q c gray43",
"w c #9A1808",
"e c #814F30",
"r c #8C5637",
"t c #985D3F",
"y c #976E45",
"u c #A56446",
"i c #A0764A",
"p c #AD7F4E",
"a c #B78C58",
"s c None",
/* pixels */
"sssssssssssssssssssssssssssssssssssssssssssssssssssssssssssssssss",
"sssssssssssssssssssssssssssssssssssssssssssssssssssssssssssssssss",
"sssssssssssssssssssssssssssssssssssssssssssssssssssssssssssssssss",
"sssssssssssssssssssssssssssssssssssssssssssssssssssssssssssssssss",
"sssssssssssssssssssssssssssssssssssssssssssssssssssssssssssssssss",
"sssssssssssssssssssssssssssssssssssssssssssssssssssssssssssssssss",
"sssssssssssssssssssssssssssssssssssssssssssssssssssssssssssssssss",
"sssssssssssssssssssssssssssssssssssssssssssssssssssssssssssssssss",
"sssssssssssssssssssssssssssssssssssssssssssssssssssssssssssssssss",
"sssssssssssssssssssssssssssssssssssssssssssssssssssssssssssssssss",
"sssssssssssssssssssssssssssssssssssssssssssssssssssssssssssssssss",
"sssssssssssssssssssssssssssssssssssssssssssssssssssssssssssssssss",
"sssssssssssssssssssssssssssssssssssssssssssssssssssssssssssssssss",
"sssssssssssssssssssssssssssssssssssssssssssssssssssssssssssssssss",
"sssssssssssssssssssssssssssssssssssssssssssssssssssssssssssssssss",
"sssssssssssssssssssssssssssssssssssssssssssssssssssssssssssssssss",
"sssssssssssssssssssssssssssssssssssssssssssssssssssssssssssssssss",
"sssssssssssssssssssssssssssssssssssssssssssssssssssssssssssssssss",
"sssssssssssssssssssssssssssssssssssssssssssssssssssssssssssssssss",
"sssssssssssssssssssssssssssssssssssssssssssssssssssssssssssssssss",
"sssssssssssssssssssssssssssss2ss4ee42s7%sssssssssssssssssssssssss",
"sssssssssssssssssssssssssssss%335yppr2%:sssssssssssssssssssssssss",
"ssssssssssssssssssssssssss<<s:4tretyyr2:sssssssssssssssssssssssss",
"ssssssssssssssssssssssssssss<X+5<2errr2Osssssssssssssssssssssssss",
"sssssssssssssssssssssssssey22XX2-+<45<OO2tsssssssssssssssssssssss",
"ssssssssssssssssssssssysueyy<%X%2---::O%2tstsssssssssssssssssssss",
"sssssssssssssssssssssssyeyer44+%.%%Xo%:opsttsttssssssssssssssssss",
"sssssssssssssssssssseyrteppee OO w    woair5tssssssssssssssssssss",
"sssssssssssssssssssstt8paaap4%> XX%2>X%oaaipapp9sssssssssssssssss",
"sssssssssssssssssstuyeapaaape+  0XO22%<oyitrrr654ssssssssssssssss",
"sssssssssssssssssssu2ipaaape4+ .qX%Xeee<eitr65524ssssssssssssssss",
"ssssssssssssssssss3ettpappe4<< +-q %oeo<ee6<$%>>%+sssssssssssssss",
"ssssssssssssssssss8eeerttre5<O  q-q0q0q<5e6%#XX X.sssssssssssssss",
"sssssssssssssssss22*%o.&<222;+OOOqq---q4555*X    X sssss,*% ss ss",
"ssssssssssssssss<%#OX.  O>><24% O0qq0q.<245>X    Xossss,OXssss ss",
"ssssssssssssssss*#X.    X#+><2<@ %222 X#;2>#.    X%ssssX   s#O ss",
"ssssssssssssss;<%o.      o#><<=.       XOOO#..  .X#Osss..X  O ss ",
"ssssssssssssss<*#X       .X#+%@.           .s.  ..#Ooo@.oo.  sOO ",
"sssssssssssss7<%o.        .o##o            ss..  XO####.X..     s",
"sssssssssssss5*O.    .sO.                 ssss.  XO#OOoX.oX.  sss",
"ssssssssssss5<%O.    ss@o                ssssss   XXXXX  .oo    s",
"sssssssssss<<*#X    ss@OX                ssssss           s . sss",
"sssssssssss;<%@o.  sss+o.                 ssssss       ssssssssss",
"sssssssssss4<%oX  ssss$o.                  ssssss   sssssssssssss",
"ssssssssss2<*@X. ssss-@o.                  ssssssssssssssssssssss",
"ssssssssss*&OX   ssss%OX.                   sssssssssssssssssssss",
"sssssssss;*O.   ssss;$o.                    sssssssssssssssssssss",
"sssssssss*$X   sssss>@X.                    sssssssssssssssssssss",
"sssssssss*O.  ssssss:O..                    .ssssssssssssssssssss",
"ssssssss<*o  ssssss++o..                     ssssssssssssssssssss",
"ssssssss2:o sssssss;+o.                  ..  ssssssssssssssssssss",
"sssssss;<O  sssssss=%o.       sss      ..... ssssssssssssssssssss",
"sssssss2*X ssssssss%+X.       sssss   ..XXXXX.sssssssssssssssssss",
"ssssss1*# sssssssss%%X.      ssssss   ..XO$$O.sssssssssssssssssss",
"ssssss*: ssssssssss%$X.  X   sssssss  .X@$=;<+sssssssssssssssssss",
"sssss+;3,ssssssssss%@X. $X   sssssss   X@=<25+sssssssssssssssssss",
"sssss:*,3+sssssssss%OX.2%.  ssssssss   X$<566;sssssssssssssssssss",
"sssss@*O%*sssssssss%o65<@   sssssssss  .%2665;sssssssssssssssssss",
"sssss@% .#sssssssss$5e5=X  ssssssssss   @<565;sssssssssssssssssss",
"ssssso% s.sssssssss=22<%.  sssssssssss  X=5e5+sssssssssssssssssss",
"ssssss@ sssssssssss=;=@o. ssssssssssss  .%<22=sssssssssssssssssss",
"sssssso .ssssssssss=%@X  ssssssssssssss .o@=;=sssssssssssssssssss",
"sssssss. ..ssssssss%@.   sssssssssssssss  X@%=sssssssssssssssssss",
"sssssss. sssssssss;%o.   sssssssssssssss   .@%sssssssssssssssssss",
"ssssssss  ssssssss+O.    sssssssssssssss   .o%;ssssssssssssssssss",
"sssssssssssssssss;@X.    sssssssssssssss    .O+ssssssssssssssssss",
"sssssssssssssssss+o     ssssssssssssssss    .X@;sssssssssssssssss",
"ssssssssssssssssso.     sssssssssssssssss     o+sssssssssssssssss",
"sssssssssssssssssOX.    sssssssssssssssss     .osssssssssssssssss",
"sssssssssssssssss.X.    sssssssssssssssss    .XOsssssssssssssssss",
"sssssssssssssssss oX   ssssssssssssssssss    .X.sssssssssssssssss",
"sssssssssssssssss  X   sssssssssssssssssss   Xo sssssssssssssssss",
"sssssssssssssssss. X. ssssssssssssssssssss   X  sssssssssssssssss",
"ssssssssssssssssso o  sssssssssssssssssssss .X .sssssssssssssssss",
"ssssssssssssssssoO O ssssssssssssssssssssss  o osssssssssssssssss",
"ssssssssssssssssoO O sssssssssssssssssssssss O Oossssssssssssssss",
"ssssssssssssssssO@   sssssssssssssssssssssss O Oossssssssssssssss",
"ssssssssssssssss@$   sssssssssssssssssssssss   @Ossssssssssssssss",
"ssssssssssssssss$>$ ssssssssssssssssssssssss   $@ssssssssssssssss",
"sssssssssssssss@%Oo sssssssssssssssssssssssss $>$ssssssssssssssss",
"sssssssssssssss$%o  ossssssssssssssssssssssss oO%@sssssssssssssss",
"sssssssssssssso%$  $ ssssssssssssssssssssssso  o%$sssssssssssssss",
"sssssssssssssso$   @ sssssssssssssssssssssss $  $%ossssssssssssss",
"ssssssssssssss$;    ssssssssssssssssssssssss @   $ossssssssssssss",
"sssssssssssss==%    sssssssssssssssssssssssss    ;$ssssssssssssss",
"sssssssssssss%;oo$ossssssssssssssssssssssssss    %==sssssssssssss",
"ssssssssssss=%;oooossssssssssssssssssssssssssso$oo;%sssssssssssss",
"sssssssssss=%;ooo$osssssssssssssssssssssssssssoooo;%=ssssssssssss",
"sssssssss  =;;$$oosssssssssssssssssssssssssssso$ooo;%=sssssssssss",
"sssssssss =$$o$ooosssssssssssssssssssssssssssssoo$$;;=  sssssssss",
"sssssssss $ss$$os  ssssssssssssssssssssssssssssooo$o$$= sssssssss",
"ssssssssssssssssssssssssssssssssssssssssssssss  so$$ss$ sssssssss"
};
