/* XPM */
static char *_[] = {
/* columns rows colors chars-per-pixel */
"56 110 35 1 ",
"  c #131313",
". c gray9",
"X c #1B1B1B",
"o c gray12",
"O c #3A3319",
"+ c #232323",
"@ c #282828",
"# c #2C2C2C",
"$ c #2E2C2E",
"% c #322D22",
"& c #392B27",
"* c #303032",
"= c #35353B",
"- c #3A3A3A",
"; c #423629",
": c #4F3F2B",
"> c #5B4326",
", c #604C33",
"< c #6D5536",
"1 c #7B5C3C",
"2 c #3D3D43",
"3 c #4E4E4E",
"4 c #444450",
"5 c #4B4B55",
"6 c gray34",
"7 c #555560",
"8 c #5E5E6D",
"9 c gray39",
"0 c gray43",
"q c #676774",
"w c #777777",
"e c #866741",
"r c #976E45",
"t c #A0764A",
"y c None",
/* pixels */
"yyyyyyyyyyyyyyyyyyyyyyyyyyy-&+yyyyyyyyyyyyyyyyyyyyyyyyyy",
"yyyyyyyyyyyyyyyyyyyyyyyyyyy:&+yyyyyyyyyyyyyyyyyyyyyyyyyy",
"yyyyyyyyyyyyyyyyyyyyyyyyy@3*-,>yyyyyyyyyyyyyyyyyyyyyyyyy",
"yyyyyyyyyyyyyyyyyyyyyyyyy&@..o+>yyyyyyyyyyyyyyyyyyyyyyyy",
"yyyyyyyyyyyyyyyyyyyyyyyyy3yy-yy-yyyyyyyyyyyyyyyyyyyyyyyy",
"yyyyyyyyyyyyyyyyyyyyyyyyy1+y3@@*yyyyyyyyyyyyyyyyyyyyyyyy",
"yyyyyyyyyyyyyyyyyyyyyyyyy*926@-oyyyyyyyyyyyyyyyyyyyyyyyy",
"yyyyyyyyyyyyyyyyyyyyyyyyyyy@3+yyyyyyyyyyyyyyyyyyyyyyyyyy",
"yyyyyyyyyyyyyyyyyyyyyyyyyyy2-@+yyyyyyyyyyyyyyyyyyyyyyyyy",
"yyyyyyyyyyyyyyyyyyyyyyyyyy@-*3=yyyyyyyyyyyyyyyyyyyyyyyyy",
"yyyyyyyyyyyyyyyyyyyyyyyyy*2+o-@yyyyyyyyyyyyyyyyyyyyyyyyy",
"yyyyyyyyyyyyyyyyyyyyyyyyy%*#y2++yyyyyyyyyyyyyyyyyyyyyyyy",
"yyyyyyyyyyyyyyyyyyyyyyyyy;y+y*@&yyyyyyyyyyyyyyyyyyyyyyyy",
"yyyyyyyyyyyyyyyyyyyyyyyy@2yoy@#&+yyyyyyyyyyyyyyyyyyyyyyy",
"yyyyyyyyyyyyyyyyyyyyyyyy-*+*y@-+%yyyyyyyyyyyyyyyyyyyyyyy",
"yyyyyyyyyyyyyyyyyyyyyyy%#y&oyy:y;yyyyyyyyyyyyyyyyyyyyyyy",
"yyyyyyyyyyyyyyyyyyyyyyy;@y;yyy:#%+yyyyyyyyyyyyyyyyyyyyyy",
"yyyyyyyyyyyyyyyyyyyyyy%2yy*yyy#*y=yyyyyyyyyyyyyyyyyyyyyy",
"yyyyyyyyyyyyyyyyyyyyyy&@y+@yyy@-y@yyyyyyyyyyyyyyyyyyyyyy",
"yyyyyyyyyyyyyyyyyyyyy@:yy#oyyyy2y+%yyyyyyyyyyyyyyyyyyyyy",
"yyyyyyyyyyyyyyyyyyyyy;&yy=yyyyy;@y;yyyyyyyyyyyyyyyyyyyyy",
"yyyyyyyyyyyyyyyyyyyyy2@yy+yyyyy&@y&@yyyyyyyyyyyyyyyyyyyy",
"yyyyyyyyyyyyyyyyyyyy#*yy+oyyyyy@2y+#yyyyyyyyyyyyyyyyyyyy",
"yyyyyyyyyyyyyyyyyyyy;@yy#@yyyyy@-yy#@yyyyyyyyyyyyyyyyyyy",
"yyyyyyyyyyyyyyyyyyyy%yyy2oyyyyyy@@y+%yyyyyyyyyyyyyyyyyyy",
"yyyyyyyyyyyyyyyyyyy-&yyy*yyyyyyy:*yy;yyyyyyyyyyyyyyyyyyy",
"yyyyyyyyyyyyyyyyyy@3@yyyoyyyyyyy&@yy#+yyyyyyyyyyyyyyyyyy",
"yyyyyyyyyyyyyyyyyy#2yyy#%yyyyyyy@3yy+@yyyyyyyyyyyyyyyyyy",
"yyyyyyyyyyyyyyyyyy-#yyy2Oyyyyyyyy=yyy+@yyyyyyyyyyyyyyyyy",
"yyyyyyyyyyyyyyyyyy3@yyy@oyyyyyyyy%@yy=&yyyyyyyyyyyyyyyyy",
"yyyyyyyyyyyyyyyyy%#yyyy+yyyyyyyyy,=yy#+yyyyyyyyyyyyyyyyy",
"yyyyyyyyyyyyyyyyy4yyyy&;yyyyyyyyy=@yyy*+yyyyyyyyyyyyyyyy",
"yyyyyyyyyyyyyyyy%&yyyy+@yyyyyyyyy@*yyy+:yyyyyyyyyyyyyyyy",
"yyyyyyyyyyyyyyyy,2yyyy+oyyyyyyyyyy>@yyy*@yyyyyyyyyyyyyyy",
"yyyyyyyyyyyyyyy@@yyyyy;Xyyyyyyyyyy;&yyy+@yyyyyyyyyyyyyyy",
"yyyyyyyyyyyyyyy-#yyyy@*yyyyyyyyyyy@%yyyo=yyyyyyyyyyyyyyy",
"yyyyyyyyyyyyyy&7yyyyy@Xyyyyyyoyyyy#4yyyy*+yyyyyyyyyyyyyy",
"yyyyyyyyyyyyyy:=o@yyy*+yyyyy@yyyyy@=yyy@@Oyyyyyyyyyyyyyy",
"yyyyyyyyyyyyyy@@y6yyy:Xyyyyy9yyyyyy*%yy9y-@yyyyyyyyyyyyy",
"yyyyyyyyyoyyy32y6e2yy%yyyyy602yyyyy6-y3e2*oyyyoyyyyyyyyy",
"yyyyyyyy@yyy@=#y0e2y@oyyyyy6e2yyyyy-@y9e3o%yyyy@yyyyyyyy",
"yyyyyyyy6yyy@@yyw03y*@yyyyy0t6yyyyy@*y693y-yyyy3yyyyyyyy",
"yyoyyyy3q3y@3#yywe3y-+yyyyy9e3yyyyyy@@9r3y*@yy21-yyyyyyy",
"yy@yyyy9t6y#-@yy0e5y@Xyyyyy9t3yyyyyy3-9e3yo*yy2e2yyyyyoy",
"yy6yyyy0t6y3@yyy0e5*oyyyyyy9e3yyyyyy--6e3yy:oy6e2yyyy@yy",
"y6r3yyyqe3@*-yyy9w2-@yyyyyy602yyyyyy@*9e2yy@oy612yyyy2yy",
"y6e2yyy9t662@yyy9053+yyyyyy602yyyyyy*2692yyo%y632yyy23-y",
"y692yyy9e32#yyyy903*Xyyyyyy694yyyyyyy-662yyy2@612y+y2<-y",
"y3e2yy+9e3@yyyy+6w3oXyyyyyy602yyyyyyy@362y+y*@612+yy33*y",
"y393yy-6w2yyyy+y6w2yyyy+yyy60-yyy+yyy=36=+yyy-63--yy3<-y",
"y2e3y*29w3yyyy-y29-@y-2#yy239-2y+y2-yy36*-yyyy36*2@y4<*y",
"y3e7y*>6q2yy2*2@6@ooo6#ooo3ooo3ooX#2XXXo-2@-yy63*>@y2<*y",
"y286y2<6q2y2*@oo9ooyo6o@oy3yoy3.2@.2XyXX-.o@-o@2@,-y23@y",
"y383y->2-*o6@@@-6yyyo6:@oy3yoy2.:@y2Xyyy-ooo-.@*@>*y22@y",
"y26-oo6@@oo6y-oo3yyyo3>-oy2yoy-.>-y-Xyyy-.*y*..oo-..*3@y",
"y-o2@o3@yoo2y->o2yyyy=:*@y2yoy*o:*y$yyyy*>*y*..yo*.o-X@y",
"yo2@yo2oyyo2y-:*@yyyy@>*@y+yoyoo>*y@yyy**:*y@.yy.*.yo*oy",
"-o3yyo-+oyy-o*2@oyyyyo:*@y+yoy.o:*XoyyyX*2@.oyy.X@.yy*X@",
"2X2yy*-$+oyy@*2@*yyyy#2@#y@y+yy+2@+yyyy@*2@oyy.X*o#yy*X*",
"-y-oX*@oy+yy#*-$*+yyy*2@#y#y+yy+2@@yyyX@*-#Xyy.y.o+X @y*",
"*y@@oooXy+yy#o2+#@yyy*-$#y#y+yy+-$@yyy.X*2 Xyy.yX    .yo",
"@yo@y@ooXXoyy@-oy*yyy--+@o*ooyyo2+@yyyoy*2.yy.XX  oy. y ",
"+*oXoooXoy+XX*Xoy=+yy-+o@+=+oy.o-.@yy.+y@XoXX y       o ",
"y++.yyX.Xo+oy#oXX#-XX@*Xo@-@.X..Xo.XX@XXX Xy      yy   y",
"yyyooyXyyy++oy=oyy2+yy-@o@-@..o. @yy.$yy +y   yyy y  yyy",
"yyyyyyXyoyyXyoy=+oo2*oo-@@2@X$o @  o*X..+y y yy y yyyyyy",
"yyyyyyXooyyoyyoy#yyo@=#o=*2*$oo+XX+. yyXy yy yy  yyyyyyy",
"yyyyyyXyyyyyoyXo+#oyoooooy-yo.+X    y.+   y yyyXyyyyyyyy",
"yyyyyyXyyyyyyyXy.o+#==yoyo*oy.yy y++X X yyyyyyyXyyyyyyyy",
"yyyyyyXyyyyyyyXyyy.Xo@@+oX@Xo.+# o@   XyyyyyyyyXyyyyyyyy",
"yyyyyyyoyyyyyyXyyyyyy.Xo@X*y....  yyyyXyyyyyyyyXyyyyyyyy",
"yyyyyyyoyyyyyyXyyyyyyyyyyX-yyyyyyyyyyyXyyyyyyyXyyyyyyyyy",
"yyyyyyy+yyyyyyyX#yyyyyyyyy@yyyyyyyyy*yXyyyyyyyXyyyyyyyyy",
"yyyyyyy+yyyyyyyXX-yyyyyyyy+yyyyyyyyyXXXyyyyyyyXyyyyyyyyy",
"yyyyyyy+yyyyyyyXyX-2*yyyy-oXyyyy2*@+yXyyyyyyyyXyyyyyyyyy",
"yyyyyyy+yyyyyyyXyyXXX*yy2X@XXyy-oXXyyXyyyyyyyyXyyyyyyyyy",
"yyyyyyy+oyyyyyyXyyyyy#y*Xy*yXyy*yyyyyXyyyyyyyXyyyyyyyyyy",
"yyyyyyyy+yyyyyyoyyyyyXyXyo2oyXyoyyyyyXyyyyyyyoyyyyyyyyyy",
"yyyyyyyy+yyyyyyoyyyyyXXyyX*oyy*.yyyyyoyyyyyyyoyyyyyyyyyy",
"yyyyyyyy+yyyyyyoo-2yy.X+@*@..+.yy2-yyoyyyyyyyoyyyyyyyyyy",
"yyyyyyyyyoyyyyyyoyX2yy   ..   yy2oyyXoyyyyyyoyyyyyyyyyyy",
"yyyyyyyyyoyyyyyyoyy@#yyyyoXXyyy#oyyyoyyyyyyy+yyyyyyyyyyy",
"yyyyyyyyyyoyyyyy+yyy+**@o.X.+@#oyyyyoyyyyyy+yyyyyyyyyyyy",
"yyyyyyyyyyoyyyyy+yyyy....yXy...yyyyyoyyyyyy+yyyyyyyyyyyy",
"yyyyyyyyyyyoyyyy+oyyyXyyyy@yyyyXyyyy+yyyyy@yyyyyyyyyyyyy",
"yyyyyyyyyyyyoyyyy+yyyXyyyX2+yyyXyyy++yyyy+yyyyyyyyyyyyyy",
"yyyyyyyyyyyyyooyy+yyXyyyX-*oXyyyXyy@yyy++yyyyyyyyyyyyyyy",
"yyyyyyyyyyyyyyyooXXXyyyXyXXXyXyyyXXX+ooyyyyyyyyyyyyyyyyy",
"yyyyyyyyyyyyyyyyyy+yyyyXyyXyyX@yyy+y+yyyyyyyyyyyyyyyyyyy",
"yyyyyyyyyyyyyyyyyyX@oyXyyyyyyyoyy+oy+yyyyyyyyyyyyyyyyyyy",
"yyyyyyyyyyyyyyyyyyyX@XyyyyyyyyXo++yy+yyyyyyyyyyyyyyyyyyy",
"yyyyyyyyyyyyyyyyyyyy+yyyyyyyyy+oyyyo+yyyyyyyyyyyyyyyyyyy",
"yyyyyyyyyyyyyyyyyyyyoyyyyyyyyy+oyyyyoyyyyyyyyyyyyyyyyyyy",
"yyyyyyyyyyyyyyyyyyyy+yyyyyyyyyoyyyyyoyyyyyyyyyyyyyyyyyyy",
"yyyyyyyyyyyyyyyyyyyyooyyyyyyyyoyyyyy+yyyyyyyyyyyyyyyyyyy",
"yyyyyyyyyyyyyyyyyyyyo+yyyyyyyy+yyyyyoyyyyyyyyyyyyyyyyyyy",
"yyyyyyyyyyyyyyyyyyyyXyyyyyyyyyoyyyyo+yyyyyyyyyyyyyyyyyyy",
"yyyyyyyyyyyyyyyyyyyyoyyyyyyyyyoyyyy+oyyyyyyyyyyyyyyyyyyy",
"yyyyyyyyyyyyyyyyyyyyoyyyyyyyyyoyyyyy+yyyyyyyyyyyyyyyyyyy",
"yyyyyyyyyyyyyyyyyyyyoyyyyyyyyyoyyyyy+yyyyyyyyyyyyyyyyyyy",
"yyyyyyyyyyyyyyyyyyyyyyyyyyyyyy+yyyyyyyyyyyyyyyyyyyyyyyyy",
"yyyyyyyyyyyyyyyyyyyyyyyyyyyyyyoyyyyyyyyyyyyyyyyyyyyyyyyy",
"yyyyyyyyyyyyyyyyyyyyyyyyyyyyyy+yyyyyyyyyyyyyyyyyyyyyyyyy",
"yyyyyyyyyyyyyyyyyyyyyyyyyyyyyyoyyyyyyyyyyyyyyyyyyyyyyyyy",
"yyyyyyyyyyyyyyyyyyyyyyyyyyyyyyoyyyyyyyyyyyyyyyyyyyyyyyyy",
"yyyyyyyyyyyyyyyyyyyyyyyyyyyyyy+oyyyyyyyyyyyyyyyyyyyyyyyy",
"yyyyyyyyyyyyyyyyyyyyyyyyyyyyyy@yyyyyyyyyyyyyyyyyyyyyyyyy",
"yyyyyyyyyyyyyyyyyyyyyyyyyyyyyy@yyyyyyyyyyyyyyyyyyyyyyyyy",
"yyyyyyyyyyyyyyyyyyyyyyyyyyyyyy+yyyyyyyyyyyyyyyyyyyyyyyyy",
"yyyyyyyyyyyyyyyyyyyyyyyyyyyyyyoyyyyyyyyyyyyyyyyyyyyyyyyy"
};
