/* XPM */
static char *_[] = {
/* columns rows colors chars-per-pixel */
"24 114 19 1 ",
"  c gray12",
". c #232323",
"X c gray15",
"o c #282828",
"O c #2D3030",
"+ c #303032",
"@ c gray20",
"# c #35353B",
"$ c #3A3A3A",
"% c #3D3D43",
"& c #434343",
"* c #4E4E4E",
"= c gray34",
"- c gray39",
"; c gray43",
": c #777777",
"> c #848484",
", c #939393",
"< c None",
/* pixels */
"<<<<<&&@<<<<<<<<&&@<<<<<",
"<<<<<&*@<<<<<<<<&*@<<<<<",
"<<<<<&=@<<<<<<<<&=@<<<<<",
"<<<<<$*@<<<<<<<<$*@<<<<<",
"<<<@=$&@X@<<<<@=$&@o@<<<",
"<<@=$@@oo@@<<@=$@@oo@@<<",
"<<@&@@Xo@$+<<@&@@Xo@$+<<",
"<<@$@<<<$*@<<@$@<<<$*+<<",
"<<@*@<<<@*+<<@*@<<<@*@<<",
"<<@$+<<<@$@<<@$+<<<@$+<<",
"<<@@+@=$@@o<<@@+@=$@@X<<",
"<<X@@&=@@+X<<X@@&=@@+X<<",
"<<<Xo*=@oX<<<<Xo*=@oX<<<",
"<<<<<&*o<<<<<<<<&*o<<<<<",
"<<<<<$*o<<<<<<<<$*o<<<<<",
"<<<<<$*@<<<<<<<<$*@<<<<<",
"<<<@=$&@o@<<<<@=$&@o@<<<",
"<<@=$@@oo@@<<@=$@@oo@@<<",
"<<&=&%##&*%<<&=&%##&*%<<",
"<<&*&<<<*-%<<&*&<<<*-%<<",
"<<&-%<<<&-%<<&-%<<<&-%<<",
"<<&*%<<<&*%<<&*%<<<&*%<<",
"<<&&%&;*&&#<<&&%&;*&&#<<",
"<<@&&=:&&%@<<@&&=:&&%@<<",
"<<<@#-;&#@<<<<@#-;&#@<<<",
"<<<<<=-#<<<<<<<<=-#<<<<<",
"<<<<<*-#<<<<<<<<*-#<<<<<",
"<<<<<*-&<<<<<<<<*-&<<<<<",
"<<<&;*=&#&<<<<&;*=&#&<<<",
"<<&;*&&##&%<<&;*&&##&%<<",
"<<&=&%#@&*%<<&=&%#@&*%<<",
"<<&*&<<<*-%<<&*&<<<*-%<<",
"<<*;&<<<*;&<<*;&<<<*;&<<",
"<<&=&<<<*=&<<&=&<<<*=&<<",
"<<&*&*:=**$<<&*&*:=**$<<",
"<<@&*->*&&@<<@&*->*&&@<<",
"<<<@$;:*$@<<<<@$;:*$@<<<",
"<<<<<-;$<<<<<<<<-;$<<<<<",
"<<<<<=;$<<<<<<<<=;$<<<<<",
"<<<<<=;*<<<<<<<<=;*<<<<<",
"<<<*:=-*$*<<<<*:=-*$*<<<",
"<<*:=**$$*&<<*:=**$$*&<<",
"<<*-*&$@*=&<<*-*&$@*=&<<",
"<<*=*<<<=;&<<*=*<<<=;&<<",
"<<*;&<<<*;&<<*;&<<<*;&<<",
"<<&=&<<<*=&<<&=&<<<*=&<<",
"<<&*&*:=**$<<&*&*:=**$<<",
"<<@&*->*&&@<<@&*->*&&@<<",
"<<<@$;:*$@<<<<@$;:*$@<<<",
"<<<<<-;*<<<<<<<<-;*<<<<<",
"<<<<<-:*<<<<<<<<-:*<<<<<",
"<<<<<=;*<<<<<<<<=;*<<<<<",
"<<<*:=-*$*<<<<*:=-*$*<<<",
"<<*:=**$$*&<<*:=**$$*&<<",
"<<*-*&$$*=&<<*-*&$$*=&<<",
"<<*=*<<<=;&<<*=*<<<=;&<<",
"<<*;&<<<*;&<<*;&<<<*;&<<",
"<<*=&<<<*=&<<*=&<<<*=&<<",
"<<**&*:=**$<<**&*:=**$<<",
"<<@**->**&@<<@**->**&@<<",
"<<<@$;:*$@<<<<@$;:*$@<<<",
"<<<<<-;$<<<<<<<<-;$<<<<<",
"<<<<<=;$<<<<<<<<=;$<<<<<",
"<<<<<=;*<<<<<<<<=;*<<<<<",
"<<<*:=-*$*<<<<*:=-*$*<<<",
"<<*:=**$$*&<<*:=**$$*&<<",
"<<*-*&$@*=&<<*-*&$@*=&<<",
"<<*=*<<<=;&<<*=*<<<=;&<<",
"<<*;&<<<*;&<<*;&<<<*;&<<",
"<<&=&<<<*=&<<&=&<<<*=&<<",
"<<*=*=>-==&<<*=*=>-==&<<",
"<<$*=;,=**$<<$*=;,=**$<<",
"<<<$&:>=&$<<<<$&:>=&$<<<",
"<<<<<;:&<<<<<<<<;:&<<<<<",
"<<<<<-:&<<<<<<<<-:&<<<<<",
"<<<<<-:=<<<<<<<<-:=<<<<<",
"<<<=>-;=&=<<<<=>-;=&=<<<",
"<<=>-==&&=*<<=>-==&&=*<<",
"<<=;=*&$=-*<<=;=*&$=-*<<",
"<<=-=<<<-:*<<=-=<<<-:*<<",
"<<=:*<<<=:*<<=:*<<<=:*<<",
"<<*-*<<<=-*<<*-*<<<=-*<<",
"<<*=*=>-==&<<*=*=>-==&<<",
"<<$*=;,=**$<<$*=;,=**$<<",
"<<<$&:>=&$<<<<$&:>=&$<<<",
"<<<<<;:&<<<<<<<<;:&<<<<<",
"<<<<<-:&<<<<<<<<-:&<<<<<",
"<<<<<-:=<<<<<<<<-:=<<<<<",
"<<<=>-;=&=<<<<=>-;=&=<<<",
"<<=>-==&&=*<<=>-==&&=*<<",
"<<=;=*&&=-*<<=;=*&&=-*<<",
"<<=-=<<<-:*<<=-=<<<-:*<<",
"<<=:*<<<=:*<<=:*<<<=:*<<",
"<<=-*<<<=-*<<=-*<<<=-*<<",
"<<==*=>-==&<<==*=>-==&<<",
"<<$==;,==*$<<$==;,==*$<<",
"<<<$&:>=&$<<<<$&:>=&$<<<",
"<<<<<;:&<<<<<<<<;:&<<<<<",
"<<<<<-:&<<<<<<<<-:&<<<<<",
"<<<<$***&<<<<<<$***&<<<<",
"<<<=;--=**&<<<=;--=**&<<",
"<<>;--=&$$&&<>;--=&$$&&<",
"<>>--=$<o O$>>--=$<o O$$",
"<:;--&o<<o O:;--&o<<o O&",
"=;--=$<<<o =;--=$<<<o  $",
":;--&o<<<# :;--&o<<<#  O",
":---$<<<<# :---$<<<<# .O",
"-===$<<<#O -===$<<<#O .O",
"-===$<<<#o -===$<<<#o .o",
"====$<<&O  ====$<<&O  o<",
"=***$<*Oo .=***$<*Oo .o<",
"$***&$Oo. .$***&$Oo. .#<",
"<$&*-=$...#<$&*-=$...#<<",
"<<<$&=-=##<<<<$&=-=##<<<"
};
