/* XPM */
static char *_[] = {
/* columns rows colors chars-per-pixel */
"57 76 65 1 ",
"  c #131313",
". c gray9",
"X c #1B1B1B",
"o c gray12",
"O c #3A3319",
"+ c #232323",
"@ c #282828",
"# c #282F28",
"$ c #2B2E2D",
"% c #2C2C2C",
"& c #2E2C2E",
"* c #322D22",
"= c #392B27",
"- c #223322",
"; c #2B3827",
": c #263328",
"> c #3D3626",
", c #363228",
"< c #2C3031",
"1 c #2F3B3C",
"2 c #303032",
"3 c gray20",
"4 c #323737",
"5 c #35353B",
"6 c #3A3A3A",
"7 c #453C15",
"8 c #423629",
"9 c #453F2A",
"0 c #4F3F2B",
"q c #5D4E0E",
"w c #514512",
"e c #5B4326",
"r c #53472C",
"t c #674027",
"y c #704628",
"u c #604C33",
"i c #6D5536",
"p c #7B5C3C",
"a c #3D3D43",
"s c #4E4E4E",
"d c #444450",
"f c gray34",
"g c #555560",
"h c #5E5E6D",
"j c gray39",
"k c gray43",
"l c #777777",
"z c #72727F",
"x c #975B37",
"c c #976E45",
"v c #AD7F4E",
"b c #C49A69",
"n c #848484",
"m c #878795",
"M c #939393",
"N c #A5A5AE",
"B c #AEAEAE",
"V c #D5AE80",
"C c #FFD78D",
"Z c #FEEBAA",
"A c #FEF5B9",
"S c #BCBCC7",
"D c #C5C5C5",
"F c gainsboro",
"G c None",
/* pixels */
"GGGGGGGGGGGGGGGGGGGGGGGGGGGs0OGGGGGGGGGGGGGGGGGGGGGGGGGGG",
"GGGGGGGGGGGGGGGGGGGGGGGGGGGu0OGGGGGGGGGGGGGGGGGGGGGGGGGGG",
"GGGGGGGGGGGGGGGGGGGGGGGGG6jaspiGGGGGGGGGGGGGGGGGGGGGGGGGG",
"GGGGGGGGGGGGGGGGGGGGGGGGG02@@28iGGGGGGGGGGGGGGGGGGGGGGGGG",
"GGGGGGGGGGGGGGGGGGGGGGGGGjGG6GGsGGGGGGGGGGGGGGGGGGGGGGGGG",
"GGGGGGGGGGGGGGGGGGGGGGGGGc%Gs@6aGGGGGGGGGGGGGGGGGGGGGGGGG",
"GGGGGGGGGGGGGGGGGGGGGGGGGalff@s@GGGGGGGGGGGGGGGGGGGGGGGGG",
"GGGGGGGGGGGGGGGGGGGGGGGGGGG@s+GGGGGGGGGGGGGGGGGGGGGGGGGGG",
"GGGGGGGGGGGGGGGGGGGGGGGGGGGa6@+GGGGGGGGGGGGGGGGGGGGGGGGGG",
"GGGGGGGGGGGGGGGGGGGGGGGGGG@62s5GGGGGGGGGGGGGGGGGGGGGGGGGG",
"GGGGGGGGGGGGGGGGGGGGGGGGG2a+o6@GGGGGGGGGGGGGGGGGGGGGGGGGG",
"GGGGGGGGGGGGGGGGGGGGGGGGG*2%Ga++GGGGGGGGGGGGGGGGGGGGGGGGG",
"GGGGGGGGGGGGGGGGGGGGGGGGG8G+G2@=GGGGGGGGGGGGGGGGGGGGGGGGG",
"GGGGGGGGGGGGGGGGGGGGGGGG@aGoG@%=+GGGGGGGGGGGGGGGGGGGGGGGG",
"GGGGGGGGGGGGGGGGGGGGGGGG62+2G@6+*GGGGGGGGGGGGGGGGGGGGGGGG",
"GGGGGGGGGGGGGGGGGGGGGGG*%G=oGG0G8GGGGGGGGGGGGGGGGGGGGGGGG",
"GGGGGGGGGGGGGGGGGGGGGGG8@G8GGG0%*+GGGGGGGGGGGGGGGGGGGGGGG",
"GGGGGGGGGGGGGGGGGGGGGG*aGG2GGG%2G5GGGGGGGGGGGGGGGGGGGGGGG",
"GGGGGGGGGGGGGGGGGGGGGG=@G+@GGG@6G@GGGGGGGGGGGGGGGGGGGGGGG",
"GGGGGGGGGGGGGGGGGGGGG@0GG%oGGGGaG+*GGGGGGGGGGGGGGGGGGGGGG",
"GGGGGGGGGGGGGGGGGGGGG8=GG5GGGGG8@G8GGGGGGGGGGGGGGGGGGGGGG",
"GGGGGGGGGGGGGGGGGGGGGa@GG+GGGGG=@G=@GGGGGGGGGGGGGGGGGGGGG",
"GGGGGGGGGGGGGGGGGGGG%2GG+oGGGGG@aG+%GGGGGGGGGGGGGGGGGGGGG",
"GGGGGGGGGGGGGGGGGGGG8@GG%@GGGGG@6GG%@GGGGGGGGGGGGGGGGGGGG",
"GGGGGGGGGGGGGGGGGGGG*GGGaoGGGGGG@@G+*GGGGGGGGGGGGGGGGGGGG",
"GGGGGGGGGGGGGGGGGGG6=GGG2GGGGGGG02GG8GGGGGGGGGGGGGGGGGGGG",
"GGGGGGGGGGGGGGGGGG@s@GGGoGGGGGGG=@GG%+GGGGGGGGGGGGGGGGGGG",
"GGGGGGGGGGGGGGGGGG%aGGG%*GGGGGGG@sGG+@GGGGGGGGGGGGGGGGGGG",
"GGGGGGGGGGGGGGGGGG6%GGGaOGGGGGGGG5GGG+@GGGGGGGGGGGGGGGGGG",
"GGGGGGGGGGGGGGGGGGs@GGG@oGGGGGGGG*@GG5=GGGGGGGGGGGGGGGGGG",
"GGGGGGGGGGGGGGGGG*%GGGG+GGGGGGGGGu5GG%+GGGGGGGGGGGGGGGGGG",
"GGGGGGGGGGGGGGGGGdGGGG=8GGGGGGGGG5@GGG2+GGGGGGGGGGGGGGGGG",
"GGGGGGGGGGGGGGGG*=GGGG+@GGGGCGGGG@2GGG+jgGGGGGGGGGGGGGGGG",
"GGGGGGGGGGGGGGGGuCGGGG+oGGGGCCGGGGe@GGGCgGGGGGGGGGGGGGGGG",
"GGGGGGGGGGGGGGG@@CCGGG8XGGGGCCGGGG8=GGCCzGGGGGGGGGGGGGGGG",
"GGGGGGGGGCGGGGGS%CCGG@2GGGGGCdGGGG@*GGCCjGGGGGGGGGGGGGGGG",
"GGGGGGGGCCGGGG=gogGGG@XGGGGGgGGGGG%dGGGgg+GGGGCGGGGGGGGGG",
"GGCGGGGGCCGGGGr5GBGGG2+GGGGfDsGGGG@5GGGD@OGGGGCCGGGGGGGGG",
"GGCGGGGGCdGGGG@@BCBGG0XGGGGBFMGGGGG2*GMCM6@GGGdCGGGGGGGGG",
"GGCCGGGGgGGGGsaGFCBGG*GGGGGBCMGGGGGf6GDCB2oGGGGgGGGGGGGGG",
"GCCCGGGGBGGG@5%GFFDG@oGGGGGFZDGGGGG6@GBDBo*GGGGMGGGGGGGGG",
"GGdGGGGMFBGG@@GGFCDG2@GGGGGDCBGGGGG@2gDZBG6GGGmCmGGGGCGGG",
"GGgGGGGDZDG@s%GGFCFG6+GGGGGDZBGGGGGG@lDCBG2@GGmCMGGGGCdGG",
"GGBGGGGFZDG%6@GGFCFG@XGGGGGDCBGGGGGGslBCBGo2GGBCNGGGGgGGG",
"GBZBGGGFCBGs@GGGDFB2oGGGGGGBFMGGGGGG6jDCMGG0oGBCNGGGGmGGG",
"GBCMGGGDZDBmgGGGDFFMdGGGGGGBFMGGGGGG@mBDMGG@oGBMMCGGmMmGG",
"GBDMGGCDCBmf@GCGDFBj6GGGGGGBDNGGGGGG2lBBNGGo*gBCNCCGmVmGG",
"GnVnGCaBVMd%GGCaMDMa2GGCGGGMDmGGCGGGGdnMmCCGfdMVmaGGnnjGG",
"GlMnGGfnBl@GGG4GnBloXGGAGGGnBhGGA4GGGglnz4GG2fnlhfGGlvhGG",
"GhbnGshMBnGGGGGGfks>90rruuurqrwrrrw005sfaGGGG6lnfhaGzvfGG",
"GlbNGsxnNlGGG>99rruruuuururrrww1>971>1001108GonlfxaGhvfGG",
"GhNMGhvnNs90ruruyuyuuuururr0w00w91w1981>>;810108aGGGas6GG",
"GlNnGfxhf0r09eeerururuuurr0rw09w7w8989>11>,1;1;1108Gaa6GG",
"Ghnh>0naa909e9tr0tyruyururr0r0909798988>1;1,1,1;;;11,s6GG",
"Gaf>0>9>9>9090eetrryyuuurrwr0w898989888>>>,1,1;,;;;;186GG",
"Ga0>>>>9>9090e0r0tyruuur9>,,,,,>>>>>>>>1>,>,>,>;;*:;*;1GG",
"G>>,>>9>9990900>>,*+o....X.X.X.X.XXXo+*,,>,1;>;,;,,::@*,G",
",>,>>9>9>9>,*+o...............X..X.XXXXXXXo+@*,;,::,:@@*,",
",,>,>>9>,*oX.X.................X..XXXXXXXXXoXXo+*,,:*-@+@",
",>,>>*+oXXX.X.X. .......XXXXXX...X...X.X..XXoXoXoo@***@+@",
"@,>*oXXXXXXX.X.. .XXo+*GGGuuw>2GG@*oXoo..XXXXoXoXoo++@@+@",
"@>+oXoXoXo%daGGoXoXXoo+**G9u9>@>*ooX..XGGGGa52XXoXoooo@+*",
"@,oooooXGGfjaGG6%Gfd5XXXo@+r7*oX...+6aGGGGGaa2GGGGooooo@*",
",@o+o+..++jf6GG2XGff6GG..o+w>@o.XGGas6GGGGGa62GG6ru@oooo*",
",++o+...XX++<GooXGsf2GGG>>+9:*o,,GGsa2GGGGGa>9rruui>oooo@",
"@++-+X.XXXoo+o@@**5s,>9>+o@9*-o+++*,OOO,1>7911>rrui,XoXoo",
"G+@+:+oXXoo+o++@,,>,@+ooXo,>:@oXooooooo+*,;>O>7wrw>+oXooo",
"GG+*--@@oo+o+o,*@oXXXX.o*@*1@-o*@+..XXXXXo7,>O7>,*XoXoooG",
"GGG+*@:-*#++o+oXXXX.o@+@@@,>+@XOOO*O+X.X+*,1;*+XXXXXoXoGG",
"GGGG+*-:-::,,*@@++++@+@+@@*1-@X**,,,O*++oX.XX.X.X.XXXGGGG",
"GGGGGGo+**::::*<*,*,*,*,>>** .X@+oXoXXX....X.X.X.XXGGGGGG",
"GGGGGGGGG++@%@%@%@&@@+@++oX>++ XoXoXXX....X.X.XXGGGGGGGGG",
"GGGGGGGGGGGGGo+@@@@@+@++o+@>+@XoXXXX.......GGGGGGGGGGGGGG",
"GGGGGGGGGGGGGGGGGGGoo+@++o*9>,XXoXX..GGGGGGGGGGGGGGGGGGGG",
"GGGGGGGGGGGGGGGGGGGGGGGGGG>@+o*GGGGGGGGGGGGGGGGGGGGGGGGGG",
"GGGGGGGGGGGGGGGGGGGGGGGGGGGXoXGGGGGGGGGGGGGGGGGGGGGGGGGGG"
};
