/* XPM */
static char *_[] = {
/* columns rows colors chars-per-pixel */
"57 76 51 1 ",
"  c #131313",
". c gray9",
"X c #1B1B1B",
"o c gray12",
"O c #3A3319",
"+ c #232323",
"@ c #282828",
"# c #282F28",
"$ c #2B2E2D",
"% c #2C2C2C",
"& c #2E2C2E",
"* c #322D22",
"= c #392B27",
"- c #223322",
"; c #2B3827",
": c #263328",
"> c #3D3626",
", c #363228",
"< c #2C3031",
"1 c #2F3B3C",
"2 c #303032",
"3 c #35353B",
"4 c #3A3A3A",
"5 c #453C15",
"6 c #423629",
"7 c #453F2A",
"8 c #4F3F2B",
"9 c #5D4E0E",
"0 c #514512",
"q c #5B4326",
"w c #53472C",
"e c #674027",
"r c #704628",
"t c #604C33",
"y c #6D5536",
"u c #7B5C3C",
"i c #3D3D43",
"p c #4E4E4E",
"a c #444450",
"s c #4B4B55",
"d c gray34",
"f c #555560",
"g c #5E5E6D",
"h c gray39",
"j c gray43",
"k c #676774",
"l c #777777",
"z c #866741",
"x c #976E45",
"c c #A0764A",
"v c None",
/* pixels */
"vvvvvvvvvvvvvvvvvvvvvvvvvvvp8Ovvvvvvvvvvvvvvvvvvvvvvvvvvv",
"vvvvvvvvvvvvvvvvvvvvvvvvvvvt8Ovvvvvvvvvvvvvvvvvvvvvvvvvvv",
"vvvvvvvvvvvvvvvvvvvvvvvvv4hipuyvvvvvvvvvvvvvvvvvvvvvvvvvv",
"vvvvvvvvvvvvvvvvvvvvvvvvv82@@26yvvvvvvvvvvvvvvvvvvvvvvvvv",
"vvvvvvvvvvvvvvvvvvvvvvvvvhvv4vvpvvvvvvvvvvvvvvvvvvvvvvvvv",
"vvvvvvvvvvvvvvvvvvvvvvvvvx%vp@4ivvvvvvvvvvvvvvvvvvvvvvvvv",
"vvvvvvvvvvvvvvvvvvvvvvvvvildd@p@vvvvvvvvvvvvvvvvvvvvvvvvv",
"vvvvvvvvvvvvvvvvvvvvvvvvvvv@p+vvvvvvvvvvvvvvvvvvvvvvvvvvv",
"vvvvvvvvvvvvvvvvvvvvvvvvvvvi4@+vvvvvvvvvvvvvvvvvvvvvvvvvv",
"vvvvvvvvvvvvvvvvvvvvvvvvvv@42p3vvvvvvvvvvvvvvvvvvvvvvvvvv",
"vvvvvvvvvvvvvvvvvvvvvvvvv2i+o4@vvvvvvvvvvvvvvvvvvvvvvvvvv",
"vvvvvvvvvvvvvvvvvvvvvvvvv*2%vi++vvvvvvvvvvvvvvvvvvvvvvvvv",
"vvvvvvvvvvvvvvvvvvvvvvvvv6v+v2@=vvvvvvvvvvvvvvvvvvvvvvvvv",
"vvvvvvvvvvvvvvvvvvvvvvvv@ivov@%=+vvvvvvvvvvvvvvvvvvvvvvvv",
"vvvvvvvvvvvvvvvvvvvvvvvv42+2v@4+*vvvvvvvvvvvvvvvvvvvvvvvv",
"vvvvvvvvvvvvvvvvvvvvvvv*%v=ovv8v6vvvvvvvvvvvvvvvvvvvvvvvv",
"vvvvvvvvvvvvvvvvvvvvvvv6@v6vvv8%*+vvvvvvvvvvvvvvvvvvvvvvv",
"vvvvvvvvvvvvvvvvvvvvvv*ivv2vvv%2v3vvvvvvvvvvvvvvvvvvvvvvv",
"vvvvvvvvvvvvvvvvvvvvvv=@v+@vvv@4v@vvvvvvvvvvvvvvvvvvvvvvv",
"vvvvvvvvvvvvvvvvvvvvv@8vv%ovvvviv+*vvvvvvvvvvvvvvvvvvvvvv",
"vvvvvvvvvvvvvvvvvvvvv6=vv3vvvvv6@v6vvvvvvvvvvvvvvvvvvvvvv",
"vvvvvvvvvvvvvvvvvvvvvi@vv+vvvvv=@v=@vvvvvvvvvvvvvvvvvvvvv",
"vvvvvvvvvvvvvvvvvvvv%2vv+ovvvvv@iv+%vvvvvvvvvvvvvvvvvvvvv",
"vvvvvvvvvvvvvvvvvvvv6@vv%@vvvvv@4vv%@vvvvvvvvvvvvvvvvvvvv",
"vvvvvvvvvvvvvvvvvvvv*vvviovvvvvv@@v+*vvvvvvvvvvvvvvvvvvvv",
"vvvvvvvvvvvvvvvvvvv4=vvv2vvvvvvv82vv6vvvvvvvvvvvvvvvvvvvv",
"vvvvvvvvvvvvvvvvvv@p@vvvovvvvvvv=@vv%+vvvvvvvvvvvvvvvvvvv",
"vvvvvvvvvvvvvvvvvv%ivvv%*vvvvvvv@pvv+@vvvvvvvvvvvvvvvvvvv",
"vvvvvvvvvvvvvvvvvv4%vvviOvvvvvvvv3vvv+@vvvvvvvvvvvvvvvvvv",
"vvvvvvvvvvvvvvvvvvp@vvv@ovvvvvvvv*@vv3=vvvvvvvvvvvvvvvvvv",
"vvvvvvvvvvvvvvvvv*%vvvv+vvvvvvvvvt3vv%+vvvvvvvvvvvvvvvvvv",
"vvvvvvvvvvvvvvvvvavvvv=6vvvvvvvvv3@vvv2+vvvvvvvvvvvvvvvvv",
"vvvvvvvvvvvvvvvv*=vvvv+@vvvvvvvvv@2vvv+8vvvvvvvvvvvvvvvvv",
"vvvvvvvvvvvvvvvvtivvvv+ovvvvvvvvvvq@vvv2@vvvvvvvvvvvvvvvv",
"vvvvvvvvvvvvvvv@@vvvvv6Xvvvvvovvvv6=vvv+@vvvvvvvvvvvvvvvv",
"vvvvvvvvvvvvvvv4%vvvv@2vvvvv@vvvvv@*vvvo3vvvvvvvvvvvvvvvv",
"vvvvvvvvvvvvvv=fo@vvv@Xvvvvvhvvvvv%avvv@2+vvvvvvvvvvvvvvv",
"vvvvvvvvvvvvvv83vdvvv2+vvvvdjpvvvv@3vvvh@Ovvvvvvvvvvvvvvv",
"vvvvvvvvvovvvv@@dzdvv8Xvvvvdzpvvvvv2*vpzp4@vvvovvvvvvvvvv",
"vvvvvvvv@vvvvpivjzdvv*vvvvvjchvvvvvd4vhzd2ovvvv@vvvvvvvvv",
"vvvvvvvvdvvv@3%vljhv@ovvvvvhzdvvvvv4@vdhdo*vvvvpvvvvvvvvv",
"vvvvvvvpkdvv@@vvlzhv2@vvvvvhcdvvvvv@2vhxdv4vvviuivvvvvvvv",
"vvovvvvhchv@p%vvjzgv4+vvvvvhzdvvvvvv@@hzdv2@vvizpvvvvvovv",
"vv@vvvvjchv%4@vvjzgv@Xvvvvvdjpvvvvvvp4dzdvo2vvdzavvvv@vvv",
"vvdvvvvkzdvp@vvvjld2ovvvvvvdjpvvvvvv44hzpvv8ovduavvvvivvv",
"vdxdvvvhch@24vvvhjg4@vvvvvvdhsvvvvvv@2dhpvv@ovdppvvvipivv",
"vdzpvvvhzddi@vvvhjdp+vvvvvvdjavvvvvv2iddavvo*vduavvviyivv",
"vdhpvvvdzdi%vvvvdld2Xvvvvvvdjivvvvvvv4pdavvvi@duavvvpp4vv",
"vpzpvvvdlp@vvvvvdlpoXvvvvvvphivvvvvvv@pdavvv2@dppvvvpyivv",
"vphdvvvdldvvvvvvdjp>78wwtttw9w0www0883pdivvvv4pdivvvay4vv",
"vizdvvvdkpvvv>77wwtwttttwtwww001>751>1881186vodppvvviy4vv",
"vpzgvvvdkp78wtwtrtrttttwtww808807101761>>;618186ivvvip4vv",
"vighvvv>88w87qqqwtwtwtttww8w0870506767>11>,1;1;1186vii4vv",
"vpgd>8ww7787q7ew8erwtrtwtww8w8787576766>1;1,1,1;;;11,p4vv",
"vid>8>7>7>7878qqewwrrtttww0w80676767666>>>,1,1;,;;;;164vv",
"vi8>>>>7>7878q8w8erwtttw7>,,,,,>>>>>>>>1>,>,>,>;;*:;*;1vv",
"v>>,>>7>7778788>>,*+o....X.X.X.X.XXXo+*,,>,1;>;,;,,::@*,v",
",>,>>7>7>7>,*+o...............X..X.XXXXXXXo+@*,;,::,:@@*,",
",,>,>>7>,*oX.X.................X..XXXXXXXXXoXXo+*,,:*-@+@",
",>,>>*+oXXX.X.X. .......XXXXXX...X...X.X..XXoXoXoo@***@+@",
"@,>*oXXXXXXX.X.. .XXo+*vvvtt0>2vv@*oXoo..XXXXoXoXoo++@@+@",
"@>+oXoXoXo%aivvoXoXXoo+**v7t7>@>*ooX..Xvvvvi32XXoXoooo@+*",
"@,oooooXvvdhivv4%vda3XXXo@+w5*oX...+4ivvvvvii2vvvvooooo@*",
",@o+o+..++hd4vv2Xvdd4vv..o+0>@o.Xvvip4vvvvvi42vv4wt@oooo*",
",++o+...XX++<vooXvpd2vvv>>+7:*o,,vvpi2vvvvvi>7wwtty>oooo@",
"@++-+X.XXXoo+o@@**3p,>7>+o@7*-o+++*,OOO,1>5711>wwty,XoXoo",
"v+@+:+oXXoo+o++@,,>,@+ooXo,>:@oXooooooo+*,;>O>50w0>+oXooo",
"vv+*--@@oo+o+o,*@oXXXX.o*@*1@-o*@+..XXXXXo5,>O5>,*XoXooov",
"vvv+*@:-*#++o+oXXXX.o@+@@@,>+@XOOO*O+X.X+*,1;*+XXXXXoXovv",
"vvvv+*-:-::,,*@@++++@+@+@@*1-@X**,,,O*++oX.XX.X.X.XXXvvvv",
"vvvvvvo+**::::*<*,*,*,*,>>** .X@+oXoXXX....X.X.X.XXvvvvvv",
"vvvvvvvvv++@%@%@%@&@@+@++oX>++ XoXoXXX....X.X.XXvvvvvvvvv",
"vvvvvvvvvvvvvo+@@@@@+@++o+@>+@XoXXXX.......vvvvvvvvvvvvvv",
"vvvvvvvvvvvvvvvvvvvoo+@++o*7>,XXoXX..vvvvvvvvvvvvvvvvvvvv",
"vvvvvvvvvvvvvvvvvvvvvvvvvv>@+o*vvvvvvvvvvvvvvvvvvvvvvvvvv",
"vvvvvvvvvvvvvvvvvvvvvvvvvvvXoXvvvvvvvvvvvvvvvvvvvvvvvvvvv"
};
