/* XPM */
static char *_[] = {
/* columns rows colors chars-per-pixel */
"31 115 47 1 ",
"  c gray12",
". c #232323",
"X c #282828",
"o c #2C2C2C",
"O c #2C2C2D",
"+ c #2E2C2E",
"@ c #322D22",
"# c #392B27",
"$ c #3D3626",
"% c #2F3B3C",
"& c #2F3F3F",
"* c #303032",
"= c gray20",
"- c #323737",
"; c #35353B",
": c #3A3A3A",
"> c #412921",
", c #423629",
"< c #453F2A",
"1 c #4F3F2B",
"2 c #5B4326",
"3 c #53472C",
"4 c #674027",
"5 c #704628",
"6 c #604C33",
"7 c #6D5536",
"8 c #7B5C3C",
"9 c #3D3D43",
"0 c #323E49",
"q c #344557",
"w c #434343",
"e c #4E4E4E",
"r c #444450",
"t c #4B4B55",
"y c gray34",
"u c #5E5E6D",
"i c gray39",
"p c gray43",
"a c #777777",
"s c #814F30",
"d c #985D3F",
"f c #866741",
"g c #976E45",
"h c #A56446",
"j c #7A7A89",
"k c #848484",
"l c None",
/* pixels */
"lllllllllllllllll12>lllllllllll",
"lllllllllllllllll<5$lllllllllll",
"lllllllllllllllll12>lllllllllll",
"lllllllllllllllll36>lllllllllll",
"lllllllllllllllll12@lllllllllll",
"lllllllllllllllll66$lllllllllll",
"lllllllllllllllll14@lllllllllll",
"lllllllllllllllll66@lllllllllll",
"lllllllllllllllll14.lllllllllll",
"lllllllllllllllll26@lll@<<lllll",
"lllllllllllllllll12.l@7763lllll",
"lllllllllllllllll<6@@68<>$lllll",
"lllllllllllllllll$3@45<..llllll",
"llllllllllllllll$@@11$.llllllll",
"lllllllllllllll<7.<$$.lllllllll",
"lllllllllllllll$8s#. $lllllllll",
"lllllllllllllll.<8643<lllllllll",
"lllllllllllllll1.<>@>.lllllllll",
"lllllllllllllll33X..#$lllllllll",
"lllllllllllllll$s6s1$<lllllllll",
"lllllllllllllll.12<@@.lllllllll",
"lllllllllllllll3$X.  $lllllllll",
"lllllllllllllll$6261$<lllllllll",
"lllllllwweyeee3.<1<@@.lllllllll",
"lllllwweiiiyeye3$X.  llllllllll",
"lllwweyppppiyeye313$$llllllllll",
"lllweypakppiiyyye3$.@llllllllll",
"llweypakpiiipieyer: lllllllllll",
"llweyakpiyyeipie3tq:lllllllllll",
"llweyiiiyeyyeeyewr:@lllllllllll",
"llweiiyeeyiyeweyew<$lllllllllll",
"llwwyyeeyyyiewwye0$<lllllllllll",
"llw9eeetteyeyw99:9:3lllllllllll",
"llw:99www9::::;======llllllllll",
"llw00&%::=+*o=+-=9uw9:===llllll",
"llllll=w9:=-9w99weeeye9=lllllll",
"lllllweyy99eyyetuer+=:::999llll",
"llweeypieweipaeweir:==::::99lll",
"lweyipie:wyapiew::99::9weyy99ll",
"wew:w:w::weiiew:;=::w9weeiyy9ll",
"we=::===::weyw:;:www:9weyyai9ll",
"lel:=:9w::;ww:;:weeww99wyyyi9ll",
"lll:wyeeew:;::wweyyew999eiiy99l",
"ll:weieeeew::wweeyyerw99riaye9l",
"ll:weiiyeewwwweyiiyeerww9eaye9l",
"ll:weiyyyeweweyyiyyeeew9wyiee9l",
"l:w:eyieeyyeeyiayyyyeerw:yeee99",
"l-w:eeyyeeyyyiaiyyyyyeewwyee99l",
"::weweeyeyyiiyiyyeyiyeerweye99l",
":wee:weyyyiiyyyyeyyiyer9reeew9l",
":9we::weyyiyyyyeeyyieew:9wrrr:9",
"::ww:=:weyiyyeeeyyyiyr:::::999w",
"l:::::=:eyiyeeeyyiiyew:$<<3<3<l",
"ll3<<::=wyyyeeeyiiyer:w$<36366l",
"ll373<::weyyeeeyyieww:w6367673l",
"l33873:w:eyyyeeeyyew:wwr67887ll",
"l37f86:9wreyyeeeyew::www76887ll",
"l38g86:9w:reyeeyyew:wwrwe78f8ll",
"l68f86<:w;weyyeyiewwreerwe7f8ll",
"l68f86<:9=weyyyeyewreyewre78f7l",
"l68f86<99:weyiyyyyeeyerwr688f8l",
"l68887::w::eyiyyyyyyyeewr78ff8l",
"l68886:we9:eyiiyyyyyierwr78ff8l",
"l68871weew;eypiiyyyyyyewr78ff8l",
"l68863wyyw;eippiyyyyiiewr78ff8l",
"l6873weiyeweyipiyyyiiiyer78ff8l",
"l7873eiiiewweipiyeyipiiye788f8l",
"l8f73eiiiye:eyiiyeyippiye68ff8l",
"ldf73eiaiyerreyiyeyippiyer7ff8l",
"lhf73eiaiiyeeeyieeyippieer7ff8l",
"lff73eiaaiiyreyyeyipapieer7ffll",
"l7f863yikaiyereeeyipapieew7fhll",
"lldf763iaaiieeeeeyipapiyrw7ffll",
"llhf763yiaiyieeeeyipjpyrw68f7ll",
"lldf736yiiiyyyereyipapew67fdlll",
"ll7f7<6eyiiyyyyreeipppye67fhlll",
"lllf7l6wyiiieeeweeyppie637fdlll",
"lll77l:weiyiyerweyyipie6<7f7lll",
"llll7l=wwyyyyewweyyyiie6w7fllll",
"llll63=weyeyerweyyiiiyyw977llll",
"lllll3=9wweerwwreyyyiyew97lllll",
"llllll+===ww:::weyyiiyew36lllll",
"llllllw=$<<9:-:wreyiiye93llllll",
"llllll=l3331:::9weyiiiyw9llllll",
"llllllll66663<::9eyyiyyew9lllll",
"llllllll677763;==9eeyyyew:lllll",
"llllllll7888761;;=99weyew:lllll",
"llllllll78f8872,9<::9w9:==lllll",
"llllllll67f887291311::-===lllll",
"lllllllll7ff876913663<==Xllllll",
"lllllllll7ff8761137761$=Xllllll",
"lllllllll78f87631377731$=llllll",
"lllllllll67f8761<1677611=llllll",
"llllllllll7f8761l637761l=llllll",
"llllllllll688761ll66761llllllll",
"llllllllll677761ll66763llllllll",
"lllllllllll67721ll16763llllllll",
"lllllllllll6761lll1674<llllllll",
"lllllllllll6761lll1373lllllllll",
"lllllllllll67621ll1673lllllllll",
"lllllllllll67731<l<676lllllllll",
"lllllllllll7763<1<3687lllllllll",
"lllllllllll7631<136787lllllllll",
"lllllllllll8763336788flllllllll",
"lllllllllllf87643678fglllllllll",
"lllllllllllf87643678fglllllllll",
"lllllllllllg8762l6678flllllllll",
"lllllllllllf876ll36788lllllllll",
"lllllllllll8776lll36786llllllll",
"llllllllll78762lll36787llllllll",
"llllllllll8762llll367873lllllll",
"lllllllll7872lllll367873lllllll",
"lllllllll774lllllll67673lllllll",
"lllllllllllllllllll36<3<lllllll",
"llllllllllllllllllll3<lllllllll"
};
