/* XPM */
static char *_2[] = {
/* columns rows colors chars-per-pixel */
"61 31 49 1 ",
"  c #1E371E",
". c #3A3319",
"X c #223322",
"o c #273C27",
"O c #2B3827",
"+ c #662101",
"@ c #453F2A",
"# c #2D4025",
"$ c #2E4425",
"% c #334B23",
"& c #344D2D",
"* c #355722",
"= c #5D4E0E",
"- c #68570B",
"; c #746107",
": c #5B4326",
"> c #53472C",
", c #674027",
"< c #604C33",
"1 c #6D5536",
"2 c #7B5C3C",
"3 c #416225",
"4 c #4C6C2A",
"5 c #5C7F36",
"6 c #434343",
"7 c gray34",
"8 c gray39",
"9 c gray43",
"0 c #777777",
"q c #821600",
"w c #8B7300",
"e c #814F30",
"r c #866741",
"t c #976E45",
"y c #A0764A",
"u c #AD7F4E",
"i c #65893C",
"p c #6D9242",
"a c #9A8500",
"s c #A89600",
"d c #B7A800",
"f c #B78C58",
"g c #C49A69",
"h c #848484",
"j c #939393",
"k c #A2A2A2",
"l c #D5AE80",
"z c #E3B490",
"x c None",
/* pixels */
"xxxxxxxxxxxxxxxxxxxxxxxx7exxxxxxxxxxxxxxxxxxxxxxxxxxxxxxxxxxx",
"xxxxxxxxxxxxxxxxxxxxxxxtffyexxxxxxxxxxxxxxxxxxxxxxxxxxxxxxxxx",
"xxxxxxxxxxxxxxxxxxxxxx:2ryuly7xxxxxxxxxxxxxxxxxxxxxxxxxxxxxxx",
"xxxxxxxxxxxxxxxxxxxxxx:112ryygg2xxxxxxxxxxxxxxxxxxxxxxxxxxxxx",
"xxxxxxxxxxxxxxxxxxxxxx@::<111ry+q+exxxxxxxxxxxxxxxxxxxxxxxxxx",
"xxxxxxxxxxxxxxxxxxxxxx:yfy>,,<<qtyfuurexxxxxxxxxxxxxxxxxxxxxx",
"xxxxxxxxxxxxxxxxxxxxxx2ryuffe<++22yfllglztxxxxxxxxxxxxxxxxxxx",
"xxxxxxxxxxxxxxxxxxxxxx<11rryugye:,2tulu<<@zxxxxxxxxxxxxxxxxxx",
"xxxxxxxxxxxxxxxxxxxxxx<<112ruug+++e2ul1r@@zuxxxxxxxxxxxxxxxxx",
"xxxxxxxxxxxxxxxxxxxxxx@@,,,<22+qttu,<fr<@12y1gxxxxxxxxxxxxxxx",
"xxxxxxxxxxxxxxxxxxxxxx334444>,+2tyfguy1@t>2<@1zu.xxxxxxxxxxxx",
"xxxxxxxxxxxxxxxxxxx083p5444444+,e2yugl<tu2r@@f2y1xxxxxxxxxxxx",
"xxxxxxxxxxxxxxxxxxxhh083454444444,etfyr<@1ytr>2*xxxxxxxxxxxxx",
"xxxxxxxxxxxxxxxxxxxhhkh003454444333,t1<@@f2111**xxxxxxxxxxxxx",
"xxxxxxxxxxxxxxxxxx*44380hkhh98ip5333<g@tr>1**%%%xxxxxxxxxxxxx",
"xxxxxxxxxxxxxxxxxxxx%*43*0hhh05433***<tut1%%%#OOxxxxxxxxxxxxx",
"xxxxxxxxxxxxxxxxxx2r22%*433*00i*******%%%#OOO280xxxxxxxxxxxxx",
"xxxxxxxxxxxxxxxXXX<112222r2%5p%%%##OO<rtr200hkhhxxxxxxxxxxxxx",
"xxxxxxxxxxxxoo$$oo<1111111222%##O<122t2800kkh081oo11111111xxx",
"1t1xxxxxxxxoo  o$$><<<111111112222tyu80hhkh082rrooa-yyyyyt221",
"1ut1xxxxxxxo $$o  @@@><<<1111111122ry0khh012r1<ooosaa--uyyt22",
"1uut2111111   =ooo$$o o$$o@@>><<<111y22tr1oooooooosaaaass-xxx",
"xyuuuyyyyyy   aw==  $$o  $$$oo@@>><<<y1<oooooooooosasss   xxx",
"x1ruyyyyttt   ;aww  oo$$$  o$$oooo@>><oooooooooooods-  66xxxx",
"xx1ryyytttttttoo;;  a=   oo$$o  $$$oooooooo$$   6668900kkxxxx",
"xxxxtuyyttttttttoo  ;w      o$$$  o$$oo$$$   67799900hhjjk$xx",
"xxxx11ruyytttttttt  o=        oo$$ &%&    67890000hh000$$ooxx",
"xxxxxxx11tu111tttttttt            o.6790000hh088$$oooxxxxxxxx",
"xxxxxxxxxxxxx1rttttttttyr         o.600hhh08$$ooooxxxxxxxxxxx",
"xxxxxxxxxxxxxx:112tttut2222       o.6h088$$oooxxxxxxxxxxxxxxx",
"xxxxxxxxxxxxxxxxxxxx:::11221<:xx   .$ooxxxxxxxxxxxxxxxxxxxxxx"
};
