/* XPM */
static char *_3[] = {
/* columns rows colors chars-per-pixel */
"71 23 62 1 ",
"  c gray9",
". c #1B1B1B",
"X c gray12",
"o c #3A3319",
"O c #232323",
"+ c gray15",
"@ c #282828",
"# c #2C2C2C",
"$ c #2E2C2E",
"% c #322D22",
"& c #3D3626",
"* c #363228",
"= c #2F3B3C",
"- c #303032",
"; c #35353B",
": c #3A3A3A",
"> c #5C2103",
", c #4B2F17",
"< c #4A271B",
"1 c #57371B",
"2 c #662101",
"3 c #6F2200",
"4 c #633F1F",
"5 c #412921",
"6 c #423629",
"7 c #453F2A",
"8 c #4F3F2B",
"9 c #5B4326",
"0 c #53472C",
"q c #674027",
"w c #704628",
"e c #604C33",
"r c #6D5536",
"t c #7B5C3C",
"y c #3D3D43",
"u c #2D4848",
"i c #434343",
"p c #4E4E4E",
"a c #444450",
"s c gray34",
"d c gray39",
"f c gray43",
"g c #777777",
"h c #72727F",
"j c #930C04",
"k c #821600",
"l c #9A1808",
"z c #985D3F",
"x c #9F633F",
"c c #866741",
"v c #976E45",
"b c #A56446",
"n c #A0764A",
"m c #AD7F4E",
"M c #B78C58",
"N c #37619A",
"B c #447CC0",
"V c #848484",
"C c #939393",
"Z c #A2A2A2",
"A c #B9B9B9",
"S c None",
/* pixels */
"SSSSSSSSSSSSSSSSSSSSSSSSSSSSSSS%76&&&&tvcmmcSSSSSSSSSSSSSSSSSSSSSSSSSSS",
"SSSSSSSSSSSSSSS%&%SSS%**&&7&*@&0rtttr&rcmtcmSSSSSSSSSSSSSSSSSSSSSSSSSSS",
"SSSSSSSSSSSS@%&77&@&&70ee00&0rtvvvvzr0*tv&8cSSSSSSSSSSSSSSSSSSSSSSSSSSS",
"SSSSSSSSSSS%&707&@&70ep00%&etzmmMnMxvt%0v6&rtSSSSSSSSSSSSS@@SSSSSSSSSSS",
"SSSSSSSSSS%&07&&@&0eee0:&8ecvmMMMmbct060v660rtSSSSSSSSSS@X+@@SSSSSSSSSS",
"SSSSSSSSS@7007&7070pu0y;#etvvbmnnbvct0%8ce88rtSSSSSS@@++@@@OOX@@SSSSSSS",
"SSSSSSSSS70*7&&==:=y:=7%6tzbmbbvcccbc8%%0c00tmX  X XO+@@@+OX++OXSSSSSSS",
"SSSSSSSS@7&@X@#&:&%OXXX%6tvMmnzttttre%<%8rcvm0 XOOOOOO+@OX++@++O@SSSSSS",
"SSSSSSSS@&@XXXXXXXXXOO@.8rvMMmvtttrq,SSSO%006OO+@@@OOO@O+@@@+OOO@SSSSSS",
"Sp:SSSSSO%XXXOO@O@O@@%.*8etmmmvctrr1oee6S#66@@@@@+OOO+@@@+XXXXX  @SSSSS",
"py-#@XSOX@OXXXOO@0ttr%6e0ervbmvztre,%80et&$@@@+@+OXX+@@+OXXX+OXOOX@SSSS",
"SOXXO@OXXXO%&OXX0t*O%,ettttvbmvctrq,%000r0$$@@+++OO+@@+OO++@@+++X@O@SSS",
"SSSSSXXXSS@OX..S6e.X*8tcctzbvccrrwq,<0rt0*@$$@+O+O+@@OO+@@@+OO+XOXXXSSS",
"SSSSSSSSSSSSSSSS&7r8X,rtrri:i0rrewq*%t&O@*O@$@@+O+O+@@@@@O@+XXXX+OXO@SS",
"SSSSSSSSSSSSSSSS*7*&e0*88&evt989qq,%c&OO@@XO@e@@+XO++@O@O@@++OO+XXO@@@S",
"SSSSSSSSSSSSSSSS%7*%@&0rrcve66*61,*<rc0&O  er6@@@+XOOOOO$@+@@@O@+X+@@@O",
"SSSSSSSSSSSSSSSSO%O@60e%.@606@.:y%SSr0ertte06*O O@+XXO@$@+@SS@ X@@@@SSS",
"SSSSSSSSSSSSSSSSSO&06%O.SS.@0.pd@ySSe0ee08866*    @OX+@@@SSSdZhsSSSSSSS",
"SSSSSSSSSSSSSSSSSSSSSSSSSSSSOdS#d@yS@*8e086*@@SSSS@X@O@SSSSZVBNhChSSSSS",
"SSSSSSSSSSSSSSSSSSSSSSSSSSSSS@gySSp#SS@ACCCVCCVCCCVVfffVfVVVl3djk3hSSSS",
"SSSSSSSSSSSSSSSSSSSSSSSSSSSSSS@pgs#SSSSVddsspddsdssppp:p:p:a3>dk32dSSSS",
"SSSSSSSSSSSSSSSSSSSSSSSSSSSSSSSSOOSSSSSSSSSSSSSSSSSSSSSSSSSVVBNhhdSSSSS",
"SSSSSSSSSSSSSSSSSSSSSSSSSSSSSSSSSSSSSSSSSSSSSSSSSSSSSSSSSSSSdhdsSSSSSSS"
};
