/* XPM */
static char *_5[] = {
/* columns rows colors chars-per-pixel */
"63 31 40 1 ",
"  c #1E371E",
". c #3A3319",
"X c #223322",
"o c #273C27",
"O c #2B3827",
"+ c #453F2A",
"@ c #2D4025",
"# c #2E4425",
"$ c #334B23",
"% c #344D2D",
"& c #355722",
"* c #5D4E0E",
"= c #68570B",
"- c #746107",
"; c #53472C",
": c #604C33",
"> c #6D5536",
", c #7B5C3C",
"< c #416225",
"1 c #4C6C2A",
"2 c #5C7F36",
"3 c #434343",
"4 c gray34",
"5 c gray39",
"6 c gray43",
"7 c #777777",
"8 c #8B7300",
"9 c #866741",
"0 c #976E45",
"q c #A0764A",
"w c #AD7F4E",
"e c #65893C",
"r c #6D9242",
"t c #9A8500",
"y c #A89600",
"u c #B7A800",
"i c #848484",
"p c #939393",
"a c #A2A2A2",
"s c None",
/* pixels */
"sssssssssssssssssssssssssssss&<<<&sssssssssssssssssssssssssssss",
"ssssssssssssssssssssssss&<<1111111<<&ssssssssssssssssssssssssss",
"sssssssssssssssssss&<<111111111111111<<&sssssssssssssssssssssss",
"ssssssssssssss&<<11111111111111111111111<<&ssssssssssssssssssss",
"ssssssssss<1r211111111111111111111111111111<<&sssssssssssssssss",
"sssssssssss75<1r2111111111111111111111<<<<<1rrr1<ssssssssssssss",
"sssssssssssii775<1r21111111111111<<<<<112rr211<&$ssssssssssssss",
"sssssssssssiiaai775<12211111<<<<<112rr211<<<<<&&$ssssssssssssss",
"ssssssssss<&57iiaai775<12<<<112rr2<<<<<&&&&&&&&&$ssssssssssssss",
"ssssssssss&11<&57iiaii765err2<<<<<&&&&&&&&&&&$$$@ssssssssssssss",
"ssssssssssss$&11<&57iiai721<<<&&&&&&&&&&$$$$@@OOOssssssssssssss",
"ssssssssss,9,,,$&11<<&577e&&&&&&&&&$$$$@@OOO:,57sssssssssssssss",
"ssssssssss:>,990,,$&12<<<r&&&&$$$$@@@OO:,9,577iisssssssssssssss",
"ssssssXXXo:>>,,,,,99,$&2r$$$$@@@OO:,909,577iaaiisssssssssssssss",
"sooo###ooo:>>>>>>>>>,,,,$@@OO:>,,,09,577iaaii75>,oossssssssssss",
"ooo   o###;:::>>>>>>>>>>>,,,,,0qqw567iiaii75>,99>oot==sssssssss",
"o  ###o  o+++;;::::>>>>>>>>>>,,,9q7iaii75>,99>:ooooyttt==ssssss",
"    oo###o  o##+++;;::::>>>>>>>>>0775>,,99>:oooooooutttttt==sss",
"    **ooo###o  o###o++;;;::::>>>>q,,,09>:ooooooooooytttttyyy=ss",
"    tt8**   ###o  o###ooo++;;;::::q0>:oooooooooooooyttyyy=   ss",
"    --t88   ooo###o  o###ooooo++;;:oooooooooooooooouyy=   33sss",
"s   -----   *ooooo###o  o###oooooooooooooooooo###     3556ppsss",
"ssssooo--   t**    oo###o  o###ooooooooooo###    33355677paasss",
"sssssssoo   -88       oo###o  o###ooo###     3445666777iiippa##",
"ssssssssss  o**          oo### %%$%%    33455677777iii777###ooo",
"sssssssssssssoo             oo#%%   3555667777iii777###ooooosss",
"sssssssssssssss               o..344677777iii755###oooossssssss",
"ssssssssssssssssss            o..3777iii775###ooooossssssssssss",
"sssssssssssssssssssss         o..3ii755###oooosssssssssssssssss",
"ssssssssssssssssssssssss      o...###ooooosssssssssssssssssssss",
"sssssssssssssssssssssssssss    ..#ooossssssssssssssssssssssssss"
};
