/* XPM */
static char *_1[] = {
/* columns rows colors chars-per-pixel */
"48 79 83 1 ",
"  c #131313",
". c gray9",
"X c #1B1B1B",
"o c gray12",
"O c #1E371E",
"+ c #3A3319",
"@ c #232323",
"# c #282828",
"$ c #282F28",
"% c #2C2C2C",
"& c #2E2C2E",
"* c #322D22",
"= c #392B27",
"- c #223322",
"; c #273C27",
": c #2B3827",
"> c #263328",
", c #3D3626",
"< c #363228",
"1 c #3F2F38",
"2 c #2F3B3C",
"3 c #303032",
"4 c gray20",
"5 c #35353B",
"6 c #3A3A3A",
"7 c #453C15",
"8 c #423629",
"9 c #453F2A",
"0 c #4F3F2B",
"q c #2D4025",
"w c #2E4425",
"e c #344D2D",
"r c #355722",
"t c #3D5935",
"y c #5D4E0E",
"u c #514512",
"i c #68570B",
"p c #746107",
"a c #7F6A04",
"s c #5B4326",
"d c #53472C",
"f c #674027",
"g c #604C33",
"h c #6D5536",
"j c #3D3D43",
"k c #4B3447",
"l c #563A4D",
"z c #2D4848",
"x c #285353",
"c c #4E4E4E",
"v c #444450",
"b c #4B4B55",
"n c gray34",
"m c #446343",
"M c #4D6E4E",
"N c #555560",
"B c #5E5E6D",
"V c #654160",
"C c #6D4566",
"Z c #7F4D6A",
"A c gray39",
"S c gray43",
"D c #676774",
"F c #777777",
"G c #72727F",
"H c #8B7300",
"J c #814F30",
"K c #8F5733",
"L c #9B5F3B",
"P c #8F5477",
"I c #65893C",
"U c #5D825E",
"Y c #6B906D",
"T c #7A7A89",
"R c #9B6282",
"E c #AF6F90",
"W c #BC7F9E",
"Q c #848484",
"! c #878795",
"~ c #939393",
"^ c #91919F",
"/ c #A2A2A2",
"( c None",
/* pixels */
"(((((((((((((((((((((((((((((6cASaAy((((((((((((",
"(((((((((((((((((((((((((((6cAGETPPAb(((((((((((",
"((((((((((((((((((((((((((ciG!!!!GGLAc((((((((((",
"(((((((((((((((((((((((((6nZP!~/^!LGSJc(((((((((",
"(((((((((((((((((((((((((jiAjD!//~PGLAic((((((((",
"(((((((((((((((((((((((((6cjnG!~~WGLSAKi((((((((",
"(((((((((((((((((((((((((+63jAS!!TGGSaGTi(((((((",
"(((((((((((((((((((((((((54jnbnGGGGSL!~YGc((((((",
"(((((((((((((((((((((((((5#cnATSTSATQFaSyA((((((",
"(((((((((((((((((((((((((;XlyP^W~QTGAA6Uci((((((",
"(((((((((((((((((((((((((3&juZGTTSAAS3 i4c((((((",
"(((((((((((((((((((((((((#jjkPc6#4cST  m.n((((((",
"((((((yAaSAc6((((((((((((X36kG3   #n!3 j.n((((((",
"(((((bAPPTEGAc6((((((((((nXj1n#  .3F!nX#3V((((((",
"((((cASSF!!!TGic(((((((((n&c#jc ..5!jA3Xcj((((((",
"(((cJSSR!^/~!PZn6((((((((t(AjlA3.XjS.6cCnk((((((",
"((ciAPGP~//!TTAij((((((((u&nnjSj35TcXXjAV%((((((",
"((iKASPF/!~RGSAc6((((((((jOvAjcAncnCXkfj6&((((((",
"(iTGaSGGT!TTGDn5+((((((((7&jA#6nADGnBfc=#%((((((",
"cGQ~!LSGGTTTSAn35((((((((6(cUc(cBcGdA3V#3#((((((",
"AynaFQTASTTRAnc#5((((((((j(iIS(6h3jj(k#46#((((((",
"ic#6nAGTQ~/^PylX5((((((((&6cFFA0F6,n(j#c6(((((((",
"c4.@jSAAST^TPuj&4(((((((((67MSFSTjSjSMnj&(((((((",
"n#..4TSc 6YcPkj4#((((((((&6cwjcATSnSSU6u#(((((((",
"n#XXj!n#.#F3Gkj&X(((((((((jN(#@=@6j#jU(j((((((((",
"V5XXn!FX.$U#n1cX3(((((((((jN(#@8*.%#(A(u((((((((",
"jc36Aj!5XXp3j#A(w((((((((6jy((@s*.#3(i(&((((((((",
"knCc6.SjXXMbljA(6((((((((e6j((8g@ (%(m(j((((((((",
"(VAjXXcT5XnSvnAv(6(((((((u(y(<9t@@(((c(+((((((((",
"(cjfkXCncASbccSc(w(((((((v(z(<e9*((4(j(&((((((((",
"(A=cfBnGDAnn%cSn((u((((((t(>(<t8#((((y(&((((((((",
"(m#V4A0B6nj6=6SA((6((((((n(#(8tc#((4(c(%((((((((",
"(y4nXXc#j(@*cjAS(((c(((((n(&(8gA@((((j((((((((((",
"(e#6@XX#((@Accnc<((j((((jnAimtdm@((&(((&((((((((",
"(c(n#X(#((cScjj0<(((ceiAMe((<u9M(((((((&((((((((",
"(z-j3#(#cTAcj@0s08((yA(((n((<z8A(((&((((((((((((",
"(((%cAcTjcUj(X*0r8<n(n(((Ayvrg8m((((((((((((((((",
"((((6pTncjI((X@8ndc6((mApi((,y<c((((((((((((((((",
"(((((U6j6(H(((@*ndt<(pn((m((7c+j((((((((((((((((",
"(((((m(#((H((((@m8jjn(jnivcu9z+t((((((((((((((((",
"(((((c(%((A(((((c8jc8((m(c(<u2*t((((((((((((((((",
"(((((u(#((i(((((j#4ej9ny(ncvxw#j((((((((((((((((",
"(((((k((((c(((((t(#57e4(cn(7u;#c((((((((((((((((",
"((((((((((6(((((e(@*7u08jp(wc<@j((((((((((((((((",
"((((((((((j(((((w((@*5c,(c49e<((((((((((((((((((",
"((((((((((6(((((j(((@<jj9,<7w*((((((((((((((((((",
"((((((((((((((((6((((@*yd<,dq#((((((((((((((((((",
"((((((((((((((((6(((((@cjc<gq-((((((((((((((((((",
"(((((((((((((((((((((((t,j,d<@((((((((((((((((((",
"(((((((((((((((((((((((e,jc9<@((((((((((((((((((",
"(((((((((((((((((((((((j@<ej<(((((((((((((((((((",
"(((((((((((((((((((((((((@jw9<((((((((((((((((((",
"(((((((((((((((((((((((((**9v,((((((((((((((((((",
"(((((((((((((((((((((((((*@8vg,(((((((((((((((((",
"((((((((((((((((((((((((<*8@8c,<((((((((((((((((",
"((((((((((((((((((((((((<28*#n98<(((((((((((((((",
"((((((((((((((((((((((((<0+*@m7d<(((((((((((((((",
"((((((((((((((((((((((((,d*@(c7u9,((((((((((((((",
"((((((((((((((((((((((((,z*@(t@7y,<(((((((((((((",
"(((((((((((((((((((((((<2d*X(j(<9,9(((((((((((((",
"(((((((((((((((((((((((<92*X(6(@*d7<((((((((((((",
"(((((((((((((((((((((((:e,>((j((@9u9,(((((((((((",
"(((((((((((((((((((((((2z<#((j(((*;r,<((((((((((",
"(((((((((((((((((((((((;e<@((6(((@<ww;<(((((((((",
"(((((((((((((((((((((((2d>@(((((((#<79<(((((((((",
"((((((((((((((((((((((<8w>(((((((((@7d9,((((((((",
"((((((((((((((((((((((<52-((((((((((@+u,((((((((",
"((((((((((((((((((((((8jq#(((((((((((@798(((((((",
"((((((((((((((((((((((5j2@((((((((((((<78<((((((",
"((((((((((((((((((((((jj<@((((((((((((@8u9((((((",
"(((((((((((((((((((((<zk:((((((((((((((@7rw(((((",
"(((((((((((((((((((((<ke<(((((((((((((((<7d9((((",
"(((((((((((((((((((((<jj*(((((((((((((((@<77<(((",
"(((((((((((((((((((((,j2#((((((((((((((((@9dw<((",
"(((((((((((((((((((((9d<@(((((((((((((((((@9u8((",
"(((((((((((((((((((((8d<@(((((((((((((((((*80d8(",
"((((((((((((((((((((((84(((((((((((((((((((@89q<",
"((((((((((((((((((((((((((((((((((((((((((((@8d4",
"(((((((((((((((((((((((((((((((((((((((((((((34("
};
