/* XPM */
static char *_3[] = {
/* columns rows colors chars-per-pixel */
"16 86 40 1 ",
"  c gray15",
". c #322D22",
"X c gray20",
"o c #3A3A3A",
"O c #453F2A",
"+ c #514512",
"@ c #746107",
"# c #53472C",
"$ c #604C33",
"% c #6D5536",
"& c #7B5C3C",
"* c #434343",
"= c #4E4E4E",
"- c gray34",
"; c gray39",
": c gray43",
"> c #777777",
", c #8B7300",
"< c #8F5733",
"1 c #8C5637",
"2 c #C65F1F",
"3 c #CD6B23",
"4 c #D47727",
"5 c #976E45",
"6 c #A0764A",
"7 c #AD7F4E",
"8 c #9A8500",
"9 c #C5B900",
"0 c #DB832B",
"q c #E28F2E",
"w c #EA9B32",
"e c #F1A736",
"r c #B78C58",
"t c #FFAF53",
"y c #C49A69",
"u c #FFC370",
"i c #939393",
"p c #FFD78D",
"a c #FEFFC7",
"s c None",
/* pixels */
"ssssssssssssssss",
"ssssssssssssssss",
"ssssssssssssssss",
"ssssssssssssssss",
"ssssssssssssssss",
"ssssssssssssssss",
"ssssssssss2sssss",
"ssssssesssssssss",
"sssssspessssssss",
"sssssspessssssss",
"ssssssesssssssss",
"ssssssssssssssss",
"sssssspssessssss",
"ssssssapsessssss",
"ssssssapepssssss",
"sssssspepppsssss",
"sssssseepapsssss",
"sssssssppappesss",
"ssswsssaepapesss",
"sssusssapppeesss",
"sssuwspaapppesqs",
"ssswwuaaapappse0",
"sssseuaaaaapes3s",
"sisseaiiiaap0iss",
"s>ssuu>>>ppes>ss",
"s;*qee;;;te0s;ss",
"s---;;---;;--*ss",
"ss=*q4===4q*=sss",
"ss**q4***4q$*sss",
"ssso14ooo4<ossss",
"sss*o4XXX4X*ssss",
"ssss;>i>;>;sssss",
"ssss*;:;*;-sssss",
"ssssss7yysssssss",
"ssssss7r7sssssss",
"ssssss775sssssss",
"ssssss565sssssss",
"ssssss&5&sssssss",
"sssss@898@ssssss",
"sssss+@,@+ssssss",
"ssssss###sssssss",
"ssssss$$$sssssss",
"ssssss%%%sssssss",
"ssssss$&$sssssss",
"ssssss$%%sssssss",
"ssssss#%$sssssss",
"ssssss#$$sssssss",
"ssssss#%#sssssss",
"ssssss#$#sssssss",
"ssssss#$Osssssss",
"ssssss#$Osssssss",
"ssssss##Osssssss",
"ssssss#$Osssssss",
"ssssssO#Osssssss",
"ssssssO#Osssssss",
"ssssssO#Osssssss",
"ssssssO#Osssssss",
"ssssssOOOsssssss",
"ssssssO#Osssssss",
"ssssssOOOsssssss",
"ssssssO#Osssssss",
"ssssssO#Osssssss",
"ssssssO#Osssssss",
"ssssssO#Osssssss",
"ssssssO#Osssssss",
"ssssssOOOsssssss",
"ssssssOOOsssssss",
"ssssssO#Osssssss",
"ssssssOOOsssssss",
"ssssssO#Osssssss",
"ssssssO#Osssssss",
"ssssssO#Osssssss",
"ssssssO#Osssssss",
"ssssssO#Osssssss",
"ssssssOOOsssssss",
"ssssssO#Osssssss",
"ssssssOOOsssssss",
"ssssssO#Osssssss",
"ssssssOOXsssssss",
"ssssssOOXsssssss",
"ssssssOOOsssssss",
"ssssssOOOsssssss",
"ssssssOOXsssssss",
"ssssssOXXsssssss",
"ssssssOXXsssssss",
"ssssss.  sssssss"
};
