/* XPM */
static char *_6[] = {
/* columns rows colors chars-per-pixel */
"58 21 56 1 ",
"  c #131313",
". c gray9",
"X c #1B1B1B",
"o c gray12",
"O c #3A3319",
"+ c #232323",
"@ c #282828",
"# c #2B2E2D",
"$ c #2C2C2C",
"% c #2E2C2E",
"& c #322D22",
"* c #392B27",
"= c #3D3626",
"- c #363228",
"; c #382D34",
": c #3F2F38",
"> c #2C3031",
", c #2F3B3C",
"< c #303032",
"1 c #35353B",
"2 c #3A3A3A",
"3 c #53200A",
"4 c #4A271B",
"5 c #662101",
"6 c #6F2200",
"7 c #412921",
"8 c #423629",
"9 c #453F2A",
"0 c #4F3F2B",
"q c #5D4E0E",
"w c #514512",
"e c #68570B",
"r c #746107",
"t c #53472C",
"y c #704628",
"u c #7A4B2B",
"i c #604C33",
"p c #6D5536",
"a c #7B5C3C",
"s c #3D3D43",
"d c #323E49",
"f c #4B3447",
"g c #563A4D",
"h c #344557",
"j c #4E4E4E",
"k c #444450",
"l c #4B4B55",
"z c gray34",
"x c #555560",
"c c gray39",
"v c gray43",
"b c #676774",
"n c #72727F",
"m c #930C04",
"M c #9B5F3B",
"N c None",
/* pixels */
"NNNNNNNNNNNNNNNNNNNNNNNNNNNNNNNNNNNNNNNNNNNNNNNNNNN++@%2sN",
"NNNNNNNNNNNNNNNNNNNNNNNNNNNNNNNNNNNNNNNNNNNNNNN+@%-2s:gs<+",
"NNNNNNNNNNNNNNNNNNNNNNNNNNNNNNNNNNNNNNNNNNNN+@>2df6m6<+XNN",
"NNNNNNNNNNNNNNNNNNNNNNNNNNNNNNNNNNNNNNNN++@##>>,h:<+XNNNNN",
"NNNNNNNNNNNNNNNNNNNNNNNNNNNNNNNNNNNNN++%>>>dhlh;+XNNNNNNNN",
"NNNNNNNNNNNNNNNNNNNNNNNNNNNNNNNNNN@+@3;32hh,<oXNNNNNNNNNNN",
"NNNNNNNNNNNNNsNNNNNNNNNNNNNNNN++%18546gzk<+XNNNNNNNNNNNNNN",
"NNNNNNNNNNNNNzNNNNNNNNNNNNN++@@%;75uml<+XNNNNNNNNNNNNNNNNN",
"NNNNNNNNNNNNNsvNNNNNNNN++%11sf2:6ms<+XNNNNNNNNNNNNNNNNNNNN",
"NNNNNNNNNNNNN2sncNNN++@@@@@#<sgs<+XNNNNNNNNNNNNNNNNNNNNNNN",
"NNNNNNNNNNNNN<@%hbx%+@@##>ddf<+XNNNNNNNNNNNNNNNNNNNNNNNNNN",
"NNNNNNNNNNNNNo@@%2hxl<+2ss1+XNNNNNNNNNNNNNNNNNNNNNNNNNNNNN",
"NNNNNNNNNNNNNO9tpt@@dzs@oXNNNNNNNNNNNNNNNNNNNNNNNNNNNNNNNN",
"NNNNNNNNNN<=tre=8&oX@,lnlxlsNNNNNNNNNNNNNNNNNNNNNNNNNNNNNN",
"NNNNNNN<1Oeq88&o+oXXo%2l>>@+NNNNNNNNNNNNNNNNNNNNNNNNNNNNNN",
"8yaN<8Ow0+O@.oo NNNN@@<2@+++NNNNNNNNNNNNNNNNNNNNNNNNNNNNNN",
"**tM2OoO+ oXXNNNNNNNNN@2@+oNNNNNNNNNNNNNNNNNNNNNNNNNNNNNNN",
"+OOti@ oXXNNNNNNNNNNNNNNNNNNNNNNNNNNNNNNNNNNNNNNNNNNNNNNNN",
"o+*=yo NNNNNNNNNNNNNNNNNNNNNNNNNNNNNNNNNNNNNNNNNNNNNNNNNNN",
"No+o0NNNNNNNNNNNNNNNNNNNNNNNNNNNNNNNNNNNNNNNNNNNNNNNNNNNNN",
"NNoo%NNNNNNNNNNNNNNNNNNNNNNNNNNNNNNNNNNNNNNNNNNNNNNNNNNNNN"
};
