/* XPM */
static char *_8[] = {
/* columns rows colors chars-per-pixel */
"47 25 46 1 ",
"  c gray6",
". c #131313",
"X c gray9",
"o c #1B1B1B",
"O c gray12",
"+ c #3A3319",
"@ c #232323",
"# c #282828",
"$ c #2B2E2D",
"% c #2C2C2C",
"& c #2E2C2E",
"* c #322D22",
"= c #392B27",
"- c #223322",
"; c #263328",
": c #3D3626",
"> c #382D34",
", c #3F2F38",
"< c #2C3031",
"1 c #2F3B3C",
"2 c #303032",
"3 c #35353B",
"4 c #3A3A3A",
"5 c #412921",
"6 c #423629",
"7 c #4F3F2B",
"8 c #5B4326",
"9 c #53472C",
"0 c #604C33",
"q c #6D5536",
"w c #7B5C3C",
"e c #3D3D43",
"r c #323E49",
"t c #4B3447",
"y c #563A4D",
"u c #344557",
"i c #4E4E4E",
"p c #444450",
"a c #4B4B55",
"s c gray34",
"d c #555560",
"f c #5E5E6D",
"g c gray39",
"h c #676774",
"j c #866741",
"k c None",
/* pixels */
"kkkkkkkkkkkkkkkkk#$<<#kkkkkkkkkkkkkkkkkkkkkkkkk",
"kkkkkkkkkkkkkkk#<3eae42%#kkkkkkkkkkkkkkkkkkkkkk",
"kkkkkkkkkkkkk#3epifipe42%#@kkkkkkkkkkkkkkkkkkkk",
"kkkkkkkkkkkk#3epadgsae322%##@kkkkkkkkkkkkkkkkkk",
"kkkkkkkkkkk####%234epp432%%##@kkkkkkkkkkkkkkkkk",
"kkkkkkk#4eigsa42%###%2e43%%234@kkkkkkkkkkkkkkkk",
"kkkkk23edhjfpe63::2%#@@*4+3*@@*@2%@kkkkkkkkkkkk",
"kkkk4iqdwfwq863:323222+*%*O@*479p76+3#@Okkkkkkk",
"kkke3%o  o#3a84+++22%%3#Oo#%*2:4,ee4:+22%#@@kkk",
"kk4@o     o@2e0:33334e2#%2eeyt3+#=#*+::*#e43#kk",
"k3@    . .kk@%39r14eu2O%<1ighat42e+2*%@4e2#@2@k",
"3@o. .... kkXXO%aeue%O@<1rpsdit4623+*:9*@oXXXo@",
"@%.....  ..XXXXO%ar2@@%234eeee4,22>#+72OXXXXooO",
"k@O..  .XXXXXXXX@e#@O@#%<<1rr432>%@%i3@XXXooXoo",
"kk@  .XXXXXXXXXX3<@oO###%%<22<<%%2#ep@....XXoXo",
"kkk@%XXXXoXoXoXo#OXXXO@$;$;$;;$$%@@i#XoOOoX.XXX",
"kkkk@&@ooXoooo#61%o..oOO@@##;$;##o%eXXXXXoOOOo#",
"kkkkk@22@ooO>,e#oO@@OXXXoOO@@#-@@X23.X.XoXoooo#",
"kkkkkk@2333e2#@oXXXoo@@OXXXoOO#-Oo3#X.XXXoXooOk",
"kkkkkkkkkk#@@OoXXkXXXOoo@;#@oXX.oX2@..XXoXooo#k",
"kkkkkkkkkkkkkkkkkkkOXoO#@ooO@%<41.Oo.X.XXoXo#kk",
"kkkkkkkkkkkkkkkkkkkkkkXoO@%#=**-@o4...X.XXo#kkk",
"kkkkkkkkkkkkkkkkkkkkkkkkkkXoO@#5*@2o.X.XoO#kkkk",
"kkkkkkkkkkkkkkkkkkkkkkkkkkkkkkOOOX@2..XO@kkkkkk",
"kkkkkkkkkkkkkkkkkkkkkkkkkkkkkkkkkkO#OO@kkkkkkkk"
};
