/* XPM */
static char *_[] = {
/* columns rows colors chars-per-pixel */
"45 89 49 1 ",
"  c #1B1B1B",
". c gray12",
"X c #3A3319",
"o c #232323",
"O c #282828",
"+ c #322D22",
"@ c #392B27",
"# c #3D3626",
"$ c #363228",
"% c #303032",
"& c #5C2103",
"* c #53200A",
"= c #4A271B",
"- c #662101",
"; c #6F2200",
": c #412921",
"> c #423629",
", c #453F2A",
"< c #4F3F2B",
"1 c #5B4326",
"2 c #53472C",
"3 c #674027",
"4 c #704628",
"5 c #7A4B2B",
"6 c #604C33",
"7 c #6D5536",
"8 c #7B5C3C",
"9 c #821600",
"0 c #9A1808",
"q c #A2240C",
"w c #A9300F",
"e c #B03C13",
"r c #B74817",
"t c #BE541B",
"y c #814F30",
"u c #8F5733",
"i c #9B5F3B",
"p c #C65F1F",
"a c #CD6B23",
"s c #866741",
"d c #976E45",
"f c #A56446",
"g c #A0764A",
"h c #AD7F4E",
"j c #F1A736",
"k c #B78C58",
"l c #C49A69",
"z c #CF9876",
"x c None",
/* pixels */
"xxxxxxxxxx5ttrrqxxxxxxxxxxxxxxxxxxxxxxxxxxxxx",
"xxxxxxxxxea5r41<5<xxxxxxxxxxxxxxxxxxxxxxxxxxx",
"xxxxxxxeaate<4<4pr;xxxxxxxxxxxxxxxxxxxxxxxxxx",
"xxxxxept5t4<4rattpty*xxxxxxxxxxxxxxxxxxxxxxxx",
"xxxx5r4ar441ya85iy3<;xxxxxxxxxxxxxxxxxxxxxxxx",
"xxxxwu<rp1<4tp5iyiy<-:xxxxxxxxxxxxxxxxxxxxxxx",
"xxxxty#4p<4patiu51<>X*xxxxxxxxxxxxxxxxxxxxxxx",
"xxx>65>y1y<y<$i6y<1X@Xxxxxxxxxxxxxxxxxxxxxxxx",
"xxx=4r<66y14>:<8<1<1@Xxxxxxxxxxxxxxxxxxxxxxxx",
"xxx>7r48ii4i7,=-u<>X>@xxxxxxxxxxxxxxxxxxxxxxx",
"xxx-6tysfhkzkd4=r*<>@>xxxxxxxxxxxxxxxxxxxxxxx",
"xxx-ey46iglzzh8<i@>@:Xxxxxxxxxxxxxxxxxxxxxxxx",
"xxx4766,6shkzhs6u>@X:@xxxxxxxxxxxxxxxxxxxxxxx",
"xxx-rsho6h6,7shs6@@X:@xxxxxxxxxxxxxxxxxxxxxxx",
"xxx=4zh+.z,+.O64i@>X@=xxxxxxxxxxxxxxxxxxxxxxx",
"xxx@4hzhiho+,4,<u<@::@xxxxxxxxxxxxxxxxxxxxxxx",
"xxx-1shiziudhth841X::Xxxxxxxxxxxxxxxxxxxxxxxx",
"xxx@1yhjhifhzpzh1<@:X:xxxxxxxxxxxxxxxxxxxxxxx",
"xxx-y6hzhifhzahs4&@X:Xxxxxxxxxxxxxxxxxxxxxxxx",
"xxx>u4s,,+hfhts7,:-X::xxxxxxxxxxxxxxxxxxxxxxx",
"xxxxu36i46ihfe71>-XX==xxxxxxxxxxxxxxxxxxxxxxx",
"xxxxr;41>@6ss441@-X:==xxxxxxxxxxxxxxxxxxxxxxx",
"xxxxrX1kkhii86,> XXX=xxxxxxxxxxxxxxxxxxxxxxxx",
"xxxxuX4466iu41,@XXXX=xxxxxxxxxxxxxxxxxxxxxxxx",
"xxxxyX4jkhs76,@.X:X:=xxxxxxxxxxxxxxxxxxxxxxxx",
"xxxx<X,hzd66,o. X=:@=xxxxxxxxxxxxxxxxxxxxxxxx",
"xxxxX-x,,>@+OO+.-:::=xxxxxxxxxxxxxxxxxxxxxxxx",
"xxxxXxxxx>><<339x:=:xxxxxxxxxxxxxxxxxxxxxxxxx",
"xxxx-xxxx+37q7>9xx==xxxxxxxxxxxxxxxxxxxxxxxxx",
"xxxxxxxxxx70w4x-xx==xxxxxxxxxxxxxxxxxxxxxxxxx",
"xxxxxxxxxx9901x0xxx=xxxxxxxxxxxxxxxxxxxxxxxxx",
"xxxxxxxxxx-=w>x-xxxxxxxxxxxxxxxxxxxxxxxxxxxxx",
"xxxxxxxxxx9$w,x9xxxxxxxxxxxxxxxxxxxxxxxxxxxxx",
"xxxxxxxxxx-+9;$9xxxxxxxxxxxxxxxxxxxxxxxxxxxxx",
"xxxxxxxxxx9=-w$-xxxxxxxxxxxxxxxxxxxxxxxxxxxxx",
"xxxxxxxxxx-O=w$xxxxxxxxxxxxxxxxxxxxxxxxxxxxxx",
"xxxxxxxxxx==$9>-xxxxxxxxxxxxxxxxxxxxxxxxxxxxx",
"xxxxxxxxxx-o=7>-xxxxxxxxxxxxxxxxxxxxxxxxxxxxx",
"xxxxxxxxxx=o=6,$xxxxxxxxxxxxxxxxxxxxxxxxxxxxx",
"xxxxxxxxxxxx=,2$xxxxxxxxxxxxxxxxxxxxxxxxxxxxx",
"xxxxxxxxxx-xO>99xxxxxxxxxxxxxxxxxxxxxxxxxxxxx",
"xxxxxxxxxx=x=>w>xxxxxxxxxxxxxxxxxxxxxxxxxxxxx",
"xxxxxxxxxx-xo99>xxxxxxxxxxxxxxxxxxxxxxxxxxxxx",
"xxxxxxxxxxxxo$2,xxxxxxxxxxxxxxxxxxxxxxxxxxxxx",
"xxxxxxxxxx=xx=,9$xxxxxxxxxxxxxxxxxxxxxxxxxxxx",
"xxxxxxxxxxxxx+>q$xxxxxxxxxxxxxxxxxxxxxxxxxxxx",
"xxxxxxxxxx-xxo>9>xxxxxxxxxxxxxxxxxxxxxxxxxxxx",
"xxxxxxxxxx9xx=$w#xxxxxxxxxxxxxxxxxxxxxxxxxxxx",
"xxxxxxxxxx-xxo$w,xxxxxxxxxxxxxxxxxxxxxxxxxxxx",
"xxxxxxxxxx=xxx=90$xxxxxxxxxxxxxxxxxxxxxxxxxxx",
"xxxxxxxxxxxxxx+,2$xxxxxxxxxxxxxxxxxxxxxxxxxxx",
"xxxxxxxxxxxxxxO96$xxxxxxxxxxxxxxxxxxxxxxxxxxx",
"xxxxxxxxxxxxxxo#2#xxxxxxxxxxxxxxxxxxxxxxxxxxx",
"xxxxxxxxxxxxxxo=6#xxxxxxxxxxxxxxxxxxxxxxxxxxx",
"xxxxxxxxxxxxxxx$2,$xxxxxxxxxxxxxxxxxxxxxxxxxx",
"xxxxxxxxxxxxxxx=,,$xxxxxxxxxxxxxxxxxxxxxxxxxx",
"xxxxxxxxxxxxxxx+>2#xxxxxxxxxxxxxxxxxxxxxxxxxx",
"xxxxxxxxxxxxxxxO>6#xxxxxxxxxxxxxxxxxxxxxxxxxx",
"xxxxxxxxxxxxxxxo$2#xxxxxxxxxxxxxxxxxxxxxxxxxx",
"xxxxxxxxxxxxxxxo=2,$xxxxxxxxxxxxxxxxxxxxxxxxx",
"xxxxxxxxxxxxxxxx=,,$xxxxxxxxxxxxxxxxxxxxxxxxx",
"xxxxxxxxxxxxxxxxO>2$xxxxxxxxxxxxxxxxxxxxxxxxx",
"xxxxxxxxxxxxxxxxo>2#xxxxxxxxxxxxxxxxxxxxxxxxx",
"xxxxxxxxxxxxxxxx=$6#xxxxxxxxxxxxxxxxxxxxxxxxx",
"xxxxxxxxxxxxxxxxo$2#$xxxxxxxxxxxxxxxxxxxxxxxx",
"xxxxxxxxxxxxxxxxx+2,$xxxxxxxxxxxxxxxxxxxxxxxx",
"xxxxxxxxxxxxxxxxx$,2$xxxxxxxxxxxxxxxxxxxxxxxx",
"xxxxxxxxxxxxxxxxx+#2#xxxxxxxxxxxxxxxxxxxxxxxx",
"xxxxxxxxxxxxxxxxxO#2#xxxxxxxxxxxxxxxxxxxxxxxx",
"xxxxxxxxxxxxxxxxxo$2,$xxxxxxxxxxxxxxxxxxxxxxx",
"xxxxxxxxxxxxxxxxxO$,,$xxxxxxxxxxxxxxxxxxxxxxx",
"xxxxxxxxxxxxxxxxxx+#2$xxxxxxxxxxxxxxxxxxxxxxx",
"xxxxxxxxxxxxxxxxxxO$2#xxxxxxxxxxxxxxxxxxxxxxx",
"xxxxxxxxxxxxxxxxxxo$2#xxxxxxxxxxxxxxxxxxxxxxx",
"xxxxxxxxxxxxxxxxxxo$,>xxxxxxxxxxxxxxxxxxxxxxx",
"xxxxxxxxxxxxxxxxxxx$,>$xxxxxxxxxxxxxxxxxxxxxx",
"xxxxxxxxxxxxxxxxxxx+>2$xxxxxxxxxxxxxxxxxxxxxx",
"xxxxxxxxxxxxxxxxxxxO>2>xxxxxxxxxxxxxxxxxxxxxx",
"xxxxxxxxxxxxxxxxxxxo>2>xxxxxxxxxxxxxxxxxxxxxx",
"xxxxxxxxxxxxxxxxxxxo$2,xxxxxxxxxxxxxxxxxxxxxx",
"xxxxxxxxxxxxxxxxxxxx$,,$xxxxxxxxxxxxxxxxxxxxx",
"xxxxxxxxxxxxxxxxxxxx+,2$xxxxxxxxxxxxxxxxxxxxx",
"xxxxxxxxxxxxxxxxxxxxO,2$xxxxxxxxxxxxxxxxxxxxx",
"xxxxxxxxxxxxxxxxxxxxO>2>xxxxxxxxxxxxxxxxxxxxx",
"xxxxxxxxxxxxxxxxxxxxo>2>xxxxxxxxxxxxxxxxxxxxx",
"xxxxxxxxxxxxxxxxxxxxx$,,$xxxxxxxxxxxxxxxxxxxx",
"&x-&--9q-&x-x-x--&q-&%>2>x&--x-xxxxxx--xxxxxx",
"xxxxxxxxxx-9q99&q9-q9--9&&qq9-9-9-x--xxx-xx--",
"xxxxx&x&x-x-x-x&x&x&&&x&&-xx&&--&x-xx-xxxxxxx"
};
