/* XPM */
static char *_0[] = {
/* columns rows colors chars-per-pixel */
"47 8 10 1 ",
"  c #392B27",
". c #5C2103",
"X c #53200A",
"o c #662101",
"O c #6F2200",
"+ c #412921",
"@ c #930C04",
"# c #821600",
"$ c #A2240C",
"% c None",
/* pixels */
"%%%%%%%%%%%%%%%%%%%%%%%%%%%%% X %%%%%%%%%%%%%%%",
"%%%%%%%%%%%%%%%%%%%%%%OO%+% O %.X+%X%%%%%%%%%%%",
"%%%%%%%%XXO@OXO$#O%O$O$$@OX+.# @$$@O+OXO.%O.%%.",
"X%oX%#o@XO@$$OX#X@O%O O#O..X++X+Oo%+X+% %%%%%%%",
"%%%%%%%%%X%O#OX%X%%XX% X %+.O X.+X.+%.X%%.%%%%%",
"%%%%%%%%%%%%%%%%%%%%%%+%%.%%+%%%+%%%%%%%%%%%%%%",
"%%%%%%%%%%%%%%%%%%%%%%%%% % %% X% %%%%%%%%%%%%%",
"%%%%%%%%%%%%%%%%%%%%%%%%%%%%%%% %%% %%%%%%%%%%%"
};
