/* XPM */
static char *__0[] = {
/* columns rows colors chars-per-pixel */
"25 17 46 1 ",
"  c #131313",
". c gray9",
"X c #1B1B1B",
"o c gray12",
"O c #3A3319",
"+ c #282828",
"@ c #2E2C2E",
"# c #392B27",
"$ c #3F2F38",
"% c #303032",
"& c #35353B",
"* c #3A3A3A",
"= c #4F3F2B",
"- c #5D4E0E",
"; c #514512",
": c #68570B",
"> c #7F6A04",
", c #674027",
"< c #3D3D43",
"1 c #4B3447",
"2 c #563A4D",
"3 c #4E4E4E",
"4 c #4B4B55",
"5 c gray34",
"6 c #5E5E6D",
"7 c #654160",
"8 c #6D4566",
"9 c #7F4D6A",
"0 c gray39",
"q c gray43",
"w c #676774",
"e c #777777",
"r c #72727F",
"t c #814F30",
"y c #8F5733",
"u c #9B5F3B",
"i c #8F5477",
"p c #7A7A89",
"a c #AF6F90",
"s c #BC7F9E",
"d c #848484",
"f c #878795",
"g c #939393",
"h c #91919F",
"j c #A2A2A2",
"k c None",
/* pixels */
"kk*5053<k1<7553:03kkkkkkk",
"k<003%+*753%..%3-r:kkkkkk",
"*0kk%+#<08X..  +5dp:3kkkk",
"<03kk73,<3%.   *>gry:3kkk",
"*<k<1%,7X*05% %0ff>00t3kk",
"*<5kk06XX.<ffpq0duqquq04k",
"<5k3<=583qfe5q0rpqrurru0-",
"<55k<6r5p<X.+30p0rrriuri0",
"*5k*%*w3&X..  qdqrpsgfri>",
"k355k405X..  +pgprfgjhfpq",
"k<3k**50<%   *psqrfgjjfa0",
"k*53kk%3q03+%3php5qffgfr3",
"k*3553+*<2<5ri9i04qrwff0*",
"kk5555553<+$11;-55<5<ir3k",
"kk*353**353<*<<23<%<09:*k",
"kkkkkkkkkkko%<@o+%*3:53kk",
"kkkkkkkkkkkko+%&&&O*<*kkk"
};
