/* XPM */
static char *_[] = {
/* columns rows colors chars-per-pixel */
"34 149 69 1 ",
"  c gray6",
". c #131313",
"X c gray9",
"o c #1B1B1B",
"O c gray12",
"+ c #1E371E",
"@ c #3A3319",
"# c #232323",
"$ c #282828",
"% c #282F28",
"& c #2B2E2D",
"* c #2C2C2C",
"= c #2E2C2E",
"- c #322D22",
"; c #392B27",
": c #223322",
"> c #273C27",
", c #2B3827",
"< c #263328",
"1 c #3D3626",
"2 c #363228",
"3 c #382D34",
"4 c #3F2F38",
"5 c #2C3031",
"6 c #2F3B3C",
"7 c #303032",
"8 c gray20",
"9 c #35353B",
"0 c #3A3A3A",
"q c #453C15",
"w c #423629",
"e c #453F2A",
"r c #4F3F2B",
"t c #2D4025",
"y c #2E4425",
"u c #344D2D",
"i c #3D5935",
"p c #5D4E0E",
"a c #514512",
"s c #68570B",
"d c #746107",
"f c #7F6A04",
"g c #53472C",
"h c #3D3D43",
"j c #323E49",
"k c #4B3447",
"l c #563A4D",
"z c #2D4848",
"x c #344557",
"c c #334D66",
"v c #4E4E4E",
"b c #444450",
"n c #4B4B55",
"m c gray34",
"M c #446343",
"N c #4D6E4E",
"B c #527456",
"V c #555560",
"C c #5E5E6D",
"Z c #6D4566",
"A c #7F4D6A",
"S c gray39",
"D c gray43",
"F c #8B7300",
"G c #5D825E",
"H c #4D8E8E",
"J c #878795",
"K c #91919F",
"L c None",
/* pixels */
"LLLLLLLLLLLLLLLLLLLLLLLLLLjjhLLLLL",
"LLhh9LLLLLLLLLLLLLLLLLLL6viivh:#LL",
"LvVGHV6LLLLLLLLLLLLLLL9mSv9*#ooooL",
"z,hvMBv9LLLLLLLLLLLLL9GDh*o.LL..oL",
"6#Oo9vg69LLLLLLLLLLL*mHi8o.LLLLL.o",
"*..Lo1uz0#LLLLLLLLL*jNAh*.LLLLLLoo",
"o.LLL#9ee:LLLLLLLLL*zly*o.LLLLLLLo",
"L.LLLO*1e%oLLLLLLLL9hk9O.LLLLLLLLL",
"LLLLLo#<1@oLLLLLLL#<w6*o.LLLLLLLLL",
"LLLLLLO@-&OoLLLLLL#=h*Oo.LLLLLLLLL",
"LLLLLLo&<$OoLLLLLL==$##oLLLLLLLLLL",
"LLLLLLo#-#OoL$$$$o=$#O$.LLLLLLLLLL",
"LLLLLLL#:#OOo*66<#t%:O<...LLLLLLLL",
"LLLLLLLO$-O$Olvi6#y#@#6.oX.LLLLLLL",
"LLLLLLLO*#O$#VJGv#,#<<-XOoX.LLLLLL",
"LLLLLLLo*-O$#CKJVO9#@qOXoOoXLLLLLL",
"LLLLLL#o9$O3omGGMo:O:6.ooXoX.LLLLL",
"LLLLLL#o9O#0ovSNpo@O$x.Ooo...$LLLL",
"LLLLLL##hO$kojhuq*#O#<oOoo...$LLLL",
"LLLLLL#=*o$*O@,t2@@*o&$#OX...5LLLL",
"LLLLLL#$**oO9-*:2qFCxq-#O....6LLLL",
"LLLLLL#$9zNBMz@-qpMu6&#o.. ..6LLLL",
"LLLLLLo..o*9z1<#9*$O.......O.jLLLL",
"LLLLLLLo....o#*#.....oO#Ooo#.6LLLL",
"LLLLLLo##oo...6*o..oO#&5&#o$.6LLLL",
"LLLLLL9zy*#oooj#ooO#$<jxj#o6.*LLLL",
"LLLLLL#6ivh*#<v*o<*6bncj5#%u.#LLLL",
"LLLLLLO<zNVx<bM<#9hMNVz8&o6*.LLLLL",
"LLLLLLo#6vb1*Cn*#6txzj6&#&zo.LLLLL",
"LLLLLLo#96,-9D9*<6h6q@&$ox<.LLLLLL",
"LLLLLLLO*69*jN**9,<-@-#oq<o.LLLLLL",
"LLLLLLLo#*@,OoO#$6<-&#o-o..LLLLLLL",
"LLLLLLLoO-,<*#ooO#,&-o$o..LLLLLLLL",
"LLLLLLLLo#$ye*o*6<*6-oO..LLLLLLLLL",
"LLLLLLLLL#2rb*o<6,@:#oo..LLLLLLLLL",
"LLLLLLLLLOyM*OoO*j6-#oX..LLLLLLLLL",
"LLLLLLLLLOhuo.   &6@#oX..LLLLLLLLL",
"LLLLLLLLLOeb..   *6-O#..LLLLLLLLLL",
"LLLLLLLLLo6eX... #,&O#..LLLLLLLLLL",
"LLLLLLLLLo99ooX..#5&O&X.LLLLLLLLLL",
"LLLLLLLLLo9*oooX.#*$O6o.LLLLLLLLLL",
"LLLLLLLLLo1<*Sb,o<&&oxo.LLLLLLLLLL",
"LLLLLLLLLo**9e9:&&:#oxO.LLLLLLLLLL",
"LLLLLLLLLo#*:###&&&#o,..LLLLLLLLLL",
"LLLLLLLLLL#9hmuh6&#o&o.LLLLLLLLLLL",
"LLLLLLLLLLo*1ge6&&6&o..LLLLLLLLLLL",
"LLLLLLLLLLLoO###Oo....LLLLLLLLLLLL",
"LLLLLLLLLLLL........oLLLLLLLLLLLLL",
"LLLLLLLLLLLLoo......oLLLLLLLLLLLLL",
"LLLLLLLLLLLL#$o.....#LLLLLLLLLLLLL",
"LLLLLLLLLLLL#*$o....$LLLLLLLLLLLLL",
"LLLLLLLLLLLL#6<#o...#LLLLLLLLLLLLL",
"LLLLLLLLLLLL#x*%#o..$LLLLLLLLLLLLL",
"LLLLLLLLLLLL*z9*#o..$LLLLLLLLLLLLL",
"LLLLLLLLLLLL*n6<#o..*LLLLLLLLLLLLL",
"LLLLLLLLLLLL9mj6#o..*LLLLLLLLLLLLL",
"LLLLLLLLLLLLhNv9#o..#LLLLLLLLLLLLL",
"LLLLLLLLLLL*hj*oo...O$LLLLLLLLLLLL",
"LLLLLLLLL$hVCVb9#o....##$$$9LLLLLL",
"LLLLLLLhvh9966&#*kj4;Ooo#6*#LLLLLL",
"LLLLLhnxx0650qkhlnxjkxZj4#o#LLLLLL",
"LLLLLmdCdVnsvkj9*3830vZ#OoXoLLLLLL",
"LLLLLvhy6+52%*$$#$#$7hm#OO.oLLLLLL",
"LLLLLvj++,><+#<#$###&jlOOoXoLLLLLL",
"LLLLLi,+:6<*<##$#$#$#jh#OoXoLLLLLL",
"LLLLLb><6++$<$O#$####jh#oOOoLLLLLL",
"LLLLLz<6<3$<$$O$#OO#O6joO##OLLLLLL",
"LLLLLy8>:$<$$##OoO#OO*6O#O#OLLLLLL",
"LLLLL6+,,$$$#$######o$4####OLLLLLL",
"LLLLL0:$<$*###$####O#$9####oLLLLLL",
"LLLLLy$<$$$*$#O#O#O#O$&$#$#oLLLLLL",
"LLLLL0<$$#$#$$#O#O#OO#&###$OLLLLLL",
"LLLLL0$<##O#O$#OO#OOo#4$$$$OLLLLLL",
"LLLLL9<#$$###O$O#O#oO#4&**#oLLLLLL",
"LLLLL9#$#$######O##oO#9&*&#OLLLLLL",
"LLLLL9O##O$#$O$OOO#oO#9&5$$OLLLLLL",
"LLLLL*ooO#O$#$#OOOOOOO6$O##oLLLLLL",
"LLLLL8##OoOO#O$OOOO#OO4##%#oLLLLLL",
"LLLLL7$$O#o##O#OOOOOOOk#$%OOLLLLLL",
"LLLLL7$#$OoO####o#O#O#4#<%#oLLLLLL",
"LLLLL8$$##OoO#OOOO#OOOh#<$#oLLLLLL",
"LLLLL7$O##OOOOOoOOO###4&&O#OLLLLLL",
"LLLLL8####OOoooO#OO###j&<#$oLLLLLL",
"LLLLL**#OO#OO$OoO###$#j$<O#oLLLLLL",
"LLLLL*$ooooOO##o#O#$$#j&<$OoLLLLLL",
"LLLLL*$oO#OO##Oo##$O##j$<<#OLLLLLL",
"LLLLL*$ooOO#$O#oO$O###h<<&:OLLLLLL",
"LLLLL*#OOoo#O#Oo#O$O##x<<:+oLLLLLL",
"LLLLL*#OO#$o#O##Oo$$##x<:+$oLLLLLL",
"LLLLL*OO##OOO#O#O#O#$$h::%&OLLLLLL",
"LLLLL*##oO#O#O#O##o##&h:$::OLLLLLL",
"LLLLL*#OoO####O#O#OO#*h:#:$oLLLLLL",
"LLLLL*oO#O#$$#$###*OO&h:O#$oLLLLLL",
"LLLLL*###$##O####$-3O*h:#O#OLLLLLL",
"LLLLL*###$#O#O##$#;#O#j$O%:oLLLLLL",
"LLLLL####$#####$#$#$#*x&#O$oLLLLLL",
"LLLLL#o##O$O###-$;$--&j&O$#OLLLLLL",
"LLLLL##Oo##$$$--$$#--*j&:O:OLLLLLL",
"LLLLL*##OO##*$**;--$$&h&#OOoLLLLLL",
"LLLLL*###OO##$;3*2$;$&h#$#OoLLLLLL",
"LLLLL=##$#OO$;;;-$;#$*b$&$OoLLLLLL",
"LLLLL;###-##O-#O#-#$**bO##OOLLLLLL",
"LLLLL=##$#$$$#$-##;#;#v7$#$OLLLLLL",
"LLLLL=###-;$$;-;;#$$O#v&$##oLLLLLL",
"LLLLL=$#$#$;$*-;$$O#O*b&:$$oLLLLLL",
"LLLLL=$$#27*7*3$*$#$#*b&$,#oLLLLLL",
"LLLLL=*$--;$--$73#$#-*h&$5$OLLLLLL",
"LLLLL9#*$-*$;$*;8*#-#$h&,*:OLLLLLL",
"LLLLL=$7*-$;$$;*$2$$O$j55:$oLLLLLL",
"LLLLL9$$3-*$*$$$&&$##$h8:#:oLLLLLL",
"LLLLL=$;*-$#O;$-&#O$O$h8$:OOLLLLLL",
"LLLLL=$;*$##*#;*$-##$*n*O#:OLLLLLL",
"LLLLL9$73*#;*$#$-#O#$*n*:$&oLLLLLL",
"LLLLL9*3;$#*;&$&-$#O$&n#$:&oLLLLLL",
"LLLLL9$*$;$$;&-###O##*n#&$&OLLLLLL",
"LLLLL98$*;$#;*5-O$O##*v*%&&oLLLLLL",
"LLLLL0$$$**#**-*$Ooo#$m9&$&oLLLLLL",
"LLLLL9*$***#$$--#####*S9<&<OLLLLLL",
"LLLLL0*#**$##&85$$$#$9m9<*&oLLLLLL",
"LLLLL0##$#$$53&#$###$*m9$*&#LLLLLL",
"LLLLL0#**&&&3;*$##$#$*v*&$5$9LLLLL",
"LLLLLh7*$*&;*&$&;&#;#*n*$<=69LLLLL",
"LLLLLh9$*&;$55&;;#&#$*h9$;66OLLLLL",
"LLLLvm0$###$##$###$##0h9jjb#oLLLLL",
"LLL0ivj18616996066hahmfpvr8+oLLLLL",
"LLLhjb0060j991h0hahhvmsCv&%#OLLLLL",
"LLL0*9*=;$*-$2*-*1-9119mj<+&OLLLLL",
"LLLh5$g7*##;$$*3--$$-$9v-+<+OLLLLL",
"LLL6*;-$32$##$;-2$--$$-w5<+&oLLLLL",
"LLL68**-@3**$-;-$2-----175%#oLLLLL",
"LLL6$*-@@2*$--#$-2-$-$#w&*,OoLLLLL",
"LLL6788*;3<-$#$##$###$@h#<*$OLLLLL",
"LLL6*93;22;$;$;<*$7---*hO$5ooLLLLL",
"LLL975,<3*-#$<$<$-7--*@r*&OOoLLLLL",
"LLL17773*-$;;<*$-*7$-17h$###OLLLLL",
"LLL17*t7<$#;<*@@7*2---*r$<$#OLLLLL",
"LLL68-7<$;--*@-*-99--*-h$$#$oLLLLL",
"LLL@75*$;;5<9*7-97-*--$0$#OoOLLLLL",
"LLLr568$<*555<297@$O#$*1&O$#oLLLLL",
"LLL697*<156<5<5-7<#-##-=$###oLLLLL",
"LLLr86<9<6<5<6<5*$#-<$#1o$#OoLLLLL",
"LLLr=*7$5<@<98<*$$-<<-%*O#OOoLLLLL",
"LLLr565$$955$$*<5#$<-<**oOOOoLLLLL",
"LLLr6659*$555#<5$$9<-<*9#OOOoLLLLL",
"LLLa656659565-#$#<<-<<*@OO#OLLLLLL",
"LLLa9666959<78$#6<&<<$*0##OLLLLLLL",
"LLLb66666959&5&5-#<<-$*a##LLLLLLLL",
"LLLa6969699595655<5*--*h#LLLLLLLLL",
"LLLLLLLLLLLL*98<*****#*hLLLLLLLLLL"
};
