/* XPM */
static char *_[] = {
/* columns rows colors chars-per-pixel */
"121 136 78 1 ",
"  c gray6",
". c #131313",
"X c gray9",
"o c #1B1B1B",
"O c gray12",
"+ c #1E371E",
"@ c #3A3319",
"# c #232323",
"$ c #282828",
"% c #282F28",
"& c #2B2E2D",
"* c #2C2C2C",
"= c #2E2C2E",
"- c #322D22",
"; c #223322",
": c #2B3827",
"> c #263328",
", c #3D3626",
"< c #363228",
"1 c #382D34",
"2 c #3F2F38",
"3 c #2C3031",
"4 c #2F3B3C",
"5 c #303032",
"6 c gray20",
"7 c #35353B",
"8 c #3A3A3A",
"9 c #453C15",
"0 c #423629",
"q c #453F2A",
"w c #4F3F2B",
"e c #2D4025",
"r c #2E4425",
"t c #344D2D",
"y c #5D4E0E",
"u c #514512",
"i c #68570B",
"p c #746107",
"a c #7F6A04",
"s c #53472C",
"d c #604C33",
"f c #6D5536",
"g c #7B5C3C",
"h c #3D3D43",
"j c #323E49",
"k c #4B3447",
"l c #563A4D",
"z c #2D4848",
"x c #344557",
"c c #285353",
"v c #275B5B",
"b c #334D66",
"n c #2E6767",
"m c #4E4E4E",
"M c #444450",
"N c #4B4B55",
"B c gray34",
"V c #446343",
"C c #4D6E4E",
"Z c #527456",
"A c #555560",
"S c #5E5E6D",
"D c gray39",
"F c gray43",
"G c #676774",
"H c #777777",
"J c #72727F",
"K c #8B7300",
"L c #866741",
"P c #A0764A",
"I c #AD7F4E",
"U c #5D825E",
"Y c #6B906D",
"T c #7A7A89",
"R c #4D8E8E",
"E c #939393",
"W c #A2A2A2",
"Q c None",
/* pixels */
"QQQQQQQQQQQQQQQQQQQQQQQQQQQQQQQQQQQQQQQQQQQQQQQQQQQQQQQQQQQQQQQQQQQQQQQQQQ85QQQQQQQQQQQQQQQQQQQQQQQQQQQQQQQQQQQQQQQQQQQQQ",
"QQQQQQQQQQQQQQQQQQQQQQQQQQQQQQQQQQQQQQQQQQQQQQQQQQQQQQQQQQQQQQQQQQQQQQQQQQN=QQQQQQQQQQQQQQQQQQQQQQQQQQQQQQQQQQQQQQQQQQQQQ",
"QQQQQQQQQQQQQQQQQQQQQQQQQQQQQQQQQQQQQQQQQQQ#QQQQQQQQQQQQQQQQQQQQQQQQQQQQQ*h$QQQQQQQQQQQQQQQQQQQQQQQQQQQQQQQQQQQQQQQQQQQQQ",
"QQQQQQQQQQQQQQQQQQQQQQQQQQQQQQQQQQQQQQQQQQQmQQQQQQQQQQQQQQQ$8w$OQQQQQQQQQ85OQQQQQQQQQQQQQQQQQQQQQQQQQQQQQQQQQQQQQQQQQQQQQ",
"QQQQQQQQQQQQQQQQQQQQQQQQQQQQQQQQQQQQQQQQQQQhjQQQQQQQQQQQQ#0mh-$,7*QQQQQQ>5#oQQQQQQQQQQQQQQQQQQQQQQQQQQQQQQQQQQQQQQQQQQQQQ",
"QQQQQQQQQQQQQQQQQQQQQQQQQQQQQQQQQQQQQQQQQQQ#j&QQQQQQQQ>-@8Sh3#$-*7#QQQQQ5*oQQQQQQQQQQQQQQQQQQQQQQQQQQQQQQQQQQQQQQQQQQQQQQ",
"QQQQQQQQQQQQQQQQQQQQQQQQQQQQQQQQQQQQQQQQQQQO&3#QQQQQQ559jj73%$>>#**OQQQ8*ooQQQQQQQQQQQQQQQQQQQQQQQQQQQQQQQQQQQQQQQQQQQQQQ",
"QQQQQQQQQQQQQQQQQQQQQQQQQQQQQQQQQQQQQQQQQQQQ#-&#QQQQQOjhb8*>>>355O#$QQh*#oQQQQQQQQQQQQQQQQQQQQQQQQQQQQQQQQQQQQQQQQQQQQQQQ",
"QQQQQQQQQQQQQQQQQQQQQQQQQQQQQQQQQQQQQQQQQQQQQO33&$QQQuyyGm$O$jb88>O#5x>#oQQQQQQQQQQQQQQQQQQQQQQQQQQQQQQQQQQQQQQQQQQQQQQQQ",
"QQQQQQQQQQQQQQQQQQQQQQQQQQQQQQQQQQQQQQQQQQQQQQo-385$QaGNWK*zGJB9*O10N>#oXQQQQQQQQQQQQQQQQQQQQQQQQQQQQQQQQQQQQQQQQQQQQQQQQ",
"QQQQQQQQQQQQQQQQQQQQQQQQQQQQQQQQQQQQQQQQQQQQQQQo#5xs5TauED#AWGc3Oomz&#oXQQQQQQQQQQQQQQQQQQQQQQQQQQQQQQQQQQQQQQQQQQQQQQQQQ",
"QQQQQQQQQQQQQQQQQQQQQQQQQQQQQQQQQQQQQQQQQQQQQQQQo#@h5NuqFj>8z3@Ooo>>#oXQQQQQQQQQQQQQQQQQQQQQQQQQQQQQQQQQQQQQQQQQQQQQQQQQQ",
"QQQQQQQQQQQQQQQQQQQQQQQQQQQQQQQQQQQQQQQQQQQQQQQQQoo#5jj&j>>h9zu4@#$oXXQQQQQQQQQQQQQQQQQQQQQQQQQQQQQQQQQQQQQQQQQQQQQQQQQQQ",
"QQQQQQQQQQQQQQQQQQQQQQQQQQQQQQQQQQQQQQQQQQQQQQQQQQo8hdh**o>zmFizw#X..QQQQQQQQQQQQQQQQQQQQQQQQQQQQQQQQQQQQQQQQQQQQQQQQQQQQ",
"QQQQQQQQQQQQQQQQQQQQQQQQQQQFDhQQQQQQQQQQQQQQQQQQQQQhNDm-8o8cFHhO-oo..QQQQQQQQQQQQQQQQQQQQQQQQQQQQQQQQQQQQQQQQQQQQQQQQQQQQ",
"QQQQQQQQQQQQQQQQQQQQQFhQQQQmd#.QQQQQQQQQQQQQQQQQQQQQ.#8hwojxc4O.O#oX.QQQQQQQQQQQQQQQQQQQQQQQQQQQQQQQQQQQQQQQQQQQQQQQQQQQQ",
"QQQQQQQQQQQQQQQQQQQQFy9h8Q#Fio.QQQQ8BAhQQQQQQQQQQQQQ...$8oo-O..O*5XX.QQQQQQQQQQQQQQQQQQQQQQQQQQQQQQQQQQQQQQQQQQQQQQQQQQQQ",
"QQQQQQQQQQQQQQQQQQQmf8#o$8QHw...dLSdsqw8QQQQQQQQQQQQ*8O..o...$0s5*X.#QQQQQQQO$55$O.QQQQQQQQQQQQQQQQQQQQQQQQQQQQQQQQQQQQQQ",
"QQQQQQQQQQQQQQQQQQQD8Q.....A5..XhDz@-5,#QQQQQQQQQQQQhBh#8.#@wzsh#oo.=QQQQQO$5887=$#OXQQQQQQQQQQQQQQQQQQQQQQQQQQQQQQQQQQQQ",
"QQQQQQQQQQQQQQQQQQQQQQQQ......XX#uq$Oo.QQQQQQQQQQQQQ*NNhB.#5044$o.Oo85QQQ$mFBh7hMh7=O.QQQQQQQQQQQQQQQQQQQQQQQQQQQQQQQQQQQ",
"QQQQQQQQQQQQQQQQQQ5-5##o..X...XX......QQQQQQQQQQQQQQQzx*Fh#.-,#oo.$.3h5hN*8Bh$*GUb4*$#.QQQQQQQQQQQQQQQQQQQQQQQQQQQQQQQQQQ",
"QQQQQQQQQQQQQQQQQQ8o......oX...X..XX..QQQQQQQQQQQQQQQ*1jT#.Oh8oOOo$o#8$50hh8$O8YRDs3*#oQQQQQQQQQQQQQQQQQQQQQQQQQQQQQQQQQQ",
"QQQQQQQQQQQQQQQQQQ..QQQQ.X.XX...XoXX..QQQQQQQQQQQQQQQ#jm..5hBw85##5oX3##-=$OO>4CGv,&-$#OQQQQQQQQQQQQQQQQQQQQQQQQQQQQQQQQQ",
"QQQQQQQQQQQQQQQQQQQQQQ.....oOXX..XX.XX.QQQQQQQQQQQQQ#o#jm..No@$#$5##.=ooOOo..O>8hj&-$$#o..QQQQQQQQQQQQQQQQQQQQQQQQQQQQQQQ",
"QQQQQQQQQQQQQQQQQQQQQ....Q.Xo#OoX...oo#oXoQQQQQQQQmh8#o$BooD.$#$*#o3.#XXo$$#-@,@<9&@*$##o##.QQQQQQQQQQQQQQQQQQQQQQQQQQQQQ",
"QQQQQQQQQQQQQQQQQQQQQ..QQQQQ.XX.X...XoO#*$#oQQQQQh8#o  Oo8Bo#$##OXo&oX.#-o>-:,<>#oO%3*$&&o$#.QQQQQQQQQQQQQQQQQQQQQQQQQQQQ",
"QQQQQQQQQQQQQQQQQQQQQQ.QQQQQQQQQ.....XoO-@-$#oQ$8$o   .ojgs8@#OX.Xo3$.$$o#>@>%###XXO#$*$*,**o.QQQQQQQQQQQQQQQQQQQQQQQQQQQ",
"QQQQQQQQQQQQQQQQQQQQQQQQQQQQQQQQ.X....Xo#->8h$NAh7#Xo#o.8m75#o....X#8#>#o*7@>@#O#oX.Xoo$8Mh7-o.QQQQQQQQQQQQQQQQQQQQQQQQQQ",
"QQQQQQQQQQQQQQQQQQQQQQQQQQQQQQQQQ.X....XoO$$@#hFDfx=o.#j##OoX.O#oX.O$h3O-hxte>#OO#&..OO7FDNh>#o..QQQQQQQQQQQQQQQQQQQQQQQQ",
"QQQQQQQQQQQQQQQQQQQQQQQQQQQQQQQQQ.X.....XoO#OX#mBm43,o.#N4-#OO&*4*#Xh;X;*shw4-$$O#4X.oO3VDBu--#.o..QQQQQQQQQQQQQQQQQQQQQQ",
"QQQQQQQQQQQQQQQQQQQQQQQQQQQQQQQQQQ.X....XXooO$o=hze4;#.o%CN5$o.o$#%#-.Oj4e7h4>>*#&4O.Xo#;:N,-$#oOOo..QQQQQQQQQQQQQQQQQQQQ",
"QQQQQQQQQQQQQQQQQQQQQQQQQQQQQQQQQQ.XX.....XXoOOO3*34,*o.X6FBz$oOoXX.Xo>$3h,@=3@@&&@3..XoO$:e*#OOo#$oo.QQQQQQQQQQQQQQQQQQQ",
"QQQQQQQQQQQQQQQQQQQQQQQQQQQQQQQQQQ.XXX.....XXooX#&-#O>#o.XhZN4$$#OooOOO*x7u8049,3@3h..XXoOO#;#OOOO7*Oo.QQQQQQQQQQQQQQQQQQ",
"QQQQQQQQQQQQQQQQQQQQQQQQQQQQQQQQQQQ.XXoX.....XX.ooOO$#>X...8Bh5>$>@7:-XO*y@hmuzu,3#x...XXXoo#OoXoowh*Oo.QQQQQQQQQQQQQQQQQ",
"QQQQQQQQQQQQQQQQQQQQQQQQQQQQQQQQQQQQ..Xo....XoO.O###OoX....OhB44>>#OO##X8-MiPFuz9#.j.X...XXXX$X..o*mq=O..QQQQQQQQQQQQQQQQ",
"QQQQQQQQQQQQQQQQQQQQQQQQQQQQQQQQQQQQQQ.oX.XXXXXXOoXX.....XX.O8z4493>-w8OO<pHWIAuz33#.XOX.....Oo...$Am8-o..QQQQQQQQQQQQQQQ",
"QQQQQQQQQQQQQQQQQQQQQQQQQQQQQQQQQQQQQQQ5.XXX...Xo#OO#oooXXXo.O$7449@3*##X$sLTpz3>Oo...XOOoX..X#OoXo5Ay3#o..QQQQQQQQQQQQQQ",
"QQQQQQQQQQQQQQQQQQQQQQQQQQQQQQQQQQQQQ85#.XXoXX...XoooX......O.o*7j4z4@*#$O7muj&o...  ....XooXXX....o3mh-Oo.QQQQQQQQQQQQQQ",
"QQQQQQQQQQQQQQQQQQQQQQQQQQQQQQQQQQQQ81#   .ooOo.....XXXXX.X.X#o$xhh948@*#.#$$o.OX..   QQQQ......Xoo.o-s<#Oo.QQQQQQQQQQQQQ",
"QQQQQQQQQQQQQQQQQQQQQQQQQQQQQQQQQQ8h7#     .XXOOoXXX......o#-X$=Nhuh9mDN*....oooo.    QQQQQQQQ..XO*O.oh4$Oo.QQQQQQQQQQQQQ",
"QQQQQQQQQQQQQQQQQQQQQQQQQQQQQQQQ8k7*O         .X.XX..ooXXo#*#oo#=7<8NA8*O.Xo4>#oX.   QQQQQQQQQ...o#*O.oj&#oo.QQQQQQQQQQQQ",
"QQQQQQQQQQQQQQQQQQQQQQQQQQQQQQ8hh=O                 .X;ooXoo$-8o###Oo#*#3$oX....     QQQQQQQQQQ..XO$OOoo3&Oo.QQQQQQQQQQQQ",
"QQQQQQQQQQQQQQQQQQQQQQQQQQQQ580j*O                   .O$OoXO-h#hOOoOOo$M8#XO4&#oo.  QQQQQQQQQQQQ..XXooOXO3OoX.QQQQQQQQQQQ",
"QQQQQQQQQQQQQQQQQQQQQQQQQQQ58=*7o                     .O;$oX##w,>#>$4#>>#XX&OooX.   QQQQQQQQQQQQQQ.XXXooXXO#o.QQQQQQo$$oQ",
"QQQQQQQQQQQQQQQQQQQQQQQQQQ54*$#*.                       .oOO.0@O,q3-#X#>3#X..       QQQQQQQQQQQQQQQQQXX.XXX#O..QQQQQ$8@oo",
"QQQQQQQQQQQQQQQQQQQQQQQQQ5=>##=#                          ..o*-q-#XX#-,>$oo#&#.    QQQQQQQQQQQQQQQQQQQQXXXXO$o..QQQoo#o#X",
"QQQQQQQQQQQQQQQQQQQQQQQQ5=##O#*.                           .#@s#X.O#34#ooX##ooX    QQQQQQQQQQQQQQQQQQQQQQ..XO#o..Qo*#X..X",
"QQQQQQQQQQQQQQQQQQQQQQQ*##Oo7*o                           .o8<3Oo.O--#oo.XO#OoX   QQQQQQQQQQQQQQQQQQQQQQQQ..*OOoo...o#..Q",
"QQQQQQQQQQQQQQQQQQQQQQ55&#18#.                            XO@$#.X.XOo@*o.oOXXX.   QQQQQQQQQQQQQQQQQQQQQQQQQXw#$$>$#Oo..QQ",
"QQQQQQQQQQQQQQQQQQQQQ5*7j5o.                              OO@@*oX.#@,>Oo.X...  .. QQQQQQQQQQQQQQQQQQQQQQQQQ$s,---*$#5t.QQ",
"QQQQQQQQQQQQQQQQQQQ8hh7o.                                 o#--@#..$-#O.X . XXX. . QQQQQQQQQQQQQQQQQQQQQQQQQ5gsww5$&4*;.QQ",
"QQQQQQQQQQQQQQQQQ8hh7*o                                   X#@--O.XO#X..o*5o#>Oo . QQQQQQQQQQQQQQQQQQQQQQQQQhASfNswjhNO.QQ",
"QQQQQQQQQQQQQQQQ7h0=$=.                                   oO-OOo.  O#-@OXo$#ooXX. QQQQQQQQQQQQQQQQQQQQQQQQQBN*7NtBD=:o.QQ",
"QQQQQQQQQQQQQQ*4735$=*                                   o@7$ooX.o-70*#Ooo##oO.Xo.QQQQQQQQQQQQQQQQQQQQQQQQQt&..$BN5.o..QQ",
"QQQQQQQQQQQQQ5233>>O$*                                  o@-$*#o.XX#-=##OooOoo..XO.QQQQQQQQQQQQQQQQQQQQQQQQQh*.$o$AN...QQQ",
"QQQQQQQQQQQQ1**>>#Oo#=.                                 #$###$#oXX.oO#OoX.XX.XoXOo.QQQQQQQQQQQQQQQQQQQQQQQQ#.>#o.rh..QQQQ",
"QQQQQQQQQQQ55*$#OOooo$.                                 -#oOoooOo.XXXooo.  ..XXXo#o.QQQQQQQQQQQQQQQQQQQQQQQo$#o.h*$..QQQQ",
"QQQQQQQQQQQ1##OOooooo#O                                 -oooXXXX..X....  X....XXoo#o.QQQQQQQQQQQQQQQQQQQQQo$>o..#O.QQQQQQ",
"QQQQQQQQQQ5##OoooooX.o$.                                $XXX...X..ooXXX. X..X..Xo#;-#.QQQQQQQQQQQQQQQQQQQo$>o.....QQQQQQQ",
"QQQQQQQQQ5#OoooooXX...oo                                #.X.... .Xoo.X.  X..XX.XoO#*-O.QQQQQQQQQQQQQQQQQo$>o..QQQQQQQQQQQ",
"QQQQQQQQQOoooooXXX....X#                                o.X... ..Xoo.X.  ...XOoXo##$--O.QQQQQQQQQQQQQQQo5:o..QQQQQQQQQQQQ",
"QQQQQQQQQoooooXX......Xo                                 .... ...oOo.oX  .X.XO#O###;;@*O.QQQQQQQQQQQQQo>@o..QQQQQQQQQQQQQ",
"QQQQQQQQQoooXXX......Oo.                                 ...  ..XoOXXoX. .o XoO#$#o#$,8*O.QQQQQQQQQQQQ$8$..QQQQQQQQQQQQQQ",
"QQQQQQQQQoXXXX.....XO.                                    . . X.oo#XoOo. Xo XooO#3#X#-,7-O.QQQQQQQQQQ$m8o.QQQQQQQQQQQQQQQ",
"QQQQQQQQQoXX.....XOO.                                       ..XXoo#XO#o. oX Xooo#=3#X#*9@-.QQQQQQQQQQ..ro.QQQQQQQQQQQQQQQ",
"QQQQQQQQQXX...XoOO$X                                        X.OooO#X##OX X  .Xooo#13$o=@7*O.QQQQQQQQo5.o.QQQQQQQQQQQQQQQQ",
"QQQQQQQQXXXooOOOOO$.                                      .OX.O#oO#o#$Oo.  ..XoooO#h=#O@8=$XQQQQQQQQm.$.QQQQQQQQQQQQQQQQQ",
"QQQQQQQQXooOoX..  o.                                      .$XX:%O##o$$o..  ..XoooO#===o-w08O.QQQQQQQFNOQQQQQQQQQQQQQQQQQQ",
"QQQQQQQo   ..     ..                                      X#.O=>O###$=oX.  ...Xooo#=01$#@sq=XQQQQQQQQ#jOQQQQQQQQQQQQQQQQQ",
"QQQQQQXo           X                                      oO.#&%O##>1$oX.   X..XooO$57=o8sMhXQQQQQQQQQO4#QQQQQQQQQQQQQQQQ",
"QQQQQ.oX           .                                     .Oo.#>#O##*=$OX    XX..XoO#3h=$-hNhO.QQQQQQQQ$h8OQQQQQQQQQQQQQQQ",
"QQQQXooXX         ...            .                       .OoXO>OO##*=$OX.   XX ..Xo#$25*#,uM*XQQQQQQQQQSO&jQQQQQQQQQQQQQQ",
"QQQXOoooXX..      X .          ..                        .OXoO;OO##*,$#o.   .X..XoXO*77**@hN8OQQQQQQQQQO$Q>$QQQQQQQQQQQQQ",
"QQQOOOoooXX.......o.         .XX.                        .oXOO$OO##-,$#o.   .XX XXoO3hl78-hsqOQQQQQQQQQ>$$QQQQQQQQQQQQQQQ",
"QQXOooooooXX.....Xo.       .oXX.                         .X.OoOOo##-7$#O.    .X. XXO$kNNw=uu7$oQQQQQQQQjo4QO5QQQQQQQQQQQQ",
"QXOOoooooXXXX....Xo.    ..  oo.                          .X.#ooOX#$-h*#O.     .X  Xo#3Nh8=@,7*OQQQQQQQ#&Q>QQ;QQQQQQQQQQQQ",
"QOOoXXXXXXXXXX...oX   XoX.  o.                            ..#ooO.O>@l1#o.      .X .oO1e78@*@**OQQQQQQQj$QQOQoQQQQQQQQQQQQ",
"QoXX.............OX  .ooX...                              ..;o#OXO$sh2#o.       .. .X#:=7$oO$*oQQQQQQ*4QQO#Q>QQQQQQQQQQQQ",
"Q...   ..........#. .OOoX.                                ..>.#OoO3hsh$o.     QQQ.  XXO*#X*6$OXQQQQQQ>$QQ#oQ$QQQQQQQQQQQQ",
" .     .........X$. oOO.                                   .:.>OOO3sNN*oo  QQQQQQQ. OXXXXo=$Oo.QQQQQQ>OQQQQQ#QQQQQQQQQQQQ",
"       .........X$XQOO.                                    .#X3OOo@,s87o.QQQQQQQQQQ #Xo$Oo*#OoQQQQQQQxQQQOQQQQQQQQQQQQQQQ",
"     .ooXXXXX...X*XQO.                 ..X                .O.$4OOX3-<87O.QQQQQQQQQQ $XO*Oo$$OXQQQQQQ8$QQQ;QooQQQQQQQQQQQQ",
"   XoX        ...*oQ.                .X..                 ..#M$OOX>#@78#.QQQQQQQQQ. *O;#OXO#O.QQQQQQ&oQQQO*c:$QQQQQQQQQQQ",
"  XX            oooQ.             QQQXX.                 ..o8$XoOoO#$**#QQQQQQQQ.oO.>#OOOXO*O.QQQQQQQo#QQo5Ut4oQQQQQQQQQQ",
" ..           QQQQQQ            QQQQQX.              OO=$OX*#OXX...XoO#oQQQQQQQ.O;Oo*#OoO#*#..QQQQQQ$$oQ4o$4*O=QQQQQQQQQQ",
" .          QQQQQQQQQ         QQQQQQQX              jMh5OX$OOo#-O#OXXX.QQQQQQQ.O$##O#OoXO$Oo.QQQQQQ5HN$oecoo#>8QQQQQQQQQQ",
"Q         QQQQQQQQQQQQ     QQQQQQQQQQ              *jz0#X$OO#-#o..oOX.QQQQQQQQXoOOoOOOoOo#X.QQQQQQQ8nj$534o>67QQQQQQQQQQQ",
"QQ     QQQQQQQQQQQQQQQQQQQQQQQQQQQQQQ             X3&%$#$OO#-#OXO>--O.QQQQQQQ.Xoooo#OOXo#oX.QQQQQQQ#4;oeoo;4QQQQQQQQQQQQQ",
"QQQQQQQQQQQQQQQQQQQQQQQQQQQQQQQQQQQQQQQ         QQO$#O#$OO#$#ooo##ooX.QQQQQQQ.ooX.XOOO.X#X.QQQQQQQQooo;zQ**QQQQQQQQQQQQQQ",
"QQQQQQQQQQQQQQQQQQQQQQQQQQQQQQQQQQQQQQQQQQQQQQQQQX#Ooo#Oo#>OoXX.ooooXQQQQQQQQ.XX..oOOXooO..QQQQQQQQQ*5eQQQQQQQQQQQQQQQQQQ",
"QQQQQQQQQQQQQQQQQQQQQQQQQQQQQQQQQQQQQQQQQQQQQQQQQXOoooOO#>OoXX..oooXQQQQQQQQQ.XX..oOoXXoX.QQQQQQQQQQQQQQQQQQQQQQQQQQQQQQQ",
"QQQQQQQQQQQQQQQQQQQQQQQQQQQQQQQQQQQQQQQQQQQQQQQQXOoooOO#OooXXX.ooX.QQQQQQQQQQ.XX..oOo.oX..QQQQQQQQQQQQQQQQQQQQQQQQQQQQQQQ",
"QQQQQQQQQQQQQQQQQQQQQQQQQQQQQQQQQQQQQQQQQQQQQQQQXoooO#OooXXX.oooXQQQQQQQQQQQQ.X..XoOXoX..QQQQQQQQQQQQQQQQQQQQQQQQQQQQQQQQ",
"QQQQQQQQQQQQQQQQQQQQQQQQQQQQQQQQQQQQQQQQQQQQQQQQXo.OOoooXXX.XOXQQQQQQQQQQQQQQ....oOoXX...QQQQQQQQQQQQQQQQQQQQQQQQQQQQQQQQ",
"QQQQQQQQQQQQQQQQQQQQQQQQQQQQQQQQQQQQQQQQQQQQQQQ.o.#ooooXX..XoXQQQQQQQQQQQQQQQQ..XooooX..QQQQQQQQQQQQQQQQQQQQQQQQQQQQQQQQQ",
"QQQQQQQQQQQQQQQQQQQQQQQQQQQQQQQQQQQQQQQQQQQQQQX#>#OooooX....QQQQQQQQQQQQQQQQQQ..XOoXX...QQQQQQQQQQQQQQQQQQQQQQQQQQQQQQQQQ",
"QQQQQQQQQQQQQQQQQQQQQQQQQQQQQQQQQQQQQQQQQQQQQ015$OoooXX...QQQQQQQQQQQQQQQQQQQQ.XOOoXX..QQQQQQQQQQQQQQQQQQQQQQQQQQQQQQQQQQ",
"QQQQQQQQQQQQQQQQQQQQQQQQQQQQQQQQQQQQQQQQQQMh4@>#OooOX...QQQQQQQQQQQQQQQQQQQQQQ.oOoXX..QQQQQQQQQQQQQQQQQQQQQQQQQQQQQQQQQQQ",
"QQQQQQQQQQQQQQQQQQQQQQQQQQQQQQQQQQQQQQQQ.z23>#OOooXX...QQQQQQQQQQQQQQQQQQQQQQQ.OooXo..QQQQQQQQQQQQQQQQQQQQQQQQQQQQQQQQQQQ",
"QQQQQQQQQQQQQQQQQQQQQQQQQQQQQQQQQQQQQQQQO$..O#oOoX...QQQQQQQQQQQQQQQQQQQQQQQQ.oOoXoo..QQQQQQQQQQQQQQQQQQQQQQQQQQQQQQQQQQQ",
"QQQQQQQQQQQQQQQQQQQQQQQQQQQQQQQQQQQQQQQQO>.XooOoX...QQQQQQQQQQQQQQQQQQQQQQQQQX#oXXOX..QQQQQQQQQQQQQQQQQQQQQQQQQQQQQQQQQQQ",
"QQQQQQQQQQQQQQQQQQQQQQQQQQQQQQQQQQQQQQQQO#oooOoX...QQQQQQQQQQQQQQQQQQQQQQQQQ.#OoXXo..QQQQQQQQQQQQQQQQQQQQQQQQQQQQQQQQQQQQ",
"QQQQQQQQQQQQQQQQQQQQQQQQQQQQQQQQQQQQQQQQo#ooOoX....QQQQQQQQQQQQQQQQQQQQQQQQ.#3.XXooX.QQQQQQQQQQQQQQQQQQQQQQQQQQQQQQQQQQQQ",
"QQQQQQQQQQQQQQQQQQQQQQQQQQQQQQQQQQQQQQQQo$ooOX.X..QQQQQQQQQQQQQQQQQQQQQQQQ.;:#oXXOXo.QQQQQQQQQQQQQQQQQQQQQQQQQQQQQQQQQQQQ",
"QQQQQQQQQQQQQQQQQQQQQQQQQQQQQQQQQQQQQQQQ.#oXO.oX..QQQQQQQQQQQQQQQQQQQQQQQ.#;O.XXXO.O.QQQQQQQQQQQQQQQQQQQQQQQQQQQQQQQQQQQQ",
"QQQQQQQQQQQQQQQQQQQQQQQQQQQQQQQQQQQQQQQQQoXXO.oo..QQQQQQQQQQQQQQQQQQQQQQQO;Oo.XXXo.$.QQQQQQQQQQQQQQQQQQQQQQQQQQQQQQQQQQQQ",
"QQQQQQQQQQQQQQQQQQQQQQQQQQQQQQQQQQQQQQQQQ.XXoXOo.QQQQQQQQQQQQQQQQQQQQQQQ.;#ooXXXXXo*o.QQQQQQQQQQQQQQQQQQQQQQQQQQQQQQQQQQQ",
"QQQQQQQQQQQQQQQQQQQQQQQQQQQQQQQQQQQQQQQQQoXXoXOo.QQQQQQQQQQQQQQQQQQQQQQQ.OooXXXoo#oO$o........QQQQQQQQQQQQQQQQQQQQQQQQQQQ",
"QQQQQQQQQQQQQQQQQQQQQQQQQQQQQQQQQQQQQQQQQOoXXXOo..QQQQQQQQQQQQQQQQQ...X..oXXXX.XXo#*O7;#.o.;&#.QQQQQQQQQQQQQQQQQQQQQQQQQQ",
"QQQQQQQQQQQQQQQQQQQQQQQQQQQQQQQQQQQQQQQQQo#XXXooX.QQQQXXoXoXooXoXoXoXoXo.........XX#%5#%%o&.#o.XXOOQQQQQQQQQQQQQQQQQQQQQQ",
"QQQQQQQQQQQQQQQQQQQQQQQQQQQQQQQQQQQQQQQQQ.OoXXoooo.OOoOoOoOooooooooXoXoX...........XXO#+5.#.XX.o#O-$##OOQQQQQQQQQQQQQQQQQ",
"QQQQQQQQQQQQQQQQQQQQQQQQQQQQQQQQooOOO####.ooXX......oOooooooXooo#oXoXoXoXoXoXXX.......o%o oX.XO#-&&-&&&&&&$$#OQQQQQQQQQQQ",
"QQQQQQQQQQQQQQQQQQQQQQOO#$$$$#-#$#$##O#O#OXoXoO##OooX.OooooooooXoXoXoXXXoXXXXoOOOoXX...oX...o#$-&-&&&$&&&---&--$$#OQQQQQQ",
"QQQQQQQQQQQQQQQQQQQQQ=<0,<=*%$$##$O#O#O#O#.oOOX.O$=38$.oooooXoXoooXoXooO$*$-$#$##$#-#OX...oO&------*--&-&<<<<,,,,,=#OQQQQ",
"QQQQQQQQQQQQQQQQQQQQQo$7h07<,<=*$$###O#OOO.o#*41#oOOoo.ooooooooXoXooO#$#$$-$#$%$-$#$-#&$-$-$--<<,<,=,*,7<-#OOoXXXXXXXQQQQ",
"QQQQQQQQQQQQQQQQQQQQQooO$<sk,2<2<1*$##O#O#.o#Ooo..XXXX.oooXooooooooO#$#$#$$-$#$*$&#&$-$-*<==$#Oooo.X.X.XXXXX.XXXXXXXXQQQQ",
"QQQQQQQQQQQQQQQQQQQQQ.OoOO*hMw434&43<*4*$#o.XX.......XoooooooXoXoO##$#$#-$-$-$-$-$#OoXX.X.X.X.X.X.X.X.X.X.X.X.X.XXXXXQQQQ",
"QQQQQQQQQQQQQQQQQQQQQQ.oO#O#*7qj446<-<*<*$#o...XoO$*-*$$#OOoXoOo###OOoO#OoooXX.X.X.X.......X.X.X.X.X.X.X.XXX.XX.    QQQQQ",
"QQQQQQQQQQQQQQQQQQQQQQOXXo#O##$7q,x,<-@*=----$-------=<=-=-#Oo#OoXXXXXXXX.X.X.......X...X.X.X.X...X.X.          .XXXQQQQQ",
"QQQQQQQQQQQQQQQQQQQQQQoOo#X#O##-<hdNsq,<,s,hhh77=7*$#ooooXXoXXXX.XXX.X.X.X.X.X.X.......X.X...X          .X.XXX.XXXXXQQQQQ",
"QQQQQQQQQQQQQQQQQQQQQQOoOO#oo#$#$#-7NfAsq,*#OoOooooooXoXXXX.XXX.X.X.X.X.X...X........           X.X.X.X.X.X.X.XXXXXXQQQQQ",
"QQQQQQQQQQQQQQQQQQQQQQoOoOO#Oo###$-<7h7$OOOOoOoOooXoXoXoXX.XXX.X.X.X...X.X..            ...X.X.X.X.X.X.X.X.X.X.X.X.XQQQQQ",
"QQQQQQQQQQQQQQQQQQQQQ*7$OoOO#Ooo$#$-<q$OOoOoOooXoXoXoXoXXXXXX.XXX...           .X.............X.X.X.X.X.X.X.X.XXXXXXQQQQQ",
"QQQQQQQQQQQQQQQQQQQQQo#73#oOO#O-oO#$-,#OOOoOoOoOooXXXoXX.X.          ..X.X.X.X.........X.X.X.X...X.X.X.X.X.X.XXoO####QQQQ",
"QQQQQQQQQQQQQQQQQQQQQOoo#3-O#O##-#o#$,OOOoOoOooooX. .      .XXX.X.X.X.X.......X...................X..XXO#O#OOO#OooXXXQQQQ",
"QQQQQQQQQQQQQQQQQQQQQQXooo#&OOO##-#Oo-OOoOXX.... . XXoXXXX.X.X.X.X.........X.X..............XoO#OOOOO#OoXX.X.X.X.XXXXQQQQ",
"QQQQQQQQQQQQQQQQQQQQQQQQXoOo&$OO$#&#$ooXX.XoOooXoXoXoXXXX.X.X.X.X.X...X............XXoOOOoOooOoX..X.X.X...X....XQQQQQQQQQ",
"QQQQQQQQQQQQQQQQQQQQQQQQQXooo37$O##&#*#OoOoOooooXoXXXXXX.XXX.X.X.X.X.X.X...XoOOoooOooOoXX...............QQQQQQQQQQQQQQQQQ",
"QQQQQQQQQQQQQQQQQQQQQQQQQQQXoO$21O$#-*#OOoOoOooXoXoXoXXXXXXXXXX...XXoOOoOOOoOoXX................QQQQQQQQQQQQQQQQQQQQQQQQQ",
"QQQQQQQQQQQQQQQQQQQQQQQQQQQQXoO#*71#O*#OOOooooooXXXXXX...XXXo#o#O#OOOoXX.X.X.............QQQQQQQQQQQQQQQQQQQQQQQQQQQQQQQQ",
"QQQQQQQQQQQQQQQQQQQQQQQQQQQQQQXoO#7j21#OOoOoOoo.X.o#$11$$o##XXXX..X..............QQQQQQQQQQQQQQQQQQQQQQQQQQQQQQQQQQQQQQQQ",
"QQQQQQQQQQQQQQQQQQQQQQQQQQQQQQQQXO#*hh5Oo##*1011###OXXXX.XXXXX.X.....X...QQQQQQQQQQQQQQQQQQQQQQQQQQQQQQQQQQQQQQQQQQQQQQQQ",
"QQQQQQQQQQQQQQQQQQQQQQQQQQQQQQQQQXOO$7h88*$#OXoXoXoXXXX.X.X.......QQQQQQQQQQQQQQQQQQQQQQQQQQQQQQQQQQQQQQQQQQQQQQQQQQQQQQQ",
"QQQQQQQQQQQQQQQQQQQQQQQQQQQQQQQQQQQXO$#OoOooXoXoXoXXXXXX..QQQQQQQQQQQQQQQQQQQQQQQQQQQQQQQQQQQQQQQQQQQQQQQQQQQQQQQQQQQQQQQ",
"QQQQQQQQQQQQQQQQQQQQQQQQQQQQQQQQQQQQXO#OoooooXo..XQQQQQQQQQQQQQQQQQQQQQQQQQQQQQQQQQQQQQQQQQQQQQQQQQQQQQQQQQQQQQQQQQQQQQQQ",
"QQQQQQQQQQQQQQQQQQQQQQQQQQQQQQQQQQQQQQ#Oo..QQQQQQQQQQQQQQQQQQQQQQQQQQQQQQQQQQQQQQQQQQQQQQQQQQQQQQQQQQQQQQQQQQQQQQQQQQQQQQ"
};
