/* XPM */
static char *_[] = {
/* columns rows colors chars-per-pixel */
"89 133 85 1 ",
"  c #1B1B1B",
". c gray12",
"X c gray15",
"o c #2C2C2C",
"O c #2F3F3F",
"+ c #303032",
"@ c gray20",
"# c #323737",
"$ c #35353B",
"% c #3A3A3A",
"& c #453F2A",
"* c #4F3F2B",
"= c #344D2D",
"- c #3D5935",
"; c #5D4E0E",
": c #68570B",
"> c #746107",
", c #7F6A04",
"< c #53472C",
"1 c #604C33",
"2 c #6D5536",
"3 c #7B5C3C",
"4 c #3D3D43",
"5 c #4B3447",
"6 c #563A4D",
"7 c #2E6767",
"8 c #367070",
"9 c #434343",
"0 c #4E4E4E",
"q c #4B4B55",
"w c gray34",
"e c #555560",
"r c #5E5E6D",
"t c gray39",
"y c gray43",
"u c #676774",
"i c #777777",
"p c #72727F",
"a c #A2240C",
"s c #A9300F",
"d c #B74817",
"f c #8B7300",
"g c #C65F1F",
"h c #866741",
"j c #976E45",
"k c #AD7F4E",
"l c #6B906D",
"z c #7B9C76",
"x c #9A8500",
"c c #A89600",
"v c #B7A800",
"b c #C5B900",
"n c #E28F2E",
"m c #EA9B32",
"M c #F1A736",
"N c #E2DC00",
"B c #F1EE2D",
"V c #B78C58",
"C c #FFAF53",
"Z c #C49A69",
"A c #FFB962",
"S c #FFC370",
"D c #FFF667",
"F c #37619A",
"G c #468787",
"H c #579A9A",
"J c #848484",
"K c #878795",
"L c #939393",
"P c #91919F",
"I c #94B08D",
"U c #A2A2A2",
"Y c #A5A5AE",
"T c #AEAEAE",
"R c #FFD78D",
"E c #F4CAA7",
"W c #FEEBAA",
"Q c #FEF5B9",
"! c #BCBCC7",
"~ c #C5C5C5",
"^ c #CADDC4",
"/ c gainsboro",
"( c #FEFFC7",
") c #CDCDE0",
"_ c None",
/* pixels */
"_________________________________________________________________________________________",
"_________________________________________________________________________________________",
"_______________n_________________________________________________________________________",
"_______________gg________________________________________________________________________",
"_________________________________________________________________________________________",
"___________________nn__________________+@oo______________________________________________",
"____________________Cn________________+%__X+__+4q4@X_____________________________________",
"_____________________n________________%$___$_$X.___.X____________________________________",
"__________________Mn___________________$9__4&o___o_X@___________________________g________",
"__________________MWn_____________________49o&____o@_____________________________________",
"_____________n____n((B______________19qu3q1u04$o___________________________n_____________",
"____________n______W(D_____________%u%_=497iee<$@o________________________nn_____________",
"___________mn_____nD(C___________u00___4X+qq%X1%+XX%y9____________________M______________",
"___________mn____nDDC___________y9___%9$__%+__X4+___0w9__________________________________",
"____________m____CWC____________w_yy_w+__$=X___X%o____9u_________________________________",
"________________nCDmn__________0@90yP0___49_____&$%____w_________________________________",
"________________nMCDn__________9_@__0q__o0$_____Xo_9w__9u___________________nMn__________",
"________________mM(CMn_________9_%_%0_@@XXX$____X$X99P__u__________________dBB___n_______",
"____________n___nM((CCMn__n____@___%9%0e99$@X$___@X@_0i_w__________________nQB___nn______",
"___________gg___nC(((DCn__nn___@w_99oeGxrq9O+X4__OX___u_9___________________ns____n______",
"________________nC((((DCn__nn___@uw@oG(U7wqq$+X__9X__9__9_____________n_____a____________",
"_______nn____n__nCD((((Cn_nBn____%9oqvRl:e9<4+#X_q@@___9_____________nn__________________",
"______nC_____nn_nMCD((DCn_BBn_____oqpTh7eeq<++#Xow%+%@9______________nn__________________",
"______n______mn__nCC((DCCnBn______.p0$+oo+$qe49X+OXXo_______________nmC__________________",
"______o@nM&$$&$@+@ooo..o@%o.______.@9VY3e9$+$qeXXX__________________nCm__nn______________",
"_______nWM_..........._____________$9LU,7e;4+$rXX___________________nCnann_______________",
"______B((n____n......___________@9_9oeer%Xo9%+++____+________________namCC_______________",
"______D(W______n..X.___________@7__ooXy%Xo%oe$X+X_XXe+________________annC__M____________",
"______C(Dn_____nm.X.___________@9X_e%<Lo%$ey3%%%X___q+_________________aCCMMM____________",
"_______CDDn____nm.XX.____________..rcJU9%yLJe.9o.X_%+X__________________nQQMMM_MM________",
"________CWC____m..Xo.______________0ihq%eyk3<o+._.XXX___________________d((QCQMWWC_______",
"_______nmDCn_____.XooX_____________$e3r:%7re++%_______________________d_nQ(((QCCWC_______",
"_______nDCMn_____..X@o.____________+;%ooo1e9++%__________________n_ogng%$$$$++@ooo..o@%o.",
"______nMC(Mm_____...o+X____________.<rie%9<9+._______________________gmkKrew+o......_____",
"____nMCC((Mn______..X%oX____________$9%%e%&+.________________________9mr$+........_______",
"____nCD(((Cn______..X+%+.___________.r:w%++.._______________________9%g...B....__________",
"___nCD((((Cn______...oq$o%OqqwyKUSF;+%....+%+.%%@4uw_________________oX...Mn_____________",
"___nC((((DCn__n____..X4X@933hKv(/i:<.++.X+9+%&4er:jR(!p09__________&2%X.._nn_____________",
"___nCD((DCMn_nn_____..X@+%wuhpL/,q$r9.9===1+4weqrerK/N)UKwq9____+$re%+..@_an_____________",
"__nCCD((CCn__nm_____...XXo$4o41w0p%9;r++.&+174<4qqe;e3hfpGfpw09@ehw@+XnCs_na_____________",
"o@$%%$&$$@@+ooo..o@%o......XX9990Kw*99+<-<q00=44&<4$++$eeyPKw0@Kjq+=XnMCDMa______________",
"____....XXoo.XX..______.....o@@0Lfw%%%%9$+9q0e44@$o@ooo+=3ww9@09%++X.nnnDDM______________",
"______......Xo..___________oo0KZkp<9%;=44qufhwp4o+X...Xooo=9@9O&&+X..__n((C______________",
"__________.XXo..____________pSETpe9q4=%%4wpKGpf4X........X+++++=+o..__n((DC______________",
"__________..XXo.___________y~(Tkp<94O<#=qeGIUUKqoX.........oo@oo.Mn_nn((DCn______________",
"___________..X&o._________0rLfkp994%O4%%6eu^(~fwoo.X.._____.....MMMnBDD(Cn_______________",
"____________..o$o._______90:0wu9455$++$4qq7zNLwy@o.o.___________MMDnBD((n________________",
"____________..o$0oo____o32@%5<<%Oq4+%+=5=qq7pwqp++oo+___________MB(nD((Dnd_______________",
"_____________..o1y0o_o902@.+5%$56O+o=o+=%<O=4q90%ooo____________DD(D((((Md_______________",
"______________..o3yqoee$oX.X+++oo+9$6=++$=$=$+%q.o@@o___________mBDB((((Qnd______________",
"______________..oe%.0q@oXX..XXo9e<$%;O5+X+===$o..@@@o______o@$%%$$$$++@ooo..o@%o.________",
"_______________..&.o+oXXX....+%&<oOO%q%<+XX.....X@@@9%_________9@$9%$oXoXX.______________",
"_______________..oooXXX...._.&&+o%$#$$+%=++X.....X@990________%=&ooXX....._______________",
"________________..XXXX....__.<$%%5%<=$==o*X..__...X9900______%;@X.....___________________",
"________________..XX....____o&4&%%%<%%$=+oX.___....@000____%9:&o...______________________",
"_________________...._______+$%&9<q5%%=*<%X@____...X%ww9__ur8%o..._______________________",
"___________________________O@&%%9<<9%<%%;0%______...X9uuwpr04o...________________________",
"___________________________@%&&9<6%%%4<<euq+______..Xo%uH74$o..._________________________",
"___________________________$%%%9q9%%%<;eu20%o_____...X@q4&oo...__________________________",
"__________________________@%%%%9q%%%&%qt>299%______...X=o.o..____________________________",
"_________________________@$%%%%$$%%%%%#20r2%#o______........_____________________________",
"_________________________$%%%%%9q9%%%<<902<%#o_______......______________________________",
"_________________________$%%%%%%%%<%%%%9209%%o________...________________________________",
"________________________o%%%%%%%%%%%%%%209<9%#___________________________________________",
"________________________o%445&%%%%%%$%%9t999%#o__________________________________________",
"________________________+%%O5&O%%%$$$%%q0<99%#o__________________________________________",
"________________________+%<$$O%%%$$$+%900<99%#o__________________________________________",
"_______________________o+%%$++$$$$+++%90%%$$@oo__________________________________________",
"_______________________o+%&$+X$$++oo$%0q%%$$+o___________________________________________",
"_______________________o$%&$+Xo++oX+$%09%%$$+o___________________________________________",
"_______________________+$%$$+oX+oXo+$%04%%$$@o___________________________________________",
"_______________________+$<$$+oooX.+$$%q9%%$+oo___________________________________________",
"_______________________@$%$$++oX.X+$%444%%$+oo___________________________________________",
"_______________________+$%%&$++X.o$$%994%%$+o____________________________________________",
"________________________$%%$$++X.o$$%094%%$+o____________________________________________",
"________________________+&O$$++X.o$$%994%%$+o____________________________________________",
"________________________+%O$$+oX.o+$%094%%$o_____________________________________________",
"________________________+%O$++oX.o+$%0q4%%$o_____________________________________________",
"________________________+%%$++oX.o$$%0<6%%@______________________________________________",
"_________________________%O$++oX.oO59096%$+______________________________________________",
"_________________________%%$++oX.o$59096%$o______________________________________________",
"_________________________$O@+ooX.o$%9;9%%$_______________________________________________",
"_________________________+O++ooXXo$&909%%@_______________________________________________",
"_________________________+%$+oXXXo$9q;9%%o_______________________________________________",
"_________________________@%O@+o.o+5%005%$________________________________________________",
"__________________________%O++o.o+<9;69%$________________________________________________",
"__________________________$O+oo.o+%9w69%@________________________________________________",
"__________________________$%+oo.o+<q;9$%@________________________________________________",
"__________________________%$ooo.o+<0w<9%_________________________________________________",
"__________________________++ooXXo$9;e%%5_________________________________________________",
"__________________________o+oXXXX%9eq9%$_________________________________________________",
"__________________________o$+XXXX$9;q<%+_________________________________________________",
"___________________________$$XXX.+<<qO<+@________________________________________________",
"___________________________$+XXX.+&<;<&++________________________________________________",
"___________________________@+XXX.+o%O<$$$+_______________________________________________",
"___________________________+oXXX.Xo<&$++$$@______________________________________________",
"___________________________@ooXX..o$@o+o+$$______________________________________________",
"____________________________ooXX..Xoooooo+$+_____________________________________________",
"____________________________ooXX...XXooooo++_____________________________________________",
"____________________________ooXXX...Xooooo++o____________________________________________",
"____________________________ooXXX.._.XoXooo++____________________________________________",
"____________________________ooXXX.._..XoXoo+@____________________________________________",
"____________________________XoXX...__.XXXXoo+o___________________________________________",
"_____________________________oXX...__X.XXXoooo___________________________________________",
"_____________________________oXX...___..XXXooo___________________________________________",
"_____________________________oXX...____..XXXoo___________________________________________",
"_____________________________oXX...____...XXXo___________________________________________",
"_____________________________oXX..______..XXXoo__________________________________________",
"_____________________________oXX..______X..XXo+__________________________________________",
"_____________________________oXX.._______..XXX+__________________________________________",
"_____________________________+oX.._______...XX+__________________________________________",
"_____________________________@oXX..______X..XXXo_________________________________________",
"____________________________X+oXX.._______...XX+_________________________________________",
"____________________________@+XXX.._______...XXoo________________________________________",
"___________________________++oXXX..XoXoXX....XX+o________________________________________",
"_____________________ooooo@+oXXX...XXXXoXo..XXX%@oo______________________________________",
"________________oo+q%++ooXXXXXXX....oXoXoX.o+XXoo+XXooX__________________________________",
"______________o@&@++%%$$XXXX........XoXXXooooXXXoXo++++oX________________________________",
"____________o%<<+++X$%%%oX........X.XXoXX.o++o..XXXX+++@&%X______________________________",
"___________%<<%&&+oX+X$+o.....XoXoXoX+4+%@+$$+XXX.XoX++$$&%X_____________________________",
"___________o%q<&4&&++X++X.XooXoXXXXXo4%.%o$X+oXX.X++44%$&+q _____________________________",
"___________o$%<<&44&&oXo+$&$+&+$+++$+++ + X XXo++$+4+%%$%%X _____________________________",
"___________X$$$q1<4&4$%44+444+4+4+$+$oX X X Xo4+%%%%%&&<o.X _____________________________",
"____________o$@&<2e1%&44&44444+4+++++++$+++&+4%%%5+4&<&o.X. _____________________________",
"___________X%X$+++&&q0q<44&4444+&+&++++++$44$555555+X ..X X _____________________________",
"___________X**Xo++o+o++$4$qqweru2q6%4455%4%4&oo      .   @. _____________________________",
"___________X&+<%oX+o+o+o+XoXoXX++o+o+ooX. . .          Xo.X _____________________________",
"___________XX$+*1+.Xo+ooooXoXoXX.X.X.... . .         XX..X. _____________________________",
"____________ X$@&+1<+.X.. .XoXoXX.X.X.. . .        .X . .  ______________________________",
"______________ XX@++444444+o .             .XX.          ________________________________",
"________________   Xoo+oo+o+&+$@4<w4+ooo+ . .          __________________________________",
"____________________    XXXoXoXX.X.X.X.. .         ______________________________________",
"__________________________                   ____________________________________________"
};
