/* XPM */
static char *_[] = {
/* columns rows colors chars-per-pixel */
"86 158 87 1 ",
"  c gray6",
". c #131313",
"X c gray9",
"o c #1B1B1B",
"O c gray12",
"+ c #1E371E",
"@ c #3A3319",
"# c #232323",
"$ c #282828",
"% c #282F28",
"& c #2B2E2D",
"* c #2C2C2C",
"= c #2E2C2E",
"- c #322D22",
"; c #392B27",
": c #223322",
"> c #273C27",
", c #2B3827",
"< c #263328",
"1 c #3D3626",
"2 c #363228",
"3 c #382D34",
"4 c #3F2F38",
"5 c #2C3031",
"6 c #2F3B3C",
"7 c #303032",
"8 c gray20",
"9 c #35353B",
"0 c #3A3A3A",
"q c #453C15",
"w c #412921",
"e c #423629",
"r c #453F2A",
"t c #4F3F2B",
"y c #2D4025",
"u c #2E4425",
"i c #334B23",
"p c #344D2D",
"a c #3D5935",
"s c #5D4E0E",
"d c #514512",
"f c #68570B",
"g c #7F6A04",
"h c #5B4326",
"j c #53472C",
"k c #604C33",
"l c #6D5536",
"z c #7B5C3C",
"x c #3D3D43",
"c c #323E49",
"v c #4B3447",
"b c #563A4D",
"n c #2D4848",
"m c #344557",
"M c #285353",
"N c #334D66",
"B c #4E4E4E",
"V c #444450",
"C c #4B4B55",
"Z c gray34",
"A c #446343",
"S c #4D6E4E",
"D c #527456",
"F c #555560",
"G c #5E5E6D",
"H c #654160",
"J c #6D4566",
"K c gray39",
"L c gray43",
"P c #676774",
"I c #777777",
"U c #72727F",
"Y c #8B7300",
"T c #866741",
"R c #976E45",
"E c #AD7F4E",
"W c #5D825E",
"Q c #B78C58",
"! c #C49A69",
"~ c #CF9876",
"^ c #7A7A89",
"/ c #848484",
"( c #878795",
") c #939393",
"_ c #91919F",
"` c #A5A5AE",
"' c None",
/* pixels */
"''''''''''''''''''''''ZKBc$Oo'''''''''''''''''''''''''''''''''''''''''''''''''''''''''",
"''''''''''''''''''''xZ^)fn5#oX.'''''''''''''''''''''''''''''''''''''''''''''''''''''''",
"''''''''''''''''''''ZL_!Dsx8#oX.''''''''''''''''''''''''''''''''''''''''''''''''''''''",
"'''''''''''''''''''BaAgUfBy0%OoX.'''''''''''''''''''''''''''''''''''''''''''''''''''''",
"'''''''''''''''''''Kujdrjsjn5#ooX.''''''''''''''''''''''''''''''''''''''''''''''''''''",
"''''''''''''''''''xBdu6,,*,,-OoXXX''''''''''''''''''''''''''''''''''''''''''''''''''''",
"'''''''''''''''''KZ8=x=#xO,<o.$#o..'''''''''''''''''''''''''''''''''''''''''''''''''''",
"''''''''''''''''9p:#<r1o*9-o=xZx5#OoX.''''''''''''''''''''''''''''''''''''''''''''''''",
"''''''''''''''''B*..a-x*#$-*xBLFx9$OOo.o''''''''''''''''''''''''''''''''''''''''''''''",
"'''''''''''''''$a.xO4.yx.O$*6NmBZn9-#OOXoO''''''''''''''''''''''''''''''''''''''''''''",
"'''''''''''''''B0#PX#1n*r.O1oZ6nnxx>*##Oo.='''''''''''''''''''''''''''''''''''''''''''",
"''''''''''''''xK:n=x1:8x9#.#0n<589yx9*##Oo.9''o=8x05#o.'''''''''''''''''''''''''''''''",
"'''''''''''''xIb#GUzr99jxBXo$6o%::*55>%$OOo.9###%tlr@-#Oo.''''''''''''''''''''''''''''",
"''''''''''''$KM1B9#o#<9xxk*.o#6o#<5:**%$#OOXO9OX#-111@*##OX'''''''''''''''''''''''''''",
"'''''''''''$BV1B.9*..o*BzB#.oOX6XO%x5<<%#OOoo.-oXo-k92*$##o.''''''''''''''''''''''''''",
"'''''''''''BJ6V##...o#xAB*o..#*#6.O#9*<%$#Oo...Xo.X=1@12$#Oo.'''''''''''''''''''''''''",
"'''''''''''kx;.xo..B.nZ8$o.XXo#*9O.X#8x-##o.O$-#oX.Xo#2r$oOoo.''''''''''''''''''''''''",
"'''''''''''KB#...o.1nx$oX..XXoO*Z6O.X$r2*o=x-1xk=#oo.X#1-.Ooo#''''''''''''''''''''''''",
"''''''''''xB8Z...B6x5.o..XX..XO$nc*X.O*9xkZjr9112-=$#o..oXOOoo.'''''''''''''''''''''''",
"'''''''''BU0oO...x9*.OX.o..Xo.X*6*O#oX9xl(Rje1@@29x9-#oX..o#OOo.''''''''''''''''''''''",
"'''''''''9=K....KOx.O:.o:.XX...o.O6c6O7BKYs@2@9@1rkt-##oo..o###o.'''''''''''''''''''''",
"''''''''''.9...C-x##OooO*XX.oX.XO67#=#O9xr=O-1119r91-#o.ooX.X#r#X.''''''''''''''''''''",
"'''''''''''o''*$x9XOoX#*#o.oXX.O5*5*O*x*O@O.-@@=21-%$oXoOooX.O9OXX.'''''''''''''''''''",
"''''''''''''''ZXnOoXXO:uO.XX..X#xnN*8xt9*-o$-=@1--2-$##OOOOoX.oo.XX'''''''''''''''''''",
"''''''''''''KZ<c<XX.o=u%oo#..'o<8mCOrBx92<x<@52@<5@-#*##OOooo...XXo.''''''''''''''''''",
"''''''''''''=VkjOX.X#>$o.XX.'.#n8n6=rx1=q68@5@55@**$#####OOooX...#oX.'''''''''''''''''",
"'''''''''''''9B=X.XO#oX...'''.#B5656x1669661@5-*--*$O##OOOoOoXX...XX.'''''''''''''''''",
"'''''''''''''.....Xoo...'''''.Ox*5:556,66@559**@-=%$#####OOoOoX...XX.'''''''''''''''''",
"'''''''''''''''.......''''''''O>O<6,:5696525*O5&%%$#O###OOOOooX....o..''''''''''''''''",
"''''''''''''''''''..''''''''''.xX5$O<:<5685$O-*$O-###$#O#OOoooX.......''''''''''''''''",
"''''''''''''''''''''''''''''''.p.o#$:,O<89$::**#XO6*$###OOoOooX.X.X.X..'''''''''''''''",
"''''''''''''''''''''''''''''''.=o<5506$1*1X:5*#oX6m5$$#OOOOooXX.X...X..'''''''''''''''",
"''''''''''''''''''''''''''cCB=oo*pj,9<<6-:#**$o.Omx5$#O#OOoOooX.o..X...'''''''''''''''",
"''''''''''''''''''''''''=BUPxo#2ZKBV9*,n,-:-,#X.$c85#$#OOOOooXX.oX.oX...''''''''''''''",
"'''''''''''''''''''''''9G^_P9#-eQ^l0922t9:**:#X.#55=$$O#OOooXXo.oX.o....''''''''''''''",
"'''''''''''''''''''''=6Z^)IBo-$tKZp>9=,n=*58$OX.%x==$##OOoOooXo.XXX.....''''''''''''''",
"''''''''''''''''''''=xVBGPF9okoeZpx95::v<66%oX.X=95$*$##OOooXXo.XoXXX...='''''''''''''",
"''''''''''''''''''''xxyxFBx=$K**x09,%#*>*5#X...o=95%$$#OOoOooXo..oX.X..o$'''''''''''''",
"'''''''''''''''''''9Ba6pCc5o=zO,99<=#O:9>#X...X#5x5**$$#OoooXXo.XXXX...o$'''''''''''''",
"'''''''''''''''''''Bxn6Vu6,.%x*,55,$o#*69OX..XX*9x>5*$#OOoOXoXXXXX...X.O$'''''''''''''",
"''''''''''''''''''=a968x995.9-9x8==Oo$<>:X..Xo.#x9y6**$#OOooXXoXX.XX.X.O='''''''''''''",
"''''''''''''''''''$x#x=y9>=.#-exc<#oO:$<OX..oX..<xiy<$$#OooX.XXX.X.....O''''''''''''''",
"'''''''''''''''''''#Oc=6y,*.oOr*OooO#%<>:X..X..Xo:+x>=$#OOoX..X.X..X...O''''''''''''''",
"'''''''''''''''''''o.6=*,n=X.%x.XOo<O%*:,O.XX....XO*,%<###ooX.XX.X....X=''''''''''''''",
"''''''''''''''''''''X*#***$O-x9*85%6x97<x#Xo#.....XO+<&$#OooX.X.X.....O=''''''''''''''",
"'''''''''''''''''9cV.OO$::#$jzBVBx6dx9,>p*Xoo...Ooo#:<<$##Ooo..X......O'''''''''''''''",
"''''''''''''''9BZBBp#X$###O-KLRLlB9sp>=ca:.oX....Xo.O6<##OooX....X.X.X='''''''''''''''",
"''''''''''''BzWKBkrr*.o#O#*tL`~/zFnsn666p#o.....XXoOo<:$*#OoX.X....X.o$'''''''''''''''",
"''''''''''''ZrmZx%=##..O##0Bz)`RzZqZB>66,XX....X.X..X*::=O#oX..X...o.$$'''''''''''''''",
"''''''''''''9B9xFo.....oOoxKlTQTlsqBF5>0#.......XXXO#*5<$#Oo..X.X..o.9*'''''''''''''''",
"'''''''''''''>r1x-..Xo..o*kZjk/zfdqjB<9*o.........XXO$#O###o..XX.X.O.9''''''''''''''''",
"''''''''''''x91=c@.X#X.X.0Zx0tTlBnqrFxno.X...XX...Xo##OOO#OX..XXX..oo7''''''''''''''''",
"''''''''''VZVro->-.XO.oX.xB-@klBnqc6nB*.O....Xo.XO#$<<<$#Oo...oX.X.OO$''''''''''''''''",
"'''''''''9kUxO.$:#...oOo.t9*0jBdq@nq0ZOXo...XoX.O#%*5*95<$OX..XoX..o#=''''''''''''''''",
"'''''''''=CCB>:#Xo...XOo.x%#xttB@n955x.#o..XoXo.o#%%<=6xx9=$O..XXX.o%*''''''''''''''''",
"'''''''''O6n11y%*.....XX.1o@xt@B<sd<<9.o..X.XXoXOO#$--@559x9%$OoXXXX*9''''''''''''''''",
"''''''''''O$=>1V#..o....o-Otd@Oxxq@6O*.X...XXooooOO#$%<<*=9vB9$#Oo..O'''''''''''''''''",
"''''''''''''.O.OOX*O.XX.%o9t@#%cc@<OO*o.X...XXooOoOO##$-<*5p6cj19=$#oX''''''''''''''''",
"''''''''''''''XXO*Oo.X..O*t*=vBq@@OoO#.XXX.X.oXooOoOOO###$$<-<@@@5915$###'''''''''''''",
"'''''''''''''''XXXOXXX.X-*x=#qn6*#oOXO.oooX.XooXooOoOOO#O###$%-%----@@r9===$$$''''''''",
"''''''''''''''''XXX.XX.Oot9o6C<@#oOOO.XoOXoX..XXXoXOoOOOOO#O#O#####$$=-$$$$*=--#''''''",
"''''''''''''''''''''''.$-t*@9d<6oOOO$XoooooOo.X.XXoXooOoOOOOOOOOO#O#O######$%*-*#'''''",
"''''''''''''''''''''''OXV@O@c#<XOOoo.XXo#oO$OOo..XXoXooooOoOOOoOOOOOOOOOOO###$$@$#''''",
"'''''''''''''''''''''.X==.99@<#XOXo.XXooO###$#$o..XXoXoXooOoOoOoOoOoOoOooOOoOO#$$#o'''",
"'''''''''''''''''''''O-9.@5x=#oOXo..XXo#OO#O#-#X.X.X.XXoXoooooooooXoXoXXXooOOOo###o.''",
"'''''''=nCV8*$'''''.$-mO%c=6-.o.o.''XX#OooO#O-o.....X.XXXXXXoXoXXXXX...XXXXooOOoOOOo''",
"'''''5mZZGFFmx*O..*$*6.cq%*-.o.X.'''.o#=#Ooo##X....X.X.X.X.X.X.X.X.X.X.X.XXXooOOoOOo.'",
"''ZKBBBBCB6xZGCx0C9Z=X*x:$1Xo.X''''''X$<O###%O..........X.X.X.X.X.........X.XXoOoOOo.'",
"'KIZjmrc=oCv*xCCx$=xX#91-1oX.o'''''''.$:O#oX=o.......................'''''''.XoOoOooo'",
"'9jO..o..OxB5cc*xx6Z96*-Oo..$''''''''O<=O#X.#.......................'''''''''.XooOooo.",
"'9-.....xkCCCcmFVcm66511O...''''''''O95=##o.X..'o.................''''''''''''.XoooooX",
"'j9....xLCmc6xCx9x68*mOXO..'''''''''6n6$*#o...'''$OX...........''''''''''''''''.ooOooX",
"'ko..'BLKo66c66mG5c*Co...'''''''''''9c<O%$X...'''x>:OX.......O'''''''''''''''''XXooOoX",
".x..'9CKV6Bc*mm665m5X@..o''''''''''9Fn<O##X...'''y::OoXXX...X:''''''''''''''''''XoOOoX",
"...'ZJFCcc65Dm68*m5%-X..O'''''''''<S66$##O...''$x:##ooXXX...X#''''''''''''''''''.OOooX",
"'$BKFBCCn*.BG565n56*O...'''''''''9Cm9$O<#o...#x9@#OOoXXXX...X:O'''''''''''''''''.-OoX.",
"'.lxKUZrO.*x66mnF.p*X..''''''''*CFB65##OOX..9zx-$OoXXXXXX....:#'''''''''''''''''oOOoX.",
"'otvvx=X.oa66p<S6Ono..''''''lxGTm6<%5O<#o...$**#oo..XXX......#=O''''''''''''''''oOooX'",
"'1veJO..$Fnnd<6a5q6X..'''''zkmC195$O=$=O...XOoX.$=80nn6r-*#o.o*O'''''''''''''''.oOoX.'",
"'ttxk.X9KnqA6.*<O#O..'''''tlxc69*O$=**#O-et1cr6ee62-6-66---$#OO''''''''''''''''oOooX.'",
"'kxx1..9adFfO.OOO#o.''''''j#x999#*0tjre116*e6ee652166566-*--#$#*='''''''''''''OOOoX.''",
"'lvZO.'$6<k5...#O-.''''''0$2tetttee12e*5;e5=e6666666@66x=-*;-#$$$#'''''''''''.=ooX..''",
"'=tZ#.''t3H..'.-OO..''kkktte22222222;;;56e2w6e51ernr6-96&;&&;$#$#$''''''''''.-OoX..'''",
"'43x-.''4*$.'''oO1..''e$--$;;--;-==;---*#-92*2*566r6r0n6*&-;;$$#$#'''''''''.xOXX...'''",
"'.14t.''15@.'''$O-X.'..O$$$---*-;-2-*-1#;&@15;166rtc6xrx;&&;$;*$#$''''''''Or#X....''''",
"''$-X...k-5o'''$O=O-#X.$$--$---;;$-;**;*=@*--#*1m1nt9r6x&&-;&;$$##''''''.-x#X....'''''",
"''.$....13t#'''.11OX..-e2*#O#*%$-%*#;-$;#;5=2;#666r9ex6r--&;*-$#$#'''.o=#oXX....''''''",
"'''.X..'.X.X#'''......2e185---##**-;$;;$#-55-5;e11e6xxtn#;;;$-#$##XXOOooXX....''''''''",
"''''...'....o.''...'''2e1922*$$###$$;#-#-$-$-#2160901r9rO;;-#$#XoOOOooX......'''''''''",
"'''''..'''....''''''''5e9=222*$$#o--;#*$*;$#-;10r1e9r6tx*-$$#XoOOOooXX.....'''''''''''",
"''''''..''....''''''''9e=2*=77$**-$#OoX#;#-#$;1jt9101r1r;$OXOOOOoXXX....''''''''''''''",
"''''''''.''...''''''''0e92$*$---#oOOO#Ooo$#-;116rxrerrxt#Xo$#oXXX.....''''''''''''''''",
"''''''''''''''.'''''''0e022%O#$-#oOXo$O-$Oo#2e909xtr9x8#o#$#oX.....'''''''''''''''''''",
"''''''''''''''''''''''0re197$O##oOXO#OOo##o-1919eer9x9#$9Z@oX...ooo'''''''''''''''''''",
"'''''''''''''''''''''''te92e;$OOo.OOoooooo$@92111ex09=XOk1#X..ooooo'''''''''''''''''''",
"'''''''''''''''''''''''tee12-;$ooXOOoooOo#-==2=991e9x##-@OX..Oooooo'''''''''''''''''''",
"'''''''''''''''''''''''xre21-;$#$--$#OoOO-1992e21=199XOOOo..o#ooooo'''''''''''''''''''",
"'''''''''''''''''''''''tte12$-$;---*-----1t9=-OXXX.X..OOoX.....XXoo'''''''''''''''''''",
"'''''''''''''''''''''''ttr11---#-#OXX.X.XXXooooOOOOO#X-Oo..........'''''''''''''''''''",
"'''''''''''''''''''''''x1$ooo.X...oOOOOOOooOooooOOOOO$9Oo..........'''''''''''''''''''",
"'''''''''''''''''''''''=#$-----###oXXX. XXOo..o#;22-XO$OX.O##OoX...'''''''''''''''''''",
"''''''''''''''''''''''''**%$#oX..XXO#OO#;e29-e222211X$$oX.O#O##OOO''''''''''''''''''''",
"'''''''''''''''''''''''''oooOo-O-;OOO$;@1@ew111112e1X##oX.OO##O#OO''''''''''''''''''''",
"'''''''''''''''''''''''''9=OoOO#$#;##O22@e@@21112e@9XO$o..###OOOoO''''''''''''''''''''",
"'''''''''''''''''''''''''1=oXooOO#O#O#@2=22@2@1912eeXO$o..#OoOo#OO''''''''''''''''''''",
"'''''''''''''''''''''''''92oXooooO$;#-11e=*-2e@11e@e-OOo..OOOoOOoO''''''''''''''''''''",
"'''''''''''''''''''''''''5=ooOooOo-O;OoO#Oo#---2222=1XOoX.O#OOooOo''''''''''''''''''''",
"'''''''''''''''''''''''''#=XoooOOOo.X#-;;----$#$-@212#OoX..oOoOooO'''''''''O''''''''''",
"'''''''''''''''''''''''''o#oooooOO.XO-#*;$;**-$$$-e@e*ooo...oOoOoo''''''''o8''''''''''",
"'''''''''''''''''''''''''ooXoOooOXXO#-;*-------*$$2121XooX...oOoOO'''''''*9$.'''''''''",
"''''''''''''''''''''''''''XOOooOo..#;;*;------*-$#*@@=-XooX...oOOo'''''.OBx#.'''''''''",
"''''''''''''''''''''''''''$oXoOOOXo$;;**-;$;;#$$*$#12@2#XooX....oo'''.o$58$o.'''''''''",
"''''''''''''''''''''''''''$ooooOOXX;;*;*$*;#-$#$$-#9=@22oXoooXX....o$=85$Oo.''''''''''",
"''''''''''''''''''''''''''=ooXooO.O*---;;-$$#-$$-*-622@9-oXooooXXXooOOoooX..''''''''''",
"''''''''''''''''''''''''''OoooXoo.O$-$$;;;#;$#$$--*622@22%#XoooooooooooX...'''''''''''",
"''''''''''''''''''''''''''XoXX.XoXO#$$--$#-##$#--$*r5@====$O.XXooooXXXX...''''''''''''",
"''''''''''''''''''''''''''.oooX.X.O##$$#$$#;##$#$-*n622*22-OoO.........'''''''''''''''",
"''''''''''''''''''''''''''.oXoXX.XOO###-#$;#-$-$#--t112625%OoOoOoO''''''''''''''''''''",
"'''''''''''''''''''''''''''XoXooXXO#$$##$##-#-*--##e5@e52*<OOoOoOo''''''''''''''''''''",
"'''''''''''''''''''''''''''XooXXoX#O###-#--#$--$*$-116e551-oXoOOoX''''''''''''''''''''",
"'''''''''''''''''''''''''''XXooo#XO#O#####$$;*$*$O-9265626-oooOoXo''''''''''''''''''''",
"'''''''''''''''''''''''''''oXXoo-XO##O##$##-#-*;*$$9;551112ooXoOoX''''''''''''''''''''",
"'''''''''''''''''''''''''''ooXoo-XO#O#OO#$##$#$*$$-1@5656=2oOoXXo.''''''''''''''''''''",
"'''''''''''''''''''''''''''ooooO-XOO#OO####-##$$;-;;=555-22oOoXoX.''''''''''''''''''''",
"'''''''''''''''''''''''''''oXXo#$.O#OO#OO#O#$##$-#-#25<<222XoooXXX''''''''''''''''''''",
"'''''''''''''''''''''''''''oooo$$.oOO#O#O#O###O#$-#-652<55=XX.X.X.''''''''''''''''''''",
"'''''''''''''''''''''''''''oXoO-*.oooOoO#O#O###O##-#6-<<5==.XoX...X'''''''''''''''''''",
"'''''''''''''''''''''''''''OXX#-2XooOoOOOO###O#OO##Or-<5<2=X.XX.XXX'''''''''''''''''''",
"'''''''''''''''''''''''''''OXX#-2oXooO#O##O#O#OO#O#Or@<<55-.X..X..X'''''''''''''''''''",
"'''''''''''''''''''''''''''OoX#$;O.oOOoO#OOO#OOO##OOr-<=<-=.XXX.X..'''''''''''''''''''",
"'''''''''''''''''''''''''''OoXo#-#.ooOoOoO##O#O##O#O9@@<52-X.X..XX.'''''''''''''''''''",
"'''''''''''''''''''''''''''#XXXO-=.oOoOoO##O#O#O#$#Ox5<<5;;.X..X..X'''''''''''''''''''",
"'''''''''''''''''''''''''''ooooO--.ooOoOOoOOO#OOO#OO62<5*-=X.X..X..'''''''''''''''''''",
"'''''''''''''''''''''''''''oXoo#-2.oOoOOoOO#OoOO#OOOh5<@;@*.X.X....'''''''''''''''''''",
"'''''''''''''''''''''''''''oooO$--.ooOoooooOoOO#OO#ot5@55--X...X.X.'''''''''''''''''''",
"'''''''''''''''''''''''''''oO#O;;$oooOOoOooOOoOoOoOoe<55-@-XXX.X...'''''''''''''''''''",
"''''''''''''''''''''''''''''###<--oooooOoOooOO#OoOoo@<5<;--...X.XX.'''''''''''''''''''",
"''''''''''''''''''''''''''''##$<$=.oOoXoOooOOoOoOooo$<<@--$oX.X.X..'''''''''''''''''''",
"''''''''''''''''''''''''''''#$#<$$XXoOoooOoOoOoOoOoOOe;;$-*OXX.X.X.'''''''''''''''''''",
"''''''''''''''''''''''''''''O#$<$-XoXoooOoOOOoOoOoooO2;;-*$OXXX.X..'''''''''''''''''''",
"''''''''''''''''''''''''''''O;#%#;.XoXoooOoOoOoooooOo2;;$$#OXXXXX..'''''''''''''''''''",
"''''''''''''''''''''''''''''####$;.XXoOoOoOoOoOooOooor;-$--$XXXXX..'''''''''''''''''''",
"''''''''''''''''''''''''''''O###:#.ooXoXoOoOoOoOooOOot-$$$-$XXXoXX.'''''''''''''''''''",
"''''''''''''''''''''''''''''###$$#.XXoXoooOoooOooooOO1-*#-$*XXXXXX.'''''''''''''''''''",
"''''''''''''''''''''''''''''O#;$<O.XoooXoOoOoOoOoOOoOt#-#$--.XXoXX.'''''''''''''''''''",
"''''''''''''''''''''''''''''#O#-$$XXXoXoooooooOooXooO2-$$#$*.oXXX..'''''''''''''''''''",
"''''''''''''''''''''''''''''$###<#o.oXoXoXoXoOooooooOt;$$-$*.ooXXX.'''''''''''''''''''",
"''''''''''''''''''''''''''''$O#$#<O.oXXoXoXoXoOoOoooot--$$#$.oXXXX.'''''''''''''''''''",
"''''''''''''''''''''''''''''-OO#O#o.XoXooXoooXooooooo2$$-#-*.XXXXX.'''''''''''''''''''",
"''''''''''''''''''''''''''''#O#O##o.XXoXXoXoXoooXoXoo2$$$$#*.XXXX..'''''''''''''''''''",
"''''''''''''''''''''''''''''O#OOO#O.XXXXoXoXoXoXoXoXo1--$$$*XXX.X..'''''''''''''''''''",
"''''''''''''''''''''''''''''#OOO#OO.XXoXXoXXXoXoXoXXX9*$$##OX.XX.X.'''''''''''''''''''",
"''''''''''''''''''''''''''''OOO#O##.XXXXXXXoXXoXXXXXXx*$$$##.XX..X.'''''''''''''''''''",
"'''''''''''''''''''''''''''''OOOOO#..X.XXXXXXXXXoXXoX9-$-##OX.XX...'''''''''''''''''''",
"'''''''''''''''''''''''''''''''''O#.'''.....X.XXXXXXX*###$##.XX..  '''''''''''''''''''",
"'''''''''''''''''''''''''''''''''''''''''''''....X.XX9##$##OX..  '''''''''''''''''''''",
"'''''''''''''''''''''''''''''''''''''''''''''''''''..*###-##.  '''''''''''''''''''''''",
"'''''''''''''''''''''''''''''''''''''''''''''''''''''=$O$OOO '''''''''''''''''''''''''"
};
