/* XPM */
static char *_0[] = {
/* columns rows colors chars-per-pixel */
"64 100 96 2 ",
"   c gray6",
".  c #131313",
"X  c gray9",
"o  c #1B1B1B",
"O  c gray12",
"+  c #23170B",
"@  c #2F1F0F",
"#  c #1E371E",
"$  c #3A3319",
"%  c #232323",
"&  c gray15",
"*  c #282828",
"=  c #282F28",
"-  c #2B2E2D",
";  c #2C2C2C",
":  c #2C2C2D",
">  c #2E2C2E",
",  c #322D22",
"<  c #223322",
"1  c #273C27",
"2  c #3D3626",
"3  c #363228",
"4  c #2D3030",
"5  c #2F3B3C",
"6  c #303032",
"7  c gray20",
"8  c #323737",
"9  c #35353B",
"0  c #3A3A3A",
"q  c #4A271B",
"w  c #453C15",
"e  c #412921",
"r  c #423629",
"t  c #453F2A",
"y  c #4F3F2B",
"u  c #2E4425",
"i  c #344D2D",
"p  c #3D5935",
"a  c #514512",
"s  c #68570B",
"d  c #746107",
"f  c #7F6A04",
"g  c #5B4326",
"h  c #53472C",
"j  c #674027",
"k  c #604C33",
"l  c #6D5536",
"z  c #7B5C3C",
"x  c #3D3D43",
"c  c #2D527A",
"v  c #367070",
"b  c #3E7C7C",
"n  c #434343",
"m  c #4E4E4E",
"M  c #444450",
"N  c #4B4B55",
"B  c gray34",
"V  c #446343",
"C  c #4D6E4E",
"Z  c #527456",
"A  c #555560",
"S  c #5E5E6D",
"D  c gray39",
"F  c #676774",
"G  c #777777",
"H  c #72727F",
"J  c #8B7300",
"K  c #9B5B2F",
"L  c #814F30",
"P  c #985D3F",
"I  c #866741",
"U  c #976E45",
"Y  c #A76743",
"T  c #A56446",
"R  c #A0764A",
"E  c #AD7F4E",
"W  c #B47150",
"Q  c #5D825E",
"!  c #6B906D",
"~  c #9A8500",
"^  c #A89600",
"/  c #B78C58",
"(  c #C49A69",
")  c #CF9876",
"_  c #315A8E",
"`  c #37619A",
"'  c #7A7A89",
"]  c #AF6F90",
"[  c #848484",
"{  c #878795",
"}  c #939393",
"|  c #A2A2A2",
" . c #B9B9B9",
".. c #D5AE80",
"X. c #E3B490",
"o. c #E5C196",
/* pixels */
"h h h h h h h h h h h h h h h h h h h h h h h h h h h h h h h h h h h h h h h h h h h h h h h h h h h h h h h h h h h h h h h h ",
"E E E E E U U U E U I z z I I I I I U E / / / E U U U U I I I I I I I I U U I z z z z z I U E E E E E E E E E E E E E U U l z z ",
"E U U I I I I I I I I I I I U U E / / E E U I I I I I I z z z I I I I I I U U I z z z z I I I I I U / / E E E U U I I I I k k l ",
"k h h h h h h h h h l I I I I I I l k k k k k k h h h h k k k k k k k h h h h k l l k h h h k k k k k l z z z z z l l l l l l l ",
"k l l l l l l l k h h h h h h h h h h h k k k k k k k l l z z z z z z z l k k h k k l z l k k l l z I I z z l k k k k k k h h h ",
"k k k k h h k k l z l l l l l l l l z z z z z z z l k k h h h k l l z z z z l k k k h h h k I I I I l k k k k k k h h h h k k k ",
"z z z l k k h h h k k l l k l z z l k k k k k k h h h h h h h h h h h h k l z z z l k k h h k k k h h h h k k k k k k k l l z z ",
"k k k k l z z k h h h h h h k I I I I z z k h h k k k h h h h k l z z k k k k l l l z z I z l k l l l z z z z z z z l k k h h h ",
"h h h h h h h k l l k h h h h h h h h h k k h h k l l k k k k k k k k l z l k h k l l k k k k k z z l k k k k k k h h h h h h h ",
"h h h h h h h h h h h h h h h h h h h h h h h h h h h h h h h h h h h h h h h h h h h h h h h h h h h h h h h h h h h h h h h h ",
", 3 r O                             o X O o o                   X X X X X X       X         X X +     X                 % O 2 , ",
", 2 t O     . X .               . X o o o O o o                     X X X X     X   O h y y X X X     X                 O O h 3 ",
"3 2 t O   X o # # o o o o X   O % O O X o O # O X                     X X   $ h h 3 @ y l $ l X X   X X                 O @ k 2 ",
"2 y h @ 4 V C u < x u u u x V i V Z V i * i 9 9 u 1 O O O O O O % % % + U ( ( ( ( ( l l ( 2 l , , % , , X X X O O @ O X O % l 2 ",
"r h l % 6 p p C u < < x x x V u u V V i x > u p p 9 , , , , , O O O l / ) o.o.X.( / I t ..k I / y % , % % O % , , $ , % , , l r ",
"r h l % 6 u p V V C C p u V p x < p V p x - = i x V i , , , , X O z ( ) ..) ( ] ( E k t R l l U z g O % @ O % , , , $ % , , l r ",
"r k l % & # i i p p p p V p u x < p p p x & & V C p i x & , , X X I ..X.) W P U E E t t l / U ../ I , , O O % , , , $ % , , k r ",
"y k k % & & & 9 # 1 1 1 1 x # > # C p p i u u u V i u x 9 , , % & z ( X...E P U T j h g U z z k / ..g , O O % , , , $ % , , h r ",
"y k k , & & & & & & & & & & & & & i 1 1 1 x x & & & & & & & & 6 l k U ( ..) E E U q h r w T T E ) X.y % O O % , , , $ % , , h r ",
"y h h h k h h y 2 h k h k h h l h h k k k l h y r 2 h k k k l h h h l k h 2 h h h h k l h h h k h h k h y 2 h k k k h k h l h r ",
"h k k * 8 8 8 n m t x t 2 t m * k R R U R U U U U U R R U U U U l l U U U R R R R U U z l U z z z U U U U U U U z z U U U U h r ",
"y k l l z B B B m n 0 * * 2 5 O z l l l l z z l l l l z z z z z z l l l l l l l l z z z z l l l l l l z z l l l l l l l z l h r ",
"y k r r r r r r r r r r r r r r r r r r r r r r r r r r r r r r r r r r r r r r r r r r r r r r r r r r r r r r r r r r r r h r ",
"y k k X + + +         N   X + X + + + + + + + X X + X + + X + + O X + + X X + + O + + + + X X X X +             + X X X O X h r ",
"h k k O X O X X   X X ` X + O O X X O X X X X + X X O X X O X X O O X X + X X X O X X X X O O O X X X   X   X X X O O O O X h r ",
"h k k O O O X X   + O H n X O X X X O X X X O + X X O X X X X X O O X X + X X X O O X X X X O O X X X   X X + X X O X O O X k r ",
"y k k O O O X X   + X c m X O X X X O X X X X $ X X O X X O X O O X X X + X X X O O O X X X O O X X X   O X X X + X X O X X k r ",
"y k k , % , % O X O , c c n , % % % , % % , % @ O @ % % % , % , , % % % @ O % % , , , % % % , , % % O X O @ O O @ % % , % , k r ",
"y k l % % , % O O O O A Z m , % % % , % % , % @ O @ % % % , % % , % % % @ O % , % , , % % % , , X U z O X X O O @ % % , % , k r ",
"h k l % , , % @ X @ @ S ` A 0 , % % , % , , % @ O @ % % % , % % , % % % @ O % , % % , , % % , O g q R z g X @ % @ % , % % , h r ",
"h k l % , , % @ O % , G { S 0 , % % , % , % % @ O @ % % % , % % , , % % @ O % , % % % , % % X g q q / R z g % % % % , % , , h r ",
"y k l % % , % @ O % , % N 0 , , % % , , , % % % O @ % % , , % % % , % % @ O % , , % % , % X g q q I k h k z g % % , , % , , h r ",
"h k l % % , % @ O % , N } A 0 m n 0 7 , % % % % O @ % % , , % % , , % % @ O % , , , % , % X j q q R I k h g t , , , % % , , h r ",
"t k l % % , % @ O % h ' [ m A 0 B m n 0 7 % % @ O @ % , , , , % , , % % @ O % , , , % % , % X j I g g g h 2 2 , , , % , , , h r ",
"h k l % % % % @ O % c v c 0 N 7 c A N m k 7 % @ O % , , , , , % , , % % @ O % % , , k k , , % , $ , X s s q 2 2 , % % , , % h r ",
"h k l % % , , @ N S G S N n 0 N 0 N m n m n 7 @ k k n , , , , % % , % , @ O % % n k z z n , % , , $ X q J q k k j % % , , % h y ",
"y k z % % , , m S [ | { D v _ c N 7 m p m k 0 z Y I z l n , , , % , % , 0 n k z I I I z l k I n , @ g J j J j z z l t , , % k r ",
"y k z , % , n D ' }  .` G F S B c n n n p h k h Y I I z z l k 0 N k h k l z I I I z l s K W K l O g L J L ~ j z R R l t , % k r ",
"y k z , % , h S G { ' S F ` D c m N > p n m e 0 K K I z l k n k l l z l l l z z l k K W I I z z - j ^ g j j ^ g z R R l t % h r ",
"y l z , & , m S F G c F ` c c B s c 7 n 0 n h 0 l Y l k k l z z z z z z z l z l z I I I z z l y 2 t J j l I j ^ z z z k g % h r ",
"y l z , % n N l S c m D c B c N p N 0 7 7 0 ; m 7 Y K I I I I I I I z l l z K I z z l l k k m > t t s t I I j J g k k h t % h r ",
"y l z , , h s m c n m c B N m p h m n * - - m k 7 K U I I z I I z l s d I I z z l k m s l l k y t t t h k l k g J h h t t % h r ",
"y z l , % n m m s 7 N N N p p m p n p * > N 0 k % z U U K z l z I f J z z z z f f f z z z f z h , 2 t h h k t , s , t t % , h r ",
"r k I % % N n h N > m p p N p n h n 0 7 D 6 0 % 0 l z W U I l l z l z z z f f I I I I f f l s a , 2 2 t t t 2 2 , 2 t 2 % , k r ",
"h h l % , S p 0 6 6 n n 0 0 0 7 7 > n m 7 7 % 7 7 k l I W I z l l z l z z I K z z f I z d d k k y , 2 2 2 2 2 2 t t 2 % % , k r ",
"y k k % , 0 S G N * 0 0 7 7 0 n p p n 6 7 % 7 > 7 h k l K U I z l k l l z z f J f z z d z l l k 2 t 2 2 t t t t t h , % , , k r ",
"h k k * 8 7 m N v ' G S D B p n 0 7 7 - % 0 k h 0 n h k I z I I z z k l l z f f T Y f I z z f z l k k I I z l U z z U U U U h r ",
"y k l l z B 6 0 m p m p p 0 0 7 * % % 7 n m l l k 0 h l z h 0 n l z l m k l z T I k k z z 6 0 k z I I z 0 l l l l l l l z l h r ",
"y k r r r r r r 6 6 ; ; > * * O O % 7 0 h k l z l l z l 0 r r > 6 n z l k m z I l r r r r r r r r r r r r r r r r r r r r r h r ",
"y k k X + + +             X + > * 0 h 7 h k l z z z l n + X + + % X 6 k z l B + O + + + + X X X X +             + X X X O X h r ",
"h k k O X O X X   X X + X + O O X > 6 0 k n z z l n O X X O X X O O X X + X X X O X X X X O O O X X X   X   X X X O O O O X h r ",
"h k k O O O X X   + O + X X O X X X O h l z k n X X O X X X X X O O X X + X X X O O X X X X O O X X X   X X + X X O X O O X k r ",
"y k k O O O X X   + X + X X O X X X O X X X X $ X X O X X O X O O X X X + X X X O O O X X X O O X X X   O X X X + X X O X X k r ",
"y k k , % , % O X O , % O % , % % % , % % , % @ O @ % % % , % , , % % % @ O % % , , , % % % , , % % O X O @ O O @ % % , % , k r ",
"y k l % % , % O O O O O O % , % % % , % % , % @ O @ % % % , % % , % % % @ O % , % , , % % % , , % % @ O X X O O @ % % , % , k r ",
"h k l % , , % @ X @ @ @ O % , , % % , % , , % @ O @ % % % , % % , % % % @ O % , % % , , % % , , , % % @ O X @ % @ % , % % , h r ",
"h k l % , , % @ O % , % % , , , % % , % , % % @ O @ % % % , % % , , % % @ O % , % % % , % % % , , % , , @ O % % % % , % , , h r ",
"h k l % % , % @ O % , % % , , , % % l l l k k % O @ % % , , % % % , % % @ O % , , % % , % % % , , % % , @ O % % % , , % , , h r ",
"y k l % % , % @ O % , , % , % , l I I I I z z l l n % % , , % % , , % % @ O % , , , % , % % % , , , % , @ O % , , , % % , , h r ",
"y k l % % , % @ O % , , % , % l I U U I z z l l k k n , , , , % , , % % @ O % , , , % % , % % , $ , % , @ O % , , , % , , , h r ",
"h k l O % % % @ O % , , % , % l I U U I z z l l k k n , , , , % , , % % @ O % % , , % % , , % , $ , % % @ O % , , % % , , % h r ",
"h k l % % , , @ O % , % % , l l z I I z z k l l k k k n , , , % % , % , @ O % % , , , % , , % , , $ % % % O % , , % % , , % h y ",
"y k z % % , , @ O % , % , , l l z z z z k l l k k k n & , , , , % , % , @ O @ h k l l l l k k k k k h h h k k k 2 % , , , % k r ",
"y k z , % , , @ O % , % , % D k l l l k n l k k n 0 0 * , , $ , % , h z z l l g r 3 3 3 3 3 r r r y r y y h y h k z 2 , , % k r ",
"y k z , % , , @ O % , % , , > D S k l n n k n N N 0 - * , , $ , % h z 3 % % & * * * , 3 3 r r r y r y y h y h h h l h , , % h r ",
"y l z , % , , @ O % l l z I > 7 n S G D D N 0 > * * - * z z l $ % 2 k o O % & & , , 3 3 r r r h r y y h y h h l z h 3 , , % h r ",
"y l z , % % , l l z I I U U > 7 0 n n 0 7 7 - > * * > n z I I I I 2 t l y O % % * * % O % * , 3 , r r y h k z 2 % * 3 , % % h r ",
"y l z , , % l I I I I z z z n 6 0 n n 0 7 6 ; - * n k I I I I I I 3 t 3 2 k h 3 % % 2 k U z g o * o o o * I 2 % % * * , % % k r ",
"y z l $ , % z I I z l z l z l z n n n 0 7 n k z l z l z z z z z I , h 3 , * 2 h l l I U k r r 3 o X O X + l I h 2 % X , k l r r ",
"y z l $ , % X l l z I l k l k k l k l k l k z l z l z z z l l k n % , O * r h k , o * r h r * o 0 x % % @ l h k l z z k h r 3 r ",
"y k h h k h h , 0 l z I I l k l k l k l l z l z z z z z l n 6 $ $ @ % 2 h r , % o $ 2 o * h o N D * x h y k h k k h y y r r 3 2 ",
"h k U z z z l l y y 6 n l z I z z l z l z z z z l k 0 6 y h g U R R l z l k k g y z l y 2 % D y > D * x l * 3 y k h y r 3 * * , ",
"h k l k l z z z z l 2 2 2 2 2 $ 2 2 y g y y y g g k k y k y k k k k k k k k k l z z z k k 2 * G x y y m ; 2 2 * * * * * * y , 3 ",
"h k 2 2 2 2 2 2 2 2 & , 2 2 2 2 2 2 2 2 2 2 2 2 2 2 2 2 2 2 2 2 2 2 2 2 2 2 2 2 2 2 2 2 2 2 % * m G B - O , 2 % % % % % % 2 y 2 ",
"y k k X X X X X X X . X X X X                                                                     % %   X X X           X O $ r ",
"y h l X O X X X X X . X X X X       X X X + X X X X X X   + X X X X X X     X X + + X X X X             X X X   X X O X X O $ r ",
"r h l X O X X X X X . X X X X X X X X X X O X + + + + + X O X + + + + + X   + X O O X X O X + + + + X   X O X   X O O X X O 2 r ",
"r h l X O X X X X X . X X X X + X X + X + + + X X X + + X + + X X X + + X X X O O O O O O X X X X X X   X O O   X O O X X X 2 r ",
"r h I % % % % , , % $ , , % , , , , % % O O % , % % % , $ % % % , , , % , , % , % % % , h h l l l , % % , , % % , % , % % , h r ",
"r h I % % % , , , % $ , , % , , , , , % % O % , , % % , $ % % % , , , % , , % , % p l l l l I I I I l % , , , % , % , % % , h r ",
"r k I % % % , , , % $ , , % , , , , , , % @ % % , % % , $ % % % , , % % % , % % p h h l l l l I I I I l % , , % , % , , % , h r ",
"y k I % % % $ , , % $ , , % , , , , , , % @ % % , , % , , % % % , , % % % , % % p h h l l l l I I I I l % , , , , % , , % , h r ",
"y k I % % % $ , , % , $ , % , , % % , , % @ % % , , , % , % % % , , % % % , % p h h h l l h l l I I l l l , , , , % % , % , h r ",
"y h I % % % $ % , % , $ , % , % % % , , % @ % , % $ , , , % % % , , , % % , % 1 p h h h l l h l l l l l l % , , $ % % , % % h r ",
"y h k , % % , % , % , , , % % % % % , , % @ , , % $ , , , % % % , , , % % , % 1 i i p h h l p h l l l h Z X % , $ % , % , , h r ",
"y h k % % , , % , % % , , % % % % % , , , @ , , % $ , , , % , % % , , % % , % 1 1 i V V p h p p l h Z Z 1 X % , $ % , % % , h r ",
"y h l % % , , % , , % , , % % % % % , , , % , , % $ , , , % , , % , , , l l l 1 1 1 1 1 i V Z Z Q Z p u 1 I l l l % , % % , h r ",
"r h l % % % % % , , % , , % % % % , , , % n m m % , $ , , % , , l l I I I I l p 1 1 1 1 1 u u i p p i u 1 I I I I l l l % , h r ",
"2 y l % % % % % , , % % n N B B S F D S D F S B m n N 0 n % % l I I I I I I I I h p 1 1 1 u u i p p i u p l l l I I I I l % h 2 ",
"h h I % % % , % , , 0 > 0 7 n 7 n 0 N n c S G S H S G B S N D h l I I l l l l l l l l l h p u i p p p l l l l l l l I I l , k h ",
"h k I % m c N N p s 7 p > p * 7 * 0 > p 9 p n m p c m v B F G } N u p h l l l l l l l l l h l h l h l h h l h l I l l l X O k k ",
"z l I % d S b c v B c m m 7 n ; 0 * 6 & 0 ; 0 7 p 7 p 0 c 0 c m M > X X u p l l l l l l l l l l h l h l h l I I l l i i 1 O k z ",
"l l I B s d A d m v c v c p 7 N 8 n 7 0 * 7 ; 0 > 0 6 n 7 N 7 _ > % X X X X X u i h l l l l l l l l l l I l l p u < u V V n k l ",
"k k I 0 m 0 s h h N c N v v D G S D N n N 0 0 * 0 * 0 > p > c 7 % % % % % X X % 9 p p u > x i V V u u V x x x < < u V p Z M k l ",
"z z I 0 > 0 * h 7 s 7 h 7 N n _ B G } [ G N D m n 7 * 0 * p * % % % % % % % * C V x i * > x p V p < x p V u p V V V Q Z V M k k ",
"l l l     > 7 * 7 h s 7 n 7 s 0 D N G S n * % ; N N n n N > % % % % % % * 7 A C Z ! Q 7 7 A Z Z Z i A V Z Q Z Z Z Z C C i 7 k l ",
"k k k * O X X h * 7 * 0 h p 6 n 7 B S 7 % % % % % % % % % % * * * * 7 $ , N A V C Z V V V C Z Z ! i n i A p p p p i N 7 7 7 k k ",
"I I k * 8 8 8 O * O O ; 8 * 7 > s 7 B % % % % % % % % % * 7 2 2 , , 7 7 7 7 7 7 9 0 7 A A p p p C 7 7 7 7 7 7 7 7 7 7 7 7 7 h l ",
"l l l l z B B B N n 0 . . X o 7 * 0 s % % % % * % % & ; 7 , z z z l l l l l l l l z z z z l l l l l l z z l l l l l l l z l h l ",
"k k r r r r r r r r r r r r r O O O 7 * % % * > ; 7 7 O O r r 2 r r r r r r r r r r r r r r r r r r r r r r r r r r r r r r h k "
};
