/* XPM */
static char *_4[] = {
/* columns rows colors chars-per-pixel */
"46 24 43 1 ",
"  c #131313",
". c #1B1B1B",
"X c gray12",
"o c #232323",
"O c #282828",
"+ c #2B2E2D",
"@ c #2E2C2E",
"# c #322D22",
"$ c #392B27",
"% c #2B3827",
"& c #3D3626",
"* c #2C3031",
"= c #2F3B3C",
"- c #303032",
"; c #35353B",
": c #3A3A3A",
"> c #453C15",
", c #423629",
"< c #4F3F2B",
"1 c #344D2D",
"2 c #3D5935",
"3 c #5D4E0E",
"4 c #514512",
"5 c #68570B",
"6 c #5B4326",
"7 c #604C33",
"8 c #6D5536",
"9 c #7B5C3C",
"0 c #3D3D43",
"q c #323E49",
"w c #4E4E4E",
"e c #444450",
"r c #4B4B55",
"t c gray34",
"y c #446343",
"u c #4D6E4E",
"i c #555560",
"p c gray39",
"a c gray43",
"s c #72727F",
"d c #866741",
"f c #976E45",
"g c None",
/* pixels */
"gggggggggggggggg0ttaapy0=ggggggggggggggggggggg",
"ggggggggggggggggpyrtwtsaaap0:ggggggggggggggggg",
"gggggggggggggggrtr0wtrtwt7t9p88ggggggggggggggg",
"gggggggggggggggtty:00:78*t7r67t@gggggggggggggg",
"ggggggggggggggra2r::t*w@*76#6ww;gggggggggggggg",
"gggggggggggggra8ww0w2rr20t:8;7,@gggggggggggggg",
"gggggggggggggd8r,twwr07w8670w0@o:ggggggggggggg",
"gggggggggggg7d6,,w*tt:07070667@.t:gggggggggggg",
"ggggggggg6r<d770t::*w=@0:;w;60o.yt5ggggggggggg",
"ggggg68999<9000w0rwt0:68,@7:7,o@@2=3eggggggggg",
"g69dddd8&#8w0*:0@0:060::0@06w;oett=%e:gggggggg",
"ddffffd8<1700*@00o0ow:,06w6:7@.wwrtrrrgggggggg",
"d82171u<1r=6:00::X0wow@w::#:7o.twwrerrregggggg",
"985757<$2,6:o:wow:;:::@@<@,;0o#ptw@0**ere-gggg",
"583875$270,@@0ot@;@w:0:o:@:0,o+wpt00t=r@=q-ggg",
"g>4242177,0,6@00;o@@0o:;#o,w;o+wtpapiiiirre-gg",
"gggXXowtppw0:6::;:owo;0@.@;wo.:;qtaaappptiir-g",
"gggggg6o@;,:0ww0,::;:;:0o,w0o.+:qet0tw:r:0:e*o",
"gggggg,@#@;@;**#;00www0:;:t;oX.0wwt+w:*+**:**:",
"gggggg,@#;*,@,#=@=:====0wtp;og +0t+:==*+O:***o",
"ggggggg..oo@#$:;==;:0=0=;=to.g Xew*==:*O::+X.o",
"gggggggggggg..o@*;:==0=0=0to.ggX*0::*:++oX XXg",
"ggggggggggggggggg..o@*0=00wogggg+OXXXggggggggg",
"gggggggggggggggggggggg..o*:ogggggggggggggggggg"
};
