/* XPM */
static char *_5[] = {
/* columns rows colors chars-per-pixel */
"87 40 72 1 ",
"  c gray9",
". c #1B1B1B",
"X c gray12",
"o c #232323",
"O c #282828",
"+ c #282F28",
"@ c #2B2E2D",
"# c #2C2C2C",
"$ c #2E2C2E",
"% c #322D22",
"& c #392B27",
"* c #3D3626",
"= c #363228",
"- c #3F2F38",
"; c #2C3031",
": c #2F3B3C",
"> c #303032",
", c gray20",
"< c #35353B",
"1 c #3A3A3A",
"2 c #5C2103",
"3 c #53200A",
"4 c #4A271B",
"5 c #662101",
"6 c #6F2200",
"7 c #412921",
"8 c #423629",
"9 c #453F2A",
"0 c #4F3F2B",
"q c #5B4326",
"w c #53472C",
"e c #674027",
"r c #704628",
"t c #7A4B2B",
"y c #604C33",
"u c #6D5536",
"i c #7B5C3C",
"p c #3D3D43",
"a c #323E49",
"s c #344557",
"d c #334D66",
"f c #4E4E4E",
"g c #444450",
"h c #4B4B55",
"j c gray34",
"k c #555560",
"l c #5E5E6D",
"z c gray39",
"x c gray43",
"c c #676774",
"v c #777777",
"b c #930C04",
"n c #821600",
"m c #9A1808",
"M c #A2240C",
"N c #A9300F",
"B c #B03C13",
"V c #BE541B",
"C c #814F30",
"Z c #8F5733",
"A c #9B5F3B",
"S c #866741",
"D c #976E45",
"F c #A56446",
"G c #A0764A",
"H c #AD7F4E",
"J c #B47150",
"K c #B78C58",
"L c #C18564",
"P c #848484",
"I c #939393",
"U c None",
/* pixels */
"UUUUUUUUUUUUUUUUUUUUUUUUUUUUUUUUUUUUUUUUUUUUUUUUUUUUUUUUUUUUUU$XOUUUUUUUUUUUUUUUUUUUUUU",
"UUUUUUUUUUUUUUUUUUUUUUUUUUUUUUUUUUUUUUUUUUUUUUUUUUUUUUUUUUUUU;o#XOUUUUUOXh:$UUUUUUUUUUU",
"UUUUUUUUUUUUUUUUUUUUUUUUUUUUUUUUUUUUUUUUUUUUUUUUUUUUUUUUUUUUUOOXOooiGuwOXphcXUUUUUUUUUU",
"UUUUUUUUUUUU.UUUUUUUUUUUUUUUUUUUUUUUUUUUUUUUUUUUUUUUUUUUUUUUXXXoOo.e0quiCX$hcXUUUUUUUUU",
"UUUUUUUUUU*oUUUUUUUUUUUUUUUUUUUUUUUUUUUUUUUUUUUUUUUUUUUUUUU..X.XoOX&e&0=e8O<jhXUUUUUUUU",
"UUUUUUUUUO9UX9*%oUUUUUUUUUUUUUUUUUUUUUUSuwUUUUUUUUUUUUUUUUU.oe%.Xo...7uGwe.<kh<XUUUUUUU",
"UUUUUUUUX9+X9O%OoXoUUUUUUUUUUUUUUUUU%%>AZre9rw%UUUUUUUUUUU.%eu0..OXXoqJSu%.Ohh<XUUUUUUU",
"UUUUUUUU%*X9O*99=%OOXUUUUUUUUUUUXo%88$X%wCttw%.%oUUUUUUUUU=eGCe XO..qZGiu8 OhgpXXUUUUUU",
"UUUUUUUU*9%yow%9wyw08%.UUUUUUUUX8%8OXXO8O%....w*9**UUUUU&1iLFueX.OXXuiZee0 <fgg$XUUUUUU",
"UUUUU%U%9y%y=y*iCCrryr9.UUUUUUX8q=ooO==OOXoo.%wwww9*5UUNNSJFZCq% XO eCe87&Ofggp;XUUUUUU",
"UUUUU%O*9y=w wXyASC8y0%oUUUUUU+q8oq0*=o=XoO$ooXy8yyw*5b3mNCCtCe*X.XX&08&  <fgpp<XUUUUUU",
"UUUUU*%9%9o9O*%wiKyX7o>f0%UUUX=%oq0o00*oO0=O*OoX%y=99**5n7neeuy0 ..X.XOhoOh1<1<<XUUUUUU",
"UUUU%*O*%%o*%***%XyZ8%pz,u0%U8$O=8O=8=%O*=+*O$O$oXo%XX%24;7N0tSyo  o. $<<<8p&<<$XUUUUUU",
"UUXUo%XX%o 9X00uSKG9GyPx9Si0*8$O=oO=oO=O*OO*X$=o.$o.o%93X4&7nNre8X  X OX  .-O<<$XUUUUUU",
"UUXO%oo X%Xw%9iyuSw%wGGy08iyw*OO$O%+O=Oo=$O$XOo.XXoo..**33356nNb0%   X Xe&0F<<$X UUUUUU",
"UUUX%%XXXXO%w%eCZ9%*=9iGLDyw=yo=Oo=OO$OOOOoXo.o.o.X..X*336n27nmNe8O...O$>1pO@$$X UUUUUU",
"UUUXOo%Xoo%9*.%q9%*i.f9AADLD=w*XoO=O+OOO$OoXO.O.XX.XoX%OO4m3&6bi0.oO1$.oo>ppOX@  UUUUUU",
"UUUXoo*oO%X0y*=X%*y9Ij.eiDAi=99=XoOO=oOoXoXXO.o..o...oOO3.6N2&..oo$O@<<1asaO<..  UUUUUU",
"UUUoOX9o%9X%erru70i>Pv88iyZq0y89=XoO=oOXXo.XO.o..oX..Xo*X43O..&&%......o<khao>.  UUUUUU",
"UUXXXo*oOyX*q%qy0y9fvpiqZ9r8ywOwi*=oOoOXOo Xo.o..XX.XO%%7e0.%wCZZeO..o1phasdOoX.UUUUUUU",
"UUXX%*9X.y.*8%8qyiffzuGAAi99i*OGZ0w=oOoXOX.Xo.XX.Xo.XO5yrr07Crewui%O1OX .o;p>@o.UUUUUUU",
"UUXoO*9X%9.*%*%quiujuiJAZSGi*jOJuGiOoOo.oX  o..o..o.O535w9%.yw*=8=XOO;pkg1O;;;;..UUUUUU",
"UUUo%9*o%O %.o%8quSGJDSZZZGyp.8ZqiwOXOX.oX. . .oX.ooXX73XO.*X*0wyw9%.%wwjl1;o;o..UUUUUU",
"UXUo*o*.* .o. .o*yAJFSuyriS*.=0iZewoXOX oX  . .oo.Oo&.OX%X*X%eCZAFStwweZypd;o;o..UUUUUU",
"UXXo%o9.%. %. ..%0rryry9uZt.*iZree*oXOX .X. . .oXo.O.*X*%X%9eSJJKJAZZZAFi#k=.>X...UUUUU",
"UUX%*.%.O. X .%0qqq0q080etr5Miyyw*oXooX. oX   Xo=OX%*X*XX8eCFFKGFFAeZAFJS%ho.OX...UUUUU",
"UUUX%.o ..  .%y8.99w0**80qe5nwrw*oXXXo. XOooO=OoO.OX*%X9uiZADDSwyDZ4FJJtb%s..o...UUUUUU",
"UU%%9.o.X .X.8t0n78%%oo%*8044qw*owye.XX ..XOXO=..O%%.O.wZiSSDSijvDroJKy%u%sX.X..XUUUUUU",
"X%*9o.%.%o...O80388tqoXO%%*735*3y545B.7377..  .O%XO9O.O70CZiZiyvIiw8JZ%ie.;..X..X.UUUUU",
"UUXXXo .*%...oX&&7OooX.Xo+o45.&95373bUUU325533 XX%9u..p.=wCZrywjvo%%FbVuwOO..X..X.UUUUU",
"UUUUUU.O9% ..o...n.......Xo37594547&4U73373U7X.X%XuZ&.xf%0uiiuy%f.&0SiBy9>oX.X..X.UUUUU",
"UUUU.o*9.U o..oo45..o7357X45bBnbnb5O54232325U..OX%0Z>.zj9i9iSDDZy7%yiyMy*1oX.o..X.UUUUU",
"UUUUUUUU%U  U%&35bBn5Bbb5522355575OUO53U33UU3..XOX.i1&j1yDGDDGJJHAit0qbw%1Xo.o..o..UUUU",
"UUUUUU3UU33U32535323U32532U23UU3U33UU3U33UUUU...X%0upbf8iHHDiur**4yZyeewXhXo.OX.o..UUUU",
"UUUUUUUUUUUUUUUUUUUUUUUUUUUUUUUUUUUUUUUUUUUUUU....=9fnp.DJAr*4w%fj%CCqb9Xh.O.;oXoX..UUU",
"UUUUUUUUUUUUUUUUUUUUUUUUUUUUUUUUUUUUUUU3UUU3535O.O..O3&X=wytZZywzv.wire*.O.O.o1OOoXX.UU",
"UUUUUUUUUUUUUUUUUUUUUUUUUUUUU7U33735n77573n55nBmn56n534OO44qrtiyf8.*iy0%.O.$O.o;;;;$Oo.",
"UUUUUUUUUUUUUUUUUUUUUUUUUUUUUUUUUUUUUU33UU5373555nb5bBmbn65$78%&73%%*+.%.XX;#X..ooUUUUU",
"UUUUUUUUUUUUUUUUUUUUUUUUUUUUUUUUUUUUUUUUUUUUU3UU33U33U3U3333526523n23U5...oX:;#OUUUUUUU",
"UUUUUUUUUUUUUUUUUUUUUUUUUUUUUUUUUUUUUUUUUUUUUUUUUUUUUUUUUUUUUUUUUUUUUUUUUUUooOOUUUUUUUU"
};
