/* XPM */
static char *_[] = {
/* columns rows colors chars-per-pixel */
"20 77 72 1 ",
"  c gray9",
". c #1B1B1B",
"X c gray12",
"o c #1E371E",
"O c #3A3319",
"+ c #232323",
"@ c #282828",
"# c #2C2C2C",
"$ c #2E2C2E",
"% c #322D22",
"& c #392B27",
"* c #223322",
"= c #273C27",
"- c #3D3626",
"; c #363228",
": c #3F2F38",
"> c #2F3B3C",
", c #303032",
"< c #35353B",
"1 c #3A3A3A",
"2 c #453C15",
"3 c #423629",
"4 c #453F2A",
"5 c #4F3F2B",
"6 c #2E4425",
"7 c #344D2D",
"8 c #355722",
"9 c #3D5935",
"0 c #5D4E0E",
"q c #514512",
"w c #68570B",
"e c #7F6A04",
"r c #53472C",
"t c #674027",
"y c #704628",
"u c #604C33",
"i c #3D3D43",
"p c #4B3447",
"a c #563A4D",
"s c #2D4848",
"d c #4E4E4E",
"f c #4B4B55",
"g c gray34",
"h c #446343",
"j c #4D6E4E",
"k c #555560",
"l c #5E5E6D",
"z c #654160",
"x c #6D4566",
"c c #7F4D6A",
"v c gray39",
"b c gray43",
"n c #676774",
"m c #777777",
"M c #72727F",
"N c #814F30",
"B c #8F5733",
"V c #9B5F3B",
"C c #A56446",
"Z c #B47150",
"A c #8F5477",
"S c #5D825E",
"D c #C18564",
"F c #7A7A89",
"G c #AF6F90",
"H c #BC7F9E",
"J c #848484",
"K c #878795",
"L c #939393",
"P c #91919F",
"I c #A2A2A2",
"U c None",
/* pixels */
"UUUU1dvbev0UUUUUUUUU",
"UU1dvMGFAAvfUUUUUUUU",
"UdwMKKKKMMVvdUUUUUUU",
"1gcAKLIPKVMbNdUUUUUU",
"iwvinKIILAMVvwdUUUUU",
"1digMKLLHMVbvBwUUUUU",
"O1,ivFKKFMMbeMFwUUUU",
"<,igfgMMMMbVKLJMdUUU",
"<@dgvbFFblFJmeg0vUUU",
"<Xa0APHLKFMvg1@dwUUU",
",$iqcbFFnvln,  ,dUUU",
"@iipAd1@ fnF   .gUUU",
"X,ipM,   @kK, ..hUUU",
"@Xd:g@   .mKg..,9UUU",
"=Uv@id..1.Kiv,,d7UUU",
"=Uviav,.yib 1dxgvUUU",
",Uvgibi.vFd..ivzjUUU",
"UUbdddvgCgx.pti1lUUU",
"Ugbd,ggZDBgltd&@jUUU",
"UvbiU1iLLJ5v,z@,fUUU",
"Ubvid+&v1vd..g,UjUUU",
"Udgddv%3&U.XX1@UdUUU",
"U@iidbd5%UUX@g@UfUUU",
"UUU@idbFd;U@,i@U1UUU",
"UUU@UiSdiFdvd@$UUUUU",
"UUU$UUMidgFg1U,UUUUU",
"UUU=UUS;1i11@U6UUUUU",
"UUU6UUj%3&UU@U1UUUUU",
"UUU=UUg+&%%U,UUUUUUU",
"UUU,UUj++&;U=UUUUUUU",
"UUU$UUg@+3;U*UUUUUUU",
"UUUoUUd@+13U=UUUUUUU",
"UUUUUUd+%13U1UUUUUUU",
"UUUUUUi%,14UoUUUUUUU",
"UUUUUUUU$1r;UUUUUUUU",
"UUUUUUUU@dq;UUUUUUUU",
"UUUUUUUU@iu3UUUUUUUU",
"UUUUUUUU+du-UUUUUUUU",
"UUUUUUUU+iw4UUUUUUUU",
"UUUUUUUUU%d6;UUUUUUU",
"UUUUUUUUU@1r;UUUUUUU",
"UUUUUUUUU@gu;UUUUUUU",
"UUUUUUUUU+ir-UUUUUUU",
"UUUUUUUUU+gu-UUUUUUU",
"UUUUUUUUUUd8>;UUUUUU",
"UUUUUUUUUUg6>;UUUUUU",
"UUUUUUUUUUg6r-UUUUUU",
"UUUUUUUUUUg6d-UUUUUU",
"UUUUUUUUUUd=r-UUUUUU",
"UUUUUUUUUUd=s4;UUUUU",
"UUUUUUUUUUio44;UUUUU",
"UUUUUUUUUU1o>s;UUUUU",
"UUUUUUUUUUio3q-UUUUU",
"UUUUUUUUUU1*;0-UUUUU",
"UUUUUUUUUUi+;s-;UUUU",
"UUUUUUUUUU1U%si;UUUU",
"UUUUUUUUUUUU;2q;UUUU",
"UUUUUUUUUUUU%>q-UUUU",
"UUUUUUUUUUUU@>q=UUUU",
"UUUUUUUUUUUU@;q6;UUU",
"UUUUUUUUUUUU+;24;UUU",
"UUUUUUUUUUUUU%2q;UUU",
"UUUUUUUUUUUUU@Oq-UUU",
"UUUUUUUUUUUUU@;q=UUU",
"UUUUUUUUUUUUU+;26UUU",
"UUUUUUUUUUUUUU;26;UU",
"UUUUUUUUUUUUUU%2r;UU",
"UUUUUUUUUUUUUU@3r3UU",
"UUUUUUUUUUUUUU+683UU",
"UUUUUUUUUUUUUU+=84UU",
"UUUUUUUUUUUUUUU;64;U",
"UUUUUUUUUUUUUUU;6q;U",
"UUUUUUUUUUUUUUU%48;U",
"UUUUUUUUUUUUUUU@3q3U",
"UUUUUUUUUUUUUUU+6r3U",
"UUUUUUUUUUUUUUU+;44;",
"UUUUUUUUUUUUUUUU,3rU"
};
