/* XPM */
static char *_[] = {
/* columns rows colors chars-per-pixel */
"62 32 29 1 ",
"  c gray6",
". c gray9",
"X c #1B1B1B",
"o c gray12",
"O c gray15",
"+ c #282828",
"@ c #2C2C2D",
"# c #2E2C2E",
"$ c #2D3030",
"% c #2C3031",
"& c #303032",
"* c gray20",
"= c #323737",
"- c #35353B",
"; c #3A3A3A",
": c #3D3D43",
"> c #434343",
", c #4E4E4E",
"< c #444450",
"1 c #4B4B55",
"2 c gray34",
"3 c #555560",
"4 c gray39",
"5 c gray43",
"6 c #777777",
"7 c #848484",
"8 c #939393",
"9 c #BCBCC7",
"0 c None",
/* pixels */
"000000000000000000000000000000000$;;::000000000000000000000000",
"0000000000000000000000000000000$;,,444,00000000000000000000000",
"000000000000000000000000000000$:,257777,:000000000000000000000",
"000000000000000000000000000:&$$:244799744:00000000000000000000",
"0000000000000000000000000--2: ::,477774: 400000000000000000000",
"000000000000000000000000::774 ::,44444   700000000000000000000",
"00000000000000000000000:44794 ::$7:  47 :400000000000000000000",
"0000000000000000000000$4 :474 :477:  4$44:00000000000000000000",
"000000000000000000$::$$7   44 : :47974  4$00000000000000000000",
"00000000000000000$442$$4:      : $:4:4 47$00000000000000000000",
"0000000000000000:,7773$: $::$:$  $$:$479:$:$000000000000000000",
"000000000000000:4479854 :,22<>;$ $  $::4 ,24$&0000000000000000",
"00000000000000$4 :4774 :,465421:  .$    36741:$000000000000000",
"00000000000000$7   44> >459653,= .X $::259974::$:::00000000000",
"00000000000000$4: 74  ::27774,>- . +-:477774: 4:774:0000000000",
"0000000000044$$$44$4  44:444:$:$ . #:<44444   7:74:4:000000000",
"0000000000:774$$4  47  74::74 $: $ $:27:  47 :4  ::474:0000000",
"00000000:4744:$$74 4: : :479444:O  #427:  4$:4:0-   :474:   00",
"000000:474:   44 974$ 4$ 4   7:$+oo: :47974  4 0000-  :444:: 0",
"0000:474:  0 477 4::$ :74: $74 +$O+   $:3:4 47   0000   :4477 ",
"00:444:  000 4774    $ :4 794$ o$O 44 $$*$479: ::    ::  :774 ",
"444::  000000  474 $$$$ >742$ $o  :774   $::4 0:44::::44  44 0",
"477: 00000000000474 $0$$>2:$ o  :4744: $0    00 ::    :: 0  00",
" 44 000000000000 444 $0$0     :474:   $0$0$00000  0000  000000",
"0  00000000000000 :44  0$0  :474:  $0$000000000000000000000000",
"000000000000000000 :44:   :444:  0000   000000   0000000000000",
"0000000000000000000 :44: 44::  00000 44:      :44 000000000000",
"00000000000000000000 :474  : 000000 47744777774474 00000000000",
"000000000000000000000 44774 0000000 477::44444::47 00000000000",
"000000000000000000000 :7974 0000000 :44         :4 00000000000",
"0000000000000000000000 4774 00000000   000000000  000000000000",
"0000000000000000000000 :44 00000000000000000000000000000000000"
};
