/* XPM */
static char *_[] = {
/* columns rows colors chars-per-pixel */
"46 90 16 1 ",
"  c #2E2C2E",
". c #303032",
"X c #35353B",
"o c #3A3A3A",
"O c #3D3D43",
"+ c #434343",
"@ c #4E4E4E",
"# c #444450",
"$ c #4B4B55",
"% c gray34",
"& c gray39",
"* c gray43",
"= c #777777",
"- c #848484",
"; c #939393",
": c None",
/* pixels */
"#%::::::::::::::::::::::::::::::::::::::::::::",
"::X##@@:::::::::::::::::::::::::::::::::::::::",
"::+OX..@%+::::::::::::::::::::::::::::::::::::",
":OXXXO@##%::::::::::::::::::::::::::::::::::::",
"::::.X...@o:::::::::::::::::::::::::::::::::::",
"::::.:::O%@:::::::::::::o+oo::::::::::::::::::",
"::::..:::%&+:::::::::::o+o@++:::::::::::::::::",
"::::..:::@&@::::::::::o+oooo+o::::::::::::::::",
"::::..:::O&&X:::::::::oo+ooooo::::::::::::::::",
"::::O.:::O&*#::::::::oooooooo.o::::::::::o::::",
"::::o+::::@*%o:::::::oo@.ooo.ooo::::::::o..:::",
"::::.+::::o&&+:::::::+++X++.++++:::::::O...:::",
"::::X+::::X@@+O::::::++.+++o+++OO::::::#...:::",
"::::X+.::::O+%#::::::@o++.o&=*%#O%::::O@.ooo::",
":::::..::::X###O::::+o+ooo@&-%@@O%:::#@%.o+.::",
":::::.o:::::O#@@O:::++@.oO@#oo##O:::@%%o.oX.::",
":::::...::::XO@&.O::+++ooO#-%#@oO::#%@+.oX.O .",
":::::o..:::::XO%%..:o+ooX#%%*&&.XO#@o@o#X.X .X",
":::::ooo.:::::X#&.%#+oooX@&&%@X.+@.O%+@X.X.X.:",
"::::::+..::::::X@.*%@#oo.+O@%+...o*&+#XXX. oo:",
"::::::o.oo::::::X@+%@%%OX@%#O#O@.%@@OX.X.o..::",
"::::::oooo ::::::oo###%oo&*#O.@@@@#X..X. oo:::",
":::::::o+o..::::::o@@O%o&+*@O@%+%#X..X. oo+:::",
":::::::ooo.o.:::::X##@+&=*%+O#+o%X.XX++Xo+::::",
":::::::.oo oo.:::::#@@o&===*&&+oX.oXooXoo:::::",
"::::::::oo  .o..:::#@XX%-;==--&o.XOo.oo+::::::",
"::::::::.+...oo...o%X@O#*;-=;;&#.X+++.oX::::::",
":::::::::.o   oo...X##%O%*=**-#+XXo+oo+:::::::",
":::::::::oo.. .++...oO##O&=&%@%&#XXo.+::::::::",
"::::::::::oo.. .oo..XXO@X%=&##@@OoXo.:::::::::",
":::::::::::$o.+@.+....XO%*&*@oOOX +.::::::::::",
":::::::::::.o$.+X.X.#@@&*-*=&#X. oo:::::::::::",
"::::::::::::.%.ooXX.#@&*--;-*@#.X.+:::::::::::",
":::::::::::::.o+o+.XO%%==&;;=&@..o::::::::::::",
"::::::::::::::..$ooXO%%=%*-;=&@.X:::::::::::::",
":::::::::::::::.oo+.O%*.%=---*%o::::::::::::::",
":::::::::::::::::..oO%%#*-=*==*%+:::::::::::::",
"::::::::::::::::::::#&@%*-=%%=*%&O::::::::::::",
"::::::::::::::::::::@%%&%==%o&*%&##:::::::::::",
":::::::::::::::::::o.O#*%@%&&&%%@OO:::::::::::",
":::::::::::::::::::++.++.O@@@@%o+..:::::::::::",
":::::::::::::::::::OOO..+o.oo.@@..X:::::::::::",
":::::::::::::::::::O@##X......#..OX:::::::::::",
":::::::::::::::::::O%@@O.XooooX..OO:::::::::::",
"::::::::::::::::::::@%%@OX++XXX.+#O:::::::::::",
"::::::::::::::::::::#&&@O+XoXXX.#@O:::::::::::",
"::::::::::::::::::::o&&%OOX+XXX.@&O:::::::::::",
"::::::::::::::::::::o&*%@OXXXXX+%*.:::::::::::",
"::::::::::::::::::::#&=&%@oXXX.o&=+:::::::::::",
":::::::::::::::::::::&=&%@O.X.o@*&::::::::::::",
":::::::::::::::::::::%-*%@@...o&=@::::::::::::",
":::::::::::::::::::::%=*%@@X..#**:::::::::::::",
":::::::::::::::::::::@=*&%@X..%=@:::::::::::::",
":::::::::::::::::::::#%-&%@X.o&=+:::::::::::::",
":::::::::::::::::::::#&&*&@X.#*@::::::::::::::",
"::::::::::::::::::::::%=&&@..+&+::::::::::::::",
"::::::::::::::::::::::%*-@@X.&%:::::::::::::::",
"::::::::::::::::::::::#&=*%XX*o:::::::::::::::",
"::::::::::::::::::::::#&**%.O&o:::::::::::::::",
"::::::::::::::::::::::@%%*%..@::::::::::::::::",
":::::::::::::::::::::@@#@&%..X::::::::::::::::",
":::::::::::::::::::::%%O@@O..X::::::::::::::::",
"::::::::::::::::::::#%&%OO..X:::::::::::::::::",
"::::::::::::::::::::@&**@X..X:::::::::::::::::",
"::::::::::::::::::::@&=*@X...:::::::::::::::::",
"::::::::::::::::::::@@=*@.O..:::::::::::::::::",
"::::::::::::::::::::@o*&#.#..:::::::::::::::::",
"::::::::::::::::::::#&*%X.O..:::::::::::::::::",
"::::::::::::::::::::#+*%X.XO.:::::::::::::::::",
"::::::::::::::::::::#+*%XO.O.:::::::::::::::::",
":::::::::::::::::::::&*@XX. O:::::::::::::::::",
":::::::::::::::::::::&=#X.#XO.::::::::::::::::",
":::::::::::::::::::::&=#.@ O..::::::::::::::::",
":::::::::::::::::::::@=#.@:..O::::::::::::::::",
":::::::::::::::::::::@*#X@::.#::::::::::::::::",
":::::::::::::::::::::&%#X@::.O::::::::::::::::",
"::::::::::::::::::::#*%#X@:.O:::::::::::::::::",
"::::::::::::::::::::%*%#X#::::::::::::::::::::",
"::::::===&*=*======*%=@#X##@@&&@===&=-=*::::::",
"::::::===&&&*&****&*&%@XXO@@@@*==**=%%&=::::::",
":::::======@@&&**=*##%%X@XXXX%%&@*@&&*@=*:::::",
":::::=====@@&@&@**@@@##%++O###O#@@@++@@@*:::::",
"::::&*&**&&@&*&*@@@;-*&=&@@@&&====-=&*&**&::::",
"::::@@@@@@@@@@@%%%%%%%%%%%%%%%%@@%@@@@@@@+::::",
"::::@@+@@o++@@@@@@@@@@@@@@@@@@@@@@@@@@+@@o::::",
"::::++@@++@++@@@@@@@@@@@@@@@@@@@+@@@++@@++::::",
"::::+@@@ooXo+@@@@@@@@@@@@@@++@@@@@@++@@@oo::::",
"::::@@@@XXXo+@@+++@%@@@@@@o@@%@@@+@@@@@@XX::::",
"::::@@+ooXXXo+Xo@@@@@@@@o@@@@@@@@@@@@@+ooX::::",
"::::oXXXoXXXXo%@@@@@@@@@@@@@@@@@@@@@oXXXoX::::"
};
