/* XPM */
static char *_[] = {
/* columns rows colors chars-per-pixel */
"54 88 37 1 ",
"  c #232323",
". c gray15",
"X c #282828",
"o c #2B2E2D",
"O c #2C2C2C",
"+ c #2E2C2E",
"@ c #2D3030",
"# c #2C3031",
"$ c #2F3B3C",
"% c #303032",
"& c gray20",
"* c #323737",
"= c #35353B",
"- c #3A3A3A",
"; c #53472C",
": c #3D3D43",
"> c #323E49",
", c #344557",
"< c #334D66",
"1 c #434343",
"2 c #4E4E4E",
"3 c #444450",
"4 c #4B4B55",
"5 c gray34",
"6 c #555560",
"7 c #5E5E6D",
"8 c gray39",
"9 c gray43",
"0 c #676774",
"q c #777777",
"w c #72727F",
"e c #7A7A89",
"r c #848484",
"t c #939393",
"y c #91919F",
"u c #A2A2A2",
"i c None",
/* pixels */
"iiiiiiiiiiiiiiiiio====oiiiiiiiiiiiiiiiiiiiiiiiiiiiiiii",
"iiiiiiiiiiiiiiii=15981==oiiiiiiiiiiiiiiiiiiiiiiiiiiiii",
"iiiiiiiiiiiiiiio@1981+O=2iiiiiiiiiiiiiiiiiiiiiiiiiiiii",
"iiiiiiiiiiiiiio4=58=111+*=iiiiiiiiiiiiiiiiiiiiiiiiiiii",
"iiiiiiiiiiiiiio=5839rtr5%=1iiiiiiiiiiiiiiiiiiiiiiiiiii",
"iiiiiiiiiiiiii+-8851tr811*=iiiiiiiiiiiiiiiiiiiiiiiiiii",
"iiiiiiiiiiiiio=8748--8218%2,iiiiiiiiiiiiiiiiiiiiiiiiii",
"iiiiiiiiiiiii+%883rq9988911=iiiiiiiiiiiiiiiiiiiiiiiiii",
"iiiiiiiiiiiii+%23=8821295321>iiiiiiiiiiiiiiiiiiiiiiiii",
"iiiiiiiiiiiii%52*-2899r05311>iiiiiiiiiiiiiiiiiiiiiiiii",
"iiiiiiiiiiiii%55+29trtttrq2=>iiiiiiiiiiiiiiiiiiiiiiiii",
"iiiiiiiiiiiii%9-+89rettree15iiiiiiiiiiiiiiiiiiiiiiiiii",
"iiiiiiiiiiiio1q1&9qryrytet51,iiiiiiiiiiiiiiiiiiiiiiiii",
"iiiiiiiiiiiqq889&89erqqqwrq525qiiiiiiiiiiiiiiiiiiiiiii",
"iiiiiiiii9rqrr9r,2er88tr9981;wq,iiiiiiiiiiiiiiiiiiiiii",
"iiiiiii6qqq889890;8q5q9988218q55<iiiiiiiiiiiiiiiiiiiii",
"iiiii18qqqeq859qq92522855218q8=q8iiiiiiiiiiiiiiiiiiiii",
"iiiii51+29qr98885555121528q84*885+iiiiiiiiiiiiiiiiiiii",
"iiiii1%2=O:9rq8--:0q8898954=188:-=iiiiiiiiiiiiiiiiiiii",
"iiiii&8q85OO1q552-:258851=1488-352iiiiiiiiiiiiiiiiiiii",
"iiiii59q52-O=1653885:*=*18992-5245oiiiiiiiiiiiiiiiiiii",
"iiii&5951:O:3:::588q99999851-298=2oiiiiiiiiiiiiiiiiiii",
"iiii18q5-+-155-:-:55885544:25998:8=iiiiiiiiiiiiiiiiiii",
"iiii2982-1352:2833153151=3598985482iiiiiiiiiiiiiiiiiii",
"iiii58514588:5198894555899999885=52iiiiiiiiiiiiiiiiiii",
"iii&5515q92:522989998998qq999858282oiiiiiiiiiiiiiiiiii",
"iii&5219858821289998998899998858288oiiiiiiiiiiiiiiiiii",
"iii-2=298585-1599989982999998559451oiiiiiiiiiiiiiiiiii",
"iii-=29955921-5898255-89888558881585iiiiiiiiiiiiiiiiii",
"iii-18952581-19899812545255528955585iiiiiiiiiiiiiiiiii",
"iii:18=48821-28999q28955822588955155>iiiiiiiiiiiiiiiii",
"iio=4=:9q552-59899q89998888994558154>iiiiiiiiiiiiiiiii",
"iio=::8q8282-88989988qq955=459988=58oiiiiiiiiiiiiiiiii",
"iio:49q55982-89888985q9**8q989958:12>iiiiiiiiiiiiiiiii",
"io==89925q85-5599888989qqqq888821=4=1iiiiiiiiiiiiiiiii",
"i,4885=19993-259985828999989989:134==iiiiiiiiiiiiiiiii",
"i1898=38q8521=288882888999998921::=:oiiiiiiiiiiiiiiiii",
"i18215589851%+%+-25-8859898:%22:=1::$iiiiiiiiiiiiiiiii",
"$1521899825=-=-%X+-=35898528::==1121>iiiiiiiiiiiiiiiii",
"o*:=:qq5315--:5=:153+=2814::1**2=121iiiiiiiiiiiiiiiiii",
"%41=28-=X+1=:55==-:5851:3-2:=1:2=115iiiiiiiiiiiiiiiiii",
".1181=+1=33:255=5+459988515888=5531>iiiiiiiiiiiiiiiiii",
"*O22:&59999=284%%%489985-189882253>iiiiiiiiiiiiiiiiiii",
".%--X686q85=58211=589985559988=25=iiiiiiiiiiiiiiiiiiii",
"i....=3591+4891:-4559985559988=251oiiiiiiiiiiiiiiiiiii",
"iiiiii-58+25994311138985259988=251>iiiiiiiiiiiiiiiiiii",
"iiiiiiiiX%18992:-38829:8889q8518821iiiiiiiiiiiiiiiiiii",
"iiiiiiiiii:59935::885818889q8128811>iiiiiiiiiiiiiiiiii",
"iiiiiiiii#589954--598598998981598112iiiiiiiiiiiiiiiiii",
"iiiiiiiii#559941:359918899q8818991=2iiiiiiiiiiiiiiiiii",
"iiiiiiiiiX589955-15q959999q9519991=2>iiiiiiiiiiiiiiiii",
"iiiiiiiiiX889:2-1-5q59999q98519q91555iiiiiiiiiiiiiiiii",
"iiiiiiiiiO59853:*1898q999q99559q91155iiiiiiiiiiiiiiiii",
"iiiiiiiii38585:1:1898q99qr99859q91822>iiiiiiiiiiiiiiii",
"iiiiiiiii58588:*+-898999qr99559995452>iiiiiiiiiiiiiiii",
"iiiiiiiii558983-+=5q898qrq882899851552>iiiiiiiiiiiiiii",
"iiiiiiiii58898--+:5q8q9qr9888889851822>iiiiiiiiiiiiiii",
"iiiiiiiii588821-+3598qq9895589899=58222iiiiiiiiiiiiiii",
"iiiiiiiii588922%+%898899895889555115852iiiiiiiiiiiiiii",
"iiiiiiii$588921%+*5988q98828899q85:5855iiiiiiiiiiiiiii",
"iiiiiiii*58882-%::589588885899qq8522855>iiiiiiiiiiiiii",
"iiiiiiii:599823-*%58981888889qq98988882>iiiiiiiiiiiiii",
"iiiiiiii,5q99232-::5891888899qq95888988,iiiiiiiiiiiiii",
"iiiiiiii>88882,1:-:6998:58899q9989999825iiiiiiiiiiiiii",
"iiiiiiii>89qq233-1:6998=5899q998599q9985iiiiiiiiiiiiii",
"iiiiiiii,89qw2:3:1:5898-589q9988199q9985,iiiiiiiiiiiii",
"iiiiiiii>8899553-4389881:8qqq981999qq995oiiiiiiiiiiiii",
"iiiiiiii5858w5834329888885qq885599qqq9981iiiiiiiiiiiii",
"iiiiiiii585899989=18q999r%9982:599qqq9892iiiiiiiiiiiii",
"iiiiiiii585899q995898qrqq:151=299q9999895oiiiiiiiiiiii",
"iiiiiiii285999q9q929q9qqr8=*=58qqq9999995>iiiiiiiiiiii",
"iiiiiiii2559q9q9qq9599899118999qq99959888>iiiiiiiiiiii",
"iiiiiiii285999q9qqq85898+*59qqqq9998989855iiiiiiiiiiii",
"iiiiiiii258999q9999q1&1@199q99qq2289995525iiiiiiiiiiii",
"iiiii2@82558899qqq9q925:8q99q%69qq89999888:o125985iiii",
"iiiii5-*258558899qqq8811q995-q9qq998821O+-4%o12295iiii",
"iiii55@@18888999qq82q95:q98+$o:8889211522-221211555iii",
"iiii%%-%---12889212q255122=$++ &--11&O1922885=18589iii",
"iii:@--%++==:=++1598:292==+111;1=++++O4588888=+15558ii",
"iii-2-21*:1121:2==:=:&&&&++55515155-512-&&&&=1:2121-ii",
"ii:%21252525212211+ 1---2555822592:%22255525212211+%-i",
"ii1255825q8522521--+-:255525552151125582555522521----i",
"i+=+==::+===:1:-%--@%%-=:=-=--%-----:11:-===:1:-%--%%-",
"i++===++==:=::=:=++++++++=+++++++++===++==:=::=:=+++++",
"i=+++=+:+=::::=:::=++++++==++===+=+++=+:+=::::=:::=+++",
"i::=+==++:====:=:=++++++=+::+==::::=+==++:====:=:=++++",
"i::4::==:+===:=:::==+++++:=::==::::4::==:+===:=:::==++",
"i::::=:++====:==:::::++++:=::::::::::=:++====:==:::::+"
};
