/* XPM */
static char *__0[] = {
/* columns rows colors chars-per-pixel */
"73 115 88 1 ",
"  c #131313",
". c gray9",
"X c #1B1B1B",
"o c gray12",
"O c #23170B",
"+ c #2F1F0F",
"@ c #1E371E",
"# c #3B2713",
"$ c #3A3319",
"% c #232323",
"& c #282828",
"* c #322D22",
"= c #363228",
"- c #3A3A3A",
"; c #53200A",
": c #4B2F17",
"> c #4A271B",
", c #453C15",
"< c #57371B",
"1 c #662101",
"2 c #6F2200",
"3 c #633F1F",
"4 c #453F2A",
"5 c #4F3F2B",
"6 c #334B23",
"7 c #355722",
"8 c #5B4326",
"9 c #53472C",
"0 c #734323",
"q c #7F4B27",
"w c #704628",
"e c #7A4B2B",
"r c #604C33",
"t c #6D5536",
"y c #7B5C3C",
"u c #434343",
"i c #4E4E4E",
"p c gray34",
"a c gray39",
"s c gray43",
"d c #777777",
"f c #930C04",
"g c #821600",
"h c #A9300F",
"j c #BE541B",
"k c #8B532B",
"l c #9B5B2F",
"z c #814F30",
"x c #9B4B33",
"c c #8F5733",
"v c #975B37",
"b c #9B5F3B",
"n c #9F633F",
"m c #C65F1F",
"M c #CD6B23",
"N c #866741",
"B c #976E45",
"V c #A76743",
"C c #AB6B47",
"Z c #AF6F4B",
"A c #A0764A",
"S c #AD7F4E",
"D c #8F5477",
"F c #DB832B",
"G c #E28F2E",
"H c #EA9B32",
"J c #F1A736",
"K c #B78C58",
"L c #FFAF53",
"P c #C49A69",
"I c #FFB962",
"U c #FFC370",
"Y c #FFF667",
"T c #BC7F9E",
"R c #848484",
"E c #939393",
"W c #A2A2A2",
"Q c #AEAEAE",
"! c #B9B9B9",
"~ c #D5AE80",
"^ c #CC92AA",
"/ c #E5C196",
"( c #F4CAA7",
") c #F5D4AC",
"_ c #FEF5B9",
"` c gainsboro",
"' c #FEFFC7",
"] c None",
/* pixels */
"]]]]]]]]]]]]]]]]]]]]]]]]]]]]]]]]]]]]]]]]]]]]]]]]]]]]]]]]]]]]]]]]]]]]]]]]]",
"]]]]]]]]]]]]]]]]]]]]]]]]]]]]]]]]]]]]]]]]]]]]]]]]]]]]]]]]]]]]]]]]]]]]]]]]]",
"]]]]]]]]]]]]]]]]]]]]]]]]]]]]]]]]]]]]]]]]]]]]]]]]]]]]]]]]]]]]]]]]]]]]]]]]]",
"]]]]]]]]]]]]]]]]]]]]]]]]]]]]]]]]]]]]]]]]]]]]]]]]]]]]]]]]]]]]]]]]]]]]]]]]]",
"]]]]]]]]]]]]]]]]]]]]]]]]]]]]]]]]]Q''`E]]]]]]]]]]]]]]]]]]]]]]]]]]]]]]]]]]]",
"]]]]]]]]]]]]]]]]]]]]]]]]]]]]]]]R'_'''''d]]]]]]]]]]]]]]]]]]]]]]]]]]]]]]]]]",
"]]]]]]]]]]]]]]]]]]]]]]]]]]]]]]]///)~BSK(]]]]]]]]]]]]]]]]]]]]]]]]]]]]]]]]]",
"]]]]]]]]]]]]]]]]]]]]]]]]]]]]]]y~P(/PSBBSW]]]]]]]]]]]]]]]]]]]]]]]]]]]]]]]]",
"]]]]]]]]]]]]]]]]]]]]]]]]]]]]]]W^!!ST!KSBE]]]]]]]]]]]]]]]]]]]]]]]]]]]]]]]]",
"]]]]]]]]]]]]]]]]]]]]]]]]]]]]]]Esdy9sa8$,R]]]]]]]]]]]]]]]]]]]]]]]]]]]]]]]]",
"]]]]]]]]]]]]]]]]]]]]]]]]]]]]]]=+*9+1#,89a]]]]]]]]]]]]]]]]]]]]]]]]]]]]]]]]",
"]]]]]]]]]]]]]]]]]]]]]]]]]]]]]]%g3k9;OBrr<]]]]]]]]]]]]]]]]]]]]]]]]]]]]]]]]",
"]]]]]]]]]]]]]]]]]]]]]]]]]]]]]]y59#aprDQ8+]]]]]]]]]]]]]]]]]]]]]]]]]]]]]]]]",
"]]]]]]]]]]]]]]]]]]]]]]]]]]]]]]=+uyr4*==,]]]]]]]]]]]]]]]]]]]]]]]]]]]]]]]]]",
"]]]]]]]]]]]]]]]]]]]]]]]]]]]]]]]+D+p9$+$$]]]]]]]]]]]]]]]]]]]]]]]]]]]]]]]]]",
"]]]]]]]]]]]]]]]]]]]]]]]]]]]]]]]+Byau$$i#]]]]]]]]]]]]]]]]]]]]]]]]]]]]]]]]]",
"]]]]]]]]]]]]]]]]]]]]]]]]]]]]]]]49*-RtWp+]]]]]]]]]]]]]]]]]]]]]]]]]]]]]]]]]",
"]]]]]]]]]]]]]]]]]]]]]]]]]]]]]]]]rrryDp*8]]]]]]]]]]]]]]]]]]]]]]]]]]]]]]]]]",
"]]]]]]]]]]]]]]]]]]]]]]]]]]]]]]]]%**&OO,tt9]]]]]]]]]]]]]]]]]]]]]]]]]]]]]]]",
"]]]]]]]]]]]]]]]]]]]]]]]]]]]]]]]]:OOOO$8t$8B]]]]]]]]]]]]]]]]]]]]]]]]]]]]]]",
"]]]]]]]]]]]]]]]]]]]]]]]]]]]]]],#O$O O8rr5,8NABr]]]]]]]]]]]]]]]]]]]]]]]]]]",
"]]]]]]]]]]]]]]]]]]]]]]]]]]]wAA9#+$OO58tr9r8ryNBSKNPUYP]]]]]]]]]]]]]]]]]]]",
"]]]]]]]]]]]]]]]]]]]]]]]KASPPABN8,$O+,,tyyttyBNNBbvnSSJI]]]]]]]]]]]]]]]]]]",
"]]]]]]]]]]]]]]]]]]]]]]PKKFKHNAAB5$+$$5NyNyNyABBt<<8zvBSP]]]]]]]]]]]]]]]]]",
"]]]]]]]]]]]]]]]]]]]]]NNtwNBBBAABNyt8tyyytyyBAByy8<3ekvBAy]]]]]]]]]]]]]]]]",
"]]]]]]]]]]]]]]]]]]]]]NyrtBKSABNNBBAAAAyttrtyBBNw5888ykNBB]]]]]]]]]]]]]]]]",
"]]]]]]]]]]]]]]]]]]]],Nyr8BABBBASKSSASSSBNyyBABty5:,888wtN]]]]]]]]]]]]]]]]",
"]]]]]]]]]]]]]]]]]]]]5yt58BNBASKPPAANNASSSSABNNyt5+#:,,,8tw]]]]]]]]]]]]]]]",
"]]]]]]]]]]]]]]]]]]]],85$8yyNBASBBNBNNBBAAABttrww5+O+$$$,8y]]]]]]]]]]]]]]]",
"]]]]]]]]]]]]]]]]]]]]<$++,8tyNBNyytytttyNyt88r888$+OO#$$$,r]]]]]]]]]]]]]]]",
"]]]]]]]]]]]]]]]]]]]]8$+O+,tt88888t,,8tt8,888$$$$+O] #,,888]]]]]]]]]]]]]]]",
"]]]]]]]]]]]]]]]]]]]]w<+O+,$$<,58w,$+,8,$55$++OOOOO]]$8tyyw]]]]]]]]]]]]]]]",
"]]]]]]]]]]]]]]]]]]]3Bw#+OO+$,$##+##,,OO+OOOOOOOO  ]]$tBNke:]]]]]]]]]]]]]]",
"]]]]]]]]]]]]]]]]]]]nSy,+O+ OOOOO+30<w8$#+         ]]O3ccke0]]]]]]]]]]]]]]",
"]]]]]]]]]]]]]]]]]]]Hn3:OO+] OOO#<:OOO+++$$OO    O+]]]$00e00]]]]]]]]]]]]]]",
"]]]]]]]]]]]]]]]]]]CV<#OOO]]   O+OO#O,$$#+$,85+O#+O]]]O:30000]]]]]]]]]]]]]",
"]]]]]]]]]]]]]]]]]3b<+OOOO]]] O#+:e3+<<<,$++5,O+++ ]]] +:<<<0#]]]]]]]]]]]]",
"]]]]]]]]]]]]]]]]]V<#OOOO]]]]]+O#0q;O;0<>+O+###O++]]]]]O+#O#<<]]]]]]]]]]]]",
"]]]]]]]]]]]]]]]]<k#OOOOO]]]]]#++#+O+OOOOO+O>O]]]]]]]]] O.  ++]]]]]]]]]]]]",
"]]]]]]]]]]]]]]]]b<+OOOO]]]]]]]] OOO;O;OOO. ]]]]]]]]]]]]O.. ]]]]]]]]]]]]]]",
"]]]]]]]]]]]]]]]be+OOOO ]]]]]]]]]OO;;Og;XX. ]]]+]]]]]]]] X-u]]]]]]]]]]]]]]",
"]]]]]]]]]]]]]]Ve,OOOOO]]]]]]]]]]O];#+2]X.. ]];1]]]]]]]]]X=-sp]]]]]]]]]]]]",
"]]]]]]]]]]]]]bwevc#OO]]]]]]]]]]]]]O;;;+X..%]]+2;]]]]]]]]]]-aR]]]]]]]]]]]]",
"]]]]]]]]]]]]nweCC3#O]]]]]]]]]]]OO++O#;+.OO*>O#01O  ]]]]]]]XiR]]]]]]]]]]]]",
"]]]]]]]]]]]CezCz:++]]]]]]]]]] +1#++O+O#++;<;11;;#O ]]]]]]]]=sR]]]]]]]]]]]",
"]]]]]]]]]]bzeSw#OO]]]]]]]]]]  qh;2212;;;;;<021;;+O ]]]]]]]]]uR]]]]]]]]]]]",
"]]]]]]]]]cewC<+OO]]]]]]]]]]]OOq0g20hq2;;;;121;;$+O ]]]]]]]]]oas]]]]]]]]]]",
"]]]]]]]]vewv#+O]]]]]]]]]]]]]OO20q20002;;;;1;;>##+O ]]]]]]]]]]-R]]]]]]]]]]",
"]]]]]]]vz88+O]]]]]]]]]]]]]]] ]100<<<<;;;;;11####+ O]]]]]]]]]]]pa]]]]]]]]]",
"]]]]]]Nkw<OO]]]]]]]]]]]]]]] ]];qq0011;2121######O +]]]]]]]]]]]=R]]]]]]]]]",
"]]]]]Nz3#O]]]]]]]]]]]]]]]]] ]],00:1;;;;;;#++##$O OO]]]]]]]]]]]]is]]]]]]]]",
"]]]]Bk3#O]]]]]]]]]]]]]]]]]]O+]7<9ssr:>##++++##O $,+]]]]]]]]]]]]od]]]]]]]]",
"]]]]$<+O]]]]]]]]]]]]]]]]]]]O###==p=up$#++++O#OOttr,]]]]]]]]]]]]]-D;]]]]]]",
"]]]BFzO]]]]]]]]]]]]]]]]]]]]]###%o=XXX6$++O OOOrytt8]]]]]]]]]]]]] :2#]]]]]",
"]]LHFc]]]]]]]]]]]]]]]]]]]]]]+##O.   .@@O   O ytttt9]]]]]]]]]]]]]]+00]]]]]",
"]HHFSc]]]]]]]]]]]]]]]]]]]]]],B$@@   @@@X  O tNttrr9]]]]]]]]]]]]]]Oel]]]]]",
"cHFSCc]]]]]]]]]]]]]]]]]]]]]]8A5@@X  @@@X   8rtrrrr8]]]]]]]]]]]]]] wbck]]]",
"bCSSCc]]]]]]]]]]]]]]]]]]]]]]rB9@@@XX@@@X O#88rrrr89]]]]]]]]]]]]]]]3wvF]]]",
"ezw3nb]]]]]]]]]]]]]]]]]]]]]],55@@@@@@@@X  85rtttrr8O]]]]]]]]]]]]]]vVCSZ]]",
"kv3]]ve]]]]]]]]]]]]]]]]]]]]]8$O@@@@@@@XX +99tttttrrO]]]]]]]]]]]]]]vnSSK0]",
"ek]]]#e]]]]]]]]]]]]]]]]]]]]]N$O@@@@@@@X@ ,,8tyyNtttO]]]]]]]]]]]]]]cnCSSV]",
"wz#]]]]]]]]]]]]]]]]]]]]]]]]]NtOO@@@@@@@@ 8,tNyNNNyt+]]]]]]]]]]]]]]cvnCSn]",
"zv]]]]]]]]]]]]]]]]]]]]]]]]],yt8 @@@@@@@XO$9yNyNNNyy$]]]]]]]]]]]]]]ecbnvk>",
"3e]]]]]]]]]]]]]]]]]]]]]]]]]9t88O@@@@@@@ O$yttyNNNNy5]]]]]]]]]]]]]#ek33zc0",
"]+]]]]]]]]]]]]]]]]]]]]]]]]]8r88O@@@@@@@ O9ytttNNNNy8]]]]]]]]]]]]]<e$]wvcw",
"]]]]]]]]]]]]]]]]]]]]]]]]]]]8888+@@@@@@X OttrttyNNNyt]]]]]]]]]]]]]3<]]+zz3",
"]]]]]]]]]]]]]]]]]]]]]]]]]]]5988#@@@@@@X #ytrrtttyyyt]]]]]]]]]]]]O<]]]]zce",
"]]]]]]]]]]]]]]]]]]]]]]]]]]],888$X@@@@@X 8yr88rtttttt]]]]]]]]]]]]]]]]]]evw",
"]]]]]]]]]]]]]]]]]]]]]]]]]]]#588$X@@@@@X rtr88rrrtttr]]]]]]]]]]]]]]]]]]#w]",
"]]]]]]]]]]]]]]]]]]]]]]]]]]]+588,O@@@@@XOytrrrrrrrrr8]]]]]]]]]]]]]]]]]]]]]",
"]]]]]]]]]]]]]]]]]]]]]]]]]]]]8888O@@@@@X$tttrrrr88r88]]]]]]]]]]]]]]]]]]]]]",
"]]]]]]]]]]]]]]]]]]]]]]]]]]]]8888@@@@@@@8ttrr88888888]]]]]]]]]]]]]]]]]]]]]",
"]]]]]]]]]]]]]]]]]]]]]]]]]]]]<<<,+@@@@@#<ww888888888<]]]]]]]]]]]]]]]]]]]]]",
"]]]]]]]]]]]]]]]]]]]]]]]]]]]]>::>O@@@@@#<83<,<88888<,]]]]]]]]]]]]]]]]]]]]]",
"]]]]]]]]]]]]]]]]]]]]]]]]]]]]+;>;+@@@@@#<3<<:,,<<<<<:]]]]]]]]]]]]]]]]]]]]]",
"]]]]]]]]]]]]]]]]]]]]]]]]]]]]Og;#O@@@@@#:8<:#:,,<<<,+]]]]]]]]]]]]]]]]]]]]]",
"]]]]]]]]]]]]]]]]]]]]]]]]]]]]]f;++XXX@X##,:###$,,,,:O]]]]]]]]]]]]]]]]]]]]]",
"]]]]]]]]]]]]]]]]]]]]]]]]]]]]];OOOOOOOO;##+++##:::,:]]]]]]]]]]]]]]]]]]]]]]",
"]]]]]]]]]]]]]]]]]]]]]]]]]]]]]]OOOOOOOO;OOO+++#::<::]]]]]]]]]]]]]]]]]]]]]]",
"]]]]]]]]]]]]]]]]]]]]]]]]]]]]]]OOOO OO+OO+O+#;;:<<:#]]]]]]]]]]]]]]]]]]]]]]",
"]]]]]]]]]]]]]]]]]]]]]]]]]]]]]]OO OO OOO++#221;;<<:+]]]]]]]]]]]]]]]]]]]]]]",
"]]]]]]]]]]]]]]]]]]]]]]]]]]]]]]OOOOOOOOOO];001;;<<;+]]]]]]]]]]]]]]]]]]]]]]",
"]]]]]]]]]]]]]]]]]]]]]]]]]]]]]]]#OOOOOOOO,;21;;;;;;+]]]]]]]]]]]]]]]]]]]]]]",
"]]]]]]]]]]]]]]]]]]]]]]]]]]]]]]]:+OOOOOOO,<:#;;;;;;]]]]]]]]]]]]]]]]]]]]]]]",
"]]]]]]]]]]]]]]]]]]]]]]]]]]]]]]]++OOOOOOO$80#+#;;;+]]]]]]]]]]]]]]]]]]]]]]]",
"]]]]]]]]]]]]]]]]]]]]]]]]]]]]]]] OOOOOOOO$,<+O+;;<]]]]]]]]]]]]]]]]]]]]]]]]",
"]]]]]]]]]]]]]]]]]]]]]]]]]]]]]]]]]OOOOOOO+#+]XO#;;]]]]]]]]]]]]]]]]]]]]]]]]",
"]]]]]]]]]]]]]]]]]]]]]]]]]]]]]]]]] OOOOOOO+O] XO$]]]]]]]]]]]]]]]]]]]]]]]]]",
"]]]]]]]]]]]]]]]]]]]]]]]]]]]]]]]]]]OOOOOOOO]]&o&%]]]]]]]]]]]]]]]]]]]]]]]]]",
"]]]]]]]]]]]]]]]]]]]]]]]]]]]]]]]]]] OOOOOOO]]&%=-]]]]]]]]]]]]]]]]]]]]]]]]]",
"]]]]]]]]]]]]]]]]]]]]]]]]]]]]]]]]]]]OOOOOO+]]]u=p]]]]]]]]]]]]]]]]]]]]]]]]]",
"]]]]]]]]]]]]]]]]]]]]]]]]]]]]]]]]]]]]OOOOO#]]]dsa]]]]]]]]]]]]]]]]]]]]]]]]]",
"]]]]]]]]]]]]]]]]]]]]]]]]]]]]]]]]]]]]OOOOO$]]]ddd]]]]]]]]]]]]]]]]]]]]]]]]]",
"]]]]]]]]]]]]]]]]]]]]]]]]]]]]]]]]]]]]]OOOO$]]]dsR]]]]]]]]]]]]]]]]]]]]]]]]]",
"]]]]]]]]]]]]]]]]]]]]]]]]]]]]]]]]]]]]] OOO#]]]dsd]]]]]]]]]]]]]]]]]]]]]]]]]",
"]]]]]]]]]]]]]]]]]]]]]]]]]]]]]]]]]]]]]]OOO#$]]dsdu]]]]]]]]]]]]]]]]]]]]]]]]",
"]]]]]]]]]]]]]]]]]]]]]]]]]]]]]]]]]]]]]]OO+#5]]dsdi]]]]]]]]]]]]]]]]]]]]]]]]",
"]]]]]]]]]]]]]]]]]]]]]]]]]]]]]]]]]]]]]]]O+;<#]dssp]]]]]]]]]]]]]]]]]]]]]]]]",
"]]]]]]]]]]]]]]]]]]]]]]]]]]]]]]]]]]]]]]]OOO#;]sadp]]]]]]]]]]]]]]]]]]]]]]]]",
"]]]]]]]]]]]]]]]]]]]]]]]]]]]]]]]]]]]]]]]OOO++8sssa]]]]]]]]]]]]]]]]]]]]]]]]",
"]]]]]]]]]]]]]]]]]]]]]]]]]]]]]]]]]]]]]]]OOO+$8asds]]]]]]]]]]]]]]]]]]]]]]]]",
"]]]]]]]]]]]]]]]]]]]]]]]]]]]]]]]]]]]]]]5w,O+,8sssd]]]]]]]]]]]]]]]]]]]]]]]]",
"]]]]]]]]]]]]]]]]]]]]]]]]]]]]]]]]]]]]]ySAy,,<,sdss]]]]]]]]]]]]]]]]]]]]]]]]",
"]]]]]]]]]]]]]]]]]]]]]]]]]]]]]]]]]]]]BKPIBy<,+sRsR]]]]]]]]]]]]]]]]]]]]]]]]",
"]]]]]]]]]]]]]]]]]]]]]]]]]]]]]]]]]]]BKIIIt,$+]RRad]]]]]]]]]]]]]]]]]]]]]]]]",
"]]]]]]]]]]]]]]]]]]]]]]]]]]]]]]]]]]wKIJS8$#O]]WRadi]]]]]]]]]]]]]]]]]]]]]]]",
"]]]]]]]]]]]]]]]]]]]]]]]]]]]]]]]]]]BKz#$+O]]]]WTyap]]]]]]]]]]]]]]]]]]]]]]]",
"]]]]]]]]]]]]]]]]]]]]]]]]]]]]]]]]]]O,+O]]]]]]]Rsrr* ]]]]]]]]]]]]]]]]]]]]]]",
"]]]]]]]]]]]]]]]]]]]]]]]]]]]]]]]]]]]]]]]]]]]]]u-<,;O]]]]]]]]]]]]]]]]]]]]]]",
"]]]]]]]]]]]]]]]]]]]]]]]]]]]]]]]]]]]]]]]]]]]]]#<0]0>]]]]]]]]]]]]]]]]]]]]]]",
"]]]]]]]]]]]]]]]]]]]]]]]]]]]]]]]]]]]]]]]]]]]]]mM0]qm]]]]]]]]]]]]]]]]]]]]]]",
"]]]]]]]]]]]]]]]]]]]]]]]]]]]]]]]]]]]]]]]]]]]]GGM0OxFj]]]]]]]]]]]]]]]]]]]]]",
"]]]]]]]]]]]]]]]]]]]]]]]]]]]]]]]]]]]]]]]]]]MGLGMx0mjq]]]]]]]]]]]]]]]]]]]]]",
"]]]]]]]]]]]]]]]]]]]]]]]]]]]]]]]]]]]]]]]]]qMFHHMVk0<:]]]]]]]]]]]]]]]]]]]]]",
"]]]]]]]]]]]]]]]]]]]]]]]]]]]]]]]]]]]]]]]]] ++###+O ]]]]]]]]]]]]]]]]]]]]]]]"
};
