/* XPM */
static char *__1[] = {
/* columns rows colors chars-per-pixel */
"73 115 87 1 ",
"  c #131313",
". c gray9",
"X c #1B1B1B",
"o c gray12",
"O c #23170B",
"+ c #2F1F0F",
"@ c #1E371E",
"# c #3B2713",
"$ c #3A3319",
"% c #232323",
"& c #282828",
"* c #322D22",
"= c #3D3626",
"- c #363228",
"; c #3A3A3A",
": c #53200A",
"> c #4B2F17",
", c #4A271B",
"< c #453C15",
"1 c #57371B",
"2 c #662101",
"3 c #6F2200",
"4 c #633F1F",
"5 c #453F2A",
"6 c #4F3F2B",
"7 c #334B23",
"8 c #355722",
"9 c #5B4326",
"0 c #53472C",
"q c #734323",
"w c #7F4B27",
"e c #704628",
"r c #7A4B2B",
"t c #604C33",
"y c #6D5536",
"u c #7B5C3C",
"i c #434343",
"p c #4E4E4E",
"a c gray34",
"s c gray39",
"d c gray43",
"f c #777777",
"g c #821600",
"h c #A9300F",
"j c #BE541B",
"k c #8B532B",
"l c #9B5B2F",
"z c #814F30",
"x c #9B4B33",
"c c #8F5733",
"v c #975B37",
"b c #9B5F3B",
"n c #9F633F",
"m c #C65F1F",
"M c #CD6B23",
"N c #866741",
"B c #976E45",
"V c #A76743",
"C c #AB6B47",
"Z c #AF6F4B",
"A c #A0764A",
"S c #AD7F4E",
"D c #8F5477",
"F c #DB832B",
"G c #E28F2E",
"H c #EA9B32",
"J c #F1A736",
"K c #B78C58",
"L c #FFAF53",
"P c #C49A69",
"I c #FFB962",
"U c #FFC370",
"Y c #BC7F9E",
"T c #848484",
"R c #939393",
"E c #A2A2A2",
"W c #AEAEAE",
"Q c #B9B9B9",
"! c #D5AE80",
"~ c #CC92AA",
"^ c #E5C196",
"/ c #F4CAA7",
"( c #F5D4AC",
") c #FEEBAA",
"_ c #C5C5C5",
"` c #FEFFC7",
"' c None",
/* pixels */
"'''''''''''''''''''''''''''''''''''''''''''''''''''''''''''''''''''''''''",
"'''''''''''''''''''''''''''''''''''''''''''''''''''''''''''''''''''''''''",
"'''''''''''''''''''''''''''''''''''''_``(T'''''''''''''''''''''''''''''''",
"'''''''''''''''''''''''''''''''''''Y``)````''''''''''''''''''''''''''''''",
"''''''''''''''''''''''''''''''''''tK^!^/~BP!'''''''''''''''''''''''''''''",
"''''''''''''''''''''''''''''''''''A/!!/^PSNB'''''''''''''''''''''''''''''",
"''''''''''''''''''''''''''''''''''R_WQEAY~ABs''''''''''''''''''''''''''''",
"''''''''''''''''''''''''''''''''''sdist;ds9<i''''''''''''''''''''''''''''",
"''''''''''''''''''''''''''''''''''0:201#2#$='''''''''''''''''''''''''''''",
"''''''''''''''''''''''''''''''''''u%>By<:10<'''''''''''''''''''''''''''''",
"''''''''''''''''''''''''''''''''''Ttu=;daDT0'''''''''''''''''''''''''''''",
"''''''''''''''''''''''''''''''''''%#tut05*i='''''''''''''''''''''''''''''",
"''''''''''''''''''''''''''''''''''+$K9=a$O#''''''''''''''''''''''''''''''",
"'''''''''''''''''''''''''''''''''''5uyua#+*''''''''''''''''''''''''''''''",
"'''''''''''''''''''''''''''''''''''PBiiTyT'''''''''''''''''''''''''''''''",
"'''''''''''''''''''''''''''''''''''y95ttDi'''''''''''''''''''''''''''''''",
"'''''''''''''''''''''''''''''''''''$%*%%O#$#'''''''''''''''''''''''''''''",
"'''''''''''''''''''''''''''''''''4#$+OOO+$=9u''''''''''''''''''''''''''''",
"''''''''''''''''''''''''''''''uAByO$$O O+<9$9By''''''''''''''''''''''''''",
"'''''''''''''''''''''''A!PBAKSANNN0<$O +$9999yNASt'''''''''''''''''''''''",
"''''''''''''''''''''''KKSSSPSABABBB6$O+=6tuNNuuNBSPSBSKB'''''''''''''''''",
"'''''''''''''''''''''AABuyuASABNBBAN9$$$9NBBNNBSBBckBBSKK''''''''''''''''",
"'''''''''''''''''''''BBNueNAKKSANNuNBt9uBBNNBAASABN4ezNBSA'''''''''''''''",
"''''''''''''''''''''eBBNy9uNAANNNNBBASSASBuuuBBAANuerrkBBA'''''''''''''''",
"''''''''''''''''''''Nuuy99uABNNBASKKKSASSSBuuyuNNue9erkNBBu''''''''''''''",
"'''''''''''''''''''<e99<$6uNuNBASPPSAABNASSSBNyuNyu614rukNN''''''''''''''",
"'''''''''''''''''''y91$#+699yyNBABBBBBBBAASAAANyyy9$$<999yN''''''''''''''",
"'''''''''''''''''''u99>+O$<<yuyeuuuyyuuuuuBBBN99999$+$<<99y''''''''''''''",
"''''''''''''''''''>Bkr<+OO#9<<19199yy$<9eye9<699999+O#<<99e''''''''''''''",
"''''''''''''''''''eCSB9+O'O+$$<6$<91<##<96<<99<$+++O #19tty<'''''''''''''",
"''''''''''''''''''bSFv4+ ''OOO+#+#++##9<++++++OOOOO '$tNNNu$'''''''''''''",
"''''''''''''''''''ZFC9#O''' OOOOOO#>q$499#+OOOO  O ''$yAABN$'''''''''''''",
"'''''''''''''''''CCb4#OO'''     O###OOOO++##O      ''O9BnBc>'''''''''''''",
"''''''''''''''''cZb4#OO'''''   O+#++##O<$###$$OO   '' #rkkk4'''''''''''''",
"''''''''''''''''ZCk$OOO''''' OO>#+<rk#+41<$+#$9+   '''O>qqww'''''''''''''",
"'''''''''''''''rVl1+OO'''''''>++O>4q1OO11>#+O<++   ''' +1qqq>''''''''''''",
"'''''''''''''''Cb4#OO ''''''''#3O++OOOOOOOOO#+''O''''''O,,>qq''''''''''''",
"''''''''''''''nS4#+OO'''''''''O':OOOO:O+OOO''''''''''''O+ O,1''''''''''''",
"'''''''''''''bC41++O''''''''''''' O+::O:3O.'''''''''''' O  ##+'''''''''''",
"''''''''''''eSerrb# ''''''''''''''''++O:#XO''+2:''''''''O%i''''''''''''''",
"''''''''''''Hr4cV4O''''''''''''''':::+OO...'':32''''''''O;pi'''''''''''''",
"'''''''''''Fn4bv<O'''''''''''''O++O+::+...OOO#3q:O ''''' &iTs''''''''''''",
"''''''''''rS9nv>O ''''''''''' +qq:+#:OO OO+:O3q::+O ''''''ifR''''''''''''",
"''''''''''F4rb#O''''''''''''  3jhg13::2::232:h3:::O ''''''osE''''''''''''",
"'''''''''Fk4c+O''''''''''''' Oqwqg3g3hq3q33:3g3::+O ''''''';Ts'''''''''''",
"''''''''nS1rO'''''''''''''''OO2qqq3qqqqq333:322:##O ''''''''sE'''''''''''",
"''''''''J1eO''''''''''''''''  :qqq122111:22:33:### ''''''''';T'''''''''''",
"'''''''Le4O'''''''''''''''''''#2qwqq111:332::,####O '''''''''sd''''''''''",
"''''''An4+''''''''''''''''''+'O>qq1q1:::22::####$#  ''''''''';T''''''''''",
"''''''49#'''''''''''''''''''+##8011sa01::,+++##$< O ''''''''''sp'''''''''",
"'''''CFH''''''''''''''''''''O####=iiiad=+++++#$< $$O'''''''''';T'''''''''",
"''''SHFFv''''''''''''''''''''####&%iioX%8+++OO# $u0+'''''''''''d'''''''''",
"'''SHHFKH''''''''''''''''''''e$##O     %7+O  + $yyy$'''''''''''-d:'''''''",
"'''FFFHHCz''''''''''''''''''<AN+O7@   X@@     Oyyyt<'''''''''''O,q'''''''",
"''rCCCCKHS''''''''''''''''''$NA< @@@ X@@@X    yyytt<''''''''''''+w1''''''",
"''rrzk1'4SK'''''''''''''''''$6t9 @@@@XX@@X   9yytt9<''''''''''''#rk''''''",
"''1rkb''''c9''''''''''''''''99+$ @@@@XX@@X  +ytyttt$''''''''''''Orn''''''",
"''>rzk>'''''''''''''''''''''yN#  @@@@X@@@@  06tyyyt$'''''''''''''rrr'''''",
"''O4rz4'''''''''''''''''''''BBtO @@@@X@@@@ +96tyyyy<+''''''''''''SCSc''''",
"'''1rc4'''''''''''''''''''''BBy6O@@@@X@@@@ 969yyyuy<$''''''''''''CCSF''''",
"'''#er<''''''''''''''''''''<BNy9$X@@@X@@@@Ot<6tyyuu<$'''''''''''>CCSSe'''",
"''''++O''''''''''''''''''''9Nyt06 @@@X@@@@$0<69yyuu0<'''''''''''ebCSSV'''",
"'''''''''''''''''''''''''''tuy999.@@@X@@@X#<<<0tyuut<'''''''''''zbCCCv'''",
"'''''''''''''''''''''''''''9ye999O@@@X@@@ O$<<69yuuy<'''''''''''cbc4zr'''",
"'''''''''''''''''''''''''''9et999+@@@X@@@ O$=<<0tyyy<''''''''''1vr'<vc'''",
"'''''''''''''''''''''''''''<t9999+@@@X@@@ O$<<<69tyy<+'''''''''vz'''ck#''",
"'''''''''''''''''''''''''''$99999$@@@X@@X O$<<<609tt<#'''''''''<''''zz'''",
"'''''''''''''''''''''''''''+99999$X@@X@@  O$<<<60000$O''''''''''''''kc'''",
"'''''''''''''''''''''''''''+9t999$X@@X@@  +<<<<6000<$O''''''''''''''4z'''",
"'''''''''''''''''''''''''''+9e991>X@@X@@ '+<<<60000<+O''''''''''''''O+'''",
"'''''''''''''''''''''''''''O>411>>+@@X@@ '+$96<6999$+O'''''''''''''''''''",
"'''''''''''''''''''''''''''O#11>>:+@@X@@''+$9<<<91<#OO'''''''''''''''''''",
"'''''''''''''''''''''''''''O+:>:::+@@@@@' +><>$$<<<+OO'''''''''''''''''''",
"'''''''''''''''''''''''''''O+:::::+@@@@@''O$>$#$$<$OO''''''''''''''''''''",
"''''''''''''''''''''''''''' +2::::+@@X@@''O#$###$$#OO''''''''''''''''''''",
"''''''''''''''''''''''''''''O:+#++OOO ''''O+##+++#OOO''''''''''''''''''''",
"''''''''''''''''''''''''''''OOO+++OOO '''' O+OOO++OOO''''''''''''''''''''",
"''''''''''''''''''''''''''''+OOO+:OO  '''' OOOOO++OO ''''''''''''''''''''",
"'''''''''''''''''''''''''''''OOOO:O  O'''''OOO+##++O ''''''''''''''''''''",
"'''''''''''''''''''''''''''''#O OOOOOO'''''OO+::+++OO''''''''''''''''''''",
"'''''''''''''''''''''''''''''1+OOOOOO+'''''OO+::+OOO ''''''''''''''''''''",
"'''''''''''''''''''''''''''''1#+OOOOO+9'''' OO::+OOO ''''''''''''''''''''",
"'''''''''''''''''''''''''''''$#+OOOOO#9'''''Oo++OOOO'''''''''''''''''''''",
"'''''''''''''''''''''''''''''O+OOOOOO+<'''''O'oOOOOO'''''''''''''''''''''",
"''''''''''''''''''''''''''''''OOOOOOOO#''''''' XOO+O'''''''''''''''''''''",
"''''''''''''''''''''''''''''''OOOOOOOO+''''''''XX'O''''''''''''''''''''''",
"'''''''''''''''''''''''''''''''OOOOOOOO''''''''XX' ''''''''''''''''''''''",
"'''''''''''''''''''''''''''''''OOOOOOO'''''''''XXX ''''''''''''''''''''''",
"''''''''''''''''''''''''''''''''OOOOOO'''''''''XX%o''''''''''''''''''''''",
"''''''''''''''''''''''''''''''''OOOOO+'''''''''XX%i''''''''''''''''''''''",
"'''''''''''''''''''''''''''''''''OOOO+'''''''''X;ip''''''''''''''''''''''",
"''''''''''''''''''''''''''''''''' OOO#'''''''''&asa''''''''''''''''''''''",
"''''''''''''''''''''''''''''''''''OOO#'''''''''%ads''''''''''''''''''''''",
"''''''''''''''''''''''''''''''''''OOO$>''''''''oasa''''''''''''''''''''''",
"'''''''''''''''''''''''''''''''''' OO>1'''''''''pss''''''''''''''''''''''",
"'''''''''''''''''''''''''''''''''''OOO::''''''''pas;'''''''''''''''''''''",
"'''''''''''''''''''''''''''''''''''OOO+$''''''''iasi'''''''''''''''''''''",
"'''''''''''''''''''''''''''''''''''#OO+<9'''''''iasi'''''''''''''''''''''",
"''''''''''''''''''''''''''''''''''e<+O$9<'''''''iasa'''''''''''''''''''''",
"'''''''''''''''''''''''''''''''''AB9<#<9''''''''iasa'''''''''''''''''''''",
"''''''''''''''''''''''''''''''''BBNu999$''''''''iasa'''''''''''''''''''''",
"'''''''''''''''''''''''''''''''NBBSNy9<'''''''''iaaa'''''''''''''''''''''",
"'''''''''''''''''''''''''''''''NBSSNu<''''''''''isaai''''''''''''''''''''",
"''''''''''''''''''''''''''''''9uBLUN1O''''''''''asapa''''''''''''''''''''",
"''''''''''''''''''''''''''''''9zKIL<O'''''''''''asait''''''''''''''''''''",
"'''''''''''''''''''''''''''''''kKS9O''''''''''''ip5->''''''''''''''''''''",
"''''''''''''''''''''''''''''''''<+''''''''''''''o**+1''''''''''''''''''''",
"''''''''''''''''''''''''''''''''''''''''''''''''O##1,q'''''''''''''''''''",
"''''''''''''''''''''''''''''''''''''''''''''''''+2qq+xw''''''''''''''''''",
"''''''''''''''''''''''''''''''''''''''''''''''''1wlw#4M''''''''''''''''''",
"'''''''''''''''''''''''''''''''''''''''''''''''>mFFjlnM,'''''''''''''''''",
"'''''''''''''''''''''''''''''''''''''''''''''''FFGGFGIj''''''''''''''''''",
"'''''''''''''''''''''''''''''''''''''''''''''''jMMFZVl>''''''''''''''''''",
"'''''''''''''''''''''''''''''''''''''''''''''''O>>>#O''''''''''''''''''''",
"''''''''''''''''''''''''''''''''''''''''' ++###+O '''''''''''''''''''''''"
};
