/* XPM */
static char *__2[] = {
/* columns rows colors chars-per-pixel */
"73 115 90 1 ",
"  c #131313",
". c gray9",
"X c #1B1B1B",
"o c gray12",
"O c #23170B",
"+ c #2F1F0F",
"@ c #1E371E",
"# c #3B2713",
"$ c #3A3319",
"% c #232323",
"& c #282828",
"* c #322D22",
"= c #3D3626",
"- c #363228",
"; c #3A3A3A",
": c #53200A",
"> c #4B2F17",
", c #4A271B",
"< c #453C15",
"1 c #57371B",
"2 c #662101",
"3 c #6F2200",
"4 c #633F1F",
"5 c #453F2A",
"6 c #4F3F2B",
"7 c #334B23",
"8 c #5B4326",
"9 c #53472C",
"0 c #734323",
"q c #7F4B27",
"w c #704628",
"e c #7A4B2B",
"r c #604C33",
"t c #6D5536",
"y c #7B5C3C",
"u c #434343",
"i c #4E4E4E",
"p c gray34",
"a c gray39",
"s c gray43",
"d c #777777",
"f c #930C04",
"g c #821600",
"h c #9A1808",
"j c #A2240C",
"k c #A9300F",
"l c #B03C13",
"z c #BE541B",
"x c #8B532B",
"c c #9B5B2F",
"v c #814F30",
"b c #9B4B33",
"n c #8F5733",
"m c #975B37",
"M c #9B5F3B",
"N c #9F633F",
"B c #C65F1F",
"V c #CD6B23",
"C c #866741",
"Z c #976E45",
"A c #A76743",
"S c #AB6B47",
"D c #AF6F4B",
"F c #A0764A",
"G c #AD7F4E",
"H c #8F5477",
"J c #DB832B",
"K c #EA9B32",
"L c #F1A736",
"P c #B78C58",
"I c #FFAF53",
"U c #C49A69",
"Y c #FFB962",
"T c #FFC370",
"R c #FFF667",
"E c #848484",
"W c #939393",
"Q c #A2A2A2",
"! c #AEAEAE",
"~ c #B9B9B9",
"^ c #D5AE80",
"/ c #CC92AA",
"( c #E5C196",
") c #F4CAA7",
"_ c #F5D4AC",
"` c #FEF5B9",
"' c #C5C5C5",
"] c gainsboro",
"[ c #FEFFC7",
"{ c None",
/* pixels */
"{{{{{{{{{{{{{{{{{{{{{{{{{{{{{{{{{{{{{{{{{W'_Q{{{{{{{{{{{{{{{{{{{{{{{{{{{{",
"{{{{{{{{{{{{{{{{{{{{{{{{{{{{{{{{{{{{{{{F[[[`[[W{{{{{{{{{{{{{{{{{{{{{{{{{{",
"{{{{{{{{{{{{{{{{{{{{{{{{{{{{{{{{{{{{{{aGP)(T_(^E{{{{{{{{{{{{{{{{{{{{{{{{{",
"{{{{{{{{{{{{{{{{{{{{{{{{{{{{{{{{{{{{{{!/](^(]^ZC{{{{{{{{{{{{{{{{{{{{{{{{{",
"{{{{{{{{{{{{{{{{{{{{{{{{{{{{{{{{{{{{{{E~'Q~~UPUC{{{{{{{{{{{{{{{{{{{{{{{{{",
"{{{{{{{{{{{{{{{{{{{{{{{{{{{{{{{{{{{{{{8Ea5ay9EEC{{{{{{{{{{{{{{{{{{{{{{{{{",
"{{{{{{{{{{{{{{{{{{{{{{{{{{{{{{{{{{{{{=r9g2r<$<=#{{{{{{{{{{{{{{{{{{{{{{{{{",
"{{{{{{{{{{{{{{{{{{{{{{{{{{{{{{{{{{{{{{FE#yHy::$={{{{{{{{{{{{{{{{{{{{{{{{{",
"{{{{{{{{{{{{{{{{{{{{{{{{{{{{{{{{{{{{{{Zsts<rarZ={{{{{{{{{{{{{{{{{{{{{{{{{",
"{{{{{{{{{{{{{{{{{{{{{{{{{{{{{{{{{{{{{{=$6syrr;i{{{{{{{{{{{{{{{{{{{{{{{{{{",
"{{{{{{{{{{{{{{{{{{{{{{{{{{{{{{{{{{{{{{9=EG<a<O%{{{{{{{{{{{{{{{{{{{{{{{{{{",
"{{{{{{{{{{{{{{{{{{{{{{{{{{{{{{{{{{{{{{yrr4ts$+.{{{{{{{{{{{{{{{{{{{{{{{{{{",
"{{{{{{{{{{{{{{{{{{{{{{{{{{{{{{{{{{{{{{y^Gpud9u{{{{{{{{{{{{{{{{{{{{{{{{{{{",
"{{{{{{{{{{{{{{{{{{{{{{{{{{{{{{{{{{{{{{*rt9ryE;{{{{{{{{{{{{{{{{{{{{{{{{{{{",
"{{{{{{{{{{{{{{{{{{{{{{{{{{{{{{{{{{{{{48+O&%&O{{{{{{{{{{{{{{{{{{{{{{{{{{{{",
"{{{{{{{{{{{{{{{{{{{{{{{{{{{{{{{{{{{ve1r<OOOO#${{{{{{{{{{{{{{{{{{{{{{{{{{{",
"{{{{{{{{{{{{{{{{{{{{{{{{yTR^Z{CFGFZt8rt<O O+$++8{{{{{{{{{{{{{{{{{{{{{{{{{",
"{{{{{{{{{{{{{{{{{{{{{{{YUUPZZFPGFCCyyytr+ O#<O$yFt{{{{{{{{{{{{{{{{{{{{{{{",
"{{{{{{{{{{{{{{{{{{{{{{UPPGCttFGGZZCZZCt8<##+<8CyyZGy{{{{{{{{{{{{{{{{{{{{{",
"{{{{{{{{{{{{{{{{{{{{{yGFGFyrtCFPGFZZZZyr<$$6yFZZZZZGPZy{{{{{{{{{{{{{{{{{{",
"{{{{{{{{{{{{{{{{{{{{{GZCCyw9tCZFFZCCytCCw8yZFZZFFGGFFnMGPU{{{{{{{{{{{{{{{",
"{{{{{{{{{{{{{{{{{{{{wZvw886<yZGZyyCZFGZGGGGFZCZFGGPGZyvmZSG{{{{{{{{{{{{{{",
"{{{{{{{{{{{{{{{{{{{{Zv88<$#$tCCyyZFGGUPPGFGFGGZCZFFFCCmmMNNy{{{{{{{{{{{{{",
"{{{{{{{{{{{{{{{{{{{{xe81<#O68wwttCFPPPGFFZZFGGGZCCZCywymZNZZ{{{{{{{{{{{{{",
"{{{{{{{{{{{{{{{{{{{1mxv81+O$8<6tZCZZZZZZCZFFFGGGZyyCy84vmZZZ{{{{{{{{{{{{{",
"{{{{{{{{{{{{{{{{{{{wNNZZ8+{+#8888r88wtrtyyyCCZZFFytt86<8wtyC{{{{{{{{{{{{{",
"{{{{{{{{{{{{{{{{{{{cSGJN4O{O++$$$<1<8wtr<<wtyyt989888<$188wt{{{{{{{{{{{{{",
"{{{{{{{{{{{{{{{{{{{DDGJx>{{ OOOO#$$$#$$>+#<888888868<+$18wwt<{{{{{{{{{{{{",
"{{{{{{{{{{{{{{{{{{ADSSM1O{{{ OOOOOO++O#1>1<++##$<$#OOO$8yytt<{{{{{{{{{{{{",
"{{{{{{{{{{{{{{{{{4DDAM1O{{{{       O#>10>88<++OOOOOOO{$tFFZC<{{{{{{{{{{{{",
"{{{{{{{{{{{{{{{{{DGDAe#O{{{{      O##+OOOO++##+    O {$tFPFZ>{{{{{{{{{{{{",
"{{{{{{{{{{{{{{{{wAAAn1O{{{{{   O+<$++#$<O#$##+#+    {{O<nSNm{{{{{{{{{{{{{",
"{{{{{{{{{{{{{{{{AAAc1+ {{{{{{ O+8<++>4x4O#44<#+$$OO {{ +1xxx{{{{{{{{{{{{{",
"{{{{{{{{{{{{{{{{JJm1#O{{{{{{{#>O>,O#440:O+000,O+#+  {{{O#40q4{{{{{{{{{{{{",
"{{{{{{{{{{{{{{{GYG1+O {{{{{{{{{ :g:O++OOOOOO+OO{{$O{{{{O+,00q{{{{{{{{{{{{",
"{{{{{{{{{{{{{{{KJe4w>{{{{{{{{{{ #33OOOO:O:+OO{{{{{{{{{{ O+140,{{{{{{{{{{{",
"{{{{{{{{{{{{{{mIA1wv>{{{{{{{{{{{{{:#:O::O:3:{{{{{{{{{{{{O+O>,1{{{{{{{{{{{",
"{{{{{{{{{{{{{{KIx4ew {{{{{{{{{{{{{{{{{{+O:2{{{{{{{{{{{{{O+O#>>{{{{{{{{{{{",
"{{{{{{{{{{{{{{IYxve+{{{{{{{{{{{{{O::#{{.OOO{{23:{{{{{{{{ +%;>>{{{{{{{{{{{",
"{{{{{{{{{{{{{{YINS#{{{{{{{{{{{{O+++:::+.... O:33:{{{{{{{ Oui{{{{{{{{{{{{{",
"{{{{{{{{{{{{{MYPGn{{{{{{{{{{{ O:::>:::# O.OOO23b3:O {{{{{o-dE{{{{{{{{{{{{",
"{{{{{{{{{{{{{LYSS{{{{{{{{{{{{OO:2231:2:O::::223l3:OO{{{{{{;d!{{{{{{{{{{{{",
"{{{{{{{{{{{{{YYN<{{{{{{{{{{{{O+#:23ggg203300g:gkg::O{{{{{{{pQ{{{{{{{{{{{{",
"{{{{{{{{{{{{wRPM{{{{{{{{{{{{{OO+:230300kqq033:3g2:#O{{{{{{{;EE{{{{{{{{{{{",
"{{{{{{{{{{{{PRU{{{{{{{{{{{{{{OO+,300112111:33:32:+#O{{{{{{{{aQ{{{{{{{{{{{",
"{{{{{{{{{{{{ZFP{{{{{{{{{{{{{{OO+,20q021,:13gg:32###O{{{{{{{{-E{{{{{{{{{{{",
"{{{{{{{{{{{vGJIG{{{{{{{{{{{{{++O#100103:::23g2:####O{{{{{{{{{aE{{{{{{{{{{",
"{{{{{{{{{{{JPJKLF{{{{{{{{{{{{+#+$<11>1151222:,###$<+{{{{{{{{{;E{{{{{{{{{{",
"{{{{{{{{{{NPJKKPPy{{{{{{{{{{{+####$#papdsa*+++##$8< {{{{{{{{{Xsp{{{{{{{{{",
"{{{{{{{{{{SGGKLIIIG{{{{{{{{{{+$#####-%ua%%=7++##8<<#{{{{{{{{{{uE{{{{{{{{{",
"{{{{{{{{{{MSSAx11nPL{{{{{{{{{O8<###+XX  XX%7++O+$+88O{{{{{{{{{%E{{{{{{{{{",
"{{{{{{{{{{nxeem{{{{+{{{{{{{{ OOt<++#@    @@@   #O8t9O{{{{{{{{{{rr+{{{{{{{",
"{{{{{{{{{{044em{{{{{{{{{{{{{O$ $8  X@@  X@@@    $yt6+{{{{{{{{{{%:0{{{{{{{",
"{{{{{{{{{{:4wwen{{{{{{{{{{{{O$# $O X@@@XX@@@X  Ortr<+{{{{{{{{{{{+q{{{{{{{",
"{{{{{{{{{{O444wx{{{{{{{{{{{{#$8+   @@@@XX@@@X  6rtr<${{{{{{{{{{{#x0{{{{{{",
"{{{{{{{{{{{+>4wve{{{{{{{{{{{6$9rO  @@@@@X@@@X $8rtr6${{{{{{{{{{{#SS{{{{{{",
"{{{{{{{{{{{{+41<>{{{{{{{{{{{r<8t8  @@@@@X@@@ O<6rtt6<{{{{{{{{{{{+Pw{{{{{{",
"{{{{{{{{{{{{{+OOO{{{{{{{{{{{w68wr8 X@@@@X@@@ $=6rtt66{{{{{{{{{{{{LS{{{{{{",
"{{{{{{{{{{{{{{{{{{{{{{{{{{{{w88rr8< @@@@X@@@O$=68tt9<{{{{{{{{{{{{PGS{{{{{",
"{{{{{{{{{{{{{{{{{{{{{{{{{{{8888r888X@@@@X@@@O$6<9rt9<{{{{{{{{{{{{PGJ{{{{{",
"{{{{{{{{{{{{{{{{{{{{{{{{{{{wr888888O@@@@X@@@O68<68r9<#{{{{{{{{{{vSGGv{{{{",
"{{{{{{{{{{{{{{{{{{{{{{{{{{{tt888888+@@@@X@@@+8<<<9r8<${{{{{{{{{{NGGSN{{{{",
"{{{{{{{{{{{{{{{{{{{{{{{{{{{ty888888#@@@@X@@X#<<<<68r<8{{{{{{{{{{GS>ee{{{{",
"{{{{{{{{{{{{{{{{{{{{{{{{{{{ty888888$X@@@X@@X#$<<<<99$8{{{{{{{{{SS{{en{{{{",
"{{{{{{{{{{{{{{{{{{{{{{{{{{{tyt88888$X@@@X@@O#$=<$<86$<{{{{{{{{{8{{{1x{{{{",
"{{{{{{{{{{{{{{{{{{{{{{{{{{{tyy88888< @@XX@@ #$<<$<<<+<{{{{{{{{{{{{{1e{{{{",
"{{{{{{{{{{{{{{{{{{{{{{{{{{{tyCt88811.@@XX@@O$<<7$<<$#<{{{{{{{{{{{{{>n{{{{",
"{{{{{{{{{{{{{{{{{{{{{{{{{{{wexx441>0O@@@X@@+$<<<<<6$O${{{{{{{{{{{{{>e{{{{",
"{{{{{{{{{{{{{{{{{{{{{{{{{{{00qq011:1+@@XX@@+$$<<<<<++<{{{{{{{{{{{{{O+{{{{",
"{{{{{{{{{{{{{{{{{{{{{{{{{{{10033::::+@@XX@@+#$$<<<<++${{{{{{{{{{{{{{{{{{{",
"{{{{{{{{{{{{{{{{{{{{{{{{{{{:03j3:::#+@@@X@@O##$$$$#+++{{{{{{{{{{{{{{{{{{{",
"{{{{{{{{{{{{{{{{{{{{{{{{{{{:1jj2:::+O@@XX@XO+#####+O#O{{{{{{{{{{{{{{{{{{{",
"{{{{{{{{{{{{{{{{{{{{{{{{{{{#>hf::::OO@@XX@{O+###+++O#{{{{{{{{{{{{{{{{{{{{",
"{{{{{{{{{{{{{{{{{{{{{{{{{{{O:2O:::+OO {{{{{OO++++OOO#{{{{{{{{{{{{{{{{{{{{",
"{{{{{{{{{{{{{{{{{{{{{{{{{{{{g:O++::OO {{{{{ OO+OOOOO+{{{{{{{{{{{{{{{{{{{{",
"{{{{{{{{{{{{{{{{{{{{{{{{{{{{j+O++::OO {{{{{ OOOOOOO++{{{{{{{{{{{{{{{{{{{{",
"{{{{{{{{{{{{{{{{{{{{{{{{{{{{:>#:2:::: {{{{{ OOOOOOO#+{{{{{{{{{{{{{{{{{{{{",
"{{{{{{{{{{{{{{{{{{{{{{{{{{{{:4>::OO:O{{{{{{ OOO+++O#+{{{{{{{{{{{{{{{{{{{{",
"{{{{{{{{{{{{{{{{{{{{{{{{{{{{>41OOOOOO{{{{{{   O#:+O#+{{{{{{{{{{{{{{{{{{{{",
"{{{{{{{{{{{{{{{{{{{{{{{{{{{{181:+OOO{{{{{{{ O O##+O+O{{{{{{{{{{{{{{{{{{{{",
"{{{{{{{{{{{{{{{{{{{{{{{{{{{+<8<#OOOO{{{{{{{{O O%+OO+{{{{{{{{{{{{{{{{{{{{{",
"{{{{{{{{{{{{{{{{{{{{{{{{{{{<$$#+OOOO {{{{{{{  XoOO++{{{{{{{{{{{{{{{{{{{{{",
"{{{{{{{{{{{{{{{{{{{{{{{{{{{<$+OOOOOO {{{{{{{{{{XX{+#{{{{{{{{{{{{{{{{{{{{{",
"{{{{{{{{{{{{{{{{{{{{{{{{{{{++OOOOOOO {{{{{{{{{{XX{++{{{{{{{{{{{{{{{{{{{{{",
"{{{{{{{{{{{{{{{{{{{{{{{{{{{O+OOOOOOO{{{{{{{{{{{XoX%{{{{{{{{{{{{{{{{{{{{{{",
"{{{{{{{{{{{{{{{{{{{{{{{{{{{{+OOOOOOO{{{{{{{{{{{Xo;o{{{{{{{{{{{{{{{{{{{{{{",
"{{{{{{{{{{{{{{{{{{{{{{{{{{{{+OOOOOO {{{{{{{{{{{Xo;o{{{{{{{{{{{{{{{{{{{{{{",
"{{{{{{{{{{{{{{{{{{{{{{{{{{{{OOOOOOO{{{{{{{{{{{{XX;%{{{{{{{{{{{{{{{{{{{{{{",
"{{{{{{{{{{{{{{{{{{{{{{{{{{{{{OOOOO {{{{{{{{{{{{XX-;{{{{{{{{{{{{{{{{{{{{{{",
"{{{{{{{{{{{{{{{{{{{{{{{{{{{{{OOOOO{{{{{{{{{{{{{XX-;{{{{{{{{{{{{{{{{{{{{{{",
"{{{{{{{{{{{{{{{{{{{{{{{{{{{{{ OOO+{{{{{{{{{{{{{XX-;{{{{{{{{{{{{{{{{{{{{{{",
"{{{{{{{{{{{{{{{{{{{{{{{{{{{{{{OOO+{{{{{{{{{{{{{o;p{{{{{{{{{{{{{{{{{{{{{{{",
"{{{{{{{{{{{{{{{{{{{{{{{{{{{{{{+OO${{{{{{{{{{{{{%ui{{{{{{{{{{{{{{{{{{{{{{{",
"{{{{{{{{{{{{{{{{{{{{{{{{{{{{{{OOO1{{{{{{{{{{{{{ouiu{{{{{{{{{{{{{{{{{{{{{{",
"{{{{{{{{{{{{{{{{{{{{{{{{{{{{{{OOO:#{{{{{{{{{{{{Xupi-{{{{{{{{{{{{{{{{{{{{{",
"{{{{{{{{{{{{{{{{{{{{{{{{{{{{{{OOO+:{{{{{{{{{{{{{uui;{{{{{{{{{{{{{{{{{{{{{",
"{{{{{{{{{{{{{{{{{{{{{{{{{{{{{{>OO#+{{{{{{{{{{{{{uupu{{{{{{{{{{{{{{{{{{{{{",
"{{{{{{{{{{{{{{{{{{{{{{{{{{{{{0:OO#8{{{{{{{{{{{{{uupu{{{{{{{{{{{{{{{{{{{{{",
"{{{{{{{{{{{{{{{{{{{{{{{{{{{{w4<+O$8{{{{{{{{{{{{{iipp{{{{{{{{{{{{{{{{{{{{{",
"{{{{{{{{{{{{{{{{{{{{{{{{{{{{FCr8$<8{{{{{{{{{{{{oppii{{{{{{{{{{{{{{{{{{{{{",
"{{{{{{{{{{{{{{{{{{{{{{{{{{{YPCCt88${{{{{{{{{{{{-ppuu{{{{{{{{{{{{{{{{{{{{{",
"{{{{{{{{{{{{{{{{{{{{{{{{{{ZYIZCt88{{{{{{{{{{{{{uaar;{{{{{{{{{{{{{{{{{{{{{",
"{{{{{{{{{{{{{{{{{{{{{{{{{{LIYPCt8${{{{{{{{{{{{{-ii;*{{{{{{{{{{{{{{{{{{{{{",
"{{{{{{{{{{{{{{{{{{{{{{{{{{PUIYUPZ{{{{{{{{{{{{{{.--##+{{{{{{{{{{{{{{{{{{{{",
"{{{{{{{{{{{{{{{{{{{{{{{{{<GPKYYU4{{{{{{{{{{{{{{{O{##1{{{{{{{{{{{{{{{{{{{{",
"{{{{{{{{{{{{{{{{{{{{{{{{{{ZGPLIZ{{{{{{{{{{{{{{{{++44#q{{{{{{{{{{{{{{{{{{{",
"{{{{{{{{{{{{{{{{{{{{{{{{{{{mGPZ+{{{{{{{{{{{{{{{{#0bb4q0{{{{{{{{{{{{{{{{{{",
"{{{{{{{{{{{{{{{{{{{{{{{{{{{{88+{{{{{{{{{{{{{{{{{,0bzVcB{{{{{{{{{{{{{{{{{{",
"{{{{{{{{{{{{{{{{{{{{{{{{{{{{{{{{{{{{{{{{{{{{{{{{bbcAVVK1{{{{{{{{{{{{{{{{{",
"{{{{{{{{{{{{{{{{{{{{{{{{{{{{{{{{{{{{{{{{{{{{{{{{bVBAVVK0{{{{{{{{{{{{{{{{{",
"{{{{{{{{{{{{{{{{{{{{{{{{{{{{{{{{{{{{{{{{{{{{{{{{>bzAAc0{{{{{{{{{{{{{{{{{{",
"{{{{{{{{{{{{{{{{{{{{{{{{{{{{{{{{{{{{{{{{{{{{{{{{{+#$+{{{{{{{{{{{{{{{{{{{{",
"{{{{{{{{{{{{{{{{{{{{{{{{{{{{{{{{{{{{{{{{{{{{{{{{{{{{{{{{{{{{{{{{{{{{{{{{{",
"{{{{{{{{{{{{{{{{{{{{{{{{{{{{{{{{{{{{{{{{{{{{{{{{{{{{{{{{{{{{{{{{{{{{{{{{{",
"{{{{{{{{{{{{{{{{{{{{{{{{{{{{{{{{{{{{{{{{{ ++###+O {{{{{{{{{{{{{{{{{{{{{{{"
};
