/* XPM */
static char *__4[] = {
/* columns rows colors chars-per-pixel */
"73 115 94 2 ",
"   c #131313",
".  c gray9",
"X  c #1B1B1B",
"o  c gray12",
"O  c #23170B",
"+  c #2F1F0F",
"@  c #1E371E",
"#  c #3B2713",
"$  c #3A3319",
"%  c #232323",
"&  c #282828",
"*  c #322D22",
"=  c #3D3626",
"-  c #363228",
";  c #3A3A3A",
":  c #53200A",
">  c #4B2F17",
",  c #4A271B",
"<  c #453C15",
"1  c #57371B",
"2  c #662101",
"3  c #6F2200",
"4  c #633F1F",
"5  c #453F2A",
"6  c #4F3F2B",
"7  c #334B23",
"8  c #355722",
"9  c #5B4326",
"0  c #53472C",
"q  c #734323",
"w  c #7F4B27",
"e  c #704628",
"r  c #7A4B2B",
"t  c #604C33",
"y  c #6D5536",
"u  c #7B5C3C",
"i  c #434343",
"p  c #4E4E4E",
"a  c gray34",
"s  c gray39",
"d  c gray43",
"f  c #777777",
"g  c #930C04",
"h  c #821600",
"j  c #9A1808",
"k  c #A2240C",
"l  c #A9300F",
"z  c #B03C13",
"x  c #B74817",
"c  c #BE541B",
"v  c #8B532B",
"b  c #9B5B2F",
"n  c #814F30",
"m  c #9B4B33",
"M  c #8F5733",
"N  c #975B37",
"B  c #9B5F3B",
"V  c #9F633F",
"C  c #C65F1F",
"Z  c #CD6B23",
"A  c #866741",
"S  c #976E45",
"D  c #A76743",
"F  c #AB6B47",
"G  c #AF6F4B",
"H  c #A0764A",
"J  c #AD7F4E",
"K  c #8F5477",
"L  c #DB832B",
"P  c #E28F2E",
"I  c #EA9B32",
"U  c #F1A736",
"Y  c #B78C58",
"T  c #FFAF53",
"R  c #C49A69",
"E  c #FFB962",
"W  c #FFC370",
"Q  c #FFF667",
"!  c #BC7F9E",
"~  c #848484",
"^  c #939393",
"/  c #A2A2A2",
"(  c #AEAEAE",
")  c #B9B9B9",
"_  c #D5AE80",
"`  c #CC92AA",
"'  c #E5C196",
"]  c #F4CAA7",
"[  c #F5D4AC",
"{  c #FEF5B9",
"}  c #C5C5C5",
"|  c gainsboro",
" . c #FEFFC7",
".. c None",
/* pixels */
"..................................................................................................................................................",
"..................................................................................................................................................",
"..................................................................................................................................................",
"..................................................................................................................................................",
"................................................................................~  . . . .! ......................................................",
".............................................................................._ _ { [ [  . .| ....................................................",
"............................................................................! J ` ' ' ' | ` S J ..................................................",
"............................................................................( )  .] _ ] ] R J A ..................................................",
"............................................................................t / } ~ ^ ^ H ! ( S ..................................................",
"............................................................................t u 5 # t 0 = s u 0 ..................................................",
"............................................................................y y 2 h S 9 : 3 # = ..................................................",
"............................................................................Y / 0 S t u < + 0 = ..................................................",
"............................................................................0 i 0 d u u s u K - ..................................................",
"............................................................................1 $ 0 H 6 6 6 # - ....................................................",
"............................................................................0 9 ~ J y ! < O O ....................................................",
"............................................................................u K S # < p = % ......................................................",
"............................................................................; R H s a ~ K s ......................................................",
"............................................................................< $ 0 5 < 6 a ........................................................",
"........................................................................e r 9 $ O o % o + $ ......................................................",
"..................................................H _ W J ......t u S A 9 < y = O     O $ + $ ....................................................",
"..............................................H Q W W Y S S J J H A A u t y y 0 O   O + < O O A ..................................................",
"............................................H E E E T S A A H J S S A u A A y t $ O + + < # 9 y S H y ............................................",
"............................................U R R R J A y A H H S S S S S S u 9 6 < $ # < u S A A S S J y ........................................",
"..........................................S Y J H S u t 0 S H Y J J S A A A A u 9 < < y H H H S S H H H J Y ..A A ................................",
"..........................................Y S S A y 9 6 < A S H S A u A u u A S S A H S S S S H J H Y J J F J Y Y R A ............................",
"........................................9 J S S A e < + 0 S H A u u A S H J J Y J J J H H S A S H J Y H A y 1 e n N V ............................",
"........................................N Y J J S y $ O 9 u u y u A S Y R T Y J J H J J J J S S A S H H A y 1 4 e y u S ..........................",
"........................................F U T I Y v + O 9 9 9 y u S J Y J H H S H H S S J Y R H S u A A y 9 4 9 e n u A ..........................",
"........................................G T E E R r O O $ 9 9 e S u y u A A A u u A S H H J J H S u y u u t < 9 e r y u ..........................",
"........................................I T T E I > ..  + < 9 9 $ 6 9 9 9 9 9 y e 9 y y y A S S H y 9 t 9 < # > < 9 9 9 $ ........................",
"......................................L T I I I b O ..  O O + # < < 6 $ < 9 t 9 < $ e y u u 9 9 9 9 9 9 9 6 O # # # $ < $ ........................",
"....................................r T T T I F 4 ......O O O O + + # # # + + # + # $ < < < 6 9 9 9 < $ $ + O + + + + # $ ........................",
"....................................I T T I J v + ......    O O O O O O O + > q 4 e 9 # + + O + + + + O O   O + + + + # # ........................",
"..................................r I I I J M 1 ........              + $ > 1 > + + < < $ # O O O O O O   ..O + $ $ < < # ........................",
"..................................L E Q Y r 4 # ........          O # # + + + + O O + O + + #           ....O $ 9 y y t + ........................",
"..................................E W E F # # ............      $ 9 > + # > 1 1 O # < $ $ # # $ O       ....  < 9 A A r ..........................",
"................................B W Q Y I U 4 ............O O   # $ O # 1 q m q O , w r 4 $ + + < O +   ....  + 1 M M r # ........................",
"................................Y Q Q Y E E 4 ..............:   # : O + 1 > : O   O : : 1 # O O O # +   ......O # 4 q q 1 ........................",
"................................Y W W Y Q B ..................  + l : O O O O O O O O O O O O ....# ..........  O $ 1 4 4 ........................",
"................................I Q Q U J # ..................O O : 3 + O O # : O : : + ......................  O + , 1 1 + ......................",
"................................Y Q W T + ............................O ....+ : O : 3 ..........................  O + # # , ......................",
"................................I W W E ............................O ........O O : : ....# : + ................  O O ..O + ......................",
"................................I T E Q Q Q Q H ................O + : : 2 O ... . O . ....2 3 3 ................  O O   ..........................",
"................................I E T y > # # # ............O + : : O : : : : . . . . O O : 3 3 3 : O   ......... O . X ..........................",
"..............................F I L I > ..................  + : : 2 q + O : :   O O O + # 2 2 c l l :   ..........O % % ; ........................",
"..............................F F V J S ..................O + : 1 3 2 : # : : : 2 3 3 3 h 2 3 l l l h O ............o - d ........................",
"..............................N M N V J A ................O : + : 2 2 : : : 2 l q 3 q 3 3 : 3 q q h 3 # ............  ; f ........................",
"..............................v n M M V Y ................O + + , 1 2 : + : : q q q 3 3 3 : 3 3 3 3 1 # ..............- s ........................",
"..............................w r r v M r 1 ..............O + + # : 1 : + # : , 2 2 2 3 3 : h 3 2 # # # ..............X p s ......................",
"..............................O q e r e # O ..............O O O + , 1 , # , : , : : 3 h h 2 2 : # # # # ................; d ......................",
"................................O > q < O ................O O O O # > , + : , : : 2 2 3 2 3 # # # # < 9 ................% a ......................",
"......................................  ..................  O O @ X $ # # u a d u q : : # + # # # > A t ..................i p ....................",
"..........................................................y O O O + + + p i i d a i - + + + # # $ y 6 9 ..................- s ....................",
"..........................................................y 9 O O + + O o o - - X X @ 8 + + + # 0 $ < y $ ................X p ....................",
"..........................................................y A e + + + O             @ 7 + O   # + # y y < ..................; i ..................",
"........................................................$ u 9 u 6     O @ @ .     @ @ @         O y y t 6 ..................& a + ................",
"........................................................6 A e $ t     X @ @ X   X @ @ @ X       9 y y t 9 ..................o # : ................",
"........................................................9 S J y O O   X @ @ @ X X @ @ @       $ t y t t 0 ....................# , # ..............",
"........................................................e H R Y $     X @ @ @ @ X @ @ @ @   O 9 t y t t 9 ....................* > 1 ..............",
"........................................................A J Y Y u 9     @ @ @ @ X @ @ @ X   < 6 t y y y t ....................% 1 n ..............",
"........................................................H J Y J H y 0   @ @ @ @ X @ @ @   O < 6 t y y y t ......................r e ..............",
"........................................................S H J J H A t @ @ @ @ @ X @ @ @   $ < 6 t y y u y ......................B M 4 ............",
"........................................................A H J J J S y $ @ @ @ @ X @ @ @ O $ < 6 9 y y u y $ ....................S M B ............",
"........................................................A S H J J S u 6 X @ @ @ X @ @ @ O $ < < 0 t y u u 0 ....................N N B ............",
"......................................................# A S H J J Y S 9 @ @ @ @ X @ @ @ O $ < < 6 9 y u u y ....................v v N ............",
"......................................................# A S J J R U I b $ @ @ @ X @ @ @ O $ $ < < 0 t y u y ....................e M N ............",
"........................................................u S D Z Z L L C q @ @ @ X @ @ X O # $ < < 6 9 y y y < ................4 r r < ............",
"........................................................n b c C C C C x c 6 @ @ X @ @   + # $ < < < 0 t y y 0 ................4 e ..4 ............",
"........................................................q w l x x C x x x v @ @ X @ @   O $ < < < < 0 9 t t 0 ..............# 4 ....1 ............",
"........................................................q w l l x x x l k B $ @ X @ @   O $ < < < < 9 0 0 9 0 ..............# + ....1 ............",
"........................................................1 q h l l z z k k b 0 @ X @ @   O $ < < < 6 0 0 0 0 9 ......................1 ............",
"........................................................: q h : g q l k k w 9 X X @ @ ..O # < < < 6 0 0 0 0 9 ......................# ............",
"........................................................: 1 h O : 3 3 k k w r X X @ X ..+ + $ < < 9 9 0 9 9 < ....................................",
"........................................................O : h : : 2 h k k 3 q + X @ X ..O + $ < < < 9 9 9 < < ....................................",
"..........................................................h g 3 3 k l j k h h > X @   ..O + # $ > < < < < < > ....................................",
"..........................................................h 2 m m g g O h l l h X @   ..O + # $ $ $ > < < > # ....................................",
"..........................................................: : B Z h : : O h h + X @ ....O O + # # # # $ $ > + ....................................",
"..........................................................: 1 S L C l q : O : , ........  O + # # # + # # $ O ....................................",
"............................................................4 A H B v q 3 2 1 # ........  O O + + O O + # # ......................................",
"............................................................1 e t y e 4 1 > 1 ..........  O O O O O O + # # ......................................",
"............................................................1 1 $ < 9 1 > > $ ..........  O O O O O + # : , ......................................",
"............................................................1 < + $ 9 9 < < + ............O O O O # : : : : O ....................................",
"............................................................9 < # $ 9 9 9 9 O ............O O O O # : : : # O ....................................",
"............................................................t 9 $ $ 9 t y y ................O   O + : : # # ......................................",
"............................................................y 9 < < 9 e y u ................    O % + + + + O ....................................",
"..........................................................9 y 9 < < 9 e y A 9 ..................  % o O + + O ....................................",
"..........................................................y y 9 6 < 9 9 y u t ....................o o ..O + ......................................",
"..........................................................e e 9 9 < 9 9 e y e ....................X o - % ........................................",
"..........................................................9 t t 9 9 9 9 t e 9 ....................  o - ..........................................",
"..........................................................< t t 9 9 t t t t < ......................o % - o ......................................",
"..........................................................+ 9 t 9 9 e e e 9 + ......................% & - o ......................................",
"............................................................9 9 9 9 y y t 9 ........................% & - % ......................................",
"............................................................9 9 9 9 e y t $ ........................o % - - ......................................",
"............................................................$ 9 9 9 e y t ..........................o o & ........................................",
"..............................................................9 9 9 t y 9 ............................o % - & ....................................",
"..............................................................6 9 9 t y 9 ............................% % - - ....................................",
"..............................................................$ 9 9 y y < ............................& % ; - ....................................",
"................................................................t y y y # ............................& & p ; ....................................",
"................................................................y u u u ..............................% - i ..& ..................................",
"................................................................y u u M ..............................o - i p - ..................................",
"................................................................9 y M b ..............................% ; ; i i ..................................",
"................................................................# M C z ..............................- i i i - ..................................",
"..................................................................m h h > ............................i a p i - % ................................",
"..................................................................w 1 h w ............................; i i ; % O ................................",
"..................................................................q M l S ..............................& - & O , ................................",
"..................................................................q N q Y # ............................O % O > # m ..............................",
"..................................................................B Y H Y ................................4 q Z b v C ............................",
"................................................................S W Q W J < ..............................C Z L P T c C ..........................",
"..............................................................R W Q Q W R A ..............................Z L L I P P I ..........................",
"............................................................W E W Q E Y S e ..............................w Z L I I P I > ........................",
"..........................................................Q E T T J v e 9 # ..............................+ 1 r B B b q ..........................",
"........................................................S Y S e $ # + +   ........................................................................",
"..........................................................+ # + ..................................................................................",
"..................................................................................................................................................",
"..................................................................................  + + # # # + O   .............................................."
};
