/* XPM */
static char *__5[] = {
/* columns rows colors chars-per-pixel */
"73 115 93 2 ",
"   c #131313",
".  c gray9",
"X  c #1B1B1B",
"o  c gray12",
"O  c #23170B",
"+  c #2F1F0F",
"@  c #1E371E",
"#  c #3B2713",
"$  c #3A3319",
"%  c #232323",
"&  c #282828",
"*  c #322D22",
"=  c #3D3626",
"-  c #363228",
";  c #3A3A3A",
":  c #53200A",
">  c #4B2F17",
",  c #4A271B",
"<  c #453C15",
"1  c #57371B",
"2  c #662101",
"3  c #6F2200",
"4  c #633F1F",
"5  c #453F2A",
"6  c #4F3F2B",
"7  c #334B23",
"8  c #355722",
"9  c #5B4326",
"0  c #53472C",
"q  c #734323",
"w  c #7F4B27",
"e  c #704628",
"r  c #7A4B2B",
"t  c #604C33",
"y  c #6D5536",
"u  c #7B5C3C",
"i  c #434343",
"p  c #4E4E4E",
"a  c gray34",
"s  c gray39",
"d  c gray43",
"f  c #777777",
"g  c #930C04",
"h  c #821600",
"j  c #9A1808",
"k  c #A2240C",
"l  c #A9300F",
"z  c #B03C13",
"x  c #BE541B",
"c  c #8B532B",
"v  c #9B5B2F",
"b  c #814F30",
"n  c #9B4B33",
"m  c #8F5733",
"M  c #975B37",
"N  c #9B5F3B",
"B  c #9F633F",
"V  c #C65F1F",
"C  c #CD6B23",
"Z  c #866741",
"A  c #976E45",
"S  c #A76743",
"D  c #AB6B47",
"F  c #AF6F4B",
"G  c #A0764A",
"H  c #AD7F4E",
"J  c #8F5477",
"K  c #DB832B",
"L  c #E28F2E",
"P  c #EA9B32",
"I  c #F1A736",
"U  c #B78C58",
"Y  c #FFAF53",
"T  c #C49A69",
"R  c #FFB962",
"E  c #FFC370",
"W  c #FFF667",
"Q  c #848484",
"!  c #939393",
"~  c #A2A2A2",
"^  c #AEAEAE",
"/  c #B9B9B9",
"(  c #D5AE80",
")  c #CC92AA",
"_  c #E5C196",
"`  c #F4CAA7",
"'  c #F5D4AC",
"]  c #FEEBAA",
"[  c #FEF5B9",
"{  c #C5C5C5",
"}  c gainsboro",
"|  c #FEFFC7",
" . c None",
/* pixels */
" . . . . . . . . . . . . . . . . . . . . . . . . . . . . . . . . . . . . . . . . . . . . . . . . . . . . . . . . . . . . . . . . . . . . . . . . .",
" . . . . . . . . . . . . . . . . . . . . . . . . . . . . . . . . . . . . . . . . . . . . . . . . . . . . . . . . . . . . . . . . . . . . . . . . .",
" . . . . . . . . . . . . . . . . . . . . . . . . . . . . . . . . . . . . . . . . .~ } | } Q  . . . . . . . . . . . . . . . . . . . . . . . . . . .",
" . . . . . . . . . . . . . . . . . . . . . . . . . . . . . . . . . . . . . . .u ] [ | | | | }  . . . . . . . . . . . . . . . . . . . . . . . . . .",
" . . . . . . . . . . . . . . . . . . . . . . . . . . . . . . . . . . . . . . .H H _ _ _ ` ' H (  . . . . . . . . . . . . . . . . . . . . . . . . .",
" . . . . . . . . . . . . . . . . . . . . . . . . . . . . . . . . . . . . . .! ) | } _ ( | T U y <  . . . . . . . . . . . . . . . . . . . . . . . .",
" . . . . . . . . . . . . . . . . . . . . . . . . . . . . . . . . . . . . . .J Q { ~ ~ / ~ U ^ G 0  . . . . . . . . . . . . . . . . . . . . . . . .",
" . . . . . . . . . . . . . . . . . . . . . . . . . . . . . . . . . . . . . .y u a 5 ; u < a Q y 5  . . . . . . . . . . . . . . . . . . . . . . . .",
" . . . . . . . . . . . . . . . . . . . . . . . . . . . . . . . . . . . . . .y A # k 0 y + 3 = $ %  . . . . . . . . . . . . . . . . . . . . . . . .",
" . . . . . . . . . . . . . . . . . . . . . . . . . . . . . . . . . . . . . .H ^ 0 9 J u 5 2 # $  . . . . . . . . . . . . . . . . . . . . . . . . .",
" . . . . . . . . . . . . . . . . . . . . . . . . . . . . . . . . . . . . . .t s t s 0 t d a A t  . . . . . . . . . . . . . . . . . . . . . . . . .",
" . . . . . . . . . . . . . . . . . . . . . . . . . . . . . . . . . . . . . .< # < s t 9 5 5 ; -  . . . . . . . . . . . . . . . . . . . . . . . . .",
" . . . . . . . . . . . . . . . . . . . . . . . . . . . . . . . . . . . . . .< 6 u T u u u + +  . . . . . . . . . . . . . . . . . . . . . . . . . .",
" . . . . . . . . . . . . . . . . . . . . . . . . . . . . . . . . . . . . . . .J u < 0 u ; + O  . . . . . . . . . . . . . . . . . . . . . . . . . .",
" . . . . . . . . . . . . . . . . . . . . . . . . . . . . . . . . . . . . . .+ ) U u a s J s  . . . . . . . . . . . . . . . . . . . . . . . . . . .",
" . . . . . . . . . . . . . . . . . . . . . . . . . . . . . . . . . . . . . . .5 9 0 < 0 u a  . . . . . . . . . . . . . . . . . . . . . . . . . . .",
" . . . . . . . . . . . . . . . . . . . . . . . . . . . . . . . . . . . . .m e $ O % - o + #  . . . . . . . . . . . . . . . . . . . . . . . . . . .",
" . . . . . . . . . . . . . . . . . . . . . . . . . .G H  . . . . .9 y Z r < u 6 +     O + # $  . . . . . . . . . . . . . . . . . . . . . . . . . .",
" . . . . . . . . . . . . . . . . . . . . . . . .( E R T H H H U G A Z u t 9 u 9 +     + $ +   t  . . . . . . . . . . . . . . . . . . . . . . . . .",
" . . . . . . . . . . . . . . . . . . . . . . .E T Y T A u y G H G Z A u u Z y y 6 O O + $ + $ y A Z  . . . . . . . . . . . . . . . . . . . . . . .",
" . . . . . . . . . . . . . . . . . . . . . .T U T T H Z y A G G A A Z A A A Z t 9 # $ + < 9 A u u A G A  . . . . . . . . . . . . . . . . . . . . .",
" . . . . . . . . . . . . . . . . . . . . .u H G H H Z y 9 Z G U H G G A A Z Z u 9 < $ 0 u G G A A A G A H G  . . . . . . . . . . . . . . . . . . .",
" . . . . . . . . . . . . . . . . . . . . .H A Z u y 9 9 0 u A G G A u Z u u Z Z Z y A A A A A G G H H H H U U T I Y u  . . . . . . . . . . . . . .",
" . . . . . . . . . . . . . . . . . . . .4 A c y 9 9 < $ 9 Z G A u u Z Z G H A H U H H H G A A A G H U H A u 4 r c A H  . . . . . . . . . . . . . .",
" . . . . . . . . . . . . . . . . . . . .M A c b 9 9 # O 9 u Z y u Z A H U T T U H H H H H H A A Z G G G Z u 9 9 r u Z A  . . . . . . . . . . . . .",
" . . . . . . . . . . . . . . . . . . . .N D A A u 9 O + 9 9 9 e y Z G U U H G G A G G A H H U G Z u A A u 9 9 e r u Z Z  . . . . . . . . . . . . .",
" . . . . . . . . . . . . . . . . . . . .D U K U A 9  .O 1 6 9 9 A Z u u A A A Z u Z A G G H H G A Z u u u y 9 4 e b u c 1  . . . . . . . . . . . .",
" . . . . . . . . . . . . . . . . . . .4 H P P P M <  .  # < 9 9 $ 9 9 9 9 t 9 e y e u u u Z A G G Z e y 9 9 # < 1 9 9 e 9  . . . . . . . . . . . .",
" . . . . . . . . . . . . . . . . . . .H P P P H 4 O  .  O O # $ $ < 6 < < 9 y 9 1 # t y u u y 9 9 9 9 9 9 9 + # $ $ < 1 9  . . . . . . . . . . . .",
" . . . . . . . . . . . . . . . . . .r P P K K r +  . . .O O O O + + $ # # # + # + + < 6 9 9 9 9 9 9 6 < < # O + # # # $ 9  . . . . . . . . . . . .",
" . . . . . . . . . . . . . . . . . .P P P K D >    . . .    O O O O O O + + # 1 4 1 9 # + + + + $ # + O O O O + # # # # <  . . . . . . . . . . . .",
" . . . . . . . . . . . . . . . . .S P P K F r O  . . . .              + $ > 1 1 # # 9 < $ + O O O O O O O  .  + $ < < < <  . . . . . . . . . . . .",
" . . . . . . . . . . . . . . . . .H H K F m >    . . . .            + + # + O + O O + + + + +              .  $ 9 y y y <  . . . . . . . . . . . .",
" . . . . . . . . . . . . . . . .v K Y K c 1 O  . . . . . .      $ 9 < # # # > 1 O + < $ $ # # # O        . .  $ 9 Z Z u >  . . . . . . . . . . . .",
" . . . . . . . . . . . . . . . .Y E E M # +    . . . . . .O O O 1 < + + > 4 c w O # w q 4 $ + # $ O O    . . .+ 1 c M r >  . . . . . . . . . . . .",
" . . . . . . . . . . . . . . .r R R K D r +  . . . . . . . .1   # : O + 1 1 : # O O : 2 1 > O + + + +    . . .O # 4 r q 1  . . . . . . . . . . . .",
" . . . . . . . . . . . . . . .U E R B K P  . . . . . . . . . .  + l 2 O O O O O O O O O O O O  . .< +  . . . .  O $ 1 4 4  . . . . . . . . . . . .",
" . . . . . . . . . . . . . . .R E Y H P H  . . . . . . . . . .O O : 3 + O O + : O : : +  . . . . . . . . . . .  O + , 1 1 +  . . . . . . . . . . .",
" . . . . . . . . . . . . . . .R E U I T 1  . . . . . . . . . . . . . .+ #  .+ : O : 3 :  . . . . . . . . . . . .O O + , , ,  . . . . . . . . . . .",
" . . . . . . . . . . . . . . .R E H R 4  . . . . . . . . . . . . . . . . . . .O O : :  . . .# O  . . . . . . . .  O O O + ,  . . . . . . . . . . .",
" . . . . . . . . . . . . . .b W W U A  . . . . . . . . . . . . . .O : : :  . .. . O .  . .2 3 2  . . . . . . . .  O O    .O  . . . . . . . . . . .",
" . . . . . . . . . . . . . .B W Y U  . . . . . . . . . . . . .+ + + O : : : + . . . .   O : 3 3 2 + O  . . . . .  O O    . . . . . . . . . . . . .",
" . . . . . . . . . . . . . .I W Y b  . . . . . . . . . . .  + : : : 1 + # : : O O O O O O 3 2 x l h #    . . . .  O o % &  . . . . . . . . . . . .",
" . . . . . . . . . . . . . .Y R R  . . . . . . . . . . . .O O : 1 3 2 # : 3 : + : 2 2 2 3 2 3 z l l h O  . . . . . .o ; s  . . . . . . . . . . . .",
" . . . . . . . . . . . . .r K Y R Y U  . . . . . . . . . .O + # : 2 2 : : 3 2 q q q q 3 3 : h q l h h #  . . . . . .X i f  . . . . . . . . . . . .",
" . . . . . . . . . . . . .H P R R R R E E A  . . . . . . .O O + , 1 : : : q q w w w q 3 3 : 3 3 h 3 2 #  . . . . . . .i f  . . . . . . . . . . . .",
" . . . . . . . . . . . . .H P P D > # > 1 9  . . . . . . .O O + # > 1 : # 2 1 1 2 2 : 2 3 : 3 3 : , # #  . . . . . . .- d  . . . . . . . . . . . .",
" . . . . . . . . . . . .1 D D B U  . . . . . . . . . . . .  O O + , 1 : # 1 1 > : : 3 h h 2 2 : , # # #  . . . . . . . .a a  . . . . . . . . . . .",
" . . . . . . . . . . . . .M b M H  . . . . . . . . . . . .  O O O : > , + 1 1 : : : 2 3 3 3 , # # # $ >  . . . . . . . .; d  . . . . . . . . . . .",
" . . . . . . . . . . . . .r r c m D  . . . . . . . . . . .  O + + X $ # + 4 t t 0 1 2 : # # # # # # u y  . . . . . . . .% s  . . . . . . . . . . .",
" . . . . . . . . . . . . .q e r r N B  . . . . . . . . . .< O O # # # $ a i i f d a * + + + # # $ y 9 6  . . . . . . . . .i i  . . . . . . . . . .",
" . . . . . . . . . . . . .> r 4 r c m  . . . . . . . . . .< $ O + # # % * % ; i % o = 8 + + # + 0 9 < t  . . . . . . . . .; a  . . . . . . . . . .",
" . . . . . . . . . . . . . .> 1 e 1 #  . . . . . . . . . .# < < + # # + .           % 7 + O   + $ + t y <  . . . . . . . .& s  . . . . . . . . . .",
" . . . . . . . . . . . . . . .# 1 + O  . . . . . . . . .$ <   9 < O O @ 7 X       @ @ @       + O 0 y t 6  . . . . . . . . .i  . . . . . . . . . .",
" . . . . . . . . . . . . . . . . .   . . . . . . . . . .< 9 O O 9     X @ @ X   X @ @ @ X       $ u y t 9  . . . . . . . . .; t #  . . . . . . . .",
" . . . . . . . . . . . . . . . . . . . . . . . . . . . .9 9 6   O O   X @ @ @ X X @ @ @ X     O t y t t 9  . . . . . . . . .5 + 1  . . . . . . . .",
" . . . . . . . . . . . . . . . . . . . . . . . . . . . .9 Z 9 9       X @ @ @ @ X @ @ @ @     6 t y t t 0  . . . . . . . . .- + 4  . . . . . . . .",
" . . . . . . . . . . . . . . . . . . . . . . . . . . . .y G u y 9       @ @ @ @ X @ @ @ X   $ 6 t y y t 9  . . . . . . . . .% # 4  . . . . . . . .",
" . . . . . . . . . . . . . . . . . . . . . . . . . . . .A G A y y 9     @ @ @ @ X @ @ @   O < 6 t y y y t  . . . . . . . . . .$ r 1  . . . . . . .",
" . . . . . . . . . . . . . . . . . . . . . . . . . . . .A G G y y e 9   @ @ @ @ X @ @ @   $ < 6 t y y y t  . . . . . . . . . .# b 4  . . . . . . .",
" . . . . . . . . . . . . . . . . . . . . . . . . . . . .Z A G Z y e 9 O X @ @ @ X @ @ @ . $ < 6 9 y y u y  . . . . . . . . . . .N M  . . . . . . .",
" . . . . . . . . . . . . . . . . . . . . . . . . . . . .Z A A A y e 9 $ X @ @ @ X @ @ @ O $ = < 0 t y u y <  . . . . . . . . .> M N  . . . . . . .",
" . . . . . . . . . . . . . . . . . . . . . . . . . . .# u A A A Z y 9 < X @ @ @ X @ @ @ O $ < < 6 9 t y y 0  . . . . . . . . .1 m M e  . . . . . .",
" . . . . . . . . . . . . . . . . . . . . . . . . . . .$ u Z A A A y 9 9 X @ @ @ X @ @ @ O $ $ < < 0 t y y y  . . . . . . . . .4 r M c  . . . . . .",
" . . . . . . . . . . . . . . . . . . . . . . . . . . .# u Z A A A u t 9 @ @ @ @ X @ @ @ O $ $ < < 6 9 y y y  . . . . . . . . .e c M 4  . . . . . .",
" . . . . . . . . . . . . . . . . . . . . . . . . . . . .u Z A A A Z e 1 $ @ @ @ X @ @ X O $ < < < < 0 t t t #  . . . . . . .# r r > >  . . . . . .",
" . . . . . . . . . . . . . . . . . . . . . . . . . . .+ u Z A N N N c 4 $ @ @ @ X @ @   + $ < < < < 6 0 9 9 $  . . . . . . .4 r  .$ 1  . . . . . .",
" . . . . . . . . . . . . . . . . . . . . . . . . . . . .r m v n x x x q > @ @ @ X @ @   + $ < < < < 6 0 0 0 $  . . . . . . .e +  .# #  . . . . . .",
" . . . . . . . . . . . . . . . . . . . . . . . . . . . .q w n l l x z z 3 $ @ @ X @ @   + $ < < < < 6 0 0 0 <  . . . . . . .O  . .> +  . . . . . .",
" . . . . . . . . . . . . . . . . . . . . . . . . . . . .1 q q k l l l l l $ @ X X @ @   + $ < < < 6 0 0 6 6 $  . . . . . . . . . .1  . . . . . . .",
" . . . . . . . . . . . . . . . . . . . . . . . . . . . .: q h l k h h k k > @ X X @ @   + # < < < 6 9 9 6 < #  . . . . . . . . . .#  . . . . . . .",
" . . . . . . . . . . . . . . . . . . . . . . . . . . . .: 1 h l g 3 3 h g 1 @ X X @ @   + # $ < < < < 6 < < +  . . . . . . . . . . . . . . . . . .",
" . . . . . . . . . . . . . . . . . . . . . . . . . . . .: 1 h + 2 2 3 h h 1 @ X X @ X   + # $ $ $ < < < < > O  . . . . . . . . . . . . . . . . . .",
" . . . . . . . . . . . . . . . . . . . . . . . . . . . .O : 2 O : : : g g : @ X X @ X   O + # # $ $ $ $ > $  . . . . . . . . . . . . . . . . . . .",
" . . . . . . . . . . . . . . . . . . . . . . . . . . . . .2 h : : : 2 j g : X X X @     O + # # # # # $ $ #  . . . . . . . . . . . . . . . . . . .",
" . . . . . . . . . . . . . . . . . . . . . . . . . . . . .g 2 q : h g h j g O  . . . .  O O + # # + + # # #  . . . . . . . . . . . . . . . . . . .",
" . . . . . . . . . . . . . . . . . . . . . . . . . . . . .2 : v l : : O h j :  . . . . .  O + + O O O + # +  . . . . . . . . . . . . . . . . . . .",
" . . . . . . . . . . . . . . . . . . . . . . . . . . . . .: q A C 3 2 : O O O  . . . . .O O O O O O O + # +  . . . . . . . . . . . . . . . . . . .",
" . . . . . . . . . . . . . . . . . . . . . . . . . . . . .O r A H n w 3 : + +  . . . . .O O O O O O + # # +  . . . . . . . . . . . . . . . . . . .",
" . . . . . . . . . . . . . . . . . . . . . . . . . . . . .O e u y b e 1 : + O  . . . . .O O O O + : : : : +  . . . . . . . . . . . . . . . . . . .",
" . . . . . . . . . . . . . . . . . . . . . . . . . . . . .+ 9 9 $ 9 9 < # O O  . . . . .  O   O + : : : # +  . . . . . . . . . . . . . . . . . . .",
" . . . . . . . . . . . . . . . . . . . . . . . . . . . . . .9 $ # $ < < # +  . . . . . . .O   O + : : # + +  . . . . . . . . . . . . . . . . . . .",
" . . . . . . . . . . . . . . . . . . . . . . . . . . . . .+ 9 $ # $ 9 9 < O  . . . . . . .O   O % + + + + +  . . . . . . . . . . . . . . . . . . .",
" . . . . . . . . . . . . . . . . . . . . . . . . . . . . .< 9 6 $ < 9 9 9 O  . . . . . . . . .  % o O + + +  . . . . . . . . . . . . . . . . . . .",
" . . . . . . . . . . . . . . . . . . . . . . . . . . . . .y e 9 $ < 9 e y +  . . . . . . . . . .o X  .O + O  . . . . . . . . . . . . . . . . . . .",
" . . . . . . . . . . . . . . . . . . . . . . . . . . . . .Z y 9 < 6 9 y u #  . . . . . . . . . .X X  .. O  . . . . . . . . . . . . . . . . . . . .",
" . . . . . . . . . . . . . . . . . . . . . . . . . . . .$ u y 9 < 6 9 e y <  . . . . . . . . . .. o -  . . . . . . . . . . . . . . . . . . . . . .",
" . . . . . . . . . . . . . . . . . . . . . . . . . . . .< y e 9 < 9 9 t y 9  . . . . . . . . . .  o &  . . . . . . . . . . . . . . . . . . . . . .",
" . . . . . . . . . . . . . . . . . . . . . . . . . . . .$ y y t 9 9 9 9 e 9  . . . . . . . . . . .o & - o  . . . . . . . . . . . . . . . . . . . .",
" . . . . . . . . . . . . . . . . . . . . . . . . . . . .+ e y e 9 9 9 9 9 6  . . . . . . . . . . .o % - o  . . . . . . . . . . . . . . . . . . . .",
" . . . . . . . . . . . . . . . . . . . . . . . . . . . . .t e e 9 t t t 9 #  . . . . . . . . . . .% % - -  . . . . . . . . . . . . . . . . . . . .",
" . . . . . . . . . . . . . . . . . . . . . . . . . . . . .9 e t 9 e e t 9  . . . . . . . . . . . .& % ; ;  . . . . . . . . . . . . . . . . . . . .",
" . . . . . . . . . . . . . . . . . . . . . . . . . . . . .9 t 9 9 e y 9 <  . . . . . . . . . . . .& o - -  . . . . . . . . . . . . . . . . . . . .",
" . . . . . . . . . . . . . . . . . . . . . . . . . . . . .$ 9 9 9 t y 9 O  . . . . . . . . . . . .% o - ;  . . . . . . . . . . . . . . . . . . . .",
" . . . . . . . . . . . . . . . . . . . . . . . . . . . . .O 9 9 9 t y 9  . . . . . . . . . . . . .% o p  . . . . . . . . . . . . . . . . . . . . .",
" . . . . . . . . . . . . . . . . . . . . . . . . . . . . . .9 9 9 t e <  . . . . . . . . . . . . .o - i i -  . . . . . . . . . . . . . . . . . . .",
" . . . . . . . . . . . . . . . . . . . . . . . . . . . . . .6 t t y e +  . . . . . . . . . . . . . .; i i ;  . . . . . . . . . . . . . . . . . . .",
" . . . . . . . . . . . . . . . . . . . . . . . . . . . . . .$ y y y y  . . . . . . . . . . . . . . .i i p ;  . . . . . . . . . . . . . . . . . . .",
" . . . . . . . . . . . . . . . . . . . . . . . . . . . . . . .u u u y  . . . . . . . . . . . . . . .p i a ;  . . . . . . . . . . . . . . . . . . .",
" . . . . . . . . . . . . . . . . . . . . . . . . . . . . . . .u u Z y  . . . . . . . . . . . . . . .p i a ;  . . . . . . . . . . . . . . . . . . .",
" . . . . . . . . . . . . . . . . . . . . . . . . . . . . . . .y u v r  . . . . . . . . . . . . . . .s p p i -  . . . . . . . . . . . . . . . . . .",
" . . . . . . . . . . . . . . . . . . . . . . . . . . . . . . .e S x n  . . . . . . . . . . . . . . .d a p ; i  . . . . . . . . . . . . . . . . . .",
" . . . . . . . . . . . . . . . . . . . . . . . . . . . . . . .9 z l 3  . . . . . . . . . . . . . .; d a t - -  . . . . . . . . . . . . . . . . . .",
" . . . . . . . . . . . . . . . . . . . . . . . . . . . . . . .4 3 l 1  . . . . . . . . . . . . . . .; i ; % #  . . . . . . . . . . . . . . . . . .",
" . . . . . . . . . . . . . . . . . . . . . . . . . . . . . . .q r z m 1  . . . . . . . . . . . . . .O * % # #  . . . . . . . . . . . . . . . . . .",
" . . . . . . . . . . . . . . . . . . . . . . . . . . . . . . .w u w G y  . . . . . . . . . . . . . . . .O q # w  . . . . . . . . . . . . . . . . .",
" . . . . . . . . . . . . . . . . . . . . . . . . . . . . . . .v R U T 9  . . . . . . . . . . . . . . .w n C v 4 V  . . . . . . . . . . . . . . . .",
" . . . . . . . . . . . . . . . . . . . . . . . . . . . . . .A E W E U 9  . . . . . . . . . . . . . . .x C K L P v V  . . . . . . . . . . . . . . .",
" . . . . . . . . . . . . . . . . . . . . . . . . . . . . .T E W W E U A  . . . . . . . . . . . . . . .V K K L L L P  . . . . . . . . . . . . . . .",
" . . . . . . . . . . . . . . . . . . . . . . . . . . .U W R E E I H A y  . . . . . . . . . . . . . . .n V K P L L Y 1  . . . . . . . . . . . . . .",
" . . . . . . . . . . . . . . . . . . . . . . . . . .y E Y T H M e 1 < $  . . . . . . . . . . . . . . .# 4 n F F S r  . . . . . . . . . . . . . . .",
" . . . . . . . . . . . . . . . . . . . . . . . . . .# 9 < + O O O O    . . . . . . . . . . . . . . . . .O O O O  . . . . . . . . . . . . . . . . .",
" . . . . . . . . . . . . . . . . . . . . . . . . . . . . .+ # +  . . . . . . . . . . . . . . . . . . . . . . . . . . . . . . . . . . . . . . . . .",
" . . . . . . . . . . . . . . . . . . . . . . . . . . . . . . . . . . . . . . . . . . . . . . . . . . . . . . . . . . . . . . . . . . . . . . . . .",
" . . . . . . . . . . . . . . . . . . . . . . . . . . . . . . . . . . . . . . . . .  + + # # # + O    . . . . . . . . . . . . . . . . . . . . . . ."
};
