/* XPM */
static char *__6[] = {
/* columns rows colors chars-per-pixel */
"73 115 92 1 ",
"  c #131313",
". c gray9",
"X c #1B1B1B",
"o c gray12",
"O c #23170B",
"+ c #2F1F0F",
"@ c #1E371E",
"# c #3B2713",
"$ c #3A3319",
"% c #232323",
"& c #282828",
"* c #322D22",
"= c #3D3626",
"- c #363228",
"; c #3A3A3A",
": c #53200A",
"> c #4B2F17",
", c #4A271B",
"< c #453C15",
"1 c #57371B",
"2 c #662101",
"3 c #6F2200",
"4 c #633F1F",
"5 c #453F2A",
"6 c #4F3F2B",
"7 c #334B23",
"8 c #355722",
"9 c #5B4326",
"0 c #53472C",
"q c #734323",
"w c #7F4B27",
"e c #704628",
"r c #7A4B2B",
"t c #604C33",
"y c #6D5536",
"u c #7B5C3C",
"i c #434343",
"p c #4E4E4E",
"a c gray34",
"s c gray39",
"d c gray43",
"f c #777777",
"g c #930C04",
"h c #821600",
"j c #9A1808",
"k c #A2240C",
"l c #A9300F",
"z c #B03C13",
"x c #BE541B",
"c c #8B532B",
"v c #9B5B2F",
"b c #814F30",
"n c #9B4B33",
"m c #8F5733",
"M c #975B37",
"N c #9B5F3B",
"B c #9F633F",
"V c #C65F1F",
"C c #CD6B23",
"Z c #866741",
"A c #976E45",
"S c #A76743",
"D c #AB6B47",
"F c #AF6F4B",
"G c #A0764A",
"H c #AD7F4E",
"J c #8F5477",
"K c #DB832B",
"L c #EA9B32",
"P c #F1A736",
"I c #B78C58",
"U c #FFAF53",
"Y c #C49A69",
"T c #FFB962",
"R c #FFC370",
"E c #FFF667",
"W c #BC7F9E",
"Q c #848484",
"! c #939393",
"~ c #A2A2A2",
"^ c #AEAEAE",
"/ c #B9B9B9",
"( c #D5AE80",
") c #CC92AA",
"_ c #E5C196",
"` c #F4CAA7",
"' c #F5D4AC",
"] c #FEF5B9",
"[ c #C5C5C5",
"{ c gainsboro",
"} c #FEFFC7",
"| c None",
/* pixels */
"|||||||||||||||||||||||||||||||||||||||||![/~||||||||||||||||||||||||||||",
"|||||||||||||||||||||||||||||||||||||||G}}}]}}!||||||||||||||||||||||||||",
"||||||||||||||||||||||||||||||||||||||sIW`_R'`(Q|||||||||||||||||||||||||",
"||||||||||||||||||||||||||||||||||||||^){_R_{(AZ|||||||||||||||||||||||||",
"||||||||||||||||||||||||||||||||||||||Q/{///YIYZ|||||||||||||||||||||||||",
"||||||||||||||||||||||||||||||||||||||9Qd5su0fQZ|||||||||||||||||||||||||",
"||||||||||||||||||||||||||||||||||||||tt:290#1=#|||||||||||||||||||||||||",
"||||||||||||||||||||||||||||||||||||||GQ#rGc:2%=|||||||||||||||||||||||||",
"||||||||||||||||||||||||||||||||||||||Adyd=tstA*|||||||||||||||||||||||||",
"||||||||||||||||||||||||||||||||||||||<#6suyt;p||||||||||||||||||||||||||",
"||||||||||||||||||||||||||||||||||||||0=sI<s<+%||||||||||||||||||||||||||",
"||||||||||||||||||||||||||||||||||||||ytt9yJ5+.||||||||||||||||||||||||||",
"||||||||||||||||||||||||||||||||||||||u(Iaid0p|||||||||||||||||||||||||||",
"||||||||||||||||||||||||||||||||||||||*yy0ttJi|||||||||||||||||||||||||||",
"|||||||||||||||||||||||||||||||||||||49#%&*&%||||||||||||||||||||||||||||",
"|||||||||||||||||||||||||||||||||||bb<y<OOOO#$|||||||||||||||||||||||||||",
"|||||||||||||||||||||||||(E(G|ZHHGAy09y<O O+$O+9|||||||||||||||||||||||||",
"|||||||||||||||||||||||(YYIAAHIGGZZuuZyt# O+<O#uG9|||||||||||||||||||||||",
"||||||||||||||||||||||IIIHZytAHGZAZAAZy9<+#+<9ZuuAHu|||||||||||||||||||||",
"|||||||||||||||||||||9HGHGutyAAIHGAAAZut<$$<uGAAAAAGHZ|||||||||||||||||||",
"|||||||||||||||||||||GAZZue0yZAHGGZZuyZZy9uAGAGGGHHGHIIIIP|||||||||||||||",
"||||||||||||||||||||9Aue9996uZHGuuZAGHAHHHHGAZAGHHIHAbebMAH||||||||||||||",
"||||||||||||||||||||Zu99<$$#uZZuuAGHIYIIHGHGHGAZAAGGZu9rbZAB|||||||||||||",
"||||||||||||||||||||cr99<#O69etyyZGIIIHGGAAGHHHAZZAZu9erbMAA|||||||||||||",
"|||||||||||||||||||<Mcb91+O$9<6yAZAAAAAAZAGGGHIHAuuZu914ruZZ9||||||||||||",
"|||||||||||||||||||eBBBM4+|++9999e99eyeyuuuZZAGGGZyy99#<99ey9||||||||||||",
"|||||||||||||||||||MDHKB4O|O++$<$<1<9ey9<$eeuuy990t096O#$$<99||||||||||||",
"|||||||||||||||||||FFKKc>|||OOOO#$$$#$$>##<990909969<#O+#$$<9||||||||||||",
"||||||||||||||||||FHDDN1O||| OOOOOO++O+11<1++#$$<$#OOOO+$$<<9||||||||||||",
"|||||||||||||||||mFFSN1O||||       O#>14>9t<++OOOOOOO| #<0909||||||||||||",
"|||||||||||||||||FHFNr# ||||      O##+OOOOO++#+    O | <tZZu9||||||||||||",
"||||||||||||||||mSSSm>O|||||   O+<<#+##<O#$##+#+    |||$9AAc1||||||||||||",
"||||||||||||||||SSSm1+ ||||||OO+91++>4cqO#q11#+#$OO |||O<cmb1||||||||||||",
"|||||||||||||||bLKc1#O|||||||#>O>,O#444:OOqqq>O+#+O |||O#1qqq||||||||||||",
"|||||||||||||||UTN1+O|||||||||| :h:O++OOOOOOOOO||<O|||| O#14q||||||||||||",
"||||||||||||||rLH44e+|||||||||| #23OOOO:O::OO|||||||||| O+,11,|||||||||||",
"||||||||||||||KPm1rb||||||||||||||:::O::O:3:||||||||||||OO#,,1|||||||||||",
"||||||||||||||TTeee1|||||||||||||||||||+O:2||||||||||||| OOO#>|||||||||||",
"|||||||||||||9TUrb4O|||||||||||||O::#||.OOO||23:|||||||| OO |+|||||||||||",
"|||||||||||||DTKDNO||||||||||||O+++:::+.... O:33:||||||| O. |||||||||||||",
"|||||||||||||UTBK>||||||||||| +:::>:::: OOOOO23nq3+ |||||oo&;||||||||||||",
"|||||||||||||TTBb||||||||||||OO:223112:O::::223zll2O||||||oaf||||||||||||",
"||||||||||||cEID|||||||||||||O+#:23hhh2q33q3h:hllqhO||||||XaQ||||||||||||",
"||||||||||||YED4|||||||||||||OO+,12q33qlwwq33:3hh32#|||||||if||||||||||||",
"||||||||||||TED||||||||||||||OO+,13q122112:33:h2:,$#|||||||-di|||||||||||",
"|||||||||||4PTu||||||||||||||OO+,1qwq11,:13hh232>###||||||||ad|||||||||||",
"|||||||||||HHKT||||||||||||||++O#1qq1q1:::23h2:####+||||||||;Q|||||||||||",
"||||||||||eDHIHI|||||||||||||+#+$<11>1151122#,####y9||||||||os|||||||||||",
"||||||||||NHHIPULI|||||||||||+###$$$asafdd#+++##$tt6|||||||||ia||||||||||",
"||||||||||MDHHmcNIPu|||||||||+$####*-%is%%=7++##09<9|||||||||;d||||||||||",
"||||||||||vNmb1||||||||||||||O6<###+XX  X %8++O+<+0y<||||||||%s||||||||||",
"||||||||||r94cr||||||||||||| OOy$++$@    @@7   #O<yt<|||||||||i||||||||||",
"||||||||||><4rc|||||||||||||O# $9  X@@X X@@@    $uyt<|||||||||-a+||||||||",
"||||||||||O111em||||||||||||O$$ $O @@@@XX@@@X  Otytt6|||||||||o+2||||||||",
"|||||||||||,><4c||||||||||||+$9+   @@@@@X@@@X  6tytt9|||||||||.+1||||||||",
"||||||||||||O>111|||||||||||<$9tO  @@@@@X@@@X $9tytt0||||||||||#q>|||||||",
"|||||||||||||##OO|||||||||||9<9e9O @@@@@X@@@ O<6tyyt9||||||||||#r9|||||||",
"|||||||||||||| |||||||||||||t<9tt9 X@@@@X@@@ $<6tyyyt||||||||||+r4|||||||",
"||||||||||||||||||||||||||||e69t99< @@@@X@@@ $<69yyyt|||||||||||DM|||||||",
"||||||||||||||||||||||||||||e699999O@@@@X@@@O$6<0tyyy||||||||||$NN4||||||",
"|||||||||||||||||||||||||||<e<99999+@@@@X@@@+=0<69tyy$|||||||||<NNm||||||",
"|||||||||||||||||||||||||||<y699999+@@@@X@@@O06<<0tyy0|||||||||4mNN||||||",
"|||||||||||||||||||||||||||$y999999$@@@@X@@@+<<=<69yyt|||||||||rmNM||||||",
"|||||||||||||||||||||||||||<y999999$X@@@X@@X#$<<<<0ttt|||||||||rm49||||||",
"|||||||||||||||||||||||||||<ey99999<@@@@X@@ #$<<$<6099||||||||ec|#e||||||",
"|||||||||||||||||||||||||||<yy99999<@@@@X@@O#$<<$<<600||||||||r>|O4||||||",
"|||||||||||||||||||||||||||$yuu99994$@@XX@@ #$<7$<<666||||||||+||+1||||||",
"|||||||||||||||||||||||||||#erre9414#@@XX@@O$$<<<<66<<|||||||||||+1||||||",
"|||||||||||||||||||||||||||+4qqq11:2#@@XX@@O<$<<<<66<<|||||||||||+#||||||",
"||||||||||||||||||||||||||||1q331:::+@@XX@@O$$$$<<<<<$|||||||||||O|||||||",
"||||||||||||||||||||||||||||:13g::::+@@@X@@O+#$$$$<<$#|||||||||||||||||||",
"||||||||||||||||||||||||||||>1kk::::+@@XX@XO+#####$$#+|||||||||||||||||||",
"||||||||||||||||||||||||||||:>jg:::++@@XX@|OO+#######O|||||||||||||||||||",
"||||||||||||||||||||||||||||O:2+:::+OO |||| O+++++++#||||||||||||||||||||",
"||||||||||||||||||||||||||||O::O++::OO |||| OO+OOOO++||||||||||||||||||||",
"|||||||||||||||||||||||||||||j+O++::+  |||| OOOOOOO++||||||||||||||||||||",
"|||||||||||||||||||||||||||||:31:2:+: O|||| OOOOOO+#+||||||||||||||||||||",
"|||||||||||||||||||||||||||||:cc:+OO+O |||| OOO+#::#+||||||||||||||||||||",
"|||||||||||||||||||||||||||||1ZM1:+OOO |||| O O+::::+||||||||||||||||||||",
"|||||||||||||||||||||||||||||1yy1#+OOO||||||O OO:::#+||||||||||||||||||||",
"|||||||||||||||||||||||||||||19$#+OOOO||||||O .%+#+++||||||||||||||||||||",
"|||||||||||||||||||||||||||||9$+OOOOO||||||||| ooO+++||||||||||||||||||||",
"|||||||||||||||||||||||||||||9#OOOOOO||||||||||XX|O++||||||||||||||||||||",
"||||||||||||||||||||||||||||99$+++++O||||||||||XX|.+|||||||||||||||||||||",
"||||||||||||||||||||||||||||Ze<++++#+||||||||||XXoX||||||||||||||||||||||",
"||||||||||||||||||||||||||||ut<#++##+||||||||||XX-%||||||||||||||||||||||",
"|||||||||||||||||||||||||||$y9<##+##+||||||||||.X-|||||||||||||||||||||||",
"|||||||||||||||||||||||||||$t99$####+|||||||||| X&|||||||||||||||||||||||",
"|||||||||||||||||||||||||||+999$$##+O|||||||||| X%-||||||||||||||||||||||",
"||||||||||||||||||||||||||||999<$##+ |||||||||||X%;-|||||||||||||||||||||",
"||||||||||||||||||||||||||||999<$##+||||||||||||X%;;|||||||||||||||||||||",
"||||||||||||||||||||||||||||909<$#+O||||||||||||-ia;|||||||||||||||||||||",
"||||||||||||||||||||||||||||696<$#+|||||||||||||ipai|||||||||||||||||||||",
"||||||||||||||||||||||||||||#96<$#O|||||||||||||;pa;|||||||||||||||||||||",
"||||||||||||||||||||||||||||O96<$+||||||||||||||iisi|||||||||||||||||||||",
"|||||||||||||||||||||||||||||99<$+||||||||||||||iiai|||||||||||||||||||||",
"|||||||||||||||||||||||||||||996$O||||||||||||||aiai|||||||||||||||||||||",
"|||||||||||||||||||||||||||||9y6$ ||||||||||||||appi|||||||||||||||||||||",
"|||||||||||||||||||||||||||||9y6#|||||||||||||||sapp|||||||||||||||||||||",
"|||||||||||||||||||||||||||||<y1#|||||||||||||||fapp;||||||||||||||||||||",
"|||||||||||||||||||||||||||||#e4,|||||||||||||||fsa;p||||||||||||||||||||",
"||||||||||||||||||||||||||||||w::|||||||||||||||ass5i||||||||||||||||||||",
"||||||||||||||||||||||||||||||q,++||||||||||||||ipp*%||||||||||||||||||||",
"|||||||||||||||||||||||||||||<q1,#||||||||||||||%-&#:||||||||||||||||||||",
"|||||||||||||||||||||||||||||q941$||||||||||||||||O>+1|||||||||||||||||||",
"|||||||||||||||||||||||||||||SYAZ+|||||||||||||||+#q:q|||||||||||||||||||",
"||||||||||||||||||||||||||||YTRRI$|||||||||||||||1wnw1V||||||||||||||||||",
"||||||||||||||||||||||||||ZEEERTHu||||||||||||||O4wnxKnn|||||||||||||||||",
"|||||||||||||||||||||||||(EEEERYAe||||||||||||||OqnxCCLL|||||||||||||||||",
"||||||||||||||||||||||||ARERRTHb1+|||||||||||||||wxxCCCL|||||||||||||||||",
"||||||||||||||||||||||||1BHHA9>+|||||||||||||||||qxxSSc1|||||||||||||||||",
"||||||||||||||||||||||||||||||||||||||||||||||||||#>#O|||||||||||||||||||",
"|||||||||||||||||||||||||||||+#+|||||||||||||||||||||||||||||||||||||||||",
"|||||||||||||||||||||||||||||||||||||||||||||||||||||||||||||||||||||||||",
"||||||||||||||||||||||||||||||||||||||||| ++###+O |||||||||||||||||||||||"
};
