/* XPM */
static char *_0_0[] = {
/* columns rows colors chars-per-pixel */
"88 47 118 2 ",
"   c #131313",
".  c gray9",
"X  c #1B1B1B",
"o  c gray12",
"O  c #23170B",
"+  c #2F1F0F",
"@  c #1E371E",
"#  c #3B2713",
"$  c #3A3319",
"%  c #232323",
"&  c gray15",
"*  c #282828",
"=  c #282F28",
"-  c #2C2C2D",
";  c #322D22",
":  c #392B27",
">  c #223322",
",  c #273C27",
"<  c #263328",
"1  c #3D3626",
"2  c #363228",
"3  c #2D3030",
"4  c #2C3031",
"5  c #303032",
"6  c gray20",
"7  c #3A3A3A",
"8  c #5C2103",
"9  c #53200A",
"0  c #4B2F17",
"q  c #4A271B",
"w  c #453C15",
"e  c #57371B",
"r  c #662101",
"t  c #6F2200",
"y  c #633F1F",
"u  c #412921",
"i  c #423629",
"p  c #453F2A",
"a  c #4F3F2B",
"s  c #2D4025",
"d  c #2E4425",
"f  c #334B23",
"g  c #344D2D",
"h  c #355722",
"j  c #3D5935",
"k  c #5B4326",
"l  c #53472C",
"z  c #674027",
"x  c #734323",
"c  c #7F4B27",
"v  c #704628",
"b  c #7A4B2B",
"n  c #604C33",
"m  c #6D5536",
"M  c #7B5C3C",
"N  c #416225",
"B  c #5C7F36",
"V  c #3D3D43",
"C  c #323E49",
"Z  c #563A4D",
"A  c #344557",
"S  c #434343",
"D  c #4E4E4E",
"F  c #444450",
"G  c #4B4B55",
"H  c gray34",
"J  c #446343",
"K  c #555560",
"L  c #5E5E6D",
"P  c #7F4D6A",
"I  c gray39",
"U  c gray43",
"Y  c #676774",
"T  c #777777",
"R  c #930C04",
"E  c #821600",
"W  c #9A1808",
"Q  c #A2240C",
"!  c #B03C13",
"~  c #93472F",
"^  c #8B532B",
"/  c #9B5B2F",
"(  c #814F30",
")  c #8F5733",
"_  c #8C5637",
"`  c #975B37",
"'  c #9B5F3B",
"]  c #9F633F",
"[  c #866741",
"{  c #976E45",
"}  c #A56446",
"|  c #AB6B47",
" . c #AF6F4B",
".. c #A0764A",
"X. c #AD7F4E",
"o. c #8F5477",
"O. c #DB832B",
"+. c #B78C58",
"@. c #9FB765",
"#. c #C18564",
"$. c #C49A69",
"%. c #CF9876",
"&. c #9B6282",
"*. c #AF6F90",
"=. c #848484",
"-. c #939393",
";. c #A2A2A2",
":. c #A5A5AE",
">. c #AEAEAE",
",. c #B9B9B9",
"<. c #D5AE80",
"1. c #FFD78D",
"2. c #E5C196",
"3. c #F4CAA7",
"4. c #FEEBAA",
"5. c #C5C5C5",
"6. c #FEFFC7",
"7. c None",
/* pixels */
"7.7.7.7.7.7.7.7.7.7.7.7.7.7.7.7.7.7.7.7.7.C <.<.<.<.[ 7.7.7.7.7.7.7.7.7.7.7.7.7.7.7.7.7.7.7.7.7.7.7.7.7.7.7.7.7.7.7.7.7.7.7.7.7.7.7.7.7.7.7.7.7.7.7.7.7.7.7.7.7.7.7.7.7.7.7.7.7.",
"7.7.7.7.7.7.7.7.7.7.7.7.7.7.7.7.7.7.7.7.C <.$.+.X.{ [ x t 7.7.7.7.7.7.7.7.7.7.7.7.7.7.7.7.7.7.7.7.7.7.7.7.7.7.7.7.7.7.7.7.7.7.7.7.7.7.7.7.7.7.7.7.7.7.7.7.7.7.7.7.7.7.7.7.7.7.7.",
"7.7.7.7.7.7.7.7.7.7.7.7.7.7.7.7.7.7.7.C <.$.+.+...M m x 9 q 7.7.7.7.7.7.7.7.7.7.7.7.7.7.7.7.7.7.7.7.7.7.7.7.7.7.7.7.7.7.7.7.7.7.7.7.7.7.7.7.7.7.7.7.7.7.7.7.7.7.7.7.7.7.7.7.7.7.",
"7.7.7.7.7.7.7.7.7.7.7.7.7.7.7.7.7.7.7.C $.$.X.{ n p i e 9 t u 7.7.7.7.7.7.7.7.7.7.7.7.7.7.7.7.7.7.7.7.7.7.7.7.7.7.7.7.7.7.7.7.7.7.7.7.7.7.7.7.7.7.7.7.7.7.7.7.7.7.7.7.7.7.7.7.7.",
"7.7.7.7.7.7.7.7.7.7.7.7.7.7.7.7.7.7.7.C $...[ M i & 2 : 9 R R 9 7.7.7.7.7.7.7.7.7.7.7.7.7.7.7.7.7.7.5.6.6.X.o.7.7.7.7.7.7.7.7.7.7.7.7.7.7.7.7.7.7.7.7.7.7.7.7.7.7.7.7.7.7.7.7.7.",
"7.7.7.7.7.7.7.7.7.7.7.7.7.7.7.7.7.7.7.7.[ m M n & X & & 9 9 R t 7.7.7.7.7.7.7.7.7.7.7.7.7.7.7.7.,.&.P 7 &.o.z z Z 7.7.7.7.7.7.7.7.7.7.7.7.7.7.7.7.7.7.7.7.7.7.7.7.7.7.7.7.7.7.7.",
"7.7.7.7.7.7.7.7.7.7.7.7.7.7.7.7.7.7.7.7.7.$.[ a o X o : ; 9 R 9 x 7.7.7.7.7.7.7.7.7.7.7.7.7.5.| ( 3.n 6 Z Z I S Z 7.7.7.7.7.7.7.7.7.7.7.7.7.7.7.7.7.7.7.7.7.7.7.7.7.7.7.7.7.7.7.",
"7.7.7.7.7.7.7.7.7.7.7.7.7.7.7.7.7.7.7.7.K <.) n o . o 1 1 9 9 R y m 7.7.7.7.7.7.7.7.7.7.7.7.#.%./ 4.6.Z 6 T 3.T S n 7.7.7.7.7.7.7.7.7.7.7.7.7.7.7.7.7.7.7.7.7.7.7.7.7.7.7.7.7.7.",
"7.7.7.7.7.7.7.7.7.7.7.7.7.7.7.7.7.7.7.7.L +.) a ; o & ; n ; 9 e y m m 7.7.7.7.7.7.7.7.7.7.7.#.] x y =.&.-.=.>.I 3 I 7.7.7.7.7.7.7.7.7.7.7.7.7.7.7.7.7.7.7.7.7.7.7.7.7.7.7.7.7.7.",
"7.7.7.7.7.7.7.7.7.7.7.7.7.7.7.7.7.7.7.7.+.] v 0 # o X ; a o ; e e n n m 7.7.7.[ $.$.$.$.$.$.' ( m e >.H I 6 H S 7 I 7.7.7.7.7.7.7.7.7.7.7.7.7.7.7.7.7.7.7.7.7.7.7.7.7.7.7.7.7.7.",
"7.7.7.7.7.7.7.7.7.7.7.7.7.7.7.7.7.7.7.7.1.c x 0 # & & & a a o ; i l n m [ $.X.[ { ......X.$.$.$.' k T 6 S S H [ [ n [ [ [ [ [ $.7.7.7.7.7.7.7.7.7.7.7.7.7.7.7.7.7.7.7.7.7.7.7.7.",
"7.7.7.7.7.7.7.7.7.7.7.7.7.7.7.7.7.7.7.K 6.' v # # ; & + i n & o : i p n [ [ X.[ m m m m m m m $.$.$.$.b 3 [ b e z m M 1.<.<.<.$.$.$.[ [ 7.7.7.7.7.7.7.7.7.7.7.7.7.7.7.7.7.7.7.7.",
"7.7.7.7.7.7.7.7.7.7.7.7.7.7.7.7.7.7.7.:.+.) v # + O O O e m O X o : p l n [ [ a n m a O + m m # # # # 0 0 0 0 e ( <.$.<.+.<.<.X.^ x y b 7.7.7.7.7.7.7.7.7.7.7.7.7.7.7.7.7.7.7.7.",
"7.7.7.7.7.7.7.7.7.7.7.7.7.7.7.7.7.7.7.+. .) v -.+ + 9 O 0 m + o o 2 1 p l [ [ [ { { $.M v v y r r r a 0 + # k M ,.*.*.#.<./ <.X.;.;.y b 7.7.7.7.7.7.7.7.7.7.7.7.7.7.7.7.7.7.7.7.",
"7.7.7.7.7.7.7.7.7.7.7.7.7.7.7.7.7.7.7.$. .{ z -.H o 8 + i m + O & o & 1 p n M [ $.$.] ) ^ 0 t t t M r e + k ..,.T o.o...[ [ $.r r r 9 x [ [ 7.7.7.7.7.7.7.7.7.7.7.7.7.7.7.7.7.7.",
"7.7.7.7.7.7.7.7.7.7.7.7.7.7.7.7.7.7.7.$. .{ k -.H % 9 0 l M $ O O X o * 2 p n [ [ $.~ ~ W W W 8 E E R R y =.U U =.o.P 0 #.<.E 9 r R 9 r ;.;.[ [ 7.7.7.7.7.7.7.7.7.7.7.7.7.7.7.7.",
"7.7.7.7.7.7.7.7.7.7.7.E r r r r r r E +.$.{ k -.H n + s l m $ + + X X % * 2 a [ [ e 9 E Q W 8 8 E t 8 x T =.U o.&.P m 0 c %.W ! >.>.r r =.U ;.;.;.;.;.7.7.7.7.7.7.7.7.7.7.7.7.7.",
"7.7.7.7.7.7.7.7.7.E r r r r r r r r E ) +...t -.n n O + p n # + O O . o & * i n [ @ [ [ [ 9 8 8 R W 8 a =.U o.P M m m a # ;.>.Q E 9 # 5 U U H I =.;.[ ;.;.;.T P $.<.+.7.7.7.7.7.",
"7.7.7.7.7.7.7.7.7.r r r r E $.$.$.| | { <.t t -.G p O + p k + + O O . o o & ; 1 g J N B B l @ d f B 9 -.U &.P M m l k 0 # ;.;.=.S H 9 9 r 7.7.7.H S 7 6 S D D $.<.<.-.-.;.7.7.7.",
"7.7.7.7.7.7.r r r r r r U U ) ` ^ c b $.<.t t -.Y   . + 0 z + O O O X o o & ; o j g g j B B B s s B 9 +.o.M n n n k k 0 $ ;.-.D 6 9 9 9 7.7.7.7.7.7.7.7.7.7.7.c x / $.b z q e 7.",
"7.7.7.7.7.r r r r E U U ` ^ y t t x ^ m <.t t -.Y O o + 0 0 O O O O X o X o > > % > N N B B N > s B 2 m { m n n n k e 0 # ( -.S % O 9 7.7.7.7.7.7.7.7.7.7.7.7.c x x / _ b 9 q e ",
"7.7.7.7.r r r r E $.| b b $.0 8 8 ~ | m <.$.t >.` # + # 0 O O O O O O & > s > = % > N = j < d > B B & V l p l a k e 0 # # m -.S 6 : z 7.7.7.7.7.7.7.7.7.7.7.7.q x x ( $.` e 0 e ",
"7.7.7.E r r r E m | c 7.{ m r r r E | n E $.W t #.$ # + e + O O O O O o = = s % = > N > < N > > B % * 6 i p a k w 0 # + o p -.S % z t t t 7.7.7.7.7.7.7.7.7.7.3 c c - A } x m 3 ",
"7.7.7.E r r r r t [ m 7.n r r r r E M n E +.k t t 0 $ O e + + + O O & = = % o % X o % , < N o B B % o & ; u 0 0 0 # # + & V >.S 7 [ t t t t t t t t t t t t t t t [ t t t ) ..t ",
"7.7.E E r r r r t m m 7.n r r r r 8 t E E +...E t + O # r r + % + % = = % @ > = > % > % s N o B > o + + + + # # # # + & * F >.S S t t 9 9 9 9 9 9 9 E E E E 8 8 8 t t t t t c [ ",
"7.7.7.E E E r r t m m 8 8 r r r r r r r E +.M 9 r O $ ; o r r # # @ = % @ % > % > = % % < N % f ; + O O O O + + + + ; & V l >.D D t 9 9 9 9 9 9 9 9 9 t 8 8 8 8 8 7.7.7.t t 8 v ",
"7.7.7.7.7.E r r r r E r r r r r 8 r r r E E X.0 9 # $ e r r E h = = % % % < < @ o = % = % > % d > + O O O O + + # ; 2 l l 9 >.I 7 t 9 9 9 8 8 8 8 t t t 8 8 8 - 7.7.t t t 8 8 8 ",
"7.7.7.7.E E E E E r r E E E 9 E E E r r E E $.w O # $ l r r h h s > % % = s > > o d % = % @ = , @ + O O O + + # u i S l 9 U >.H 5 t t t 7.8 - - 8 8 8 8 8 - 7.7.7.7.7.7.t t t 7.",
"7.7.7.7.r r r r r r r r E E E E E E r r E E $.k $ $ 0 E E E B f > > h % s s > > s s % = @ % % h h @ + O O + # 0 i l l 9 9 U >.D 7 t E t t t 7.- - - 8 8 8 7.7.7.7.7.7.7.7.7.7.7.",
"7.7.7.7.r r r r r r r r E E E E E E E E E E X.k 0 0 0 E E B B f h h h s s > o o s s > o o o o o s h h O O O + # # + + 9 E U >.H 7 E E 7.7.7.7.7.7.7.7.7.7.7.7.7.7.t t t t t 7.7.",
"7.7.7.7.7.7.7.7.7.7.7.7.7.7.7.7.E E E r r r $.e i 0 e E B B h h = = B s r r r r r o o o r r r o s s s s r r r r r r + r E U 5.I 6 E 7.7.7.$.$.7.7.7.7.7.t t t t 7.7.t t t t 7.7.",
"7.7.7.7.7.7.7.7.7.7.7.7.7.7.7.E r r r E E E X.) k w q E E r r r r r r r r r r r r r r r r r r r r s r r r r r r r r r r E -.>.T * 7.7.7.$.[ [ 7.7.7.7.7.7.t t 7.7.7.7.7.7.7.7.7.",
"7.7.7.7.7.7.7.7.7.7.7.7.r r r r r r r r r E .._ k k 0 E E r r r 9 9 r r r r r r r r r r r r r r r r r r r r r r r r r r E -.>.-.D 7.7.7.b b [ $.$.7.7.7.7.7.7.7.7.7.7.7.7.7.7.7.",
"7.7.7.7.7.7.7.7.7.7.7.E 9 9 9 9 9 r r r r E +...m k e a E E E r 9 9 r r r r r r r r r r r r r r r r r r E E E E E E E E E -.>.T H 7.7.c z v M [ [ 7.7.7.7.7.7.7.7.7.7.7.7.7.7.7.",
"7.t E E E 7.7.7.7.7.7.E r r r r 9 r r r E C 2...[ v e a E r r r r r r r r r r t t r r 7.7.7.7.r r r r r E E E E E E 7.7.>.>.T i { z b k e e k m m [ 7.7.7.7.7.7.7.7.7.7.7.7.7.7.",
"t t t t 7.7.7.7.7.7.7.7.7.7.7.7.7.r r E E <.2.&.[ m p # E r r r r r r r r r r t t 7.7.7.7.7.7.7.7.7.7.7.7.E E E 7.7.7.7.T e 8 y x _ z e 0 0 e k m 7.7.7.7.7.7.7.7.7.7.7.7.7.7.7.",
"7.7.7.7.7.7.7.7.7.E E E 7.7.7.7.t r E E <.<.@.{ [ ..l $ r r r r r r r r r r r r 7.7.7.7.7.7.7.7.7.7.7.7.7.7.7.7.7.7.7.7.y r e x x ` e # # # 0 a m 7.7.7.7.7.7.7.7.7.7.7.7.7.7.7.",
"7.7.7.7.7.7.7.E E t t t 7.7.7.7.t t t t <.<.X.+.+.+.n $ r r r r r r r r r r r r t t 7.7.7.E r r r 7.7.7.7.7.7.7.7.7.E E c x x c ) k 0 + + + ; m 7.7.7.7.7.7.7.7.7.7.7.7.7.7.7.7.",
"7.7.7.7.7.7.t E E E 7.7.7.7.7.7.t t [ $.X.X.k ..$.+.n $ r r r r r r r r r r r r t t r r r r r r r r 7.7.7.7.7.7.7.r r r c ^ $.[ k e # + + p m E E E r r E E 7.7.7.7.7.7.7.7.7.7.",
"7.7.7.7.7.7.t t t E 7.7.7.7.t t t t [ $.$.$.a a ..m [ r r r r r r r r r r r r r r r r r r r r r r r r r r r r r r r r r  .O.X.n a # # # $ m E E E r r r E E E E E E 7.7.7.7.7.7.",
"7.7.7.7.7.7.t t t 7.7.t t t t t t t t t [ [ 0 0 ..M r r r r r r r r r r r r r r r r E r r r r r r r r r r r r r r r r E $.{ m a $ + + + m r r r r r r r E E E r r r r r 7.7.7.7.",
"7.7.7.7.7.7.7.7.7.t t t t t t t t t t t E 7.7.r r r r r r r r r r r r E E E E r r r r r r r E E E E E E E E E E E E E E $.{ n $ $ $ ; a r r r r r r r E r r r r r r r r 7.7.7.7.",
"7.7.7.7.7.7.7.t t t t t t t t t t t t t E E r r r r 9 9 r r r r r r r E t t t t r r r r E E E E t t t t E E E E E E E E $.[ l $ $ p m r r r r r r r 9 r r r r r r E 7.7.7.7.7.7.",
"7.7.7.7.7.7.7.t t t t t t t t E t t t t t t t r r r E E E E E E E E E t t t t t E E E E E E t t t t t t t t t t t t t t $.n 1 $ p l m r r r r r r r 9 9 9 9 9 r E 7.7.7.7.7.7.7.",
"7.7.7.7.7.7.t t t t t t t t t 7.t t t t t t E E t t t t t t t t t t t t t t t t t t E E E t t t t t t t t t t t t t t t t t $ $ m m E r r r r r r r r r r r 9 r 7.7.7.7.7.7.7.7.",
"7.7.7.7.7.7.7.t t t t t t t 7.7.t t t t t t t t t t t t t t t t t t t t t t t t t t t t t t t t t t t t t t t t t t t t t t t t t t t t E r r r r r r r r r r r E 7.7.7.7.7.7.7.",
"7.7.7.7.7.7.7.7.7.7.7.7.7.7.7.7.7.t t t t t t t t t t t t 7.7.7.t t t t t t t t t t t t t t t t t t t t t t t t t t t t t t t t t t t t E r r r r r r r r r r r E 7.7.7.7.7.7.7."
};
