/* XPM */
static char *__0[] = {
/* columns rows colors chars-per-pixel */
"86 128 90 1 ",
"  c #131313",
". c gray9",
"X c #1B1B1B",
"o c gray12",
"O c #23170B",
"+ c #2F1F0F",
"@ c #1E371E",
"# c #3B2713",
"$ c #3A3319",
"% c #232323",
"& c gray15",
"* c #282828",
"= c #322D22",
"- c #363228",
"; c gray20",
": c #3A3A3A",
"> c #5C2103",
", c #53200A",
"< c #4B2F17",
"1 c #4A271B",
"2 c #453C15",
"3 c #57371B",
"4 c #662101",
"5 c #6F2200",
"6 c #633F1F",
"7 c #412921",
"8 c #453F2A",
"9 c #4F3F2B",
"0 c #2E4425",
"q c #5B4326",
"w c #674027",
"e c #734323",
"r c #7F4B27",
"t c #704628",
"y c #7A4B2B",
"u c #604C33",
"i c #6D5536",
"p c #7B5C3C",
"a c #434343",
"s c #4E4E4E",
"d c gray34",
"f c gray39",
"g c gray43",
"h c #777777",
"j c #821600",
"k c #9A1808",
"l c #A2240C",
"z c #A9300F",
"x c #B74817",
"c c #93472F",
"v c #8B532B",
"b c #814F30",
"n c #9B4B33",
"m c #8F5733",
"M c #9B5F3B",
"N c #9F633F",
"B c #C65F1F",
"V c #CD6B23",
"C c #D47727",
"Z c #AF5743",
"A c #866741",
"S c #976E45",
"D c #AB6B47",
"F c #A0764A",
"G c #AD7F4E",
"H c #B3734F",
"J c #DB832B",
"K c #EA9B32",
"L c #B78C58",
"P c #FFAF53",
"I c #C18564",
"U c #C49A69",
"Y c #CF9876",
"T c #FFB962",
"R c #FFC370",
"E c #FFCD7F",
"W c #FFF667",
"Q c #BC7F9E",
"! c #A2A2A2",
"~ c #AEAEAE",
"^ c #D5AE80",
"/ c #E5C196",
"( c #FEE19C",
") c #F4CAA7",
"_ c #F5D4AC",
"` c #FEF5B9",
"' c #E8BCC8",
"] c gainsboro",
"[ c #FEFFC7",
"{ c None",
/* pixels */
"{{{{{{{{{{{{{{{{{{{{{{{{{{{{{{{{{{{{{{{{{{{{{{{{{{{{{{{{{{{{{{{{{{{{{{{{{{{{{{{{{{{{{{",
"{{{{{{{{{{{{{{{{{{{{{{{{{{{{{{{{{{{{{{{{{{{{{{{{{{{{{{{{{{{{{{{{{{{{{{{{{{{{{{{{{{{{{{",
"{{{{{{{{{{{{{{{{{{{{{{{{{{{{{{{{{{{{{{{{{{{{{{{{{{{{{{{{{{{{{{{{{{{{{{{{{{{{{{{{{{{{{{",
"{{{{{{{{{{{{{{{{{{{{{{{{{{{{{{{{{{{{{{{{{{{{{{{{{{{{{{{{{{{{{{{{{{{{{{{{{{{{{{{{{{{{{{",
"{{{{{{{{{{{{{{{{{{{{{{{{{{{{{{{{{{{{{{{{{{{{{{{{{{{{{{{{{{{{{{{{{{{{{{{{{{{{{{{{{{{{{{",
"{{{{{{{{{{{{{{{{{{{{{{{{{{{{{{{{{{{{{{{{{{{{{{{{{{{{{{{{{{{{{{{{{{{{{{{{{{{{{{{{{{{{{{",
"{{{{{{{{{{{{{{{{{{{{{{{{{{{{{{{{{{{{{{{{{{{{{{{{{{{{{{{{{{{{{{{{{{{{{{{{{{{{{{{{{{{{{{",
"{{{{{{{{{{{{{{{{{{{{{{{{{{{{{{{{{{{{{{{{{{{{{{{{{{{{{{{{{{{{{{{{{{{{{{{{{{{{{{{{{{{{{{",
"{{{{{{{{{{{{{{{{{{{{{{{{{{{{{{{{{{{{{{{{{{{{{{{{{{{{{{{{{{{{{{{{{{{{{{{{{{{{{{{{{{{{{{",
"{{{{{{{{{{{{{{{{{{{{{{{{{{{{{{{{{{{{{{{{{{{{{{{{{{{{{{{{{{{{{{{{{{{{{{{{{{{{{{{{{{{{{{",
"{{{{{{{{{{{{{{{{{{{{{{{{{{{{{{{{{{{{{{{{{{{{{{{{{{{{{{{{{{{{{{{{{{{{{{{{{{{{{{{{{{{{{{",
"{{{{{{{{{{{{{{{{{{{{{{{{{{{{{{{{{{{{{{{{{{{{{{{{{{{{{{{{{{{{{{{{{{{{{{{{{{{{{{{{{{{{{{",
"{{{{{{{{{{{{{{{{{{{{{{{{{{{{{{{{{{{{{{{{{{{{{{{{{{{{{{{{{{{{{{{{{{{{{{{{{{{{{{{{{{{{{{",
"{{{{{{{{{{{{{{{{{{{{{{{{{{{{{{{{{{{{{{{{{{{{{{{{{{{{{{{{{{{{{{{{{{{{{{{{{{{{{{{{{{{{{{",
"{{{{{{{{{{{{{{{{{{{{{{{{{{{{{{{{{{{{{{{{{{{{{{{{{{{{{{{{{{{{{{{{{{{{{{{{{{{{{{{{{{{{{{",
"{{{{{{{{{{{{{{{{{{{{{{{{{{{{{{{{{{{{{{{{{{{{{{{{{{{{{{{{{{{{{{{{{{{{{{{{{{{{{{{{{{{{{{",
"{{{{{{{{{{{{{{{{{{{{{{{{{{{{{{{{{{{{{{{{{{{{{{{{{{{{{{{{{{{{{{{{{{{{{{{{{{{{{{{{{{{{{{",
"{{{{{{{{{{{{{{{{{{{{{{{{{{{{{{{{{{{{{{{{{{{{{{{{{{{{{{{{{{{{{{{{{{{{{{{{{{{{{{{{{{{{{{",
"{{{{{{{{{{{{{{{{{{{{{{{{{{{{{{{{{{{{{{{{{{{{{{{{{{{{{{{{{{{U^(`['{{{{{{{{{{{{{{{{{{{{{",
"{{{{{{{{{{{{{{{{{{{{{{{{{{{{{{{{{{{{{{{{{{{{{{{{{{{{{{{{{{__[`()`_{{{{{{{{{{{{{{{{{{{{",
"{{{{{{{{{{{{{{{{{{{{{{{{{{{{{{{{{{{{{{{{{{{{{{{{{{{{{{{{{^G[[]]__Qg{{{{{{{{{{{{{{{{{{{",
"{{{{{{{{{{{{{{{{{{{{{{{{{{{{{{{{{{{{{{{{{{{{{{{{{{{{{{{{{GIguh~~IIi{{{{{{{{{{{{{{{{{{{",
"{{{{{{{{{{{{{{{{{{{{{{{{{{{{{{{{{{{{{{{{{{{{{{{{{{{{{{{{GGI5lAA2f!p{{{{{{{{{{{{{{{{{{{",
"{{{{{{{{{{{{{{{{{{{{{{{{{{{{{{{{{{{{{{{{{{{{{{{{{{{{{{{{L/~iIIA3w8q{{{{{{{{{{{{{{{{{{{",
"{{{{{{{{{{{{{{{{{{{{{{{{{{{{{{{{{{{{{{{{{{{{{{{{{{{{{{{{puAFguf5,OO{{{{{{{{{{{{{{{{{{{",
"{{{{{{{{{{{{{{{{{{{{{{{{{{{{{{{{{{{{{{{{{{{{{{{{{{{{{{{{FpS^Augfi+{{{{{{{{{{{{{{{{{{{{",
"{{{{{{{{{{{{{{{{{{{{{{{{{{{{{{{{{{{{{{{{{{{{{{{{{{{{{{{{IAQYSuu8a&{{{{{{{{{{{{{{{{{{{{",
"{{{{{{{{{{{{{{{{{{{{{{{{{{{{{{{{{{{{{{{{{{{{{{{{{{{{{{{{)PS8ug#O&{{{{{{{{{{{{{{{{{{{{{",
"{{{{{{{{{{{{{{{{{{{{{{{{{{{{{{{{{{{{{{{{GLLG{{{{{{{{{{{8GLFhdsOO{{{{{{{{{{{{{{{{{{{{{{",
"{{{{{{{{{AAi{{{{{{{{{{{{{{{{{{{{{{{{{{{URRTTR{{{{{{{{{{F#2uqqi&{{{{{{{{{{{{{{{{{{{{{{{",
"{{{{UWWWWWWUSGUTTUULL{{{{{{{{{{{{{GUEERTTPULGUERTLpqbbLGiOO&&;{{{{{{{{{{{{{{{{{{{{{{{{",
"{{PRERTURRR<O#+O+#3ymFGUERRWWEEERRRRTUULLLGFGTTTULAi9AGGp$ OO {{{{{{{{{{{{{{{{{{{{{{{{",
"{KRRRT{OGRU{O+#$3tt6<$##bTRRRRRRRRRPUGSAAAApUURRULAAiGGFuq+OO{{{{{{{{{{{{{{{{{{{{{{{{{",
"eRRER{{{6PF{{{{O++<tMm6#3vMNDDDGUUUGSiq922qFUTTTUUGFFGFAqq+O+#{{{{{{{{{{{{{{{{{{{{{{{{",
"KTRU{{{{{Lb{{{{{{O+++3b6#++OOOO+#363#+++O+qSLUULLULFpAAiq2##+O#{{{{{{{{{{{{{{{{{{{{{{{",
"bM6{{{{{{{{{{{{{{{{OOOOOOOOOOOOOO++++OOOO+ippAFGUUTULFAiq$2$$$Su{{{{{{{{{{{{{{{{{{{{{{",
"{{{{{{{{{{{{{{{{{{{{{{{{{{{{{{{  {{{{{{ O2tqiuFFGUTRTPUSFGFFSFGGp{{{{{{{{{{{{{{{{{{{{{",
"{{{{{{{{{{{{{{{{{{{{{{{{{{{{{{{{{{{{{{{{ 29qpiiSSSFGLULGGGFFFGGGGF{{{{{{{{{{{{{{{{{{{{",
"{{{{{{{{{{{{{{{{{{{{{{{{{{{{{{{{{{{{{{{{ O22quq9uppASFFFGGFGGGGLUGG{{{{{{{{{{{{{{{{{{{",
"{{{{{{{{{{{{{{{{{{{{{{{{{{{{{{{{{{{{{{{{ OOO$226qiupippAGLGFGGLUULGUFA{{{{{{{{{{{{{{{{",
"{{{{{{{{{{{{{{{{{{{{{{{{{{{{{{{{{{{{{{{{{  OO+$$qq3upSpqSSFFFFLLGSpMFLU{{{{{{{{{{{{{{{",
"{{{{{{{{{{{{{{{{{{{{{{{{{{{{{{{{{{{{{{{{{OO  OOO+$$3<<q2uSSSFFFFApu6tpMF{{{{{{{{{{{{{{",
"{{{{{{{{{{{{{{{{{{{{{{{{{{{{{{{{{{{{{{{{{+O OO OOO+#$36#t9iiiuiiiu2tybpAi{{{{{{{{{{{{{",
"{{{{{{{{{{{{{{{{{{{{{{{{{{{{{{{{{{{{{{{{{#+O+#OO+$qqyvy3Fu$$2iiiu22tbbppp{{{{{{{{{{{{{",
"{{{{{{{{{{{{{{{{{{{{{{{{{{{{{{{{{{{{{{{{{+++2tiiqq<##+O+$qq$OO#292$3tibbp{{{{{{{{{{{{{",
"{{{{{{{{{{{{{{{{{{{{{{{{{{{{{{{{{{{{{{{{{O++3pppt<#<$2O#$+$2+OOOO++2<36qq{{{{{{{{{{{{{",
"{{{{{{{{{{{{{{{{{{{{{{{{{{{{{{{{{{{{{{{{{ ++2ip31<wMDwOwtq222  OOOO#$$$<q{{{{{{{{{{{{{",
"{{{{{{{{{{{{{{{{{{{{{{{{{{{{{{{{{{{{{{{{{{<O$63+3eenn+,nytq$9$ O {O#$###<{{{{{{{{{{{{{",
"{{{{{{{{{{{{{{{{{{{{{{{{{{{{{{{{{{{{{{{{{{6++66+,e3,+O+eee3#$2O {{+$$$+#${{{{{{{{{{{{{",
"{{{{{{{{{{{{{{{{{{{{{{{{{{{{{{{{{{{{{{{{{{O+O3e,+OOOOOOOO#++p$+O{{#9q922+{{{{{{{{{{{{{",
"{{{{{{{{{{{{{{{{{{{{{{{{{{{{{{{{{{{{{{{{{{{{+je{#++,,O,,O++#qA<+{{2iApiq{{{{{{{{{{{{{{",
"{{{{{{{{{{{{{{{{{{{{{{{{{{{{{{{{{{{{{{{{{{{{{,j{,{+e,O5j<${{{3O{{{#tMAi9{{{{{{{{{{{{{{",
"{{{{{{{{{{{{{{{{{{{{{{{{{{{{{{{{{{{{{{{{{{{{{{{#O{{+O+5,{{ {{{{{{{+3bbt<{{{{{{{{{{{{{{",
"{{{{{{{{{{{{{{{{{{{{{{{{{{{{{{{{{{{{{{{{{{{{{{{{{{{X ,+{{{{{{{{{{{O<666<{{{{{{{{{{{{{{",
"{{{{{{{{{{{{{{{{{{{{{{{{{{{{{{{{{{{{{{{{{{{{OO>>,{{..XX{{1e,{{{{{{O+<<3<{{{{{{{{{{{{{{",
"{{{{{{{{{{{{{{{{{{{{{{{{{{{{{{{{{{{{{{{{{{{+++O,,,+.... O4le,{{{{{O+#,<3{{{{{{{{{{{{{{",
"{{{{{{{{{{{{{{{{{{{{{{{{{{{{{{{{{{{{{{{{{ +#,,<+#,#OOOOOO5enlj+ {{ O++,,{{{{{{{{{{{{{{",
"{{{{{{{{{{{{{{{{{{{{{{{{{{{{{{{{{{{{{{{{{OO,>44#34,#44>>5>exzz5O{{ OOO,,{{{{{{{{{{{{{{",
"{{{{{{{{{{{{{{{{{{{{{{{{{{{{{{{{{{{{{{{{{O+#,4>,lj>eeeeej,ezzljO{{ OX {,{{{{{{{{{{{{{{",
"{{{{{{{{{{{{{{{{{{{{{{{{{{{{{{{{{{{{{{{{{OO+,,,4eeeclee54,5jee3#{{OOX {{{{{{{{{{{{{{{{",
"{{{{{{{{{{{{{{{{{{{{{{{{{{{{{{{{{{{{{{{{{OO+#,<e333<63,55,j4>1##{{ oo%{{{{{{{{{{{{{{{{",
"{{{{{{{{{{{{{{{{{{{{{{{{{{{{{{{{{{{{{{{{{ O++13ee331,3eej,5>1###{{{ of{{{{{{{{{{{{{{{{",
"{{{{{{{{{{{{{{{{{{{{{{{{{{{{{{{{{{{{{{{{{ OO+1<3366,3,45j>,###$<{{{{;g{{{{{{{{{{{{{{{{",
"{{{{{{{{{{{{{{{{{{{{{{{{{{{{{{{{{{{{{{{{{ OOX#<1<338<34>,#####pu{{{{ag{{{{{{{{{{{{{{{{",
"{{{{{{{{{{{{{{{{{{{{{{{{{{{{{{{{{{{{{{{{{$OO+#$#sfdhfd#+++##$iu9{{{{;f{{{{{{{{{{{{{{{{",
"{{{{{{{{{{{{{{{{{{{{{{{{{{{{{{{{{{{{{{{{{p+OO+#&&%ad%%=0++##q$$i{{{{ofa{{{{{{{{{{{{{{{",
"{{{{{{{{{{{{{{{{{{{{{{{{{{{{{{{{{{{{{{{{{ip#O+#O      @0++O+$+up${{{{dd{{{{{{{{{{{{{{{",
"{{{{{{{{{{{{{{{{{{{{{{{{{{{{{{{{{{{{{{{{$ipi#OO#@    X@@   +Oqpi9{{{{af{{{{{{{{{{{{{{{",
"{{{{{{{{{{{{{{{{{{{{{{{{{{{{{{{{{{{{{{{{$p9qq  @@@  X@@@    $piuq{{{{:f{{{{{{{{{{{{{{{",
"{{{{{{{{{{{{{{{{{{{{{{{{{{{{{{{{{{{{{{{{9pp+2O @@@@@@@@@X  Oupiuq{{{{-f{{{{{{{{{{{{{{{",
"{{{{{{{{{{{{{{{{{{{{{{{{{{{{{{{{{{{{{{{{qAF2 O X@@@@@@@@@  9uiiuu{{{{of{{{{{{{{{{{{{{{",
"{{{{{{{{{{{{{{{{{{{{{{{{{{{{{{{{{{{{{{{{iAFAO   @@@@@@@@X $9qiiiu{{{{{f{{{{{{{{{{{{{{{",
"{{{{{{{{{{{{{{{{{{{{{{{{{{{{{{{{{{{{{{{{ASFAuO  @@@@X@@@ O$2qpipi{{{{{u8{{{{{{{{{{{{{{",
"{{{{{{{{{{{{{{{{{{{{{{{{{{{{{{{{{{{{{{{{SSFAiq  @@@@X@@@ +$2qpppp{{{{{#3O{{{{{{{{{{{{{",
"{{{{{{{{{{{{{{{{{{{{{{{{{{{{{{{{{{{{{{{{SSSpiq$ @@@@X@@@O#$2qipppq{{{{+,+{{{{{{{{{{{{{",
"{{{{{{{{{{{{{{{{{{{{{{{{{{{{{{{{{{{{{{{$ASApuqq @@@@X@@@O#$29ippAp{{{{#6+{{{{{{{{{{{{{",
"{{{{{{{{{{{{{{{{{{{{{{{{{{{{{{{{{{{{{{{$pApiuqqO@@@@X@@@O+$$2qipAA{{{{<t<{{{{{{{{{{{{{",
"{{{{{{{{{{{{{{{{{{{{{{{{{{{{{{{{{{{{{{{2pppiuq9+@@@@X@@@O+2$2quiAAp{{{3t<{{{{{{{{{{{{{",
"{{{{{{{{{{{{{{{{{{{{{{{{{{{{{{{{{{{{{{{2ibbiuq9+@@@@X@@@O+2$$2quppp{{{v66{{{{{{{{{{{{{",
"{{{{{{{{{{{{{{{{{{{{{{{{{{{{{{{{{{{{{{{2iiiiiqq$@@@@X@@OOO$$$29uipp9{{Mbm{{{{{{{{{{{{{",
"{{{{{{{{{{{{{{{{{{{{{{{{{{{{{{{{{{{{{{{2iiiiiqq<@@@@X@@ OO+$$$9quiiu{qvmm{{{{{{{{{{{{{",
"{{{{{{{{{{{{{{{{{{{{{{{{{{{{{{{{{{{{{{{2iibiiqq<$@@@X@@  O+$$$2quuuu{bypp{{{{{{{{{{{{{",
"{{{{{{{{{{{{{{{{{{{{{{{{{{{{{{{{{{{{{{{$ibpbiq9w0@@@X@@  O+$$$2qquuuq6bmp{{{{{{{{{{{{{",
"{{{{{{{{{{{{{{{{{{{{{{{{{{{{{{{{{{{{{{{#tbyyw63e$@@@X@@{{O+$$$9qquqq6bbwq{{{{{{{{{{{{{",
"{{{{{{{{{{{{{{{{{{{{{{{{{{{{{{{{{{{{{{{+6eee63,4#@@@X@@{{O+$$$9qqqqq63{<<{{{{{{{{{{{{{",
"{{{{{{{{{{{{{{{{{{{{{{{{{{{{{{{{{{{{{{{{36e54,,,+@@@@@X{{ O#$$29qqqq<{{6${{{{{{{{{{{{{",
"{{{{{{{{{{{{{{{{{{{{{{{{{{{{{{{{{{{{{{{{,35j>,,,+@@@@@ {{ O+$$2<9q93#{{<{{{{{{{{{{{{{{",
"{{{{{{{{{{{{{{{{{{{{{{{{{{{{{{{{{{{{{{{{,,kk,,,,+@@X@@{{{ O+#$$2<333#{+3{{{{{{{{{{{{{{",
"{{{{{{{{{{{{{{{{{{{{{{{{{{{{{{{{{{{{{{{{#,lj,,,++@@@X@{{{{+O+##$<<<<#{$<{{{{{{{{{{{{{{",
"{{{{{{{{{{{{{{{{{{{{{{{{{{{{{{{{{{{{{{{{O,,,,#,+OO {{{{{{{OO+##+#$2<+{+{{{{{{{{{{{{{{{",
"{{{{{{{{{{{{{{{{{{{{{{{{{{{{{{{{{{{{{{{{O,,O++,+OO {{{{{{{ OO+++++$<+{{{{{{{{{{{{{{{{{",
"{{{{{{{{{{{{{{{{{{{{{{{{{{{{{{{{{{{{{{{{{k+O++,,O  {{{{{{{ OOO+OO+#<#{{{{{{{{{{{{{{{{{",
"{{{{{{{{{{{{{{{{{{{{{{{{{{{{{{{{{{{{{{{{{,e3,,+,, O{{{{{{{{OOOOOO+1<<{{{{{{{{{{{{{{{{{",
"{{{{{{{{{{{{{{{{{{{{{{{{{{{{{{{{{{{{{{{{{,vv,OOO+O {{{{{{{{OOOOO+,,,<{{{{{{{{{{{{{{{{{",
"{{{{{{{{{{{{{{{{{{{{{{{{{{{{{{{{{{{{{{{{{<Am>,+OOO {{{{{{{{ OOO+,3,,,{{{{{{{{{{{{{{{{{",
"{{{{{{{{{{{{{{{{{{{{{{{{{{{{{{{{{{{{{{{{{6ii<#+OOO{{{{{{{{{{OOOO,3,,,{{{{{{{{{{{{{{{{{",
"{{{{{{{{{{{{{{{{{{{{{{{{{{{{{{{{{{{{{{{{{39$#+OOOO{{{{{{{{{{ O O+1,,,{{{{{{{{{{{{{{{{{",
"{{{{{{{{{{{{{{{{{{{{{{{{{{{{{{{{{{{{{{{{{9#OOOOOO{{{{{{{{{{{{OOo&O+#,+{{{{{{{{{{{{{{{{",
"{{{{{{{{{{{{{{{{{{{{{{{{{{{{{{{{{{{{{{{{{q#OOOOOO{{{{{{{{{{{{{{ oX{+1+{{{{{{{{{{{{{{{{",
"{{{{{{{{{{{{{{{{{{{{{{{{{{{{{{{{{{{{{{{{qq$+++++O{{{{{{{{{{{{{{{XX  #{{{{{{{{{{{{{{{{{",
"{{{{{{{{{{{{{{{{{{{{{{{{{{{{{{{{{{{{{{{{pt2++++#+{{{{{{{{{{{{{{{ XX{o{{{{{{{{{{{{{{{{{",
"{{{{{{{{{{{{{{{{{{{{{{{{{{{{{{{{{{{{{{{{pq<#++##+{{{{{{{{{{{{{{{{XX:*{{{{{{{{{{{{{{{{{",
"{{{{{{{{{{{{{{{{{{{{{{{{{{{{{{{{{{{{{{{$iq<##+##+{{{{{{{{{{{{{{{{XX--{{{{{{{{{{{{{{{{{",
"{{{{{{{{{{{{{{{{{{{{{{{{{{{{{{{{{{{{{{{$tq9$####+{{{{{{{{{{{{{{{{.X*{{{{{{{{{{{{{{{{{{",
"{{{{{{{{{{{{{{{{{{{{{{{{{{{{{{{{{{{{{{{+qqq$$##+O{{{{{{{{{{{{{{{{{X%aa{{{{{{{{{{{{{{{{",
"{{{{{{{{{{{{{{{{{{{{{{{{{{{{{{{{{{{{{{{{qqq$$##+ {{{{{{{{{{{{{{{{{%sfa{{{{{{{{{{{{{{{{",
"{{{{{{{{{{{{{{{{{{{{{{{{{{{{{{{{{{{{{{{{qq9$$##+{{{{{{{{{{{{{{{{{{*sf:{{{{{{{{{{{{{{{{",
"{{{{{{{{{{{{{{{{{{{{{{{{{{{{{{{{{{{{{{{{qq9$$#+O{{{{{{{{{{{{{{{{{{Xads:{{{{{{{{{{{{{{{",
"{{{{{{{{{{{{{{{{{{{{{{{{{{{{{{{{{{{{{{{{2q2$$#+{{{{{{{{{{{{{{{{{{{{:sfs{{{{{{{{{{{{{{{",
"{{{{{{{{{{{{{{{{{{{{{{{{{{{{{{{{{{{{{{{{$92$$#O{{{{{{{{{{{{{{{{{{{{;sfa{{{{{{{{{{{{{{{",
"{{{{{{{{{{{{{{{{{{{{{{{{{{{{{{{{{{{{{{{{O99$$+{{{{{{{{{{{{{{{{{{{{{%ad{{{{{{{{{{{{{{{{",
"{{{{{{{{{{{{{{{{{{{{{{{{{{{{{{{{{{{{{{{{{9q<$+{{{{{{{{{{{{{{{{{{{{{{assa{{{{{{{{{{{{{{",
"{{{{{{{{{{{{{{{{{{{{{{{{{{{{{{{{{{{{{{{{{qq2$O{{{{{{{{{{{{{{{{{{{{{{asfs{{{{{{{{{{{{{{",
"{{{{{{{{{{{{{{{{{{{{{{{{{{{{{{{{{{{{{{{{{qi2$ {{{{{{{{{{{{{{{{{{{{{{;sss{{{{{{{{{{{{{{",
"{{{{{{{{{{{{{{{{{{{{{{{{{{{{{{{{{{{{{{{{{qi9#{{{{{{{{{{{{{{{{{{{{{{{-sssu{{{{{{{{{{{{{",
"{{{{{{{{{{{{{{{{{{{{{{{{{{{{{{{{{{{{{{{{{2i9#{{{{{{{{{{{{{{{{{{{{{{{osdsf{{{{{{{{{{{{{",
"{{{{{{{{{{{{{{{{{{{{{{{{{{{{{{{{{{{{{{{{{#t6,{{{{{{{{{{{{{{{{{{{{{{{odfsa{{{{{{{{{{{{{",
"{{{{{{{{{{{{{{{{{{{{{{{{{{{{{{{{{{{{{{{{{+r,,{{{{{{{{{{{{{{{{{{{{{{{osgg::{{{{{{{{{{{{",
"{{{{{{{{{{{{{{{{{{{{{{{{{{{{{{{{{{{{{{{{{#e,++{{{{{{{{{{{{{{{{{{{{{{.ass7#{{{{{{{{{{{{",
"{{{{{{{{{{{{{{{{{{{{{{{{{{{{{{{{{{{{{{{{{<e3##{{{{{{{{{{{{{{{{{{{{{{{*-=###{{{{{{{{{{{",
"{{{{{{{{{{{{{{{{{{{{{{{{{{{{{{{{{{{{{{{{{et62${{{{{{{{{{{{{{{{{{{{{{{{{{1<6{{{{{{{{{{{",
"{{{{{{{{{{{{{{{{{{{{{{{{{{{{{{{{{{{{{{{{{DUAi+{{{{{{{{{{{{{{{{{{{{{{{{O+6r1er{{{{{{{{{",
"{{{{{{{{{{{{{{{{{{{{{{{{{{{{{{{{{{{{{{{{UPUGqO{{{{{{{{{{{{{{{{{{{{{{{{O3rBZere{{{{{{{{",
"{{{{{{{{{{{{{{{{{{{{{{{{{{{{{{{{{{{{{{AEWETS2#{{{{{{{{{{{{{{{{{{{{{{{{O<rVCVBH{{{{{{{{",
"{{{{{{{{{{{{{{{{{{{{{{{{{{{{{{{{{{{{{^WWEERL<O{{{{{{{{{{{{{{{{{{{{{{{{{<nVJCHK<{{{{{{{",
"{{{{{{{{{{{{{{{{{{{{{{{{{{{{{{{{{{{{FRRRRTFi# {{{{{{{{{{{{{{{{{{{{{{{{{#nBCHNy{{{{{{{{",
"{{{{{{{{{{{{{{{{{{{{{{{{{{{{{{{{{{{{3FGFA6$O{{{{{{{{{{{{{{{{{{{{{{{{{{{O6eb6+{{{{{{{{{",
"{{{{{{{{{{{{{{{{{{{{{{{{{{{{{{{{{{{{{{{{{{{{{{{{{{{{{{{{{{{{{{{{{{{{{{{{{ {{{{{{{{{{{{"
};
