/* XPM */
static char *__4[] = {
/* columns rows colors chars-per-pixel */
"86 128 92 1 ",
"  c #131313",
". c gray9",
"X c #1B1B1B",
"o c gray12",
"O c #23170B",
"+ c #2F1F0F",
"@ c #1E371E",
"# c #3B2713",
"$ c #3A3319",
"% c #232323",
"& c gray15",
"* c #282828",
"= c #322D22",
"- c #363228",
"; c gray20",
": c #3A3A3A",
"> c #5C2103",
", c #53200A",
"< c #4B2F17",
"1 c #4A271B",
"2 c #453C15",
"3 c #57371B",
"4 c #662101",
"5 c #6F2200",
"6 c #633F1F",
"7 c #412921",
"8 c #453F2A",
"9 c #4F3F2B",
"0 c #5B4326",
"q c #674027",
"w c #734323",
"e c #7F4B27",
"r c #704628",
"t c #7A4B2B",
"y c #604C33",
"u c #6D5536",
"i c #7B5C3C",
"p c #434343",
"a c #4E4E4E",
"s c gray34",
"d c gray39",
"f c gray43",
"g c #777777",
"h c #821600",
"j c #9A1808",
"k c #A2240C",
"l c #A9300F",
"z c #B74817",
"x c #BE541B",
"c c #93472F",
"v c #8B532B",
"b c #814F30",
"n c #9B4B33",
"m c #8F5733",
"M c #9B5F3B",
"N c #9F633F",
"B c #C65F1F",
"V c #CD6B23",
"C c #D47727",
"Z c #AF5743",
"A c #866741",
"S c #976E45",
"D c #AB6B47",
"F c #A0764A",
"G c #AD7F4E",
"H c #B3734F",
"J c #DB832B",
"K c #E28F2E",
"L c #EA9B32",
"P c #B78C58",
"I c #FFAF53",
"U c #C49A69",
"Y c #CF9876",
"T c #FFB962",
"R c #FFC370",
"E c #FFCD7F",
"W c #FFF667",
"Q c #AF6F90",
"! c #BC7F9E",
"~ c #848484",
"^ c #939393",
"/ c #AEAEAE",
"( c #B9B9B9",
") c #D5AE80",
"_ c #DCA6BC",
"` c #E5C196",
"' c #F4CAA7",
"] c #F5D4AC",
"[ c #FEF5B9",
"{ c #E8BCC8",
"} c #FEFFC7",
"| c None",
/* pixels */
"||||||||||||||||||||||||||||||||||||||||||||||||||||||||||||||||||||||||||||||||||||||",
"||||||||||||||||||||||||||||||||||||||||||||||||||||||||||||||||||||||||||||||||||||||",
"||||||||||||||||||||||||||||||||||||||||||||||||||||||||||||||||||||||||||||||||||||||",
"||||||||||||||||||||||||||||||||||||||||||||||||||||||||||||||||||||||||||||||||||||||",
"||||||||||||||||||||||||||||||||||||||||||||||||||||||||||||||||||||||||||||||||||||||",
"||||||||||||||||||||||||||||||||||||||||||||||||||||||||||||||||||||||||||||||||||||||",
"||||||||||||||||||||||||||||||||||||||||||||||||||||||||||||||||||||||||||||||||||||||",
"||||||||||||||||||||||||||||||||||||||||||||||||||||||||||||||||||||||||||||||||||||||",
"||||||||||||||||||||||||||||||||||||||||||||||||||||||||||||||||||||||||||||||||||||||",
"||||||||||||||||||||||||||||||||||||||||||||||||||||||||||||||||||||||||||||||||||||||",
"||||||||||||||||||||||||||||||||||||||||||||||||||||||||||||||||||||||||||||||||||||||",
"||||||||||||||||||||||||||||||||||||||||||||||||||||||||||||||||||||||||||||||||||||||",
"||||||||||||||||||||||||||||||||||||||||||||||||||||||||||||||||||||||||||||||||||||||",
"||||||||||||||||||||||||||||||||||||||||||||||||||||||||||||||||||||||||||||||||||||||",
"||||||||||||||||||||||||||||||||||||||||||||||||||||||||||||||||||||||||||||||||||||||",
"||||||||||||||||||||||||||||||||||||||||||||||||||||||||||||||||||||||||||||||||||||||",
"||||||||||||||||||||||||||||||||||||||||||||||||||||||||||||||||||||||||||||||||||||||",
"||||||||||||||||||||||||||||||||||||||||||||||||||||||||||||||||||||||||||||||||||||||",
"||||||||||||||||||||||||||||||||||||||||||||||||||||||||||Q{}}{~||||||||||||||||||||||",
"|||||||||||||||||||||||||||||||||||||||||||||||||||||||||}[`[}}}'|||||||||||||||||||||",
"||||||||||||||||||||||||||||||||||||||||||||||||||||||||``_GGF_'`!||||||||||||||||||||",
"|||||||||||||||||||||||||||||||||||||||||||||||||||||||g){/!!]'YY{8|||||||||||||||||||",
"|||||||||||||||||||||||||||||||||||||||||||||||||||||||GGFfAQ{(!/_0|||||||||||||||||||",
"|||||||||||||||||||||||||||||||||||||||||||||||||||||||SSiy0A^ds~fa|||||||||||||||||||",
"|||||||||||||||||||||||||||||||||||||||||||||||||||||||AAiuyS&,&0&;|||||||||||||||||||",
"|||||||||||||||||||||||||||||||||||||||||||||||||||||||33uFPQ+#Ai, |||||||||||||||||||",
"|||||||||||||||||||||||||||||||||||||||||||||||||||||||$29rid8ua:+||||||||||||||||||||",
"|||||||||||||||||||||||||||||||||||||||||||||||||||||||O2S2&&$sy0p||||||||||||||||||||",
"||||||||||||||||||||||||||||||||||||||||||||||||||||||||0iy$$yA72|||||||||||||||||||||",
"||||||||||||||||||||||||||||||||||||||||||||||||||||||||uySy2ayu8|||||||||||||||||||||",
"||||||||||||||||||||||||||||||||||||||||||||||||||||||||A7u!Pi8;||||||||||||||||||||||",
"||||||||||||||||||||||||||||||||||||||||||||||||||||||bAA0o:008:||||||||||||||||||||||",
"|||||||||||||||||||||||||||||||||||||||||||||AGG||||iv<iAu#OO**X||||||||||||||||||||||",
"|||||||||||||||||||||||||||||||||||||||||||UERRRTUFiu2$uiy9OOO||||||||||||||||||||||||",
"||||||||||||||||||||||||||||||||||||||||||GRTTRRRUPi092yi09$ O#|||||||||||||||||||||||",
"||||||||||||||||||||||||||||||||||||||||||UUUUTTTUUFu000u02$O#$y||||||||||||||||||||||",
"|||||||||||||||||||||||||||||||||||||||||2AFGPUUPGFGGuuiAiy$+222y2||||||||||||||||||||",
"||||||||||||||||||||||||||||||||||||||||||0SFFFFSFiPUUFFPPGi0yy00iFEU|||||||||||||||||",
"||||||||||||||||||||||||||||||||||||||||||$iFFFSSFiAPGGPPPUGAAuuSPPUET||||||||||||||||",
"||||||||||||||||||||||||||||||||||||||||||O3AFFSFGSiFSUUPSGPGSGFGPUSMAF|||||||||||||||",
"|||||||||||||||||||||||||||||||||||||||||||+rNPPKIUAASPUS3iFFSFGGFGS3309||||||||||||||",
"||||||||||||||||||||||||||||||||||||||||||||<bPIITWPyyu63$uAFFSFFSFS<<90||||||||||||||",
"||||||||||||||||||||||||||||||||||||||||||||#3MKLITRPivnM6F00iiiASFS6<90||||||||||||||",
"||||||||||||||||||||||||||||||||||||||||||||#<bHLLLLI3<#+$0i030iAAAi9#$2||||||||||||||",
"||||||||||||||||||||||||||||||||||||||||||||23vHLILLLM33##$$00+2uiiu+OO+||||||||||||||",
"||||||||||||||||||||||||||||||||||||||||||||2<vDJIILKHvM#3r322+OO++OOOO+||||||||||||||",
"||||||||||||||||||||||||||||||||||||||||||||$<tNGLLLKHve+3tbu99OOOOOOO+#||||||||||||||",
"|||||||||||||||||||||||||||||||||||||||||||<<#3mNGKIIDw6Owzer20$ O+OOO$$||||||||||||||",
"|||||||||||||||||||||||||||||||||||||||||||1w<$rMDJIID#OOO#66<$$ |#OO$00||||||||||||||",
"||||||||||||||||||||||||||||||||||||||||||||w<<6mFJITG3+,,OO#+i+||+O+0bq||||||||||||||",
"|||||||||||||||||||||||||||||||||||||||||||||4,<mNGLITB,,5,+3PR<||OOO$661|||||||||||||",
"||||||||||||||||||||||||||||||||||||||||||||||w1vFDKKLKe+hh|0P0<|||OOO#<<|||||||||||||",
"|||||||||||||||||||||||||||||||||||||||||||||||+<bNDKIKK1,|| ||||||OOOO#+|||||||||||||",
"||||||||||||||||||||||||||||||||||||||||||||||,|O<bNKIIU3O|||||||||XOOOO||||||||||||||",
"||||||||||||||||||||||||||||||||||||||||||||,>kh,+<tFKII|1+|||||||||OOO|||||||||||||||",
"||||||||||||||||||||||||||||||||||||||||||||>>,h5>+6vDKLL4,|||||||||oOO*||||||||||||||",
"||||||||||||||||||||||||||||||||||||||||||| >>wwO+|#rMGLIn#,,,wO||||||o=||||||||||||||",
"|||||||||||||||||||||||||||||||||||||||||||O,+wc+O O<bNPIIw>5wl,O ||||o%;|||||||||||||",
"|||||||||||||||||||||||||||||||||||||||||||#<6we+O O#3bNURJwwhl5O |||||&-|||||||||||||",
"|||||||||||||||||||||||||||||||||||||||||||<$3ww,O O++6bNIRnhhk5O |||||o&;||||||||||||",
"||||||||||||||||||||||||||||||||||||||||||>1#$11,O O+O+rmGIRx5h,| ||||||&p||||||||||||",
"||||||||||||||||||||||||||||||||||||||||||,+##<<3+  ++O$rmF66xw#|+||||||%-||||||||||||",
"||||||||||||||||||||||||||||||||||||||||||,O+##$1#O OO O3mrNGPUb+#|||||||&;|||||||||||",
"||||||||||||||||||||||||||||||||||||||||||<i93#####  O OtGULLLIIP0|||||||o;|||||||||||",
"||||||||||||||||||||||||||||||||||||||||||uFu2$###++O  #JILLLLIILP||||||||=8O|||||||||",
"||||||||||||||||||||||||||||||||||||||||||iSS022##++O  +BGGKKKLIILLm||||||**+|||||||||",
"||||||||||||||||||||||||||||||||||||||||||AASA$2$++++   >nNDHGGFM<<mt|||||*O#|||||||||",
"||||||||||||||||||||||||||||||||||||||||||AAASiO+OOO+   Owvmvtrrm6||||||||.O+|||||||||",
"||||||||||||||||||||||||||||||||||||||||||iAAAS0OO       +36330rbm|||||||||O$<||||||||",
"|||||||||||||||||||||||||||||||||||||||||2iiAAAA$         +,3366qtq|||||||||3t||||||||",
"|||||||||||||||||||||||||||||||||||||||||9iAAAAAiO   X    OO13336rm|||||||||rm||||||||",
"|||||||||||||||||||||||||||||||||||||||||yAAAASAu0   X    @X+<<30qb<||||||||6b<|||||||",
"|||||||||||||||||||||||||||||||||||||||||uAASSSAuu$  XX    @@O<33<<|||||||||3r6|||||||",
"|||||||||||||||||||||||||||||||||||||||||iASSSSAu0i X@@    @@ ++++O|||||||||66<|||||||",
"|||||||||||||||||||||||||||||||||||||||||iASSSSAu0u$O@@    @@O22yi||||||||||36+|||||||",
"|||||||||||||||||||||||||||||||||||||||||iAASSAiy09u @@@   @@O290u0||||||||,<3+|||||||",
"|||||||||||||||||||||||||||||||||||||||||iiAAAiu002uO@@@    XO229yu||||||||<<3O|||||||",
"|||||||||||||||||||||||||||||||||||||||||uiiiibu002$ @@@   XO+$220y||||||||+|#O|||||||",
"|||||||||||||||||||||||||||||||||||||||||ubiibu0002$OX@@    X+$$2000||||||||||||||||||",
"|||||||||||||||||||||||||||||||||||||||||uuuuuu0009$O @@    O#$$290y||||||||||||||||||",
"|||||||||||||||||||||||||||||||||||||||||uuuuu00000$O @@     $$$2900||||||||||||||||||",
"|||||||||||||||||||||||||||||||||||||||||uuuuur00u0<O @@    O$$$2990+|||||||||||||||||",
"|||||||||||||||||||||||||||||||||||||||||qruuuuurub9+ @@    O$$$2990$|||||||||||||||||",
"|||||||||||||||||||||||||||||||||||||||||66qrurrqrbr+|X@    O$$$2900$|||||||||||||||||",
"|||||||||||||||||||||||||||||||||||||||||>36qqqq66ww+|X@    O$$$$9002|||||||||||||||||",
"|||||||||||||||||||||||||||||||||||||||||,>336633>ww,|X@    O##$$2002|||||||||||||||||",
"|||||||||||||||||||||||||||||||||||||||||,,,>333,555,|XX    O###$$33$|||||||||||||||||",
"|||||||||||||||||||||||||||||||||||||||||+,,,<<,jh54,|X@    O++##$<<$|||||||||||||||||",
"|||||||||||||||||||||||||||||||||||||||||O,,,,,,55,>+| @    O+++##$<+|||||||||||||||||",
"||||||||||||||||||||||||||||||||||||||||||,,,,#,+,,,O|||||O OOOOO+++O|||||||||||||||||",
"||||||||||||||||||||||||||||||||||||||||||,,5,,,OO++O|||||OOOOOO OO+O|||||||||||||||||",
"||||||||||||||||||||||||||||||||||||||||||h5hjkO+OO+ |||||O OOOOOOOO||||||||||||||||||",
"||||||||||||||||||||||||||||||||||||||||||,kjj,,,+,O |||||O OOOOOOO+||||||||||||||||||",
"||||||||||||||||||||||||||||||||||||||||||OjjO4wt,,O||||||  OOOOOO+,||||||||||||||||||",
"||||||||||||||||||||||||||||||||||||||||||#+O,wiMcOO|||||||OO OO   ,+|||||||||||||||||",
"||||||||||||||||||||||||||||||||||||||||||$,+6ruiv+O|||||||O      .O+|||||||||||||||||",
"||||||||||||||||||||||||||||||||||||||||||$q660032+|||||||| O OOOOoOO|||||||||||||||||",
"||||||||||||||||||||||||||||||||||||||||||9u609$+OO|||||||||   OO|X|O|||||||||||||||||",
"||||||||||||||||||||||||||||||||||||||||||iiu0<#OO|||||||||||||XX| | |||||||||||||||||",
"||||||||||||||||||||||||||||||||||||||||||FAu02#OO|||||||||||||.o ||||||||||||||||||||",
"|||||||||||||||||||||||||||||||||||||||||uSAb02#O+||||||||||||| oX|X||||||||||||||||||",
"|||||||||||||||||||||||||||||||||||||||||AAiu0<#O#||||||||||||||oo|o||||||||||||||||||",
"|||||||||||||||||||||||||||||||||||||||||iiu00$#++||||||||||||||o* o||||||||||||||||||",
"|||||||||||||||||||||||||||||||||||||||||uur09$##+||||||||||||||&*XX||||||||||||||||||",
"|||||||||||||||||||||||||||||||||||||||||000092$$O||||||||||||||&o* ||||||||||||||||||",
"|||||||||||||||||||||||||||||||||||||||||00009<<$ ||||||||||||||oo=|||||||||||||||||||",
"|||||||||||||||||||||||||||||||||||||||||<000222#|||||||||||||||oo-|&|||||||||||||||||",
"|||||||||||||||||||||||||||||||||||||||||#009222+||||||||||||||||o-|;|||||||||||||||||",
"||||||||||||||||||||||||||||||||||||||||||092222O||||||||||||||||*a.:|||||||||||||||||",
"||||||||||||||||||||||||||||||||||||||||||222222|||||||||||||||||:a--|||||||||||||||||",
"||||||||||||||||||||||||||||||||||||||||||$222<$|||||||||||||||||:ap%|||||||||||||||||",
"||||||||||||||||||||||||||||||||||||||||||+2222+|||||||||||||||||;ps|;||||||||||||||||",
"||||||||||||||||||||||||||||||||||||||||||+0099||||||||||||||||||-pd|:||||||||||||||||",
"|||||||||||||||||||||||||||||||||||||||||||yu00||||||||||||||||||-ad|a||||||||||||||||",
"|||||||||||||||||||||||||||||||||||||||||||uuyu||||||||||||||||||-ad:p||||||||||||||||",
"|||||||||||||||||||||||||||||||||||||||||||ruyr||||||||||||||||||=adf:||||||||||||||||",
"|||||||||||||||||||||||||||||||||||||||||||wy0t||||||||||||||||||;pf~a*|||||||||||||||",
"|||||||||||||||||||||||||||||||||||||||||||3utl||||||||||||||||||;pddyO|||||||||||||||",
"|||||||||||||||||||||||||||||||||||||||||||3uw>||||||||||||||||||.-;;&+|||||||||||||||",
"|||||||||||||||||||||||||||||||||||||||||||qiww|||||||||||||||||||O+OO<+||||||||||||||",
"|||||||||||||||||||||||||||||||||||||||||||eN3w3||||||||||||||||||++1+3xw|||||||||||||",
"|||||||||||||||||||||||||||||||||||||||||||BlFFA||||||||||||||||||#<3eZKLCw|||||||||||",
"||||||||||||||||||||||||||||||||||||||||||ex)RRR||||||||||||||||||O13wxVKLLB3|||||||||",
"|||||||||||||||||||||||||||||||||||||||||AEREEEW|||||||||||||||||||O+<wxVKLIJw||||||||",
"|||||||||||||||||||||||||||||||||||||||||TEREEEW)||||||||||||||||||||O+<wxJJLv||||||||",
"|||||||||||||||||||||||||||||||||||||||||GTRRRRREP||||||||||||||||||||| O$3wq|||||||||",
"|||||||||||||||||||||||||||||||||||||||||2FUTTTTTG||||||||||||||||||||||||||||||||||||",
"||||||||||||||||||||||||||||||||||||||||||||+<6rr6<|||||||||||||||||||||||||||||||||||"
};
